G04 #@! TF.GenerationSoftware,KiCad,Pcbnew,5.1.7*
G04 #@! TF.CreationDate,2020-11-03T15:06:47+01:00*
G04 #@! TF.ProjectId,audioplayer,61756469-6f70-46c6-9179-65722e6b6963,rev?*
G04 #@! TF.SameCoordinates,Original*
G04 #@! TF.FileFunction,Paste,Top*
G04 #@! TF.FilePolarity,Positive*
%FSLAX46Y46*%
G04 Gerber Fmt 4.6, Leading zero omitted, Abs format (unit mm)*
G04 Created by KiCad (PCBNEW 5.1.7) date 2020-11-03 15:06:47*
%MOMM*%
%LPD*%
G01*
G04 APERTURE LIST*
G04 #@! TA.AperFunction,Profile*
%ADD10C,0.100000*%
G04 #@! TD*
%ADD11R,1.800000X2.500000*%
%ADD12R,0.900000X0.800000*%
%ADD13R,1.000000X3.500000*%
%ADD14R,0.640000X1.400000*%
%ADD15R,0.200000X0.250000*%
%ADD16R,0.600000X0.700000*%
%ADD17R,1.000000X1.500000*%
%ADD18R,0.800000X0.900000*%
%ADD19R,2.500000X1.800000*%
%ADD20R,5.900000X1.600000*%
%ADD21R,6.000000X6.000000*%
%ADD22O,2.500000X0.900000*%
%ADD23O,0.900000X2.500000*%
%ADD24R,0.600000X0.240000*%
%ADD25R,0.650000X0.400000*%
%ADD26R,1.060000X0.650000*%
%ADD27R,0.700000X0.510000*%
%ADD28R,0.650000X1.060000*%
%ADD29R,1.300000X1.900000*%
%ADD30R,1.000000X2.800000*%
%ADD31R,1.000000X0.800000*%
%ADD32R,1.000000X1.200000*%
%ADD33R,0.700000X1.200000*%
G04 APERTURE END LIST*
D10*
X156845000Y-121285000D02*
X56515000Y-121285000D01*
X156845000Y-121285000D02*
X156845000Y-21590000D01*
X56515000Y-27940000D02*
X56515000Y-121285000D01*
X97790000Y-21590000D02*
X156845000Y-21590000D01*
X97790000Y-27940000D02*
X97790000Y-21590000D01*
X56515000Y-27940000D02*
X97790000Y-27940000D01*
D11*
X128905000Y-61373000D03*
X128905000Y-65373000D03*
D12*
X145980000Y-62484000D03*
X143580000Y-63434000D03*
X143580000Y-61534000D03*
G36*
G01*
X87398600Y-56207200D02*
X88673600Y-56207200D01*
G75*
G02*
X88723600Y-56257200I0J-50000D01*
G01*
X88723600Y-56357200D01*
G75*
G02*
X88673600Y-56407200I-50000J0D01*
G01*
X87398600Y-56407200D01*
G75*
G02*
X87348600Y-56357200I0J50000D01*
G01*
X87348600Y-56257200D01*
G75*
G02*
X87398600Y-56207200I50000J0D01*
G01*
G37*
G36*
G01*
X87398600Y-56707200D02*
X88673600Y-56707200D01*
G75*
G02*
X88723600Y-56757200I0J-50000D01*
G01*
X88723600Y-56857200D01*
G75*
G02*
X88673600Y-56907200I-50000J0D01*
G01*
X87398600Y-56907200D01*
G75*
G02*
X87348600Y-56857200I0J50000D01*
G01*
X87348600Y-56757200D01*
G75*
G02*
X87398600Y-56707200I50000J0D01*
G01*
G37*
G36*
G01*
X87398600Y-57207200D02*
X88673600Y-57207200D01*
G75*
G02*
X88723600Y-57257200I0J-50000D01*
G01*
X88723600Y-57357200D01*
G75*
G02*
X88673600Y-57407200I-50000J0D01*
G01*
X87398600Y-57407200D01*
G75*
G02*
X87348600Y-57357200I0J50000D01*
G01*
X87348600Y-57257200D01*
G75*
G02*
X87398600Y-57207200I50000J0D01*
G01*
G37*
G36*
G01*
X87398600Y-57707200D02*
X88673600Y-57707200D01*
G75*
G02*
X88723600Y-57757200I0J-50000D01*
G01*
X88723600Y-57857200D01*
G75*
G02*
X88673600Y-57907200I-50000J0D01*
G01*
X87398600Y-57907200D01*
G75*
G02*
X87348600Y-57857200I0J50000D01*
G01*
X87348600Y-57757200D01*
G75*
G02*
X87398600Y-57707200I50000J0D01*
G01*
G37*
G36*
G01*
X87398600Y-58207200D02*
X88673600Y-58207200D01*
G75*
G02*
X88723600Y-58257200I0J-50000D01*
G01*
X88723600Y-58357200D01*
G75*
G02*
X88673600Y-58407200I-50000J0D01*
G01*
X87398600Y-58407200D01*
G75*
G02*
X87348600Y-58357200I0J50000D01*
G01*
X87348600Y-58257200D01*
G75*
G02*
X87398600Y-58207200I50000J0D01*
G01*
G37*
G36*
G01*
X87398600Y-58707200D02*
X88673600Y-58707200D01*
G75*
G02*
X88723600Y-58757200I0J-50000D01*
G01*
X88723600Y-58857200D01*
G75*
G02*
X88673600Y-58907200I-50000J0D01*
G01*
X87398600Y-58907200D01*
G75*
G02*
X87348600Y-58857200I0J50000D01*
G01*
X87348600Y-58757200D01*
G75*
G02*
X87398600Y-58707200I50000J0D01*
G01*
G37*
G36*
G01*
X87398600Y-59207200D02*
X88673600Y-59207200D01*
G75*
G02*
X88723600Y-59257200I0J-50000D01*
G01*
X88723600Y-59357200D01*
G75*
G02*
X88673600Y-59407200I-50000J0D01*
G01*
X87398600Y-59407200D01*
G75*
G02*
X87348600Y-59357200I0J50000D01*
G01*
X87348600Y-59257200D01*
G75*
G02*
X87398600Y-59207200I50000J0D01*
G01*
G37*
G36*
G01*
X87398600Y-59707200D02*
X88673600Y-59707200D01*
G75*
G02*
X88723600Y-59757200I0J-50000D01*
G01*
X88723600Y-59857200D01*
G75*
G02*
X88673600Y-59907200I-50000J0D01*
G01*
X87398600Y-59907200D01*
G75*
G02*
X87348600Y-59857200I0J50000D01*
G01*
X87348600Y-59757200D01*
G75*
G02*
X87398600Y-59707200I50000J0D01*
G01*
G37*
G36*
G01*
X87398600Y-60207200D02*
X88673600Y-60207200D01*
G75*
G02*
X88723600Y-60257200I0J-50000D01*
G01*
X88723600Y-60357200D01*
G75*
G02*
X88673600Y-60407200I-50000J0D01*
G01*
X87398600Y-60407200D01*
G75*
G02*
X87348600Y-60357200I0J50000D01*
G01*
X87348600Y-60257200D01*
G75*
G02*
X87398600Y-60207200I50000J0D01*
G01*
G37*
G36*
G01*
X87398600Y-60707200D02*
X88673600Y-60707200D01*
G75*
G02*
X88723600Y-60757200I0J-50000D01*
G01*
X88723600Y-60857200D01*
G75*
G02*
X88673600Y-60907200I-50000J0D01*
G01*
X87398600Y-60907200D01*
G75*
G02*
X87348600Y-60857200I0J50000D01*
G01*
X87348600Y-60757200D01*
G75*
G02*
X87398600Y-60707200I50000J0D01*
G01*
G37*
G36*
G01*
X87398600Y-61207200D02*
X88673600Y-61207200D01*
G75*
G02*
X88723600Y-61257200I0J-50000D01*
G01*
X88723600Y-61357200D01*
G75*
G02*
X88673600Y-61407200I-50000J0D01*
G01*
X87398600Y-61407200D01*
G75*
G02*
X87348600Y-61357200I0J50000D01*
G01*
X87348600Y-61257200D01*
G75*
G02*
X87398600Y-61207200I50000J0D01*
G01*
G37*
G36*
G01*
X87398600Y-61707200D02*
X88673600Y-61707200D01*
G75*
G02*
X88723600Y-61757200I0J-50000D01*
G01*
X88723600Y-61857200D01*
G75*
G02*
X88673600Y-61907200I-50000J0D01*
G01*
X87398600Y-61907200D01*
G75*
G02*
X87348600Y-61857200I0J50000D01*
G01*
X87348600Y-61757200D01*
G75*
G02*
X87398600Y-61707200I50000J0D01*
G01*
G37*
G36*
G01*
X86573600Y-62532200D02*
X86673600Y-62532200D01*
G75*
G02*
X86723600Y-62582200I0J-50000D01*
G01*
X86723600Y-63857200D01*
G75*
G02*
X86673600Y-63907200I-50000J0D01*
G01*
X86573600Y-63907200D01*
G75*
G02*
X86523600Y-63857200I0J50000D01*
G01*
X86523600Y-62582200D01*
G75*
G02*
X86573600Y-62532200I50000J0D01*
G01*
G37*
G36*
G01*
X86073600Y-62532200D02*
X86173600Y-62532200D01*
G75*
G02*
X86223600Y-62582200I0J-50000D01*
G01*
X86223600Y-63857200D01*
G75*
G02*
X86173600Y-63907200I-50000J0D01*
G01*
X86073600Y-63907200D01*
G75*
G02*
X86023600Y-63857200I0J50000D01*
G01*
X86023600Y-62582200D01*
G75*
G02*
X86073600Y-62532200I50000J0D01*
G01*
G37*
G36*
G01*
X85573600Y-62532200D02*
X85673600Y-62532200D01*
G75*
G02*
X85723600Y-62582200I0J-50000D01*
G01*
X85723600Y-63857200D01*
G75*
G02*
X85673600Y-63907200I-50000J0D01*
G01*
X85573600Y-63907200D01*
G75*
G02*
X85523600Y-63857200I0J50000D01*
G01*
X85523600Y-62582200D01*
G75*
G02*
X85573600Y-62532200I50000J0D01*
G01*
G37*
G36*
G01*
X85073600Y-62532200D02*
X85173600Y-62532200D01*
G75*
G02*
X85223600Y-62582200I0J-50000D01*
G01*
X85223600Y-63857200D01*
G75*
G02*
X85173600Y-63907200I-50000J0D01*
G01*
X85073600Y-63907200D01*
G75*
G02*
X85023600Y-63857200I0J50000D01*
G01*
X85023600Y-62582200D01*
G75*
G02*
X85073600Y-62532200I50000J0D01*
G01*
G37*
G36*
G01*
X84573600Y-62532200D02*
X84673600Y-62532200D01*
G75*
G02*
X84723600Y-62582200I0J-50000D01*
G01*
X84723600Y-63857200D01*
G75*
G02*
X84673600Y-63907200I-50000J0D01*
G01*
X84573600Y-63907200D01*
G75*
G02*
X84523600Y-63857200I0J50000D01*
G01*
X84523600Y-62582200D01*
G75*
G02*
X84573600Y-62532200I50000J0D01*
G01*
G37*
G36*
G01*
X84073600Y-62532200D02*
X84173600Y-62532200D01*
G75*
G02*
X84223600Y-62582200I0J-50000D01*
G01*
X84223600Y-63857200D01*
G75*
G02*
X84173600Y-63907200I-50000J0D01*
G01*
X84073600Y-63907200D01*
G75*
G02*
X84023600Y-63857200I0J50000D01*
G01*
X84023600Y-62582200D01*
G75*
G02*
X84073600Y-62532200I50000J0D01*
G01*
G37*
G36*
G01*
X83573600Y-62532200D02*
X83673600Y-62532200D01*
G75*
G02*
X83723600Y-62582200I0J-50000D01*
G01*
X83723600Y-63857200D01*
G75*
G02*
X83673600Y-63907200I-50000J0D01*
G01*
X83573600Y-63907200D01*
G75*
G02*
X83523600Y-63857200I0J50000D01*
G01*
X83523600Y-62582200D01*
G75*
G02*
X83573600Y-62532200I50000J0D01*
G01*
G37*
G36*
G01*
X83073600Y-62532200D02*
X83173600Y-62532200D01*
G75*
G02*
X83223600Y-62582200I0J-50000D01*
G01*
X83223600Y-63857200D01*
G75*
G02*
X83173600Y-63907200I-50000J0D01*
G01*
X83073600Y-63907200D01*
G75*
G02*
X83023600Y-63857200I0J50000D01*
G01*
X83023600Y-62582200D01*
G75*
G02*
X83073600Y-62532200I50000J0D01*
G01*
G37*
G36*
G01*
X82573600Y-62532200D02*
X82673600Y-62532200D01*
G75*
G02*
X82723600Y-62582200I0J-50000D01*
G01*
X82723600Y-63857200D01*
G75*
G02*
X82673600Y-63907200I-50000J0D01*
G01*
X82573600Y-63907200D01*
G75*
G02*
X82523600Y-63857200I0J50000D01*
G01*
X82523600Y-62582200D01*
G75*
G02*
X82573600Y-62532200I50000J0D01*
G01*
G37*
G36*
G01*
X82073600Y-62532200D02*
X82173600Y-62532200D01*
G75*
G02*
X82223600Y-62582200I0J-50000D01*
G01*
X82223600Y-63857200D01*
G75*
G02*
X82173600Y-63907200I-50000J0D01*
G01*
X82073600Y-63907200D01*
G75*
G02*
X82023600Y-63857200I0J50000D01*
G01*
X82023600Y-62582200D01*
G75*
G02*
X82073600Y-62532200I50000J0D01*
G01*
G37*
G36*
G01*
X81573600Y-62532200D02*
X81673600Y-62532200D01*
G75*
G02*
X81723600Y-62582200I0J-50000D01*
G01*
X81723600Y-63857200D01*
G75*
G02*
X81673600Y-63907200I-50000J0D01*
G01*
X81573600Y-63907200D01*
G75*
G02*
X81523600Y-63857200I0J50000D01*
G01*
X81523600Y-62582200D01*
G75*
G02*
X81573600Y-62532200I50000J0D01*
G01*
G37*
G36*
G01*
X81073600Y-62532200D02*
X81173600Y-62532200D01*
G75*
G02*
X81223600Y-62582200I0J-50000D01*
G01*
X81223600Y-63857200D01*
G75*
G02*
X81173600Y-63907200I-50000J0D01*
G01*
X81073600Y-63907200D01*
G75*
G02*
X81023600Y-63857200I0J50000D01*
G01*
X81023600Y-62582200D01*
G75*
G02*
X81073600Y-62532200I50000J0D01*
G01*
G37*
G36*
G01*
X79073600Y-61707200D02*
X80348600Y-61707200D01*
G75*
G02*
X80398600Y-61757200I0J-50000D01*
G01*
X80398600Y-61857200D01*
G75*
G02*
X80348600Y-61907200I-50000J0D01*
G01*
X79073600Y-61907200D01*
G75*
G02*
X79023600Y-61857200I0J50000D01*
G01*
X79023600Y-61757200D01*
G75*
G02*
X79073600Y-61707200I50000J0D01*
G01*
G37*
G36*
G01*
X79073600Y-61207200D02*
X80348600Y-61207200D01*
G75*
G02*
X80398600Y-61257200I0J-50000D01*
G01*
X80398600Y-61357200D01*
G75*
G02*
X80348600Y-61407200I-50000J0D01*
G01*
X79073600Y-61407200D01*
G75*
G02*
X79023600Y-61357200I0J50000D01*
G01*
X79023600Y-61257200D01*
G75*
G02*
X79073600Y-61207200I50000J0D01*
G01*
G37*
G36*
G01*
X79073600Y-60707200D02*
X80348600Y-60707200D01*
G75*
G02*
X80398600Y-60757200I0J-50000D01*
G01*
X80398600Y-60857200D01*
G75*
G02*
X80348600Y-60907200I-50000J0D01*
G01*
X79073600Y-60907200D01*
G75*
G02*
X79023600Y-60857200I0J50000D01*
G01*
X79023600Y-60757200D01*
G75*
G02*
X79073600Y-60707200I50000J0D01*
G01*
G37*
G36*
G01*
X79073600Y-60207200D02*
X80348600Y-60207200D01*
G75*
G02*
X80398600Y-60257200I0J-50000D01*
G01*
X80398600Y-60357200D01*
G75*
G02*
X80348600Y-60407200I-50000J0D01*
G01*
X79073600Y-60407200D01*
G75*
G02*
X79023600Y-60357200I0J50000D01*
G01*
X79023600Y-60257200D01*
G75*
G02*
X79073600Y-60207200I50000J0D01*
G01*
G37*
G36*
G01*
X79073600Y-59707200D02*
X80348600Y-59707200D01*
G75*
G02*
X80398600Y-59757200I0J-50000D01*
G01*
X80398600Y-59857200D01*
G75*
G02*
X80348600Y-59907200I-50000J0D01*
G01*
X79073600Y-59907200D01*
G75*
G02*
X79023600Y-59857200I0J50000D01*
G01*
X79023600Y-59757200D01*
G75*
G02*
X79073600Y-59707200I50000J0D01*
G01*
G37*
G36*
G01*
X79073600Y-59207200D02*
X80348600Y-59207200D01*
G75*
G02*
X80398600Y-59257200I0J-50000D01*
G01*
X80398600Y-59357200D01*
G75*
G02*
X80348600Y-59407200I-50000J0D01*
G01*
X79073600Y-59407200D01*
G75*
G02*
X79023600Y-59357200I0J50000D01*
G01*
X79023600Y-59257200D01*
G75*
G02*
X79073600Y-59207200I50000J0D01*
G01*
G37*
G36*
G01*
X79073600Y-58707200D02*
X80348600Y-58707200D01*
G75*
G02*
X80398600Y-58757200I0J-50000D01*
G01*
X80398600Y-58857200D01*
G75*
G02*
X80348600Y-58907200I-50000J0D01*
G01*
X79073600Y-58907200D01*
G75*
G02*
X79023600Y-58857200I0J50000D01*
G01*
X79023600Y-58757200D01*
G75*
G02*
X79073600Y-58707200I50000J0D01*
G01*
G37*
G36*
G01*
X79073600Y-58207200D02*
X80348600Y-58207200D01*
G75*
G02*
X80398600Y-58257200I0J-50000D01*
G01*
X80398600Y-58357200D01*
G75*
G02*
X80348600Y-58407200I-50000J0D01*
G01*
X79073600Y-58407200D01*
G75*
G02*
X79023600Y-58357200I0J50000D01*
G01*
X79023600Y-58257200D01*
G75*
G02*
X79073600Y-58207200I50000J0D01*
G01*
G37*
G36*
G01*
X79073600Y-57707200D02*
X80348600Y-57707200D01*
G75*
G02*
X80398600Y-57757200I0J-50000D01*
G01*
X80398600Y-57857200D01*
G75*
G02*
X80348600Y-57907200I-50000J0D01*
G01*
X79073600Y-57907200D01*
G75*
G02*
X79023600Y-57857200I0J50000D01*
G01*
X79023600Y-57757200D01*
G75*
G02*
X79073600Y-57707200I50000J0D01*
G01*
G37*
G36*
G01*
X79073600Y-57207200D02*
X80348600Y-57207200D01*
G75*
G02*
X80398600Y-57257200I0J-50000D01*
G01*
X80398600Y-57357200D01*
G75*
G02*
X80348600Y-57407200I-50000J0D01*
G01*
X79073600Y-57407200D01*
G75*
G02*
X79023600Y-57357200I0J50000D01*
G01*
X79023600Y-57257200D01*
G75*
G02*
X79073600Y-57207200I50000J0D01*
G01*
G37*
G36*
G01*
X79073600Y-56707200D02*
X80348600Y-56707200D01*
G75*
G02*
X80398600Y-56757200I0J-50000D01*
G01*
X80398600Y-56857200D01*
G75*
G02*
X80348600Y-56907200I-50000J0D01*
G01*
X79073600Y-56907200D01*
G75*
G02*
X79023600Y-56857200I0J50000D01*
G01*
X79023600Y-56757200D01*
G75*
G02*
X79073600Y-56707200I50000J0D01*
G01*
G37*
G36*
G01*
X79073600Y-56207200D02*
X80348600Y-56207200D01*
G75*
G02*
X80398600Y-56257200I0J-50000D01*
G01*
X80398600Y-56357200D01*
G75*
G02*
X80348600Y-56407200I-50000J0D01*
G01*
X79073600Y-56407200D01*
G75*
G02*
X79023600Y-56357200I0J50000D01*
G01*
X79023600Y-56257200D01*
G75*
G02*
X79073600Y-56207200I50000J0D01*
G01*
G37*
G36*
G01*
X81073600Y-54207200D02*
X81173600Y-54207200D01*
G75*
G02*
X81223600Y-54257200I0J-50000D01*
G01*
X81223600Y-55532200D01*
G75*
G02*
X81173600Y-55582200I-50000J0D01*
G01*
X81073600Y-55582200D01*
G75*
G02*
X81023600Y-55532200I0J50000D01*
G01*
X81023600Y-54257200D01*
G75*
G02*
X81073600Y-54207200I50000J0D01*
G01*
G37*
G36*
G01*
X81573600Y-54207200D02*
X81673600Y-54207200D01*
G75*
G02*
X81723600Y-54257200I0J-50000D01*
G01*
X81723600Y-55532200D01*
G75*
G02*
X81673600Y-55582200I-50000J0D01*
G01*
X81573600Y-55582200D01*
G75*
G02*
X81523600Y-55532200I0J50000D01*
G01*
X81523600Y-54257200D01*
G75*
G02*
X81573600Y-54207200I50000J0D01*
G01*
G37*
G36*
G01*
X82073600Y-54207200D02*
X82173600Y-54207200D01*
G75*
G02*
X82223600Y-54257200I0J-50000D01*
G01*
X82223600Y-55532200D01*
G75*
G02*
X82173600Y-55582200I-50000J0D01*
G01*
X82073600Y-55582200D01*
G75*
G02*
X82023600Y-55532200I0J50000D01*
G01*
X82023600Y-54257200D01*
G75*
G02*
X82073600Y-54207200I50000J0D01*
G01*
G37*
G36*
G01*
X82573600Y-54207200D02*
X82673600Y-54207200D01*
G75*
G02*
X82723600Y-54257200I0J-50000D01*
G01*
X82723600Y-55532200D01*
G75*
G02*
X82673600Y-55582200I-50000J0D01*
G01*
X82573600Y-55582200D01*
G75*
G02*
X82523600Y-55532200I0J50000D01*
G01*
X82523600Y-54257200D01*
G75*
G02*
X82573600Y-54207200I50000J0D01*
G01*
G37*
G36*
G01*
X83073600Y-54207200D02*
X83173600Y-54207200D01*
G75*
G02*
X83223600Y-54257200I0J-50000D01*
G01*
X83223600Y-55532200D01*
G75*
G02*
X83173600Y-55582200I-50000J0D01*
G01*
X83073600Y-55582200D01*
G75*
G02*
X83023600Y-55532200I0J50000D01*
G01*
X83023600Y-54257200D01*
G75*
G02*
X83073600Y-54207200I50000J0D01*
G01*
G37*
G36*
G01*
X83573600Y-54207200D02*
X83673600Y-54207200D01*
G75*
G02*
X83723600Y-54257200I0J-50000D01*
G01*
X83723600Y-55532200D01*
G75*
G02*
X83673600Y-55582200I-50000J0D01*
G01*
X83573600Y-55582200D01*
G75*
G02*
X83523600Y-55532200I0J50000D01*
G01*
X83523600Y-54257200D01*
G75*
G02*
X83573600Y-54207200I50000J0D01*
G01*
G37*
G36*
G01*
X84073600Y-54207200D02*
X84173600Y-54207200D01*
G75*
G02*
X84223600Y-54257200I0J-50000D01*
G01*
X84223600Y-55532200D01*
G75*
G02*
X84173600Y-55582200I-50000J0D01*
G01*
X84073600Y-55582200D01*
G75*
G02*
X84023600Y-55532200I0J50000D01*
G01*
X84023600Y-54257200D01*
G75*
G02*
X84073600Y-54207200I50000J0D01*
G01*
G37*
G36*
G01*
X84573600Y-54207200D02*
X84673600Y-54207200D01*
G75*
G02*
X84723600Y-54257200I0J-50000D01*
G01*
X84723600Y-55532200D01*
G75*
G02*
X84673600Y-55582200I-50000J0D01*
G01*
X84573600Y-55582200D01*
G75*
G02*
X84523600Y-55532200I0J50000D01*
G01*
X84523600Y-54257200D01*
G75*
G02*
X84573600Y-54207200I50000J0D01*
G01*
G37*
G36*
G01*
X85073600Y-54207200D02*
X85173600Y-54207200D01*
G75*
G02*
X85223600Y-54257200I0J-50000D01*
G01*
X85223600Y-55532200D01*
G75*
G02*
X85173600Y-55582200I-50000J0D01*
G01*
X85073600Y-55582200D01*
G75*
G02*
X85023600Y-55532200I0J50000D01*
G01*
X85023600Y-54257200D01*
G75*
G02*
X85073600Y-54207200I50000J0D01*
G01*
G37*
G36*
G01*
X85573600Y-54207200D02*
X85673600Y-54207200D01*
G75*
G02*
X85723600Y-54257200I0J-50000D01*
G01*
X85723600Y-55532200D01*
G75*
G02*
X85673600Y-55582200I-50000J0D01*
G01*
X85573600Y-55582200D01*
G75*
G02*
X85523600Y-55532200I0J50000D01*
G01*
X85523600Y-54257200D01*
G75*
G02*
X85573600Y-54207200I50000J0D01*
G01*
G37*
G36*
G01*
X86073600Y-54207200D02*
X86173600Y-54207200D01*
G75*
G02*
X86223600Y-54257200I0J-50000D01*
G01*
X86223600Y-55532200D01*
G75*
G02*
X86173600Y-55582200I-50000J0D01*
G01*
X86073600Y-55582200D01*
G75*
G02*
X86023600Y-55532200I0J50000D01*
G01*
X86023600Y-54257200D01*
G75*
G02*
X86073600Y-54207200I50000J0D01*
G01*
G37*
G36*
G01*
X86573600Y-54207200D02*
X86673600Y-54207200D01*
G75*
G02*
X86723600Y-54257200I0J-50000D01*
G01*
X86723600Y-55532200D01*
G75*
G02*
X86673600Y-55582200I-50000J0D01*
G01*
X86573600Y-55582200D01*
G75*
G02*
X86523600Y-55532200I0J50000D01*
G01*
X86523600Y-54257200D01*
G75*
G02*
X86573600Y-54207200I50000J0D01*
G01*
G37*
D13*
X73787000Y-55771600D03*
X73787000Y-61271600D03*
D14*
X138036300Y-48501300D03*
D15*
X137186300Y-49251300D03*
X137186300Y-48751300D03*
X137186300Y-48251300D03*
X137186300Y-47751300D03*
X138886300Y-47751300D03*
X138886300Y-48251300D03*
X138886300Y-48751300D03*
X138886300Y-49251300D03*
D16*
X100649000Y-69088000D03*
X99249000Y-69088000D03*
G36*
G01*
X136621000Y-41404250D02*
X136621000Y-40891750D01*
G75*
G02*
X136839750Y-40673000I218750J0D01*
G01*
X137277250Y-40673000D01*
G75*
G02*
X137496000Y-40891750I0J-218750D01*
G01*
X137496000Y-41404250D01*
G75*
G02*
X137277250Y-41623000I-218750J0D01*
G01*
X136839750Y-41623000D01*
G75*
G02*
X136621000Y-41404250I0J218750D01*
G01*
G37*
G36*
G01*
X135046000Y-41404250D02*
X135046000Y-40891750D01*
G75*
G02*
X135264750Y-40673000I218750J0D01*
G01*
X135702250Y-40673000D01*
G75*
G02*
X135921000Y-40891750I0J-218750D01*
G01*
X135921000Y-41404250D01*
G75*
G02*
X135702250Y-41623000I-218750J0D01*
G01*
X135264750Y-41623000D01*
G75*
G02*
X135046000Y-41404250I0J218750D01*
G01*
G37*
G36*
G01*
X141607250Y-48291000D02*
X141094750Y-48291000D01*
G75*
G02*
X140876000Y-48072250I0J218750D01*
G01*
X140876000Y-47634750D01*
G75*
G02*
X141094750Y-47416000I218750J0D01*
G01*
X141607250Y-47416000D01*
G75*
G02*
X141826000Y-47634750I0J-218750D01*
G01*
X141826000Y-48072250D01*
G75*
G02*
X141607250Y-48291000I-218750J0D01*
G01*
G37*
G36*
G01*
X141607250Y-49866000D02*
X141094750Y-49866000D01*
G75*
G02*
X140876000Y-49647250I0J218750D01*
G01*
X140876000Y-49209750D01*
G75*
G02*
X141094750Y-48991000I218750J0D01*
G01*
X141607250Y-48991000D01*
G75*
G02*
X141826000Y-49209750I0J-218750D01*
G01*
X141826000Y-49647250D01*
G75*
G02*
X141607250Y-49866000I-218750J0D01*
G01*
G37*
G36*
G01*
X136621000Y-39753250D02*
X136621000Y-39240750D01*
G75*
G02*
X136839750Y-39022000I218750J0D01*
G01*
X137277250Y-39022000D01*
G75*
G02*
X137496000Y-39240750I0J-218750D01*
G01*
X137496000Y-39753250D01*
G75*
G02*
X137277250Y-39972000I-218750J0D01*
G01*
X136839750Y-39972000D01*
G75*
G02*
X136621000Y-39753250I0J218750D01*
G01*
G37*
G36*
G01*
X135046000Y-39753250D02*
X135046000Y-39240750D01*
G75*
G02*
X135264750Y-39022000I218750J0D01*
G01*
X135702250Y-39022000D01*
G75*
G02*
X135921000Y-39240750I0J-218750D01*
G01*
X135921000Y-39753250D01*
G75*
G02*
X135702250Y-39972000I-218750J0D01*
G01*
X135264750Y-39972000D01*
G75*
G02*
X135046000Y-39753250I0J218750D01*
G01*
G37*
G36*
G01*
X138461000Y-51559750D02*
X138461000Y-52072250D01*
G75*
G02*
X138242250Y-52291000I-218750J0D01*
G01*
X137804750Y-52291000D01*
G75*
G02*
X137586000Y-52072250I0J218750D01*
G01*
X137586000Y-51559750D01*
G75*
G02*
X137804750Y-51341000I218750J0D01*
G01*
X138242250Y-51341000D01*
G75*
G02*
X138461000Y-51559750I0J-218750D01*
G01*
G37*
G36*
G01*
X140036000Y-51559750D02*
X140036000Y-52072250D01*
G75*
G02*
X139817250Y-52291000I-218750J0D01*
G01*
X139379750Y-52291000D01*
G75*
G02*
X139161000Y-52072250I0J218750D01*
G01*
X139161000Y-51559750D01*
G75*
G02*
X139379750Y-51341000I218750J0D01*
G01*
X139817250Y-51341000D01*
G75*
G02*
X140036000Y-51559750I0J-218750D01*
G01*
G37*
D17*
X79680000Y-76110000D03*
X82880000Y-76110000D03*
X79680000Y-71210000D03*
X82880000Y-71210000D03*
X132385000Y-76110000D03*
X135585000Y-76110000D03*
X132385000Y-71210000D03*
X135585000Y-71210000D03*
G36*
G01*
X143512250Y-46767000D02*
X142999750Y-46767000D01*
G75*
G02*
X142781000Y-46548250I0J218750D01*
G01*
X142781000Y-46110750D01*
G75*
G02*
X142999750Y-45892000I218750J0D01*
G01*
X143512250Y-45892000D01*
G75*
G02*
X143731000Y-46110750I0J-218750D01*
G01*
X143731000Y-46548250D01*
G75*
G02*
X143512250Y-46767000I-218750J0D01*
G01*
G37*
G36*
G01*
X143512250Y-48342000D02*
X142999750Y-48342000D01*
G75*
G02*
X142781000Y-48123250I0J218750D01*
G01*
X142781000Y-47685750D01*
G75*
G02*
X142999750Y-47467000I218750J0D01*
G01*
X143512250Y-47467000D01*
G75*
G02*
X143731000Y-47685750I0J-218750D01*
G01*
X143731000Y-48123250D01*
G75*
G02*
X143512250Y-48342000I-218750J0D01*
G01*
G37*
D18*
X137922000Y-43831000D03*
X138872000Y-45831000D03*
X136972000Y-45831000D03*
D19*
X121317000Y-59436000D03*
X125317000Y-59436000D03*
D20*
X126441200Y-50038000D03*
X126441200Y-54738000D03*
G36*
G01*
X132905800Y-45329000D02*
X132905800Y-44079000D01*
G75*
G02*
X133155800Y-43829000I250000J0D01*
G01*
X133905800Y-43829000D01*
G75*
G02*
X134155800Y-44079000I0J-250000D01*
G01*
X134155800Y-45329000D01*
G75*
G02*
X133905800Y-45579000I-250000J0D01*
G01*
X133155800Y-45579000D01*
G75*
G02*
X132905800Y-45329000I0J250000D01*
G01*
G37*
G36*
G01*
X130105800Y-45329000D02*
X130105800Y-44079000D01*
G75*
G02*
X130355800Y-43829000I250000J0D01*
G01*
X131105800Y-43829000D01*
G75*
G02*
X131355800Y-44079000I0J-250000D01*
G01*
X131355800Y-45329000D01*
G75*
G02*
X131105800Y-45579000I-250000J0D01*
G01*
X130355800Y-45579000D01*
G75*
G02*
X130105800Y-45329000I0J250000D01*
G01*
G37*
G36*
G01*
X133509500Y-78297750D02*
X133509500Y-77785250D01*
G75*
G02*
X133728250Y-77566500I218750J0D01*
G01*
X134165750Y-77566500D01*
G75*
G02*
X134384500Y-77785250I0J-218750D01*
G01*
X134384500Y-78297750D01*
G75*
G02*
X134165750Y-78516500I-218750J0D01*
G01*
X133728250Y-78516500D01*
G75*
G02*
X133509500Y-78297750I0J218750D01*
G01*
G37*
G36*
G01*
X131934500Y-78297750D02*
X131934500Y-77785250D01*
G75*
G02*
X132153250Y-77566500I218750J0D01*
G01*
X132590750Y-77566500D01*
G75*
G02*
X132809500Y-77785250I0J-218750D01*
G01*
X132809500Y-78297750D01*
G75*
G02*
X132590750Y-78516500I-218750J0D01*
G01*
X132153250Y-78516500D01*
G75*
G02*
X131934500Y-78297750I0J218750D01*
G01*
G37*
G36*
G01*
X80804500Y-78297750D02*
X80804500Y-77785250D01*
G75*
G02*
X81023250Y-77566500I218750J0D01*
G01*
X81460750Y-77566500D01*
G75*
G02*
X81679500Y-77785250I0J-218750D01*
G01*
X81679500Y-78297750D01*
G75*
G02*
X81460750Y-78516500I-218750J0D01*
G01*
X81023250Y-78516500D01*
G75*
G02*
X80804500Y-78297750I0J218750D01*
G01*
G37*
G36*
G01*
X79229500Y-78297750D02*
X79229500Y-77785250D01*
G75*
G02*
X79448250Y-77566500I218750J0D01*
G01*
X79885750Y-77566500D01*
G75*
G02*
X80104500Y-77785250I0J-218750D01*
G01*
X80104500Y-78297750D01*
G75*
G02*
X79885750Y-78516500I-218750J0D01*
G01*
X79448250Y-78516500D01*
G75*
G02*
X79229500Y-78297750I0J218750D01*
G01*
G37*
G36*
G01*
X109095250Y-67595000D02*
X108582750Y-67595000D01*
G75*
G02*
X108364000Y-67376250I0J218750D01*
G01*
X108364000Y-66938750D01*
G75*
G02*
X108582750Y-66720000I218750J0D01*
G01*
X109095250Y-66720000D01*
G75*
G02*
X109314000Y-66938750I0J-218750D01*
G01*
X109314000Y-67376250D01*
G75*
G02*
X109095250Y-67595000I-218750J0D01*
G01*
G37*
G36*
G01*
X109095250Y-69170000D02*
X108582750Y-69170000D01*
G75*
G02*
X108364000Y-68951250I0J218750D01*
G01*
X108364000Y-68513750D01*
G75*
G02*
X108582750Y-68295000I218750J0D01*
G01*
X109095250Y-68295000D01*
G75*
G02*
X109314000Y-68513750I0J-218750D01*
G01*
X109314000Y-68951250D01*
G75*
G02*
X109095250Y-69170000I-218750J0D01*
G01*
G37*
X123571000Y-62864500D03*
X123571000Y-67564500D03*
D21*
X81742000Y-36994000D03*
D22*
X73042000Y-29294000D03*
X73042000Y-30564000D03*
X73042000Y-31834000D03*
X73042000Y-33104000D03*
X73042000Y-34374000D03*
X73042000Y-35644000D03*
X73042000Y-36914000D03*
X73042000Y-38184000D03*
X73042000Y-39454000D03*
X73042000Y-40724000D03*
X73042000Y-41994000D03*
X73042000Y-43264000D03*
X73042000Y-44534000D03*
X73042000Y-45804000D03*
D23*
X76327000Y-47294000D03*
X77597000Y-47294000D03*
X78867000Y-47294000D03*
X80137000Y-47294000D03*
X81407000Y-47294000D03*
X82677000Y-47294000D03*
X83947000Y-47294000D03*
X85217000Y-47294000D03*
X86487000Y-47294000D03*
X87757000Y-47294000D03*
D22*
X91042000Y-45804000D03*
X91042000Y-44534000D03*
X91042000Y-43264000D03*
X91042000Y-41994000D03*
X91042000Y-40724000D03*
X91042000Y-39454000D03*
X91042000Y-38184000D03*
X91042000Y-36914000D03*
X91042000Y-35644000D03*
X91042000Y-34374000D03*
X91042000Y-33104000D03*
X91042000Y-31834000D03*
X91042000Y-30564000D03*
X91042000Y-29294000D03*
G36*
G01*
X98202000Y-57147750D02*
X98202000Y-57660250D01*
G75*
G02*
X97983250Y-57879000I-218750J0D01*
G01*
X97545750Y-57879000D01*
G75*
G02*
X97327000Y-57660250I0J218750D01*
G01*
X97327000Y-57147750D01*
G75*
G02*
X97545750Y-56929000I218750J0D01*
G01*
X97983250Y-56929000D01*
G75*
G02*
X98202000Y-57147750I0J-218750D01*
G01*
G37*
G36*
G01*
X99777000Y-57147750D02*
X99777000Y-57660250D01*
G75*
G02*
X99558250Y-57879000I-218750J0D01*
G01*
X99120750Y-57879000D01*
G75*
G02*
X98902000Y-57660250I0J218750D01*
G01*
X98902000Y-57147750D01*
G75*
G02*
X99120750Y-56929000I218750J0D01*
G01*
X99558250Y-56929000D01*
G75*
G02*
X99777000Y-57147750I0J-218750D01*
G01*
G37*
G36*
G01*
X126733000Y-44079000D02*
X126733000Y-45329000D01*
G75*
G02*
X126483000Y-45579000I-250000J0D01*
G01*
X125733000Y-45579000D01*
G75*
G02*
X125483000Y-45329000I0J250000D01*
G01*
X125483000Y-44079000D01*
G75*
G02*
X125733000Y-43829000I250000J0D01*
G01*
X126483000Y-43829000D01*
G75*
G02*
X126733000Y-44079000I0J-250000D01*
G01*
G37*
G36*
G01*
X129533000Y-44079000D02*
X129533000Y-45329000D01*
G75*
G02*
X129283000Y-45579000I-250000J0D01*
G01*
X128533000Y-45579000D01*
G75*
G02*
X128283000Y-45329000I0J250000D01*
G01*
X128283000Y-44079000D01*
G75*
G02*
X128533000Y-43829000I250000J0D01*
G01*
X129283000Y-43829000D01*
G75*
G02*
X129533000Y-44079000I0J-250000D01*
G01*
G37*
G36*
G01*
X132855000Y-57336000D02*
X132855000Y-55186000D01*
G75*
G02*
X133105000Y-54936000I250000J0D01*
G01*
X133855000Y-54936000D01*
G75*
G02*
X134105000Y-55186000I0J-250000D01*
G01*
X134105000Y-57336000D01*
G75*
G02*
X133855000Y-57586000I-250000J0D01*
G01*
X133105000Y-57586000D01*
G75*
G02*
X132855000Y-57336000I0J250000D01*
G01*
G37*
G36*
G01*
X130055000Y-57336000D02*
X130055000Y-55186000D01*
G75*
G02*
X130305000Y-54936000I250000J0D01*
G01*
X131055000Y-54936000D01*
G75*
G02*
X131305000Y-55186000I0J-250000D01*
G01*
X131305000Y-57336000D01*
G75*
G02*
X131055000Y-57586000I-250000J0D01*
G01*
X130305000Y-57586000D01*
G75*
G02*
X130055000Y-57336000I0J250000D01*
G01*
G37*
G36*
G01*
X132855000Y-49081000D02*
X132855000Y-46931000D01*
G75*
G02*
X133105000Y-46681000I250000J0D01*
G01*
X133855000Y-46681000D01*
G75*
G02*
X134105000Y-46931000I0J-250000D01*
G01*
X134105000Y-49081000D01*
G75*
G02*
X133855000Y-49331000I-250000J0D01*
G01*
X133105000Y-49331000D01*
G75*
G02*
X132855000Y-49081000I0J250000D01*
G01*
G37*
G36*
G01*
X130055000Y-49081000D02*
X130055000Y-46931000D01*
G75*
G02*
X130305000Y-46681000I250000J0D01*
G01*
X131055000Y-46681000D01*
G75*
G02*
X131305000Y-46931000I0J-250000D01*
G01*
X131305000Y-49081000D01*
G75*
G02*
X131055000Y-49331000I-250000J0D01*
G01*
X130305000Y-49331000D01*
G75*
G02*
X130055000Y-49081000I0J250000D01*
G01*
G37*
G36*
G01*
X112973250Y-55988800D02*
X112060750Y-55988800D01*
G75*
G02*
X111817000Y-55745050I0J243750D01*
G01*
X111817000Y-55257550D01*
G75*
G02*
X112060750Y-55013800I243750J0D01*
G01*
X112973250Y-55013800D01*
G75*
G02*
X113217000Y-55257550I0J-243750D01*
G01*
X113217000Y-55745050D01*
G75*
G02*
X112973250Y-55988800I-243750J0D01*
G01*
G37*
G36*
G01*
X112973250Y-57863800D02*
X112060750Y-57863800D01*
G75*
G02*
X111817000Y-57620050I0J243750D01*
G01*
X111817000Y-57132550D01*
G75*
G02*
X112060750Y-56888800I243750J0D01*
G01*
X112973250Y-56888800D01*
G75*
G02*
X113217000Y-57132550I0J-243750D01*
G01*
X113217000Y-57620050D01*
G75*
G02*
X112973250Y-57863800I-243750J0D01*
G01*
G37*
G36*
G01*
X112065750Y-51910400D02*
X112978250Y-51910400D01*
G75*
G02*
X113222000Y-52154150I0J-243750D01*
G01*
X113222000Y-52641650D01*
G75*
G02*
X112978250Y-52885400I-243750J0D01*
G01*
X112065750Y-52885400D01*
G75*
G02*
X111822000Y-52641650I0J243750D01*
G01*
X111822000Y-52154150D01*
G75*
G02*
X112065750Y-51910400I243750J0D01*
G01*
G37*
G36*
G01*
X112065750Y-50035400D02*
X112978250Y-50035400D01*
G75*
G02*
X113222000Y-50279150I0J-243750D01*
G01*
X113222000Y-50766650D01*
G75*
G02*
X112978250Y-51010400I-243750J0D01*
G01*
X112065750Y-51010400D01*
G75*
G02*
X111822000Y-50766650I0J243750D01*
G01*
X111822000Y-50279150D01*
G75*
G02*
X112065750Y-50035400I243750J0D01*
G01*
G37*
G36*
G01*
X109796000Y-62954200D02*
X111946000Y-62954200D01*
G75*
G02*
X112196000Y-63204200I0J-250000D01*
G01*
X112196000Y-63954200D01*
G75*
G02*
X111946000Y-64204200I-250000J0D01*
G01*
X109796000Y-64204200D01*
G75*
G02*
X109546000Y-63954200I0J250000D01*
G01*
X109546000Y-63204200D01*
G75*
G02*
X109796000Y-62954200I250000J0D01*
G01*
G37*
G36*
G01*
X109796000Y-60154200D02*
X111946000Y-60154200D01*
G75*
G02*
X112196000Y-60404200I0J-250000D01*
G01*
X112196000Y-61154200D01*
G75*
G02*
X111946000Y-61404200I-250000J0D01*
G01*
X109796000Y-61404200D01*
G75*
G02*
X109546000Y-61154200I0J250000D01*
G01*
X109546000Y-60404200D01*
G75*
G02*
X109796000Y-60154200I250000J0D01*
G01*
G37*
G36*
G01*
X116954000Y-67378000D02*
X116954000Y-69528000D01*
G75*
G02*
X116704000Y-69778000I-250000J0D01*
G01*
X115954000Y-69778000D01*
G75*
G02*
X115704000Y-69528000I0J250000D01*
G01*
X115704000Y-67378000D01*
G75*
G02*
X115954000Y-67128000I250000J0D01*
G01*
X116704000Y-67128000D01*
G75*
G02*
X116954000Y-67378000I0J-250000D01*
G01*
G37*
G36*
G01*
X119754000Y-67378000D02*
X119754000Y-69528000D01*
G75*
G02*
X119504000Y-69778000I-250000J0D01*
G01*
X118754000Y-69778000D01*
G75*
G02*
X118504000Y-69528000I0J250000D01*
G01*
X118504000Y-67378000D01*
G75*
G02*
X118754000Y-67128000I250000J0D01*
G01*
X119504000Y-67128000D01*
G75*
G02*
X119754000Y-67378000I0J-250000D01*
G01*
G37*
G36*
G01*
X93242450Y-53931400D02*
X92329950Y-53931400D01*
G75*
G02*
X92086200Y-53687650I0J243750D01*
G01*
X92086200Y-53200150D01*
G75*
G02*
X92329950Y-52956400I243750J0D01*
G01*
X93242450Y-52956400D01*
G75*
G02*
X93486200Y-53200150I0J-243750D01*
G01*
X93486200Y-53687650D01*
G75*
G02*
X93242450Y-53931400I-243750J0D01*
G01*
G37*
G36*
G01*
X93242450Y-55806400D02*
X92329950Y-55806400D01*
G75*
G02*
X92086200Y-55562650I0J243750D01*
G01*
X92086200Y-55075150D01*
G75*
G02*
X92329950Y-54831400I243750J0D01*
G01*
X93242450Y-54831400D01*
G75*
G02*
X93486200Y-55075150I0J-243750D01*
G01*
X93486200Y-55562650D01*
G75*
G02*
X93242450Y-55806400I-243750J0D01*
G01*
G37*
G36*
G01*
X90418500Y-57900250D02*
X90418500Y-58812750D01*
G75*
G02*
X90174750Y-59056500I-243750J0D01*
G01*
X89687250Y-59056500D01*
G75*
G02*
X89443500Y-58812750I0J243750D01*
G01*
X89443500Y-57900250D01*
G75*
G02*
X89687250Y-57656500I243750J0D01*
G01*
X90174750Y-57656500D01*
G75*
G02*
X90418500Y-57900250I0J-243750D01*
G01*
G37*
G36*
G01*
X92293500Y-57900250D02*
X92293500Y-58812750D01*
G75*
G02*
X92049750Y-59056500I-243750J0D01*
G01*
X91562250Y-59056500D01*
G75*
G02*
X91318500Y-58812750I0J243750D01*
G01*
X91318500Y-57900250D01*
G75*
G02*
X91562250Y-57656500I243750J0D01*
G01*
X92049750Y-57656500D01*
G75*
G02*
X92293500Y-57900250I0J-243750D01*
G01*
G37*
G36*
G01*
X88911750Y-66733000D02*
X87999250Y-66733000D01*
G75*
G02*
X87755500Y-66489250I0J243750D01*
G01*
X87755500Y-66001750D01*
G75*
G02*
X87999250Y-65758000I243750J0D01*
G01*
X88911750Y-65758000D01*
G75*
G02*
X89155500Y-66001750I0J-243750D01*
G01*
X89155500Y-66489250D01*
G75*
G02*
X88911750Y-66733000I-243750J0D01*
G01*
G37*
G36*
G01*
X88911750Y-68608000D02*
X87999250Y-68608000D01*
G75*
G02*
X87755500Y-68364250I0J243750D01*
G01*
X87755500Y-67876750D01*
G75*
G02*
X87999250Y-67633000I243750J0D01*
G01*
X88911750Y-67633000D01*
G75*
G02*
X89155500Y-67876750I0J-243750D01*
G01*
X89155500Y-68364250D01*
G75*
G02*
X88911750Y-68608000I-243750J0D01*
G01*
G37*
G36*
G01*
X143497000Y-33469000D02*
X143497000Y-35619000D01*
G75*
G02*
X143247000Y-35869000I-250000J0D01*
G01*
X142497000Y-35869000D01*
G75*
G02*
X142247000Y-35619000I0J250000D01*
G01*
X142247000Y-33469000D01*
G75*
G02*
X142497000Y-33219000I250000J0D01*
G01*
X143247000Y-33219000D01*
G75*
G02*
X143497000Y-33469000I0J-250000D01*
G01*
G37*
G36*
G01*
X146297000Y-33469000D02*
X146297000Y-35619000D01*
G75*
G02*
X146047000Y-35869000I-250000J0D01*
G01*
X145297000Y-35869000D01*
G75*
G02*
X145047000Y-35619000I0J250000D01*
G01*
X145047000Y-33469000D01*
G75*
G02*
X145297000Y-33219000I250000J0D01*
G01*
X146047000Y-33219000D01*
G75*
G02*
X146297000Y-33469000I0J-250000D01*
G01*
G37*
G36*
G01*
X62154750Y-44582500D02*
X63067250Y-44582500D01*
G75*
G02*
X63311000Y-44826250I0J-243750D01*
G01*
X63311000Y-45313750D01*
G75*
G02*
X63067250Y-45557500I-243750J0D01*
G01*
X62154750Y-45557500D01*
G75*
G02*
X61911000Y-45313750I0J243750D01*
G01*
X61911000Y-44826250D01*
G75*
G02*
X62154750Y-44582500I243750J0D01*
G01*
G37*
G36*
G01*
X62154750Y-42707500D02*
X63067250Y-42707500D01*
G75*
G02*
X63311000Y-42951250I0J-243750D01*
G01*
X63311000Y-43438750D01*
G75*
G02*
X63067250Y-43682500I-243750J0D01*
G01*
X62154750Y-43682500D01*
G75*
G02*
X61911000Y-43438750I0J243750D01*
G01*
X61911000Y-42951250D01*
G75*
G02*
X62154750Y-42707500I243750J0D01*
G01*
G37*
G36*
G01*
X111454250Y-45587500D02*
X110541750Y-45587500D01*
G75*
G02*
X110298000Y-45343750I0J243750D01*
G01*
X110298000Y-44856250D01*
G75*
G02*
X110541750Y-44612500I243750J0D01*
G01*
X111454250Y-44612500D01*
G75*
G02*
X111698000Y-44856250I0J-243750D01*
G01*
X111698000Y-45343750D01*
G75*
G02*
X111454250Y-45587500I-243750J0D01*
G01*
G37*
G36*
G01*
X111454250Y-47462500D02*
X110541750Y-47462500D01*
G75*
G02*
X110298000Y-47218750I0J243750D01*
G01*
X110298000Y-46731250D01*
G75*
G02*
X110541750Y-46487500I243750J0D01*
G01*
X111454250Y-46487500D01*
G75*
G02*
X111698000Y-46731250I0J-243750D01*
G01*
X111698000Y-47218750D01*
G75*
G02*
X111454250Y-47462500I-243750J0D01*
G01*
G37*
G36*
G01*
X103282000Y-61275250D02*
X103282000Y-61787750D01*
G75*
G02*
X103063250Y-62006500I-218750J0D01*
G01*
X102625750Y-62006500D01*
G75*
G02*
X102407000Y-61787750I0J218750D01*
G01*
X102407000Y-61275250D01*
G75*
G02*
X102625750Y-61056500I218750J0D01*
G01*
X103063250Y-61056500D01*
G75*
G02*
X103282000Y-61275250I0J-218750D01*
G01*
G37*
G36*
G01*
X104857000Y-61275250D02*
X104857000Y-61787750D01*
G75*
G02*
X104638250Y-62006500I-218750J0D01*
G01*
X104200750Y-62006500D01*
G75*
G02*
X103982000Y-61787750I0J218750D01*
G01*
X103982000Y-61275250D01*
G75*
G02*
X104200750Y-61056500I218750J0D01*
G01*
X104638250Y-61056500D01*
G75*
G02*
X104857000Y-61275250I0J-218750D01*
G01*
G37*
G36*
G01*
X93796600Y-50319650D02*
X93796600Y-49807150D01*
G75*
G02*
X94015350Y-49588400I218750J0D01*
G01*
X94452850Y-49588400D01*
G75*
G02*
X94671600Y-49807150I0J-218750D01*
G01*
X94671600Y-50319650D01*
G75*
G02*
X94452850Y-50538400I-218750J0D01*
G01*
X94015350Y-50538400D01*
G75*
G02*
X93796600Y-50319650I0J218750D01*
G01*
G37*
G36*
G01*
X92221600Y-50319650D02*
X92221600Y-49807150D01*
G75*
G02*
X92440350Y-49588400I218750J0D01*
G01*
X92877850Y-49588400D01*
G75*
G02*
X93096600Y-49807150I0J-218750D01*
G01*
X93096600Y-50319650D01*
G75*
G02*
X92877850Y-50538400I-218750J0D01*
G01*
X92440350Y-50538400D01*
G75*
G02*
X92221600Y-50319650I0J218750D01*
G01*
G37*
G36*
G01*
X138173750Y-32100000D02*
X138686250Y-32100000D01*
G75*
G02*
X138905000Y-32318750I0J-218750D01*
G01*
X138905000Y-32756250D01*
G75*
G02*
X138686250Y-32975000I-218750J0D01*
G01*
X138173750Y-32975000D01*
G75*
G02*
X137955000Y-32756250I0J218750D01*
G01*
X137955000Y-32318750D01*
G75*
G02*
X138173750Y-32100000I218750J0D01*
G01*
G37*
G36*
G01*
X138173750Y-30525000D02*
X138686250Y-30525000D01*
G75*
G02*
X138905000Y-30743750I0J-218750D01*
G01*
X138905000Y-31181250D01*
G75*
G02*
X138686250Y-31400000I-218750J0D01*
G01*
X138173750Y-31400000D01*
G75*
G02*
X137955000Y-31181250I0J218750D01*
G01*
X137955000Y-30743750D01*
G75*
G02*
X138173750Y-30525000I218750J0D01*
G01*
G37*
G36*
G01*
X111094000Y-40134250D02*
X111094000Y-39621750D01*
G75*
G02*
X111312750Y-39403000I218750J0D01*
G01*
X111750250Y-39403000D01*
G75*
G02*
X111969000Y-39621750I0J-218750D01*
G01*
X111969000Y-40134250D01*
G75*
G02*
X111750250Y-40353000I-218750J0D01*
G01*
X111312750Y-40353000D01*
G75*
G02*
X111094000Y-40134250I0J218750D01*
G01*
G37*
G36*
G01*
X109519000Y-40134250D02*
X109519000Y-39621750D01*
G75*
G02*
X109737750Y-39403000I218750J0D01*
G01*
X110175250Y-39403000D01*
G75*
G02*
X110394000Y-39621750I0J-218750D01*
G01*
X110394000Y-40134250D01*
G75*
G02*
X110175250Y-40353000I-218750J0D01*
G01*
X109737750Y-40353000D01*
G75*
G02*
X109519000Y-40134250I0J218750D01*
G01*
G37*
G36*
G01*
X98457500Y-78297750D02*
X98457500Y-77785250D01*
G75*
G02*
X98676250Y-77566500I218750J0D01*
G01*
X99113750Y-77566500D01*
G75*
G02*
X99332500Y-77785250I0J-218750D01*
G01*
X99332500Y-78297750D01*
G75*
G02*
X99113750Y-78516500I-218750J0D01*
G01*
X98676250Y-78516500D01*
G75*
G02*
X98457500Y-78297750I0J218750D01*
G01*
G37*
G36*
G01*
X96882500Y-78297750D02*
X96882500Y-77785250D01*
G75*
G02*
X97101250Y-77566500I218750J0D01*
G01*
X97538750Y-77566500D01*
G75*
G02*
X97757500Y-77785250I0J-218750D01*
G01*
X97757500Y-78297750D01*
G75*
G02*
X97538750Y-78516500I-218750J0D01*
G01*
X97101250Y-78516500D01*
G75*
G02*
X96882500Y-78297750I0J218750D01*
G01*
G37*
G36*
G01*
X116263000Y-78335850D02*
X116263000Y-77823350D01*
G75*
G02*
X116481750Y-77604600I218750J0D01*
G01*
X116919250Y-77604600D01*
G75*
G02*
X117138000Y-77823350I0J-218750D01*
G01*
X117138000Y-78335850D01*
G75*
G02*
X116919250Y-78554600I-218750J0D01*
G01*
X116481750Y-78554600D01*
G75*
G02*
X116263000Y-78335850I0J218750D01*
G01*
G37*
G36*
G01*
X114688000Y-78335850D02*
X114688000Y-77823350D01*
G75*
G02*
X114906750Y-77604600I218750J0D01*
G01*
X115344250Y-77604600D01*
G75*
G02*
X115563000Y-77823350I0J-218750D01*
G01*
X115563000Y-78335850D01*
G75*
G02*
X115344250Y-78554600I-218750J0D01*
G01*
X114906750Y-78554600D01*
G75*
G02*
X114688000Y-78335850I0J218750D01*
G01*
G37*
D24*
X133480000Y-51514500D03*
X133480000Y-52014500D03*
X133480000Y-52514500D03*
X133480000Y-53014500D03*
X133480000Y-53514500D03*
X130680000Y-53514500D03*
X130680000Y-53014500D03*
X130680000Y-52514500D03*
X130680000Y-52014500D03*
X130680000Y-51514500D03*
G36*
G01*
X132205000Y-54189500D02*
X132205000Y-53899500D01*
G75*
G02*
X132230000Y-53874500I25000J0D01*
G01*
X132430000Y-53874500D01*
G75*
G02*
X132455000Y-53899500I0J-25000D01*
G01*
X132455000Y-54189500D01*
G75*
G02*
X132430000Y-54214500I-25000J0D01*
G01*
X132230000Y-54214500D01*
G75*
G02*
X132205000Y-54189500I0J25000D01*
G01*
G37*
G36*
G01*
X131705000Y-54189500D02*
X131705000Y-53899500D01*
G75*
G02*
X131730000Y-53874500I25000J0D01*
G01*
X131930000Y-53874500D01*
G75*
G02*
X131955000Y-53899500I0J-25000D01*
G01*
X131955000Y-54189500D01*
G75*
G02*
X131930000Y-54214500I-25000J0D01*
G01*
X131730000Y-54214500D01*
G75*
G02*
X131705000Y-54189500I0J25000D01*
G01*
G37*
G36*
G01*
X132205000Y-51129500D02*
X132205000Y-50839500D01*
G75*
G02*
X132230000Y-50814500I25000J0D01*
G01*
X132430000Y-50814500D01*
G75*
G02*
X132455000Y-50839500I0J-25000D01*
G01*
X132455000Y-51129500D01*
G75*
G02*
X132430000Y-51154500I-25000J0D01*
G01*
X132230000Y-51154500D01*
G75*
G02*
X132205000Y-51129500I0J25000D01*
G01*
G37*
G36*
G01*
X131705000Y-51129500D02*
X131705000Y-50839500D01*
G75*
G02*
X131730000Y-50814500I25000J0D01*
G01*
X131930000Y-50814500D01*
G75*
G02*
X131955000Y-50839500I0J-25000D01*
G01*
X131955000Y-51129500D01*
G75*
G02*
X131930000Y-51154500I-25000J0D01*
G01*
X131730000Y-51154500D01*
G75*
G02*
X131705000Y-51129500I0J25000D01*
G01*
G37*
G36*
G01*
X131330000Y-52308500D02*
X131330000Y-51460500D01*
G75*
G02*
X131436000Y-51354500I106000J0D01*
G01*
X132724000Y-51354500D01*
G75*
G02*
X132830000Y-51460500I0J-106000D01*
G01*
X132830000Y-52308500D01*
G75*
G02*
X132724000Y-52414500I-106000J0D01*
G01*
X131436000Y-52414500D01*
G75*
G02*
X131330000Y-52308500I0J106000D01*
G01*
G37*
G36*
G01*
X131330000Y-53568500D02*
X131330000Y-52720500D01*
G75*
G02*
X131436000Y-52614500I106000J0D01*
G01*
X132724000Y-52614500D01*
G75*
G02*
X132830000Y-52720500I0J-106000D01*
G01*
X132830000Y-53568500D01*
G75*
G02*
X132724000Y-53674500I-106000J0D01*
G01*
X131436000Y-53674500D01*
G75*
G02*
X131330000Y-53568500I0J106000D01*
G01*
G37*
G36*
G01*
X135316250Y-55785500D02*
X135828750Y-55785500D01*
G75*
G02*
X136047500Y-56004250I0J-218750D01*
G01*
X136047500Y-56441750D01*
G75*
G02*
X135828750Y-56660500I-218750J0D01*
G01*
X135316250Y-56660500D01*
G75*
G02*
X135097500Y-56441750I0J218750D01*
G01*
X135097500Y-56004250D01*
G75*
G02*
X135316250Y-55785500I218750J0D01*
G01*
G37*
G36*
G01*
X135316250Y-54210500D02*
X135828750Y-54210500D01*
G75*
G02*
X136047500Y-54429250I0J-218750D01*
G01*
X136047500Y-54866750D01*
G75*
G02*
X135828750Y-55085500I-218750J0D01*
G01*
X135316250Y-55085500D01*
G75*
G02*
X135097500Y-54866750I0J218750D01*
G01*
X135097500Y-54429250D01*
G75*
G02*
X135316250Y-54210500I218750J0D01*
G01*
G37*
D17*
X115240000Y-76110000D03*
X118440000Y-76110000D03*
X115240000Y-71210000D03*
X118440000Y-71210000D03*
X97460000Y-76110000D03*
X100660000Y-76110000D03*
X97460000Y-71210000D03*
X100660000Y-71210000D03*
G36*
G01*
X133211250Y-36581500D02*
X134123750Y-36581500D01*
G75*
G02*
X134367500Y-36825250I0J-243750D01*
G01*
X134367500Y-37312750D01*
G75*
G02*
X134123750Y-37556500I-243750J0D01*
G01*
X133211250Y-37556500D01*
G75*
G02*
X132967500Y-37312750I0J243750D01*
G01*
X132967500Y-36825250D01*
G75*
G02*
X133211250Y-36581500I243750J0D01*
G01*
G37*
G36*
G01*
X133211250Y-34706500D02*
X134123750Y-34706500D01*
G75*
G02*
X134367500Y-34950250I0J-243750D01*
G01*
X134367500Y-35437750D01*
G75*
G02*
X134123750Y-35681500I-243750J0D01*
G01*
X133211250Y-35681500D01*
G75*
G02*
X132967500Y-35437750I0J243750D01*
G01*
X132967500Y-34950250D01*
G75*
G02*
X133211250Y-34706500I243750J0D01*
G01*
G37*
G36*
G01*
X135306750Y-36581500D02*
X136219250Y-36581500D01*
G75*
G02*
X136463000Y-36825250I0J-243750D01*
G01*
X136463000Y-37312750D01*
G75*
G02*
X136219250Y-37556500I-243750J0D01*
G01*
X135306750Y-37556500D01*
G75*
G02*
X135063000Y-37312750I0J243750D01*
G01*
X135063000Y-36825250D01*
G75*
G02*
X135306750Y-36581500I243750J0D01*
G01*
G37*
G36*
G01*
X135306750Y-34706500D02*
X136219250Y-34706500D01*
G75*
G02*
X136463000Y-34950250I0J-243750D01*
G01*
X136463000Y-35437750D01*
G75*
G02*
X136219250Y-35681500I-243750J0D01*
G01*
X135306750Y-35681500D01*
G75*
G02*
X135063000Y-35437750I0J243750D01*
G01*
X135063000Y-34950250D01*
G75*
G02*
X135306750Y-34706500I243750J0D01*
G01*
G37*
G36*
G01*
X121819350Y-36581500D02*
X122731850Y-36581500D01*
G75*
G02*
X122975600Y-36825250I0J-243750D01*
G01*
X122975600Y-37312750D01*
G75*
G02*
X122731850Y-37556500I-243750J0D01*
G01*
X121819350Y-37556500D01*
G75*
G02*
X121575600Y-37312750I0J243750D01*
G01*
X121575600Y-36825250D01*
G75*
G02*
X121819350Y-36581500I243750J0D01*
G01*
G37*
G36*
G01*
X121819350Y-34706500D02*
X122731850Y-34706500D01*
G75*
G02*
X122975600Y-34950250I0J-243750D01*
G01*
X122975600Y-35437750D01*
G75*
G02*
X122731850Y-35681500I-243750J0D01*
G01*
X121819350Y-35681500D01*
G75*
G02*
X121575600Y-35437750I0J243750D01*
G01*
X121575600Y-34950250D01*
G75*
G02*
X121819350Y-34706500I243750J0D01*
G01*
G37*
G36*
G01*
X123927550Y-36594200D02*
X124840050Y-36594200D01*
G75*
G02*
X125083800Y-36837950I0J-243750D01*
G01*
X125083800Y-37325450D01*
G75*
G02*
X124840050Y-37569200I-243750J0D01*
G01*
X123927550Y-37569200D01*
G75*
G02*
X123683800Y-37325450I0J243750D01*
G01*
X123683800Y-36837950D01*
G75*
G02*
X123927550Y-36594200I243750J0D01*
G01*
G37*
G36*
G01*
X123927550Y-34719200D02*
X124840050Y-34719200D01*
G75*
G02*
X125083800Y-34962950I0J-243750D01*
G01*
X125083800Y-35450450D01*
G75*
G02*
X124840050Y-35694200I-243750J0D01*
G01*
X123927550Y-35694200D01*
G75*
G02*
X123683800Y-35450450I0J243750D01*
G01*
X123683800Y-34962950D01*
G75*
G02*
X123927550Y-34719200I243750J0D01*
G01*
G37*
G36*
G01*
X126235750Y-41396500D02*
X126748250Y-41396500D01*
G75*
G02*
X126967000Y-41615250I0J-218750D01*
G01*
X126967000Y-42052750D01*
G75*
G02*
X126748250Y-42271500I-218750J0D01*
G01*
X126235750Y-42271500D01*
G75*
G02*
X126017000Y-42052750I0J218750D01*
G01*
X126017000Y-41615250D01*
G75*
G02*
X126235750Y-41396500I218750J0D01*
G01*
G37*
G36*
G01*
X126235750Y-39821500D02*
X126748250Y-39821500D01*
G75*
G02*
X126967000Y-40040250I0J-218750D01*
G01*
X126967000Y-40477750D01*
G75*
G02*
X126748250Y-40696500I-218750J0D01*
G01*
X126235750Y-40696500D01*
G75*
G02*
X126017000Y-40477750I0J218750D01*
G01*
X126017000Y-40040250D01*
G75*
G02*
X126235750Y-39821500I218750J0D01*
G01*
G37*
G36*
G01*
X69182500Y-33906750D02*
X69182500Y-34419250D01*
G75*
G02*
X68963750Y-34638000I-218750J0D01*
G01*
X68526250Y-34638000D01*
G75*
G02*
X68307500Y-34419250I0J218750D01*
G01*
X68307500Y-33906750D01*
G75*
G02*
X68526250Y-33688000I218750J0D01*
G01*
X68963750Y-33688000D01*
G75*
G02*
X69182500Y-33906750I0J-218750D01*
G01*
G37*
G36*
G01*
X70757500Y-33906750D02*
X70757500Y-34419250D01*
G75*
G02*
X70538750Y-34638000I-218750J0D01*
G01*
X70101250Y-34638000D01*
G75*
G02*
X69882500Y-34419250I0J218750D01*
G01*
X69882500Y-33906750D01*
G75*
G02*
X70101250Y-33688000I218750J0D01*
G01*
X70538750Y-33688000D01*
G75*
G02*
X70757500Y-33906750I0J-218750D01*
G01*
G37*
G36*
G01*
X76728350Y-60873200D02*
X77240850Y-60873200D01*
G75*
G02*
X77459600Y-61091950I0J-218750D01*
G01*
X77459600Y-61529450D01*
G75*
G02*
X77240850Y-61748200I-218750J0D01*
G01*
X76728350Y-61748200D01*
G75*
G02*
X76509600Y-61529450I0J218750D01*
G01*
X76509600Y-61091950D01*
G75*
G02*
X76728350Y-60873200I218750J0D01*
G01*
G37*
G36*
G01*
X76728350Y-59298200D02*
X77240850Y-59298200D01*
G75*
G02*
X77459600Y-59516950I0J-218750D01*
G01*
X77459600Y-59954450D01*
G75*
G02*
X77240850Y-60173200I-218750J0D01*
G01*
X76728350Y-60173200D01*
G75*
G02*
X76509600Y-59954450I0J218750D01*
G01*
X76509600Y-59516950D01*
G75*
G02*
X76728350Y-59298200I218750J0D01*
G01*
G37*
G36*
G01*
X78173600Y-62866950D02*
X78173600Y-63379450D01*
G75*
G02*
X77954850Y-63598200I-218750J0D01*
G01*
X77517350Y-63598200D01*
G75*
G02*
X77298600Y-63379450I0J218750D01*
G01*
X77298600Y-62866950D01*
G75*
G02*
X77517350Y-62648200I218750J0D01*
G01*
X77954850Y-62648200D01*
G75*
G02*
X78173600Y-62866950I0J-218750D01*
G01*
G37*
G36*
G01*
X79748600Y-62866950D02*
X79748600Y-63379450D01*
G75*
G02*
X79529850Y-63598200I-218750J0D01*
G01*
X79092350Y-63598200D01*
G75*
G02*
X78873600Y-63379450I0J218750D01*
G01*
X78873600Y-62866950D01*
G75*
G02*
X79092350Y-62648200I218750J0D01*
G01*
X79529850Y-62648200D01*
G75*
G02*
X79748600Y-62866950I0J-218750D01*
G01*
G37*
G36*
G01*
X70741250Y-58146200D02*
X70228750Y-58146200D01*
G75*
G02*
X70010000Y-57927450I0J218750D01*
G01*
X70010000Y-57489950D01*
G75*
G02*
X70228750Y-57271200I218750J0D01*
G01*
X70741250Y-57271200D01*
G75*
G02*
X70960000Y-57489950I0J-218750D01*
G01*
X70960000Y-57927450D01*
G75*
G02*
X70741250Y-58146200I-218750J0D01*
G01*
G37*
G36*
G01*
X70741250Y-59721200D02*
X70228750Y-59721200D01*
G75*
G02*
X70010000Y-59502450I0J218750D01*
G01*
X70010000Y-59064950D01*
G75*
G02*
X70228750Y-58846200I218750J0D01*
G01*
X70741250Y-58846200D01*
G75*
G02*
X70960000Y-59064950I0J-218750D01*
G01*
X70960000Y-59502450D01*
G75*
G02*
X70741250Y-59721200I-218750J0D01*
G01*
G37*
D25*
X97089000Y-41514000D03*
X97089000Y-42814000D03*
X95189000Y-42164000D03*
X97089000Y-42164000D03*
X95189000Y-42814000D03*
X95189000Y-41514000D03*
D26*
X119273500Y-64897000D03*
X119273500Y-63947000D03*
X119273500Y-65847000D03*
X117073500Y-65847000D03*
X117073500Y-64897000D03*
X117073500Y-63947000D03*
D27*
X90127600Y-68221900D03*
X90127600Y-66321900D03*
X92447600Y-66321900D03*
X92447600Y-67271900D03*
X92447600Y-68221900D03*
G36*
G01*
X69169800Y-40459950D02*
X69169800Y-40972450D01*
G75*
G02*
X68951050Y-41191200I-218750J0D01*
G01*
X68513550Y-41191200D01*
G75*
G02*
X68294800Y-40972450I0J218750D01*
G01*
X68294800Y-40459950D01*
G75*
G02*
X68513550Y-40241200I218750J0D01*
G01*
X68951050Y-40241200D01*
G75*
G02*
X69169800Y-40459950I0J-218750D01*
G01*
G37*
G36*
G01*
X70744800Y-40459950D02*
X70744800Y-40972450D01*
G75*
G02*
X70526050Y-41191200I-218750J0D01*
G01*
X70088550Y-41191200D01*
G75*
G02*
X69869800Y-40972450I0J218750D01*
G01*
X69869800Y-40459950D01*
G75*
G02*
X70088550Y-40241200I218750J0D01*
G01*
X70526050Y-40241200D01*
G75*
G02*
X70744800Y-40459950I0J-218750D01*
G01*
G37*
G36*
G01*
X96246200Y-49807150D02*
X96246200Y-50319650D01*
G75*
G02*
X96027450Y-50538400I-218750J0D01*
G01*
X95589950Y-50538400D01*
G75*
G02*
X95371200Y-50319650I0J218750D01*
G01*
X95371200Y-49807150D01*
G75*
G02*
X95589950Y-49588400I218750J0D01*
G01*
X96027450Y-49588400D01*
G75*
G02*
X96246200Y-49807150I0J-218750D01*
G01*
G37*
G36*
G01*
X97821200Y-49807150D02*
X97821200Y-50319650D01*
G75*
G02*
X97602450Y-50538400I-218750J0D01*
G01*
X97164950Y-50538400D01*
G75*
G02*
X96946200Y-50319650I0J218750D01*
G01*
X96946200Y-49807150D01*
G75*
G02*
X97164950Y-49588400I218750J0D01*
G01*
X97602450Y-49588400D01*
G75*
G02*
X97821200Y-49807150I0J-218750D01*
G01*
G37*
G36*
G01*
X90548750Y-55150500D02*
X91061250Y-55150500D01*
G75*
G02*
X91280000Y-55369250I0J-218750D01*
G01*
X91280000Y-55806750D01*
G75*
G02*
X91061250Y-56025500I-218750J0D01*
G01*
X90548750Y-56025500D01*
G75*
G02*
X90330000Y-55806750I0J218750D01*
G01*
X90330000Y-55369250D01*
G75*
G02*
X90548750Y-55150500I218750J0D01*
G01*
G37*
G36*
G01*
X90548750Y-53575500D02*
X91061250Y-53575500D01*
G75*
G02*
X91280000Y-53794250I0J-218750D01*
G01*
X91280000Y-54231750D01*
G75*
G02*
X91061250Y-54450500I-218750J0D01*
G01*
X90548750Y-54450500D01*
G75*
G02*
X90330000Y-54231750I0J218750D01*
G01*
X90330000Y-53794250D01*
G75*
G02*
X90548750Y-53575500I218750J0D01*
G01*
G37*
G36*
G01*
X90328000Y-60449750D02*
X90328000Y-60962250D01*
G75*
G02*
X90109250Y-61181000I-218750J0D01*
G01*
X89671750Y-61181000D01*
G75*
G02*
X89453000Y-60962250I0J218750D01*
G01*
X89453000Y-60449750D01*
G75*
G02*
X89671750Y-60231000I218750J0D01*
G01*
X90109250Y-60231000D01*
G75*
G02*
X90328000Y-60449750I0J-218750D01*
G01*
G37*
G36*
G01*
X91903000Y-60449750D02*
X91903000Y-60962250D01*
G75*
G02*
X91684250Y-61181000I-218750J0D01*
G01*
X91246750Y-61181000D01*
G75*
G02*
X91028000Y-60962250I0J218750D01*
G01*
X91028000Y-60449750D01*
G75*
G02*
X91246750Y-60231000I218750J0D01*
G01*
X91684250Y-60231000D01*
G75*
G02*
X91903000Y-60449750I0J-218750D01*
G01*
G37*
G36*
G01*
X93796600Y-51945250D02*
X93796600Y-51432750D01*
G75*
G02*
X94015350Y-51214000I218750J0D01*
G01*
X94452850Y-51214000D01*
G75*
G02*
X94671600Y-51432750I0J-218750D01*
G01*
X94671600Y-51945250D01*
G75*
G02*
X94452850Y-52164000I-218750J0D01*
G01*
X94015350Y-52164000D01*
G75*
G02*
X93796600Y-51945250I0J218750D01*
G01*
G37*
G36*
G01*
X92221600Y-51945250D02*
X92221600Y-51432750D01*
G75*
G02*
X92440350Y-51214000I218750J0D01*
G01*
X92877850Y-51214000D01*
G75*
G02*
X93096600Y-51432750I0J-218750D01*
G01*
X93096600Y-51945250D01*
G75*
G02*
X92877850Y-52164000I-218750J0D01*
G01*
X92440350Y-52164000D01*
G75*
G02*
X92221600Y-51945250I0J218750D01*
G01*
G37*
G36*
G01*
X78136000Y-64513750D02*
X78136000Y-65026250D01*
G75*
G02*
X77917250Y-65245000I-218750J0D01*
G01*
X77479750Y-65245000D01*
G75*
G02*
X77261000Y-65026250I0J218750D01*
G01*
X77261000Y-64513750D01*
G75*
G02*
X77479750Y-64295000I218750J0D01*
G01*
X77917250Y-64295000D01*
G75*
G02*
X78136000Y-64513750I0J-218750D01*
G01*
G37*
G36*
G01*
X79711000Y-64513750D02*
X79711000Y-65026250D01*
G75*
G02*
X79492250Y-65245000I-218750J0D01*
G01*
X79054750Y-65245000D01*
G75*
G02*
X78836000Y-65026250I0J218750D01*
G01*
X78836000Y-64513750D01*
G75*
G02*
X79054750Y-64295000I218750J0D01*
G01*
X79492250Y-64295000D01*
G75*
G02*
X79711000Y-64513750I0J-218750D01*
G01*
G37*
G36*
G01*
X64772250Y-43655500D02*
X64259750Y-43655500D01*
G75*
G02*
X64041000Y-43436750I0J218750D01*
G01*
X64041000Y-42999250D01*
G75*
G02*
X64259750Y-42780500I218750J0D01*
G01*
X64772250Y-42780500D01*
G75*
G02*
X64991000Y-42999250I0J-218750D01*
G01*
X64991000Y-43436750D01*
G75*
G02*
X64772250Y-43655500I-218750J0D01*
G01*
G37*
G36*
G01*
X64772250Y-45230500D02*
X64259750Y-45230500D01*
G75*
G02*
X64041000Y-45011750I0J218750D01*
G01*
X64041000Y-44574250D01*
G75*
G02*
X64259750Y-44355500I218750J0D01*
G01*
X64772250Y-44355500D01*
G75*
G02*
X64991000Y-44574250I0J-218750D01*
G01*
X64991000Y-45011750D01*
G75*
G02*
X64772250Y-45230500I-218750J0D01*
G01*
G37*
G36*
G01*
X65974250Y-44355500D02*
X66486750Y-44355500D01*
G75*
G02*
X66705500Y-44574250I0J-218750D01*
G01*
X66705500Y-45011750D01*
G75*
G02*
X66486750Y-45230500I-218750J0D01*
G01*
X65974250Y-45230500D01*
G75*
G02*
X65755500Y-45011750I0J218750D01*
G01*
X65755500Y-44574250D01*
G75*
G02*
X65974250Y-44355500I218750J0D01*
G01*
G37*
G36*
G01*
X65974250Y-42780500D02*
X66486750Y-42780500D01*
G75*
G02*
X66705500Y-42999250I0J-218750D01*
G01*
X66705500Y-43436750D01*
G75*
G02*
X66486750Y-43655500I-218750J0D01*
G01*
X65974250Y-43655500D01*
G75*
G02*
X65755500Y-43436750I0J218750D01*
G01*
X65755500Y-42999250D01*
G75*
G02*
X65974250Y-42780500I218750J0D01*
G01*
G37*
G36*
G01*
X112079750Y-67595000D02*
X111567250Y-67595000D01*
G75*
G02*
X111348500Y-67376250I0J218750D01*
G01*
X111348500Y-66938750D01*
G75*
G02*
X111567250Y-66720000I218750J0D01*
G01*
X112079750Y-66720000D01*
G75*
G02*
X112298500Y-66938750I0J-218750D01*
G01*
X112298500Y-67376250D01*
G75*
G02*
X112079750Y-67595000I-218750J0D01*
G01*
G37*
G36*
G01*
X112079750Y-69170000D02*
X111567250Y-69170000D01*
G75*
G02*
X111348500Y-68951250I0J218750D01*
G01*
X111348500Y-68513750D01*
G75*
G02*
X111567250Y-68295000I218750J0D01*
G01*
X112079750Y-68295000D01*
G75*
G02*
X112298500Y-68513750I0J-218750D01*
G01*
X112298500Y-68951250D01*
G75*
G02*
X112079750Y-69170000I-218750J0D01*
G01*
G37*
G36*
G01*
X113603750Y-67595000D02*
X113091250Y-67595000D01*
G75*
G02*
X112872500Y-67376250I0J218750D01*
G01*
X112872500Y-66938750D01*
G75*
G02*
X113091250Y-66720000I218750J0D01*
G01*
X113603750Y-66720000D01*
G75*
G02*
X113822500Y-66938750I0J-218750D01*
G01*
X113822500Y-67376250D01*
G75*
G02*
X113603750Y-67595000I-218750J0D01*
G01*
G37*
G36*
G01*
X113603750Y-69170000D02*
X113091250Y-69170000D01*
G75*
G02*
X112872500Y-68951250I0J218750D01*
G01*
X112872500Y-68513750D01*
G75*
G02*
X113091250Y-68295000I218750J0D01*
G01*
X113603750Y-68295000D01*
G75*
G02*
X113822500Y-68513750I0J-218750D01*
G01*
X113822500Y-68951250D01*
G75*
G02*
X113603750Y-69170000I-218750J0D01*
G01*
G37*
G36*
G01*
X69500000Y-32255750D02*
X69500000Y-32768250D01*
G75*
G02*
X69281250Y-32987000I-218750J0D01*
G01*
X68843750Y-32987000D01*
G75*
G02*
X68625000Y-32768250I0J218750D01*
G01*
X68625000Y-32255750D01*
G75*
G02*
X68843750Y-32037000I218750J0D01*
G01*
X69281250Y-32037000D01*
G75*
G02*
X69500000Y-32255750I0J-218750D01*
G01*
G37*
G36*
G01*
X71075000Y-32255750D02*
X71075000Y-32768250D01*
G75*
G02*
X70856250Y-32987000I-218750J0D01*
G01*
X70418750Y-32987000D01*
G75*
G02*
X70200000Y-32768250I0J218750D01*
G01*
X70200000Y-32255750D01*
G75*
G02*
X70418750Y-32037000I218750J0D01*
G01*
X70856250Y-32037000D01*
G75*
G02*
X71075000Y-32255750I0J-218750D01*
G01*
G37*
G36*
G01*
X139824750Y-32100000D02*
X140337250Y-32100000D01*
G75*
G02*
X140556000Y-32318750I0J-218750D01*
G01*
X140556000Y-32756250D01*
G75*
G02*
X140337250Y-32975000I-218750J0D01*
G01*
X139824750Y-32975000D01*
G75*
G02*
X139606000Y-32756250I0J218750D01*
G01*
X139606000Y-32318750D01*
G75*
G02*
X139824750Y-32100000I218750J0D01*
G01*
G37*
G36*
G01*
X139824750Y-30525000D02*
X140337250Y-30525000D01*
G75*
G02*
X140556000Y-30743750I0J-218750D01*
G01*
X140556000Y-31181250D01*
G75*
G02*
X140337250Y-31400000I-218750J0D01*
G01*
X139824750Y-31400000D01*
G75*
G02*
X139606000Y-31181250I0J218750D01*
G01*
X139606000Y-30743750D01*
G75*
G02*
X139824750Y-30525000I218750J0D01*
G01*
G37*
G36*
G01*
X118112250Y-35591000D02*
X117599750Y-35591000D01*
G75*
G02*
X117381000Y-35372250I0J218750D01*
G01*
X117381000Y-34934750D01*
G75*
G02*
X117599750Y-34716000I218750J0D01*
G01*
X118112250Y-34716000D01*
G75*
G02*
X118331000Y-34934750I0J-218750D01*
G01*
X118331000Y-35372250D01*
G75*
G02*
X118112250Y-35591000I-218750J0D01*
G01*
G37*
G36*
G01*
X118112250Y-37166000D02*
X117599750Y-37166000D01*
G75*
G02*
X117381000Y-36947250I0J218750D01*
G01*
X117381000Y-36509750D01*
G75*
G02*
X117599750Y-36291000I218750J0D01*
G01*
X118112250Y-36291000D01*
G75*
G02*
X118331000Y-36509750I0J-218750D01*
G01*
X118331000Y-36947250D01*
G75*
G02*
X118112250Y-37166000I-218750J0D01*
G01*
G37*
G36*
G01*
X119763250Y-32416000D02*
X119250750Y-32416000D01*
G75*
G02*
X119032000Y-32197250I0J218750D01*
G01*
X119032000Y-31759750D01*
G75*
G02*
X119250750Y-31541000I218750J0D01*
G01*
X119763250Y-31541000D01*
G75*
G02*
X119982000Y-31759750I0J-218750D01*
G01*
X119982000Y-32197250D01*
G75*
G02*
X119763250Y-32416000I-218750J0D01*
G01*
G37*
G36*
G01*
X119763250Y-33991000D02*
X119250750Y-33991000D01*
G75*
G02*
X119032000Y-33772250I0J218750D01*
G01*
X119032000Y-33334750D01*
G75*
G02*
X119250750Y-33116000I218750J0D01*
G01*
X119763250Y-33116000D01*
G75*
G02*
X119982000Y-33334750I0J-218750D01*
G01*
X119982000Y-33772250D01*
G75*
G02*
X119763250Y-33991000I-218750J0D01*
G01*
G37*
G36*
G01*
X140332750Y-37307000D02*
X140845250Y-37307000D01*
G75*
G02*
X141064000Y-37525750I0J-218750D01*
G01*
X141064000Y-37963250D01*
G75*
G02*
X140845250Y-38182000I-218750J0D01*
G01*
X140332750Y-38182000D01*
G75*
G02*
X140114000Y-37963250I0J218750D01*
G01*
X140114000Y-37525750D01*
G75*
G02*
X140332750Y-37307000I218750J0D01*
G01*
G37*
G36*
G01*
X140332750Y-35732000D02*
X140845250Y-35732000D01*
G75*
G02*
X141064000Y-35950750I0J-218750D01*
G01*
X141064000Y-36388250D01*
G75*
G02*
X140845250Y-36607000I-218750J0D01*
G01*
X140332750Y-36607000D01*
G75*
G02*
X140114000Y-36388250I0J218750D01*
G01*
X140114000Y-35950750D01*
G75*
G02*
X140332750Y-35732000I218750J0D01*
G01*
G37*
G36*
G01*
X128750000Y-42305750D02*
X128750000Y-42818250D01*
G75*
G02*
X128531250Y-43037000I-218750J0D01*
G01*
X128093750Y-43037000D01*
G75*
G02*
X127875000Y-42818250I0J218750D01*
G01*
X127875000Y-42305750D01*
G75*
G02*
X128093750Y-42087000I218750J0D01*
G01*
X128531250Y-42087000D01*
G75*
G02*
X128750000Y-42305750I0J-218750D01*
G01*
G37*
G36*
G01*
X130325000Y-42305750D02*
X130325000Y-42818250D01*
G75*
G02*
X130106250Y-43037000I-218750J0D01*
G01*
X129668750Y-43037000D01*
G75*
G02*
X129450000Y-42818250I0J218750D01*
G01*
X129450000Y-42305750D01*
G75*
G02*
X129668750Y-42087000I218750J0D01*
G01*
X130106250Y-42087000D01*
G75*
G02*
X130325000Y-42305750I0J-218750D01*
G01*
G37*
G36*
G01*
X139956250Y-58959000D02*
X139443750Y-58959000D01*
G75*
G02*
X139225000Y-58740250I0J218750D01*
G01*
X139225000Y-58302750D01*
G75*
G02*
X139443750Y-58084000I218750J0D01*
G01*
X139956250Y-58084000D01*
G75*
G02*
X140175000Y-58302750I0J-218750D01*
G01*
X140175000Y-58740250D01*
G75*
G02*
X139956250Y-58959000I-218750J0D01*
G01*
G37*
G36*
G01*
X139956250Y-60534000D02*
X139443750Y-60534000D01*
G75*
G02*
X139225000Y-60315250I0J218750D01*
G01*
X139225000Y-59877750D01*
G75*
G02*
X139443750Y-59659000I218750J0D01*
G01*
X139956250Y-59659000D01*
G75*
G02*
X140175000Y-59877750I0J-218750D01*
G01*
X140175000Y-60315250D01*
G75*
G02*
X139956250Y-60534000I-218750J0D01*
G01*
G37*
G36*
G01*
X108128750Y-46424000D02*
X109041250Y-46424000D01*
G75*
G02*
X109285000Y-46667750I0J-243750D01*
G01*
X109285000Y-47155250D01*
G75*
G02*
X109041250Y-47399000I-243750J0D01*
G01*
X108128750Y-47399000D01*
G75*
G02*
X107885000Y-47155250I0J243750D01*
G01*
X107885000Y-46667750D01*
G75*
G02*
X108128750Y-46424000I243750J0D01*
G01*
G37*
G36*
G01*
X108128750Y-44549000D02*
X109041250Y-44549000D01*
G75*
G02*
X109285000Y-44792750I0J-243750D01*
G01*
X109285000Y-45280250D01*
G75*
G02*
X109041250Y-45524000I-243750J0D01*
G01*
X108128750Y-45524000D01*
G75*
G02*
X107885000Y-45280250I0J243750D01*
G01*
X107885000Y-44792750D01*
G75*
G02*
X108128750Y-44549000I243750J0D01*
G01*
G37*
G36*
G01*
X106684210Y-61119520D02*
X105771710Y-61119520D01*
G75*
G02*
X105527960Y-60875770I0J243750D01*
G01*
X105527960Y-60388270D01*
G75*
G02*
X105771710Y-60144520I243750J0D01*
G01*
X106684210Y-60144520D01*
G75*
G02*
X106927960Y-60388270I0J-243750D01*
G01*
X106927960Y-60875770D01*
G75*
G02*
X106684210Y-61119520I-243750J0D01*
G01*
G37*
G36*
G01*
X106684210Y-62994520D02*
X105771710Y-62994520D01*
G75*
G02*
X105527960Y-62750770I0J243750D01*
G01*
X105527960Y-62263270D01*
G75*
G02*
X105771710Y-62019520I243750J0D01*
G01*
X106684210Y-62019520D01*
G75*
G02*
X106927960Y-62263270I0J-243750D01*
G01*
X106927960Y-62750770D01*
G75*
G02*
X106684210Y-62994520I-243750J0D01*
G01*
G37*
G36*
G01*
X107773150Y-62019600D02*
X108685650Y-62019600D01*
G75*
G02*
X108929400Y-62263350I0J-243750D01*
G01*
X108929400Y-62750850D01*
G75*
G02*
X108685650Y-62994600I-243750J0D01*
G01*
X107773150Y-62994600D01*
G75*
G02*
X107529400Y-62750850I0J243750D01*
G01*
X107529400Y-62263350D01*
G75*
G02*
X107773150Y-62019600I243750J0D01*
G01*
G37*
G36*
G01*
X107773150Y-60144600D02*
X108685650Y-60144600D01*
G75*
G02*
X108929400Y-60388350I0J-243750D01*
G01*
X108929400Y-60875850D01*
G75*
G02*
X108685650Y-61119600I-243750J0D01*
G01*
X107773150Y-61119600D01*
G75*
G02*
X107529400Y-60875850I0J243750D01*
G01*
X107529400Y-60388350D01*
G75*
G02*
X107773150Y-60144600I243750J0D01*
G01*
G37*
D19*
X118205000Y-61214000D03*
X114205000Y-61214000D03*
G36*
G01*
X106141000Y-45341250D02*
X106141000Y-44828750D01*
G75*
G02*
X106359750Y-44610000I218750J0D01*
G01*
X106797250Y-44610000D01*
G75*
G02*
X107016000Y-44828750I0J-218750D01*
G01*
X107016000Y-45341250D01*
G75*
G02*
X106797250Y-45560000I-218750J0D01*
G01*
X106359750Y-45560000D01*
G75*
G02*
X106141000Y-45341250I0J218750D01*
G01*
G37*
G36*
G01*
X104566000Y-45341250D02*
X104566000Y-44828750D01*
G75*
G02*
X104784750Y-44610000I218750J0D01*
G01*
X105222250Y-44610000D01*
G75*
G02*
X105441000Y-44828750I0J-218750D01*
G01*
X105441000Y-45341250D01*
G75*
G02*
X105222250Y-45560000I-218750J0D01*
G01*
X104784750Y-45560000D01*
G75*
G02*
X104566000Y-45341250I0J218750D01*
G01*
G37*
G36*
G01*
X106204500Y-47119250D02*
X106204500Y-46606750D01*
G75*
G02*
X106423250Y-46388000I218750J0D01*
G01*
X106860750Y-46388000D01*
G75*
G02*
X107079500Y-46606750I0J-218750D01*
G01*
X107079500Y-47119250D01*
G75*
G02*
X106860750Y-47338000I-218750J0D01*
G01*
X106423250Y-47338000D01*
G75*
G02*
X106204500Y-47119250I0J218750D01*
G01*
G37*
G36*
G01*
X104629500Y-47119250D02*
X104629500Y-46606750D01*
G75*
G02*
X104848250Y-46388000I218750J0D01*
G01*
X105285750Y-46388000D01*
G75*
G02*
X105504500Y-46606750I0J-218750D01*
G01*
X105504500Y-47119250D01*
G75*
G02*
X105285750Y-47338000I-218750J0D01*
G01*
X104848250Y-47338000D01*
G75*
G02*
X104629500Y-47119250I0J218750D01*
G01*
G37*
G36*
G01*
X103218500Y-63116750D02*
X103218500Y-63629250D01*
G75*
G02*
X102999750Y-63848000I-218750J0D01*
G01*
X102562250Y-63848000D01*
G75*
G02*
X102343500Y-63629250I0J218750D01*
G01*
X102343500Y-63116750D01*
G75*
G02*
X102562250Y-62898000I218750J0D01*
G01*
X102999750Y-62898000D01*
G75*
G02*
X103218500Y-63116750I0J-218750D01*
G01*
G37*
G36*
G01*
X104793500Y-63116750D02*
X104793500Y-63629250D01*
G75*
G02*
X104574750Y-63848000I-218750J0D01*
G01*
X104137250Y-63848000D01*
G75*
G02*
X103918500Y-63629250I0J218750D01*
G01*
X103918500Y-63116750D01*
G75*
G02*
X104137250Y-62898000I218750J0D01*
G01*
X104574750Y-62898000D01*
G75*
G02*
X104793500Y-63116750I0J-218750D01*
G01*
G37*
G36*
G01*
X100835750Y-56992000D02*
X101348250Y-56992000D01*
G75*
G02*
X101567000Y-57210750I0J-218750D01*
G01*
X101567000Y-57648250D01*
G75*
G02*
X101348250Y-57867000I-218750J0D01*
G01*
X100835750Y-57867000D01*
G75*
G02*
X100617000Y-57648250I0J218750D01*
G01*
X100617000Y-57210750D01*
G75*
G02*
X100835750Y-56992000I218750J0D01*
G01*
G37*
G36*
G01*
X100835750Y-55417000D02*
X101348250Y-55417000D01*
G75*
G02*
X101567000Y-55635750I0J-218750D01*
G01*
X101567000Y-56073250D01*
G75*
G02*
X101348250Y-56292000I-218750J0D01*
G01*
X100835750Y-56292000D01*
G75*
G02*
X100617000Y-56073250I0J218750D01*
G01*
X100617000Y-55635750D01*
G75*
G02*
X100835750Y-55417000I218750J0D01*
G01*
G37*
G36*
G01*
X101322850Y-50475400D02*
X100810350Y-50475400D01*
G75*
G02*
X100591600Y-50256650I0J218750D01*
G01*
X100591600Y-49819150D01*
G75*
G02*
X100810350Y-49600400I218750J0D01*
G01*
X101322850Y-49600400D01*
G75*
G02*
X101541600Y-49819150I0J-218750D01*
G01*
X101541600Y-50256650D01*
G75*
G02*
X101322850Y-50475400I-218750J0D01*
G01*
G37*
G36*
G01*
X101322850Y-52050400D02*
X100810350Y-52050400D01*
G75*
G02*
X100591600Y-51831650I0J218750D01*
G01*
X100591600Y-51394150D01*
G75*
G02*
X100810350Y-51175400I218750J0D01*
G01*
X101322850Y-51175400D01*
G75*
G02*
X101541600Y-51394150I0J-218750D01*
G01*
X101541600Y-51831650D01*
G75*
G02*
X101322850Y-52050400I-218750J0D01*
G01*
G37*
G36*
G01*
X90548750Y-51975500D02*
X91061250Y-51975500D01*
G75*
G02*
X91280000Y-52194250I0J-218750D01*
G01*
X91280000Y-52631750D01*
G75*
G02*
X91061250Y-52850500I-218750J0D01*
G01*
X90548750Y-52850500D01*
G75*
G02*
X90330000Y-52631750I0J218750D01*
G01*
X90330000Y-52194250D01*
G75*
G02*
X90548750Y-51975500I218750J0D01*
G01*
G37*
G36*
G01*
X90548750Y-50400500D02*
X91061250Y-50400500D01*
G75*
G02*
X91280000Y-50619250I0J-218750D01*
G01*
X91280000Y-51056750D01*
G75*
G02*
X91061250Y-51275500I-218750J0D01*
G01*
X90548750Y-51275500D01*
G75*
G02*
X90330000Y-51056750I0J218750D01*
G01*
X90330000Y-50619250D01*
G75*
G02*
X90548750Y-50400500I218750J0D01*
G01*
G37*
G36*
G01*
X93376000Y-60449750D02*
X93376000Y-60962250D01*
G75*
G02*
X93157250Y-61181000I-218750J0D01*
G01*
X92719750Y-61181000D01*
G75*
G02*
X92501000Y-60962250I0J218750D01*
G01*
X92501000Y-60449750D01*
G75*
G02*
X92719750Y-60231000I218750J0D01*
G01*
X93157250Y-60231000D01*
G75*
G02*
X93376000Y-60449750I0J-218750D01*
G01*
G37*
G36*
G01*
X94951000Y-60449750D02*
X94951000Y-60962250D01*
G75*
G02*
X94732250Y-61181000I-218750J0D01*
G01*
X94294750Y-61181000D01*
G75*
G02*
X94076000Y-60962250I0J218750D01*
G01*
X94076000Y-60449750D01*
G75*
G02*
X94294750Y-60231000I218750J0D01*
G01*
X94732250Y-60231000D01*
G75*
G02*
X94951000Y-60449750I0J-218750D01*
G01*
G37*
G36*
G01*
X88473800Y-63573950D02*
X88473800Y-64086450D01*
G75*
G02*
X88255050Y-64305200I-218750J0D01*
G01*
X87817550Y-64305200D01*
G75*
G02*
X87598800Y-64086450I0J218750D01*
G01*
X87598800Y-63573950D01*
G75*
G02*
X87817550Y-63355200I218750J0D01*
G01*
X88255050Y-63355200D01*
G75*
G02*
X88473800Y-63573950I0J-218750D01*
G01*
G37*
G36*
G01*
X90048800Y-63573950D02*
X90048800Y-64086450D01*
G75*
G02*
X89830050Y-64305200I-218750J0D01*
G01*
X89392550Y-64305200D01*
G75*
G02*
X89173800Y-64086450I0J218750D01*
G01*
X89173800Y-63573950D01*
G75*
G02*
X89392550Y-63355200I218750J0D01*
G01*
X89830050Y-63355200D01*
G75*
G02*
X90048800Y-63573950I0J-218750D01*
G01*
G37*
G36*
G01*
X85122500Y-50865750D02*
X85122500Y-50353250D01*
G75*
G02*
X85341250Y-50134500I218750J0D01*
G01*
X85778750Y-50134500D01*
G75*
G02*
X85997500Y-50353250I0J-218750D01*
G01*
X85997500Y-50865750D01*
G75*
G02*
X85778750Y-51084500I-218750J0D01*
G01*
X85341250Y-51084500D01*
G75*
G02*
X85122500Y-50865750I0J218750D01*
G01*
G37*
G36*
G01*
X83547500Y-50865750D02*
X83547500Y-50353250D01*
G75*
G02*
X83766250Y-50134500I218750J0D01*
G01*
X84203750Y-50134500D01*
G75*
G02*
X84422500Y-50353250I0J-218750D01*
G01*
X84422500Y-50865750D01*
G75*
G02*
X84203750Y-51084500I-218750J0D01*
G01*
X83766250Y-51084500D01*
G75*
G02*
X83547500Y-50865750I0J218750D01*
G01*
G37*
G36*
G01*
X77243650Y-55606200D02*
X76731150Y-55606200D01*
G75*
G02*
X76512400Y-55387450I0J218750D01*
G01*
X76512400Y-54949950D01*
G75*
G02*
X76731150Y-54731200I218750J0D01*
G01*
X77243650Y-54731200D01*
G75*
G02*
X77462400Y-54949950I0J-218750D01*
G01*
X77462400Y-55387450D01*
G75*
G02*
X77243650Y-55606200I-218750J0D01*
G01*
G37*
G36*
G01*
X77243650Y-57181200D02*
X76731150Y-57181200D01*
G75*
G02*
X76512400Y-56962450I0J218750D01*
G01*
X76512400Y-56524950D01*
G75*
G02*
X76731150Y-56306200I218750J0D01*
G01*
X77243650Y-56306200D01*
G75*
G02*
X77462400Y-56524950I0J-218750D01*
G01*
X77462400Y-56962450D01*
G75*
G02*
X77243650Y-57181200I-218750J0D01*
G01*
G37*
G36*
G01*
X73375000Y-52834250D02*
X73375000Y-52321750D01*
G75*
G02*
X73593750Y-52103000I218750J0D01*
G01*
X74031250Y-52103000D01*
G75*
G02*
X74250000Y-52321750I0J-218750D01*
G01*
X74250000Y-52834250D01*
G75*
G02*
X74031250Y-53053000I-218750J0D01*
G01*
X73593750Y-53053000D01*
G75*
G02*
X73375000Y-52834250I0J218750D01*
G01*
G37*
G36*
G01*
X71800000Y-52834250D02*
X71800000Y-52321750D01*
G75*
G02*
X72018750Y-52103000I218750J0D01*
G01*
X72456250Y-52103000D01*
G75*
G02*
X72675000Y-52321750I0J-218750D01*
G01*
X72675000Y-52834250D01*
G75*
G02*
X72456250Y-53053000I-218750J0D01*
G01*
X72018750Y-53053000D01*
G75*
G02*
X71800000Y-52834250I0J218750D01*
G01*
G37*
G36*
G01*
X73375000Y-64518250D02*
X73375000Y-64005750D01*
G75*
G02*
X73593750Y-63787000I218750J0D01*
G01*
X74031250Y-63787000D01*
G75*
G02*
X74250000Y-64005750I0J-218750D01*
G01*
X74250000Y-64518250D01*
G75*
G02*
X74031250Y-64737000I-218750J0D01*
G01*
X73593750Y-64737000D01*
G75*
G02*
X73375000Y-64518250I0J218750D01*
G01*
G37*
G36*
G01*
X71800000Y-64518250D02*
X71800000Y-64005750D01*
G75*
G02*
X72018750Y-63787000I218750J0D01*
G01*
X72456250Y-63787000D01*
G75*
G02*
X72675000Y-64005750I0J-218750D01*
G01*
X72675000Y-64518250D01*
G75*
G02*
X72456250Y-64737000I-218750J0D01*
G01*
X72018750Y-64737000D01*
G75*
G02*
X71800000Y-64518250I0J218750D01*
G01*
G37*
G36*
G01*
X81973600Y-52131250D02*
X81973600Y-52643750D01*
G75*
G02*
X81754850Y-52862500I-218750J0D01*
G01*
X81317350Y-52862500D01*
G75*
G02*
X81098600Y-52643750I0J218750D01*
G01*
X81098600Y-52131250D01*
G75*
G02*
X81317350Y-51912500I218750J0D01*
G01*
X81754850Y-51912500D01*
G75*
G02*
X81973600Y-52131250I0J-218750D01*
G01*
G37*
G36*
G01*
X83548600Y-52131250D02*
X83548600Y-52643750D01*
G75*
G02*
X83329850Y-52862500I-218750J0D01*
G01*
X82892350Y-52862500D01*
G75*
G02*
X82673600Y-52643750I0J218750D01*
G01*
X82673600Y-52131250D01*
G75*
G02*
X82892350Y-51912500I218750J0D01*
G01*
X83329850Y-51912500D01*
G75*
G02*
X83548600Y-52131250I0J-218750D01*
G01*
G37*
G36*
G01*
X70614250Y-29621200D02*
X70101750Y-29621200D01*
G75*
G02*
X69883000Y-29402450I0J218750D01*
G01*
X69883000Y-28964950D01*
G75*
G02*
X70101750Y-28746200I218750J0D01*
G01*
X70614250Y-28746200D01*
G75*
G02*
X70833000Y-28964950I0J-218750D01*
G01*
X70833000Y-29402450D01*
G75*
G02*
X70614250Y-29621200I-218750J0D01*
G01*
G37*
G36*
G01*
X70614250Y-31196200D02*
X70101750Y-31196200D01*
G75*
G02*
X69883000Y-30977450I0J218750D01*
G01*
X69883000Y-30539950D01*
G75*
G02*
X70101750Y-30321200I218750J0D01*
G01*
X70614250Y-30321200D01*
G75*
G02*
X70833000Y-30539950I0J-218750D01*
G01*
X70833000Y-30977450D01*
G75*
G02*
X70614250Y-31196200I-218750J0D01*
G01*
G37*
G36*
G01*
X85973600Y-52643750D02*
X85973600Y-52131250D01*
G75*
G02*
X86192350Y-51912500I218750J0D01*
G01*
X86629850Y-51912500D01*
G75*
G02*
X86848600Y-52131250I0J-218750D01*
G01*
X86848600Y-52643750D01*
G75*
G02*
X86629850Y-52862500I-218750J0D01*
G01*
X86192350Y-52862500D01*
G75*
G02*
X85973600Y-52643750I0J218750D01*
G01*
G37*
G36*
G01*
X84398600Y-52643750D02*
X84398600Y-52131250D01*
G75*
G02*
X84617350Y-51912500I218750J0D01*
G01*
X85054850Y-51912500D01*
G75*
G02*
X85273600Y-52131250I0J-218750D01*
G01*
X85273600Y-52643750D01*
G75*
G02*
X85054850Y-52862500I-218750J0D01*
G01*
X84617350Y-52862500D01*
G75*
G02*
X84398600Y-52643750I0J218750D01*
G01*
G37*
G36*
G01*
X85694000Y-65381850D02*
X85694000Y-64869350D01*
G75*
G02*
X85912750Y-64650600I218750J0D01*
G01*
X86350250Y-64650600D01*
G75*
G02*
X86569000Y-64869350I0J-218750D01*
G01*
X86569000Y-65381850D01*
G75*
G02*
X86350250Y-65600600I-218750J0D01*
G01*
X85912750Y-65600600D01*
G75*
G02*
X85694000Y-65381850I0J218750D01*
G01*
G37*
G36*
G01*
X84119000Y-65381850D02*
X84119000Y-64869350D01*
G75*
G02*
X84337750Y-64650600I218750J0D01*
G01*
X84775250Y-64650600D01*
G75*
G02*
X84994000Y-64869350I0J-218750D01*
G01*
X84994000Y-65381850D01*
G75*
G02*
X84775250Y-65600600I-218750J0D01*
G01*
X84337750Y-65600600D01*
G75*
G02*
X84119000Y-65381850I0J218750D01*
G01*
G37*
G36*
G01*
X135257250Y-51948600D02*
X134744750Y-51948600D01*
G75*
G02*
X134526000Y-51729850I0J218750D01*
G01*
X134526000Y-51292350D01*
G75*
G02*
X134744750Y-51073600I218750J0D01*
G01*
X135257250Y-51073600D01*
G75*
G02*
X135476000Y-51292350I0J-218750D01*
G01*
X135476000Y-51729850D01*
G75*
G02*
X135257250Y-51948600I-218750J0D01*
G01*
G37*
G36*
G01*
X135257250Y-53523600D02*
X134744750Y-53523600D01*
G75*
G02*
X134526000Y-53304850I0J218750D01*
G01*
X134526000Y-52867350D01*
G75*
G02*
X134744750Y-52648600I218750J0D01*
G01*
X135257250Y-52648600D01*
G75*
G02*
X135476000Y-52867350I0J-218750D01*
G01*
X135476000Y-53304850D01*
G75*
G02*
X135257250Y-53523600I-218750J0D01*
G01*
G37*
G36*
G01*
X109238900Y-49850100D02*
X109238900Y-49550100D01*
G75*
G02*
X109388900Y-49400100I150000J0D01*
G01*
X111063900Y-49400100D01*
G75*
G02*
X111213900Y-49550100I0J-150000D01*
G01*
X111213900Y-49850100D01*
G75*
G02*
X111063900Y-50000100I-150000J0D01*
G01*
X109388900Y-50000100D01*
G75*
G02*
X109238900Y-49850100I0J150000D01*
G01*
G37*
G36*
G01*
X109238900Y-51120100D02*
X109238900Y-50820100D01*
G75*
G02*
X109388900Y-50670100I150000J0D01*
G01*
X111063900Y-50670100D01*
G75*
G02*
X111213900Y-50820100I0J-150000D01*
G01*
X111213900Y-51120100D01*
G75*
G02*
X111063900Y-51270100I-150000J0D01*
G01*
X109388900Y-51270100D01*
G75*
G02*
X109238900Y-51120100I0J150000D01*
G01*
G37*
G36*
G01*
X109238900Y-52390100D02*
X109238900Y-52090100D01*
G75*
G02*
X109388900Y-51940100I150000J0D01*
G01*
X111063900Y-51940100D01*
G75*
G02*
X111213900Y-52090100I0J-150000D01*
G01*
X111213900Y-52390100D01*
G75*
G02*
X111063900Y-52540100I-150000J0D01*
G01*
X109388900Y-52540100D01*
G75*
G02*
X109238900Y-52390100I0J150000D01*
G01*
G37*
G36*
G01*
X109238900Y-53660100D02*
X109238900Y-53360100D01*
G75*
G02*
X109388900Y-53210100I150000J0D01*
G01*
X111063900Y-53210100D01*
G75*
G02*
X111213900Y-53360100I0J-150000D01*
G01*
X111213900Y-53660100D01*
G75*
G02*
X111063900Y-53810100I-150000J0D01*
G01*
X109388900Y-53810100D01*
G75*
G02*
X109238900Y-53660100I0J150000D01*
G01*
G37*
G36*
G01*
X109238900Y-54930100D02*
X109238900Y-54630100D01*
G75*
G02*
X109388900Y-54480100I150000J0D01*
G01*
X111063900Y-54480100D01*
G75*
G02*
X111213900Y-54630100I0J-150000D01*
G01*
X111213900Y-54930100D01*
G75*
G02*
X111063900Y-55080100I-150000J0D01*
G01*
X109388900Y-55080100D01*
G75*
G02*
X109238900Y-54930100I0J150000D01*
G01*
G37*
G36*
G01*
X109238900Y-56200100D02*
X109238900Y-55900100D01*
G75*
G02*
X109388900Y-55750100I150000J0D01*
G01*
X111063900Y-55750100D01*
G75*
G02*
X111213900Y-55900100I0J-150000D01*
G01*
X111213900Y-56200100D01*
G75*
G02*
X111063900Y-56350100I-150000J0D01*
G01*
X109388900Y-56350100D01*
G75*
G02*
X109238900Y-56200100I0J150000D01*
G01*
G37*
G36*
G01*
X109238900Y-57470100D02*
X109238900Y-57170100D01*
G75*
G02*
X109388900Y-57020100I150000J0D01*
G01*
X111063900Y-57020100D01*
G75*
G02*
X111213900Y-57170100I0J-150000D01*
G01*
X111213900Y-57470100D01*
G75*
G02*
X111063900Y-57620100I-150000J0D01*
G01*
X109388900Y-57620100D01*
G75*
G02*
X109238900Y-57470100I0J150000D01*
G01*
G37*
G36*
G01*
X109238900Y-58740100D02*
X109238900Y-58440100D01*
G75*
G02*
X109388900Y-58290100I150000J0D01*
G01*
X111063900Y-58290100D01*
G75*
G02*
X111213900Y-58440100I0J-150000D01*
G01*
X111213900Y-58740100D01*
G75*
G02*
X111063900Y-58890100I-150000J0D01*
G01*
X109388900Y-58890100D01*
G75*
G02*
X109238900Y-58740100I0J150000D01*
G01*
G37*
G36*
G01*
X102313900Y-58740100D02*
X102313900Y-58440100D01*
G75*
G02*
X102463900Y-58290100I150000J0D01*
G01*
X104138900Y-58290100D01*
G75*
G02*
X104288900Y-58440100I0J-150000D01*
G01*
X104288900Y-58740100D01*
G75*
G02*
X104138900Y-58890100I-150000J0D01*
G01*
X102463900Y-58890100D01*
G75*
G02*
X102313900Y-58740100I0J150000D01*
G01*
G37*
G36*
G01*
X102313900Y-57470100D02*
X102313900Y-57170100D01*
G75*
G02*
X102463900Y-57020100I150000J0D01*
G01*
X104138900Y-57020100D01*
G75*
G02*
X104288900Y-57170100I0J-150000D01*
G01*
X104288900Y-57470100D01*
G75*
G02*
X104138900Y-57620100I-150000J0D01*
G01*
X102463900Y-57620100D01*
G75*
G02*
X102313900Y-57470100I0J150000D01*
G01*
G37*
G36*
G01*
X102313900Y-56200100D02*
X102313900Y-55900100D01*
G75*
G02*
X102463900Y-55750100I150000J0D01*
G01*
X104138900Y-55750100D01*
G75*
G02*
X104288900Y-55900100I0J-150000D01*
G01*
X104288900Y-56200100D01*
G75*
G02*
X104138900Y-56350100I-150000J0D01*
G01*
X102463900Y-56350100D01*
G75*
G02*
X102313900Y-56200100I0J150000D01*
G01*
G37*
G36*
G01*
X102313900Y-54930100D02*
X102313900Y-54630100D01*
G75*
G02*
X102463900Y-54480100I150000J0D01*
G01*
X104138900Y-54480100D01*
G75*
G02*
X104288900Y-54630100I0J-150000D01*
G01*
X104288900Y-54930100D01*
G75*
G02*
X104138900Y-55080100I-150000J0D01*
G01*
X102463900Y-55080100D01*
G75*
G02*
X102313900Y-54930100I0J150000D01*
G01*
G37*
G36*
G01*
X102313900Y-53660100D02*
X102313900Y-53360100D01*
G75*
G02*
X102463900Y-53210100I150000J0D01*
G01*
X104138900Y-53210100D01*
G75*
G02*
X104288900Y-53360100I0J-150000D01*
G01*
X104288900Y-53660100D01*
G75*
G02*
X104138900Y-53810100I-150000J0D01*
G01*
X102463900Y-53810100D01*
G75*
G02*
X102313900Y-53660100I0J150000D01*
G01*
G37*
G36*
G01*
X102313900Y-52390100D02*
X102313900Y-52090100D01*
G75*
G02*
X102463900Y-51940100I150000J0D01*
G01*
X104138900Y-51940100D01*
G75*
G02*
X104288900Y-52090100I0J-150000D01*
G01*
X104288900Y-52390100D01*
G75*
G02*
X104138900Y-52540100I-150000J0D01*
G01*
X102463900Y-52540100D01*
G75*
G02*
X102313900Y-52390100I0J150000D01*
G01*
G37*
G36*
G01*
X102313900Y-51120100D02*
X102313900Y-50820100D01*
G75*
G02*
X102463900Y-50670100I150000J0D01*
G01*
X104138900Y-50670100D01*
G75*
G02*
X104288900Y-50820100I0J-150000D01*
G01*
X104288900Y-51120100D01*
G75*
G02*
X104138900Y-51270100I-150000J0D01*
G01*
X102463900Y-51270100D01*
G75*
G02*
X102313900Y-51120100I0J150000D01*
G01*
G37*
G36*
G01*
X102313900Y-49850100D02*
X102313900Y-49550100D01*
G75*
G02*
X102463900Y-49400100I150000J0D01*
G01*
X104138900Y-49400100D01*
G75*
G02*
X104288900Y-49550100I0J-150000D01*
G01*
X104288900Y-49850100D01*
G75*
G02*
X104138900Y-50000100I-150000J0D01*
G01*
X102463900Y-50000100D01*
G75*
G02*
X102313900Y-49850100I0J150000D01*
G01*
G37*
G36*
G01*
X129975000Y-39987001D02*
X129975000Y-39436999D01*
G75*
G02*
X130224999Y-39187000I249999J0D01*
G01*
X130775001Y-39187000D01*
G75*
G02*
X131025000Y-39436999I0J-249999D01*
G01*
X131025000Y-39987001D01*
G75*
G02*
X130775001Y-40237000I-249999J0D01*
G01*
X130224999Y-40237000D01*
G75*
G02*
X129975000Y-39987001I0J249999D01*
G01*
G37*
G36*
G01*
X129975000Y-38687001D02*
X129975000Y-38136999D01*
G75*
G02*
X130224999Y-37887000I249999J0D01*
G01*
X130775001Y-37887000D01*
G75*
G02*
X131025000Y-38136999I0J-249999D01*
G01*
X131025000Y-38687001D01*
G75*
G02*
X130775001Y-38937000I-249999J0D01*
G01*
X130224999Y-38937000D01*
G75*
G02*
X129975000Y-38687001I0J249999D01*
G01*
G37*
G36*
G01*
X128675000Y-39987001D02*
X128675000Y-39436999D01*
G75*
G02*
X128924999Y-39187000I249999J0D01*
G01*
X129475001Y-39187000D01*
G75*
G02*
X129725000Y-39436999I0J-249999D01*
G01*
X129725000Y-39987001D01*
G75*
G02*
X129475001Y-40237000I-249999J0D01*
G01*
X128924999Y-40237000D01*
G75*
G02*
X128675000Y-39987001I0J249999D01*
G01*
G37*
G36*
G01*
X128675000Y-38687001D02*
X128675000Y-38136999D01*
G75*
G02*
X128924999Y-37887000I249999J0D01*
G01*
X129475001Y-37887000D01*
G75*
G02*
X129725000Y-38136999I0J-249999D01*
G01*
X129725000Y-38687001D01*
G75*
G02*
X129475001Y-38937000I-249999J0D01*
G01*
X128924999Y-38937000D01*
G75*
G02*
X128675000Y-38687001I0J249999D01*
G01*
G37*
G36*
G01*
X128475000Y-37474500D02*
X128475000Y-36774500D01*
G75*
G02*
X128537500Y-36712000I62500J0D01*
G01*
X128662500Y-36712000D01*
G75*
G02*
X128725000Y-36774500I0J-62500D01*
G01*
X128725000Y-37474500D01*
G75*
G02*
X128662500Y-37537000I-62500J0D01*
G01*
X128537500Y-37537000D01*
G75*
G02*
X128475000Y-37474500I0J62500D01*
G01*
G37*
G36*
G01*
X128975000Y-37474500D02*
X128975000Y-36774500D01*
G75*
G02*
X129037500Y-36712000I62500J0D01*
G01*
X129162500Y-36712000D01*
G75*
G02*
X129225000Y-36774500I0J-62500D01*
G01*
X129225000Y-37474500D01*
G75*
G02*
X129162500Y-37537000I-62500J0D01*
G01*
X129037500Y-37537000D01*
G75*
G02*
X128975000Y-37474500I0J62500D01*
G01*
G37*
G36*
G01*
X129475000Y-37474500D02*
X129475000Y-36774500D01*
G75*
G02*
X129537500Y-36712000I62500J0D01*
G01*
X129662500Y-36712000D01*
G75*
G02*
X129725000Y-36774500I0J-62500D01*
G01*
X129725000Y-37474500D01*
G75*
G02*
X129662500Y-37537000I-62500J0D01*
G01*
X129537500Y-37537000D01*
G75*
G02*
X129475000Y-37474500I0J62500D01*
G01*
G37*
G36*
G01*
X129975000Y-37474500D02*
X129975000Y-36774500D01*
G75*
G02*
X130037500Y-36712000I62500J0D01*
G01*
X130162500Y-36712000D01*
G75*
G02*
X130225000Y-36774500I0J-62500D01*
G01*
X130225000Y-37474500D01*
G75*
G02*
X130162500Y-37537000I-62500J0D01*
G01*
X130037500Y-37537000D01*
G75*
G02*
X129975000Y-37474500I0J62500D01*
G01*
G37*
G36*
G01*
X130475000Y-37474500D02*
X130475000Y-36774500D01*
G75*
G02*
X130537500Y-36712000I62500J0D01*
G01*
X130662500Y-36712000D01*
G75*
G02*
X130725000Y-36774500I0J-62500D01*
G01*
X130725000Y-37474500D01*
G75*
G02*
X130662500Y-37537000I-62500J0D01*
G01*
X130537500Y-37537000D01*
G75*
G02*
X130475000Y-37474500I0J62500D01*
G01*
G37*
G36*
G01*
X130975000Y-37474500D02*
X130975000Y-36774500D01*
G75*
G02*
X131037500Y-36712000I62500J0D01*
G01*
X131162500Y-36712000D01*
G75*
G02*
X131225000Y-36774500I0J-62500D01*
G01*
X131225000Y-37474500D01*
G75*
G02*
X131162500Y-37537000I-62500J0D01*
G01*
X131037500Y-37537000D01*
G75*
G02*
X130975000Y-37474500I0J62500D01*
G01*
G37*
G36*
G01*
X131375000Y-37874500D02*
X131375000Y-37749500D01*
G75*
G02*
X131437500Y-37687000I62500J0D01*
G01*
X132137500Y-37687000D01*
G75*
G02*
X132200000Y-37749500I0J-62500D01*
G01*
X132200000Y-37874500D01*
G75*
G02*
X132137500Y-37937000I-62500J0D01*
G01*
X131437500Y-37937000D01*
G75*
G02*
X131375000Y-37874500I0J62500D01*
G01*
G37*
G36*
G01*
X131375000Y-38374500D02*
X131375000Y-38249500D01*
G75*
G02*
X131437500Y-38187000I62500J0D01*
G01*
X132137500Y-38187000D01*
G75*
G02*
X132200000Y-38249500I0J-62500D01*
G01*
X132200000Y-38374500D01*
G75*
G02*
X132137500Y-38437000I-62500J0D01*
G01*
X131437500Y-38437000D01*
G75*
G02*
X131375000Y-38374500I0J62500D01*
G01*
G37*
G36*
G01*
X131375000Y-38874500D02*
X131375000Y-38749500D01*
G75*
G02*
X131437500Y-38687000I62500J0D01*
G01*
X132137500Y-38687000D01*
G75*
G02*
X132200000Y-38749500I0J-62500D01*
G01*
X132200000Y-38874500D01*
G75*
G02*
X132137500Y-38937000I-62500J0D01*
G01*
X131437500Y-38937000D01*
G75*
G02*
X131375000Y-38874500I0J62500D01*
G01*
G37*
G36*
G01*
X131375000Y-39374500D02*
X131375000Y-39249500D01*
G75*
G02*
X131437500Y-39187000I62500J0D01*
G01*
X132137500Y-39187000D01*
G75*
G02*
X132200000Y-39249500I0J-62500D01*
G01*
X132200000Y-39374500D01*
G75*
G02*
X132137500Y-39437000I-62500J0D01*
G01*
X131437500Y-39437000D01*
G75*
G02*
X131375000Y-39374500I0J62500D01*
G01*
G37*
G36*
G01*
X131375000Y-39874500D02*
X131375000Y-39749500D01*
G75*
G02*
X131437500Y-39687000I62500J0D01*
G01*
X132137500Y-39687000D01*
G75*
G02*
X132200000Y-39749500I0J-62500D01*
G01*
X132200000Y-39874500D01*
G75*
G02*
X132137500Y-39937000I-62500J0D01*
G01*
X131437500Y-39937000D01*
G75*
G02*
X131375000Y-39874500I0J62500D01*
G01*
G37*
G36*
G01*
X131375000Y-40374500D02*
X131375000Y-40249500D01*
G75*
G02*
X131437500Y-40187000I62500J0D01*
G01*
X132137500Y-40187000D01*
G75*
G02*
X132200000Y-40249500I0J-62500D01*
G01*
X132200000Y-40374500D01*
G75*
G02*
X132137500Y-40437000I-62500J0D01*
G01*
X131437500Y-40437000D01*
G75*
G02*
X131375000Y-40374500I0J62500D01*
G01*
G37*
G36*
G01*
X130975000Y-41349500D02*
X130975000Y-40649500D01*
G75*
G02*
X131037500Y-40587000I62500J0D01*
G01*
X131162500Y-40587000D01*
G75*
G02*
X131225000Y-40649500I0J-62500D01*
G01*
X131225000Y-41349500D01*
G75*
G02*
X131162500Y-41412000I-62500J0D01*
G01*
X131037500Y-41412000D01*
G75*
G02*
X130975000Y-41349500I0J62500D01*
G01*
G37*
G36*
G01*
X130475000Y-41349500D02*
X130475000Y-40649500D01*
G75*
G02*
X130537500Y-40587000I62500J0D01*
G01*
X130662500Y-40587000D01*
G75*
G02*
X130725000Y-40649500I0J-62500D01*
G01*
X130725000Y-41349500D01*
G75*
G02*
X130662500Y-41412000I-62500J0D01*
G01*
X130537500Y-41412000D01*
G75*
G02*
X130475000Y-41349500I0J62500D01*
G01*
G37*
G36*
G01*
X129975000Y-41349500D02*
X129975000Y-40649500D01*
G75*
G02*
X130037500Y-40587000I62500J0D01*
G01*
X130162500Y-40587000D01*
G75*
G02*
X130225000Y-40649500I0J-62500D01*
G01*
X130225000Y-41349500D01*
G75*
G02*
X130162500Y-41412000I-62500J0D01*
G01*
X130037500Y-41412000D01*
G75*
G02*
X129975000Y-41349500I0J62500D01*
G01*
G37*
G36*
G01*
X129475000Y-41349500D02*
X129475000Y-40649500D01*
G75*
G02*
X129537500Y-40587000I62500J0D01*
G01*
X129662500Y-40587000D01*
G75*
G02*
X129725000Y-40649500I0J-62500D01*
G01*
X129725000Y-41349500D01*
G75*
G02*
X129662500Y-41412000I-62500J0D01*
G01*
X129537500Y-41412000D01*
G75*
G02*
X129475000Y-41349500I0J62500D01*
G01*
G37*
G36*
G01*
X128975000Y-41349500D02*
X128975000Y-40649500D01*
G75*
G02*
X129037500Y-40587000I62500J0D01*
G01*
X129162500Y-40587000D01*
G75*
G02*
X129225000Y-40649500I0J-62500D01*
G01*
X129225000Y-41349500D01*
G75*
G02*
X129162500Y-41412000I-62500J0D01*
G01*
X129037500Y-41412000D01*
G75*
G02*
X128975000Y-41349500I0J62500D01*
G01*
G37*
G36*
G01*
X128475000Y-41349500D02*
X128475000Y-40649500D01*
G75*
G02*
X128537500Y-40587000I62500J0D01*
G01*
X128662500Y-40587000D01*
G75*
G02*
X128725000Y-40649500I0J-62500D01*
G01*
X128725000Y-41349500D01*
G75*
G02*
X128662500Y-41412000I-62500J0D01*
G01*
X128537500Y-41412000D01*
G75*
G02*
X128475000Y-41349500I0J62500D01*
G01*
G37*
G36*
G01*
X127500000Y-40374500D02*
X127500000Y-40249500D01*
G75*
G02*
X127562500Y-40187000I62500J0D01*
G01*
X128262500Y-40187000D01*
G75*
G02*
X128325000Y-40249500I0J-62500D01*
G01*
X128325000Y-40374500D01*
G75*
G02*
X128262500Y-40437000I-62500J0D01*
G01*
X127562500Y-40437000D01*
G75*
G02*
X127500000Y-40374500I0J62500D01*
G01*
G37*
G36*
G01*
X127500000Y-39874500D02*
X127500000Y-39749500D01*
G75*
G02*
X127562500Y-39687000I62500J0D01*
G01*
X128262500Y-39687000D01*
G75*
G02*
X128325000Y-39749500I0J-62500D01*
G01*
X128325000Y-39874500D01*
G75*
G02*
X128262500Y-39937000I-62500J0D01*
G01*
X127562500Y-39937000D01*
G75*
G02*
X127500000Y-39874500I0J62500D01*
G01*
G37*
G36*
G01*
X127500000Y-39374500D02*
X127500000Y-39249500D01*
G75*
G02*
X127562500Y-39187000I62500J0D01*
G01*
X128262500Y-39187000D01*
G75*
G02*
X128325000Y-39249500I0J-62500D01*
G01*
X128325000Y-39374500D01*
G75*
G02*
X128262500Y-39437000I-62500J0D01*
G01*
X127562500Y-39437000D01*
G75*
G02*
X127500000Y-39374500I0J62500D01*
G01*
G37*
G36*
G01*
X127500000Y-38874500D02*
X127500000Y-38749500D01*
G75*
G02*
X127562500Y-38687000I62500J0D01*
G01*
X128262500Y-38687000D01*
G75*
G02*
X128325000Y-38749500I0J-62500D01*
G01*
X128325000Y-38874500D01*
G75*
G02*
X128262500Y-38937000I-62500J0D01*
G01*
X127562500Y-38937000D01*
G75*
G02*
X127500000Y-38874500I0J62500D01*
G01*
G37*
G36*
G01*
X127500000Y-38374500D02*
X127500000Y-38249500D01*
G75*
G02*
X127562500Y-38187000I62500J0D01*
G01*
X128262500Y-38187000D01*
G75*
G02*
X128325000Y-38249500I0J-62500D01*
G01*
X128325000Y-38374500D01*
G75*
G02*
X128262500Y-38437000I-62500J0D01*
G01*
X127562500Y-38437000D01*
G75*
G02*
X127500000Y-38374500I0J62500D01*
G01*
G37*
G36*
G01*
X127500000Y-37874500D02*
X127500000Y-37749500D01*
G75*
G02*
X127562500Y-37687000I62500J0D01*
G01*
X128262500Y-37687000D01*
G75*
G02*
X128325000Y-37749500I0J-62500D01*
G01*
X128325000Y-37874500D01*
G75*
G02*
X128262500Y-37937000I-62500J0D01*
G01*
X127562500Y-37937000D01*
G75*
G02*
X127500000Y-37874500I0J62500D01*
G01*
G37*
D28*
X142623500Y-38270000D03*
X144523500Y-38270000D03*
X144523500Y-40470000D03*
X143573500Y-40470000D03*
X142623500Y-40470000D03*
D29*
X102291000Y-22724000D03*
D30*
X115791000Y-23174000D03*
D31*
X115791000Y-27324000D03*
D32*
X115791000Y-33524000D03*
X104641000Y-37824000D03*
D33*
X112791000Y-37824000D03*
X111691000Y-37824000D03*
X110591000Y-37824000D03*
X109491000Y-37824000D03*
X108391000Y-37824000D03*
X107291000Y-37824000D03*
X106191000Y-37824000D03*
X113891000Y-37824000D03*
X114841000Y-37824000D03*
M02*
