M48
; DRILL file {KiCad 5.1.7} date Tue Nov  3 15:06:52 2020
; FORMAT={-:-/ absolute / inch / decimal}
; #@! TF.CreationDate,2020-11-03T15:06:52+01:00
; #@! TF.GenerationSoftware,Kicad,Pcbnew,5.1.7
FMAT,2
INCH
T1C0.0177
T2C0.0197
T3C0.0300
T4C0.0315
T5C0.0320
T6C0.0374
T7C0.0394
T8C0.0906
T9C0.1063
T10C0.1457
%
G90
G05
T1
X5.1774Y-2.0675
X5.2Y-2.0301
X5.2Y-2.1049
X5.2226Y-2.0675
T2
X2.465Y-1.8325
X2.5062Y-1.5012
X2.5162Y-1.57
X2.54Y-1.8175
X2.585Y-1.575
X2.61Y-3.36
X2.648Y-1.632
X2.655Y-2.4425
X2.655Y-2.5675
X2.7025Y-2.61
X2.7074Y-1.3998
X2.72Y-1.15
X2.744Y-2.658
X2.784Y-1.4
X2.7841Y-1.7341
X2.8215Y-2.624
X2.823Y-2.137
X2.827Y-2.471
X2.86Y-2.59
X2.955Y-2.6404
X2.9583Y-1.1533
X2.966Y-1.304
X3.005Y-1.7075
X3.0309Y-2.4589
X3.031Y-2.123
X3.055Y-1.7075
X3.075Y-2.265
X3.08Y-2.375
X3.1325Y-2.1463
X3.16Y-2.505
X3.179Y-2.5585
X3.185Y-2.0025
X3.19Y-2.995
X3.1918Y-2.3284
X3.195Y-2.24
X3.2075Y-2.8025
X3.21Y-2.385
X3.2475Y-1.995
X3.25Y-3.075
X3.2518Y-2.4294
X3.2722Y-2.325
X3.29Y-2.255
X3.305Y-2.675
X3.315Y-3.0
X3.325Y-2.62
X3.3612Y-2.4125
X3.37Y-2.315
X3.385Y-2.225
X3.3876Y-1.5701
X3.395Y-1.765
X3.405Y-2.275
X3.405Y-2.35
X3.42Y-2.01
X3.4301Y-1.5276
X3.44Y-2.56
X3.445Y-1.415
X3.445Y-1.4725
X3.4625Y-1.985
X3.466Y-2.466
X3.5Y-1.1525
X3.5Y-1.5025
X3.5061Y-1.8664
X3.523Y-2.187
X3.531Y-2.441
X3.573Y-2.475
X3.583Y-2.523
X3.5894Y-1.9579
X3.5935Y-2.6485
X3.629Y-2.231
X3.665Y-1.285
X3.665Y-1.415
X3.665Y-1.705
X3.67Y-1.34
X3.67Y-1.555
X3.6963Y-1.6563
X3.7013Y-1.4763
X3.711Y-2.279
X3.721Y-2.335
X3.745Y-2.481
X3.745Y-2.569
X3.78Y-2.81
X3.785Y-2.525
X3.791Y-2.279
X3.7975Y-1.58
X3.811Y-2.573
X3.85Y-2.2075
X3.8713Y-1.6521
X3.875Y-1.8706
X3.875Y-2.65
X3.879Y-2.5766
X3.884Y-1.524
X3.8875Y-3.0
X3.9Y-1.725
X3.9Y-2.8025
X3.95Y-3.075
X3.975Y-1.4888
X3.979Y-2.081
X3.979Y-2.147
X4.015Y-2.995
X4.125Y-2.565
X4.1367Y-2.2067
X4.2241Y-1.5759
X4.24Y-2.565
X4.329Y-1.641
X4.342Y-2.645
X4.355Y-1.43
X4.365Y-2.446
X4.4Y-1.415
X4.423Y-2.113
X4.46Y-1.405
X4.47Y-2.14
X4.485Y-2.85
X4.49Y-1.595
X4.505Y-1.425
X4.51Y-2.5945
X4.515Y-2.4965
X4.545Y-2.545
X4.57Y-1.43
X4.595Y-2.995
X4.6025Y-2.8475
X4.645Y-2.695
X4.6475Y-3.075
X4.715Y-1.435
X4.7488Y-1.4688
X4.8Y-1.865
X4.855Y-1.51
X4.905Y-1.76
X4.92Y-1.585
X4.925Y-1.6535
X4.9468Y-1.2882
X5.0Y-1.695
X5.0315Y-1.6175
X5.0427Y-1.4227
X5.085Y-1.515
X5.1113Y-1.3964
X5.1378Y-1.5621
X5.1418Y-1.9882
X5.1562Y-2.7262
X5.175Y-1.395
X5.2Y-1.85
X5.2Y-1.925
X5.2Y-2.1775
X5.2Y-2.25
X5.2Y-1.4525
X5.21Y-2.505
X5.2175Y-2.69
X5.24Y-1.9725
X5.2571Y-1.6871
X5.27Y-2.805
X5.27Y-2.89
X5.27Y-2.995
X5.3125Y-1.9775
X5.315Y-1.725
X5.315Y-1.795
X5.325Y-3.075
X5.33Y-2.87
X5.335Y-1.675
X5.335Y-1.8968
X5.345Y-2.3325
X5.345Y-2.423
X5.3487Y-1.7588
X5.3645Y-1.9655
X5.37Y-1.855
X5.375Y-2.025
X5.375Y-2.095
X5.3825Y-1.725
X5.385Y-2.375
X5.409Y-1.48
X5.4275Y-2.185
X5.4345Y-1.9095
X5.45Y-1.555
X5.4815Y-1.1515
X5.483Y-1.725
X5.515Y-1.885
X5.5156Y-1.8044
X5.535Y-2.195
X5.54Y-1.595
X5.549Y-2.041
X5.555Y-1.36
X5.555Y-2.425
X5.555Y-2.515
X5.565Y-2.575
X5.57Y-1.75
X5.585Y-1.165
X5.585Y-2.08
X5.605Y-2.475
X5.609Y-2.167
X5.635Y-2.545
X5.64Y-1.66
X5.64Y-1.75
X5.64Y-1.946
X5.68Y-2.28
X5.685Y-2.585
X5.705Y-1.005
X5.705Y-2.52
X5.709Y-1.991
X5.71Y-1.665
X5.71Y-1.75
X5.71Y-1.835
X5.71Y-1.91
X5.71Y-2.065
X5.734Y-1.28
X5.735Y-1.45
X5.745Y-2.565
T3
X2.8Y-3.775
X2.8Y-3.875
X2.8Y-3.975
X2.8Y-4.075
X2.8Y-4.175
X2.8Y-4.275
X2.8Y-4.375
X2.8Y-4.475
T4
X4.641Y-1.6172
X4.641Y-1.755
T5
X2.72Y-2.8
X2.72Y-3.0
X3.02Y-2.8
X3.02Y-3.0
X4.1Y-2.8
X4.1Y-3.0
X4.4Y-2.8
X4.4Y-3.0
X5.45Y-2.8
X5.45Y-3.0
X5.75Y-2.8
X5.75Y-3.0
X4.8Y-2.8
X4.8Y-3.0
X5.1Y-2.8
X5.1Y-3.0
X3.4Y-2.8
X3.4Y-3.0
X3.7Y-2.8
X3.7Y-3.0
T6
X5.0316Y-1.2013
X5.0316Y-1.28
X5.13Y-1.2013
X5.13Y-1.28
T7
X5.6602Y-2.115
X5.8602Y-2.115
X5.805Y-1.005
X5.805Y-1.105
X5.8875Y-2.3575
X5.8875Y-2.4575
X2.5Y-2.535
X2.5Y-2.635
X5.8975Y-2.6475
X5.8975Y-2.7475
T8
X4.8446Y-1.0887
X5.317Y-1.0887
T9
X2.425Y-3.205
X5.975Y-3.205
X5.975Y-1.3
X4.25Y-3.205
X2.425Y-4.575
X2.425Y-1.3
X5.975Y-4.575
T10
X4.81Y-4.625
X4.81Y-3.625
T0
M30
