G04 #@! TF.GenerationSoftware,KiCad,Pcbnew,5.1.7*
G04 #@! TF.CreationDate,2020-11-03T15:06:47+01:00*
G04 #@! TF.ProjectId,audioplayer,61756469-6f70-46c6-9179-65722e6b6963,rev?*
G04 #@! TF.SameCoordinates,Original*
G04 #@! TF.FileFunction,Copper,L4,Bot*
G04 #@! TF.FilePolarity,Positive*
%FSLAX46Y46*%
G04 Gerber Fmt 4.6, Leading zero omitted, Abs format (unit mm)*
G04 Created by KiCad (PCBNEW 5.1.7) date 2020-11-03 15:06:47*
%MOMM*%
%LPD*%
G01*
G04 APERTURE LIST*
G04 #@! TA.AperFunction,Profile*
%ADD10C,0.100000*%
G04 #@! TD*
G04 #@! TA.AperFunction,ComponentPad*
%ADD11O,1.700000X1.700000*%
G04 #@! TD*
G04 #@! TA.AperFunction,ComponentPad*
%ADD12R,1.700000X1.700000*%
G04 #@! TD*
G04 #@! TA.AperFunction,ComponentPad*
%ADD13C,1.397000*%
G04 #@! TD*
G04 #@! TA.AperFunction,ComponentPad*
%ADD14C,4.000000*%
G04 #@! TD*
G04 #@! TA.AperFunction,ComponentPad*
%ADD15C,1.600000*%
G04 #@! TD*
G04 #@! TA.AperFunction,ComponentPad*
%ADD16R,1.600000X1.600000*%
G04 #@! TD*
G04 #@! TA.AperFunction,ComponentPad*
%ADD17C,2.000000*%
G04 #@! TD*
G04 #@! TA.AperFunction,ComponentPad*
%ADD18C,1.524000*%
G04 #@! TD*
G04 #@! TA.AperFunction,ComponentPad*
%ADD19R,1.524000X1.524000*%
G04 #@! TD*
G04 #@! TA.AperFunction,ComponentPad*
%ADD20C,0.700000*%
G04 #@! TD*
G04 #@! TA.AperFunction,ComponentPad*
%ADD21C,0.600000*%
G04 #@! TD*
G04 #@! TA.AperFunction,ViaPad*
%ADD22C,0.900000*%
G04 #@! TD*
G04 #@! TA.AperFunction,Conductor*
%ADD23C,0.500000*%
G04 #@! TD*
G04 #@! TA.AperFunction,Conductor*
%ADD24C,0.400000*%
G04 #@! TD*
G04 #@! TA.AperFunction,Conductor*
%ADD25C,0.280000*%
G04 #@! TD*
G04 #@! TA.AperFunction,Conductor*
%ADD26C,0.600000*%
G04 #@! TD*
G04 APERTURE END LIST*
D10*
X156845000Y-121285000D02*
X56515000Y-121285000D01*
X156845000Y-121285000D02*
X156845000Y-21590000D01*
X56515000Y-27940000D02*
X56515000Y-121285000D01*
X97790000Y-21590000D02*
X156845000Y-21590000D01*
X97790000Y-27940000D02*
X97790000Y-21590000D01*
X56515000Y-27940000D02*
X97790000Y-27940000D01*
D11*
X147447000Y-28067000D03*
D12*
X147447000Y-25527000D03*
D11*
X149542500Y-62420500D03*
D12*
X149542500Y-59880500D03*
D13*
X69088000Y-76200000D03*
X69088000Y-71120000D03*
X76708000Y-76200000D03*
X76708000Y-71120000D03*
X93980000Y-71120000D03*
X93980000Y-76200000D03*
X86360000Y-71120000D03*
X86360000Y-76200000D03*
D14*
X135052000Y-27652000D03*
X123052000Y-27652000D03*
D15*
X130302000Y-30512000D03*
X127802000Y-30512000D03*
X127802000Y-32512000D03*
D16*
X130302000Y-32512000D03*
D17*
X148849080Y-53721000D03*
X143769080Y-53721000D03*
D18*
X71120000Y-113665000D03*
X71120000Y-111125000D03*
X71120000Y-108585000D03*
X71120000Y-106045000D03*
X71120000Y-103505000D03*
X71120000Y-100965000D03*
X71120000Y-98425000D03*
D19*
X71120000Y-95885000D03*
D13*
X111760000Y-71120000D03*
X111760000Y-76200000D03*
X104140000Y-71120000D03*
X104140000Y-76200000D03*
D20*
X132080000Y-51564500D03*
D21*
X132655000Y-52514500D03*
X131505000Y-52514500D03*
D20*
X132080000Y-53464500D03*
D13*
X138430000Y-76200000D03*
X138430000Y-71120000D03*
X146050000Y-76200000D03*
X146050000Y-71120000D03*
X121920000Y-76200000D03*
X121920000Y-71120000D03*
X129540000Y-76200000D03*
X129540000Y-71120000D03*
D11*
X149796500Y-67246500D03*
D12*
X149796500Y-69786500D03*
D11*
X63500000Y-64389000D03*
D12*
X63500000Y-66929000D03*
D15*
X117881400Y-41077000D03*
D16*
X117881400Y-44577000D03*
D22*
X130500000Y-39678000D03*
X138036300Y-48501300D03*
X129159000Y-38481000D03*
X135382000Y-72898000D03*
X91274900Y-67271900D03*
X87376000Y-65024000D03*
X143129000Y-64643000D03*
X144907000Y-64008000D03*
X144399000Y-65659000D03*
X145923000Y-65151000D03*
X141097000Y-61595000D03*
X142367000Y-62865000D03*
X141097000Y-63881000D03*
X141351000Y-65405000D03*
X75141000Y-29294000D03*
X69088000Y-29210000D03*
X81470502Y-71183500D03*
X88900000Y-29273496D03*
X68767781Y-35554562D03*
X125095000Y-41999998D03*
X101066600Y-54533800D03*
X124587000Y-44704000D03*
X86868000Y-51054000D03*
X115443000Y-64643000D03*
X114554000Y-65900300D03*
X114681000Y-63411100D03*
X117983000Y-68453000D03*
X78232000Y-60325000D03*
X99060000Y-71183500D03*
X116903506Y-72326500D03*
X110871000Y-62128399D03*
X111760000Y-35941000D03*
X82550000Y-78105000D03*
X100330000Y-78105000D03*
X135255000Y-78105000D03*
X116077996Y-36322000D03*
X143256000Y-42164000D03*
X141097000Y-34544000D03*
X139230000Y-29248000D03*
X112344200Y-53670200D03*
X113538000Y-54356000D03*
X94513400Y-59309000D03*
X76987400Y-53924200D03*
X76984600Y-62455800D03*
X71805800Y-62763400D03*
X88036300Y-62636500D03*
X134937515Y-50228515D03*
X132080000Y-48895000D03*
X132080000Y-55308500D03*
X132080000Y-57150000D03*
X64516000Y-46164500D03*
X62611000Y-46545500D03*
X76327000Y-43370500D03*
X80899000Y-50863500D03*
X118046506Y-78105000D03*
X92176600Y-56667400D03*
X67259200Y-41452800D03*
X101066600Y-52857400D03*
X71704200Y-54279800D03*
X114427000Y-36195000D03*
X85979014Y-56515000D03*
X78105000Y-57531014D03*
X91171098Y-49730998D03*
X86487000Y-59690000D03*
X105072103Y-56050103D03*
X110286810Y-67183000D03*
X141859000Y-29591000D03*
X138429998Y-39497000D03*
X144907000Y-25527000D03*
X140589000Y-55753000D03*
X143256000Y-49428500D03*
X145034000Y-42291000D03*
X140944600Y-51841400D03*
X145034000Y-44450000D03*
X143256000Y-44450000D03*
X141478000Y-44450000D03*
X140097000Y-45831000D03*
X141859000Y-52832000D03*
X145034000Y-46609000D03*
X145034000Y-48514000D03*
X145008600Y-50571400D03*
X145034000Y-52451000D03*
X142468600Y-55041800D03*
X107696000Y-65150996D03*
X104775000Y-65151000D03*
X63911000Y-39878000D03*
X65659000Y-40005000D03*
X63657000Y-38130000D03*
X95123010Y-65252590D03*
X95122998Y-63017402D03*
X132080000Y-46990000D03*
X130600800Y-50501200D03*
X133096002Y-50101502D03*
X96139000Y-64135000D03*
X66294000Y-85344000D03*
X114046000Y-40513000D03*
X88900000Y-38163500D03*
X113283996Y-35687000D03*
X93091000Y-35941000D03*
X75057000Y-67066021D03*
X93218000Y-39497000D03*
X110617000Y-36322000D03*
X72644012Y-65786000D03*
X87124202Y-38800702D03*
X87503000Y-37401498D03*
X71664999Y-66648499D03*
X107291000Y-40029004D03*
X96456500Y-40132000D03*
X84201000Y-76200000D03*
X96012000Y-71374000D03*
X67437000Y-65214500D03*
X67437000Y-62039500D03*
X86233000Y-44831000D03*
X81534004Y-60579000D03*
X89054270Y-47405457D03*
X87947500Y-50419000D03*
X79564562Y-54516634D03*
X93091000Y-43307000D03*
X93886859Y-42070859D03*
X83566000Y-57277000D03*
X136398004Y-47117000D03*
X135509000Y-42545000D03*
X70717318Y-44047318D03*
X137858499Y-55499000D03*
X137388518Y-37592000D03*
X131445000Y-35433000D03*
X93091000Y-32639000D03*
X129826472Y-35468069D03*
X93218000Y-34035998D03*
X113919000Y-72390000D03*
X101981000Y-76072992D03*
X98653600Y-38709600D03*
X132334000Y-63627004D03*
X100965000Y-37816434D03*
X140081000Y-47879000D03*
X144272000Y-57912000D03*
X97790000Y-56070490D03*
X89484198Y-55549800D03*
X94259400Y-57886600D03*
X96291400Y-57886600D03*
X85373622Y-61277500D03*
X83114011Y-59055000D03*
X80746600Y-64985990D03*
X77597000Y-43370500D03*
X86044702Y-39880202D03*
X140716000Y-40513000D03*
X123317000Y-38354000D03*
X135509000Y-48179905D03*
X136715500Y-43815000D03*
X132524500Y-68326000D03*
X135763000Y-59245500D03*
X135763000Y-61544200D03*
X96799400Y-65354200D03*
X98425000Y-67310000D03*
X83947000Y-67945000D03*
X139268200Y-43815000D03*
X136778996Y-60325004D03*
X98526600Y-65445400D03*
X135001000Y-43815000D03*
X135001000Y-45593000D03*
X135858250Y-44672250D03*
X136525000Y-53213000D03*
X136525000Y-51435000D03*
X136259501Y-49922499D03*
X130966999Y-69245001D03*
X75336408Y-33121600D03*
X69697600Y-67513200D03*
X81026000Y-76073000D03*
X116713000Y-76073000D03*
X133858000Y-76073002D03*
X133858000Y-71247000D03*
X133858000Y-73406000D03*
X98742500Y-76200000D03*
X124968000Y-40259000D03*
X127000000Y-43053000D03*
X121920000Y-47371000D03*
X127800100Y-41084500D03*
X80264000Y-63627000D03*
X84455000Y-66548000D03*
X85598000Y-58801000D03*
X91008200Y-64084200D03*
X90754200Y-62865000D03*
X89687400Y-62001400D03*
X82486500Y-50673008D03*
X81152997Y-56895997D03*
X81072132Y-59141882D03*
X82594893Y-61707630D03*
X86487000Y-57785000D03*
X109956500Y-41681500D03*
X87503000Y-35941000D03*
X94013667Y-37498667D03*
X125648720Y-32720280D03*
X145669000Y-36829998D03*
X145643600Y-32512000D03*
X133530800Y-42852800D03*
X128084865Y-36136865D03*
X119761000Y-36449000D03*
X99060000Y-43815000D03*
X132080012Y-36893500D03*
X120618250Y-37306250D03*
X98330587Y-41963990D03*
X70713600Y-35560000D03*
X68643500Y-66294000D03*
X98425000Y-47514179D03*
D23*
X107696000Y-65150996D02*
X104775004Y-65150996D01*
X104775004Y-65150996D02*
X104775000Y-65151000D01*
D24*
X94107000Y-34925000D02*
X93091000Y-35941000D01*
X112521996Y-34925000D02*
X94107000Y-34925000D01*
X113283996Y-35687000D02*
X112521996Y-34925000D01*
X88900000Y-38799896D02*
X75057000Y-52642896D01*
X75057000Y-52642896D02*
X75057000Y-67066021D01*
X88900000Y-38163500D02*
X88900000Y-38799896D01*
X71120000Y-103505000D02*
X75057000Y-99568000D01*
X75057000Y-99568000D02*
X75057000Y-67066021D01*
X96266000Y-36449000D02*
X93218000Y-39497000D01*
X110617000Y-36449000D02*
X96266000Y-36449000D01*
X110617000Y-36322000D02*
X110617000Y-36449000D01*
X85024298Y-38800702D02*
X87124202Y-38800702D01*
X73504489Y-50320511D02*
X85024298Y-38800702D01*
X73504489Y-64925523D02*
X73504489Y-50320511D01*
X72644012Y-65786000D02*
X73504489Y-64925523D01*
X72644012Y-85089988D02*
X72644012Y-65786000D01*
X69278500Y-88455500D02*
X72644012Y-85089988D01*
X69278500Y-97472500D02*
X69278500Y-88455500D01*
X70231000Y-98425000D02*
X69278500Y-97472500D01*
X71120000Y-98425000D02*
X70231000Y-98425000D01*
X85026502Y-37401498D02*
X87503000Y-37401498D01*
X72771000Y-49657000D02*
X85026502Y-37401498D01*
X72771000Y-63754000D02*
X72771000Y-49657000D01*
X71664999Y-64860001D02*
X72771000Y-63754000D01*
X71664999Y-66648499D02*
X71664999Y-64860001D01*
X71664999Y-81243001D02*
X71664999Y-66648499D01*
X68262500Y-84645500D02*
X71664999Y-81243001D01*
X68262500Y-99123500D02*
X68262500Y-84645500D01*
X70104000Y-100965000D02*
X68262500Y-99123500D01*
X71120000Y-100965000D02*
X70104000Y-100965000D01*
X96559496Y-40029004D02*
X96456500Y-40132000D01*
X107291000Y-40029004D02*
X96559496Y-40029004D01*
X85725000Y-73533000D02*
X84201000Y-75057000D01*
X94615000Y-73533000D02*
X85725000Y-73533000D01*
X96012000Y-72136000D02*
X94615000Y-73533000D01*
X84201000Y-75057000D02*
X84201000Y-76200000D01*
X96012000Y-71374000D02*
X96012000Y-72136000D01*
X67437000Y-65214500D02*
X67437000Y-62039500D01*
D25*
X81984003Y-60129001D02*
X81534004Y-60579000D01*
X81984003Y-53905997D02*
X81984003Y-60129001D01*
X86233000Y-44831000D02*
X86233000Y-49657000D01*
X86233000Y-49657000D02*
X81984003Y-53905997D01*
D24*
X87947500Y-48450500D02*
X87947500Y-50419000D01*
X88992543Y-47405457D02*
X87947500Y-48450500D01*
X89054270Y-47405457D02*
X88992543Y-47405457D01*
X86487000Y-43307000D02*
X93091000Y-43307000D01*
X79564562Y-50229438D02*
X86487000Y-43307000D01*
X79564562Y-54516634D02*
X79564562Y-50229438D01*
X94336858Y-45363142D02*
X83566000Y-56134000D01*
X83566000Y-56134000D02*
X83566000Y-57277000D01*
X94336858Y-42520858D02*
X94336858Y-45363142D01*
X93886859Y-42070859D02*
X94336858Y-42520858D01*
X137033000Y-42545000D02*
X135509000Y-42545000D01*
X137795000Y-43307000D02*
X137033000Y-42545000D01*
X137795000Y-44577000D02*
X137795000Y-43307000D01*
X136398004Y-45973996D02*
X137795000Y-44577000D01*
X136398004Y-47117000D02*
X136398004Y-45973996D01*
X136398004Y-47117000D02*
X136398004Y-48472906D01*
X137858499Y-49933401D02*
X137858499Y-55499000D01*
X136398004Y-48472906D02*
X137858499Y-49933401D01*
X137388518Y-34518518D02*
X137388518Y-37592000D01*
X131445000Y-28575000D02*
X137388518Y-34518518D01*
X126809500Y-28575000D02*
X131445000Y-28575000D01*
X123761500Y-31623000D02*
X126809500Y-28575000D01*
X83141636Y-31623000D02*
X123761500Y-31623000D01*
X70717318Y-44047318D02*
X83141636Y-31623000D01*
X120840500Y-32639000D02*
X93091000Y-32639000D01*
X122237500Y-34036000D02*
X120840500Y-32639000D01*
X130048000Y-34036000D02*
X122237500Y-34036000D01*
X131445000Y-35433000D02*
X130048000Y-34036000D01*
X129826472Y-35468069D02*
X129376473Y-35018070D01*
X129376473Y-35018070D02*
X115409070Y-35018070D01*
X115409070Y-35018070D02*
X114426998Y-34035998D01*
X114426998Y-34035998D02*
X93218000Y-34035998D01*
X101981000Y-75565000D02*
X101981000Y-76072992D01*
X103759000Y-73787000D02*
X101981000Y-75565000D01*
X112522000Y-73787000D02*
X103759000Y-73787000D01*
X113919000Y-72390000D02*
X112522000Y-73787000D01*
X114807996Y-46101000D02*
X132334000Y-63627004D01*
X95351600Y-43637200D02*
X97815400Y-46101000D01*
X95351600Y-39827200D02*
X95351600Y-43637200D01*
X97815400Y-46101000D02*
X114807996Y-46101000D01*
X96469200Y-38709600D02*
X95351600Y-39827200D01*
X98653600Y-38709600D02*
X96469200Y-38709600D01*
X86296500Y-42291000D02*
X91694000Y-42291000D01*
X91694000Y-42291000D02*
X96168566Y-37816434D01*
X76708000Y-71120000D02*
X76009501Y-70421501D01*
X76009501Y-70421501D02*
X76009501Y-52577999D01*
X96168566Y-37816434D02*
X100965000Y-37816434D01*
X76009501Y-52577999D02*
X86296500Y-42291000D01*
X104140000Y-71120000D02*
X111760000Y-71120000D01*
X118364000Y-71120000D02*
X111760000Y-71120000D01*
X120523000Y-73279000D02*
X118364000Y-71120000D01*
X130073400Y-73279000D02*
X120523000Y-73279000D01*
X139319000Y-64033400D02*
X130073400Y-73279000D01*
X139319000Y-57023000D02*
X139319000Y-64033400D01*
X139319000Y-57912000D02*
X144272000Y-57912000D01*
X139319000Y-48641000D02*
X139319000Y-57912000D01*
X140081000Y-47879000D02*
X139319000Y-48641000D01*
X97269310Y-55549800D02*
X89484198Y-55549800D01*
X97790000Y-56070490D02*
X97269310Y-55549800D01*
X94259400Y-57886600D02*
X96291400Y-57886600D01*
D26*
X84467700Y-61277500D02*
X84645500Y-61277500D01*
X84467700Y-61277500D02*
X85056110Y-61277500D01*
D25*
X84645500Y-61277500D02*
X85056110Y-61277500D01*
D26*
X85056110Y-61277500D02*
X85373622Y-61277500D01*
X84467700Y-61277500D02*
X80759210Y-64985990D01*
X80759210Y-64985990D02*
X80746600Y-64985990D01*
X83114011Y-59111011D02*
X83114011Y-59055000D01*
X84467700Y-60464700D02*
X83114011Y-59111011D01*
X84467700Y-61277500D02*
X84467700Y-60464700D01*
D24*
X77597000Y-43434000D02*
X77597000Y-43370500D01*
X70739000Y-50292000D02*
X77597000Y-43434000D01*
X70739000Y-78073250D02*
X70739000Y-50292000D01*
X67310000Y-81502250D02*
X70739000Y-78073250D01*
X67310000Y-107442000D02*
X67310000Y-81502250D01*
X71120000Y-111252000D02*
X67310000Y-107442000D01*
X74231500Y-51693404D02*
X86044702Y-39880202D01*
X73787000Y-66357500D02*
X74231500Y-65913000D01*
X73787000Y-89027000D02*
X73787000Y-66357500D01*
X74231500Y-65913000D02*
X74231500Y-51693404D01*
X71120000Y-91694000D02*
X73787000Y-89027000D01*
X71120000Y-95885000D02*
X71120000Y-91694000D01*
X127254000Y-38354000D02*
X123317000Y-38354000D01*
X140081000Y-41148000D02*
X130048000Y-41148000D01*
X130048000Y-41148000D02*
X127254000Y-38354000D01*
X140716000Y-40513000D02*
X140081000Y-41148000D01*
X69697600Y-38760408D02*
X69697600Y-67513200D01*
X75336408Y-33121600D02*
X69697600Y-38760408D01*
X91346667Y-37498667D02*
X94013667Y-37498667D01*
X89789000Y-35941000D02*
X91346667Y-37498667D01*
X87503000Y-35941000D02*
X89789000Y-35941000D01*
X120073135Y-36136865D02*
X128084865Y-36136865D01*
X119761000Y-36449000D02*
X120073135Y-36136865D01*
X101219000Y-41656000D02*
X99060000Y-43815000D01*
X110617000Y-38735000D02*
X107696000Y-41656000D01*
X107696000Y-41656000D02*
X101219000Y-41656000D01*
X115341400Y-38735000D02*
X110617000Y-38735000D01*
X117627400Y-36449000D02*
X115341400Y-38735000D01*
X119761000Y-36449000D02*
X117627400Y-36449000D01*
X120840500Y-37084000D02*
X120618250Y-37306250D01*
X131889512Y-37084000D02*
X120840500Y-37084000D01*
X132080012Y-36893500D02*
X131889512Y-37084000D01*
X97880588Y-42413989D02*
X98330587Y-41963990D01*
X111480600Y-45085000D02*
X98298000Y-45085000D01*
X97880588Y-44667588D02*
X97880588Y-42413989D01*
X120618250Y-37306250D02*
X119259350Y-37306250D01*
X98298000Y-45085000D02*
X97880588Y-44667588D01*
X119259350Y-37306250D02*
X111480600Y-45085000D01*
X70713600Y-35560000D02*
X68643500Y-37630100D01*
X68643500Y-37630100D02*
X68643500Y-66294000D01*
X121920000Y-71120000D02*
X121793000Y-71120000D01*
X129692400Y-71018400D02*
X129641600Y-71018400D01*
X129590800Y-71120000D02*
X129692400Y-71018400D01*
X121920000Y-70739000D02*
X121920000Y-71120000D01*
X125730000Y-71120000D02*
X129590800Y-71120000D01*
X121920000Y-71120000D02*
X125730000Y-71120000D01*
D26*
X121920000Y-71120000D02*
X129540000Y-71120000D01*
X129540000Y-71120000D02*
X129667000Y-70993000D01*
X102124179Y-47514179D02*
X99061396Y-47514179D01*
X125730000Y-71120000D02*
X102124179Y-47514179D01*
X99061396Y-47514179D02*
X98425000Y-47514179D01*
M02*
