G04 #@! TF.GenerationSoftware,KiCad,Pcbnew,5.1.7*
G04 #@! TF.CreationDate,2020-11-03T15:06:49+01:00*
G04 #@! TF.ProjectId,audioplayer,61756469-6f70-46c6-9179-65722e6b6963,rev?*
G04 #@! TF.SameCoordinates,Original*
G04 #@! TF.FileFunction,Soldermask,Bot*
G04 #@! TF.FilePolarity,Negative*
%FSLAX46Y46*%
G04 Gerber Fmt 4.6, Leading zero omitted, Abs format (unit mm)*
G04 Created by KiCad (PCBNEW 5.1.7) date 2020-11-03 15:06:49*
%MOMM*%
%LPD*%
G01*
G04 APERTURE LIST*
G04 #@! TA.AperFunction,Profile*
%ADD10C,0.100000*%
G04 #@! TD*
%ADD11O,1.800000X1.800000*%
%ADD12C,3.800000*%
%ADD13C,1.497000*%
%ADD14C,4.100000*%
%ADD15C,1.700000*%
%ADD16C,2.800000*%
%ADD17C,2.100000*%
%ADD18C,1.624000*%
G04 APERTURE END LIST*
D10*
X156845000Y-121285000D02*
X56515000Y-121285000D01*
X156845000Y-121285000D02*
X156845000Y-21590000D01*
X56515000Y-27940000D02*
X56515000Y-121285000D01*
X97790000Y-21590000D02*
X156845000Y-21590000D01*
X97790000Y-27940000D02*
X97790000Y-21590000D01*
X56515000Y-27940000D02*
X97790000Y-27940000D01*
X156845000Y-121285000D02*
X56515000Y-121285000D01*
X156845000Y-121285000D02*
X156845000Y-21590000D01*
X56515000Y-27940000D02*
X56515000Y-121285000D01*
X97790000Y-21590000D02*
X156845000Y-21590000D01*
X97790000Y-27940000D02*
X97790000Y-21590000D01*
X56515000Y-27940000D02*
X97790000Y-27940000D01*
D11*
X147447000Y-28067000D03*
G36*
G01*
X146547000Y-26377000D02*
X146547000Y-24677000D01*
G75*
G02*
X146597000Y-24627000I50000J0D01*
G01*
X148297000Y-24627000D01*
G75*
G02*
X148347000Y-24677000I0J-50000D01*
G01*
X148347000Y-26377000D01*
G75*
G02*
X148297000Y-26427000I-50000J0D01*
G01*
X146597000Y-26427000D01*
G75*
G02*
X146547000Y-26377000I0J50000D01*
G01*
G37*
D12*
X122174000Y-92075000D03*
X122174000Y-117475000D03*
D11*
X149542500Y-62420500D03*
G36*
G01*
X148642500Y-60730500D02*
X148642500Y-59030500D01*
G75*
G02*
X148692500Y-58980500I50000J0D01*
G01*
X150392500Y-58980500D01*
G75*
G02*
X150442500Y-59030500I0J-50000D01*
G01*
X150442500Y-60730500D01*
G75*
G02*
X150392500Y-60780500I-50000J0D01*
G01*
X148692500Y-60780500D01*
G75*
G02*
X148642500Y-60730500I0J50000D01*
G01*
G37*
D13*
X69088000Y-76200000D03*
X69088000Y-71120000D03*
X76708000Y-76200000D03*
X76708000Y-71120000D03*
X93980000Y-71120000D03*
X93980000Y-76200000D03*
X86360000Y-71120000D03*
X86360000Y-76200000D03*
D14*
X135052000Y-27652000D03*
X123052000Y-27652000D03*
D15*
X130302000Y-30512000D03*
X127802000Y-30512000D03*
X127802000Y-32512000D03*
G36*
G01*
X129452000Y-33312000D02*
X129452000Y-31712000D01*
G75*
G02*
X129502000Y-31662000I50000J0D01*
G01*
X131102000Y-31662000D01*
G75*
G02*
X131152000Y-31712000I0J-50000D01*
G01*
X131152000Y-33312000D01*
G75*
G02*
X131102000Y-33362000I-50000J0D01*
G01*
X129502000Y-33362000D01*
G75*
G02*
X129452000Y-33312000I0J50000D01*
G01*
G37*
D16*
X151765000Y-81407000D03*
X61595000Y-81407000D03*
X61595000Y-116205000D03*
X61595000Y-33020000D03*
X151765000Y-33020000D03*
X151765000Y-116205000D03*
X107950000Y-81407000D03*
D17*
X148849080Y-53721000D03*
X143769080Y-53721000D03*
D18*
X71120000Y-113665000D03*
X71120000Y-111125000D03*
X71120000Y-108585000D03*
X71120000Y-106045000D03*
X71120000Y-103505000D03*
X71120000Y-100965000D03*
X71120000Y-98425000D03*
G36*
G01*
X70308000Y-96647000D02*
X70308000Y-95123000D01*
G75*
G02*
X70358000Y-95073000I50000J0D01*
G01*
X71882000Y-95073000D01*
G75*
G02*
X71932000Y-95123000I0J-50000D01*
G01*
X71932000Y-96647000D01*
G75*
G02*
X71882000Y-96697000I-50000J0D01*
G01*
X70358000Y-96697000D01*
G75*
G02*
X70308000Y-96647000I0J50000D01*
G01*
G37*
D13*
X111760000Y-71120000D03*
X111760000Y-76200000D03*
X104140000Y-71120000D03*
X104140000Y-76200000D03*
X138430000Y-76200000D03*
X138430000Y-71120000D03*
X146050000Y-76200000D03*
X146050000Y-71120000D03*
X121920000Y-76200000D03*
X121920000Y-71120000D03*
X129540000Y-76200000D03*
X129540000Y-71120000D03*
D11*
X149796500Y-67246500D03*
G36*
G01*
X148896500Y-70636500D02*
X148896500Y-68936500D01*
G75*
G02*
X148946500Y-68886500I50000J0D01*
G01*
X150646500Y-68886500D01*
G75*
G02*
X150696500Y-68936500I0J-50000D01*
G01*
X150696500Y-70636500D01*
G75*
G02*
X150646500Y-70686500I-50000J0D01*
G01*
X148946500Y-70686500D01*
G75*
G02*
X148896500Y-70636500I0J50000D01*
G01*
G37*
X63500000Y-64389000D03*
G36*
G01*
X62600000Y-67779000D02*
X62600000Y-66079000D01*
G75*
G02*
X62650000Y-66029000I50000J0D01*
G01*
X64350000Y-66029000D01*
G75*
G02*
X64400000Y-66079000I0J-50000D01*
G01*
X64400000Y-67779000D01*
G75*
G02*
X64350000Y-67829000I-50000J0D01*
G01*
X62650000Y-67829000D01*
G75*
G02*
X62600000Y-67779000I0J50000D01*
G01*
G37*
D15*
X117881400Y-41077000D03*
G36*
G01*
X118681400Y-45427000D02*
X117081400Y-45427000D01*
G75*
G02*
X117031400Y-45377000I0J50000D01*
G01*
X117031400Y-43777000D01*
G75*
G02*
X117081400Y-43727000I50000J0D01*
G01*
X118681400Y-43727000D01*
G75*
G02*
X118731400Y-43777000I0J-50000D01*
G01*
X118731400Y-45377000D01*
G75*
G02*
X118681400Y-45427000I-50000J0D01*
G01*
G37*
M02*
