  0
SECTION
  2
BLOCKS
  0
ENDSEC
  0
SECTION
  2
ENTITIES
  0
LINE
  8
0
 10
-8.53001
 20
-72.9563
 11
-8.53001
 21
-63.3595
  0
LINE
  8
0
 10
-8.53001
 20
-63.3595
 11
-4.83
 21
-63.3595
  0
LINE
  8
0
 10
-4.83
 20
-63.3595
 11
-4.83
 21
-53.4826
  0
LINE
  8
0
 10
-4.83
 20
-53.4826
 11
-8.53001
 21
-53.4826
  0
LINE
  8
0
 10
-8.53001
 20
-53.4826
 11
-8.53001
 21
-43.8858
  0
LINE
  8
0
 10
-8.53001
 20
-43.8858
 11
-4.83
 21
-43.8858
  0
LINE
  8
0
 10
-4.83
 20
-43.8858
 11
-4.83
 21
-34.0089
  0
LINE
  8
0
 10
-4.83
 20
-34.0089
 11
-8.53001
 21
-34.0089
  0
LINE
  8
0
 10
-8.53001
 20
-34.0089
 11
-8.53001
 21
-24.4121
  0
LINE
  8
0
 10
-8.53001
 20
-24.4121
 11
-4.83
 21
-24.4121
  0
LINE
  8
0
 10
-4.83
 20
-24.4121
 11
-4.83
 21
-14.5353
  0
LINE
  8
0
 10
-4.83
 20
-14.5353
 11
-8.53001
 21
-14.5353
  0
LINE
  8
0
 10
-8.53001
 20
-14.5353
 11
-8.53001
 21
-4.93842
  0
LINE
  8
0
 10
-8.53001
 20
-4.93842
 11
-4.83
 21
-4.93842
  0
LINE
  8
0
 10
-4.83
 20
-4.93842
 11
-4.83
 21
4.93842
  0
LINE
  8
0
 10
-4.83
 20
4.93842
 11
-8.53001
 21
4.93842
  0
LINE
  8
0
 10
-8.53001
 20
4.93842
 11
-8.53001
 21
14.5353
  0
LINE
  8
0
 10
-8.53001
 20
14.5353
 11
-4.83
 21
14.5353
  0
LINE
  8
0
 10
-4.83
 20
14.5353
 11
-4.83
 21
24.4121
  0
LINE
  8
0
 10
-4.83
 20
24.4121
 11
-8.53001
 21
24.4121
  0
LINE
  8
0
 10
-8.53001
 20
24.4121
 11
-8.53001
 21
34.0089
  0
LINE
  8
0
 10
-8.53001
 20
34.0089
 11
-4.83
 21
34.0089
  0
LINE
  8
0
 10
-4.83
 20
34.0089
 11
-4.83
 21
43.8858
  0
LINE
  8
0
 10
-4.83
 20
43.8858
 11
-8.53001
 21
43.8858
  0
LINE
  8
0
 10
-8.53001
 20
43.8858
 11
-8.53001
 21
53.4826
  0
LINE
  8
0
 10
-8.53001
 20
53.4826
 11
-4.83
 21
53.4826
  0
LINE
  8
0
 10
-4.83
 20
53.4826
 11
-4.83
 21
63.3595
  0
LINE
  8
0
 10
-4.83
 20
63.3595
 11
-8.53001
 21
63.3595
  0
LINE
  8
0
 10
-8.53001
 20
63.3595
 11
-8.53001
 21
72.9563
  0
LINE
  8
0
 10
-8.53001
 20
72.9563
 11
-4.83
 21
72.9563
  0
LINE
  8
0
 10
-4.83
 20
72.9563
 11
-4.83
 21
82.8331
  0
LINE
  8
0
 10
-4.83
 20
82.8331
 11
-8.53001
 21
82.8331
  0
LINE
  8
0
 10
-8.53001
 20
82.8331
 11
-8.53001
 21
88.97
  0
LINE
  8
0
 10
-8.53001
 20
88.97
 11
-17.1522
 21
88.97
  0
LINE
  8
0
 10
-17.1522
 20
88.97
 11
-17.1522
 21
92.67
  0
LINE
  8
0
 10
-17.1522
 20
92.67
 11
-29.5145
 21
92.67
  0
LINE
  8
0
 10
-29.5145
 20
92.67
 11
-29.5145
 21
88.97
  0
LINE
  8
0
 10
-29.5145
 20
88.97
 11
-41.5967
 21
88.97
  0
LINE
  8
0
 10
-41.5967
 20
88.97
 11
-41.5967
 21
92.67
  0
LINE
  8
0
 10
-41.5967
 20
92.67
 11
-53.9589
 21
92.67
  0
LINE
  8
0
 10
-53.9589
 20
92.67
 11
-53.9589
 21
88.97
  0
LINE
  8
0
 10
-53.9589
 20
88.97
 11
-66.0411
 21
88.97
  0
LINE
  8
0
 10
-66.0411
 20
88.97
 11
-66.0411
 21
92.67
  0
LINE
  8
0
 10
-66.0411
 20
92.67
 11
-78.4033
 21
92.67
  0
LINE
  8
0
 10
-78.4033
 20
92.67
 11
-78.4033
 21
88.97
  0
LINE
  8
0
 10
-78.4033
 20
88.97
 11
-90.4855
 21
88.97
  0
LINE
  8
0
 10
-90.4855
 20
88.97
 11
-90.4855
 21
92.67
  0
LINE
  8
0
 10
-90.4855
 20
92.67
 11
-102.848
 21
92.67
  0
LINE
  8
0
 10
-102.848
 20
92.67
 11
-102.848
 21
88.97
  0
LINE
  8
0
 10
-102.848
 20
88.97
 11
-111.47
 21
88.97
  0
LINE
  8
0
 10
-111.47
 20
88.97
 11
-111.47
 21
82.8331
  0
LINE
  8
0
 10
-111.47
 20
82.8331
 11
-115.17
 21
82.8331
  0
LINE
  8
0
 10
-115.17
 20
82.8331
 11
-115.17
 21
72.9563
  0
LINE
  8
0
 10
-115.17
 20
72.9563
 11
-111.47
 21
72.9563
  0
LINE
  8
0
 10
-111.47
 20
72.9563
 11
-111.47
 21
63.3595
  0
LINE
  8
0
 10
-111.47
 20
63.3595
 11
-115.17
 21
63.3595
  0
LINE
  8
0
 10
-115.17
 20
63.3595
 11
-115.17
 21
53.4826
  0
LINE
  8
0
 10
-115.17
 20
53.4826
 11
-111.47
 21
53.4826
  0
LINE
  8
0
 10
-111.47
 20
53.4826
 11
-111.47
 21
43.8858
  0
LINE
  8
0
 10
-111.47
 20
43.8858
 11
-115.17
 21
43.8858
  0
LINE
  8
0
 10
-115.17
 20
43.8858
 11
-115.17
 21
34.0089
  0
LINE
  8
0
 10
-115.17
 20
34.0089
 11
-111.47
 21
34.0089
  0
LINE
  8
0
 10
-111.47
 20
34.0089
 11
-111.47
 21
24.4121
  0
LINE
  8
0
 10
-111.47
 20
24.4121
 11
-115.17
 21
24.4121
  0
LINE
  8
0
 10
-115.17
 20
24.4121
 11
-115.17
 21
14.5353
  0
LINE
  8
0
 10
-115.17
 20
14.5353
 11
-111.47
 21
14.5353
  0
LINE
  8
0
 10
-111.47
 20
14.5353
 11
-111.47
 21
4.93842
  0
LINE
  8
0
 10
-111.47
 20
4.93842
 11
-115.17
 21
4.93842
  0
LINE
  8
0
 10
-115.17
 20
4.93842
 11
-115.17
 21
-4.93842
  0
LINE
  8
0
 10
-115.17
 20
-4.93842
 11
-111.47
 21
-4.93842
  0
LINE
  8
0
 10
-111.47
 20
-4.93842
 11
-111.47
 21
-14.5353
  0
LINE
  8
0
 10
-111.47
 20
-14.5353
 11
-115.17
 21
-14.5353
  0
LINE
  8
0
 10
-115.17
 20
-14.5353
 11
-115.17
 21
-24.4121
  0
LINE
  8
0
 10
-115.17
 20
-24.4121
 11
-111.47
 21
-24.4121
  0
LINE
  8
0
 10
-111.47
 20
-24.4121
 11
-111.47
 21
-34.0089
  0
LINE
  8
0
 10
-111.47
 20
-34.0089
 11
-115.17
 21
-34.0089
  0
LINE
  8
0
 10
-115.17
 20
-34.0089
 11
-115.17
 21
-43.8858
  0
LINE
  8
0
 10
-115.17
 20
-43.8858
 11
-111.47
 21
-43.8858
  0
LINE
  8
0
 10
-111.47
 20
-43.8858
 11
-111.47
 21
-53.4826
  0
LINE
  8
0
 10
-111.47
 20
-53.4826
 11
-115.17
 21
-53.4826
  0
LINE
  8
0
 10
-115.17
 20
-53.4826
 11
-115.17
 21
-63.3595
  0
LINE
  8
0
 10
-115.17
 20
-63.3595
 11
-111.47
 21
-63.3595
  0
LINE
  8
0
 10
-111.47
 20
-63.3595
 11
-111.47
 21
-72.9563
  0
LINE
  8
0
 10
-111.47
 20
-72.9563
 11
-115.17
 21
-72.9563
  0
LINE
  8
0
 10
-115.17
 20
-72.9563
 11
-115.17
 21
-82.8331
  0
LINE
  8
0
 10
-115.17
 20
-82.8331
 11
-111.47
 21
-82.8331
  0
LINE
  8
0
 10
-111.47
 20
-82.8331
 11
-111.47
 21
-88.97
  0
LINE
  8
0
 10
-111.47
 20
-88.97
 11
-102.848
 21
-88.97
  0
LINE
  8
0
 10
-102.848
 20
-88.97
 11
-102.848
 21
-92.67
  0
LINE
  8
0
 10
-102.848
 20
-92.67
 11
-90.4855
 21
-92.67
  0
LINE
  8
0
 10
-90.4855
 20
-92.67
 11
-90.4855
 21
-88.97
  0
LINE
  8
0
 10
-90.4855
 20
-88.97
 11
-78.4033
 21
-88.97
  0
LINE
  8
0
 10
-78.4033
 20
-88.97
 11
-78.4033
 21
-92.67
  0
LINE
  8
0
 10
-78.4033
 20
-92.67
 11
-66.0411
 21
-92.67
  0
LINE
  8
0
 10
-66.0411
 20
-92.67
 11
-66.0411
 21
-88.97
  0
LINE
  8
0
 10
-66.0411
 20
-88.97
 11
-53.9589
 21
-88.97
  0
LINE
  8
0
 10
-53.9589
 20
-88.97
 11
-53.9589
 21
-92.67
  0
LINE
  8
0
 10
-53.9589
 20
-92.67
 11
-41.5967
 21
-92.67
  0
LINE
  8
0
 10
-41.5967
 20
-92.67
 11
-41.5967
 21
-88.97
  0
LINE
  8
0
 10
-41.5967
 20
-88.97
 11
-29.5145
 21
-88.97
  0
LINE
  8
0
 10
-29.5145
 20
-88.97
 11
-29.5145
 21
-92.67
  0
LINE
  8
0
 10
-29.5145
 20
-92.67
 11
-17.1522
 21
-92.67
  0
LINE
  8
0
 10
-17.1522
 20
-92.67
 11
-17.1522
 21
-88.97
  0
LINE
  8
0
 10
-17.1522
 20
-88.97
 11
-8.53001
 21
-88.97
  0
LINE
  8
0
 10
-8.53001
 20
-88.97
 11
-8.53001
 21
-82.8331
  0
LINE
  8
0
 10
-8.53001
 20
-82.8331
 11
-4.83
 21
-82.8331
  0
LINE
  8
0
 10
-4.83
 20
-82.8331
 11
-4.83
 21
-72.9563
  0
LINE
  8
0
 10
-4.83
 20
-72.9563
 11
-8.53001
 21
-72.9563
  0
LINE
  8
0
 10
-98.4004
 20
-77.9419
 11
-98.4039
 21
-78.0256
  0
LINE
  8
0
 10
-98.4039
 20
-78.0256
 11
-98.4109
 21
-78.1091
  0
LINE
  8
0
 10
-98.4109
 20
-78.1091
 11
-98.4214
 21
-78.1922
  0
LINE
  8
0
 10
-98.4214
 20
-78.1922
 11
-98.4354
 21
-78.2747
  0
LINE
  8
0
 10
-98.4354
 20
-78.2747
 11
-98.4528
 21
-78.3567
  0
LINE
  8
0
 10
-98.4528
 20
-78.3567
 11
-98.4737
 21
-78.4378
  0
LINE
  8
0
 10
-98.4737
 20
-78.4378
 11
-98.4979
 21
-78.518
  0
LINE
  8
0
 10
-98.4979
 20
-78.518
 11
-98.5254
 21
-78.5971
  0
LINE
  8
0
 10
-98.5254
 20
-78.5971
 11
-98.5563
 21
-78.675
  0
LINE
  8
0
 10
-98.5563
 20
-78.675
 11
-98.5903
 21
-78.7516
  0
LINE
  8
0
 10
-98.5903
 20
-78.7516
 11
-98.6276
 21
-78.8266
  0
LINE
  8
0
 10
-98.6276
 20
-78.8266
 11
-98.6679
 21
-78.9
  0
LINE
  8
0
 10
-98.6679
 20
-78.9
 11
-98.7113
 21
-78.9716
  0
LINE
  8
0
 10
-98.7113
 20
-78.9716
 11
-98.7577
 21
-79.0414
  0
LINE
  8
0
 10
-98.7577
 20
-79.0414
 11
-98.8069
 21
-79.1092
  0
LINE
  8
0
 10
-98.8069
 20
-79.1092
 11
-98.859
 21
-79.1748
  0
LINE
  8
0
 10
-98.859
 20
-79.1748
 11
-98.9137
 21
-79.2383
  0
LINE
  8
0
 10
-98.9137
 20
-79.2383
 11
-98.9711
 21
-79.2993
  0
LINE
  8
0
 10
-98.9711
 20
-79.2993
 11
-99.0309
 21
-79.3579
  0
LINE
  8
0
 10
-99.0309
 20
-79.3579
 11
-99.0932
 21
-79.414
  0
LINE
  8
0
 10
-99.0932
 20
-79.414
 11
-99.1577
 21
-79.4674
  0
LINE
  8
0
 10
-99.1577
 20
-79.4674
 11
-99.2244
 21
-79.518
  0
LINE
  8
0
 10
-99.2244
 20
-79.518
 11
-99.2932
 21
-79.5658
  0
LINE
  8
0
 10
-99.2932
 20
-79.5658
 11
-99.3639
 21
-79.6107
  0
LINE
  8
0
 10
-99.3639
 20
-79.6107
 11
-99.4365
 21
-79.6526
  0
LINE
  8
0
 10
-99.4365
 20
-79.6526
 11
-99.5107
 21
-79.6914
  0
LINE
  8
0
 10
-99.5107
 20
-79.6914
 11
-99.5865
 21
-79.7271
  0
LINE
  8
0
 10
-99.5865
 20
-79.7271
 11
-99.6637
 21
-79.7596
  0
LINE
  8
0
 10
-99.6637
 20
-79.7596
 11
-99.7423
 21
-79.7887
  0
LINE
  8
0
 10
-99.7423
 20
-79.7887
 11
-99.8219
 21
-79.8146
  0
LINE
  8
0
 10
-99.8219
 20
-79.8146
 11
-99.9026
 21
-79.8372
  0
LINE
  8
0
 10
-99.9026
 20
-79.8372
 11
-99.9842
 21
-79.8563
  0
LINE
  8
0
 10
-99.9842
 20
-79.8563
 11
-100.066
 21
-79.872
  0
LINE
  8
0
 10
-100.066
 20
-79.872
 11
-100.149
 21
-79.8842
  0
LINE
  8
0
 10
-100.149
 20
-79.8842
 11
-100.233
 21
-79.893
  0
LINE
  8
0
 10
-100.233
 20
-79.893
 11
-100.316
 21
-79.8982
  0
LINE
  8
0
 10
-100.316
 20
-79.8982
 11
-100.4
 21
-79.9
  0
LINE
  8
0
 10
-100.4
 20
-79.9
 11
-100.484
 21
-79.8982
  0
LINE
  8
0
 10
-100.484
 20
-79.8982
 11
-100.567
 21
-79.893
  0
LINE
  8
0
 10
-100.567
 20
-79.893
 11
-100.651
 21
-79.8842
  0
LINE
  8
0
 10
-100.651
 20
-79.8842
 11
-100.734
 21
-79.872
  0
LINE
  8
0
 10
-100.734
 20
-79.872
 11
-100.816
 21
-79.8563
  0
LINE
  8
0
 10
-100.816
 20
-79.8563
 11
-100.897
 21
-79.8372
  0
LINE
  8
0
 10
-100.897
 20
-79.8372
 11
-100.978
 21
-79.8146
  0
LINE
  8
0
 10
-100.978
 20
-79.8146
 11
-101.058
 21
-79.7887
  0
LINE
  8
0
 10
-101.058
 20
-79.7887
 11
-101.136
 21
-79.7596
  0
LINE
  8
0
 10
-101.136
 20
-79.7596
 11
-101.213
 21
-79.7271
  0
LINE
  8
0
 10
-101.213
 20
-79.7271
 11
-101.289
 21
-79.6914
  0
LINE
  8
0
 10
-101.289
 20
-79.6914
 11
-101.363
 21
-79.6526
  0
LINE
  8
0
 10
-101.363
 20
-79.6526
 11
-101.436
 21
-79.6107
  0
LINE
  8
0
 10
-101.436
 20
-79.6107
 11
-101.507
 21
-79.5658
  0
LINE
  8
0
 10
-101.507
 20
-79.5658
 11
-101.576
 21
-79.518
  0
LINE
  8
0
 10
-101.576
 20
-79.518
 11
-101.642
 21
-79.4674
  0
LINE
  8
0
 10
-101.642
 20
-79.4674
 11
-101.707
 21
-79.414
  0
LINE
  8
0
 10
-101.707
 20
-79.414
 11
-101.769
 21
-79.3579
  0
LINE
  8
0
 10
-101.769
 20
-79.3579
 11
-101.829
 21
-79.2993
  0
LINE
  8
0
 10
-101.829
 20
-79.2993
 11
-101.886
 21
-79.2383
  0
LINE
  8
0
 10
-101.886
 20
-79.2383
 11
-101.941
 21
-79.1748
  0
LINE
  8
0
 10
-101.941
 20
-79.1748
 11
-101.993
 21
-79.1092
  0
LINE
  8
0
 10
-101.993
 20
-79.1092
 11
-102.042
 21
-79.0414
  0
LINE
  8
0
 10
-102.042
 20
-79.0414
 11
-102.089
 21
-78.9716
  0
LINE
  8
0
 10
-102.089
 20
-78.9716
 11
-102.132
 21
-78.9
  0
LINE
  8
0
 10
-102.132
 20
-78.9
 11
-102.172
 21
-78.8266
  0
LINE
  8
0
 10
-102.172
 20
-78.8266
 11
-102.21
 21
-78.7516
  0
LINE
  8
0
 10
-102.21
 20
-78.7516
 11
-102.244
 21
-78.675
  0
LINE
  8
0
 10
-102.244
 20
-78.675
 11
-102.275
 21
-78.5971
  0
LINE
  8
0
 10
-102.275
 20
-78.5971
 11
-102.302
 21
-78.518
  0
LINE
  8
0
 10
-102.302
 20
-78.518
 11
-102.326
 21
-78.4378
  0
LINE
  8
0
 10
-102.326
 20
-78.4378
 11
-102.347
 21
-78.3567
  0
LINE
  8
0
 10
-102.347
 20
-78.3567
 11
-102.365
 21
-78.2747
  0
LINE
  8
0
 10
-102.365
 20
-78.2747
 11
-102.379
 21
-78.1922
  0
LINE
  8
0
 10
-102.379
 20
-78.1922
 11
-102.389
 21
-78.1091
  0
LINE
  8
0
 10
-102.389
 20
-78.1091
 11
-102.396
 21
-78.0256
  0
LINE
  8
0
 10
-102.396
 20
-78.0256
 11
-102.4
 21
-77.9419
  0
LINE
  8
0
 10
-102.4
 20
-77.9419
 11
-102.4
 21
-77.8581
  0
LINE
  8
0
 10
-102.4
 20
-77.8581
 11
-102.396
 21
-77.7744
  0
LINE
  8
0
 10
-102.396
 20
-77.7744
 11
-102.389
 21
-77.6909
  0
LINE
  8
0
 10
-102.389
 20
-77.6909
 11
-102.379
 21
-77.6078
  0
LINE
  8
0
 10
-102.379
 20
-77.6078
 11
-102.365
 21
-77.5252
  0
LINE
  8
0
 10
-102.365
 20
-77.5252
 11
-102.347
 21
-77.4433
  0
LINE
  8
0
 10
-102.347
 20
-77.4433
 11
-102.326
 21
-77.3622
  0
LINE
  8
0
 10
-102.326
 20
-77.3622
 11
-102.302
 21
-77.282
  0
LINE
  8
0
 10
-102.302
 20
-77.282
 11
-102.275
 21
-77.2029
  0
LINE
  8
0
 10
-102.275
 20
-77.2029
 11
-102.244
 21
-77.125
  0
LINE
  8
0
 10
-102.244
 20
-77.125
 11
-102.21
 21
-77.0484
  0
LINE
  8
0
 10
-102.21
 20
-77.0484
 11
-102.172
 21
-76.9734
  0
LINE
  8
0
 10
-102.172
 20
-76.9734
 11
-102.132
 21
-76.9
  0
LINE
  8
0
 10
-102.132
 20
-76.9
 11
-102.089
 21
-76.8283
  0
LINE
  8
0
 10
-102.089
 20
-76.8283
 11
-102.042
 21
-76.7586
  0
LINE
  8
0
 10
-102.042
 20
-76.7586
 11
-101.993
 21
-76.6908
  0
LINE
  8
0
 10
-101.993
 20
-76.6908
 11
-101.941
 21
-76.6251
  0
LINE
  8
0
 10
-101.941
 20
-76.6251
 11
-101.886
 21
-76.5617
  0
LINE
  8
0
 10
-101.886
 20
-76.5617
 11
-101.829
 21
-76.5007
  0
LINE
  8
0
 10
-101.829
 20
-76.5007
 11
-101.769
 21
-76.4421
  0
LINE
  8
0
 10
-101.769
 20
-76.4421
 11
-101.707
 21
-76.386
  0
LINE
  8
0
 10
-101.707
 20
-76.386
 11
-101.642
 21
-76.3326
  0
LINE
  8
0
 10
-101.642
 20
-76.3326
 11
-101.576
 21
-76.282
  0
LINE
  8
0
 10
-101.576
 20
-76.282
 11
-101.507
 21
-76.2341
  0
LINE
  8
0
 10
-101.507
 20
-76.2341
 11
-101.436
 21
-76.1893
  0
LINE
  8
0
 10
-101.436
 20
-76.1893
 11
-101.363
 21
-76.1474
  0
LINE
  8
0
 10
-101.363
 20
-76.1474
 11
-101.289
 21
-76.1086
  0
LINE
  8
0
 10
-101.289
 20
-76.1086
 11
-101.213
 21
-76.0729
  0
LINE
  8
0
 10
-101.213
 20
-76.0729
 11
-101.136
 21
-76.0404
  0
LINE
  8
0
 10
-101.136
 20
-76.0404
 11
-101.058
 21
-76.0112
  0
LINE
  8
0
 10
-101.058
 20
-76.0112
 11
-100.978
 21
-75.9854
  0
LINE
  8
0
 10
-100.978
 20
-75.9854
 11
-100.897
 21
-75.9628
  0
LINE
  8
0
 10
-100.897
 20
-75.9628
 11
-100.816
 21
-75.9437
  0
LINE
  8
0
 10
-100.816
 20
-75.9437
 11
-100.734
 21
-75.928
  0
LINE
  8
0
 10
-100.734
 20
-75.928
 11
-100.651
 21
-75.9158
  0
LINE
  8
0
 10
-100.651
 20
-75.9158
 11
-100.567
 21
-75.907
  0
LINE
  8
0
 10
-100.567
 20
-75.907
 11
-100.484
 21
-75.9017
  0
LINE
  8
0
 10
-100.484
 20
-75.9017
 11
-100.4
 21
-75.9
  0
LINE
  8
0
 10
-100.4
 20
-75.9
 11
-100.316
 21
-75.9017
  0
LINE
  8
0
 10
-100.316
 20
-75.9017
 11
-100.233
 21
-75.907
  0
LINE
  8
0
 10
-100.233
 20
-75.907
 11
-100.149
 21
-75.9158
  0
LINE
  8
0
 10
-100.149
 20
-75.9158
 11
-100.066
 21
-75.928
  0
LINE
  8
0
 10
-100.066
 20
-75.928
 11
-99.9842
 21
-75.9437
  0
LINE
  8
0
 10
-99.9842
 20
-75.9437
 11
-99.9026
 21
-75.9628
  0
LINE
  8
0
 10
-99.9026
 20
-75.9628
 11
-99.8219
 21
-75.9854
  0
LINE
  8
0
 10
-99.8219
 20
-75.9854
 11
-99.7423
 21
-76.0112
  0
LINE
  8
0
 10
-99.7423
 20
-76.0112
 11
-99.6637
 21
-76.0404
  0
LINE
  8
0
 10
-99.6637
 20
-76.0404
 11
-99.5865
 21
-76.0729
  0
LINE
  8
0
 10
-99.5865
 20
-76.0729
 11
-99.5107
 21
-76.1086
  0
LINE
  8
0
 10
-99.5107
 20
-76.1086
 11
-99.4365
 21
-76.1474
  0
LINE
  8
0
 10
-99.4365
 20
-76.1474
 11
-99.3639
 21
-76.1893
  0
LINE
  8
0
 10
-99.3639
 20
-76.1893
 11
-99.2932
 21
-76.2341
  0
LINE
  8
0
 10
-99.2932
 20
-76.2341
 11
-99.2244
 21
-76.282
  0
LINE
  8
0
 10
-99.2244
 20
-76.282
 11
-99.1577
 21
-76.3326
  0
LINE
  8
0
 10
-99.1577
 20
-76.3326
 11
-99.0932
 21
-76.386
  0
LINE
  8
0
 10
-99.0932
 20
-76.386
 11
-99.0309
 21
-76.4421
  0
LINE
  8
0
 10
-99.0309
 20
-76.4421
 11
-98.9711
 21
-76.5007
  0
LINE
  8
0
 10
-98.9711
 20
-76.5007
 11
-98.9137
 21
-76.5617
  0
LINE
  8
0
 10
-98.9137
 20
-76.5617
 11
-98.859
 21
-76.6251
  0
LINE
  8
0
 10
-98.859
 20
-76.6251
 11
-98.8069
 21
-76.6908
  0
LINE
  8
0
 10
-98.8069
 20
-76.6908
 11
-98.7577
 21
-76.7586
  0
LINE
  8
0
 10
-98.7577
 20
-76.7586
 11
-98.7113
 21
-76.8283
  0
LINE
  8
0
 10
-98.7113
 20
-76.8283
 11
-98.6679
 21
-76.9
  0
LINE
  8
0
 10
-98.6679
 20
-76.9
 11
-98.6276
 21
-76.9734
  0
LINE
  8
0
 10
-98.6276
 20
-76.9734
 11
-98.5903
 21
-77.0484
  0
LINE
  8
0
 10
-98.5903
 20
-77.0484
 11
-98.5563
 21
-77.125
  0
LINE
  8
0
 10
-98.5563
 20
-77.125
 11
-98.5254
 21
-77.2029
  0
LINE
  8
0
 10
-98.5254
 20
-77.2029
 11
-98.4979
 21
-77.282
  0
LINE
  8
0
 10
-98.4979
 20
-77.282
 11
-98.4737
 21
-77.3622
  0
LINE
  8
0
 10
-98.4737
 20
-77.3622
 11
-98.4528
 21
-77.4433
  0
LINE
  8
0
 10
-98.4528
 20
-77.4433
 11
-98.4354
 21
-77.5252
  0
LINE
  8
0
 10
-98.4354
 20
-77.5252
 11
-98.4214
 21
-77.6078
  0
LINE
  8
0
 10
-98.4214
 20
-77.6078
 11
-98.4109
 21
-77.6909
  0
LINE
  8
0
 10
-98.4109
 20
-77.6909
 11
-98.4039
 21
-77.7744
  0
LINE
  8
0
 10
-98.4039
 20
-77.7744
 11
-98.4004
 21
-77.8581
  0
LINE
  8
0
 10
-98.4004
 20
-77.8581
 11
-98.4004
 21
-77.9419
  0
LINE
  8
0
 10
-98.4004
 20
77.8581
 11
-98.4039
 21
77.7744
  0
LINE
  8
0
 10
-98.4039
 20
77.7744
 11
-98.4109
 21
77.6909
  0
LINE
  8
0
 10
-98.4109
 20
77.6909
 11
-98.4214
 21
77.6078
  0
LINE
  8
0
 10
-98.4214
 20
77.6078
 11
-98.4354
 21
77.5252
  0
LINE
  8
0
 10
-98.4354
 20
77.5252
 11
-98.4528
 21
77.4433
  0
LINE
  8
0
 10
-98.4528
 20
77.4433
 11
-98.4737
 21
77.3622
  0
LINE
  8
0
 10
-98.4737
 20
77.3622
 11
-98.4979
 21
77.282
  0
LINE
  8
0
 10
-98.4979
 20
77.282
 11
-98.5254
 21
77.2029
  0
LINE
  8
0
 10
-98.5254
 20
77.2029
 11
-98.5563
 21
77.125
  0
LINE
  8
0
 10
-98.5563
 20
77.125
 11
-98.5903
 21
77.0484
  0
LINE
  8
0
 10
-98.5903
 20
77.0484
 11
-98.6276
 21
76.9734
  0
LINE
  8
0
 10
-98.6276
 20
76.9734
 11
-98.6679
 21
76.9
  0
LINE
  8
0
 10
-98.6679
 20
76.9
 11
-98.7113
 21
76.8283
  0
LINE
  8
0
 10
-98.7113
 20
76.8283
 11
-98.7577
 21
76.7586
  0
LINE
  8
0
 10
-98.7577
 20
76.7586
 11
-98.8069
 21
76.6908
  0
LINE
  8
0
 10
-98.8069
 20
76.6908
 11
-98.859
 21
76.6251
  0
LINE
  8
0
 10
-98.859
 20
76.6251
 11
-98.9137
 21
76.5617
  0
LINE
  8
0
 10
-98.9137
 20
76.5617
 11
-98.9711
 21
76.5007
  0
LINE
  8
0
 10
-98.9711
 20
76.5007
 11
-99.0309
 21
76.4421
  0
LINE
  8
0
 10
-99.0309
 20
76.4421
 11
-99.0932
 21
76.386
  0
LINE
  8
0
 10
-99.0932
 20
76.386
 11
-99.1577
 21
76.3326
  0
LINE
  8
0
 10
-99.1577
 20
76.3326
 11
-99.2244
 21
76.282
  0
LINE
  8
0
 10
-99.2244
 20
76.282
 11
-99.2932
 21
76.2341
  0
LINE
  8
0
 10
-99.2932
 20
76.2341
 11
-99.3639
 21
76.1893
  0
LINE
  8
0
 10
-99.3639
 20
76.1893
 11
-99.4365
 21
76.1474
  0
LINE
  8
0
 10
-99.4365
 20
76.1474
 11
-99.5107
 21
76.1086
  0
LINE
  8
0
 10
-99.5107
 20
76.1086
 11
-99.5865
 21
76.0729
  0
LINE
  8
0
 10
-99.5865
 20
76.0729
 11
-99.6637
 21
76.0404
  0
LINE
  8
0
 10
-99.6637
 20
76.0404
 11
-99.7423
 21
76.0112
  0
LINE
  8
0
 10
-99.7423
 20
76.0112
 11
-99.8219
 21
75.9854
  0
LINE
  8
0
 10
-99.8219
 20
75.9854
 11
-99.9026
 21
75.9628
  0
LINE
  8
0
 10
-99.9026
 20
75.9628
 11
-99.9842
 21
75.9437
  0
LINE
  8
0
 10
-99.9842
 20
75.9437
 11
-100.066
 21
75.928
  0
LINE
  8
0
 10
-100.066
 20
75.928
 11
-100.149
 21
75.9158
  0
LINE
  8
0
 10
-100.149
 20
75.9158
 11
-100.233
 21
75.907
  0
LINE
  8
0
 10
-100.233
 20
75.907
 11
-100.316
 21
75.9017
  0
LINE
  8
0
 10
-100.316
 20
75.9017
 11
-100.4
 21
75.9
  0
LINE
  8
0
 10
-100.4
 20
75.9
 11
-100.484
 21
75.9017
  0
LINE
  8
0
 10
-100.484
 20
75.9017
 11
-100.567
 21
75.907
  0
LINE
  8
0
 10
-100.567
 20
75.907
 11
-100.651
 21
75.9158
  0
LINE
  8
0
 10
-100.651
 20
75.9158
 11
-100.734
 21
75.928
  0
LINE
  8
0
 10
-100.734
 20
75.928
 11
-100.816
 21
75.9437
  0
LINE
  8
0
 10
-100.816
 20
75.9437
 11
-100.897
 21
75.9628
  0
LINE
  8
0
 10
-100.897
 20
75.9628
 11
-100.978
 21
75.9854
  0
LINE
  8
0
 10
-100.978
 20
75.9854
 11
-101.058
 21
76.0112
  0
LINE
  8
0
 10
-101.058
 20
76.0112
 11
-101.136
 21
76.0404
  0
LINE
  8
0
 10
-101.136
 20
76.0404
 11
-101.213
 21
76.0729
  0
LINE
  8
0
 10
-101.213
 20
76.0729
 11
-101.289
 21
76.1086
  0
LINE
  8
0
 10
-101.289
 20
76.1086
 11
-101.363
 21
76.1474
  0
LINE
  8
0
 10
-101.363
 20
76.1474
 11
-101.436
 21
76.1893
  0
LINE
  8
0
 10
-101.436
 20
76.1893
 11
-101.507
 21
76.2341
  0
LINE
  8
0
 10
-101.507
 20
76.2341
 11
-101.576
 21
76.282
  0
LINE
  8
0
 10
-101.576
 20
76.282
 11
-101.642
 21
76.3326
  0
LINE
  8
0
 10
-101.642
 20
76.3326
 11
-101.707
 21
76.386
  0
LINE
  8
0
 10
-101.707
 20
76.386
 11
-101.769
 21
76.4421
  0
LINE
  8
0
 10
-101.769
 20
76.4421
 11
-101.829
 21
76.5007
  0
LINE
  8
0
 10
-101.829
 20
76.5007
 11
-101.886
 21
76.5617
  0
LINE
  8
0
 10
-101.886
 20
76.5617
 11
-101.941
 21
76.6251
  0
LINE
  8
0
 10
-101.941
 20
76.6251
 11
-101.993
 21
76.6908
  0
LINE
  8
0
 10
-101.993
 20
76.6908
 11
-102.042
 21
76.7586
  0
LINE
  8
0
 10
-102.042
 20
76.7586
 11
-102.089
 21
76.8283
  0
LINE
  8
0
 10
-102.089
 20
76.8283
 11
-102.132
 21
76.9
  0
LINE
  8
0
 10
-102.132
 20
76.9
 11
-102.172
 21
76.9734
  0
LINE
  8
0
 10
-102.172
 20
76.9734
 11
-102.21
 21
77.0484
  0
LINE
  8
0
 10
-102.21
 20
77.0484
 11
-102.244
 21
77.125
  0
LINE
  8
0
 10
-102.244
 20
77.125
 11
-102.275
 21
77.2029
  0
LINE
  8
0
 10
-102.275
 20
77.2029
 11
-102.302
 21
77.282
  0
LINE
  8
0
 10
-102.302
 20
77.282
 11
-102.326
 21
77.3622
  0
LINE
  8
0
 10
-102.326
 20
77.3622
 11
-102.347
 21
77.4433
  0
LINE
  8
0
 10
-102.347
 20
77.4433
 11
-102.365
 21
77.5252
  0
LINE
  8
0
 10
-102.365
 20
77.5252
 11
-102.379
 21
77.6078
  0
LINE
  8
0
 10
-102.379
 20
77.6078
 11
-102.389
 21
77.6909
  0
LINE
  8
0
 10
-102.389
 20
77.6909
 11
-102.396
 21
77.7744
  0
LINE
  8
0
 10
-102.396
 20
77.7744
 11
-102.4
 21
77.8581
  0
LINE
  8
0
 10
-102.4
 20
77.8581
 11
-102.4
 21
77.9419
  0
LINE
  8
0
 10
-102.4
 20
77.9419
 11
-102.396
 21
78.0256
  0
LINE
  8
0
 10
-102.396
 20
78.0256
 11
-102.389
 21
78.1091
  0
LINE
  8
0
 10
-102.389
 20
78.1091
 11
-102.379
 21
78.1922
  0
LINE
  8
0
 10
-102.379
 20
78.1922
 11
-102.365
 21
78.2747
  0
LINE
  8
0
 10
-102.365
 20
78.2747
 11
-102.347
 21
78.3567
  0
LINE
  8
0
 10
-102.347
 20
78.3567
 11
-102.326
 21
78.4378
  0
LINE
  8
0
 10
-102.326
 20
78.4378
 11
-102.302
 21
78.518
  0
LINE
  8
0
 10
-102.302
 20
78.518
 11
-102.275
 21
78.5971
  0
LINE
  8
0
 10
-102.275
 20
78.5971
 11
-102.244
 21
78.675
  0
LINE
  8
0
 10
-102.244
 20
78.675
 11
-102.21
 21
78.7516
  0
LINE
  8
0
 10
-102.21
 20
78.7516
 11
-102.172
 21
78.8266
  0
LINE
  8
0
 10
-102.172
 20
78.8266
 11
-102.132
 21
78.9
  0
LINE
  8
0
 10
-102.132
 20
78.9
 11
-102.089
 21
78.9716
  0
LINE
  8
0
 10
-102.089
 20
78.9716
 11
-102.042
 21
79.0414
  0
LINE
  8
0
 10
-102.042
 20
79.0414
 11
-101.993
 21
79.1092
  0
LINE
  8
0
 10
-101.993
 20
79.1092
 11
-101.941
 21
79.1748
  0
LINE
  8
0
 10
-101.941
 20
79.1748
 11
-101.886
 21
79.2383
  0
LINE
  8
0
 10
-101.886
 20
79.2383
 11
-101.829
 21
79.2993
  0
LINE
  8
0
 10
-101.829
 20
79.2993
 11
-101.769
 21
79.3579
  0
LINE
  8
0
 10
-101.769
 20
79.3579
 11
-101.707
 21
79.414
  0
LINE
  8
0
 10
-101.707
 20
79.414
 11
-101.642
 21
79.4674
  0
LINE
  8
0
 10
-101.642
 20
79.4674
 11
-101.576
 21
79.518
  0
LINE
  8
0
 10
-101.576
 20
79.518
 11
-101.507
 21
79.5658
  0
LINE
  8
0
 10
-101.507
 20
79.5658
 11
-101.436
 21
79.6107
  0
LINE
  8
0
 10
-101.436
 20
79.6107
 11
-101.363
 21
79.6526
  0
LINE
  8
0
 10
-101.363
 20
79.6526
 11
-101.289
 21
79.6914
  0
LINE
  8
0
 10
-101.289
 20
79.6914
 11
-101.213
 21
79.7271
  0
LINE
  8
0
 10
-101.213
 20
79.7271
 11
-101.136
 21
79.7596
  0
LINE
  8
0
 10
-101.136
 20
79.7596
 11
-101.058
 21
79.7887
  0
LINE
  8
0
 10
-101.058
 20
79.7887
 11
-100.978
 21
79.8146
  0
LINE
  8
0
 10
-100.978
 20
79.8146
 11
-100.897
 21
79.8372
  0
LINE
  8
0
 10
-100.897
 20
79.8372
 11
-100.816
 21
79.8563
  0
LINE
  8
0
 10
-100.816
 20
79.8563
 11
-100.734
 21
79.872
  0
LINE
  8
0
 10
-100.734
 20
79.872
 11
-100.651
 21
79.8842
  0
LINE
  8
0
 10
-100.651
 20
79.8842
 11
-100.567
 21
79.893
  0
LINE
  8
0
 10
-100.567
 20
79.893
 11
-100.484
 21
79.8982
  0
LINE
  8
0
 10
-100.484
 20
79.8982
 11
-100.4
 21
79.9
  0
LINE
  8
0
 10
-100.4
 20
79.9
 11
-100.316
 21
79.8982
  0
LINE
  8
0
 10
-100.316
 20
79.8982
 11
-100.233
 21
79.893
  0
LINE
  8
0
 10
-100.233
 20
79.893
 11
-100.149
 21
79.8842
  0
LINE
  8
0
 10
-100.149
 20
79.8842
 11
-100.066
 21
79.872
  0
LINE
  8
0
 10
-100.066
 20
79.872
 11
-99.9842
 21
79.8563
  0
LINE
  8
0
 10
-99.9842
 20
79.8563
 11
-99.9026
 21
79.8372
  0
LINE
  8
0
 10
-99.9026
 20
79.8372
 11
-99.8219
 21
79.8146
  0
LINE
  8
0
 10
-99.8219
 20
79.8146
 11
-99.7423
 21
79.7887
  0
LINE
  8
0
 10
-99.7423
 20
79.7887
 11
-99.6637
 21
79.7596
  0
LINE
  8
0
 10
-99.6637
 20
79.7596
 11
-99.5865
 21
79.7271
  0
LINE
  8
0
 10
-99.5865
 20
79.7271
 11
-99.5107
 21
79.6914
  0
LINE
  8
0
 10
-99.5107
 20
79.6914
 11
-99.4365
 21
79.6526
  0
LINE
  8
0
 10
-99.4365
 20
79.6526
 11
-99.3639
 21
79.6107
  0
LINE
  8
0
 10
-99.3639
 20
79.6107
 11
-99.2932
 21
79.5658
  0
LINE
  8
0
 10
-99.2932
 20
79.5658
 11
-99.2244
 21
79.518
  0
LINE
  8
0
 10
-99.2244
 20
79.518
 11
-99.1577
 21
79.4674
  0
LINE
  8
0
 10
-99.1577
 20
79.4674
 11
-99.0932
 21
79.414
  0
LINE
  8
0
 10
-99.0932
 20
79.414
 11
-99.0309
 21
79.3579
  0
LINE
  8
0
 10
-99.0309
 20
79.3579
 11
-98.9711
 21
79.2993
  0
LINE
  8
0
 10
-98.9711
 20
79.2993
 11
-98.9137
 21
79.2383
  0
LINE
  8
0
 10
-98.9137
 20
79.2383
 11
-98.859
 21
79.1748
  0
LINE
  8
0
 10
-98.859
 20
79.1748
 11
-98.8069
 21
79.1092
  0
LINE
  8
0
 10
-98.8069
 20
79.1092
 11
-98.7577
 21
79.0414
  0
LINE
  8
0
 10
-98.7577
 20
79.0414
 11
-98.7113
 21
78.9716
  0
LINE
  8
0
 10
-98.7113
 20
78.9716
 11
-98.6679
 21
78.9
  0
LINE
  8
0
 10
-98.6679
 20
78.9
 11
-98.6276
 21
78.8266
  0
LINE
  8
0
 10
-98.6276
 20
78.8266
 11
-98.5903
 21
78.7516
  0
LINE
  8
0
 10
-98.5903
 20
78.7516
 11
-98.5563
 21
78.675
  0
LINE
  8
0
 10
-98.5563
 20
78.675
 11
-98.5254
 21
78.5971
  0
LINE
  8
0
 10
-98.5254
 20
78.5971
 11
-98.4979
 21
78.518
  0
LINE
  8
0
 10
-98.4979
 20
78.518
 11
-98.4737
 21
78.4378
  0
LINE
  8
0
 10
-98.4737
 20
78.4378
 11
-98.4528
 21
78.3567
  0
LINE
  8
0
 10
-98.4528
 20
78.3567
 11
-98.4354
 21
78.2747
  0
LINE
  8
0
 10
-98.4354
 20
78.2747
 11
-98.4214
 21
78.1922
  0
LINE
  8
0
 10
-98.4214
 20
78.1922
 11
-98.4109
 21
78.1091
  0
LINE
  8
0
 10
-98.4109
 20
78.1091
 11
-98.4039
 21
78.0256
  0
LINE
  8
0
 10
-98.4039
 20
78.0256
 11
-98.4004
 21
77.9419
  0
LINE
  8
0
 10
-98.4004
 20
77.9419
 11
-98.4004
 21
77.8581
  0
LINE
  8
0
 10
-81.2004
 20
46.6623
 11
-81.2035
 21
46.587
  0
LINE
  8
0
 10
-81.2035
 20
46.587
 11
-81.2099
 21
46.5118
  0
LINE
  8
0
 10
-81.2099
 20
46.5118
 11
-81.2193
 21
46.437
  0
LINE
  8
0
 10
-81.2193
 20
46.437
 11
-81.2319
 21
46.3627
  0
LINE
  8
0
 10
-81.2319
 20
46.3627
 11
-81.2475
 21
46.289
  0
LINE
  8
0
 10
-81.2475
 20
46.289
 11
-81.2663
 21
46.2159
  0
LINE
  8
0
 10
-81.2663
 20
46.2159
 11
-81.2881
 21
46.1438
  0
LINE
  8
0
 10
-81.2881
 20
46.1438
 11
-81.3129
 21
46.0726
  0
LINE
  8
0
 10
-81.3129
 20
46.0726
 11
-81.3406
 21
46.0025
  0
LINE
  8
0
 10
-81.3406
 20
46.0025
 11
-81.3713
 21
45.9336
  0
LINE
  8
0
 10
-81.3713
 20
45.9336
 11
-81.4048
 21
45.8661
  0
LINE
  8
0
 10
-81.4048
 20
45.8661
 11
-81.4411
 21
45.8
  0
LINE
  8
0
 10
-81.4411
 20
45.8
 11
-81.4802
 21
45.7355
  0
LINE
  8
0
 10
-81.4802
 20
45.7355
 11
-81.5219
 21
45.6727
  0
LINE
  8
0
 10
-81.5219
 20
45.6727
 11
-81.5662
 21
45.6117
  0
LINE
  8
0
 10
-81.5662
 20
45.6117
 11
-81.6131
 21
45.5526
  0
LINE
  8
0
 10
-81.6131
 20
45.5526
 11
-81.6623
 21
45.4956
  0
LINE
  8
0
 10
-81.6623
 20
45.4956
 11
-81.7139
 21
45.4406
  0
LINE
  8
0
 10
-81.7139
 20
45.4406
 11
-81.7678
 21
45.3878
  0
LINE
  8
0
 10
-81.7678
 20
45.3878
 11
-81.8238
 21
45.3374
  0
LINE
  8
0
 10
-81.8238
 20
45.3374
 11
-81.8819
 21
45.2893
  0
LINE
  8
0
 10
-81.8819
 20
45.2893
 11
-81.942
 21
45.2438
  0
LINE
  8
0
 10
-81.942
 20
45.2438
 11
-82.0039
 21
45.2007
  0
LINE
  8
0
 10
-82.0039
 20
45.2007
 11
-82.0676
 21
45.1603
  0
LINE
  8
0
 10
-82.0676
 20
45.1603
 11
-82.1328
 21
45.1226
  0
LINE
  8
0
 10
-82.1328
 20
45.1226
 11
-82.1996
 21
45.0877
  0
LINE
  8
0
 10
-82.1996
 20
45.0877
 11
-82.2679
 21
45.0556
  0
LINE
  8
0
 10
-82.2679
 20
45.0556
 11
-82.3374
 21
45.0264
  0
LINE
  8
0
 10
-82.3374
 20
45.0264
 11
-82.408
 21
45.0001
  0
LINE
  8
0
 10
-82.408
 20
45.0001
 11
-82.4797
 21
44.9768
  0
LINE
  8
0
 10
-82.4797
 20
44.9768
 11
-82.5524
 21
44.9565
  0
LINE
  8
0
 10
-82.5524
 20
44.9565
 11
-82.6257
 21
44.9393
  0
LINE
  8
0
 10
-82.6257
 20
44.9393
 11
-82.6998
 21
44.9252
  0
LINE
  8
0
 10
-82.6998
 20
44.9252
 11
-82.7744
 21
44.9142
  0
LINE
  8
0
 10
-82.7744
 20
44.9142
 11
-82.8494
 21
44.9063
  0
LINE
  8
0
 10
-82.8494
 20
44.9063
 11
-82.9246
 21
44.9016
  0
LINE
  8
0
 10
-82.9246
 20
44.9016
 11
-83
 21
44.9
  0
LINE
  8
0
 10
-83
 20
44.9
 11
-83.0754
 21
44.9016
  0
LINE
  8
0
 10
-83.0754
 20
44.9016
 11
-83.1506
 21
44.9063
  0
LINE
  8
0
 10
-83.1506
 20
44.9063
 11
-83.2256
 21
44.9142
  0
LINE
  8
0
 10
-83.2256
 20
44.9142
 11
-83.3002
 21
44.9252
  0
LINE
  8
0
 10
-83.3002
 20
44.9252
 11
-83.3742
 21
44.9393
  0
LINE
  8
0
 10
-83.3742
 20
44.9393
 11
-83.4476
 21
44.9565
  0
LINE
  8
0
 10
-83.4476
 20
44.9565
 11
-83.5202
 21
44.9768
  0
LINE
  8
0
 10
-83.5202
 20
44.9768
 11
-83.5919
 21
45.0001
  0
LINE
  8
0
 10
-83.5919
 20
45.0001
 11
-83.6626
 21
45.0264
  0
LINE
  8
0
 10
-83.6626
 20
45.0264
 11
-83.7321
 21
45.0556
  0
LINE
  8
0
 10
-83.7321
 20
45.0556
 11
-83.8003
 21
45.0877
  0
LINE
  8
0
 10
-83.8003
 20
45.0877
 11
-83.8671
 21
45.1226
  0
LINE
  8
0
 10
-83.8671
 20
45.1226
 11
-83.9324
 21
45.1603
  0
LINE
  8
0
 10
-83.9324
 20
45.1603
 11
-83.9961
 21
45.2007
  0
LINE
  8
0
 10
-83.9961
 20
45.2007
 11
-84.058
 21
45.2438
  0
LINE
  8
0
 10
-84.058
 20
45.2438
 11
-84.1181
 21
45.2893
  0
LINE
  8
0
 10
-84.1181
 20
45.2893
 11
-84.1761
 21
45.3374
  0
LINE
  8
0
 10
-84.1761
 20
45.3374
 11
-84.2322
 21
45.3878
  0
LINE
  8
0
 10
-84.2322
 20
45.3878
 11
-84.286
 21
45.4406
  0
LINE
  8
0
 10
-84.286
 20
45.4406
 11
-84.3376
 21
45.4956
  0
LINE
  8
0
 10
-84.3376
 20
45.4956
 11
-84.3869
 21
45.5526
  0
LINE
  8
0
 10
-84.3869
 20
45.5526
 11
-84.4337
 21
45.6117
  0
LINE
  8
0
 10
-84.4337
 20
45.6117
 11
-84.4781
 21
45.6727
  0
LINE
  8
0
 10
-84.4781
 20
45.6727
 11
-84.5198
 21
45.7355
  0
LINE
  8
0
 10
-84.5198
 20
45.7355
 11
-84.5588
 21
45.8
  0
LINE
  8
0
 10
-84.5588
 20
45.8
 11
-84.5952
 21
45.8661
  0
LINE
  8
0
 10
-84.5952
 20
45.8661
 11
-84.6287
 21
45.9336
  0
LINE
  8
0
 10
-84.6287
 20
45.9336
 11
-84.6593
 21
46.0025
  0
LINE
  8
0
 10
-84.6593
 20
46.0025
 11
-84.6871
 21
46.0726
  0
LINE
  8
0
 10
-84.6871
 20
46.0726
 11
-84.7119
 21
46.1438
  0
LINE
  8
0
 10
-84.7119
 20
46.1438
 11
-84.7337
 21
46.2159
  0
LINE
  8
0
 10
-84.7337
 20
46.2159
 11
-84.7524
 21
46.289
  0
LINE
  8
0
 10
-84.7524
 20
46.289
 11
-84.7681
 21
46.3627
  0
LINE
  8
0
 10
-84.7681
 20
46.3627
 11
-84.7807
 21
46.437
  0
LINE
  8
0
 10
-84.7807
 20
46.437
 11
-84.7901
 21
46.5118
  0
LINE
  8
0
 10
-84.7901
 20
46.5118
 11
-84.7964
 21
46.587
  0
LINE
  8
0
 10
-84.7964
 20
46.587
 11
-84.7996
 21
46.6623
  0
LINE
  8
0
 10
-84.7996
 20
46.6623
 11
-84.7996
 21
46.7377
  0
LINE
  8
0
 10
-84.7996
 20
46.7377
 11
-84.7964
 21
46.813
  0
LINE
  8
0
 10
-84.7964
 20
46.813
 11
-84.7901
 21
46.8881
  0
LINE
  8
0
 10
-84.7901
 20
46.8881
 11
-84.7807
 21
46.9629
  0
LINE
  8
0
 10
-84.7807
 20
46.9629
 11
-84.7681
 21
47.0373
  0
LINE
  8
0
 10
-84.7681
 20
47.0373
 11
-84.7524
 21
47.111
  0
LINE
  8
0
 10
-84.7524
 20
47.111
 11
-84.7337
 21
47.1841
  0
LINE
  8
0
 10
-84.7337
 20
47.1841
 11
-84.7119
 21
47.2562
  0
LINE
  8
0
 10
-84.7119
 20
47.2562
 11
-84.6871
 21
47.3274
  0
LINE
  8
0
 10
-84.6871
 20
47.3274
 11
-84.6593
 21
47.3975
  0
LINE
  8
0
 10
-84.6593
 20
47.3975
 11
-84.6287
 21
47.4664
  0
LINE
  8
0
 10
-84.6287
 20
47.4664
 11
-84.5952
 21
47.5339
  0
LINE
  8
0
 10
-84.5952
 20
47.5339
 11
-84.5588
 21
47.6
  0
LINE
  8
0
 10
-84.5588
 20
47.6
 11
-84.5198
 21
47.6645
  0
LINE
  8
0
 10
-84.5198
 20
47.6645
 11
-84.4781
 21
47.7273
  0
LINE
  8
0
 10
-84.4781
 20
47.7273
 11
-84.4337
 21
47.7883
  0
LINE
  8
0
 10
-84.4337
 20
47.7883
 11
-84.3869
 21
47.8474
  0
LINE
  8
0
 10
-84.3869
 20
47.8474
 11
-84.3376
 21
47.9044
  0
LINE
  8
0
 10
-84.3376
 20
47.9044
 11
-84.286
 21
47.9594
  0
LINE
  8
0
 10
-84.286
 20
47.9594
 11
-84.2322
 21
48.0121
  0
LINE
  8
0
 10
-84.2322
 20
48.0121
 11
-84.1761
 21
48.0626
  0
LINE
  8
0
 10
-84.1761
 20
48.0626
 11
-84.1181
 21
48.1106
  0
LINE
  8
0
 10
-84.1181
 20
48.1106
 11
-84.058
 21
48.1562
  0
LINE
  8
0
 10
-84.058
 20
48.1562
 11
-83.9961
 21
48.1992
  0
LINE
  8
0
 10
-83.9961
 20
48.1992
 11
-83.9324
 21
48.2397
  0
LINE
  8
0
 10
-83.9324
 20
48.2397
 11
-83.8671
 21
48.2773
  0
LINE
  8
0
 10
-83.8671
 20
48.2773
 11
-83.8003
 21
48.3123
  0
LINE
  8
0
 10
-83.8003
 20
48.3123
 11
-83.7321
 21
48.3444
  0
LINE
  8
0
 10
-83.7321
 20
48.3444
 11
-83.6626
 21
48.3736
  0
LINE
  8
0
 10
-83.6626
 20
48.3736
 11
-83.5919
 21
48.3999
  0
LINE
  8
0
 10
-83.5919
 20
48.3999
 11
-83.5202
 21
48.4232
  0
LINE
  8
0
 10
-83.5202
 20
48.4232
 11
-83.4476
 21
48.4434
  0
LINE
  8
0
 10
-83.4476
 20
48.4434
 11
-83.3742
 21
48.4607
  0
LINE
  8
0
 10
-83.3742
 20
48.4607
 11
-83.3002
 21
48.4748
  0
LINE
  8
0
 10
-83.3002
 20
48.4748
 11
-83.2256
 21
48.4858
  0
LINE
  8
0
 10
-83.2256
 20
48.4858
 11
-83.1506
 21
48.4937
  0
LINE
  8
0
 10
-83.1506
 20
48.4937
 11
-83.0754
 21
48.4984
  0
LINE
  8
0
 10
-83.0754
 20
48.4984
 11
-83
 21
48.5
  0
LINE
  8
0
 10
-83
 20
48.5
 11
-82.9246
 21
48.4984
  0
LINE
  8
0
 10
-82.9246
 20
48.4984
 11
-82.8494
 21
48.4937
  0
LINE
  8
0
 10
-82.8494
 20
48.4937
 11
-82.7744
 21
48.4858
  0
LINE
  8
0
 10
-82.7744
 20
48.4858
 11
-82.6998
 21
48.4748
  0
LINE
  8
0
 10
-82.6998
 20
48.4748
 11
-82.6257
 21
48.4607
  0
LINE
  8
0
 10
-82.6257
 20
48.4607
 11
-82.5524
 21
48.4434
  0
LINE
  8
0
 10
-82.5524
 20
48.4434
 11
-82.4797
 21
48.4232
  0
LINE
  8
0
 10
-82.4797
 20
48.4232
 11
-82.408
 21
48.3999
  0
LINE
  8
0
 10
-82.408
 20
48.3999
 11
-82.3374
 21
48.3736
  0
LINE
  8
0
 10
-82.3374
 20
48.3736
 11
-82.2679
 21
48.3444
  0
LINE
  8
0
 10
-82.2679
 20
48.3444
 11
-82.1996
 21
48.3123
  0
LINE
  8
0
 10
-82.1996
 20
48.3123
 11
-82.1328
 21
48.2773
  0
LINE
  8
0
 10
-82.1328
 20
48.2773
 11
-82.0676
 21
48.2397
  0
LINE
  8
0
 10
-82.0676
 20
48.2397
 11
-82.0039
 21
48.1992
  0
LINE
  8
0
 10
-82.0039
 20
48.1992
 11
-81.942
 21
48.1562
  0
LINE
  8
0
 10
-81.942
 20
48.1562
 11
-81.8819
 21
48.1106
  0
LINE
  8
0
 10
-81.8819
 20
48.1106
 11
-81.8238
 21
48.0626
  0
LINE
  8
0
 10
-81.8238
 20
48.0626
 11
-81.7678
 21
48.0121
  0
LINE
  8
0
 10
-81.7678
 20
48.0121
 11
-81.7139
 21
47.9594
  0
LINE
  8
0
 10
-81.7139
 20
47.9594
 11
-81.6623
 21
47.9044
  0
LINE
  8
0
 10
-81.6623
 20
47.9044
 11
-81.6131
 21
47.8474
  0
LINE
  8
0
 10
-81.6131
 20
47.8474
 11
-81.5662
 21
47.7883
  0
LINE
  8
0
 10
-81.5662
 20
47.7883
 11
-81.5219
 21
47.7273
  0
LINE
  8
0
 10
-81.5219
 20
47.7273
 11
-81.4802
 21
47.6645
  0
LINE
  8
0
 10
-81.4802
 20
47.6645
 11
-81.4411
 21
47.6
  0
LINE
  8
0
 10
-81.4411
 20
47.6
 11
-81.4048
 21
47.5339
  0
LINE
  8
0
 10
-81.4048
 20
47.5339
 11
-81.3713
 21
47.4664
  0
LINE
  8
0
 10
-81.3713
 20
47.4664
 11
-81.3406
 21
47.3975
  0
LINE
  8
0
 10
-81.3406
 20
47.3975
 11
-81.3129
 21
47.3274
  0
LINE
  8
0
 10
-81.3129
 20
47.3274
 11
-81.2881
 21
47.2562
  0
LINE
  8
0
 10
-81.2881
 20
47.2562
 11
-81.2663
 21
47.1841
  0
LINE
  8
0
 10
-81.2663
 20
47.1841
 11
-81.2475
 21
47.111
  0
LINE
  8
0
 10
-81.2475
 20
47.111
 11
-81.2319
 21
47.0373
  0
LINE
  8
0
 10
-81.2319
 20
47.0373
 11
-81.2193
 21
46.9629
  0
LINE
  8
0
 10
-81.2193
 20
46.9629
 11
-81.2099
 21
46.8881
  0
LINE
  8
0
 10
-81.2099
 20
46.8881
 11
-81.2035
 21
46.813
  0
LINE
  8
0
 10
-81.2035
 20
46.813
 11
-81.2004
 21
46.7377
  0
LINE
  8
0
 10
-81.2004
 20
46.7377
 11
-81.2004
 21
46.6623
  0
LINE
  8
0
 10
-81.2004
 20
-46.7377
 11
-81.2035
 21
-46.813
  0
LINE
  8
0
 10
-81.2035
 20
-46.813
 11
-81.2099
 21
-46.8881
  0
LINE
  8
0
 10
-81.2099
 20
-46.8881
 11
-81.2193
 21
-46.9629
  0
LINE
  8
0
 10
-81.2193
 20
-46.9629
 11
-81.2319
 21
-47.0373
  0
LINE
  8
0
 10
-81.2319
 20
-47.0373
 11
-81.2475
 21
-47.111
  0
LINE
  8
0
 10
-81.2475
 20
-47.111
 11
-81.2663
 21
-47.1841
  0
LINE
  8
0
 10
-81.2663
 20
-47.1841
 11
-81.2881
 21
-47.2562
  0
LINE
  8
0
 10
-81.2881
 20
-47.2562
 11
-81.3129
 21
-47.3274
  0
LINE
  8
0
 10
-81.3129
 20
-47.3274
 11
-81.3406
 21
-47.3975
  0
LINE
  8
0
 10
-81.3406
 20
-47.3975
 11
-81.3713
 21
-47.4664
  0
LINE
  8
0
 10
-81.3713
 20
-47.4664
 11
-81.4048
 21
-47.5339
  0
LINE
  8
0
 10
-81.4048
 20
-47.5339
 11
-81.4411
 21
-47.6
  0
LINE
  8
0
 10
-81.4411
 20
-47.6
 11
-81.4802
 21
-47.6645
  0
LINE
  8
0
 10
-81.4802
 20
-47.6645
 11
-81.5219
 21
-47.7273
  0
LINE
  8
0
 10
-81.5219
 20
-47.7273
 11
-81.5662
 21
-47.7883
  0
LINE
  8
0
 10
-81.5662
 20
-47.7883
 11
-81.6131
 21
-47.8474
  0
LINE
  8
0
 10
-81.6131
 20
-47.8474
 11
-81.6623
 21
-47.9044
  0
LINE
  8
0
 10
-81.6623
 20
-47.9044
 11
-81.7139
 21
-47.9594
  0
LINE
  8
0
 10
-81.7139
 20
-47.9594
 11
-81.7678
 21
-48.0121
  0
LINE
  8
0
 10
-81.7678
 20
-48.0121
 11
-81.8238
 21
-48.0626
  0
LINE
  8
0
 10
-81.8238
 20
-48.0626
 11
-81.8819
 21
-48.1106
  0
LINE
  8
0
 10
-81.8819
 20
-48.1106
 11
-81.942
 21
-48.1562
  0
LINE
  8
0
 10
-81.942
 20
-48.1562
 11
-82.0039
 21
-48.1992
  0
LINE
  8
0
 10
-82.0039
 20
-48.1992
 11
-82.0676
 21
-48.2397
  0
LINE
  8
0
 10
-82.0676
 20
-48.2397
 11
-82.1328
 21
-48.2773
  0
LINE
  8
0
 10
-82.1328
 20
-48.2773
 11
-82.1996
 21
-48.3123
  0
LINE
  8
0
 10
-82.1996
 20
-48.3123
 11
-82.2679
 21
-48.3444
  0
LINE
  8
0
 10
-82.2679
 20
-48.3444
 11
-82.3374
 21
-48.3736
  0
LINE
  8
0
 10
-82.3374
 20
-48.3736
 11
-82.408
 21
-48.3999
  0
LINE
  8
0
 10
-82.408
 20
-48.3999
 11
-82.4797
 21
-48.4232
  0
LINE
  8
0
 10
-82.4797
 20
-48.4232
 11
-82.5524
 21
-48.4434
  0
LINE
  8
0
 10
-82.5524
 20
-48.4434
 11
-82.6257
 21
-48.4607
  0
LINE
  8
0
 10
-82.6257
 20
-48.4607
 11
-82.6998
 21
-48.4748
  0
LINE
  8
0
 10
-82.6998
 20
-48.4748
 11
-82.7744
 21
-48.4858
  0
LINE
  8
0
 10
-82.7744
 20
-48.4858
 11
-82.8494
 21
-48.4937
  0
LINE
  8
0
 10
-82.8494
 20
-48.4937
 11
-82.9246
 21
-48.4984
  0
LINE
  8
0
 10
-82.9246
 20
-48.4984
 11
-83
 21
-48.5
  0
LINE
  8
0
 10
-83
 20
-48.5
 11
-83.0754
 21
-48.4984
  0
LINE
  8
0
 10
-83.0754
 20
-48.4984
 11
-83.1506
 21
-48.4937
  0
LINE
  8
0
 10
-83.1506
 20
-48.4937
 11
-83.2256
 21
-48.4858
  0
LINE
  8
0
 10
-83.2256
 20
-48.4858
 11
-83.3002
 21
-48.4748
  0
LINE
  8
0
 10
-83.3002
 20
-48.4748
 11
-83.3742
 21
-48.4607
  0
LINE
  8
0
 10
-83.3742
 20
-48.4607
 11
-83.4476
 21
-48.4434
  0
LINE
  8
0
 10
-83.4476
 20
-48.4434
 11
-83.5202
 21
-48.4232
  0
LINE
  8
0
 10
-83.5202
 20
-48.4232
 11
-83.5919
 21
-48.3999
  0
LINE
  8
0
 10
-83.5919
 20
-48.3999
 11
-83.6626
 21
-48.3736
  0
LINE
  8
0
 10
-83.6626
 20
-48.3736
 11
-83.7321
 21
-48.3444
  0
LINE
  8
0
 10
-83.7321
 20
-48.3444
 11
-83.8003
 21
-48.3123
  0
LINE
  8
0
 10
-83.8003
 20
-48.3123
 11
-83.8671
 21
-48.2773
  0
LINE
  8
0
 10
-83.8671
 20
-48.2773
 11
-83.9324
 21
-48.2397
  0
LINE
  8
0
 10
-83.9324
 20
-48.2397
 11
-83.9961
 21
-48.1992
  0
LINE
  8
0
 10
-83.9961
 20
-48.1992
 11
-84.058
 21
-48.1562
  0
LINE
  8
0
 10
-84.058
 20
-48.1562
 11
-84.1181
 21
-48.1106
  0
LINE
  8
0
 10
-84.1181
 20
-48.1106
 11
-84.1761
 21
-48.0626
  0
LINE
  8
0
 10
-84.1761
 20
-48.0626
 11
-84.2322
 21
-48.0121
  0
LINE
  8
0
 10
-84.2322
 20
-48.0121
 11
-84.286
 21
-47.9594
  0
LINE
  8
0
 10
-84.286
 20
-47.9594
 11
-84.3376
 21
-47.9044
  0
LINE
  8
0
 10
-84.3376
 20
-47.9044
 11
-84.3869
 21
-47.8474
  0
LINE
  8
0
 10
-84.3869
 20
-47.8474
 11
-84.4337
 21
-47.7883
  0
LINE
  8
0
 10
-84.4337
 20
-47.7883
 11
-84.4781
 21
-47.7273
  0
LINE
  8
0
 10
-84.4781
 20
-47.7273
 11
-84.5198
 21
-47.6645
  0
LINE
  8
0
 10
-84.5198
 20
-47.6645
 11
-84.5588
 21
-47.6
  0
LINE
  8
0
 10
-84.5588
 20
-47.6
 11
-84.5952
 21
-47.5339
  0
LINE
  8
0
 10
-84.5952
 20
-47.5339
 11
-84.6287
 21
-47.4664
  0
LINE
  8
0
 10
-84.6287
 20
-47.4664
 11
-84.6593
 21
-47.3975
  0
LINE
  8
0
 10
-84.6593
 20
-47.3975
 11
-84.6871
 21
-47.3274
  0
LINE
  8
0
 10
-84.6871
 20
-47.3274
 11
-84.7119
 21
-47.2562
  0
LINE
  8
0
 10
-84.7119
 20
-47.2562
 11
-84.7337
 21
-47.1841
  0
LINE
  8
0
 10
-84.7337
 20
-47.1841
 11
-84.7524
 21
-47.111
  0
LINE
  8
0
 10
-84.7524
 20
-47.111
 11
-84.7681
 21
-47.0373
  0
LINE
  8
0
 10
-84.7681
 20
-47.0373
 11
-84.7807
 21
-46.9629
  0
LINE
  8
0
 10
-84.7807
 20
-46.9629
 11
-84.7901
 21
-46.8881
  0
LINE
  8
0
 10
-84.7901
 20
-46.8881
 11
-84.7964
 21
-46.813
  0
LINE
  8
0
 10
-84.7964
 20
-46.813
 11
-84.7996
 21
-46.7377
  0
LINE
  8
0
 10
-84.7996
 20
-46.7377
 11
-84.7996
 21
-46.6623
  0
LINE
  8
0
 10
-84.7996
 20
-46.6623
 11
-84.7964
 21
-46.587
  0
LINE
  8
0
 10
-84.7964
 20
-46.587
 11
-84.7901
 21
-46.5118
  0
LINE
  8
0
 10
-84.7901
 20
-46.5118
 11
-84.7807
 21
-46.437
  0
LINE
  8
0
 10
-84.7807
 20
-46.437
 11
-84.7681
 21
-46.3627
  0
LINE
  8
0
 10
-84.7681
 20
-46.3627
 11
-84.7524
 21
-46.289
  0
LINE
  8
0
 10
-84.7524
 20
-46.289
 11
-84.7337
 21
-46.2159
  0
LINE
  8
0
 10
-84.7337
 20
-46.2159
 11
-84.7119
 21
-46.1438
  0
LINE
  8
0
 10
-84.7119
 20
-46.1438
 11
-84.6871
 21
-46.0726
  0
LINE
  8
0
 10
-84.6871
 20
-46.0726
 11
-84.6593
 21
-46.0025
  0
LINE
  8
0
 10
-84.6593
 20
-46.0025
 11
-84.6287
 21
-45.9336
  0
LINE
  8
0
 10
-84.6287
 20
-45.9336
 11
-84.5952
 21
-45.8661
  0
LINE
  8
0
 10
-84.5952
 20
-45.8661
 11
-84.5588
 21
-45.8
  0
LINE
  8
0
 10
-84.5588
 20
-45.8
 11
-84.5198
 21
-45.7355
  0
LINE
  8
0
 10
-84.5198
 20
-45.7355
 11
-84.4781
 21
-45.6727
  0
LINE
  8
0
 10
-84.4781
 20
-45.6727
 11
-84.4337
 21
-45.6117
  0
LINE
  8
0
 10
-84.4337
 20
-45.6117
 11
-84.3869
 21
-45.5526
  0
LINE
  8
0
 10
-84.3869
 20
-45.5526
 11
-84.3376
 21
-45.4956
  0
LINE
  8
0
 10
-84.3376
 20
-45.4956
 11
-84.286
 21
-45.4406
  0
LINE
  8
0
 10
-84.286
 20
-45.4406
 11
-84.2322
 21
-45.3878
  0
LINE
  8
0
 10
-84.2322
 20
-45.3878
 11
-84.1761
 21
-45.3374
  0
LINE
  8
0
 10
-84.1761
 20
-45.3374
 11
-84.1181
 21
-45.2893
  0
LINE
  8
0
 10
-84.1181
 20
-45.2893
 11
-84.058
 21
-45.2438
  0
LINE
  8
0
 10
-84.058
 20
-45.2438
 11
-83.9961
 21
-45.2007
  0
LINE
  8
0
 10
-83.9961
 20
-45.2007
 11
-83.9324
 21
-45.1603
  0
LINE
  8
0
 10
-83.9324
 20
-45.1603
 11
-83.8671
 21
-45.1226
  0
LINE
  8
0
 10
-83.8671
 20
-45.1226
 11
-83.8003
 21
-45.0877
  0
LINE
  8
0
 10
-83.8003
 20
-45.0877
 11
-83.7321
 21
-45.0556
  0
LINE
  8
0
 10
-83.7321
 20
-45.0556
 11
-83.6626
 21
-45.0264
  0
LINE
  8
0
 10
-83.6626
 20
-45.0264
 11
-83.5919
 21
-45.0001
  0
LINE
  8
0
 10
-83.5919
 20
-45.0001
 11
-83.5202
 21
-44.9768
  0
LINE
  8
0
 10
-83.5202
 20
-44.9768
 11
-83.4476
 21
-44.9565
  0
LINE
  8
0
 10
-83.4476
 20
-44.9565
 11
-83.3742
 21
-44.9393
  0
LINE
  8
0
 10
-83.3742
 20
-44.9393
 11
-83.3002
 21
-44.9252
  0
LINE
  8
0
 10
-83.3002
 20
-44.9252
 11
-83.2256
 21
-44.9142
  0
LINE
  8
0
 10
-83.2256
 20
-44.9142
 11
-83.1506
 21
-44.9063
  0
LINE
  8
0
 10
-83.1506
 20
-44.9063
 11
-83.0754
 21
-44.9016
  0
LINE
  8
0
 10
-83.0754
 20
-44.9016
 11
-83
 21
-44.9
  0
LINE
  8
0
 10
-83
 20
-44.9
 11
-82.9246
 21
-44.9016
  0
LINE
  8
0
 10
-82.9246
 20
-44.9016
 11
-82.8494
 21
-44.9063
  0
LINE
  8
0
 10
-82.8494
 20
-44.9063
 11
-82.7744
 21
-44.9142
  0
LINE
  8
0
 10
-82.7744
 20
-44.9142
 11
-82.6998
 21
-44.9252
  0
LINE
  8
0
 10
-82.6998
 20
-44.9252
 11
-82.6257
 21
-44.9393
  0
LINE
  8
0
 10
-82.6257
 20
-44.9393
 11
-82.5524
 21
-44.9565
  0
LINE
  8
0
 10
-82.5524
 20
-44.9565
 11
-82.4797
 21
-44.9768
  0
LINE
  8
0
 10
-82.4797
 20
-44.9768
 11
-82.408
 21
-45.0001
  0
LINE
  8
0
 10
-82.408
 20
-45.0001
 11
-82.3374
 21
-45.0264
  0
LINE
  8
0
 10
-82.3374
 20
-45.0264
 11
-82.2679
 21
-45.0556
  0
LINE
  8
0
 10
-82.2679
 20
-45.0556
 11
-82.1996
 21
-45.0877
  0
LINE
  8
0
 10
-82.1996
 20
-45.0877
 11
-82.1328
 21
-45.1226
  0
LINE
  8
0
 10
-82.1328
 20
-45.1226
 11
-82.0676
 21
-45.1603
  0
LINE
  8
0
 10
-82.0676
 20
-45.1603
 11
-82.0039
 21
-45.2007
  0
LINE
  8
0
 10
-82.0039
 20
-45.2007
 11
-81.942
 21
-45.2438
  0
LINE
  8
0
 10
-81.942
 20
-45.2438
 11
-81.8819
 21
-45.2893
  0
LINE
  8
0
 10
-81.8819
 20
-45.2893
 11
-81.8238
 21
-45.3374
  0
LINE
  8
0
 10
-81.8238
 20
-45.3374
 11
-81.7678
 21
-45.3878
  0
LINE
  8
0
 10
-81.7678
 20
-45.3878
 11
-81.7139
 21
-45.4406
  0
LINE
  8
0
 10
-81.7139
 20
-45.4406
 11
-81.6623
 21
-45.4956
  0
LINE
  8
0
 10
-81.6623
 20
-45.4956
 11
-81.6131
 21
-45.5526
  0
LINE
  8
0
 10
-81.6131
 20
-45.5526
 11
-81.5662
 21
-45.6117
  0
LINE
  8
0
 10
-81.5662
 20
-45.6117
 11
-81.5219
 21
-45.6727
  0
LINE
  8
0
 10
-81.5219
 20
-45.6727
 11
-81.4802
 21
-45.7355
  0
LINE
  8
0
 10
-81.4802
 20
-45.7355
 11
-81.4411
 21
-45.8
  0
LINE
  8
0
 10
-81.4411
 20
-45.8
 11
-81.4048
 21
-45.8661
  0
LINE
  8
0
 10
-81.4048
 20
-45.8661
 11
-81.3713
 21
-45.9336
  0
LINE
  8
0
 10
-81.3713
 20
-45.9336
 11
-81.3406
 21
-46.0025
  0
LINE
  8
0
 10
-81.3406
 20
-46.0025
 11
-81.3129
 21
-46.0726
  0
LINE
  8
0
 10
-81.3129
 20
-46.0726
 11
-81.2881
 21
-46.1438
  0
LINE
  8
0
 10
-81.2881
 20
-46.1438
 11
-81.2663
 21
-46.2159
  0
LINE
  8
0
 10
-81.2663
 20
-46.2159
 11
-81.2475
 21
-46.289
  0
LINE
  8
0
 10
-81.2475
 20
-46.289
 11
-81.2319
 21
-46.3627
  0
LINE
  8
0
 10
-81.2319
 20
-46.3627
 11
-81.2193
 21
-46.437
  0
LINE
  8
0
 10
-81.2193
 20
-46.437
 11
-81.2099
 21
-46.5118
  0
LINE
  8
0
 10
-81.2099
 20
-46.5118
 11
-81.2035
 21
-46.587
  0
LINE
  8
0
 10
-81.2035
 20
-46.587
 11
-81.2004
 21
-46.6623
  0
LINE
  8
0
 10
-81.2004
 20
-46.6623
 11
-81.2004
 21
-46.7377
  0
LINE
  8
0
 10
-17.6004
 20
-77.9419
 11
-17.604
 21
-78.0256
  0
LINE
  8
0
 10
-17.604
 20
-78.0256
 11
-17.611
 21
-78.1091
  0
LINE
  8
0
 10
-17.611
 20
-78.1091
 11
-17.6215
 21
-78.1922
  0
LINE
  8
0
 10
-17.6215
 20
-78.1922
 11
-17.6354
 21
-78.2747
  0
LINE
  8
0
 10
-17.6354
 20
-78.2747
 11
-17.6528
 21
-78.3567
  0
LINE
  8
0
 10
-17.6528
 20
-78.3567
 11
-17.6737
 21
-78.4378
  0
LINE
  8
0
 10
-17.6737
 20
-78.4378
 11
-17.6979
 21
-78.518
  0
LINE
  8
0
 10
-17.6979
 20
-78.518
 11
-17.7254
 21
-78.5971
  0
LINE
  8
0
 10
-17.7254
 20
-78.5971
 11
-17.7563
 21
-78.675
  0
LINE
  8
0
 10
-17.7563
 20
-78.675
 11
-17.7904
 21
-78.7516
  0
LINE
  8
0
 10
-17.7904
 20
-78.7516
 11
-17.8276
 21
-78.8266
  0
LINE
  8
0
 10
-17.8276
 20
-78.8266
 11
-17.868
 21
-78.9
  0
LINE
  8
0
 10
-17.868
 20
-78.9
 11
-17.9113
 21
-78.9716
  0
LINE
  8
0
 10
-17.9113
 20
-78.9716
 11
-17.9577
 21
-79.0414
  0
LINE
  8
0
 10
-17.9577
 20
-79.0414
 11
-18.0069
 21
-79.1092
  0
LINE
  8
0
 10
-18.0069
 20
-79.1092
 11
-18.059
 21
-79.1748
  0
LINE
  8
0
 10
-18.059
 20
-79.1748
 11
-18.1137
 21
-79.2383
  0
LINE
  8
0
 10
-18.1137
 20
-79.2383
 11
-18.1711
 21
-79.2993
  0
LINE
  8
0
 10
-18.1711
 20
-79.2993
 11
-18.2309
 21
-79.3579
  0
LINE
  8
0
 10
-18.2309
 20
-79.3579
 11
-18.2932
 21
-79.414
  0
LINE
  8
0
 10
-18.2932
 20
-79.414
 11
-18.3577
 21
-79.4674
  0
LINE
  8
0
 10
-18.3577
 20
-79.4674
 11
-18.4244
 21
-79.518
  0
LINE
  8
0
 10
-18.4244
 20
-79.518
 11
-18.4932
 21
-79.5658
  0
LINE
  8
0
 10
-18.4932
 20
-79.5658
 11
-18.5639
 21
-79.6107
  0
LINE
  8
0
 10
-18.5639
 20
-79.6107
 11
-18.6365
 21
-79.6526
  0
LINE
  8
0
 10
-18.6365
 20
-79.6526
 11
-18.7107
 21
-79.6914
  0
LINE
  8
0
 10
-18.7107
 20
-79.6914
 11
-18.7865
 21
-79.7271
  0
LINE
  8
0
 10
-18.7865
 20
-79.7271
 11
-18.8638
 21
-79.7596
  0
LINE
  8
0
 10
-18.8638
 20
-79.7596
 11
-18.9423
 21
-79.7887
  0
LINE
  8
0
 10
-18.9423
 20
-79.7887
 11
-19.0219
 21
-79.8146
  0
LINE
  8
0
 10
-19.0219
 20
-79.8146
 11
-19.1026
 21
-79.8372
  0
LINE
  8
0
 10
-19.1026
 20
-79.8372
 11
-19.1842
 21
-79.8563
  0
LINE
  8
0
 10
-19.1842
 20
-79.8563
 11
-19.2665
 21
-79.872
  0
LINE
  8
0
 10
-19.2665
 20
-79.872
 11
-19.3493
 21
-79.8842
  0
LINE
  8
0
 10
-19.3493
 20
-79.8842
 11
-19.4326
 21
-79.893
  0
LINE
  8
0
 10
-19.4326
 20
-79.893
 11
-19.5163
 21
-79.8982
  0
LINE
  8
0
 10
-19.5163
 20
-79.8982
 11
-19.6
 21
-79.9
  0
LINE
  8
0
 10
-19.6
 20
-79.9
 11
-19.6838
 21
-79.8982
  0
LINE
  8
0
 10
-19.6838
 20
-79.8982
 11
-19.7674
 21
-79.893
  0
LINE
  8
0
 10
-19.7674
 20
-79.893
 11
-19.8507
 21
-79.8842
  0
LINE
  8
0
 10
-19.8507
 20
-79.8842
 11
-19.9335
 21
-79.872
  0
LINE
  8
0
 10
-19.9335
 20
-79.872
 11
-20.0158
 21
-79.8563
  0
LINE
  8
0
 10
-20.0158
 20
-79.8563
 11
-20.0974
 21
-79.8372
  0
LINE
  8
0
 10
-20.0974
 20
-79.8372
 11
-20.1781
 21
-79.8146
  0
LINE
  8
0
 10
-20.1781
 20
-79.8146
 11
-20.2577
 21
-79.7887
  0
LINE
  8
0
 10
-20.2577
 20
-79.7887
 11
-20.3363
 21
-79.7596
  0
LINE
  8
0
 10
-20.3363
 20
-79.7596
 11
-20.4135
 21
-79.7271
  0
LINE
  8
0
 10
-20.4135
 20
-79.7271
 11
-20.4893
 21
-79.6914
  0
LINE
  8
0
 10
-20.4893
 20
-79.6914
 11
-20.5635
 21
-79.6526
  0
LINE
  8
0
 10
-20.5635
 20
-79.6526
 11
-20.6361
 21
-79.6107
  0
LINE
  8
0
 10
-20.6361
 20
-79.6107
 11
-20.7068
 21
-79.5658
  0
LINE
  8
0
 10
-20.7068
 20
-79.5658
 11
-20.7756
 21
-79.518
  0
LINE
  8
0
 10
-20.7756
 20
-79.518
 11
-20.8423
 21
-79.4674
  0
LINE
  8
0
 10
-20.8423
 20
-79.4674
 11
-20.9068
 21
-79.414
  0
LINE
  8
0
 10
-20.9068
 20
-79.414
 11
-20.9691
 21
-79.3579
  0
LINE
  8
0
 10
-20.9691
 20
-79.3579
 11
-21.0289
 21
-79.2993
  0
LINE
  8
0
 10
-21.0289
 20
-79.2993
 11
-21.0863
 21
-79.2383
  0
LINE
  8
0
 10
-21.0863
 20
-79.2383
 11
-21.141
 21
-79.1748
  0
LINE
  8
0
 10
-21.141
 20
-79.1748
 11
-21.1931
 21
-79.1092
  0
LINE
  8
0
 10
-21.1931
 20
-79.1092
 11
-21.2423
 21
-79.0414
  0
LINE
  8
0
 10
-21.2423
 20
-79.0414
 11
-21.2887
 21
-78.9716
  0
LINE
  8
0
 10
-21.2887
 20
-78.9716
 11
-21.3321
 21
-78.9
  0
LINE
  8
0
 10
-21.3321
 20
-78.9
 11
-21.3724
 21
-78.8266
  0
LINE
  8
0
 10
-21.3724
 20
-78.8266
 11
-21.4097
 21
-78.7516
  0
LINE
  8
0
 10
-21.4097
 20
-78.7516
 11
-21.4437
 21
-78.675
  0
LINE
  8
0
 10
-21.4437
 20
-78.675
 11
-21.4746
 21
-78.5971
  0
LINE
  8
0
 10
-21.4746
 20
-78.5971
 11
-21.5021
 21
-78.518
  0
LINE
  8
0
 10
-21.5021
 20
-78.518
 11
-21.5263
 21
-78.4378
  0
LINE
  8
0
 10
-21.5263
 20
-78.4378
 11
-21.5472
 21
-78.3567
  0
LINE
  8
0
 10
-21.5472
 20
-78.3567
 11
-21.5646
 21
-78.2747
  0
LINE
  8
0
 10
-21.5646
 20
-78.2747
 11
-21.5786
 21
-78.1922
  0
LINE
  8
0
 10
-21.5786
 20
-78.1922
 11
-21.5891
 21
-78.1091
  0
LINE
  8
0
 10
-21.5891
 20
-78.1091
 11
-21.5961
 21
-78.0256
  0
LINE
  8
0
 10
-21.5961
 20
-78.0256
 11
-21.5996
 21
-77.9419
  0
LINE
  8
0
 10
-21.5996
 20
-77.9419
 11
-21.5996
 21
-77.8581
  0
LINE
  8
0
 10
-21.5996
 20
-77.8581
 11
-21.5961
 21
-77.7744
  0
LINE
  8
0
 10
-21.5961
 20
-77.7744
 11
-21.5891
 21
-77.6909
  0
LINE
  8
0
 10
-21.5891
 20
-77.6909
 11
-21.5786
 21
-77.6078
  0
LINE
  8
0
 10
-21.5786
 20
-77.6078
 11
-21.5646
 21
-77.5252
  0
LINE
  8
0
 10
-21.5646
 20
-77.5252
 11
-21.5472
 21
-77.4433
  0
LINE
  8
0
 10
-21.5472
 20
-77.4433
 11
-21.5263
 21
-77.3622
  0
LINE
  8
0
 10
-21.5263
 20
-77.3622
 11
-21.5021
 21
-77.282
  0
LINE
  8
0
 10
-21.5021
 20
-77.282
 11
-21.4746
 21
-77.2029
  0
LINE
  8
0
 10
-21.4746
 20
-77.2029
 11
-21.4437
 21
-77.125
  0
LINE
  8
0
 10
-21.4437
 20
-77.125
 11
-21.4097
 21
-77.0484
  0
LINE
  8
0
 10
-21.4097
 20
-77.0484
 11
-21.3724
 21
-76.9734
  0
LINE
  8
0
 10
-21.3724
 20
-76.9734
 11
-21.3321
 21
-76.9
  0
LINE
  8
0
 10
-21.3321
 20
-76.9
 11
-21.2887
 21
-76.8283
  0
LINE
  8
0
 10
-21.2887
 20
-76.8283
 11
-21.2423
 21
-76.7586
  0
LINE
  8
0
 10
-21.2423
 20
-76.7586
 11
-21.1931
 21
-76.6908
  0
LINE
  8
0
 10
-21.1931
 20
-76.6908
 11
-21.141
 21
-76.6251
  0
LINE
  8
0
 10
-21.141
 20
-76.6251
 11
-21.0863
 21
-76.5617
  0
LINE
  8
0
 10
-21.0863
 20
-76.5617
 11
-21.0289
 21
-76.5007
  0
LINE
  8
0
 10
-21.0289
 20
-76.5007
 11
-20.9691
 21
-76.4421
  0
LINE
  8
0
 10
-20.9691
 20
-76.4421
 11
-20.9068
 21
-76.386
  0
LINE
  8
0
 10
-20.9068
 20
-76.386
 11
-20.8423
 21
-76.3326
  0
LINE
  8
0
 10
-20.8423
 20
-76.3326
 11
-20.7756
 21
-76.282
  0
LINE
  8
0
 10
-20.7756
 20
-76.282
 11
-20.7068
 21
-76.2341
  0
LINE
  8
0
 10
-20.7068
 20
-76.2341
 11
-20.6361
 21
-76.1893
  0
LINE
  8
0
 10
-20.6361
 20
-76.1893
 11
-20.5635
 21
-76.1474
  0
LINE
  8
0
 10
-20.5635
 20
-76.1474
 11
-20.4893
 21
-76.1086
  0
LINE
  8
0
 10
-20.4893
 20
-76.1086
 11
-20.4135
 21
-76.0729
  0
LINE
  8
0
 10
-20.4135
 20
-76.0729
 11
-20.3363
 21
-76.0404
  0
LINE
  8
0
 10
-20.3363
 20
-76.0404
 11
-20.2577
 21
-76.0112
  0
LINE
  8
0
 10
-20.2577
 20
-76.0112
 11
-20.1781
 21
-75.9854
  0
LINE
  8
0
 10
-20.1781
 20
-75.9854
 11
-20.0974
 21
-75.9628
  0
LINE
  8
0
 10
-20.0974
 20
-75.9628
 11
-20.0158
 21
-75.9437
  0
LINE
  8
0
 10
-20.0158
 20
-75.9437
 11
-19.9335
 21
-75.928
  0
LINE
  8
0
 10
-19.9335
 20
-75.928
 11
-19.8507
 21
-75.9158
  0
LINE
  8
0
 10
-19.8507
 20
-75.9158
 11
-19.7674
 21
-75.907
  0
LINE
  8
0
 10
-19.7674
 20
-75.907
 11
-19.6838
 21
-75.9017
  0
LINE
  8
0
 10
-19.6838
 20
-75.9017
 11
-19.6
 21
-75.9
  0
LINE
  8
0
 10
-19.6
 20
-75.9
 11
-19.5163
 21
-75.9017
  0
LINE
  8
0
 10
-19.5163
 20
-75.9017
 11
-19.4326
 21
-75.907
  0
LINE
  8
0
 10
-19.4326
 20
-75.907
 11
-19.3493
 21
-75.9158
  0
LINE
  8
0
 10
-19.3493
 20
-75.9158
 11
-19.2665
 21
-75.928
  0
LINE
  8
0
 10
-19.2665
 20
-75.928
 11
-19.1842
 21
-75.9437
  0
LINE
  8
0
 10
-19.1842
 20
-75.9437
 11
-19.1026
 21
-75.9628
  0
LINE
  8
0
 10
-19.1026
 20
-75.9628
 11
-19.0219
 21
-75.9854
  0
LINE
  8
0
 10
-19.0219
 20
-75.9854
 11
-18.9423
 21
-76.0112
  0
LINE
  8
0
 10
-18.9423
 20
-76.0112
 11
-18.8638
 21
-76.0404
  0
LINE
  8
0
 10
-18.8638
 20
-76.0404
 11
-18.7865
 21
-76.0729
  0
LINE
  8
0
 10
-18.7865
 20
-76.0729
 11
-18.7107
 21
-76.1086
  0
LINE
  8
0
 10
-18.7107
 20
-76.1086
 11
-18.6365
 21
-76.1474
  0
LINE
  8
0
 10
-18.6365
 20
-76.1474
 11
-18.5639
 21
-76.1893
  0
LINE
  8
0
 10
-18.5639
 20
-76.1893
 11
-18.4932
 21
-76.2341
  0
LINE
  8
0
 10
-18.4932
 20
-76.2341
 11
-18.4244
 21
-76.282
  0
LINE
  8
0
 10
-18.4244
 20
-76.282
 11
-18.3577
 21
-76.3326
  0
LINE
  8
0
 10
-18.3577
 20
-76.3326
 11
-18.2932
 21
-76.386
  0
LINE
  8
0
 10
-18.2932
 20
-76.386
 11
-18.2309
 21
-76.4421
  0
LINE
  8
0
 10
-18.2309
 20
-76.4421
 11
-18.1711
 21
-76.5007
  0
LINE
  8
0
 10
-18.1711
 20
-76.5007
 11
-18.1137
 21
-76.5617
  0
LINE
  8
0
 10
-18.1137
 20
-76.5617
 11
-18.059
 21
-76.6251
  0
LINE
  8
0
 10
-18.059
 20
-76.6251
 11
-18.0069
 21
-76.6908
  0
LINE
  8
0
 10
-18.0069
 20
-76.6908
 11
-17.9577
 21
-76.7586
  0
LINE
  8
0
 10
-17.9577
 20
-76.7586
 11
-17.9113
 21
-76.8283
  0
LINE
  8
0
 10
-17.9113
 20
-76.8283
 11
-17.868
 21
-76.9
  0
LINE
  8
0
 10
-17.868
 20
-76.9
 11
-17.8276
 21
-76.9734
  0
LINE
  8
0
 10
-17.8276
 20
-76.9734
 11
-17.7904
 21
-77.0484
  0
LINE
  8
0
 10
-17.7904
 20
-77.0484
 11
-17.7563
 21
-77.125
  0
LINE
  8
0
 10
-17.7563
 20
-77.125
 11
-17.7254
 21
-77.2029
  0
LINE
  8
0
 10
-17.7254
 20
-77.2029
 11
-17.6979
 21
-77.282
  0
LINE
  8
0
 10
-17.6979
 20
-77.282
 11
-17.6737
 21
-77.3622
  0
LINE
  8
0
 10
-17.6737
 20
-77.3622
 11
-17.6528
 21
-77.4433
  0
LINE
  8
0
 10
-17.6528
 20
-77.4433
 11
-17.6354
 21
-77.5252
  0
LINE
  8
0
 10
-17.6354
 20
-77.5252
 11
-17.6215
 21
-77.6078
  0
LINE
  8
0
 10
-17.6215
 20
-77.6078
 11
-17.611
 21
-77.6909
  0
LINE
  8
0
 10
-17.611
 20
-77.6909
 11
-17.604
 21
-77.7744
  0
LINE
  8
0
 10
-17.604
 20
-77.7744
 11
-17.6004
 21
-77.8581
  0
LINE
  8
0
 10
-17.6004
 20
-77.8581
 11
-17.6004
 21
-77.9419
  0
LINE
  8
0
 10
-17.6004
 20
77.8581
 11
-17.604
 21
77.7744
  0
LINE
  8
0
 10
-17.604
 20
77.7744
 11
-17.611
 21
77.6909
  0
LINE
  8
0
 10
-17.611
 20
77.6909
 11
-17.6215
 21
77.6078
  0
LINE
  8
0
 10
-17.6215
 20
77.6078
 11
-17.6354
 21
77.5252
  0
LINE
  8
0
 10
-17.6354
 20
77.5252
 11
-17.6528
 21
77.4433
  0
LINE
  8
0
 10
-17.6528
 20
77.4433
 11
-17.6737
 21
77.3622
  0
LINE
  8
0
 10
-17.6737
 20
77.3622
 11
-17.6979
 21
77.282
  0
LINE
  8
0
 10
-17.6979
 20
77.282
 11
-17.7254
 21
77.2029
  0
LINE
  8
0
 10
-17.7254
 20
77.2029
 11
-17.7563
 21
77.125
  0
LINE
  8
0
 10
-17.7563
 20
77.125
 11
-17.7904
 21
77.0484
  0
LINE
  8
0
 10
-17.7904
 20
77.0484
 11
-17.8276
 21
76.9734
  0
LINE
  8
0
 10
-17.8276
 20
76.9734
 11
-17.868
 21
76.9
  0
LINE
  8
0
 10
-17.868
 20
76.9
 11
-17.9113
 21
76.8283
  0
LINE
  8
0
 10
-17.9113
 20
76.8283
 11
-17.9577
 21
76.7586
  0
LINE
  8
0
 10
-17.9577
 20
76.7586
 11
-18.0069
 21
76.6908
  0
LINE
  8
0
 10
-18.0069
 20
76.6908
 11
-18.059
 21
76.6251
  0
LINE
  8
0
 10
-18.059
 20
76.6251
 11
-18.1137
 21
76.5617
  0
LINE
  8
0
 10
-18.1137
 20
76.5617
 11
-18.1711
 21
76.5007
  0
LINE
  8
0
 10
-18.1711
 20
76.5007
 11
-18.2309
 21
76.4421
  0
LINE
  8
0
 10
-18.2309
 20
76.4421
 11
-18.2932
 21
76.386
  0
LINE
  8
0
 10
-18.2932
 20
76.386
 11
-18.3577
 21
76.3326
  0
LINE
  8
0
 10
-18.3577
 20
76.3326
 11
-18.4244
 21
76.282
  0
LINE
  8
0
 10
-18.4244
 20
76.282
 11
-18.4932
 21
76.2341
  0
LINE
  8
0
 10
-18.4932
 20
76.2341
 11
-18.5639
 21
76.1893
  0
LINE
  8
0
 10
-18.5639
 20
76.1893
 11
-18.6365
 21
76.1474
  0
LINE
  8
0
 10
-18.6365
 20
76.1474
 11
-18.7107
 21
76.1086
  0
LINE
  8
0
 10
-18.7107
 20
76.1086
 11
-18.7865
 21
76.0729
  0
LINE
  8
0
 10
-18.7865
 20
76.0729
 11
-18.8638
 21
76.0404
  0
LINE
  8
0
 10
-18.8638
 20
76.0404
 11
-18.9423
 21
76.0112
  0
LINE
  8
0
 10
-18.9423
 20
76.0112
 11
-19.0219
 21
75.9854
  0
LINE
  8
0
 10
-19.0219
 20
75.9854
 11
-19.1026
 21
75.9628
  0
LINE
  8
0
 10
-19.1026
 20
75.9628
 11
-19.1842
 21
75.9437
  0
LINE
  8
0
 10
-19.1842
 20
75.9437
 11
-19.2665
 21
75.928
  0
LINE
  8
0
 10
-19.2665
 20
75.928
 11
-19.3493
 21
75.9158
  0
LINE
  8
0
 10
-19.3493
 20
75.9158
 11
-19.4326
 21
75.907
  0
LINE
  8
0
 10
-19.4326
 20
75.907
 11
-19.5163
 21
75.9017
  0
LINE
  8
0
 10
-19.5163
 20
75.9017
 11
-19.6
 21
75.9
  0
LINE
  8
0
 10
-19.6
 20
75.9
 11
-19.6838
 21
75.9017
  0
LINE
  8
0
 10
-19.6838
 20
75.9017
 11
-19.7674
 21
75.907
  0
LINE
  8
0
 10
-19.7674
 20
75.907
 11
-19.8507
 21
75.9158
  0
LINE
  8
0
 10
-19.8507
 20
75.9158
 11
-19.9335
 21
75.928
  0
LINE
  8
0
 10
-19.9335
 20
75.928
 11
-20.0158
 21
75.9437
  0
LINE
  8
0
 10
-20.0158
 20
75.9437
 11
-20.0974
 21
75.9628
  0
LINE
  8
0
 10
-20.0974
 20
75.9628
 11
-20.1781
 21
75.9854
  0
LINE
  8
0
 10
-20.1781
 20
75.9854
 11
-20.2577
 21
76.0112
  0
LINE
  8
0
 10
-20.2577
 20
76.0112
 11
-20.3363
 21
76.0404
  0
LINE
  8
0
 10
-20.3363
 20
76.0404
 11
-20.4135
 21
76.0729
  0
LINE
  8
0
 10
-20.4135
 20
76.0729
 11
-20.4893
 21
76.1086
  0
LINE
  8
0
 10
-20.4893
 20
76.1086
 11
-20.5635
 21
76.1474
  0
LINE
  8
0
 10
-20.5635
 20
76.1474
 11
-20.6361
 21
76.1893
  0
LINE
  8
0
 10
-20.6361
 20
76.1893
 11
-20.7068
 21
76.2341
  0
LINE
  8
0
 10
-20.7068
 20
76.2341
 11
-20.7756
 21
76.282
  0
LINE
  8
0
 10
-20.7756
 20
76.282
 11
-20.8423
 21
76.3326
  0
LINE
  8
0
 10
-20.8423
 20
76.3326
 11
-20.9068
 21
76.386
  0
LINE
  8
0
 10
-20.9068
 20
76.386
 11
-20.9691
 21
76.4421
  0
LINE
  8
0
 10
-20.9691
 20
76.4421
 11
-21.0289
 21
76.5007
  0
LINE
  8
0
 10
-21.0289
 20
76.5007
 11
-21.0863
 21
76.5617
  0
LINE
  8
0
 10
-21.0863
 20
76.5617
 11
-21.141
 21
76.6251
  0
LINE
  8
0
 10
-21.141
 20
76.6251
 11
-21.1931
 21
76.6908
  0
LINE
  8
0
 10
-21.1931
 20
76.6908
 11
-21.2423
 21
76.7586
  0
LINE
  8
0
 10
-21.2423
 20
76.7586
 11
-21.2887
 21
76.8283
  0
LINE
  8
0
 10
-21.2887
 20
76.8283
 11
-21.3321
 21
76.9
  0
LINE
  8
0
 10
-21.3321
 20
76.9
 11
-21.3724
 21
76.9734
  0
LINE
  8
0
 10
-21.3724
 20
76.9734
 11
-21.4097
 21
77.0484
  0
LINE
  8
0
 10
-21.4097
 20
77.0484
 11
-21.4437
 21
77.125
  0
LINE
  8
0
 10
-21.4437
 20
77.125
 11
-21.4746
 21
77.2029
  0
LINE
  8
0
 10
-21.4746
 20
77.2029
 11
-21.5021
 21
77.282
  0
LINE
  8
0
 10
-21.5021
 20
77.282
 11
-21.5263
 21
77.3622
  0
LINE
  8
0
 10
-21.5263
 20
77.3622
 11
-21.5472
 21
77.4433
  0
LINE
  8
0
 10
-21.5472
 20
77.4433
 11
-21.5646
 21
77.5252
  0
LINE
  8
0
 10
-21.5646
 20
77.5252
 11
-21.5786
 21
77.6078
  0
LINE
  8
0
 10
-21.5786
 20
77.6078
 11
-21.5891
 21
77.6909
  0
LINE
  8
0
 10
-21.5891
 20
77.6909
 11
-21.5961
 21
77.7744
  0
LINE
  8
0
 10
-21.5961
 20
77.7744
 11
-21.5996
 21
77.8581
  0
LINE
  8
0
 10
-21.5996
 20
77.8581
 11
-21.5996
 21
77.9419
  0
LINE
  8
0
 10
-21.5996
 20
77.9419
 11
-21.5961
 21
78.0256
  0
LINE
  8
0
 10
-21.5961
 20
78.0256
 11
-21.5891
 21
78.1091
  0
LINE
  8
0
 10
-21.5891
 20
78.1091
 11
-21.5786
 21
78.1922
  0
LINE
  8
0
 10
-21.5786
 20
78.1922
 11
-21.5646
 21
78.2747
  0
LINE
  8
0
 10
-21.5646
 20
78.2747
 11
-21.5472
 21
78.3567
  0
LINE
  8
0
 10
-21.5472
 20
78.3567
 11
-21.5263
 21
78.4378
  0
LINE
  8
0
 10
-21.5263
 20
78.4378
 11
-21.5021
 21
78.518
  0
LINE
  8
0
 10
-21.5021
 20
78.518
 11
-21.4746
 21
78.5971
  0
LINE
  8
0
 10
-21.4746
 20
78.5971
 11
-21.4437
 21
78.675
  0
LINE
  8
0
 10
-21.4437
 20
78.675
 11
-21.4097
 21
78.7516
  0
LINE
  8
0
 10
-21.4097
 20
78.7516
 11
-21.3724
 21
78.8266
  0
LINE
  8
0
 10
-21.3724
 20
78.8266
 11
-21.3321
 21
78.9
  0
LINE
  8
0
 10
-21.3321
 20
78.9
 11
-21.2887
 21
78.9716
  0
LINE
  8
0
 10
-21.2887
 20
78.9716
 11
-21.2423
 21
79.0414
  0
LINE
  8
0
 10
-21.2423
 20
79.0414
 11
-21.1931
 21
79.1092
  0
LINE
  8
0
 10
-21.1931
 20
79.1092
 11
-21.141
 21
79.1748
  0
LINE
  8
0
 10
-21.141
 20
79.1748
 11
-21.0863
 21
79.2383
  0
LINE
  8
0
 10
-21.0863
 20
79.2383
 11
-21.0289
 21
79.2993
  0
LINE
  8
0
 10
-21.0289
 20
79.2993
 11
-20.9691
 21
79.3579
  0
LINE
  8
0
 10
-20.9691
 20
79.3579
 11
-20.9068
 21
79.414
  0
LINE
  8
0
 10
-20.9068
 20
79.414
 11
-20.8423
 21
79.4674
  0
LINE
  8
0
 10
-20.8423
 20
79.4674
 11
-20.7756
 21
79.518
  0
LINE
  8
0
 10
-20.7756
 20
79.518
 11
-20.7068
 21
79.5658
  0
LINE
  8
0
 10
-20.7068
 20
79.5658
 11
-20.6361
 21
79.6107
  0
LINE
  8
0
 10
-20.6361
 20
79.6107
 11
-20.5635
 21
79.6526
  0
LINE
  8
0
 10
-20.5635
 20
79.6526
 11
-20.4893
 21
79.6914
  0
LINE
  8
0
 10
-20.4893
 20
79.6914
 11
-20.4135
 21
79.7271
  0
LINE
  8
0
 10
-20.4135
 20
79.7271
 11
-20.3363
 21
79.7596
  0
LINE
  8
0
 10
-20.3363
 20
79.7596
 11
-20.2577
 21
79.7887
  0
LINE
  8
0
 10
-20.2577
 20
79.7887
 11
-20.1781
 21
79.8146
  0
LINE
  8
0
 10
-20.1781
 20
79.8146
 11
-20.0974
 21
79.8372
  0
LINE
  8
0
 10
-20.0974
 20
79.8372
 11
-20.0158
 21
79.8563
  0
LINE
  8
0
 10
-20.0158
 20
79.8563
 11
-19.9335
 21
79.872
  0
LINE
  8
0
 10
-19.9335
 20
79.872
 11
-19.8507
 21
79.8842
  0
LINE
  8
0
 10
-19.8507
 20
79.8842
 11
-19.7674
 21
79.893
  0
LINE
  8
0
 10
-19.7674
 20
79.893
 11
-19.6838
 21
79.8982
  0
LINE
  8
0
 10
-19.6838
 20
79.8982
 11
-19.6
 21
79.9
  0
LINE
  8
0
 10
-19.6
 20
79.9
 11
-19.5163
 21
79.8982
  0
LINE
  8
0
 10
-19.5163
 20
79.8982
 11
-19.4326
 21
79.893
  0
LINE
  8
0
 10
-19.4326
 20
79.893
 11
-19.3493
 21
79.8842
  0
LINE
  8
0
 10
-19.3493
 20
79.8842
 11
-19.2665
 21
79.872
  0
LINE
  8
0
 10
-19.2665
 20
79.872
 11
-19.1842
 21
79.8563
  0
LINE
  8
0
 10
-19.1842
 20
79.8563
 11
-19.1026
 21
79.8372
  0
LINE
  8
0
 10
-19.1026
 20
79.8372
 11
-19.0219
 21
79.8146
  0
LINE
  8
0
 10
-19.0219
 20
79.8146
 11
-18.9423
 21
79.7887
  0
LINE
  8
0
 10
-18.9423
 20
79.7887
 11
-18.8638
 21
79.7596
  0
LINE
  8
0
 10
-18.8638
 20
79.7596
 11
-18.7865
 21
79.7271
  0
LINE
  8
0
 10
-18.7865
 20
79.7271
 11
-18.7107
 21
79.6914
  0
LINE
  8
0
 10
-18.7107
 20
79.6914
 11
-18.6365
 21
79.6526
  0
LINE
  8
0
 10
-18.6365
 20
79.6526
 11
-18.5639
 21
79.6107
  0
LINE
  8
0
 10
-18.5639
 20
79.6107
 11
-18.4932
 21
79.5658
  0
LINE
  8
0
 10
-18.4932
 20
79.5658
 11
-18.4244
 21
79.518
  0
LINE
  8
0
 10
-18.4244
 20
79.518
 11
-18.3577
 21
79.4674
  0
LINE
  8
0
 10
-18.3577
 20
79.4674
 11
-18.2932
 21
79.414
  0
LINE
  8
0
 10
-18.2932
 20
79.414
 11
-18.2309
 21
79.3579
  0
LINE
  8
0
 10
-18.2309
 20
79.3579
 11
-18.1711
 21
79.2993
  0
LINE
  8
0
 10
-18.1711
 20
79.2993
 11
-18.1137
 21
79.2383
  0
LINE
  8
0
 10
-18.1137
 20
79.2383
 11
-18.059
 21
79.1748
  0
LINE
  8
0
 10
-18.059
 20
79.1748
 11
-18.0069
 21
79.1092
  0
LINE
  8
0
 10
-18.0069
 20
79.1092
 11
-17.9577
 21
79.0414
  0
LINE
  8
0
 10
-17.9577
 20
79.0414
 11
-17.9113
 21
78.9716
  0
LINE
  8
0
 10
-17.9113
 20
78.9716
 11
-17.868
 21
78.9
  0
LINE
  8
0
 10
-17.868
 20
78.9
 11
-17.8276
 21
78.8266
  0
LINE
  8
0
 10
-17.8276
 20
78.8266
 11
-17.7904
 21
78.7516
  0
LINE
  8
0
 10
-17.7904
 20
78.7516
 11
-17.7563
 21
78.675
  0
LINE
  8
0
 10
-17.7563
 20
78.675
 11
-17.7254
 21
78.5971
  0
LINE
  8
0
 10
-17.7254
 20
78.5971
 11
-17.6979
 21
78.518
  0
LINE
  8
0
 10
-17.6979
 20
78.518
 11
-17.6737
 21
78.4378
  0
LINE
  8
0
 10
-17.6737
 20
78.4378
 11
-17.6528
 21
78.3567
  0
LINE
  8
0
 10
-17.6528
 20
78.3567
 11
-17.6354
 21
78.2747
  0
LINE
  8
0
 10
-17.6354
 20
78.2747
 11
-17.6215
 21
78.1922
  0
LINE
  8
0
 10
-17.6215
 20
78.1922
 11
-17.611
 21
78.1091
  0
LINE
  8
0
 10
-17.611
 20
78.1091
 11
-17.604
 21
78.0256
  0
LINE
  8
0
 10
-17.604
 20
78.0256
 11
-17.6004
 21
77.9419
  0
LINE
  8
0
 10
-17.6004
 20
77.9419
 11
-17.6004
 21
77.8581
  0
LINE
  8
0
 10
-14.4004
 20
-46.7377
 11
-14.4036
 21
-46.813
  0
LINE
  8
0
 10
-14.4036
 20
-46.813
 11
-14.4099
 21
-46.8881
  0
LINE
  8
0
 10
-14.4099
 20
-46.8881
 11
-14.4193
 21
-46.9629
  0
LINE
  8
0
 10
-14.4193
 20
-46.9629
 11
-14.4319
 21
-47.0373
  0
LINE
  8
0
 10
-14.4319
 20
-47.0373
 11
-14.4476
 21
-47.111
  0
LINE
  8
0
 10
-14.4476
 20
-47.111
 11
-14.4663
 21
-47.1841
  0
LINE
  8
0
 10
-14.4663
 20
-47.1841
 11
-14.4881
 21
-47.2562
  0
LINE
  8
0
 10
-14.4881
 20
-47.2562
 11
-14.5129
 21
-47.3274
  0
LINE
  8
0
 10
-14.5129
 20
-47.3274
 11
-14.5406
 21
-47.3975
  0
LINE
  8
0
 10
-14.5406
 20
-47.3975
 11
-14.5713
 21
-47.4664
  0
LINE
  8
0
 10
-14.5713
 20
-47.4664
 11
-14.6048
 21
-47.5339
  0
LINE
  8
0
 10
-14.6048
 20
-47.5339
 11
-14.6412
 21
-47.6
  0
LINE
  8
0
 10
-14.6412
 20
-47.6
 11
-14.6802
 21
-47.6645
  0
LINE
  8
0
 10
-14.6802
 20
-47.6645
 11
-14.7219
 21
-47.7273
  0
LINE
  8
0
 10
-14.7219
 20
-47.7273
 11
-14.7663
 21
-47.7883
  0
LINE
  8
0
 10
-14.7663
 20
-47.7883
 11
-14.8131
 21
-47.8474
  0
LINE
  8
0
 10
-14.8131
 20
-47.8474
 11
-14.8624
 21
-47.9044
  0
LINE
  8
0
 10
-14.8624
 20
-47.9044
 11
-14.914
 21
-47.9594
  0
LINE
  8
0
 10
-14.914
 20
-47.9594
 11
-14.9678
 21
-48.0121
  0
LINE
  8
0
 10
-14.9678
 20
-48.0121
 11
-15.0238
 21
-48.0626
  0
LINE
  8
0
 10
-15.0238
 20
-48.0626
 11
-15.0819
 21
-48.1106
  0
LINE
  8
0
 10
-15.0819
 20
-48.1106
 11
-15.142
 21
-48.1562
  0
LINE
  8
0
 10
-15.142
 20
-48.1562
 11
-15.2039
 21
-48.1992
  0
LINE
  8
0
 10
-15.2039
 20
-48.1992
 11
-15.2676
 21
-48.2397
  0
LINE
  8
0
 10
-15.2676
 20
-48.2397
 11
-15.3329
 21
-48.2773
  0
LINE
  8
0
 10
-15.3329
 20
-48.2773
 11
-15.3997
 21
-48.3123
  0
LINE
  8
0
 10
-15.3997
 20
-48.3123
 11
-15.4679
 21
-48.3444
  0
LINE
  8
0
 10
-15.4679
 20
-48.3444
 11
-15.5374
 21
-48.3736
  0
LINE
  8
0
 10
-15.5374
 20
-48.3736
 11
-15.608
 21
-48.3999
  0
LINE
  8
0
 10
-15.608
 20
-48.3999
 11
-15.6797
 21
-48.4232
  0
LINE
  8
0
 10
-15.6797
 20
-48.4232
 11
-15.7524
 21
-48.4434
  0
LINE
  8
0
 10
-15.7524
 20
-48.4434
 11
-15.8258
 21
-48.4607
  0
LINE
  8
0
 10
-15.8258
 20
-48.4607
 11
-15.8998
 21
-48.4748
  0
LINE
  8
0
 10
-15.8998
 20
-48.4748
 11
-15.9744
 21
-48.4858
  0
LINE
  8
0
 10
-15.9744
 20
-48.4858
 11
-16.0494
 21
-48.4937
  0
LINE
  8
0
 10
-16.0494
 20
-48.4937
 11
-16.1246
 21
-48.4984
  0
LINE
  8
0
 10
-16.1246
 20
-48.4984
 11
-16.2
 21
-48.5
  0
LINE
  8
0
 10
-16.2
 20
-48.5
 11
-16.2754
 21
-48.4984
  0
LINE
  8
0
 10
-16.2754
 20
-48.4984
 11
-16.3506
 21
-48.4937
  0
LINE
  8
0
 10
-16.3506
 20
-48.4937
 11
-16.4256
 21
-48.4858
  0
LINE
  8
0
 10
-16.4256
 20
-48.4858
 11
-16.5002
 21
-48.4748
  0
LINE
  8
0
 10
-16.5002
 20
-48.4748
 11
-16.5742
 21
-48.4607
  0
LINE
  8
0
 10
-16.5742
 20
-48.4607
 11
-16.6476
 21
-48.4434
  0
LINE
  8
0
 10
-16.6476
 20
-48.4434
 11
-16.7203
 21
-48.4232
  0
LINE
  8
0
 10
-16.7203
 20
-48.4232
 11
-16.792
 21
-48.3999
  0
LINE
  8
0
 10
-16.792
 20
-48.3999
 11
-16.8626
 21
-48.3736
  0
LINE
  8
0
 10
-16.8626
 20
-48.3736
 11
-16.9321
 21
-48.3444
  0
LINE
  8
0
 10
-16.9321
 20
-48.3444
 11
-17.0004
 21
-48.3123
  0
LINE
  8
0
 10
-17.0004
 20
-48.3123
 11
-17.0672
 21
-48.2773
  0
LINE
  8
0
 10
-17.0672
 20
-48.2773
 11
-17.1325
 21
-48.2397
  0
LINE
  8
0
 10
-17.1325
 20
-48.2397
 11
-17.1961
 21
-48.1992
  0
LINE
  8
0
 10
-17.1961
 20
-48.1992
 11
-17.258
 21
-48.1562
  0
LINE
  8
0
 10
-17.258
 20
-48.1562
 11
-17.3181
 21
-48.1106
  0
LINE
  8
0
 10
-17.3181
 20
-48.1106
 11
-17.3762
 21
-48.0626
  0
LINE
  8
0
 10
-17.3762
 20
-48.0626
 11
-17.4322
 21
-48.0121
  0
LINE
  8
0
 10
-17.4322
 20
-48.0121
 11
-17.4861
 21
-47.9594
  0
LINE
  8
0
 10
-17.4861
 20
-47.9594
 11
-17.5377
 21
-47.9044
  0
LINE
  8
0
 10
-17.5377
 20
-47.9044
 11
-17.5869
 21
-47.8474
  0
LINE
  8
0
 10
-17.5869
 20
-47.8474
 11
-17.6338
 21
-47.7883
  0
LINE
  8
0
 10
-17.6338
 20
-47.7883
 11
-17.6781
 21
-47.7273
  0
LINE
  8
0
 10
-17.6781
 20
-47.7273
 11
-17.7198
 21
-47.6645
  0
LINE
  8
0
 10
-17.7198
 20
-47.6645
 11
-17.7589
 21
-47.6
  0
LINE
  8
0
 10
-17.7589
 20
-47.6
 11
-17.7952
 21
-47.5339
  0
LINE
  8
0
 10
-17.7952
 20
-47.5339
 11
-17.8287
 21
-47.4664
  0
LINE
  8
0
 10
-17.8287
 20
-47.4664
 11
-17.8594
 21
-47.3975
  0
LINE
  8
0
 10
-17.8594
 20
-47.3975
 11
-17.8871
 21
-47.3274
  0
LINE
  8
0
 10
-17.8871
 20
-47.3274
 11
-17.9119
 21
-47.2562
  0
LINE
  8
0
 10
-17.9119
 20
-47.2562
 11
-17.9337
 21
-47.1841
  0
LINE
  8
0
 10
-17.9337
 20
-47.1841
 11
-17.9525
 21
-47.111
  0
LINE
  8
0
 10
-17.9525
 20
-47.111
 11
-17.9681
 21
-47.0373
  0
LINE
  8
0
 10
-17.9681
 20
-47.0373
 11
-17.9807
 21
-46.9629
  0
LINE
  8
0
 10
-17.9807
 20
-46.9629
 11
-17.9901
 21
-46.8881
  0
LINE
  8
0
 10
-17.9901
 20
-46.8881
 11
-17.9965
 21
-46.813
  0
LINE
  8
0
 10
-17.9965
 20
-46.813
 11
-17.9996
 21
-46.7377
  0
LINE
  8
0
 10
-17.9996
 20
-46.7377
 11
-17.9996
 21
-46.6623
  0
LINE
  8
0
 10
-17.9996
 20
-46.6623
 11
-17.9965
 21
-46.587
  0
LINE
  8
0
 10
-17.9965
 20
-46.587
 11
-17.9901
 21
-46.5118
  0
LINE
  8
0
 10
-17.9901
 20
-46.5118
 11
-17.9807
 21
-46.437
  0
LINE
  8
0
 10
-17.9807
 20
-46.437
 11
-17.9681
 21
-46.3627
  0
LINE
  8
0
 10
-17.9681
 20
-46.3627
 11
-17.9525
 21
-46.289
  0
LINE
  8
0
 10
-17.9525
 20
-46.289
 11
-17.9337
 21
-46.2159
  0
LINE
  8
0
 10
-17.9337
 20
-46.2159
 11
-17.9119
 21
-46.1438
  0
LINE
  8
0
 10
-17.9119
 20
-46.1438
 11
-17.8871
 21
-46.0726
  0
LINE
  8
0
 10
-17.8871
 20
-46.0726
 11
-17.8594
 21
-46.0025
  0
LINE
  8
0
 10
-17.8594
 20
-46.0025
 11
-17.8287
 21
-45.9336
  0
LINE
  8
0
 10
-17.8287
 20
-45.9336
 11
-17.7952
 21
-45.8661
  0
LINE
  8
0
 10
-17.7952
 20
-45.8661
 11
-17.7589
 21
-45.8
  0
LINE
  8
0
 10
-17.7589
 20
-45.8
 11
-17.7198
 21
-45.7355
  0
LINE
  8
0
 10
-17.7198
 20
-45.7355
 11
-17.6781
 21
-45.6727
  0
LINE
  8
0
 10
-17.6781
 20
-45.6727
 11
-17.6338
 21
-45.6117
  0
LINE
  8
0
 10
-17.6338
 20
-45.6117
 11
-17.5869
 21
-45.5526
  0
LINE
  8
0
 10
-17.5869
 20
-45.5526
 11
-17.5377
 21
-45.4956
  0
LINE
  8
0
 10
-17.5377
 20
-45.4956
 11
-17.4861
 21
-45.4406
  0
LINE
  8
0
 10
-17.4861
 20
-45.4406
 11
-17.4322
 21
-45.3878
  0
LINE
  8
0
 10
-17.4322
 20
-45.3878
 11
-17.3762
 21
-45.3374
  0
LINE
  8
0
 10
-17.3762
 20
-45.3374
 11
-17.3181
 21
-45.2893
  0
LINE
  8
0
 10
-17.3181
 20
-45.2893
 11
-17.258
 21
-45.2438
  0
LINE
  8
0
 10
-17.258
 20
-45.2438
 11
-17.1961
 21
-45.2007
  0
LINE
  8
0
 10
-17.1961
 20
-45.2007
 11
-17.1325
 21
-45.1603
  0
LINE
  8
0
 10
-17.1325
 20
-45.1603
 11
-17.0672
 21
-45.1226
  0
LINE
  8
0
 10
-17.0672
 20
-45.1226
 11
-17.0004
 21
-45.0877
  0
LINE
  8
0
 10
-17.0004
 20
-45.0877
 11
-16.9321
 21
-45.0556
  0
LINE
  8
0
 10
-16.9321
 20
-45.0556
 11
-16.8626
 21
-45.0264
  0
LINE
  8
0
 10
-16.8626
 20
-45.0264
 11
-16.792
 21
-45.0001
  0
LINE
  8
0
 10
-16.792
 20
-45.0001
 11
-16.7203
 21
-44.9768
  0
LINE
  8
0
 10
-16.7203
 20
-44.9768
 11
-16.6476
 21
-44.9565
  0
LINE
  8
0
 10
-16.6476
 20
-44.9565
 11
-16.5742
 21
-44.9393
  0
LINE
  8
0
 10
-16.5742
 20
-44.9393
 11
-16.5002
 21
-44.9252
  0
LINE
  8
0
 10
-16.5002
 20
-44.9252
 11
-16.4256
 21
-44.9142
  0
LINE
  8
0
 10
-16.4256
 20
-44.9142
 11
-16.3506
 21
-44.9063
  0
LINE
  8
0
 10
-16.3506
 20
-44.9063
 11
-16.2754
 21
-44.9016
  0
LINE
  8
0
 10
-16.2754
 20
-44.9016
 11
-16.2
 21
-44.9
  0
LINE
  8
0
 10
-16.2
 20
-44.9
 11
-16.1246
 21
-44.9016
  0
LINE
  8
0
 10
-16.1246
 20
-44.9016
 11
-16.0494
 21
-44.9063
  0
LINE
  8
0
 10
-16.0494
 20
-44.9063
 11
-15.9744
 21
-44.9142
  0
LINE
  8
0
 10
-15.9744
 20
-44.9142
 11
-15.8998
 21
-44.9252
  0
LINE
  8
0
 10
-15.8998
 20
-44.9252
 11
-15.8258
 21
-44.9393
  0
LINE
  8
0
 10
-15.8258
 20
-44.9393
 11
-15.7524
 21
-44.9565
  0
LINE
  8
0
 10
-15.7524
 20
-44.9565
 11
-15.6797
 21
-44.9768
  0
LINE
  8
0
 10
-15.6797
 20
-44.9768
 11
-15.608
 21
-45.0001
  0
LINE
  8
0
 10
-15.608
 20
-45.0001
 11
-15.5374
 21
-45.0264
  0
LINE
  8
0
 10
-15.5374
 20
-45.0264
 11
-15.4679
 21
-45.0556
  0
LINE
  8
0
 10
-15.4679
 20
-45.0556
 11
-15.3997
 21
-45.0877
  0
LINE
  8
0
 10
-15.3997
 20
-45.0877
 11
-15.3329
 21
-45.1226
  0
LINE
  8
0
 10
-15.3329
 20
-45.1226
 11
-15.2676
 21
-45.1603
  0
LINE
  8
0
 10
-15.2676
 20
-45.1603
 11
-15.2039
 21
-45.2007
  0
LINE
  8
0
 10
-15.2039
 20
-45.2007
 11
-15.142
 21
-45.2438
  0
LINE
  8
0
 10
-15.142
 20
-45.2438
 11
-15.0819
 21
-45.2893
  0
LINE
  8
0
 10
-15.0819
 20
-45.2893
 11
-15.0238
 21
-45.3374
  0
LINE
  8
0
 10
-15.0238
 20
-45.3374
 11
-14.9678
 21
-45.3878
  0
LINE
  8
0
 10
-14.9678
 20
-45.3878
 11
-14.914
 21
-45.4406
  0
LINE
  8
0
 10
-14.914
 20
-45.4406
 11
-14.8624
 21
-45.4956
  0
LINE
  8
0
 10
-14.8624
 20
-45.4956
 11
-14.8131
 21
-45.5526
  0
LINE
  8
0
 10
-14.8131
 20
-45.5526
 11
-14.7663
 21
-45.6117
  0
LINE
  8
0
 10
-14.7663
 20
-45.6117
 11
-14.7219
 21
-45.6727
  0
LINE
  8
0
 10
-14.7219
 20
-45.6727
 11
-14.6802
 21
-45.7355
  0
LINE
  8
0
 10
-14.6802
 20
-45.7355
 11
-14.6412
 21
-45.8
  0
LINE
  8
0
 10
-14.6412
 20
-45.8
 11
-14.6048
 21
-45.8661
  0
LINE
  8
0
 10
-14.6048
 20
-45.8661
 11
-14.5713
 21
-45.9336
  0
LINE
  8
0
 10
-14.5713
 20
-45.9336
 11
-14.5406
 21
-46.0025
  0
LINE
  8
0
 10
-14.5406
 20
-46.0025
 11
-14.5129
 21
-46.0726
  0
LINE
  8
0
 10
-14.5129
 20
-46.0726
 11
-14.4881
 21
-46.1438
  0
LINE
  8
0
 10
-14.4881
 20
-46.1438
 11
-14.4663
 21
-46.2159
  0
LINE
  8
0
 10
-14.4663
 20
-46.2159
 11
-14.4476
 21
-46.289
  0
LINE
  8
0
 10
-14.4476
 20
-46.289
 11
-14.4319
 21
-46.3627
  0
LINE
  8
0
 10
-14.4319
 20
-46.3627
 11
-14.4193
 21
-46.437
  0
LINE
  8
0
 10
-14.4193
 20
-46.437
 11
-14.4099
 21
-46.5118
  0
LINE
  8
0
 10
-14.4099
 20
-46.5118
 11
-14.4036
 21
-46.587
  0
LINE
  8
0
 10
-14.4036
 20
-46.587
 11
-14.4004
 21
-46.6623
  0
LINE
  8
0
 10
-14.4004
 20
-46.6623
 11
-14.4004
 21
-46.7377
  0
LINE
  8
0
 10
-14.4004
 20
46.6623
 11
-14.4036
 21
46.587
  0
LINE
  8
0
 10
-14.4036
 20
46.587
 11
-14.4099
 21
46.5118
  0
LINE
  8
0
 10
-14.4099
 20
46.5118
 11
-14.4193
 21
46.437
  0
LINE
  8
0
 10
-14.4193
 20
46.437
 11
-14.4319
 21
46.3627
  0
LINE
  8
0
 10
-14.4319
 20
46.3627
 11
-14.4476
 21
46.289
  0
LINE
  8
0
 10
-14.4476
 20
46.289
 11
-14.4663
 21
46.2159
  0
LINE
  8
0
 10
-14.4663
 20
46.2159
 11
-14.4881
 21
46.1438
  0
LINE
  8
0
 10
-14.4881
 20
46.1438
 11
-14.5129
 21
46.0726
  0
LINE
  8
0
 10
-14.5129
 20
46.0726
 11
-14.5406
 21
46.0025
  0
LINE
  8
0
 10
-14.5406
 20
46.0025
 11
-14.5713
 21
45.9336
  0
LINE
  8
0
 10
-14.5713
 20
45.9336
 11
-14.6048
 21
45.8661
  0
LINE
  8
0
 10
-14.6048
 20
45.8661
 11
-14.6412
 21
45.8
  0
LINE
  8
0
 10
-14.6412
 20
45.8
 11
-14.6802
 21
45.7355
  0
LINE
  8
0
 10
-14.6802
 20
45.7355
 11
-14.7219
 21
45.6727
  0
LINE
  8
0
 10
-14.7219
 20
45.6727
 11
-14.7663
 21
45.6117
  0
LINE
  8
0
 10
-14.7663
 20
45.6117
 11
-14.8131
 21
45.5526
  0
LINE
  8
0
 10
-14.8131
 20
45.5526
 11
-14.8624
 21
45.4956
  0
LINE
  8
0
 10
-14.8624
 20
45.4956
 11
-14.914
 21
45.4406
  0
LINE
  8
0
 10
-14.914
 20
45.4406
 11
-14.9678
 21
45.3878
  0
LINE
  8
0
 10
-14.9678
 20
45.3878
 11
-15.0238
 21
45.3374
  0
LINE
  8
0
 10
-15.0238
 20
45.3374
 11
-15.0819
 21
45.2893
  0
LINE
  8
0
 10
-15.0819
 20
45.2893
 11
-15.142
 21
45.2438
  0
LINE
  8
0
 10
-15.142
 20
45.2438
 11
-15.2039
 21
45.2007
  0
LINE
  8
0
 10
-15.2039
 20
45.2007
 11
-15.2676
 21
45.1603
  0
LINE
  8
0
 10
-15.2676
 20
45.1603
 11
-15.3329
 21
45.1226
  0
LINE
  8
0
 10
-15.3329
 20
45.1226
 11
-15.3997
 21
45.0877
  0
LINE
  8
0
 10
-15.3997
 20
45.0877
 11
-15.4679
 21
45.0556
  0
LINE
  8
0
 10
-15.4679
 20
45.0556
 11
-15.5374
 21
45.0264
  0
LINE
  8
0
 10
-15.5374
 20
45.0264
 11
-15.608
 21
45.0001
  0
LINE
  8
0
 10
-15.608
 20
45.0001
 11
-15.6797
 21
44.9768
  0
LINE
  8
0
 10
-15.6797
 20
44.9768
 11
-15.7524
 21
44.9565
  0
LINE
  8
0
 10
-15.7524
 20
44.9565
 11
-15.8258
 21
44.9393
  0
LINE
  8
0
 10
-15.8258
 20
44.9393
 11
-15.8998
 21
44.9252
  0
LINE
  8
0
 10
-15.8998
 20
44.9252
 11
-15.9744
 21
44.9142
  0
LINE
  8
0
 10
-15.9744
 20
44.9142
 11
-16.0494
 21
44.9063
  0
LINE
  8
0
 10
-16.0494
 20
44.9063
 11
-16.1246
 21
44.9016
  0
LINE
  8
0
 10
-16.1246
 20
44.9016
 11
-16.2
 21
44.9
  0
LINE
  8
0
 10
-16.2
 20
44.9
 11
-16.2754
 21
44.9016
  0
LINE
  8
0
 10
-16.2754
 20
44.9016
 11
-16.3506
 21
44.9063
  0
LINE
  8
0
 10
-16.3506
 20
44.9063
 11
-16.4256
 21
44.9142
  0
LINE
  8
0
 10
-16.4256
 20
44.9142
 11
-16.5002
 21
44.9252
  0
LINE
  8
0
 10
-16.5002
 20
44.9252
 11
-16.5742
 21
44.9393
  0
LINE
  8
0
 10
-16.5742
 20
44.9393
 11
-16.6476
 21
44.9565
  0
LINE
  8
0
 10
-16.6476
 20
44.9565
 11
-16.7203
 21
44.9768
  0
LINE
  8
0
 10
-16.7203
 20
44.9768
 11
-16.792
 21
45.0001
  0
LINE
  8
0
 10
-16.792
 20
45.0001
 11
-16.8626
 21
45.0264
  0
LINE
  8
0
 10
-16.8626
 20
45.0264
 11
-16.9321
 21
45.0556
  0
LINE
  8
0
 10
-16.9321
 20
45.0556
 11
-17.0004
 21
45.0877
  0
LINE
  8
0
 10
-17.0004
 20
45.0877
 11
-17.0672
 21
45.1226
  0
LINE
  8
0
 10
-17.0672
 20
45.1226
 11
-17.1325
 21
45.1603
  0
LINE
  8
0
 10
-17.1325
 20
45.1603
 11
-17.1961
 21
45.2007
  0
LINE
  8
0
 10
-17.1961
 20
45.2007
 11
-17.258
 21
45.2438
  0
LINE
  8
0
 10
-17.258
 20
45.2438
 11
-17.3181
 21
45.2893
  0
LINE
  8
0
 10
-17.3181
 20
45.2893
 11
-17.3762
 21
45.3374
  0
LINE
  8
0
 10
-17.3762
 20
45.3374
 11
-17.4322
 21
45.3878
  0
LINE
  8
0
 10
-17.4322
 20
45.3878
 11
-17.4861
 21
45.4406
  0
LINE
  8
0
 10
-17.4861
 20
45.4406
 11
-17.5377
 21
45.4956
  0
LINE
  8
0
 10
-17.5377
 20
45.4956
 11
-17.5869
 21
45.5526
  0
LINE
  8
0
 10
-17.5869
 20
45.5526
 11
-17.6338
 21
45.6117
  0
LINE
  8
0
 10
-17.6338
 20
45.6117
 11
-17.6781
 21
45.6727
  0
LINE
  8
0
 10
-17.6781
 20
45.6727
 11
-17.7198
 21
45.7355
  0
LINE
  8
0
 10
-17.7198
 20
45.7355
 11
-17.7589
 21
45.8
  0
LINE
  8
0
 10
-17.7589
 20
45.8
 11
-17.7952
 21
45.8661
  0
LINE
  8
0
 10
-17.7952
 20
45.8661
 11
-17.8287
 21
45.9336
  0
LINE
  8
0
 10
-17.8287
 20
45.9336
 11
-17.8594
 21
46.0025
  0
LINE
  8
0
 10
-17.8594
 20
46.0025
 11
-17.8871
 21
46.0726
  0
LINE
  8
0
 10
-17.8871
 20
46.0726
 11
-17.9119
 21
46.1438
  0
LINE
  8
0
 10
-17.9119
 20
46.1438
 11
-17.9337
 21
46.2159
  0
LINE
  8
0
 10
-17.9337
 20
46.2159
 11
-17.9525
 21
46.289
  0
LINE
  8
0
 10
-17.9525
 20
46.289
 11
-17.9681
 21
46.3627
  0
LINE
  8
0
 10
-17.9681
 20
46.3627
 11
-17.9807
 21
46.437
  0
LINE
  8
0
 10
-17.9807
 20
46.437
 11
-17.9901
 21
46.5118
  0
LINE
  8
0
 10
-17.9901
 20
46.5118
 11
-17.9965
 21
46.587
  0
LINE
  8
0
 10
-17.9965
 20
46.587
 11
-17.9996
 21
46.6623
  0
LINE
  8
0
 10
-17.9996
 20
46.6623
 11
-17.9996
 21
46.7377
  0
LINE
  8
0
 10
-17.9996
 20
46.7377
 11
-17.9965
 21
46.813
  0
LINE
  8
0
 10
-17.9965
 20
46.813
 11
-17.9901
 21
46.8881
  0
LINE
  8
0
 10
-17.9901
 20
46.8881
 11
-17.9807
 21
46.9629
  0
LINE
  8
0
 10
-17.9807
 20
46.9629
 11
-17.9681
 21
47.0373
  0
LINE
  8
0
 10
-17.9681
 20
47.0373
 11
-17.9525
 21
47.111
  0
LINE
  8
0
 10
-17.9525
 20
47.111
 11
-17.9337
 21
47.1841
  0
LINE
  8
0
 10
-17.9337
 20
47.1841
 11
-17.9119
 21
47.2562
  0
LINE
  8
0
 10
-17.9119
 20
47.2562
 11
-17.8871
 21
47.3274
  0
LINE
  8
0
 10
-17.8871
 20
47.3274
 11
-17.8594
 21
47.3975
  0
LINE
  8
0
 10
-17.8594
 20
47.3975
 11
-17.8287
 21
47.4664
  0
LINE
  8
0
 10
-17.8287
 20
47.4664
 11
-17.7952
 21
47.5339
  0
LINE
  8
0
 10
-17.7952
 20
47.5339
 11
-17.7589
 21
47.6
  0
LINE
  8
0
 10
-17.7589
 20
47.6
 11
-17.7198
 21
47.6645
  0
LINE
  8
0
 10
-17.7198
 20
47.6645
 11
-17.6781
 21
47.7273
  0
LINE
  8
0
 10
-17.6781
 20
47.7273
 11
-17.6338
 21
47.7883
  0
LINE
  8
0
 10
-17.6338
 20
47.7883
 11
-17.5869
 21
47.8474
  0
LINE
  8
0
 10
-17.5869
 20
47.8474
 11
-17.5377
 21
47.9044
  0
LINE
  8
0
 10
-17.5377
 20
47.9044
 11
-17.4861
 21
47.9594
  0
LINE
  8
0
 10
-17.4861
 20
47.9594
 11
-17.4322
 21
48.0121
  0
LINE
  8
0
 10
-17.4322
 20
48.0121
 11
-17.3762
 21
48.0626
  0
LINE
  8
0
 10
-17.3762
 20
48.0626
 11
-17.3181
 21
48.1106
  0
LINE
  8
0
 10
-17.3181
 20
48.1106
 11
-17.258
 21
48.1562
  0
LINE
  8
0
 10
-17.258
 20
48.1562
 11
-17.1961
 21
48.1992
  0
LINE
  8
0
 10
-17.1961
 20
48.1992
 11
-17.1325
 21
48.2397
  0
LINE
  8
0
 10
-17.1325
 20
48.2397
 11
-17.0672
 21
48.2773
  0
LINE
  8
0
 10
-17.0672
 20
48.2773
 11
-17.0004
 21
48.3123
  0
LINE
  8
0
 10
-17.0004
 20
48.3123
 11
-16.9321
 21
48.3444
  0
LINE
  8
0
 10
-16.9321
 20
48.3444
 11
-16.8626
 21
48.3736
  0
LINE
  8
0
 10
-16.8626
 20
48.3736
 11
-16.792
 21
48.3999
  0
LINE
  8
0
 10
-16.792
 20
48.3999
 11
-16.7203
 21
48.4232
  0
LINE
  8
0
 10
-16.7203
 20
48.4232
 11
-16.6476
 21
48.4434
  0
LINE
  8
0
 10
-16.6476
 20
48.4434
 11
-16.5742
 21
48.4607
  0
LINE
  8
0
 10
-16.5742
 20
48.4607
 11
-16.5002
 21
48.4748
  0
LINE
  8
0
 10
-16.5002
 20
48.4748
 11
-16.4256
 21
48.4858
  0
LINE
  8
0
 10
-16.4256
 20
48.4858
 11
-16.3506
 21
48.4937
  0
LINE
  8
0
 10
-16.3506
 20
48.4937
 11
-16.2754
 21
48.4984
  0
LINE
  8
0
 10
-16.2754
 20
48.4984
 11
-16.2
 21
48.5
  0
LINE
  8
0
 10
-16.2
 20
48.5
 11
-16.1246
 21
48.4984
  0
LINE
  8
0
 10
-16.1246
 20
48.4984
 11
-16.0494
 21
48.4937
  0
LINE
  8
0
 10
-16.0494
 20
48.4937
 11
-15.9744
 21
48.4858
  0
LINE
  8
0
 10
-15.9744
 20
48.4858
 11
-15.8998
 21
48.4748
  0
LINE
  8
0
 10
-15.8998
 20
48.4748
 11
-15.8258
 21
48.4607
  0
LINE
  8
0
 10
-15.8258
 20
48.4607
 11
-15.7524
 21
48.4434
  0
LINE
  8
0
 10
-15.7524
 20
48.4434
 11
-15.6797
 21
48.4232
  0
LINE
  8
0
 10
-15.6797
 20
48.4232
 11
-15.608
 21
48.3999
  0
LINE
  8
0
 10
-15.608
 20
48.3999
 11
-15.5374
 21
48.3736
  0
LINE
  8
0
 10
-15.5374
 20
48.3736
 11
-15.4679
 21
48.3444
  0
LINE
  8
0
 10
-15.4679
 20
48.3444
 11
-15.3997
 21
48.3123
  0
LINE
  8
0
 10
-15.3997
 20
48.3123
 11
-15.3329
 21
48.2773
  0
LINE
  8
0
 10
-15.3329
 20
48.2773
 11
-15.2676
 21
48.2397
  0
LINE
  8
0
 10
-15.2676
 20
48.2397
 11
-15.2039
 21
48.1992
  0
LINE
  8
0
 10
-15.2039
 20
48.1992
 11
-15.142
 21
48.1562
  0
LINE
  8
0
 10
-15.142
 20
48.1562
 11
-15.0819
 21
48.1106
  0
LINE
  8
0
 10
-15.0819
 20
48.1106
 11
-15.0238
 21
48.0626
  0
LINE
  8
0
 10
-15.0238
 20
48.0626
 11
-14.9678
 21
48.0121
  0
LINE
  8
0
 10
-14.9678
 20
48.0121
 11
-14.914
 21
47.9594
  0
LINE
  8
0
 10
-14.914
 20
47.9594
 11
-14.8624
 21
47.9044
  0
LINE
  8
0
 10
-14.8624
 20
47.9044
 11
-14.8131
 21
47.8474
  0
LINE
  8
0
 10
-14.8131
 20
47.8474
 11
-14.7663
 21
47.7883
  0
LINE
  8
0
 10
-14.7663
 20
47.7883
 11
-14.7219
 21
47.7273
  0
LINE
  8
0
 10
-14.7219
 20
47.7273
 11
-14.6802
 21
47.6645
  0
LINE
  8
0
 10
-14.6802
 20
47.6645
 11
-14.6412
 21
47.6
  0
LINE
  8
0
 10
-14.6412
 20
47.6
 11
-14.6048
 21
47.5339
  0
LINE
  8
0
 10
-14.6048
 20
47.5339
 11
-14.5713
 21
47.4664
  0
LINE
  8
0
 10
-14.5713
 20
47.4664
 11
-14.5406
 21
47.3975
  0
LINE
  8
0
 10
-14.5406
 20
47.3975
 11
-14.5129
 21
47.3274
  0
LINE
  8
0
 10
-14.5129
 20
47.3274
 11
-14.4881
 21
47.2562
  0
LINE
  8
0
 10
-14.4881
 20
47.2562
 11
-14.4663
 21
47.1841
  0
LINE
  8
0
 10
-14.4663
 20
47.1841
 11
-14.4476
 21
47.111
  0
LINE
  8
0
 10
-14.4476
 20
47.111
 11
-14.4319
 21
47.0373
  0
LINE
  8
0
 10
-14.4319
 20
47.0373
 11
-14.4193
 21
46.9629
  0
LINE
  8
0
 10
-14.4193
 20
46.9629
 11
-14.4099
 21
46.8881
  0
LINE
  8
0
 10
-14.4099
 20
46.8881
 11
-14.4036
 21
46.813
  0
LINE
  8
0
 10
-14.4036
 20
46.813
 11
-14.4004
 21
46.7377
  0
LINE
  8
0
 10
-14.4004
 20
46.7377
 11
-14.4004
 21
46.6623
  0
ENDSEC
  0
SECTION
  2
OBJECTS
  0
DICTIONARY
  0
ENDSEC
  0
EOF
