  0
SECTION
  2
BLOCKS
  0
ENDSEC
  0
SECTION
  2
ENTITIES
  0
LINE
  8
0
 10
41.7367
 20
-88.97
 11
53.8189
 21
-88.97
  0
LINE
  8
0
 10
53.8189
 20
-88.97
 11
53.8189
 21
-92.67
  0
LINE
  8
0
 10
53.8189
 20
-92.67
 11
66.1811
 21
-92.67
  0
LINE
  8
0
 10
66.1811
 20
-92.67
 11
66.1811
 21
-88.97
  0
LINE
  8
0
 10
66.1811
 20
-88.97
 11
78.2633
 21
-88.97
  0
LINE
  8
0
 10
78.2633
 20
-88.97
 11
78.2633
 21
-92.67
  0
LINE
  8
0
 10
78.2633
 20
-92.67
 11
90.6255
 21
-92.67
  0
LINE
  8
0
 10
90.6255
 20
-92.67
 11
90.6255
 21
-88.97
  0
LINE
  8
0
 10
90.6255
 20
-88.97
 11
102.708
 21
-88.97
  0
LINE
  8
0
 10
102.708
 20
-88.97
 11
102.708
 21
-92.67
  0
LINE
  8
0
 10
102.708
 20
-92.67
 11
115.07
 21
-92.67
  0
LINE
  8
0
 10
115.07
 20
-92.67
 11
115.07
 21
-92.57
  0
LINE
  8
0
 10
115.07
 20
-92.57
 11
115.17
 21
-92.57
  0
LINE
  8
0
 10
115.17
 20
-92.57
 11
115.17
 21
-82.6931
  0
LINE
  8
0
 10
115.17
 20
-82.6931
 11
111.47
 21
-82.6931
  0
LINE
  8
0
 10
111.47
 20
-82.6931
 11
111.47
 21
-73.0963
  0
LINE
  8
0
 10
111.47
 20
-73.0963
 11
115.17
 21
-73.0963
  0
LINE
  8
0
 10
115.17
 20
-73.0963
 11
115.17
 21
-63.2195
  0
LINE
  8
0
 10
115.17
 20
-63.2195
 11
111.47
 21
-63.2195
  0
LINE
  8
0
 10
111.47
 20
-63.2195
 11
111.47
 21
-53.6226
  0
LINE
  8
0
 10
111.47
 20
-53.6226
 11
115.17
 21
-53.6226
  0
LINE
  8
0
 10
115.17
 20
-53.6226
 11
115.17
 21
-43.7458
  0
LINE
  8
0
 10
115.17
 20
-43.7458
 11
111.47
 21
-43.7458
  0
LINE
  8
0
 10
111.47
 20
-43.7458
 11
111.47
 21
-34.1489
  0
LINE
  8
0
 10
111.47
 20
-34.1489
 11
115.17
 21
-34.1489
  0
LINE
  8
0
 10
115.17
 20
-34.1489
 11
115.17
 21
-24.2721
  0
LINE
  8
0
 10
115.17
 20
-24.2721
 11
111.47
 21
-24.2721
  0
LINE
  8
0
 10
111.47
 20
-24.2721
 11
111.47
 21
-14.6753
  0
LINE
  8
0
 10
111.47
 20
-14.6753
 11
115.17
 21
-14.6753
  0
LINE
  8
0
 10
115.17
 20
-14.6753
 11
115.17
 21
-4.79842
  0
LINE
  8
0
 10
115.17
 20
-4.79842
 11
111.47
 21
-4.79842
  0
LINE
  8
0
 10
111.47
 20
-4.79842
 11
111.47
 21
4.7984
  0
LINE
  8
0
 10
111.47
 20
4.7984
 11
115.17
 21
4.7984
  0
LINE
  8
0
 10
115.17
 20
4.7984
 11
115.17
 21
14.6752
  0
LINE
  8
0
 10
115.17
 20
14.6752
 11
111.47
 21
14.6752
  0
LINE
  8
0
 10
111.47
 20
14.6752
 11
111.47
 21
24.2721
  0
LINE
  8
0
 10
111.47
 20
24.2721
 11
115.17
 21
24.2721
  0
LINE
  8
0
 10
115.17
 20
24.2721
 11
115.17
 21
34.1489
  0
LINE
  8
0
 10
115.17
 20
34.1489
 11
111.47
 21
34.1489
  0
LINE
  8
0
 10
111.47
 20
34.1489
 11
111.47
 21
43.7458
  0
LINE
  8
0
 10
111.47
 20
43.7458
 11
115.17
 21
43.7458
  0
LINE
  8
0
 10
115.17
 20
43.7458
 11
115.17
 21
53.6226
  0
LINE
  8
0
 10
115.17
 20
53.6226
 11
111.47
 21
53.6226
  0
LINE
  8
0
 10
111.47
 20
53.6226
 11
111.47
 21
63.2195
  0
LINE
  8
0
 10
111.47
 20
63.2195
 11
115.17
 21
63.2195
  0
LINE
  8
0
 10
115.17
 20
63.2195
 11
115.17
 21
73.0963
  0
LINE
  8
0
 10
115.17
 20
73.0963
 11
111.47
 21
73.0963
  0
LINE
  8
0
 10
111.47
 20
73.0963
 11
111.47
 21
82.6931
  0
LINE
  8
0
 10
111.47
 20
82.6931
 11
115.17
 21
82.6931
  0
LINE
  8
0
 10
115.17
 20
82.6931
 11
115.17
 21
92.57
  0
LINE
  8
0
 10
115.17
 20
92.57
 11
115.07
 21
92.57
  0
LINE
  8
0
 10
115.07
 20
92.57
 11
115.07
 21
92.67
  0
LINE
  8
0
 10
115.07
 20
92.67
 11
102.708
 21
92.67
  0
LINE
  8
0
 10
102.708
 20
92.67
 11
102.708
 21
88.97
  0
LINE
  8
0
 10
102.708
 20
88.97
 11
90.6255
 21
88.97
  0
LINE
  8
0
 10
90.6255
 20
88.97
 11
90.6255
 21
92.67
  0
LINE
  8
0
 10
90.6255
 20
92.67
 11
78.2633
 21
92.67
  0
LINE
  8
0
 10
78.2633
 20
92.67
 11
78.2633
 21
88.97
  0
LINE
  8
0
 10
78.2633
 20
88.97
 11
66.1811
 21
88.97
  0
LINE
  8
0
 10
66.1811
 20
88.97
 11
66.1811
 21
92.67
  0
LINE
  8
0
 10
66.1811
 20
92.67
 11
53.8189
 21
92.67
  0
LINE
  8
0
 10
53.8189
 20
92.67
 11
53.8189
 21
88.97
  0
LINE
  8
0
 10
53.8189
 20
88.97
 11
41.7367
 21
88.97
  0
LINE
  8
0
 10
41.7367
 20
88.97
 11
41.7367
 21
92.67
  0
LINE
  8
0
 10
41.7367
 20
92.67
 11
29.3745
 21
92.67
  0
LINE
  8
0
 10
29.3745
 20
92.67
 11
29.3745
 21
88.97
  0
LINE
  8
0
 10
29.3745
 20
88.97
 11
17.2922
 21
88.97
  0
LINE
  8
0
 10
17.2922
 20
88.97
 11
17.2922
 21
92.67
  0
LINE
  8
0
 10
17.2922
 20
92.67
 11
4.93001
 21
92.67
  0
LINE
  8
0
 10
4.93001
 20
92.67
 11
4.93001
 21
92.57
  0
LINE
  8
0
 10
4.93001
 20
92.57
 11
4.83
 21
92.57
  0
LINE
  8
0
 10
4.83
 20
92.57
 11
4.83
 21
82.6931
  0
LINE
  8
0
 10
4.83
 20
82.6931
 11
8.53001
 21
82.6931
  0
LINE
  8
0
 10
8.53001
 20
82.6931
 11
8.53001
 21
73.0963
  0
LINE
  8
0
 10
8.53001
 20
73.0963
 11
4.83
 21
73.0963
  0
LINE
  8
0
 10
4.83
 20
73.0963
 11
4.83
 21
63.2195
  0
LINE
  8
0
 10
4.83
 20
63.2195
 11
8.53001
 21
63.2195
  0
LINE
  8
0
 10
8.53001
 20
63.2195
 11
8.53001
 21
53.6226
  0
LINE
  8
0
 10
8.53001
 20
53.6226
 11
4.83
 21
53.6226
  0
LINE
  8
0
 10
4.83
 20
53.6226
 11
4.83
 21
43.7458
  0
LINE
  8
0
 10
4.83
 20
43.7458
 11
8.53001
 21
43.7458
  0
LINE
  8
0
 10
8.53001
 20
43.7458
 11
8.53001
 21
34.1489
  0
LINE
  8
0
 10
8.53001
 20
34.1489
 11
4.83
 21
34.1489
  0
LINE
  8
0
 10
4.83
 20
34.1489
 11
4.83
 21
24.2721
  0
LINE
  8
0
 10
4.83
 20
24.2721
 11
8.53001
 21
24.2721
  0
LINE
  8
0
 10
8.53001
 20
24.2721
 11
8.53001
 21
14.6753
  0
LINE
  8
0
 10
8.53001
 20
14.6753
 11
4.83
 21
14.6753
  0
LINE
  8
0
 10
4.83
 20
14.6753
 11
4.83
 21
4.79842
  0
LINE
  8
0
 10
4.83
 20
4.79842
 11
8.53001
 21
4.79842
  0
LINE
  8
0
 10
8.53001
 20
4.79842
 11
8.53001
 21
-4.7984
  0
LINE
  8
0
 10
8.53001
 20
-4.7984
 11
4.83
 21
-4.7984
  0
LINE
  8
0
 10
4.83
 20
-4.7984
 11
4.83
 21
-14.6752
  0
LINE
  8
0
 10
4.83
 20
-14.6752
 11
8.53001
 21
-14.6752
  0
LINE
  8
0
 10
8.53001
 20
-14.6752
 11
8.53
 21
-24.2721
  0
LINE
  8
0
 10
8.53
 20
-24.2721
 11
4.82999
 21
-24.2721
  0
LINE
  8
0
 10
4.82999
 20
-24.2721
 11
4.82999
 21
-34.1489
  0
LINE
  8
0
 10
4.82999
 20
-34.1489
 11
8.53
 21
-34.1489
  0
LINE
  8
0
 10
8.53
 20
-34.1489
 11
8.53
 21
-43.7458
  0
LINE
  8
0
 10
8.53
 20
-43.7458
 11
4.82999
 21
-43.7458
  0
LINE
  8
0
 10
4.82999
 20
-43.7458
 11
4.82999
 21
-53.6226
  0
LINE
  8
0
 10
4.82999
 20
-53.6226
 11
8.53
 21
-53.6226
  0
LINE
  8
0
 10
8.53
 20
-53.6226
 11
8.53
 21
-63.2195
  0
LINE
  8
0
 10
8.53
 20
-63.2195
 11
4.82999
 21
-63.2195
  0
LINE
  8
0
 10
4.82999
 20
-63.2195
 11
4.82999
 21
-73.0963
  0
LINE
  8
0
 10
4.82999
 20
-73.0963
 11
8.53
 21
-73.0963
  0
LINE
  8
0
 10
8.53
 20
-73.0963
 11
8.53
 21
-82.6931
  0
LINE
  8
0
 10
8.53
 20
-82.6931
 11
4.82999
 21
-82.6931
  0
LINE
  8
0
 10
4.82999
 20
-82.6931
 11
4.82999
 21
-92.57
  0
LINE
  8
0
 10
4.82999
 20
-92.57
 11
4.92999
 21
-92.57
  0
LINE
  8
0
 10
4.92999
 20
-92.57
 11
4.92999
 21
-92.67
  0
LINE
  8
0
 10
4.92999
 20
-92.67
 11
17.2922
 21
-92.67
  0
LINE
  8
0
 10
17.2922
 20
-92.67
 11
17.2922
 21
-88.97
  0
LINE
  8
0
 10
17.2922
 20
-88.97
 11
29.3744
 21
-88.97
  0
LINE
  8
0
 10
29.3744
 20
-88.97
 11
29.3744
 21
-92.67
  0
LINE
  8
0
 10
29.3744
 20
-92.67
 11
41.7367
 21
-92.67
  0
LINE
  8
0
 10
41.7367
 20
-92.67
 11
41.7367
 21
-88.97
  0
LINE
  8
0
 10
20.1163
 20
75.3017
 11
20.0327
 21
75.307
  0
LINE
  8
0
 10
20.0327
 20
75.307
 11
19.9493
 21
75.3158
  0
LINE
  8
0
 10
19.9493
 20
75.3158
 11
19.8665
 21
75.328
  0
LINE
  8
0
 10
19.8665
 20
75.328
 11
19.7842
 21
75.3437
  0
LINE
  8
0
 10
19.7842
 20
75.3437
 11
19.7026
 21
75.3628
  0
LINE
  8
0
 10
19.7026
 20
75.3628
 11
19.6219
 21
75.3854
  0
LINE
  8
0
 10
19.6219
 20
75.3854
 11
19.5423
 21
75.4112
  0
LINE
  8
0
 10
19.5423
 20
75.4112
 11
19.4638
 21
75.4404
  0
LINE
  8
0
 10
19.4638
 20
75.4404
 11
19.3865
 21
75.4729
  0
LINE
  8
0
 10
19.3865
 20
75.4729
 11
19.3107
 21
75.5086
  0
LINE
  8
0
 10
19.3107
 20
75.5086
 11
19.2365
 21
75.5474
  0
LINE
  8
0
 10
19.2365
 20
75.5474
 11
19.164
 21
75.5893
  0
LINE
  8
0
 10
19.164
 20
75.5893
 11
19.0932
 21
75.6342
  0
LINE
  8
0
 10
19.0932
 20
75.6342
 11
19.0244
 21
75.682
  0
LINE
  8
0
 10
19.0244
 20
75.682
 11
18.9577
 21
75.7326
  0
LINE
  8
0
 10
18.9577
 20
75.7326
 11
18.8932
 21
75.786
  0
LINE
  8
0
 10
18.8932
 20
75.786
 11
18.8309
 21
75.8421
  0
LINE
  8
0
 10
18.8309
 20
75.8421
 11
18.7711
 21
75.9007
  0
LINE
  8
0
 10
18.7711
 20
75.9007
 11
18.7137
 21
75.9617
  0
LINE
  8
0
 10
18.7137
 20
75.9617
 11
18.659
 21
76.0251
  0
LINE
  8
0
 10
18.659
 20
76.0251
 11
18.6069
 21
76.0908
  0
LINE
  8
0
 10
18.6069
 20
76.0908
 11
18.5577
 21
76.1586
  0
LINE
  8
0
 10
18.5577
 20
76.1586
 11
18.5114
 21
76.2283
  0
LINE
  8
0
 10
18.5114
 20
76.2283
 11
18.468
 21
76.3
  0
LINE
  8
0
 10
18.468
 20
76.3
 11
18.4276
 21
76.3734
  0
LINE
  8
0
 10
18.4276
 20
76.3734
 11
18.3904
 21
76.4484
  0
LINE
  8
0
 10
18.3904
 20
76.4484
 11
18.3563
 21
76.525
  0
LINE
  8
0
 10
18.3563
 20
76.525
 11
18.3254
 21
76.6028
  0
LINE
  8
0
 10
18.3254
 20
76.6028
 11
18.2979
 21
76.682
  0
LINE
  8
0
 10
18.2979
 20
76.682
 11
18.2737
 21
76.7621
  0
LINE
  8
0
 10
18.2737
 20
76.7621
 11
18.2529
 21
76.8433
  0
LINE
  8
0
 10
18.2529
 20
76.8433
 11
18.2354
 21
76.9252
  0
LINE
  8
0
 10
18.2354
 20
76.9252
 11
18.2215
 21
77.0078
  0
LINE
  8
0
 10
18.2215
 20
77.0078
 11
18.211
 21
77.0909
  0
LINE
  8
0
 10
18.211
 20
77.0909
 11
18.2039
 21
77.1744
  0
LINE
  8
0
 10
18.2039
 20
77.1744
 11
18.2004
 21
77.2581
  0
LINE
  8
0
 10
18.2004
 20
77.2581
 11
18.2004
 21
77.3419
  0
LINE
  8
0
 10
18.2004
 20
77.3419
 11
18.2039
 21
77.4256
  0
LINE
  8
0
 10
18.2039
 20
77.4256
 11
18.211
 21
77.509
  0
LINE
  8
0
 10
18.211
 20
77.509
 11
18.2215
 21
77.5922
  0
LINE
  8
0
 10
18.2215
 20
77.5922
 11
18.2354
 21
77.6748
  0
LINE
  8
0
 10
18.2354
 20
77.6748
 11
18.2529
 21
77.7567
  0
LINE
  8
0
 10
18.2529
 20
77.7567
 11
18.2737
 21
77.8378
  0
LINE
  8
0
 10
18.2737
 20
77.8378
 11
18.2979
 21
77.918
  0
LINE
  8
0
 10
18.2979
 20
77.918
 11
18.3254
 21
77.9971
  0
LINE
  8
0
 10
18.3254
 20
77.9971
 11
18.3563
 21
78.075
  0
LINE
  8
0
 10
18.3563
 20
78.075
 11
18.3904
 21
78.1516
  0
LINE
  8
0
 10
18.3904
 20
78.1516
 11
18.4276
 21
78.2266
  0
LINE
  8
0
 10
18.4276
 20
78.2266
 11
18.468
 21
78.3
  0
LINE
  8
0
 10
18.468
 20
78.3
 11
18.5114
 21
78.3716
  0
LINE
  8
0
 10
18.5114
 20
78.3716
 11
18.5577
 21
78.4414
  0
LINE
  8
0
 10
18.5577
 20
78.4414
 11
18.6069
 21
78.5092
  0
LINE
  8
0
 10
18.6069
 20
78.5092
 11
18.659
 21
78.5748
  0
LINE
  8
0
 10
18.659
 20
78.5748
 11
18.7137
 21
78.6383
  0
LINE
  8
0
 10
18.7137
 20
78.6383
 11
18.7711
 21
78.6993
  0
LINE
  8
0
 10
18.7711
 20
78.6993
 11
18.8309
 21
78.7579
  0
LINE
  8
0
 10
18.8309
 20
78.7579
 11
18.8932
 21
78.814
  0
LINE
  8
0
 10
18.8932
 20
78.814
 11
18.9577
 21
78.8674
  0
LINE
  8
0
 10
18.9577
 20
78.8674
 11
19.0244
 21
78.918
  0
LINE
  8
0
 10
19.0244
 20
78.918
 11
19.0932
 21
78.9658
  0
LINE
  8
0
 10
19.0932
 20
78.9658
 11
19.164
 21
79.0107
  0
LINE
  8
0
 10
19.164
 20
79.0107
 11
19.2365
 21
79.0526
  0
LINE
  8
0
 10
19.2365
 20
79.0526
 11
19.3107
 21
79.0914
  0
LINE
  8
0
 10
19.3107
 20
79.0914
 11
19.3865
 21
79.1271
  0
LINE
  8
0
 10
19.3865
 20
79.1271
 11
19.4638
 21
79.1595
  0
LINE
  8
0
 10
19.4638
 20
79.1595
 11
19.5423
 21
79.1888
  0
LINE
  8
0
 10
19.5423
 20
79.1888
 11
19.6219
 21
79.2146
  0
LINE
  8
0
 10
19.6219
 20
79.2146
 11
19.7026
 21
79.2372
  0
LINE
  8
0
 10
19.7026
 20
79.2372
 11
19.7842
 21
79.2563
  0
LINE
  8
0
 10
19.7842
 20
79.2563
 11
19.8665
 21
79.272
  0
LINE
  8
0
 10
19.8665
 20
79.272
 11
19.9493
 21
79.2842
  0
LINE
  8
0
 10
19.9493
 20
79.2842
 11
20.0327
 21
79.293
  0
LINE
  8
0
 10
20.0327
 20
79.293
 11
20.1163
 21
79.2982
  0
LINE
  8
0
 10
20.1163
 20
79.2982
 11
20.2
 21
79.3
  0
LINE
  8
0
 10
20.2
 20
79.3
 11
20.2838
 21
79.2982
  0
LINE
  8
0
 10
20.2838
 20
79.2982
 11
20.3674
 21
79.293
  0
LINE
  8
0
 10
20.3674
 20
79.293
 11
20.4507
 21
79.2842
  0
LINE
  8
0
 10
20.4507
 20
79.2842
 11
20.5335
 21
79.272
  0
LINE
  8
0
 10
20.5335
 20
79.272
 11
20.6158
 21
79.2563
  0
LINE
  8
0
 10
20.6158
 20
79.2563
 11
20.6974
 21
79.2372
  0
LINE
  8
0
 10
20.6974
 20
79.2372
 11
20.7781
 21
79.2146
  0
LINE
  8
0
 10
20.7781
 20
79.2146
 11
20.8577
 21
79.1888
  0
LINE
  8
0
 10
20.8577
 20
79.1888
 11
20.9363
 21
79.1595
  0
LINE
  8
0
 10
20.9363
 20
79.1595
 11
21.0135
 21
79.1271
  0
LINE
  8
0
 10
21.0135
 20
79.1271
 11
21.0893
 21
79.0914
  0
LINE
  8
0
 10
21.0893
 20
79.0914
 11
21.1635
 21
79.0526
  0
LINE
  8
0
 10
21.1635
 20
79.0526
 11
21.2361
 21
79.0107
  0
LINE
  8
0
 10
21.2361
 20
79.0107
 11
21.3068
 21
78.9658
  0
LINE
  8
0
 10
21.3068
 20
78.9658
 11
21.3756
 21
78.918
  0
LINE
  8
0
 10
21.3756
 20
78.918
 11
21.4423
 21
78.8674
  0
LINE
  8
0
 10
21.4423
 20
78.8674
 11
21.5069
 21
78.814
  0
LINE
  8
0
 10
21.5069
 20
78.814
 11
21.5691
 21
78.7579
  0
LINE
  8
0
 10
21.5691
 20
78.7579
 11
21.629
 21
78.6993
  0
LINE
  8
0
 10
21.629
 20
78.6993
 11
21.6863
 21
78.6383
  0
LINE
  8
0
 10
21.6863
 20
78.6383
 11
21.741
 21
78.5748
  0
LINE
  8
0
 10
21.741
 20
78.5748
 11
21.7931
 21
78.5092
  0
LINE
  8
0
 10
21.7931
 20
78.5092
 11
21.8423
 21
78.4414
  0
LINE
  8
0
 10
21.8423
 20
78.4414
 11
21.8887
 21
78.3716
  0
LINE
  8
0
 10
21.8887
 20
78.3716
 11
21.9321
 21
78.3
  0
LINE
  8
0
 10
21.9321
 20
78.3
 11
21.9724
 21
78.2266
  0
LINE
  8
0
 10
21.9724
 20
78.2266
 11
22.0097
 21
78.1516
  0
LINE
  8
0
 10
22.0097
 20
78.1516
 11
22.0437
 21
78.075
  0
LINE
  8
0
 10
22.0437
 20
78.075
 11
22.0746
 21
77.9971
  0
LINE
  8
0
 10
22.0746
 20
77.9971
 11
22.1021
 21
77.918
  0
LINE
  8
0
 10
22.1021
 20
77.918
 11
22.1263
 21
77.8378
  0
LINE
  8
0
 10
22.1263
 20
77.8378
 11
22.1472
 21
77.7567
  0
LINE
  8
0
 10
22.1472
 20
77.7567
 11
22.1646
 21
77.6748
  0
LINE
  8
0
 10
22.1646
 20
77.6748
 11
22.1786
 21
77.5922
  0
LINE
  8
0
 10
22.1786
 20
77.5922
 11
22.1891
 21
77.509
  0
LINE
  8
0
 10
22.1891
 20
77.509
 11
22.1961
 21
77.4256
  0
LINE
  8
0
 10
22.1961
 20
77.4256
 11
22.1996
 21
77.3419
  0
LINE
  8
0
 10
22.1996
 20
77.3419
 11
22.1996
 21
77.2581
  0
LINE
  8
0
 10
22.1996
 20
77.2581
 11
22.1961
 21
77.1744
  0
LINE
  8
0
 10
22.1961
 20
77.1744
 11
22.1891
 21
77.0909
  0
LINE
  8
0
 10
22.1891
 20
77.0909
 11
22.1786
 21
77.0078
  0
LINE
  8
0
 10
22.1786
 20
77.0078
 11
22.1646
 21
76.9252
  0
LINE
  8
0
 10
22.1646
 20
76.9252
 11
22.1472
 21
76.8433
  0
LINE
  8
0
 10
22.1472
 20
76.8433
 11
22.1263
 21
76.7621
  0
LINE
  8
0
 10
22.1263
 20
76.7621
 11
22.1021
 21
76.682
  0
LINE
  8
0
 10
22.1021
 20
76.682
 11
22.0746
 21
76.6028
  0
LINE
  8
0
 10
22.0746
 20
76.6028
 11
22.0437
 21
76.525
  0
LINE
  8
0
 10
22.0437
 20
76.525
 11
22.0097
 21
76.4484
  0
LINE
  8
0
 10
22.0097
 20
76.4484
 11
21.9724
 21
76.3734
  0
LINE
  8
0
 10
21.9724
 20
76.3734
 11
21.9321
 21
76.3
  0
LINE
  8
0
 10
21.9321
 20
76.3
 11
21.8887
 21
76.2283
  0
LINE
  8
0
 10
21.8887
 20
76.2283
 11
21.8423
 21
76.1586
  0
LINE
  8
0
 10
21.8423
 20
76.1586
 11
21.7931
 21
76.0908
  0
LINE
  8
0
 10
21.7931
 20
76.0908
 11
21.741
 21
76.0251
  0
LINE
  8
0
 10
21.741
 20
76.0251
 11
21.6863
 21
75.9617
  0
LINE
  8
0
 10
21.6863
 20
75.9617
 11
21.629
 21
75.9007
  0
LINE
  8
0
 10
21.629
 20
75.9007
 11
21.5691
 21
75.8421
  0
LINE
  8
0
 10
21.5691
 20
75.8421
 11
21.5069
 21
75.786
  0
LINE
  8
0
 10
21.5069
 20
75.786
 11
21.4423
 21
75.7326
  0
LINE
  8
0
 10
21.4423
 20
75.7326
 11
21.3756
 21
75.682
  0
LINE
  8
0
 10
21.3756
 20
75.682
 11
21.3068
 21
75.6342
  0
LINE
  8
0
 10
21.3068
 20
75.6342
 11
21.2361
 21
75.5893
  0
LINE
  8
0
 10
21.2361
 20
75.5893
 11
21.1635
 21
75.5474
  0
LINE
  8
0
 10
21.1635
 20
75.5474
 11
21.0893
 21
75.5086
  0
LINE
  8
0
 10
21.0893
 20
75.5086
 11
21.0135
 21
75.4729
  0
LINE
  8
0
 10
21.0135
 20
75.4729
 11
20.9363
 21
75.4404
  0
LINE
  8
0
 10
20.9363
 20
75.4404
 11
20.8577
 21
75.4112
  0
LINE
  8
0
 10
20.8577
 20
75.4112
 11
20.7781
 21
75.3854
  0
LINE
  8
0
 10
20.7781
 20
75.3854
 11
20.6974
 21
75.3628
  0
LINE
  8
0
 10
20.6974
 20
75.3628
 11
20.6158
 21
75.3437
  0
LINE
  8
0
 10
20.6158
 20
75.3437
 11
20.5335
 21
75.328
  0
LINE
  8
0
 10
20.5335
 20
75.328
 11
20.4507
 21
75.3158
  0
LINE
  8
0
 10
20.4507
 20
75.3158
 11
20.3674
 21
75.307
  0
LINE
  8
0
 10
20.3674
 20
75.307
 11
20.2838
 21
75.3017
  0
LINE
  8
0
 10
20.2838
 20
75.3017
 11
20.2
 21
75.3
  0
LINE
  8
0
 10
20.2
 20
75.3
 11
20.1163
 21
75.3017
  0
LINE
  8
0
 10
99.7162
 20
75.3017
 11
99.6326
 21
75.307
  0
LINE
  8
0
 10
99.6326
 20
75.307
 11
99.5493
 21
75.3158
  0
LINE
  8
0
 10
99.5493
 20
75.3158
 11
99.4665
 21
75.328
  0
LINE
  8
0
 10
99.4665
 20
75.328
 11
99.3842
 21
75.3437
  0
LINE
  8
0
 10
99.3842
 20
75.3437
 11
99.3026
 21
75.3628
  0
LINE
  8
0
 10
99.3026
 20
75.3628
 11
99.2219
 21
75.3853
  0
LINE
  8
0
 10
99.2219
 20
75.3853
 11
99.1423
 21
75.4112
  0
LINE
  8
0
 10
99.1423
 20
75.4112
 11
99.0637
 21
75.4404
  0
LINE
  8
0
 10
99.0637
 20
75.4404
 11
98.9865
 21
75.4729
  0
LINE
  8
0
 10
98.9865
 20
75.4729
 11
98.9107
 21
75.5086
  0
LINE
  8
0
 10
98.9107
 20
75.5086
 11
98.8365
 21
75.5474
  0
LINE
  8
0
 10
98.8365
 20
75.5474
 11
98.7639
 21
75.5892
  0
LINE
  8
0
 10
98.7639
 20
75.5892
 11
98.6932
 21
75.6341
  0
LINE
  8
0
 10
98.6932
 20
75.6341
 11
98.6244
 21
75.6819
  0
LINE
  8
0
 10
98.6244
 20
75.6819
 11
98.5577
 21
75.7326
  0
LINE
  8
0
 10
98.5577
 20
75.7326
 11
98.4931
 21
75.786
  0
LINE
  8
0
 10
98.4931
 20
75.786
 11
98.4309
 21
75.842
  0
LINE
  8
0
 10
98.4309
 20
75.842
 11
98.371
 21
75.9007
  0
LINE
  8
0
 10
98.371
 20
75.9007
 11
98.3137
 21
75.9617
  0
LINE
  8
0
 10
98.3137
 20
75.9617
 11
98.259
 21
76.0251
  0
LINE
  8
0
 10
98.259
 20
76.0251
 11
98.2069
 21
76.0908
  0
LINE
  8
0
 10
98.2069
 20
76.0908
 11
98.1577
 21
76.1586
  0
LINE
  8
0
 10
98.1577
 20
76.1586
 11
98.1113
 21
76.2283
  0
LINE
  8
0
 10
98.1113
 20
76.2283
 11
98.0679
 21
76.3
  0
LINE
  8
0
 10
98.0679
 20
76.3
 11
98.0276
 21
76.3734
  0
LINE
  8
0
 10
98.0276
 20
76.3734
 11
97.9903
 21
76.4484
  0
LINE
  8
0
 10
97.9903
 20
76.4484
 11
97.9563
 21
76.5249
  0
LINE
  8
0
 10
97.9563
 20
76.5249
 11
97.9254
 21
76.6028
  0
LINE
  8
0
 10
97.9254
 20
76.6028
 11
97.8979
 21
76.6819
  0
LINE
  8
0
 10
97.8979
 20
76.6819
 11
97.8737
 21
76.7621
  0
LINE
  8
0
 10
97.8737
 20
76.7621
 11
97.8528
 21
76.8433
  0
LINE
  8
0
 10
97.8528
 20
76.8433
 11
97.8354
 21
76.9252
  0
LINE
  8
0
 10
97.8354
 20
76.9252
 11
97.8214
 21
77.0078
  0
LINE
  8
0
 10
97.8214
 20
77.0078
 11
97.8109
 21
77.0909
  0
LINE
  8
0
 10
97.8109
 20
77.0909
 11
97.8039
 21
77.1744
  0
LINE
  8
0
 10
97.8039
 20
77.1744
 11
97.8004
 21
77.2581
  0
LINE
  8
0
 10
97.8004
 20
77.2581
 11
97.8004
 21
77.3419
  0
LINE
  8
0
 10
97.8004
 20
77.3419
 11
97.8039
 21
77.4256
  0
LINE
  8
0
 10
97.8039
 20
77.4256
 11
97.8109
 21
77.509
  0
LINE
  8
0
 10
97.8109
 20
77.509
 11
97.8214
 21
77.5921
  0
LINE
  8
0
 10
97.8214
 20
77.5921
 11
97.8354
 21
77.6747
  0
LINE
  8
0
 10
97.8354
 20
77.6747
 11
97.8528
 21
77.7567
  0
LINE
  8
0
 10
97.8528
 20
77.7567
 11
97.8737
 21
77.8378
  0
LINE
  8
0
 10
97.8737
 20
77.8378
 11
97.8979
 21
77.918
  0
LINE
  8
0
 10
97.8979
 20
77.918
 11
97.9254
 21
77.9971
  0
LINE
  8
0
 10
97.9254
 20
77.9971
 11
97.9563
 21
78.075
  0
LINE
  8
0
 10
97.9563
 20
78.075
 11
97.9903
 21
78.1515
  0
LINE
  8
0
 10
97.9903
 20
78.1515
 11
98.0276
 21
78.2266
  0
LINE
  8
0
 10
98.0276
 20
78.2266
 11
98.0679
 21
78.3
  0
LINE
  8
0
 10
98.0679
 20
78.3
 11
98.1113
 21
78.3716
  0
LINE
  8
0
 10
98.1113
 20
78.3716
 11
98.1577
 21
78.4414
  0
LINE
  8
0
 10
98.1577
 20
78.4414
 11
98.2069
 21
78.5092
  0
LINE
  8
0
 10
98.2069
 20
78.5092
 11
98.259
 21
78.5748
  0
LINE
  8
0
 10
98.259
 20
78.5748
 11
98.3137
 21
78.6382
  0
LINE
  8
0
 10
98.3137
 20
78.6382
 11
98.371
 21
78.6993
  0
LINE
  8
0
 10
98.371
 20
78.6993
 11
98.4309
 21
78.7579
  0
LINE
  8
0
 10
98.4309
 20
78.7579
 11
98.4931
 21
78.814
  0
LINE
  8
0
 10
98.4931
 20
78.814
 11
98.5577
 21
78.8674
  0
LINE
  8
0
 10
98.5577
 20
78.8674
 11
98.6244
 21
78.918
  0
LINE
  8
0
 10
98.6244
 20
78.918
 11
98.6932
 21
78.9658
  0
LINE
  8
0
 10
98.6932
 20
78.9658
 11
98.7639
 21
79.0107
  0
LINE
  8
0
 10
98.7639
 20
79.0107
 11
98.8365
 21
79.0526
  0
LINE
  8
0
 10
98.8365
 20
79.0526
 11
98.9107
 21
79.0914
  0
LINE
  8
0
 10
98.9107
 20
79.0914
 11
98.9865
 21
79.1271
  0
LINE
  8
0
 10
98.9865
 20
79.1271
 11
99.0637
 21
79.1595
  0
LINE
  8
0
 10
99.0637
 20
79.1595
 11
99.1423
 21
79.1887
  0
LINE
  8
0
 10
99.1423
 20
79.1887
 11
99.2219
 21
79.2146
  0
LINE
  8
0
 10
99.2219
 20
79.2146
 11
99.3026
 21
79.2371
  0
LINE
  8
0
 10
99.3026
 20
79.2371
 11
99.3842
 21
79.2563
  0
LINE
  8
0
 10
99.3842
 20
79.2563
 11
99.4665
 21
79.272
  0
LINE
  8
0
 10
99.4665
 20
79.272
 11
99.5493
 21
79.2842
  0
LINE
  8
0
 10
99.5493
 20
79.2842
 11
99.6326
 21
79.293
  0
LINE
  8
0
 10
99.6326
 20
79.293
 11
99.7162
 21
79.2982
  0
LINE
  8
0
 10
99.7162
 20
79.2982
 11
99.8
 21
79.3
  0
LINE
  8
0
 10
99.8
 20
79.3
 11
99.8837
 21
79.2982
  0
LINE
  8
0
 10
99.8837
 20
79.2982
 11
99.9673
 21
79.293
  0
LINE
  8
0
 10
99.9673
 20
79.293
 11
100.051
 21
79.2842
  0
LINE
  8
0
 10
100.051
 20
79.2842
 11
100.134
 21
79.272
  0
LINE
  8
0
 10
100.134
 20
79.272
 11
100.216
 21
79.2563
  0
LINE
  8
0
 10
100.216
 20
79.2563
 11
100.297
 21
79.2371
  0
LINE
  8
0
 10
100.297
 20
79.2371
 11
100.378
 21
79.2146
  0
LINE
  8
0
 10
100.378
 20
79.2146
 11
100.458
 21
79.1887
  0
LINE
  8
0
 10
100.458
 20
79.1887
 11
100.536
 21
79.1595
  0
LINE
  8
0
 10
100.536
 20
79.1595
 11
100.613
 21
79.1271
  0
LINE
  8
0
 10
100.613
 20
79.1271
 11
100.689
 21
79.0914
  0
LINE
  8
0
 10
100.689
 20
79.0914
 11
100.764
 21
79.0526
  0
LINE
  8
0
 10
100.764
 20
79.0526
 11
100.836
 21
79.0107
  0
LINE
  8
0
 10
100.836
 20
79.0107
 11
100.907
 21
78.9658
  0
LINE
  8
0
 10
100.907
 20
78.9658
 11
100.976
 21
78.918
  0
LINE
  8
0
 10
100.976
 20
78.918
 11
101.042
 21
78.8674
  0
LINE
  8
0
 10
101.042
 20
78.8674
 11
101.107
 21
78.814
  0
LINE
  8
0
 10
101.107
 20
78.814
 11
101.169
 21
78.7579
  0
LINE
  8
0
 10
101.169
 20
78.7579
 11
101.229
 21
78.6993
  0
LINE
  8
0
 10
101.229
 20
78.6993
 11
101.286
 21
78.6382
  0
LINE
  8
0
 10
101.286
 20
78.6382
 11
101.341
 21
78.5748
  0
LINE
  8
0
 10
101.341
 20
78.5748
 11
101.393
 21
78.5092
  0
LINE
  8
0
 10
101.393
 20
78.5092
 11
101.442
 21
78.4414
  0
LINE
  8
0
 10
101.442
 20
78.4414
 11
101.489
 21
78.3716
  0
LINE
  8
0
 10
101.489
 20
78.3716
 11
101.532
 21
78.3
  0
LINE
  8
0
 10
101.532
 20
78.3
 11
101.572
 21
78.2266
  0
LINE
  8
0
 10
101.572
 20
78.2266
 11
101.61
 21
78.1515
  0
LINE
  8
0
 10
101.61
 20
78.1515
 11
101.644
 21
78.075
  0
LINE
  8
0
 10
101.644
 20
78.075
 11
101.675
 21
77.9971
  0
LINE
  8
0
 10
101.675
 20
77.9971
 11
101.702
 21
77.918
  0
LINE
  8
0
 10
101.702
 20
77.918
 11
101.726
 21
77.8378
  0
LINE
  8
0
 10
101.726
 20
77.8378
 11
101.747
 21
77.7567
  0
LINE
  8
0
 10
101.747
 20
77.7567
 11
101.765
 21
77.6747
  0
LINE
  8
0
 10
101.765
 20
77.6747
 11
101.779
 21
77.5921
  0
LINE
  8
0
 10
101.779
 20
77.5921
 11
101.789
 21
77.509
  0
LINE
  8
0
 10
101.789
 20
77.509
 11
101.796
 21
77.4256
  0
LINE
  8
0
 10
101.796
 20
77.4256
 11
101.8
 21
77.3419
  0
LINE
  8
0
 10
101.8
 20
77.3419
 11
101.8
 21
77.2581
  0
LINE
  8
0
 10
101.8
 20
77.2581
 11
101.796
 21
77.1744
  0
LINE
  8
0
 10
101.796
 20
77.1744
 11
101.789
 21
77.0909
  0
LINE
  8
0
 10
101.789
 20
77.0909
 11
101.779
 21
77.0078
  0
LINE
  8
0
 10
101.779
 20
77.0078
 11
101.765
 21
76.9252
  0
LINE
  8
0
 10
101.765
 20
76.9252
 11
101.747
 21
76.8433
  0
LINE
  8
0
 10
101.747
 20
76.8433
 11
101.726
 21
76.7621
  0
LINE
  8
0
 10
101.726
 20
76.7621
 11
101.702
 21
76.6819
  0
LINE
  8
0
 10
101.702
 20
76.6819
 11
101.675
 21
76.6028
  0
LINE
  8
0
 10
101.675
 20
76.6028
 11
101.644
 21
76.5249
  0
LINE
  8
0
 10
101.644
 20
76.5249
 11
101.61
 21
76.4484
  0
LINE
  8
0
 10
101.61
 20
76.4484
 11
101.572
 21
76.3734
  0
LINE
  8
0
 10
101.572
 20
76.3734
 11
101.532
 21
76.3
  0
LINE
  8
0
 10
101.532
 20
76.3
 11
101.489
 21
76.2283
  0
LINE
  8
0
 10
101.489
 20
76.2283
 11
101.442
 21
76.1586
  0
LINE
  8
0
 10
101.442
 20
76.1586
 11
101.393
 21
76.0908
  0
LINE
  8
0
 10
101.393
 20
76.0908
 11
101.341
 21
76.0251
  0
LINE
  8
0
 10
101.341
 20
76.0251
 11
101.286
 21
75.9617
  0
LINE
  8
0
 10
101.286
 20
75.9617
 11
101.229
 21
75.9007
  0
LINE
  8
0
 10
101.229
 20
75.9007
 11
101.169
 21
75.842
  0
LINE
  8
0
 10
101.169
 20
75.842
 11
101.107
 21
75.786
  0
LINE
  8
0
 10
101.107
 20
75.786
 11
101.042
 21
75.7326
  0
LINE
  8
0
 10
101.042
 20
75.7326
 11
100.976
 21
75.6819
  0
LINE
  8
0
 10
100.976
 20
75.6819
 11
100.907
 21
75.6341
  0
LINE
  8
0
 10
100.907
 20
75.6341
 11
100.836
 21
75.5892
  0
LINE
  8
0
 10
100.836
 20
75.5892
 11
100.764
 21
75.5474
  0
LINE
  8
0
 10
100.764
 20
75.5474
 11
100.689
 21
75.5086
  0
LINE
  8
0
 10
100.689
 20
75.5086
 11
100.613
 21
75.4729
  0
LINE
  8
0
 10
100.613
 20
75.4729
 11
100.536
 21
75.4404
  0
LINE
  8
0
 10
100.536
 20
75.4404
 11
100.458
 21
75.4112
  0
LINE
  8
0
 10
100.458
 20
75.4112
 11
100.378
 21
75.3853
  0
LINE
  8
0
 10
100.378
 20
75.3853
 11
100.297
 21
75.3628
  0
LINE
  8
0
 10
100.297
 20
75.3628
 11
100.216
 21
75.3437
  0
LINE
  8
0
 10
100.216
 20
75.3437
 11
100.134
 21
75.328
  0
LINE
  8
0
 10
100.134
 20
75.328
 11
100.051
 21
75.3158
  0
LINE
  8
0
 10
100.051
 20
75.3158
 11
99.9673
 21
75.307
  0
LINE
  8
0
 10
99.9673
 20
75.307
 11
99.8837
 21
75.3017
  0
LINE
  8
0
 10
99.8837
 20
75.3017
 11
99.8
 21
75.3
  0
LINE
  8
0
 10
99.8
 20
75.3
 11
99.7162
 21
75.3017
  0
LINE
  8
0
 10
20.1162
 20
-79.2982
 11
20.0326
 21
-79.293
  0
LINE
  8
0
 10
20.0326
 20
-79.293
 11
19.9493
 21
-79.2842
  0
LINE
  8
0
 10
19.9493
 20
-79.2842
 11
19.8665
 21
-79.272
  0
LINE
  8
0
 10
19.8665
 20
-79.272
 11
19.7842
 21
-79.2563
  0
LINE
  8
0
 10
19.7842
 20
-79.2563
 11
19.7026
 21
-79.2371
  0
LINE
  8
0
 10
19.7026
 20
-79.2371
 11
19.6219
 21
-79.2146
  0
LINE
  8
0
 10
19.6219
 20
-79.2146
 11
19.5423
 21
-79.1887
  0
LINE
  8
0
 10
19.5423
 20
-79.1887
 11
19.4637
 21
-79.1595
  0
LINE
  8
0
 10
19.4637
 20
-79.1595
 11
19.3865
 21
-79.1271
  0
LINE
  8
0
 10
19.3865
 20
-79.1271
 11
19.3107
 21
-79.0914
  0
LINE
  8
0
 10
19.3107
 20
-79.0914
 11
19.2365
 21
-79.0526
  0
LINE
  8
0
 10
19.2365
 20
-79.0526
 11
19.1639
 21
-79.0107
  0
LINE
  8
0
 10
19.1639
 20
-79.0107
 11
19.0932
 21
-78.9658
  0
LINE
  8
0
 10
19.0932
 20
-78.9658
 11
19.0244
 21
-78.918
  0
LINE
  8
0
 10
19.0244
 20
-78.918
 11
18.9577
 21
-78.8674
  0
LINE
  8
0
 10
18.9577
 20
-78.8674
 11
18.8932
 21
-78.814
  0
LINE
  8
0
 10
18.8932
 20
-78.814
 11
18.8309
 21
-78.7579
  0
LINE
  8
0
 10
18.8309
 20
-78.7579
 11
18.771
 21
-78.6993
  0
LINE
  8
0
 10
18.771
 20
-78.6993
 11
18.7137
 21
-78.6382
  0
LINE
  8
0
 10
18.7137
 20
-78.6382
 11
18.659
 21
-78.5748
  0
LINE
  8
0
 10
18.659
 20
-78.5748
 11
18.6069
 21
-78.5092
  0
LINE
  8
0
 10
18.6069
 20
-78.5092
 11
18.5577
 21
-78.4414
  0
LINE
  8
0
 10
18.5577
 20
-78.4414
 11
18.5113
 21
-78.3716
  0
LINE
  8
0
 10
18.5113
 20
-78.3716
 11
18.4679
 21
-78.3
  0
LINE
  8
0
 10
18.4679
 20
-78.3
 11
18.4276
 21
-78.2266
  0
LINE
  8
0
 10
18.4276
 20
-78.2266
 11
18.3903
 21
-78.1515
  0
LINE
  8
0
 10
18.3903
 20
-78.1515
 11
18.3563
 21
-78.075
  0
LINE
  8
0
 10
18.3563
 20
-78.075
 11
18.3254
 21
-77.9971
  0
LINE
  8
0
 10
18.3254
 20
-77.9971
 11
18.2979
 21
-77.918
  0
LINE
  8
0
 10
18.2979
 20
-77.918
 11
18.2737
 21
-77.8378
  0
LINE
  8
0
 10
18.2737
 20
-77.8378
 11
18.2528
 21
-77.7567
  0
LINE
  8
0
 10
18.2528
 20
-77.7567
 11
18.2354
 21
-77.6747
  0
LINE
  8
0
 10
18.2354
 20
-77.6747
 11
18.2215
 21
-77.5921
  0
LINE
  8
0
 10
18.2215
 20
-77.5921
 11
18.211
 21
-77.509
  0
LINE
  8
0
 10
18.211
 20
-77.509
 11
18.2039
 21
-77.4256
  0
LINE
  8
0
 10
18.2039
 20
-77.4256
 11
18.2004
 21
-77.3419
  0
LINE
  8
0
 10
18.2004
 20
-77.3419
 11
18.2004
 21
-77.2581
  0
LINE
  8
0
 10
18.2004
 20
-77.2581
 11
18.2039
 21
-77.1744
  0
LINE
  8
0
 10
18.2039
 20
-77.1744
 11
18.211
 21
-77.0909
  0
LINE
  8
0
 10
18.211
 20
-77.0909
 11
18.2215
 21
-77.0078
  0
LINE
  8
0
 10
18.2215
 20
-77.0078
 11
18.2354
 21
-76.9252
  0
LINE
  8
0
 10
18.2354
 20
-76.9252
 11
18.2528
 21
-76.8433
  0
LINE
  8
0
 10
18.2528
 20
-76.8433
 11
18.2737
 21
-76.7621
  0
LINE
  8
0
 10
18.2737
 20
-76.7621
 11
18.2979
 21
-76.6819
  0
LINE
  8
0
 10
18.2979
 20
-76.6819
 11
18.3254
 21
-76.6028
  0
LINE
  8
0
 10
18.3254
 20
-76.6028
 11
18.3563
 21
-76.5249
  0
LINE
  8
0
 10
18.3563
 20
-76.5249
 11
18.3903
 21
-76.4484
  0
LINE
  8
0
 10
18.3903
 20
-76.4484
 11
18.4276
 21
-76.3734
  0
LINE
  8
0
 10
18.4276
 20
-76.3734
 11
18.4679
 21
-76.3
  0
LINE
  8
0
 10
18.4679
 20
-76.3
 11
18.5113
 21
-76.2283
  0
LINE
  8
0
 10
18.5113
 20
-76.2283
 11
18.5577
 21
-76.1586
  0
LINE
  8
0
 10
18.5577
 20
-76.1586
 11
18.6069
 21
-76.0908
  0
LINE
  8
0
 10
18.6069
 20
-76.0908
 11
18.659
 21
-76.0251
  0
LINE
  8
0
 10
18.659
 20
-76.0251
 11
18.7137
 21
-75.9617
  0
LINE
  8
0
 10
18.7137
 20
-75.9617
 11
18.771
 21
-75.9007
  0
LINE
  8
0
 10
18.771
 20
-75.9007
 11
18.8309
 21
-75.842
  0
LINE
  8
0
 10
18.8309
 20
-75.842
 11
18.8932
 21
-75.786
  0
LINE
  8
0
 10
18.8932
 20
-75.786
 11
18.9577
 21
-75.7326
  0
LINE
  8
0
 10
18.9577
 20
-75.7326
 11
19.0244
 21
-75.6819
  0
LINE
  8
0
 10
19.0244
 20
-75.6819
 11
19.0932
 21
-75.6341
  0
LINE
  8
0
 10
19.0932
 20
-75.6341
 11
19.1639
 21
-75.5892
  0
LINE
  8
0
 10
19.1639
 20
-75.5892
 11
19.2365
 21
-75.5474
  0
LINE
  8
0
 10
19.2365
 20
-75.5474
 11
19.3107
 21
-75.5086
  0
LINE
  8
0
 10
19.3107
 20
-75.5086
 11
19.3865
 21
-75.4729
  0
LINE
  8
0
 10
19.3865
 20
-75.4729
 11
19.4637
 21
-75.4404
  0
LINE
  8
0
 10
19.4637
 20
-75.4404
 11
19.5423
 21
-75.4112
  0
LINE
  8
0
 10
19.5423
 20
-75.4112
 11
19.6219
 21
-75.3853
  0
LINE
  8
0
 10
19.6219
 20
-75.3853
 11
19.7026
 21
-75.3628
  0
LINE
  8
0
 10
19.7026
 20
-75.3628
 11
19.7842
 21
-75.3437
  0
LINE
  8
0
 10
19.7842
 20
-75.3437
 11
19.8665
 21
-75.328
  0
LINE
  8
0
 10
19.8665
 20
-75.328
 11
19.9493
 21
-75.3158
  0
LINE
  8
0
 10
19.9493
 20
-75.3158
 11
20.0326
 21
-75.307
  0
LINE
  8
0
 10
20.0326
 20
-75.307
 11
20.1162
 21
-75.3017
  0
LINE
  8
0
 10
20.1162
 20
-75.3017
 11
20.2
 21
-75.3
  0
LINE
  8
0
 10
20.2
 20
-75.3
 11
20.2837
 21
-75.3017
  0
LINE
  8
0
 10
20.2837
 20
-75.3017
 11
20.3674
 21
-75.307
  0
LINE
  8
0
 10
20.3674
 20
-75.307
 11
20.4507
 21
-75.3158
  0
LINE
  8
0
 10
20.4507
 20
-75.3158
 11
20.5335
 21
-75.328
  0
LINE
  8
0
 10
20.5335
 20
-75.328
 11
20.6158
 21
-75.3437
  0
LINE
  8
0
 10
20.6158
 20
-75.3437
 11
20.6974
 21
-75.3628
  0
LINE
  8
0
 10
20.6974
 20
-75.3628
 11
20.7781
 21
-75.3853
  0
LINE
  8
0
 10
20.7781
 20
-75.3853
 11
20.8577
 21
-75.4112
  0
LINE
  8
0
 10
20.8577
 20
-75.4112
 11
20.9362
 21
-75.4404
  0
LINE
  8
0
 10
20.9362
 20
-75.4404
 11
21.0135
 21
-75.4729
  0
LINE
  8
0
 10
21.0135
 20
-75.4729
 11
21.0893
 21
-75.5086
  0
LINE
  8
0
 10
21.0893
 20
-75.5086
 11
21.1635
 21
-75.5474
  0
LINE
  8
0
 10
21.1635
 20
-75.5474
 11
21.2361
 21
-75.5892
  0
LINE
  8
0
 10
21.2361
 20
-75.5892
 11
21.3068
 21
-75.6341
  0
LINE
  8
0
 10
21.3068
 20
-75.6341
 11
21.3756
 21
-75.6819
  0
LINE
  8
0
 10
21.3756
 20
-75.6819
 11
21.4423
 21
-75.7326
  0
LINE
  8
0
 10
21.4423
 20
-75.7326
 11
21.5068
 21
-75.786
  0
LINE
  8
0
 10
21.5068
 20
-75.786
 11
21.5691
 21
-75.842
  0
LINE
  8
0
 10
21.5691
 20
-75.842
 11
21.6289
 21
-75.9007
  0
LINE
  8
0
 10
21.6289
 20
-75.9007
 11
21.6863
 21
-75.9617
  0
LINE
  8
0
 10
21.6863
 20
-75.9617
 11
21.741
 21
-76.0251
  0
LINE
  8
0
 10
21.741
 20
-76.0251
 11
21.793
 21
-76.0908
  0
LINE
  8
0
 10
21.793
 20
-76.0908
 11
21.8423
 21
-76.1586
  0
LINE
  8
0
 10
21.8423
 20
-76.1586
 11
21.8886
 21
-76.2283
  0
LINE
  8
0
 10
21.8886
 20
-76.2283
 11
21.932
 21
-76.3
  0
LINE
  8
0
 10
21.932
 20
-76.3
 11
21.9724
 21
-76.3734
  0
LINE
  8
0
 10
21.9724
 20
-76.3734
 11
22.0096
 21
-76.4484
  0
LINE
  8
0
 10
22.0096
 20
-76.4484
 11
22.0437
 21
-76.5249
  0
LINE
  8
0
 10
22.0437
 20
-76.5249
 11
22.0746
 21
-76.6028
  0
LINE
  8
0
 10
22.0746
 20
-76.6028
 11
22.1021
 21
-76.6819
  0
LINE
  8
0
 10
22.1021
 20
-76.6819
 11
22.1263
 21
-76.7621
  0
LINE
  8
0
 10
22.1263
 20
-76.7621
 11
22.1472
 21
-76.8433
  0
LINE
  8
0
 10
22.1472
 20
-76.8433
 11
22.1646
 21
-76.9252
  0
LINE
  8
0
 10
22.1646
 20
-76.9252
 11
22.1785
 21
-77.0078
  0
LINE
  8
0
 10
22.1785
 20
-77.0078
 11
22.189
 21
-77.0909
  0
LINE
  8
0
 10
22.189
 20
-77.0909
 11
22.196
 21
-77.1744
  0
LINE
  8
0
 10
22.196
 20
-77.1744
 11
22.1996
 21
-77.2581
  0
LINE
  8
0
 10
22.1996
 20
-77.2581
 11
22.1996
 21
-77.3419
  0
LINE
  8
0
 10
22.1996
 20
-77.3419
 11
22.196
 21
-77.4256
  0
LINE
  8
0
 10
22.196
 20
-77.4256
 11
22.189
 21
-77.509
  0
LINE
  8
0
 10
22.189
 20
-77.509
 11
22.1785
 21
-77.5921
  0
LINE
  8
0
 10
22.1785
 20
-77.5921
 11
22.1646
 21
-77.6747
  0
LINE
  8
0
 10
22.1646
 20
-77.6747
 11
22.1472
 21
-77.7567
  0
LINE
  8
0
 10
22.1472
 20
-77.7567
 11
22.1263
 21
-77.8378
  0
LINE
  8
0
 10
22.1263
 20
-77.8378
 11
22.1021
 21
-77.918
  0
LINE
  8
0
 10
22.1021
 20
-77.918
 11
22.0746
 21
-77.9971
  0
LINE
  8
0
 10
22.0746
 20
-77.9971
 11
22.0437
 21
-78.075
  0
LINE
  8
0
 10
22.0437
 20
-78.075
 11
22.0096
 21
-78.1515
  0
LINE
  8
0
 10
22.0096
 20
-78.1515
 11
21.9724
 21
-78.2266
  0
LINE
  8
0
 10
21.9724
 20
-78.2266
 11
21.932
 21
-78.3
  0
LINE
  8
0
 10
21.932
 20
-78.3
 11
21.8886
 21
-78.3716
  0
LINE
  8
0
 10
21.8886
 20
-78.3716
 11
21.8423
 21
-78.4414
  0
LINE
  8
0
 10
21.8423
 20
-78.4414
 11
21.793
 21
-78.5092
  0
LINE
  8
0
 10
21.793
 20
-78.5092
 11
21.741
 21
-78.5748
  0
LINE
  8
0
 10
21.741
 20
-78.5748
 11
21.6863
 21
-78.6382
  0
LINE
  8
0
 10
21.6863
 20
-78.6382
 11
21.6289
 21
-78.6993
  0
LINE
  8
0
 10
21.6289
 20
-78.6993
 11
21.5691
 21
-78.7579
  0
LINE
  8
0
 10
21.5691
 20
-78.7579
 11
21.5068
 21
-78.814
  0
LINE
  8
0
 10
21.5068
 20
-78.814
 11
21.4423
 21
-78.8674
  0
LINE
  8
0
 10
21.4423
 20
-78.8674
 11
21.3756
 21
-78.918
  0
LINE
  8
0
 10
21.3756
 20
-78.918
 11
21.3068
 21
-78.9658
  0
LINE
  8
0
 10
21.3068
 20
-78.9658
 11
21.2361
 21
-79.0107
  0
LINE
  8
0
 10
21.2361
 20
-79.0107
 11
21.1635
 21
-79.0526
  0
LINE
  8
0
 10
21.1635
 20
-79.0526
 11
21.0893
 21
-79.0914
  0
LINE
  8
0
 10
21.0893
 20
-79.0914
 11
21.0135
 21
-79.1271
  0
LINE
  8
0
 10
21.0135
 20
-79.1271
 11
20.9362
 21
-79.1595
  0
LINE
  8
0
 10
20.9362
 20
-79.1595
 11
20.8577
 21
-79.1887
  0
LINE
  8
0
 10
20.8577
 20
-79.1887
 11
20.7781
 21
-79.2146
  0
LINE
  8
0
 10
20.7781
 20
-79.2146
 11
20.6974
 21
-79.2371
  0
LINE
  8
0
 10
20.6974
 20
-79.2371
 11
20.6158
 21
-79.2563
  0
LINE
  8
0
 10
20.6158
 20
-79.2563
 11
20.5335
 21
-79.272
  0
LINE
  8
0
 10
20.5335
 20
-79.272
 11
20.4507
 21
-79.2842
  0
LINE
  8
0
 10
20.4507
 20
-79.2842
 11
20.3674
 21
-79.293
  0
LINE
  8
0
 10
20.3674
 20
-79.293
 11
20.2837
 21
-79.2982
  0
LINE
  8
0
 10
20.2837
 20
-79.2982
 11
20.2
 21
-79.3
  0
LINE
  8
0
 10
20.2
 20
-79.3
 11
20.1162
 21
-79.2982
  0
LINE
  8
0
 10
99.7162
 20
-79.2982
 11
99.6326
 21
-79.293
  0
LINE
  8
0
 10
99.6326
 20
-79.293
 11
99.5493
 21
-79.2842
  0
LINE
  8
0
 10
99.5493
 20
-79.2842
 11
99.4664
 21
-79.272
  0
LINE
  8
0
 10
99.4664
 20
-79.272
 11
99.3842
 21
-79.2563
  0
LINE
  8
0
 10
99.3842
 20
-79.2563
 11
99.3026
 21
-79.2372
  0
LINE
  8
0
 10
99.3026
 20
-79.2372
 11
99.2219
 21
-79.2146
  0
LINE
  8
0
 10
99.2219
 20
-79.2146
 11
99.1422
 21
-79.1888
  0
LINE
  8
0
 10
99.1422
 20
-79.1888
 11
99.0637
 21
-79.1595
  0
LINE
  8
0
 10
99.0637
 20
-79.1595
 11
98.9865
 21
-79.1271
  0
LINE
  8
0
 10
98.9865
 20
-79.1271
 11
98.9107
 21
-79.0914
  0
LINE
  8
0
 10
98.9107
 20
-79.0914
 11
98.8365
 21
-79.0526
  0
LINE
  8
0
 10
98.8365
 20
-79.0526
 11
98.7639
 21
-79.0107
  0
LINE
  8
0
 10
98.7639
 20
-79.0107
 11
98.6932
 21
-78.9658
  0
LINE
  8
0
 10
98.6932
 20
-78.9658
 11
98.6244
 21
-78.918
  0
LINE
  8
0
 10
98.6244
 20
-78.918
 11
98.5577
 21
-78.8674
  0
LINE
  8
0
 10
98.5577
 20
-78.8674
 11
98.4931
 21
-78.814
  0
LINE
  8
0
 10
98.4931
 20
-78.814
 11
98.4309
 21
-78.7579
  0
LINE
  8
0
 10
98.4309
 20
-78.7579
 11
98.371
 21
-78.6993
  0
LINE
  8
0
 10
98.371
 20
-78.6993
 11
98.3137
 21
-78.6383
  0
LINE
  8
0
 10
98.3137
 20
-78.6383
 11
98.259
 21
-78.5748
  0
LINE
  8
0
 10
98.259
 20
-78.5748
 11
98.2069
 21
-78.5092
  0
LINE
  8
0
 10
98.2069
 20
-78.5092
 11
98.1577
 21
-78.4414
  0
LINE
  8
0
 10
98.1577
 20
-78.4414
 11
98.1113
 21
-78.3716
  0
LINE
  8
0
 10
98.1113
 20
-78.3716
 11
98.0679
 21
-78.3
  0
LINE
  8
0
 10
98.0679
 20
-78.3
 11
98.0276
 21
-78.2266
  0
LINE
  8
0
 10
98.0276
 20
-78.2266
 11
97.9903
 21
-78.1516
  0
LINE
  8
0
 10
97.9903
 20
-78.1516
 11
97.9563
 21
-78.075
  0
LINE
  8
0
 10
97.9563
 20
-78.075
 11
97.9254
 21
-77.9971
  0
LINE
  8
0
 10
97.9254
 20
-77.9971
 11
97.8979
 21
-77.918
  0
LINE
  8
0
 10
97.8979
 20
-77.918
 11
97.8737
 21
-77.8378
  0
LINE
  8
0
 10
97.8737
 20
-77.8378
 11
97.8528
 21
-77.7567
  0
LINE
  8
0
 10
97.8528
 20
-77.7567
 11
97.8354
 21
-77.6748
  0
LINE
  8
0
 10
97.8354
 20
-77.6748
 11
97.8214
 21
-77.5922
  0
LINE
  8
0
 10
97.8214
 20
-77.5922
 11
97.8109
 21
-77.509
  0
LINE
  8
0
 10
97.8109
 20
-77.509
 11
97.8039
 21
-77.4256
  0
LINE
  8
0
 10
97.8039
 20
-77.4256
 11
97.8004
 21
-77.3419
  0
LINE
  8
0
 10
97.8004
 20
-77.3419
 11
97.8004
 21
-77.2581
  0
LINE
  8
0
 10
97.8004
 20
-77.2581
 11
97.8039
 21
-77.1744
  0
LINE
  8
0
 10
97.8039
 20
-77.1744
 11
97.8109
 21
-77.0909
  0
LINE
  8
0
 10
97.8109
 20
-77.0909
 11
97.8214
 21
-77.0078
  0
LINE
  8
0
 10
97.8214
 20
-77.0078
 11
97.8354
 21
-76.9252
  0
LINE
  8
0
 10
97.8354
 20
-76.9252
 11
97.8528
 21
-76.8433
  0
LINE
  8
0
 10
97.8528
 20
-76.8433
 11
97.8737
 21
-76.7621
  0
LINE
  8
0
 10
97.8737
 20
-76.7621
 11
97.8979
 21
-76.682
  0
LINE
  8
0
 10
97.8979
 20
-76.682
 11
97.9254
 21
-76.6028
  0
LINE
  8
0
 10
97.9254
 20
-76.6028
 11
97.9563
 21
-76.525
  0
LINE
  8
0
 10
97.9563
 20
-76.525
 11
97.9903
 21
-76.4484
  0
LINE
  8
0
 10
97.9903
 20
-76.4484
 11
98.0276
 21
-76.3734
  0
LINE
  8
0
 10
98.0276
 20
-76.3734
 11
98.0679
 21
-76.3
  0
LINE
  8
0
 10
98.0679
 20
-76.3
 11
98.1113
 21
-76.2283
  0
LINE
  8
0
 10
98.1113
 20
-76.2283
 11
98.1577
 21
-76.1586
  0
LINE
  8
0
 10
98.1577
 20
-76.1586
 11
98.2069
 21
-76.0908
  0
LINE
  8
0
 10
98.2069
 20
-76.0908
 11
98.259
 21
-76.0251
  0
LINE
  8
0
 10
98.259
 20
-76.0251
 11
98.3137
 21
-75.9617
  0
LINE
  8
0
 10
98.3137
 20
-75.9617
 11
98.371
 21
-75.9007
  0
LINE
  8
0
 10
98.371
 20
-75.9007
 11
98.4309
 21
-75.8421
  0
LINE
  8
0
 10
98.4309
 20
-75.8421
 11
98.4931
 21
-75.786
  0
LINE
  8
0
 10
98.4931
 20
-75.786
 11
98.5577
 21
-75.7326
  0
LINE
  8
0
 10
98.5577
 20
-75.7326
 11
98.6244
 21
-75.682
  0
LINE
  8
0
 10
98.6244
 20
-75.682
 11
98.6932
 21
-75.6342
  0
LINE
  8
0
 10
98.6932
 20
-75.6342
 11
98.7639
 21
-75.5893
  0
LINE
  8
0
 10
98.7639
 20
-75.5893
 11
98.8365
 21
-75.5474
  0
LINE
  8
0
 10
98.8365
 20
-75.5474
 11
98.9107
 21
-75.5086
  0
LINE
  8
0
 10
98.9107
 20
-75.5086
 11
98.9865
 21
-75.4729
  0
LINE
  8
0
 10
98.9865
 20
-75.4729
 11
99.0637
 21
-75.4404
  0
LINE
  8
0
 10
99.0637
 20
-75.4404
 11
99.1422
 21
-75.4112
  0
LINE
  8
0
 10
99.1422
 20
-75.4112
 11
99.2219
 21
-75.3854
  0
LINE
  8
0
 10
99.2219
 20
-75.3854
 11
99.3026
 21
-75.3628
  0
LINE
  8
0
 10
99.3026
 20
-75.3628
 11
99.3842
 21
-75.3437
  0
LINE
  8
0
 10
99.3842
 20
-75.3437
 11
99.4664
 21
-75.328
  0
LINE
  8
0
 10
99.4664
 20
-75.328
 11
99.5493
 21
-75.3158
  0
LINE
  8
0
 10
99.5493
 20
-75.3158
 11
99.6326
 21
-75.307
  0
LINE
  8
0
 10
99.6326
 20
-75.307
 11
99.7162
 21
-75.3017
  0
LINE
  8
0
 10
99.7162
 20
-75.3017
 11
99.8
 21
-75.3
  0
LINE
  8
0
 10
99.8
 20
-75.3
 11
99.8837
 21
-75.3017
  0
LINE
  8
0
 10
99.8837
 20
-75.3017
 11
99.9673
 21
-75.307
  0
LINE
  8
0
 10
99.9673
 20
-75.307
 11
100.051
 21
-75.3158
  0
LINE
  8
0
 10
100.051
 20
-75.3158
 11
100.134
 21
-75.328
  0
LINE
  8
0
 10
100.134
 20
-75.328
 11
100.216
 21
-75.3437
  0
LINE
  8
0
 10
100.216
 20
-75.3437
 11
100.297
 21
-75.3628
  0
LINE
  8
0
 10
100.297
 20
-75.3628
 11
100.378
 21
-75.3854
  0
LINE
  8
0
 10
100.378
 20
-75.3854
 11
100.458
 21
-75.4112
  0
LINE
  8
0
 10
100.458
 20
-75.4112
 11
100.536
 21
-75.4404
  0
LINE
  8
0
 10
100.536
 20
-75.4404
 11
100.613
 21
-75.4729
  0
LINE
  8
0
 10
100.613
 20
-75.4729
 11
100.689
 21
-75.5086
  0
LINE
  8
0
 10
100.689
 20
-75.5086
 11
100.763
 21
-75.5474
  0
LINE
  8
0
 10
100.763
 20
-75.5474
 11
100.836
 21
-75.5893
  0
LINE
  8
0
 10
100.836
 20
-75.5893
 11
100.907
 21
-75.6342
  0
LINE
  8
0
 10
100.907
 20
-75.6342
 11
100.976
 21
-75.682
  0
LINE
  8
0
 10
100.976
 20
-75.682
 11
101.042
 21
-75.7326
  0
LINE
  8
0
 10
101.042
 20
-75.7326
 11
101.107
 21
-75.786
  0
LINE
  8
0
 10
101.107
 20
-75.786
 11
101.169
 21
-75.8421
  0
LINE
  8
0
 10
101.169
 20
-75.8421
 11
101.229
 21
-75.9007
  0
LINE
  8
0
 10
101.229
 20
-75.9007
 11
101.286
 21
-75.9617
  0
LINE
  8
0
 10
101.286
 20
-75.9617
 11
101.341
 21
-76.0251
  0
LINE
  8
0
 10
101.341
 20
-76.0251
 11
101.393
 21
-76.0908
  0
LINE
  8
0
 10
101.393
 20
-76.0908
 11
101.442
 21
-76.1586
  0
LINE
  8
0
 10
101.442
 20
-76.1586
 11
101.489
 21
-76.2283
  0
LINE
  8
0
 10
101.489
 20
-76.2283
 11
101.532
 21
-76.3
  0
LINE
  8
0
 10
101.532
 20
-76.3
 11
101.572
 21
-76.3734
  0
LINE
  8
0
 10
101.572
 20
-76.3734
 11
101.61
 21
-76.4484
  0
LINE
  8
0
 10
101.61
 20
-76.4484
 11
101.644
 21
-76.525
  0
LINE
  8
0
 10
101.644
 20
-76.525
 11
101.675
 21
-76.6028
  0
LINE
  8
0
 10
101.675
 20
-76.6028
 11
101.702
 21
-76.682
  0
LINE
  8
0
 10
101.702
 20
-76.682
 11
101.726
 21
-76.7621
  0
LINE
  8
0
 10
101.726
 20
-76.7621
 11
101.747
 21
-76.8433
  0
LINE
  8
0
 10
101.747
 20
-76.8433
 11
101.765
 21
-76.9252
  0
LINE
  8
0
 10
101.765
 20
-76.9252
 11
101.779
 21
-77.0078
  0
LINE
  8
0
 10
101.779
 20
-77.0078
 11
101.789
 21
-77.0909
  0
LINE
  8
0
 10
101.789
 20
-77.0909
 11
101.796
 21
-77.1744
  0
LINE
  8
0
 10
101.796
 20
-77.1744
 11
101.8
 21
-77.2581
  0
LINE
  8
0
 10
101.8
 20
-77.2581
 11
101.8
 21
-77.3419
  0
LINE
  8
0
 10
101.8
 20
-77.3419
 11
101.796
 21
-77.4256
  0
LINE
  8
0
 10
101.796
 20
-77.4256
 11
101.789
 21
-77.509
  0
LINE
  8
0
 10
101.789
 20
-77.509
 11
101.779
 21
-77.5922
  0
LINE
  8
0
 10
101.779
 20
-77.5922
 11
101.765
 21
-77.6748
  0
LINE
  8
0
 10
101.765
 20
-77.6748
 11
101.747
 21
-77.7567
  0
LINE
  8
0
 10
101.747
 20
-77.7567
 11
101.726
 21
-77.8378
  0
LINE
  8
0
 10
101.726
 20
-77.8378
 11
101.702
 21
-77.918
  0
LINE
  8
0
 10
101.702
 20
-77.918
 11
101.675
 21
-77.9971
  0
LINE
  8
0
 10
101.675
 20
-77.9971
 11
101.644
 21
-78.075
  0
LINE
  8
0
 10
101.644
 20
-78.075
 11
101.61
 21
-78.1516
  0
LINE
  8
0
 10
101.61
 20
-78.1516
 11
101.572
 21
-78.2266
  0
LINE
  8
0
 10
101.572
 20
-78.2266
 11
101.532
 21
-78.3
  0
LINE
  8
0
 10
101.532
 20
-78.3
 11
101.489
 21
-78.3716
  0
LINE
  8
0
 10
101.489
 20
-78.3716
 11
101.442
 21
-78.4414
  0
LINE
  8
0
 10
101.442
 20
-78.4414
 11
101.393
 21
-78.5092
  0
LINE
  8
0
 10
101.393
 20
-78.5092
 11
101.341
 21
-78.5748
  0
LINE
  8
0
 10
101.341
 20
-78.5748
 11
101.286
 21
-78.6383
  0
LINE
  8
0
 10
101.286
 20
-78.6383
 11
101.229
 21
-78.6993
  0
LINE
  8
0
 10
101.229
 20
-78.6993
 11
101.169
 21
-78.7579
  0
LINE
  8
0
 10
101.169
 20
-78.7579
 11
101.107
 21
-78.814
  0
LINE
  8
0
 10
101.107
 20
-78.814
 11
101.042
 21
-78.8674
  0
LINE
  8
0
 10
101.042
 20
-78.8674
 11
100.976
 21
-78.918
  0
LINE
  8
0
 10
100.976
 20
-78.918
 11
100.907
 21
-78.9658
  0
LINE
  8
0
 10
100.907
 20
-78.9658
 11
100.836
 21
-79.0107
  0
LINE
  8
0
 10
100.836
 20
-79.0107
 11
100.763
 21
-79.0526
  0
LINE
  8
0
 10
100.763
 20
-79.0526
 11
100.689
 21
-79.0914
  0
LINE
  8
0
 10
100.689
 20
-79.0914
 11
100.613
 21
-79.1271
  0
LINE
  8
0
 10
100.613
 20
-79.1271
 11
100.536
 21
-79.1595
  0
LINE
  8
0
 10
100.536
 20
-79.1595
 11
100.458
 21
-79.1888
  0
LINE
  8
0
 10
100.458
 20
-79.1888
 11
100.378
 21
-79.2146
  0
LINE
  8
0
 10
100.378
 20
-79.2146
 11
100.297
 21
-79.2372
  0
LINE
  8
0
 10
100.297
 20
-79.2372
 11
100.216
 21
-79.2563
  0
LINE
  8
0
 10
100.216
 20
-79.2563
 11
100.134
 21
-79.272
  0
LINE
  8
0
 10
100.134
 20
-79.272
 11
100.051
 21
-79.2842
  0
LINE
  8
0
 10
100.051
 20
-79.2842
 11
99.9673
 21
-79.293
  0
LINE
  8
0
 10
99.9673
 20
-79.293
 11
99.8837
 21
-79.2982
  0
LINE
  8
0
 10
99.8837
 20
-79.2982
 11
99.8
 21
-79.3
  0
LINE
  8
0
 10
99.8
 20
-79.3
 11
99.7162
 21
-79.2982
  0
LINE
  8
0
 10
-66.0411
 20
-88.97
 11
-53.9589
 21
-88.97
  0
LINE
  8
0
 10
-53.9589
 20
-88.97
 11
-53.9589
 21
-92.67
  0
LINE
  8
0
 10
-53.9589
 20
-92.67
 11
-41.5967
 21
-92.67
  0
LINE
  8
0
 10
-41.5967
 20
-92.67
 11
-41.5967
 21
-88.97
  0
LINE
  8
0
 10
-41.5967
 20
-88.97
 11
-29.5145
 21
-88.97
  0
LINE
  8
0
 10
-29.5145
 20
-88.97
 11
-29.5145
 21
-92.67
  0
LINE
  8
0
 10
-29.5145
 20
-92.67
 11
-17.1522
 21
-92.67
  0
LINE
  8
0
 10
-17.1522
 20
-92.67
 11
-17.1522
 21
-88.97
  0
LINE
  8
0
 10
-17.1522
 20
-88.97
 11
-8.53001
 21
-88.97
  0
LINE
  8
0
 10
-8.53001
 20
-88.97
 11
-8.53001
 21
-82.8331
  0
LINE
  8
0
 10
-8.53001
 20
-82.8331
 11
-4.83
 21
-82.8331
  0
LINE
  8
0
 10
-4.83
 20
-82.8331
 11
-4.83
 21
-72.9563
  0
LINE
  8
0
 10
-4.83
 20
-72.9563
 11
-8.53001
 21
-72.9563
  0
LINE
  8
0
 10
-8.53001
 20
-72.9563
 11
-8.53001
 21
-63.3595
  0
LINE
  8
0
 10
-8.53001
 20
-63.3595
 11
-4.83
 21
-63.3595
  0
LINE
  8
0
 10
-4.83
 20
-63.3595
 11
-4.83
 21
-53.4826
  0
LINE
  8
0
 10
-4.83
 20
-53.4826
 11
-8.53001
 21
-53.4826
  0
LINE
  8
0
 10
-8.53001
 20
-53.4826
 11
-8.53001
 21
-43.8858
  0
LINE
  8
0
 10
-8.53001
 20
-43.8858
 11
-4.83
 21
-43.8858
  0
LINE
  8
0
 10
-4.83
 20
-43.8858
 11
-4.83
 21
-34.0089
  0
LINE
  8
0
 10
-4.83
 20
-34.0089
 11
-8.53001
 21
-34.0089
  0
LINE
  8
0
 10
-8.53001
 20
-34.0089
 11
-8.53001
 21
-24.4121
  0
LINE
  8
0
 10
-8.53001
 20
-24.4121
 11
-4.83
 21
-24.4121
  0
LINE
  8
0
 10
-4.83
 20
-24.4121
 11
-4.83
 21
-14.5353
  0
LINE
  8
0
 10
-4.83
 20
-14.5353
 11
-8.53001
 21
-14.5353
  0
LINE
  8
0
 10
-8.53001
 20
-14.5353
 11
-8.53001
 21
-4.93842
  0
LINE
  8
0
 10
-8.53001
 20
-4.93842
 11
-4.83
 21
-4.93842
  0
LINE
  8
0
 10
-4.83
 20
-4.93842
 11
-4.83
 21
4.9384
  0
LINE
  8
0
 10
-4.83
 20
4.9384
 11
-8.53001
 21
4.9384
  0
LINE
  8
0
 10
-8.53001
 20
4.9384
 11
-8.53001
 21
14.5352
  0
LINE
  8
0
 10
-8.53001
 20
14.5352
 11
-4.83
 21
14.5352
  0
LINE
  8
0
 10
-4.83
 20
14.5352
 11
-4.82999
 21
24.4121
  0
LINE
  8
0
 10
-4.82999
 20
24.4121
 11
-8.53
 21
24.4121
  0
LINE
  8
0
 10
-8.53
 20
24.4121
 11
-8.53
 21
34.0089
  0
LINE
  8
0
 10
-8.53
 20
34.0089
 11
-4.82999
 21
34.0089
  0
LINE
  8
0
 10
-4.82999
 20
34.0089
 11
-4.82999
 21
43.8858
  0
LINE
  8
0
 10
-4.82999
 20
43.8858
 11
-8.53
 21
43.8858
  0
LINE
  8
0
 10
-8.53
 20
43.8858
 11
-8.53
 21
53.4826
  0
LINE
  8
0
 10
-8.53
 20
53.4826
 11
-4.82999
 21
53.4826
  0
LINE
  8
0
 10
-4.82999
 20
53.4826
 11
-4.82999
 21
63.3595
  0
LINE
  8
0
 10
-4.82999
 20
63.3595
 11
-8.53
 21
63.3595
  0
LINE
  8
0
 10
-8.53
 20
63.3595
 11
-8.53
 21
72.9563
  0
LINE
  8
0
 10
-8.53
 20
72.9563
 11
-4.82999
 21
72.9563
  0
LINE
  8
0
 10
-4.82999
 20
72.9563
 11
-4.82999
 21
82.8331
  0
LINE
  8
0
 10
-4.82999
 20
82.8331
 11
-8.53
 21
82.8331
  0
LINE
  8
0
 10
-8.53
 20
82.8331
 11
-8.53
 21
88.97
  0
LINE
  8
0
 10
-8.53
 20
88.97
 11
-17.1522
 21
88.97
  0
LINE
  8
0
 10
-17.1522
 20
88.97
 11
-17.1522
 21
92.67
  0
LINE
  8
0
 10
-17.1522
 20
92.67
 11
-29.5144
 21
92.67
  0
LINE
  8
0
 10
-29.5144
 20
92.67
 11
-29.5144
 21
88.97
  0
LINE
  8
0
 10
-29.5144
 20
88.97
 11
-41.5967
 21
88.97
  0
LINE
  8
0
 10
-41.5967
 20
88.97
 11
-41.5967
 21
92.67
  0
LINE
  8
0
 10
-41.5967
 20
92.67
 11
-53.9589
 21
92.67
  0
LINE
  8
0
 10
-53.9589
 20
92.67
 11
-53.9589
 21
88.97
  0
LINE
  8
0
 10
-53.9589
 20
88.97
 11
-66.0411
 21
88.97
  0
LINE
  8
0
 10
-66.0411
 20
88.97
 11
-66.0411
 21
92.67
  0
LINE
  8
0
 10
-66.0411
 20
92.67
 11
-78.4033
 21
92.67
  0
LINE
  8
0
 10
-78.4033
 20
92.67
 11
-78.4033
 21
88.97
  0
LINE
  8
0
 10
-78.4033
 20
88.97
 11
-90.4855
 21
88.97
  0
LINE
  8
0
 10
-90.4855
 20
88.97
 11
-90.4855
 21
92.67
  0
LINE
  8
0
 10
-90.4855
 20
92.67
 11
-102.848
 21
92.67
  0
LINE
  8
0
 10
-102.848
 20
92.67
 11
-102.848
 21
88.97
  0
LINE
  8
0
 10
-102.848
 20
88.97
 11
-111.47
 21
88.97
  0
LINE
  8
0
 10
-111.47
 20
88.97
 11
-111.47
 21
82.8331
  0
LINE
  8
0
 10
-111.47
 20
82.8331
 11
-115.17
 21
82.8331
  0
LINE
  8
0
 10
-115.17
 20
82.8331
 11
-115.17
 21
72.9563
  0
LINE
  8
0
 10
-115.17
 20
72.9563
 11
-111.47
 21
72.9563
  0
LINE
  8
0
 10
-111.47
 20
72.9563
 11
-111.47
 21
63.3595
  0
LINE
  8
0
 10
-111.47
 20
63.3595
 11
-115.17
 21
63.3595
  0
LINE
  8
0
 10
-115.17
 20
63.3595
 11
-115.17
 21
53.4826
  0
LINE
  8
0
 10
-115.17
 20
53.4826
 11
-111.47
 21
53.4826
  0
LINE
  8
0
 10
-111.47
 20
53.4826
 11
-111.47
 21
43.8858
  0
LINE
  8
0
 10
-111.47
 20
43.8858
 11
-115.17
 21
43.8858
  0
LINE
  8
0
 10
-115.17
 20
43.8858
 11
-115.17
 21
34.0089
  0
LINE
  8
0
 10
-115.17
 20
34.0089
 11
-111.47
 21
34.0089
  0
LINE
  8
0
 10
-111.47
 20
34.0089
 11
-111.47
 21
24.4121
  0
LINE
  8
0
 10
-111.47
 20
24.4121
 11
-115.17
 21
24.4121
  0
LINE
  8
0
 10
-115.17
 20
24.4121
 11
-115.17
 21
14.5353
  0
LINE
  8
0
 10
-115.17
 20
14.5353
 11
-111.47
 21
14.5353
  0
LINE
  8
0
 10
-111.47
 20
14.5353
 11
-111.47
 21
4.93842
  0
LINE
  8
0
 10
-111.47
 20
4.93842
 11
-115.17
 21
4.93842
  0
LINE
  8
0
 10
-115.17
 20
4.93842
 11
-115.17
 21
-4.9384
  0
LINE
  8
0
 10
-115.17
 20
-4.9384
 11
-111.47
 21
-4.9384
  0
LINE
  8
0
 10
-111.47
 20
-4.9384
 11
-111.47
 21
-14.5352
  0
LINE
  8
0
 10
-111.47
 20
-14.5352
 11
-115.17
 21
-14.5352
  0
LINE
  8
0
 10
-115.17
 20
-14.5352
 11
-115.17
 21
-24.4121
  0
LINE
  8
0
 10
-115.17
 20
-24.4121
 11
-111.47
 21
-24.4121
  0
LINE
  8
0
 10
-111.47
 20
-24.4121
 11
-111.47
 21
-34.0089
  0
LINE
  8
0
 10
-111.47
 20
-34.0089
 11
-115.17
 21
-34.0089
  0
LINE
  8
0
 10
-115.17
 20
-34.0089
 11
-115.17
 21
-43.8858
  0
LINE
  8
0
 10
-115.17
 20
-43.8858
 11
-111.47
 21
-43.8858
  0
LINE
  8
0
 10
-111.47
 20
-43.8858
 11
-111.47
 21
-53.4826
  0
LINE
  8
0
 10
-111.47
 20
-53.4826
 11
-115.17
 21
-53.4826
  0
LINE
  8
0
 10
-115.17
 20
-53.4826
 11
-115.17
 21
-63.3595
  0
LINE
  8
0
 10
-115.17
 20
-63.3595
 11
-111.47
 21
-63.3595
  0
LINE
  8
0
 10
-111.47
 20
-63.3595
 11
-111.47
 21
-72.9563
  0
LINE
  8
0
 10
-111.47
 20
-72.9563
 11
-115.17
 21
-72.9563
  0
LINE
  8
0
 10
-115.17
 20
-72.9563
 11
-115.17
 21
-82.8331
  0
LINE
  8
0
 10
-115.17
 20
-82.8331
 11
-111.47
 21
-82.8331
  0
LINE
  8
0
 10
-111.47
 20
-82.8331
 11
-111.47
 21
-88.97
  0
LINE
  8
0
 10
-111.47
 20
-88.97
 11
-102.848
 21
-88.97
  0
LINE
  8
0
 10
-102.848
 20
-88.97
 11
-102.848
 21
-92.67
  0
LINE
  8
0
 10
-102.848
 20
-92.67
 11
-90.4855
 21
-92.67
  0
LINE
  8
0
 10
-90.4855
 20
-92.67
 11
-90.4855
 21
-88.97
  0
LINE
  8
0
 10
-90.4855
 20
-88.97
 11
-78.4033
 21
-88.97
  0
LINE
  8
0
 10
-78.4033
 20
-88.97
 11
-78.4033
 21
-92.67
  0
LINE
  8
0
 10
-78.4033
 20
-92.67
 11
-66.0411
 21
-92.67
  0
LINE
  8
0
 10
-66.0411
 20
-92.67
 11
-66.0411
 21
-88.97
  0
LINE
  8
0
 10
-99.8837
 20
75.3017
 11
-99.9673
 21
75.307
  0
LINE
  8
0
 10
-99.9673
 20
75.307
 11
-100.051
 21
75.3158
  0
LINE
  8
0
 10
-100.051
 20
75.3158
 11
-100.134
 21
75.328
  0
LINE
  8
0
 10
-100.134
 20
75.328
 11
-100.216
 21
75.3437
  0
LINE
  8
0
 10
-100.216
 20
75.3437
 11
-100.297
 21
75.3628
  0
LINE
  8
0
 10
-100.297
 20
75.3628
 11
-100.378
 21
75.3854
  0
LINE
  8
0
 10
-100.378
 20
75.3854
 11
-100.458
 21
75.4112
  0
LINE
  8
0
 10
-100.458
 20
75.4112
 11
-100.536
 21
75.4404
  0
LINE
  8
0
 10
-100.536
 20
75.4404
 11
-100.613
 21
75.4729
  0
LINE
  8
0
 10
-100.613
 20
75.4729
 11
-100.689
 21
75.5086
  0
LINE
  8
0
 10
-100.689
 20
75.5086
 11
-100.763
 21
75.5474
  0
LINE
  8
0
 10
-100.763
 20
75.5474
 11
-100.836
 21
75.5893
  0
LINE
  8
0
 10
-100.836
 20
75.5893
 11
-100.907
 21
75.6342
  0
LINE
  8
0
 10
-100.907
 20
75.6342
 11
-100.976
 21
75.682
  0
LINE
  8
0
 10
-100.976
 20
75.682
 11
-101.042
 21
75.7326
  0
LINE
  8
0
 10
-101.042
 20
75.7326
 11
-101.107
 21
75.786
  0
LINE
  8
0
 10
-101.107
 20
75.786
 11
-101.169
 21
75.8421
  0
LINE
  8
0
 10
-101.169
 20
75.8421
 11
-101.229
 21
75.9007
  0
LINE
  8
0
 10
-101.229
 20
75.9007
 11
-101.286
 21
75.9617
  0
LINE
  8
0
 10
-101.286
 20
75.9617
 11
-101.341
 21
76.0251
  0
LINE
  8
0
 10
-101.341
 20
76.0251
 11
-101.393
 21
76.0908
  0
LINE
  8
0
 10
-101.393
 20
76.0908
 11
-101.442
 21
76.1586
  0
LINE
  8
0
 10
-101.442
 20
76.1586
 11
-101.489
 21
76.2283
  0
LINE
  8
0
 10
-101.489
 20
76.2283
 11
-101.532
 21
76.3
  0
LINE
  8
0
 10
-101.532
 20
76.3
 11
-101.572
 21
76.3734
  0
LINE
  8
0
 10
-101.572
 20
76.3734
 11
-101.61
 21
76.4484
  0
LINE
  8
0
 10
-101.61
 20
76.4484
 11
-101.644
 21
76.525
  0
LINE
  8
0
 10
-101.644
 20
76.525
 11
-101.675
 21
76.6028
  0
LINE
  8
0
 10
-101.675
 20
76.6028
 11
-101.702
 21
76.682
  0
LINE
  8
0
 10
-101.702
 20
76.682
 11
-101.726
 21
76.7621
  0
LINE
  8
0
 10
-101.726
 20
76.7621
 11
-101.747
 21
76.8433
  0
LINE
  8
0
 10
-101.747
 20
76.8433
 11
-101.765
 21
76.9252
  0
LINE
  8
0
 10
-101.765
 20
76.9252
 11
-101.779
 21
77.0078
  0
LINE
  8
0
 10
-101.779
 20
77.0078
 11
-101.789
 21
77.0909
  0
LINE
  8
0
 10
-101.789
 20
77.0909
 11
-101.796
 21
77.1744
  0
LINE
  8
0
 10
-101.796
 20
77.1744
 11
-101.8
 21
77.2581
  0
LINE
  8
0
 10
-101.8
 20
77.2581
 11
-101.8
 21
77.3419
  0
LINE
  8
0
 10
-101.8
 20
77.3419
 11
-101.796
 21
77.4256
  0
LINE
  8
0
 10
-101.796
 20
77.4256
 11
-101.789
 21
77.509
  0
LINE
  8
0
 10
-101.789
 20
77.509
 11
-101.779
 21
77.5922
  0
LINE
  8
0
 10
-101.779
 20
77.5922
 11
-101.765
 21
77.6748
  0
LINE
  8
0
 10
-101.765
 20
77.6748
 11
-101.747
 21
77.7567
  0
LINE
  8
0
 10
-101.747
 20
77.7567
 11
-101.726
 21
77.8378
  0
LINE
  8
0
 10
-101.726
 20
77.8378
 11
-101.702
 21
77.918
  0
LINE
  8
0
 10
-101.702
 20
77.918
 11
-101.675
 21
77.9971
  0
LINE
  8
0
 10
-101.675
 20
77.9971
 11
-101.644
 21
78.075
  0
LINE
  8
0
 10
-101.644
 20
78.075
 11
-101.61
 21
78.1516
  0
LINE
  8
0
 10
-101.61
 20
78.1516
 11
-101.572
 21
78.2266
  0
LINE
  8
0
 10
-101.572
 20
78.2266
 11
-101.532
 21
78.3
  0
LINE
  8
0
 10
-101.532
 20
78.3
 11
-101.489
 21
78.3716
  0
LINE
  8
0
 10
-101.489
 20
78.3716
 11
-101.442
 21
78.4414
  0
LINE
  8
0
 10
-101.442
 20
78.4414
 11
-101.393
 21
78.5092
  0
LINE
  8
0
 10
-101.393
 20
78.5092
 11
-101.341
 21
78.5748
  0
LINE
  8
0
 10
-101.341
 20
78.5748
 11
-101.286
 21
78.6383
  0
LINE
  8
0
 10
-101.286
 20
78.6383
 11
-101.229
 21
78.6993
  0
LINE
  8
0
 10
-101.229
 20
78.6993
 11
-101.169
 21
78.7579
  0
LINE
  8
0
 10
-101.169
 20
78.7579
 11
-101.107
 21
78.814
  0
LINE
  8
0
 10
-101.107
 20
78.814
 11
-101.042
 21
78.8674
  0
LINE
  8
0
 10
-101.042
 20
78.8674
 11
-100.976
 21
78.918
  0
LINE
  8
0
 10
-100.976
 20
78.918
 11
-100.907
 21
78.9658
  0
LINE
  8
0
 10
-100.907
 20
78.9658
 11
-100.836
 21
79.0107
  0
LINE
  8
0
 10
-100.836
 20
79.0107
 11
-100.763
 21
79.0526
  0
LINE
  8
0
 10
-100.763
 20
79.0526
 11
-100.689
 21
79.0914
  0
LINE
  8
0
 10
-100.689
 20
79.0914
 11
-100.613
 21
79.1271
  0
LINE
  8
0
 10
-100.613
 20
79.1271
 11
-100.536
 21
79.1595
  0
LINE
  8
0
 10
-100.536
 20
79.1595
 11
-100.458
 21
79.1888
  0
LINE
  8
0
 10
-100.458
 20
79.1888
 11
-100.378
 21
79.2146
  0
LINE
  8
0
 10
-100.378
 20
79.2146
 11
-100.297
 21
79.2372
  0
LINE
  8
0
 10
-100.297
 20
79.2372
 11
-100.216
 21
79.2563
  0
LINE
  8
0
 10
-100.216
 20
79.2563
 11
-100.134
 21
79.272
  0
LINE
  8
0
 10
-100.134
 20
79.272
 11
-100.051
 21
79.2842
  0
LINE
  8
0
 10
-100.051
 20
79.2842
 11
-99.9673
 21
79.293
  0
LINE
  8
0
 10
-99.9673
 20
79.293
 11
-99.8837
 21
79.2982
  0
LINE
  8
0
 10
-99.8837
 20
79.2982
 11
-99.8
 21
79.3
  0
LINE
  8
0
 10
-99.8
 20
79.3
 11
-99.7162
 21
79.2982
  0
LINE
  8
0
 10
-99.7162
 20
79.2982
 11
-99.6326
 21
79.293
  0
LINE
  8
0
 10
-99.6326
 20
79.293
 11
-99.5493
 21
79.2842
  0
LINE
  8
0
 10
-99.5493
 20
79.2842
 11
-99.4664
 21
79.272
  0
LINE
  8
0
 10
-99.4664
 20
79.272
 11
-99.3842
 21
79.2563
  0
LINE
  8
0
 10
-99.3842
 20
79.2563
 11
-99.3026
 21
79.2372
  0
LINE
  8
0
 10
-99.3026
 20
79.2372
 11
-99.2219
 21
79.2146
  0
LINE
  8
0
 10
-99.2219
 20
79.2146
 11
-99.1422
 21
79.1888
  0
LINE
  8
0
 10
-99.1422
 20
79.1888
 11
-99.0637
 21
79.1595
  0
LINE
  8
0
 10
-99.0637
 20
79.1595
 11
-98.9865
 21
79.1271
  0
LINE
  8
0
 10
-98.9865
 20
79.1271
 11
-98.9107
 21
79.0914
  0
LINE
  8
0
 10
-98.9107
 20
79.0914
 11
-98.8365
 21
79.0526
  0
LINE
  8
0
 10
-98.8365
 20
79.0526
 11
-98.7639
 21
79.0107
  0
LINE
  8
0
 10
-98.7639
 20
79.0107
 11
-98.6932
 21
78.9658
  0
LINE
  8
0
 10
-98.6932
 20
78.9658
 11
-98.6244
 21
78.918
  0
LINE
  8
0
 10
-98.6244
 20
78.918
 11
-98.5577
 21
78.8674
  0
LINE
  8
0
 10
-98.5577
 20
78.8674
 11
-98.4931
 21
78.814
  0
LINE
  8
0
 10
-98.4931
 20
78.814
 11
-98.4309
 21
78.7579
  0
LINE
  8
0
 10
-98.4309
 20
78.7579
 11
-98.371
 21
78.6993
  0
LINE
  8
0
 10
-98.371
 20
78.6993
 11
-98.3137
 21
78.6383
  0
LINE
  8
0
 10
-98.3137
 20
78.6383
 11
-98.259
 21
78.5748
  0
LINE
  8
0
 10
-98.259
 20
78.5748
 11
-98.2069
 21
78.5092
  0
LINE
  8
0
 10
-98.2069
 20
78.5092
 11
-98.1577
 21
78.4414
  0
LINE
  8
0
 10
-98.1577
 20
78.4414
 11
-98.1113
 21
78.3716
  0
LINE
  8
0
 10
-98.1113
 20
78.3716
 11
-98.0679
 21
78.3
  0
LINE
  8
0
 10
-98.0679
 20
78.3
 11
-98.0276
 21
78.2266
  0
LINE
  8
0
 10
-98.0276
 20
78.2266
 11
-97.9903
 21
78.1516
  0
LINE
  8
0
 10
-97.9903
 20
78.1516
 11
-97.9563
 21
78.075
  0
LINE
  8
0
 10
-97.9563
 20
78.075
 11
-97.9254
 21
77.9971
  0
LINE
  8
0
 10
-97.9254
 20
77.9971
 11
-97.8979
 21
77.918
  0
LINE
  8
0
 10
-97.8979
 20
77.918
 11
-97.8737
 21
77.8378
  0
LINE
  8
0
 10
-97.8737
 20
77.8378
 11
-97.8528
 21
77.7567
  0
LINE
  8
0
 10
-97.8528
 20
77.7567
 11
-97.8354
 21
77.6748
  0
LINE
  8
0
 10
-97.8354
 20
77.6748
 11
-97.8214
 21
77.5922
  0
LINE
  8
0
 10
-97.8214
 20
77.5922
 11
-97.8109
 21
77.509
  0
LINE
  8
0
 10
-97.8109
 20
77.509
 11
-97.8039
 21
77.4256
  0
LINE
  8
0
 10
-97.8039
 20
77.4256
 11
-97.8004
 21
77.3419
  0
LINE
  8
0
 10
-97.8004
 20
77.3419
 11
-97.8004
 21
77.2581
  0
LINE
  8
0
 10
-97.8004
 20
77.2581
 11
-97.8039
 21
77.1744
  0
LINE
  8
0
 10
-97.8039
 20
77.1744
 11
-97.8109
 21
77.0909
  0
LINE
  8
0
 10
-97.8109
 20
77.0909
 11
-97.8214
 21
77.0078
  0
LINE
  8
0
 10
-97.8214
 20
77.0078
 11
-97.8354
 21
76.9252
  0
LINE
  8
0
 10
-97.8354
 20
76.9252
 11
-97.8528
 21
76.8433
  0
LINE
  8
0
 10
-97.8528
 20
76.8433
 11
-97.8737
 21
76.7621
  0
LINE
  8
0
 10
-97.8737
 20
76.7621
 11
-97.8979
 21
76.682
  0
LINE
  8
0
 10
-97.8979
 20
76.682
 11
-97.9254
 21
76.6028
  0
LINE
  8
0
 10
-97.9254
 20
76.6028
 11
-97.9563
 21
76.525
  0
LINE
  8
0
 10
-97.9563
 20
76.525
 11
-97.9903
 21
76.4484
  0
LINE
  8
0
 10
-97.9903
 20
76.4484
 11
-98.0276
 21
76.3734
  0
LINE
  8
0
 10
-98.0276
 20
76.3734
 11
-98.0679
 21
76.3
  0
LINE
  8
0
 10
-98.0679
 20
76.3
 11
-98.1113
 21
76.2283
  0
LINE
  8
0
 10
-98.1113
 20
76.2283
 11
-98.1577
 21
76.1586
  0
LINE
  8
0
 10
-98.1577
 20
76.1586
 11
-98.2069
 21
76.0908
  0
LINE
  8
0
 10
-98.2069
 20
76.0908
 11
-98.259
 21
76.0251
  0
LINE
  8
0
 10
-98.259
 20
76.0251
 11
-98.3137
 21
75.9617
  0
LINE
  8
0
 10
-98.3137
 20
75.9617
 11
-98.371
 21
75.9007
  0
LINE
  8
0
 10
-98.371
 20
75.9007
 11
-98.4309
 21
75.8421
  0
LINE
  8
0
 10
-98.4309
 20
75.8421
 11
-98.4931
 21
75.786
  0
LINE
  8
0
 10
-98.4931
 20
75.786
 11
-98.5577
 21
75.7326
  0
LINE
  8
0
 10
-98.5577
 20
75.7326
 11
-98.6244
 21
75.682
  0
LINE
  8
0
 10
-98.6244
 20
75.682
 11
-98.6932
 21
75.6342
  0
LINE
  8
0
 10
-98.6932
 20
75.6342
 11
-98.7639
 21
75.5893
  0
LINE
  8
0
 10
-98.7639
 20
75.5893
 11
-98.8365
 21
75.5474
  0
LINE
  8
0
 10
-98.8365
 20
75.5474
 11
-98.9107
 21
75.5086
  0
LINE
  8
0
 10
-98.9107
 20
75.5086
 11
-98.9865
 21
75.4729
  0
LINE
  8
0
 10
-98.9865
 20
75.4729
 11
-99.0637
 21
75.4404
  0
LINE
  8
0
 10
-99.0637
 20
75.4404
 11
-99.1422
 21
75.4112
  0
LINE
  8
0
 10
-99.1422
 20
75.4112
 11
-99.2219
 21
75.3854
  0
LINE
  8
0
 10
-99.2219
 20
75.3854
 11
-99.3026
 21
75.3628
  0
LINE
  8
0
 10
-99.3026
 20
75.3628
 11
-99.3842
 21
75.3437
  0
LINE
  8
0
 10
-99.3842
 20
75.3437
 11
-99.4664
 21
75.328
  0
LINE
  8
0
 10
-99.4664
 20
75.328
 11
-99.5493
 21
75.3158
  0
LINE
  8
0
 10
-99.5493
 20
75.3158
 11
-99.6326
 21
75.307
  0
LINE
  8
0
 10
-99.6326
 20
75.307
 11
-99.7162
 21
75.3017
  0
LINE
  8
0
 10
-99.7162
 20
75.3017
 11
-99.8
 21
75.3
  0
LINE
  8
0
 10
-99.8
 20
75.3
 11
-99.8837
 21
75.3017
  0
LINE
  8
0
 10
-20.2837
 20
75.3017
 11
-20.3674
 21
75.307
  0
LINE
  8
0
 10
-20.3674
 20
75.307
 11
-20.4507
 21
75.3158
  0
LINE
  8
0
 10
-20.4507
 20
75.3158
 11
-20.5335
 21
75.328
  0
LINE
  8
0
 10
-20.5335
 20
75.328
 11
-20.6158
 21
75.3437
  0
LINE
  8
0
 10
-20.6158
 20
75.3437
 11
-20.6974
 21
75.3628
  0
LINE
  8
0
 10
-20.6974
 20
75.3628
 11
-20.7781
 21
75.3853
  0
LINE
  8
0
 10
-20.7781
 20
75.3853
 11
-20.8577
 21
75.4112
  0
LINE
  8
0
 10
-20.8577
 20
75.4112
 11
-20.9362
 21
75.4404
  0
LINE
  8
0
 10
-20.9362
 20
75.4404
 11
-21.0135
 21
75.4729
  0
LINE
  8
0
 10
-21.0135
 20
75.4729
 11
-21.0893
 21
75.5086
  0
LINE
  8
0
 10
-21.0893
 20
75.5086
 11
-21.1635
 21
75.5474
  0
LINE
  8
0
 10
-21.1635
 20
75.5474
 11
-21.2361
 21
75.5892
  0
LINE
  8
0
 10
-21.2361
 20
75.5892
 11
-21.3068
 21
75.6341
  0
LINE
  8
0
 10
-21.3068
 20
75.6341
 11
-21.3756
 21
75.6819
  0
LINE
  8
0
 10
-21.3756
 20
75.6819
 11
-21.4423
 21
75.7326
  0
LINE
  8
0
 10
-21.4423
 20
75.7326
 11
-21.5068
 21
75.786
  0
LINE
  8
0
 10
-21.5068
 20
75.786
 11
-21.5691
 21
75.842
  0
LINE
  8
0
 10
-21.5691
 20
75.842
 11
-21.6289
 21
75.9007
  0
LINE
  8
0
 10
-21.6289
 20
75.9007
 11
-21.6863
 21
75.9617
  0
LINE
  8
0
 10
-21.6863
 20
75.9617
 11
-21.741
 21
76.0251
  0
LINE
  8
0
 10
-21.741
 20
76.0251
 11
-21.793
 21
76.0908
  0
LINE
  8
0
 10
-21.793
 20
76.0908
 11
-21.8423
 21
76.1586
  0
LINE
  8
0
 10
-21.8423
 20
76.1586
 11
-21.8886
 21
76.2283
  0
LINE
  8
0
 10
-21.8886
 20
76.2283
 11
-21.932
 21
76.3
  0
LINE
  8
0
 10
-21.932
 20
76.3
 11
-21.9724
 21
76.3734
  0
LINE
  8
0
 10
-21.9724
 20
76.3734
 11
-22.0096
 21
76.4484
  0
LINE
  8
0
 10
-22.0096
 20
76.4484
 11
-22.0437
 21
76.5249
  0
LINE
  8
0
 10
-22.0437
 20
76.5249
 11
-22.0746
 21
76.6028
  0
LINE
  8
0
 10
-22.0746
 20
76.6028
 11
-22.1021
 21
76.6819
  0
LINE
  8
0
 10
-22.1021
 20
76.6819
 11
-22.1263
 21
76.7621
  0
LINE
  8
0
 10
-22.1263
 20
76.7621
 11
-22.1472
 21
76.8433
  0
LINE
  8
0
 10
-22.1472
 20
76.8433
 11
-22.1646
 21
76.9252
  0
LINE
  8
0
 10
-22.1646
 20
76.9252
 11
-22.1785
 21
77.0078
  0
LINE
  8
0
 10
-22.1785
 20
77.0078
 11
-22.189
 21
77.0909
  0
LINE
  8
0
 10
-22.189
 20
77.0909
 11
-22.196
 21
77.1744
  0
LINE
  8
0
 10
-22.196
 20
77.1744
 11
-22.1996
 21
77.2581
  0
LINE
  8
0
 10
-22.1996
 20
77.2581
 11
-22.1996
 21
77.3419
  0
LINE
  8
0
 10
-22.1996
 20
77.3419
 11
-22.196
 21
77.4256
  0
LINE
  8
0
 10
-22.196
 20
77.4256
 11
-22.189
 21
77.509
  0
LINE
  8
0
 10
-22.189
 20
77.509
 11
-22.1785
 21
77.5921
  0
LINE
  8
0
 10
-22.1785
 20
77.5921
 11
-22.1646
 21
77.6747
  0
LINE
  8
0
 10
-22.1646
 20
77.6747
 11
-22.1472
 21
77.7567
  0
LINE
  8
0
 10
-22.1472
 20
77.7567
 11
-22.1263
 21
77.8378
  0
LINE
  8
0
 10
-22.1263
 20
77.8378
 11
-22.1021
 21
77.918
  0
LINE
  8
0
 10
-22.1021
 20
77.918
 11
-22.0746
 21
77.9971
  0
LINE
  8
0
 10
-22.0746
 20
77.9971
 11
-22.0437
 21
78.075
  0
LINE
  8
0
 10
-22.0437
 20
78.075
 11
-22.0096
 21
78.1515
  0
LINE
  8
0
 10
-22.0096
 20
78.1515
 11
-21.9724
 21
78.2266
  0
LINE
  8
0
 10
-21.9724
 20
78.2266
 11
-21.932
 21
78.3
  0
LINE
  8
0
 10
-21.932
 20
78.3
 11
-21.8886
 21
78.3716
  0
LINE
  8
0
 10
-21.8886
 20
78.3716
 11
-21.8423
 21
78.4414
  0
LINE
  8
0
 10
-21.8423
 20
78.4414
 11
-21.793
 21
78.5092
  0
LINE
  8
0
 10
-21.793
 20
78.5092
 11
-21.741
 21
78.5748
  0
LINE
  8
0
 10
-21.741
 20
78.5748
 11
-21.6863
 21
78.6382
  0
LINE
  8
0
 10
-21.6863
 20
78.6382
 11
-21.6289
 21
78.6993
  0
LINE
  8
0
 10
-21.6289
 20
78.6993
 11
-21.5691
 21
78.7579
  0
LINE
  8
0
 10
-21.5691
 20
78.7579
 11
-21.5068
 21
78.814
  0
LINE
  8
0
 10
-21.5068
 20
78.814
 11
-21.4423
 21
78.8674
  0
LINE
  8
0
 10
-21.4423
 20
78.8674
 11
-21.3756
 21
78.918
  0
LINE
  8
0
 10
-21.3756
 20
78.918
 11
-21.3068
 21
78.9658
  0
LINE
  8
0
 10
-21.3068
 20
78.9658
 11
-21.2361
 21
79.0107
  0
LINE
  8
0
 10
-21.2361
 20
79.0107
 11
-21.1635
 21
79.0526
  0
LINE
  8
0
 10
-21.1635
 20
79.0526
 11
-21.0893
 21
79.0914
  0
LINE
  8
0
 10
-21.0893
 20
79.0914
 11
-21.0135
 21
79.1271
  0
LINE
  8
0
 10
-21.0135
 20
79.1271
 11
-20.9362
 21
79.1595
  0
LINE
  8
0
 10
-20.9362
 20
79.1595
 11
-20.8577
 21
79.1887
  0
LINE
  8
0
 10
-20.8577
 20
79.1887
 11
-20.7781
 21
79.2146
  0
LINE
  8
0
 10
-20.7781
 20
79.2146
 11
-20.6974
 21
79.2371
  0
LINE
  8
0
 10
-20.6974
 20
79.2371
 11
-20.6158
 21
79.2563
  0
LINE
  8
0
 10
-20.6158
 20
79.2563
 11
-20.5335
 21
79.272
  0
LINE
  8
0
 10
-20.5335
 20
79.272
 11
-20.4507
 21
79.2842
  0
LINE
  8
0
 10
-20.4507
 20
79.2842
 11
-20.3674
 21
79.293
  0
LINE
  8
0
 10
-20.3674
 20
79.293
 11
-20.2837
 21
79.2982
  0
LINE
  8
0
 10
-20.2837
 20
79.2982
 11
-20.2
 21
79.3
  0
LINE
  8
0
 10
-20.2
 20
79.3
 11
-20.1162
 21
79.2982
  0
LINE
  8
0
 10
-20.1162
 20
79.2982
 11
-20.0326
 21
79.293
  0
LINE
  8
0
 10
-20.0326
 20
79.293
 11
-19.9493
 21
79.2842
  0
LINE
  8
0
 10
-19.9493
 20
79.2842
 11
-19.8665
 21
79.272
  0
LINE
  8
0
 10
-19.8665
 20
79.272
 11
-19.7842
 21
79.2563
  0
LINE
  8
0
 10
-19.7842
 20
79.2563
 11
-19.7026
 21
79.2371
  0
LINE
  8
0
 10
-19.7026
 20
79.2371
 11
-19.6219
 21
79.2146
  0
LINE
  8
0
 10
-19.6219
 20
79.2146
 11
-19.5423
 21
79.1887
  0
LINE
  8
0
 10
-19.5423
 20
79.1887
 11
-19.4637
 21
79.1595
  0
LINE
  8
0
 10
-19.4637
 20
79.1595
 11
-19.3865
 21
79.1271
  0
LINE
  8
0
 10
-19.3865
 20
79.1271
 11
-19.3107
 21
79.0914
  0
LINE
  8
0
 10
-19.3107
 20
79.0914
 11
-19.2365
 21
79.0526
  0
LINE
  8
0
 10
-19.2365
 20
79.0526
 11
-19.1639
 21
79.0107
  0
LINE
  8
0
 10
-19.1639
 20
79.0107
 11
-19.0932
 21
78.9658
  0
LINE
  8
0
 10
-19.0932
 20
78.9658
 11
-19.0244
 21
78.918
  0
LINE
  8
0
 10
-19.0244
 20
78.918
 11
-18.9577
 21
78.8674
  0
LINE
  8
0
 10
-18.9577
 20
78.8674
 11
-18.8932
 21
78.814
  0
LINE
  8
0
 10
-18.8932
 20
78.814
 11
-18.8309
 21
78.7579
  0
LINE
  8
0
 10
-18.8309
 20
78.7579
 11
-18.771
 21
78.6993
  0
LINE
  8
0
 10
-18.771
 20
78.6993
 11
-18.7137
 21
78.6382
  0
LINE
  8
0
 10
-18.7137
 20
78.6382
 11
-18.659
 21
78.5748
  0
LINE
  8
0
 10
-18.659
 20
78.5748
 11
-18.6069
 21
78.5092
  0
LINE
  8
0
 10
-18.6069
 20
78.5092
 11
-18.5577
 21
78.4414
  0
LINE
  8
0
 10
-18.5577
 20
78.4414
 11
-18.5113
 21
78.3716
  0
LINE
  8
0
 10
-18.5113
 20
78.3716
 11
-18.4679
 21
78.3
  0
LINE
  8
0
 10
-18.4679
 20
78.3
 11
-18.4276
 21
78.2266
  0
LINE
  8
0
 10
-18.4276
 20
78.2266
 11
-18.3903
 21
78.1515
  0
LINE
  8
0
 10
-18.3903
 20
78.1515
 11
-18.3563
 21
78.075
  0
LINE
  8
0
 10
-18.3563
 20
78.075
 11
-18.3254
 21
77.9971
  0
LINE
  8
0
 10
-18.3254
 20
77.9971
 11
-18.2979
 21
77.918
  0
LINE
  8
0
 10
-18.2979
 20
77.918
 11
-18.2737
 21
77.8378
  0
LINE
  8
0
 10
-18.2737
 20
77.8378
 11
-18.2528
 21
77.7567
  0
LINE
  8
0
 10
-18.2528
 20
77.7567
 11
-18.2354
 21
77.6747
  0
LINE
  8
0
 10
-18.2354
 20
77.6747
 11
-18.2215
 21
77.5921
  0
LINE
  8
0
 10
-18.2215
 20
77.5921
 11
-18.211
 21
77.509
  0
LINE
  8
0
 10
-18.211
 20
77.509
 11
-18.2039
 21
77.4256
  0
LINE
  8
0
 10
-18.2039
 20
77.4256
 11
-18.2004
 21
77.3419
  0
LINE
  8
0
 10
-18.2004
 20
77.3419
 11
-18.2004
 21
77.2581
  0
LINE
  8
0
 10
-18.2004
 20
77.2581
 11
-18.2039
 21
77.1744
  0
LINE
  8
0
 10
-18.2039
 20
77.1744
 11
-18.211
 21
77.0909
  0
LINE
  8
0
 10
-18.211
 20
77.0909
 11
-18.2215
 21
77.0078
  0
LINE
  8
0
 10
-18.2215
 20
77.0078
 11
-18.2354
 21
76.9252
  0
LINE
  8
0
 10
-18.2354
 20
76.9252
 11
-18.2528
 21
76.8433
  0
LINE
  8
0
 10
-18.2528
 20
76.8433
 11
-18.2737
 21
76.7621
  0
LINE
  8
0
 10
-18.2737
 20
76.7621
 11
-18.2979
 21
76.6819
  0
LINE
  8
0
 10
-18.2979
 20
76.6819
 11
-18.3254
 21
76.6028
  0
LINE
  8
0
 10
-18.3254
 20
76.6028
 11
-18.3563
 21
76.5249
  0
LINE
  8
0
 10
-18.3563
 20
76.5249
 11
-18.3903
 21
76.4484
  0
LINE
  8
0
 10
-18.3903
 20
76.4484
 11
-18.4276
 21
76.3734
  0
LINE
  8
0
 10
-18.4276
 20
76.3734
 11
-18.4679
 21
76.3
  0
LINE
  8
0
 10
-18.4679
 20
76.3
 11
-18.5113
 21
76.2283
  0
LINE
  8
0
 10
-18.5113
 20
76.2283
 11
-18.5577
 21
76.1586
  0
LINE
  8
0
 10
-18.5577
 20
76.1586
 11
-18.6069
 21
76.0908
  0
LINE
  8
0
 10
-18.6069
 20
76.0908
 11
-18.659
 21
76.0251
  0
LINE
  8
0
 10
-18.659
 20
76.0251
 11
-18.7137
 21
75.9617
  0
LINE
  8
0
 10
-18.7137
 20
75.9617
 11
-18.771
 21
75.9007
  0
LINE
  8
0
 10
-18.771
 20
75.9007
 11
-18.8309
 21
75.842
  0
LINE
  8
0
 10
-18.8309
 20
75.842
 11
-18.8932
 21
75.786
  0
LINE
  8
0
 10
-18.8932
 20
75.786
 11
-18.9577
 21
75.7326
  0
LINE
  8
0
 10
-18.9577
 20
75.7326
 11
-19.0244
 21
75.6819
  0
LINE
  8
0
 10
-19.0244
 20
75.6819
 11
-19.0932
 21
75.6341
  0
LINE
  8
0
 10
-19.0932
 20
75.6341
 11
-19.1639
 21
75.5892
  0
LINE
  8
0
 10
-19.1639
 20
75.5892
 11
-19.2365
 21
75.5474
  0
LINE
  8
0
 10
-19.2365
 20
75.5474
 11
-19.3107
 21
75.5086
  0
LINE
  8
0
 10
-19.3107
 20
75.5086
 11
-19.3865
 21
75.4729
  0
LINE
  8
0
 10
-19.3865
 20
75.4729
 11
-19.4637
 21
75.4404
  0
LINE
  8
0
 10
-19.4637
 20
75.4404
 11
-19.5423
 21
75.4112
  0
LINE
  8
0
 10
-19.5423
 20
75.4112
 11
-19.6219
 21
75.3853
  0
LINE
  8
0
 10
-19.6219
 20
75.3853
 11
-19.7026
 21
75.3628
  0
LINE
  8
0
 10
-19.7026
 20
75.3628
 11
-19.7842
 21
75.3437
  0
LINE
  8
0
 10
-19.7842
 20
75.3437
 11
-19.8665
 21
75.328
  0
LINE
  8
0
 10
-19.8665
 20
75.328
 11
-19.9493
 21
75.3158
  0
LINE
  8
0
 10
-19.9493
 20
75.3158
 11
-20.0326
 21
75.307
  0
LINE
  8
0
 10
-20.0326
 20
75.307
 11
-20.1162
 21
75.3017
  0
LINE
  8
0
 10
-20.1162
 20
75.3017
 11
-20.2
 21
75.3
  0
LINE
  8
0
 10
-20.2
 20
75.3
 11
-20.2837
 21
75.3017
  0
LINE
  8
0
 10
-83.0753
 20
44.9016
 11
-83.1506
 21
44.9063
  0
LINE
  8
0
 10
-83.1506
 20
44.9063
 11
-83.2256
 21
44.9142
  0
LINE
  8
0
 10
-83.2256
 20
44.9142
 11
-83.3002
 21
44.9252
  0
LINE
  8
0
 10
-83.3002
 20
44.9252
 11
-83.3742
 21
44.9393
  0
LINE
  8
0
 10
-83.3742
 20
44.9393
 11
-83.4476
 21
44.9565
  0
LINE
  8
0
 10
-83.4476
 20
44.9565
 11
-83.5202
 21
44.9768
  0
LINE
  8
0
 10
-83.5202
 20
44.9768
 11
-83.5919
 21
45.0001
  0
LINE
  8
0
 10
-83.5919
 20
45.0001
 11
-83.6626
 21
45.0264
  0
LINE
  8
0
 10
-83.6626
 20
45.0264
 11
-83.7321
 21
45.0556
  0
LINE
  8
0
 10
-83.7321
 20
45.0556
 11
-83.8003
 21
45.0877
  0
LINE
  8
0
 10
-83.8003
 20
45.0877
 11
-83.8671
 21
45.1226
  0
LINE
  8
0
 10
-83.8671
 20
45.1226
 11
-83.9324
 21
45.1603
  0
LINE
  8
0
 10
-83.9324
 20
45.1603
 11
-83.9961
 21
45.2007
  0
LINE
  8
0
 10
-83.9961
 20
45.2007
 11
-84.058
 21
45.2438
  0
LINE
  8
0
 10
-84.058
 20
45.2438
 11
-84.118
 21
45.2893
  0
LINE
  8
0
 10
-84.118
 20
45.2893
 11
-84.1761
 21
45.3374
  0
LINE
  8
0
 10
-84.1761
 20
45.3374
 11
-84.2322
 21
45.3878
  0
LINE
  8
0
 10
-84.2322
 20
45.3878
 11
-84.286
 21
45.4406
  0
LINE
  8
0
 10
-84.286
 20
45.4406
 11
-84.3376
 21
45.4956
  0
LINE
  8
0
 10
-84.3376
 20
45.4956
 11
-84.3869
 21
45.5526
  0
LINE
  8
0
 10
-84.3869
 20
45.5526
 11
-84.4337
 21
45.6117
  0
LINE
  8
0
 10
-84.4337
 20
45.6117
 11
-84.478
 21
45.6727
  0
LINE
  8
0
 10
-84.478
 20
45.6727
 11
-84.5198
 21
45.7355
  0
LINE
  8
0
 10
-84.5198
 20
45.7355
 11
-84.5588
 21
45.8
  0
LINE
  8
0
 10
-84.5588
 20
45.8
 11
-84.5951
 21
45.8661
  0
LINE
  8
0
 10
-84.5951
 20
45.8661
 11
-84.6287
 21
45.9336
  0
LINE
  8
0
 10
-84.6287
 20
45.9336
 11
-84.6593
 21
46.0025
  0
LINE
  8
0
 10
-84.6593
 20
46.0025
 11
-84.6871
 21
46.0726
  0
LINE
  8
0
 10
-84.6871
 20
46.0726
 11
-84.7119
 21
46.1438
  0
LINE
  8
0
 10
-84.7119
 20
46.1438
 11
-84.7337
 21
46.2159
  0
LINE
  8
0
 10
-84.7337
 20
46.2159
 11
-84.7524
 21
46.289
  0
LINE
  8
0
 10
-84.7524
 20
46.289
 11
-84.7681
 21
46.3627
  0
LINE
  8
0
 10
-84.7681
 20
46.3627
 11
-84.7807
 21
46.437
  0
LINE
  8
0
 10
-84.7807
 20
46.437
 11
-84.7901
 21
46.5118
  0
LINE
  8
0
 10
-84.7901
 20
46.5118
 11
-84.7964
 21
46.587
  0
LINE
  8
0
 10
-84.7964
 20
46.587
 11
-84.7996
 21
46.6623
  0
LINE
  8
0
 10
-84.7996
 20
46.6623
 11
-84.7996
 21
46.7377
  0
LINE
  8
0
 10
-84.7996
 20
46.7377
 11
-84.7964
 21
46.813
  0
LINE
  8
0
 10
-84.7964
 20
46.813
 11
-84.7901
 21
46.8881
  0
LINE
  8
0
 10
-84.7901
 20
46.8881
 11
-84.7807
 21
46.9629
  0
LINE
  8
0
 10
-84.7807
 20
46.9629
 11
-84.7681
 21
47.0373
  0
LINE
  8
0
 10
-84.7681
 20
47.0373
 11
-84.7524
 21
47.111
  0
LINE
  8
0
 10
-84.7524
 20
47.111
 11
-84.7337
 21
47.1841
  0
LINE
  8
0
 10
-84.7337
 20
47.1841
 11
-84.7119
 21
47.2562
  0
LINE
  8
0
 10
-84.7119
 20
47.2562
 11
-84.6871
 21
47.3274
  0
LINE
  8
0
 10
-84.6871
 20
47.3274
 11
-84.6593
 21
47.3975
  0
LINE
  8
0
 10
-84.6593
 20
47.3975
 11
-84.6287
 21
47.4664
  0
LINE
  8
0
 10
-84.6287
 20
47.4664
 11
-84.5951
 21
47.5339
  0
LINE
  8
0
 10
-84.5951
 20
47.5339
 11
-84.5588
 21
47.6
  0
LINE
  8
0
 10
-84.5588
 20
47.6
 11
-84.5198
 21
47.6645
  0
LINE
  8
0
 10
-84.5198
 20
47.6645
 11
-84.478
 21
47.7273
  0
LINE
  8
0
 10
-84.478
 20
47.7273
 11
-84.4337
 21
47.7883
  0
LINE
  8
0
 10
-84.4337
 20
47.7883
 11
-84.3869
 21
47.8474
  0
LINE
  8
0
 10
-84.3869
 20
47.8474
 11
-84.3376
 21
47.9044
  0
LINE
  8
0
 10
-84.3376
 20
47.9044
 11
-84.286
 21
47.9594
  0
LINE
  8
0
 10
-84.286
 20
47.9594
 11
-84.2322
 21
48.0121
  0
LINE
  8
0
 10
-84.2322
 20
48.0121
 11
-84.1761
 21
48.0626
  0
LINE
  8
0
 10
-84.1761
 20
48.0626
 11
-84.118
 21
48.1106
  0
LINE
  8
0
 10
-84.118
 20
48.1106
 11
-84.058
 21
48.1562
  0
LINE
  8
0
 10
-84.058
 20
48.1562
 11
-83.9961
 21
48.1992
  0
LINE
  8
0
 10
-83.9961
 20
48.1992
 11
-83.9324
 21
48.2397
  0
LINE
  8
0
 10
-83.9324
 20
48.2397
 11
-83.8671
 21
48.2773
  0
LINE
  8
0
 10
-83.8671
 20
48.2773
 11
-83.8003
 21
48.3123
  0
LINE
  8
0
 10
-83.8003
 20
48.3123
 11
-83.7321
 21
48.3444
  0
LINE
  8
0
 10
-83.7321
 20
48.3444
 11
-83.6626
 21
48.3736
  0
LINE
  8
0
 10
-83.6626
 20
48.3736
 11
-83.5919
 21
48.3999
  0
LINE
  8
0
 10
-83.5919
 20
48.3999
 11
-83.5202
 21
48.4232
  0
LINE
  8
0
 10
-83.5202
 20
48.4232
 11
-83.4476
 21
48.4434
  0
LINE
  8
0
 10
-83.4476
 20
48.4434
 11
-83.3742
 21
48.4607
  0
LINE
  8
0
 10
-83.3742
 20
48.4607
 11
-83.3002
 21
48.4748
  0
LINE
  8
0
 10
-83.3002
 20
48.4748
 11
-83.2256
 21
48.4858
  0
LINE
  8
0
 10
-83.2256
 20
48.4858
 11
-83.1506
 21
48.4937
  0
LINE
  8
0
 10
-83.1506
 20
48.4937
 11
-83.0753
 21
48.4984
  0
LINE
  8
0
 10
-83.0753
 20
48.4984
 11
-83
 21
48.5
  0
LINE
  8
0
 10
-83
 20
48.5
 11
-82.9246
 21
48.4984
  0
LINE
  8
0
 10
-82.9246
 20
48.4984
 11
-82.8493
 21
48.4937
  0
LINE
  8
0
 10
-82.8493
 20
48.4937
 11
-82.7744
 21
48.4858
  0
LINE
  8
0
 10
-82.7744
 20
48.4858
 11
-82.6998
 21
48.4748
  0
LINE
  8
0
 10
-82.6998
 20
48.4748
 11
-82.6257
 21
48.4607
  0
LINE
  8
0
 10
-82.6257
 20
48.4607
 11
-82.5523
 21
48.4434
  0
LINE
  8
0
 10
-82.5523
 20
48.4434
 11
-82.4797
 21
48.4232
  0
LINE
  8
0
 10
-82.4797
 20
48.4232
 11
-82.408
 21
48.3999
  0
LINE
  8
0
 10
-82.408
 20
48.3999
 11
-82.3374
 21
48.3736
  0
LINE
  8
0
 10
-82.3374
 20
48.3736
 11
-82.2679
 21
48.3444
  0
LINE
  8
0
 10
-82.2679
 20
48.3444
 11
-82.1996
 21
48.3123
  0
LINE
  8
0
 10
-82.1996
 20
48.3123
 11
-82.1328
 21
48.2773
  0
LINE
  8
0
 10
-82.1328
 20
48.2773
 11
-82.0675
 21
48.2397
  0
LINE
  8
0
 10
-82.0675
 20
48.2397
 11
-82.0039
 21
48.1992
  0
LINE
  8
0
 10
-82.0039
 20
48.1992
 11
-81.942
 21
48.1562
  0
LINE
  8
0
 10
-81.942
 20
48.1562
 11
-81.8819
 21
48.1106
  0
LINE
  8
0
 10
-81.8819
 20
48.1106
 11
-81.8238
 21
48.0626
  0
LINE
  8
0
 10
-81.8238
 20
48.0626
 11
-81.7678
 21
48.0121
  0
LINE
  8
0
 10
-81.7678
 20
48.0121
 11
-81.7139
 21
47.9594
  0
LINE
  8
0
 10
-81.7139
 20
47.9594
 11
-81.6623
 21
47.9044
  0
LINE
  8
0
 10
-81.6623
 20
47.9044
 11
-81.6131
 21
47.8474
  0
LINE
  8
0
 10
-81.6131
 20
47.8474
 11
-81.5662
 21
47.7883
  0
LINE
  8
0
 10
-81.5662
 20
47.7883
 11
-81.5219
 21
47.7273
  0
LINE
  8
0
 10
-81.5219
 20
47.7273
 11
-81.4802
 21
47.6645
  0
LINE
  8
0
 10
-81.4802
 20
47.6645
 11
-81.4411
 21
47.6
  0
LINE
  8
0
 10
-81.4411
 20
47.6
 11
-81.4048
 21
47.5339
  0
LINE
  8
0
 10
-81.4048
 20
47.5339
 11
-81.3713
 21
47.4664
  0
LINE
  8
0
 10
-81.3713
 20
47.4664
 11
-81.3406
 21
47.3975
  0
LINE
  8
0
 10
-81.3406
 20
47.3975
 11
-81.3129
 21
47.3274
  0
LINE
  8
0
 10
-81.3129
 20
47.3274
 11
-81.2881
 21
47.2562
  0
LINE
  8
0
 10
-81.2881
 20
47.2562
 11
-81.2663
 21
47.1841
  0
LINE
  8
0
 10
-81.2663
 20
47.1841
 11
-81.2475
 21
47.111
  0
LINE
  8
0
 10
-81.2475
 20
47.111
 11
-81.2319
 21
47.0373
  0
LINE
  8
0
 10
-81.2319
 20
47.0373
 11
-81.2193
 21
46.9629
  0
LINE
  8
0
 10
-81.2193
 20
46.9629
 11
-81.2098
 21
46.8881
  0
LINE
  8
0
 10
-81.2098
 20
46.8881
 11
-81.2035
 21
46.813
  0
LINE
  8
0
 10
-81.2035
 20
46.813
 11
-81.2004
 21
46.7377
  0
LINE
  8
0
 10
-81.2004
 20
46.7377
 11
-81.2004
 21
46.6623
  0
LINE
  8
0
 10
-81.2004
 20
46.6623
 11
-81.2035
 21
46.587
  0
LINE
  8
0
 10
-81.2035
 20
46.587
 11
-81.2098
 21
46.5118
  0
LINE
  8
0
 10
-81.2098
 20
46.5118
 11
-81.2193
 21
46.437
  0
LINE
  8
0
 10
-81.2193
 20
46.437
 11
-81.2319
 21
46.3627
  0
LINE
  8
0
 10
-81.2319
 20
46.3627
 11
-81.2475
 21
46.289
  0
LINE
  8
0
 10
-81.2475
 20
46.289
 11
-81.2663
 21
46.2159
  0
LINE
  8
0
 10
-81.2663
 20
46.2159
 11
-81.2881
 21
46.1438
  0
LINE
  8
0
 10
-81.2881
 20
46.1438
 11
-81.3129
 21
46.0726
  0
LINE
  8
0
 10
-81.3129
 20
46.0726
 11
-81.3406
 21
46.0025
  0
LINE
  8
0
 10
-81.3406
 20
46.0025
 11
-81.3713
 21
45.9336
  0
LINE
  8
0
 10
-81.3713
 20
45.9336
 11
-81.4048
 21
45.8661
  0
LINE
  8
0
 10
-81.4048
 20
45.8661
 11
-81.4411
 21
45.8
  0
LINE
  8
0
 10
-81.4411
 20
45.8
 11
-81.4802
 21
45.7355
  0
LINE
  8
0
 10
-81.4802
 20
45.7355
 11
-81.5219
 21
45.6727
  0
LINE
  8
0
 10
-81.5219
 20
45.6727
 11
-81.5662
 21
45.6117
  0
LINE
  8
0
 10
-81.5662
 20
45.6117
 11
-81.6131
 21
45.5526
  0
LINE
  8
0
 10
-81.6131
 20
45.5526
 11
-81.6623
 21
45.4956
  0
LINE
  8
0
 10
-81.6623
 20
45.4956
 11
-81.7139
 21
45.4406
  0
LINE
  8
0
 10
-81.7139
 20
45.4406
 11
-81.7678
 21
45.3878
  0
LINE
  8
0
 10
-81.7678
 20
45.3878
 11
-81.8238
 21
45.3374
  0
LINE
  8
0
 10
-81.8238
 20
45.3374
 11
-81.8819
 21
45.2893
  0
LINE
  8
0
 10
-81.8819
 20
45.2893
 11
-81.942
 21
45.2438
  0
LINE
  8
0
 10
-81.942
 20
45.2438
 11
-82.0039
 21
45.2007
  0
LINE
  8
0
 10
-82.0039
 20
45.2007
 11
-82.0675
 21
45.1603
  0
LINE
  8
0
 10
-82.0675
 20
45.1603
 11
-82.1328
 21
45.1226
  0
LINE
  8
0
 10
-82.1328
 20
45.1226
 11
-82.1996
 21
45.0877
  0
LINE
  8
0
 10
-82.1996
 20
45.0877
 11
-82.2679
 21
45.0556
  0
LINE
  8
0
 10
-82.2679
 20
45.0556
 11
-82.3374
 21
45.0264
  0
LINE
  8
0
 10
-82.3374
 20
45.0264
 11
-82.408
 21
45.0001
  0
LINE
  8
0
 10
-82.408
 20
45.0001
 11
-82.4797
 21
44.9768
  0
LINE
  8
0
 10
-82.4797
 20
44.9768
 11
-82.5523
 21
44.9565
  0
LINE
  8
0
 10
-82.5523
 20
44.9565
 11
-82.6257
 21
44.9393
  0
LINE
  8
0
 10
-82.6257
 20
44.9393
 11
-82.6998
 21
44.9252
  0
LINE
  8
0
 10
-82.6998
 20
44.9252
 11
-82.7744
 21
44.9142
  0
LINE
  8
0
 10
-82.7744
 20
44.9142
 11
-82.8493
 21
44.9063
  0
LINE
  8
0
 10
-82.8493
 20
44.9063
 11
-82.9246
 21
44.9016
  0
LINE
  8
0
 10
-82.9246
 20
44.9016
 11
-83
 21
44.9
  0
LINE
  8
0
 10
-83
 20
44.9
 11
-83.0753
 21
44.9016
  0
LINE
  8
0
 10
-16.2754
 20
44.9016
 11
-16.3506
 21
44.9063
  0
LINE
  8
0
 10
-16.3506
 20
44.9063
 11
-16.4256
 21
44.9142
  0
LINE
  8
0
 10
-16.4256
 20
44.9142
 11
-16.5002
 21
44.9252
  0
LINE
  8
0
 10
-16.5002
 20
44.9252
 11
-16.5742
 21
44.9393
  0
LINE
  8
0
 10
-16.5742
 20
44.9393
 11
-16.6476
 21
44.9565
  0
LINE
  8
0
 10
-16.6476
 20
44.9565
 11
-16.7202
 21
44.9768
  0
LINE
  8
0
 10
-16.7202
 20
44.9768
 11
-16.7919
 21
45.0001
  0
LINE
  8
0
 10
-16.7919
 20
45.0001
 11
-16.8626
 21
45.0264
  0
LINE
  8
0
 10
-16.8626
 20
45.0264
 11
-16.9321
 21
45.0556
  0
LINE
  8
0
 10
-16.9321
 20
45.0556
 11
-17.0003
 21
45.0877
  0
LINE
  8
0
 10
-17.0003
 20
45.0877
 11
-17.0672
 21
45.1226
  0
LINE
  8
0
 10
-17.0672
 20
45.1226
 11
-17.1324
 21
45.1603
  0
LINE
  8
0
 10
-17.1324
 20
45.1603
 11
-17.1961
 21
45.2007
  0
LINE
  8
0
 10
-17.1961
 20
45.2007
 11
-17.258
 21
45.2437
  0
LINE
  8
0
 10
-17.258
 20
45.2437
 11
-17.3181
 21
45.2893
  0
LINE
  8
0
 10
-17.3181
 20
45.2893
 11
-17.3761
 21
45.3374
  0
LINE
  8
0
 10
-17.3761
 20
45.3374
 11
-17.4322
 21
45.3878
  0
LINE
  8
0
 10
-17.4322
 20
45.3878
 11
-17.486
 21
45.4406
  0
LINE
  8
0
 10
-17.486
 20
45.4406
 11
-17.5377
 21
45.4955
  0
LINE
  8
0
 10
-17.5377
 20
45.4955
 11
-17.5869
 21
45.5526
  0
LINE
  8
0
 10
-17.5869
 20
45.5526
 11
-17.6337
 21
45.6117
  0
LINE
  8
0
 10
-17.6337
 20
45.6117
 11
-17.6781
 21
45.6727
  0
LINE
  8
0
 10
-17.6781
 20
45.6727
 11
-17.7198
 21
45.7355
  0
LINE
  8
0
 10
-17.7198
 20
45.7355
 11
-17.7588
 21
45.8
  0
LINE
  8
0
 10
-17.7588
 20
45.8
 11
-17.7952
 21
45.866
  0
LINE
  8
0
 10
-17.7952
 20
45.866
 11
-17.8287
 21
45.9336
  0
LINE
  8
0
 10
-17.8287
 20
45.9336
 11
-17.8593
 21
46.0025
  0
LINE
  8
0
 10
-17.8593
 20
46.0025
 11
-17.8871
 21
46.0725
  0
LINE
  8
0
 10
-17.8871
 20
46.0725
 11
-17.9119
 21
46.1438
  0
LINE
  8
0
 10
-17.9119
 20
46.1438
 11
-17.9337
 21
46.2159
  0
LINE
  8
0
 10
-17.9337
 20
46.2159
 11
-17.9524
 21
46.2889
  0
LINE
  8
0
 10
-17.9524
 20
46.2889
 11
-17.9681
 21
46.3627
  0
LINE
  8
0
 10
-17.9681
 20
46.3627
 11
-17.9807
 21
46.437
  0
LINE
  8
0
 10
-17.9807
 20
46.437
 11
-17.9901
 21
46.5118
  0
LINE
  8
0
 10
-17.9901
 20
46.5118
 11
-17.9964
 21
46.587
  0
LINE
  8
0
 10
-17.9964
 20
46.587
 11
-17.9996
 21
46.6623
  0
LINE
  8
0
 10
-17.9996
 20
46.6623
 11
-17.9996
 21
46.7377
  0
LINE
  8
0
 10
-17.9996
 20
46.7377
 11
-17.9964
 21
46.813
  0
LINE
  8
0
 10
-17.9964
 20
46.813
 11
-17.9901
 21
46.8881
  0
LINE
  8
0
 10
-17.9901
 20
46.8881
 11
-17.9807
 21
46.9629
  0
LINE
  8
0
 10
-17.9807
 20
46.9629
 11
-17.9681
 21
47.0373
  0
LINE
  8
0
 10
-17.9681
 20
47.0373
 11
-17.9524
 21
47.111
  0
LINE
  8
0
 10
-17.9524
 20
47.111
 11
-17.9337
 21
47.184
  0
LINE
  8
0
 10
-17.9337
 20
47.184
 11
-17.9119
 21
47.2562
  0
LINE
  8
0
 10
-17.9119
 20
47.2562
 11
-17.8871
 21
47.3274
  0
LINE
  8
0
 10
-17.8871
 20
47.3274
 11
-17.8593
 21
47.3975
  0
LINE
  8
0
 10
-17.8593
 20
47.3975
 11
-17.8287
 21
47.4664
  0
LINE
  8
0
 10
-17.8287
 20
47.4664
 11
-17.7952
 21
47.5339
  0
LINE
  8
0
 10
-17.7952
 20
47.5339
 11
-17.7588
 21
47.6
  0
LINE
  8
0
 10
-17.7588
 20
47.6
 11
-17.7198
 21
47.6645
  0
LINE
  8
0
 10
-17.7198
 20
47.6645
 11
-17.6781
 21
47.7273
  0
LINE
  8
0
 10
-17.6781
 20
47.7273
 11
-17.6337
 21
47.7883
  0
LINE
  8
0
 10
-17.6337
 20
47.7883
 11
-17.5869
 21
47.8473
  0
LINE
  8
0
 10
-17.5869
 20
47.8473
 11
-17.5377
 21
47.9044
  0
LINE
  8
0
 10
-17.5377
 20
47.9044
 11
-17.486
 21
47.9594
  0
LINE
  8
0
 10
-17.486
 20
47.9594
 11
-17.4322
 21
48.0121
  0
LINE
  8
0
 10
-17.4322
 20
48.0121
 11
-17.3761
 21
48.0626
  0
LINE
  8
0
 10
-17.3761
 20
48.0626
 11
-17.3181
 21
48.1106
  0
LINE
  8
0
 10
-17.3181
 20
48.1106
 11
-17.258
 21
48.1562
  0
LINE
  8
0
 10
-17.258
 20
48.1562
 11
-17.1961
 21
48.1992
  0
LINE
  8
0
 10
-17.1961
 20
48.1992
 11
-17.1324
 21
48.2396
  0
LINE
  8
0
 10
-17.1324
 20
48.2396
 11
-17.0672
 21
48.2773
  0
LINE
  8
0
 10
-17.0672
 20
48.2773
 11
-17.0003
 21
48.3123
  0
LINE
  8
0
 10
-17.0003
 20
48.3123
 11
-16.9321
 21
48.3444
  0
LINE
  8
0
 10
-16.9321
 20
48.3444
 11
-16.8626
 21
48.3736
  0
LINE
  8
0
 10
-16.8626
 20
48.3736
 11
-16.7919
 21
48.3999
  0
LINE
  8
0
 10
-16.7919
 20
48.3999
 11
-16.7202
 21
48.4232
  0
LINE
  8
0
 10
-16.7202
 20
48.4232
 11
-16.6476
 21
48.4434
  0
LINE
  8
0
 10
-16.6476
 20
48.4434
 11
-16.5742
 21
48.4606
  0
LINE
  8
0
 10
-16.5742
 20
48.4606
 11
-16.5002
 21
48.4748
  0
LINE
  8
0
 10
-16.5002
 20
48.4748
 11
-16.4256
 21
48.4858
  0
LINE
  8
0
 10
-16.4256
 20
48.4858
 11
-16.3506
 21
48.4937
  0
LINE
  8
0
 10
-16.3506
 20
48.4937
 11
-16.2754
 21
48.4984
  0
LINE
  8
0
 10
-16.2754
 20
48.4984
 11
-16.2
 21
48.5
  0
LINE
  8
0
 10
-16.2
 20
48.5
 11
-16.1246
 21
48.4984
  0
LINE
  8
0
 10
-16.1246
 20
48.4984
 11
-16.0494
 21
48.4937
  0
LINE
  8
0
 10
-16.0494
 20
48.4937
 11
-15.9744
 21
48.4858
  0
LINE
  8
0
 10
-15.9744
 20
48.4858
 11
-15.8998
 21
48.4748
  0
LINE
  8
0
 10
-15.8998
 20
48.4748
 11
-15.8257
 21
48.4606
  0
LINE
  8
0
 10
-15.8257
 20
48.4606
 11
-15.7523
 21
48.4434
  0
LINE
  8
0
 10
-15.7523
 20
48.4434
 11
-15.6797
 21
48.4232
  0
LINE
  8
0
 10
-15.6797
 20
48.4232
 11
-15.608
 21
48.3999
  0
LINE
  8
0
 10
-15.608
 20
48.3999
 11
-15.5374
 21
48.3736
  0
LINE
  8
0
 10
-15.5374
 20
48.3736
 11
-15.4679
 21
48.3444
  0
LINE
  8
0
 10
-15.4679
 20
48.3444
 11
-15.3996
 21
48.3123
  0
LINE
  8
0
 10
-15.3996
 20
48.3123
 11
-15.3328
 21
48.2773
  0
LINE
  8
0
 10
-15.3328
 20
48.2773
 11
-15.2675
 21
48.2396
  0
LINE
  8
0
 10
-15.2675
 20
48.2396
 11
-15.2039
 21
48.1992
  0
LINE
  8
0
 10
-15.2039
 20
48.1992
 11
-15.142
 21
48.1562
  0
LINE
  8
0
 10
-15.142
 20
48.1562
 11
-15.0819
 21
48.1106
  0
LINE
  8
0
 10
-15.0819
 20
48.1106
 11
-15.0238
 21
48.0626
  0
LINE
  8
0
 10
-15.0238
 20
48.0626
 11
-14.9678
 21
48.0121
  0
LINE
  8
0
 10
-14.9678
 20
48.0121
 11
-14.9139
 21
47.9594
  0
LINE
  8
0
 10
-14.9139
 20
47.9594
 11
-14.8623
 21
47.9044
  0
LINE
  8
0
 10
-14.8623
 20
47.9044
 11
-14.8131
 21
47.8473
  0
LINE
  8
0
 10
-14.8131
 20
47.8473
 11
-14.7662
 21
47.7883
  0
LINE
  8
0
 10
-14.7662
 20
47.7883
 11
-14.7219
 21
47.7273
  0
LINE
  8
0
 10
-14.7219
 20
47.7273
 11
-14.6802
 21
47.6645
  0
LINE
  8
0
 10
-14.6802
 20
47.6645
 11
-14.6411
 21
47.6
  0
LINE
  8
0
 10
-14.6411
 20
47.6
 11
-14.6048
 21
47.5339
  0
LINE
  8
0
 10
-14.6048
 20
47.5339
 11
-14.5713
 21
47.4664
  0
LINE
  8
0
 10
-14.5713
 20
47.4664
 11
-14.5406
 21
47.3975
  0
LINE
  8
0
 10
-14.5406
 20
47.3975
 11
-14.5129
 21
47.3274
  0
LINE
  8
0
 10
-14.5129
 20
47.3274
 11
-14.4881
 21
47.2562
  0
LINE
  8
0
 10
-14.4881
 20
47.2562
 11
-14.4663
 21
47.184
  0
LINE
  8
0
 10
-14.4663
 20
47.184
 11
-14.4476
 21
47.111
  0
LINE
  8
0
 10
-14.4476
 20
47.111
 11
-14.4319
 21
47.0373
  0
LINE
  8
0
 10
-14.4319
 20
47.0373
 11
-14.4193
 21
46.9629
  0
LINE
  8
0
 10
-14.4193
 20
46.9629
 11
-14.4099
 21
46.8881
  0
LINE
  8
0
 10
-14.4099
 20
46.8881
 11
-14.4035
 21
46.813
  0
LINE
  8
0
 10
-14.4035
 20
46.813
 11
-14.4004
 21
46.7377
  0
LINE
  8
0
 10
-14.4004
 20
46.7377
 11
-14.4004
 21
46.6623
  0
LINE
  8
0
 10
-14.4004
 20
46.6623
 11
-14.4035
 21
46.587
  0
LINE
  8
0
 10
-14.4035
 20
46.587
 11
-14.4099
 21
46.5118
  0
LINE
  8
0
 10
-14.4099
 20
46.5118
 11
-14.4193
 21
46.437
  0
LINE
  8
0
 10
-14.4193
 20
46.437
 11
-14.4319
 21
46.3627
  0
LINE
  8
0
 10
-14.4319
 20
46.3627
 11
-14.4476
 21
46.2889
  0
LINE
  8
0
 10
-14.4476
 20
46.2889
 11
-14.4663
 21
46.2159
  0
LINE
  8
0
 10
-14.4663
 20
46.2159
 11
-14.4881
 21
46.1438
  0
LINE
  8
0
 10
-14.4881
 20
46.1438
 11
-14.5129
 21
46.0725
  0
LINE
  8
0
 10
-14.5129
 20
46.0725
 11
-14.5406
 21
46.0025
  0
LINE
  8
0
 10
-14.5406
 20
46.0025
 11
-14.5713
 21
45.9336
  0
LINE
  8
0
 10
-14.5713
 20
45.9336
 11
-14.6048
 21
45.866
  0
LINE
  8
0
 10
-14.6048
 20
45.866
 11
-14.6411
 21
45.8
  0
LINE
  8
0
 10
-14.6411
 20
45.8
 11
-14.6802
 21
45.7355
  0
LINE
  8
0
 10
-14.6802
 20
45.7355
 11
-14.7219
 21
45.6727
  0
LINE
  8
0
 10
-14.7219
 20
45.6727
 11
-14.7662
 21
45.6117
  0
LINE
  8
0
 10
-14.7662
 20
45.6117
 11
-14.8131
 21
45.5526
  0
LINE
  8
0
 10
-14.8131
 20
45.5526
 11
-14.8623
 21
45.4955
  0
LINE
  8
0
 10
-14.8623
 20
45.4955
 11
-14.9139
 21
45.4406
  0
LINE
  8
0
 10
-14.9139
 20
45.4406
 11
-14.9678
 21
45.3878
  0
LINE
  8
0
 10
-14.9678
 20
45.3878
 11
-15.0238
 21
45.3374
  0
LINE
  8
0
 10
-15.0238
 20
45.3374
 11
-15.0819
 21
45.2893
  0
LINE
  8
0
 10
-15.0819
 20
45.2893
 11
-15.142
 21
45.2437
  0
LINE
  8
0
 10
-15.142
 20
45.2437
 11
-15.2039
 21
45.2007
  0
LINE
  8
0
 10
-15.2039
 20
45.2007
 11
-15.2675
 21
45.1603
  0
LINE
  8
0
 10
-15.2675
 20
45.1603
 11
-15.3328
 21
45.1226
  0
LINE
  8
0
 10
-15.3328
 20
45.1226
 11
-15.3996
 21
45.0877
  0
LINE
  8
0
 10
-15.3996
 20
45.0877
 11
-15.4679
 21
45.0556
  0
LINE
  8
0
 10
-15.4679
 20
45.0556
 11
-15.5374
 21
45.0264
  0
LINE
  8
0
 10
-15.5374
 20
45.0264
 11
-15.608
 21
45.0001
  0
LINE
  8
0
 10
-15.608
 20
45.0001
 11
-15.6797
 21
44.9768
  0
LINE
  8
0
 10
-15.6797
 20
44.9768
 11
-15.7523
 21
44.9565
  0
LINE
  8
0
 10
-15.7523
 20
44.9565
 11
-15.8257
 21
44.9393
  0
LINE
  8
0
 10
-15.8257
 20
44.9393
 11
-15.8998
 21
44.9252
  0
LINE
  8
0
 10
-15.8998
 20
44.9252
 11
-15.9744
 21
44.9142
  0
LINE
  8
0
 10
-15.9744
 20
44.9142
 11
-16.0494
 21
44.9063
  0
LINE
  8
0
 10
-16.0494
 20
44.9063
 11
-16.1246
 21
44.9016
  0
LINE
  8
0
 10
-16.1246
 20
44.9016
 11
-16.2
 21
44.9
  0
LINE
  8
0
 10
-16.2
 20
44.9
 11
-16.2754
 21
44.9016
  0
LINE
  8
0
 10
-83.0754
 20
-48.4984
 11
-83.1506
 21
-48.4937
  0
LINE
  8
0
 10
-83.1506
 20
-48.4937
 11
-83.2256
 21
-48.4858
  0
LINE
  8
0
 10
-83.2256
 20
-48.4858
 11
-83.3002
 21
-48.4748
  0
LINE
  8
0
 10
-83.3002
 20
-48.4748
 11
-83.3742
 21
-48.4606
  0
LINE
  8
0
 10
-83.3742
 20
-48.4606
 11
-83.4476
 21
-48.4434
  0
LINE
  8
0
 10
-83.4476
 20
-48.4434
 11
-83.5202
 21
-48.4232
  0
LINE
  8
0
 10
-83.5202
 20
-48.4232
 11
-83.5919
 21
-48.3999
  0
LINE
  8
0
 10
-83.5919
 20
-48.3999
 11
-83.6626
 21
-48.3736
  0
LINE
  8
0
 10
-83.6626
 20
-48.3736
 11
-83.7321
 21
-48.3444
  0
LINE
  8
0
 10
-83.7321
 20
-48.3444
 11
-83.8003
 21
-48.3123
  0
LINE
  8
0
 10
-83.8003
 20
-48.3123
 11
-83.8671
 21
-48.2773
  0
LINE
  8
0
 10
-83.8671
 20
-48.2773
 11
-83.9324
 21
-48.2396
  0
LINE
  8
0
 10
-83.9324
 20
-48.2396
 11
-83.9961
 21
-48.1992
  0
LINE
  8
0
 10
-83.9961
 20
-48.1992
 11
-84.058
 21
-48.1562
  0
LINE
  8
0
 10
-84.058
 20
-48.1562
 11
-84.1181
 21
-48.1106
  0
LINE
  8
0
 10
-84.1181
 20
-48.1106
 11
-84.1761
 21
-48.0626
  0
LINE
  8
0
 10
-84.1761
 20
-48.0626
 11
-84.2322
 21
-48.0121
  0
LINE
  8
0
 10
-84.2322
 20
-48.0121
 11
-84.286
 21
-47.9594
  0
LINE
  8
0
 10
-84.286
 20
-47.9594
 11
-84.3376
 21
-47.9044
  0
LINE
  8
0
 10
-84.3376
 20
-47.9044
 11
-84.3869
 21
-47.8473
  0
LINE
  8
0
 10
-84.3869
 20
-47.8473
 11
-84.4337
 21
-47.7883
  0
LINE
  8
0
 10
-84.4337
 20
-47.7883
 11
-84.4781
 21
-47.7273
  0
LINE
  8
0
 10
-84.4781
 20
-47.7273
 11
-84.5198
 21
-47.6645
  0
LINE
  8
0
 10
-84.5198
 20
-47.6645
 11
-84.5588
 21
-47.6
  0
LINE
  8
0
 10
-84.5588
 20
-47.6
 11
-84.5952
 21
-47.5339
  0
LINE
  8
0
 10
-84.5952
 20
-47.5339
 11
-84.6287
 21
-47.4664
  0
LINE
  8
0
 10
-84.6287
 20
-47.4664
 11
-84.6593
 21
-47.3975
  0
LINE
  8
0
 10
-84.6593
 20
-47.3975
 11
-84.6871
 21
-47.3274
  0
LINE
  8
0
 10
-84.6871
 20
-47.3274
 11
-84.7119
 21
-47.2562
  0
LINE
  8
0
 10
-84.7119
 20
-47.2562
 11
-84.7337
 21
-47.184
  0
LINE
  8
0
 10
-84.7337
 20
-47.184
 11
-84.7524
 21
-47.111
  0
LINE
  8
0
 10
-84.7524
 20
-47.111
 11
-84.7681
 21
-47.0373
  0
LINE
  8
0
 10
-84.7681
 20
-47.0373
 11
-84.7807
 21
-46.9629
  0
LINE
  8
0
 10
-84.7807
 20
-46.9629
 11
-84.7901
 21
-46.8881
  0
LINE
  8
0
 10
-84.7901
 20
-46.8881
 11
-84.7964
 21
-46.813
  0
LINE
  8
0
 10
-84.7964
 20
-46.813
 11
-84.7996
 21
-46.7377
  0
LINE
  8
0
 10
-84.7996
 20
-46.7377
 11
-84.7996
 21
-46.6623
  0
LINE
  8
0
 10
-84.7996
 20
-46.6623
 11
-84.7964
 21
-46.587
  0
LINE
  8
0
 10
-84.7964
 20
-46.587
 11
-84.7901
 21
-46.5118
  0
LINE
  8
0
 10
-84.7901
 20
-46.5118
 11
-84.7807
 21
-46.437
  0
LINE
  8
0
 10
-84.7807
 20
-46.437
 11
-84.7681
 21
-46.3627
  0
LINE
  8
0
 10
-84.7681
 20
-46.3627
 11
-84.7524
 21
-46.2889
  0
LINE
  8
0
 10
-84.7524
 20
-46.2889
 11
-84.7337
 21
-46.2159
  0
LINE
  8
0
 10
-84.7337
 20
-46.2159
 11
-84.7119
 21
-46.1438
  0
LINE
  8
0
 10
-84.7119
 20
-46.1438
 11
-84.6871
 21
-46.0725
  0
LINE
  8
0
 10
-84.6871
 20
-46.0725
 11
-84.6593
 21
-46.0025
  0
LINE
  8
0
 10
-84.6593
 20
-46.0025
 11
-84.6287
 21
-45.9336
  0
LINE
  8
0
 10
-84.6287
 20
-45.9336
 11
-84.5952
 21
-45.866
  0
LINE
  8
0
 10
-84.5952
 20
-45.866
 11
-84.5588
 21
-45.8
  0
LINE
  8
0
 10
-84.5588
 20
-45.8
 11
-84.5198
 21
-45.7355
  0
LINE
  8
0
 10
-84.5198
 20
-45.7355
 11
-84.4781
 21
-45.6727
  0
LINE
  8
0
 10
-84.4781
 20
-45.6727
 11
-84.4337
 21
-45.6117
  0
LINE
  8
0
 10
-84.4337
 20
-45.6117
 11
-84.3869
 21
-45.5526
  0
LINE
  8
0
 10
-84.3869
 20
-45.5526
 11
-84.3376
 21
-45.4955
  0
LINE
  8
0
 10
-84.3376
 20
-45.4955
 11
-84.286
 21
-45.4406
  0
LINE
  8
0
 10
-84.286
 20
-45.4406
 11
-84.2322
 21
-45.3878
  0
LINE
  8
0
 10
-84.2322
 20
-45.3878
 11
-84.1761
 21
-45.3374
  0
LINE
  8
0
 10
-84.1761
 20
-45.3374
 11
-84.1181
 21
-45.2893
  0
LINE
  8
0
 10
-84.1181
 20
-45.2893
 11
-84.058
 21
-45.2437
  0
LINE
  8
0
 10
-84.058
 20
-45.2437
 11
-83.9961
 21
-45.2007
  0
LINE
  8
0
 10
-83.9961
 20
-45.2007
 11
-83.9324
 21
-45.1603
  0
LINE
  8
0
 10
-83.9324
 20
-45.1603
 11
-83.8671
 21
-45.1226
  0
LINE
  8
0
 10
-83.8671
 20
-45.1226
 11
-83.8003
 21
-45.0877
  0
LINE
  8
0
 10
-83.8003
 20
-45.0877
 11
-83.7321
 21
-45.0556
  0
LINE
  8
0
 10
-83.7321
 20
-45.0556
 11
-83.6626
 21
-45.0264
  0
LINE
  8
0
 10
-83.6626
 20
-45.0264
 11
-83.5919
 21
-45.0001
  0
LINE
  8
0
 10
-83.5919
 20
-45.0001
 11
-83.5202
 21
-44.9768
  0
LINE
  8
0
 10
-83.5202
 20
-44.9768
 11
-83.4476
 21
-44.9565
  0
LINE
  8
0
 10
-83.4476
 20
-44.9565
 11
-83.3742
 21
-44.9393
  0
LINE
  8
0
 10
-83.3742
 20
-44.9393
 11
-83.3002
 21
-44.9252
  0
LINE
  8
0
 10
-83.3002
 20
-44.9252
 11
-83.2256
 21
-44.9142
  0
LINE
  8
0
 10
-83.2256
 20
-44.9142
 11
-83.1506
 21
-44.9063
  0
LINE
  8
0
 10
-83.1506
 20
-44.9063
 11
-83.0754
 21
-44.9016
  0
LINE
  8
0
 10
-83.0754
 20
-44.9016
 11
-83
 21
-44.9
  0
LINE
  8
0
 10
-83
 20
-44.9
 11
-82.9246
 21
-44.9016
  0
LINE
  8
0
 10
-82.9246
 20
-44.9016
 11
-82.8494
 21
-44.9063
  0
LINE
  8
0
 10
-82.8494
 20
-44.9063
 11
-82.7744
 21
-44.9142
  0
LINE
  8
0
 10
-82.7744
 20
-44.9142
 11
-82.6998
 21
-44.9252
  0
LINE
  8
0
 10
-82.6998
 20
-44.9252
 11
-82.6257
 21
-44.9393
  0
LINE
  8
0
 10
-82.6257
 20
-44.9393
 11
-82.5524
 21
-44.9565
  0
LINE
  8
0
 10
-82.5524
 20
-44.9565
 11
-82.4797
 21
-44.9768
  0
LINE
  8
0
 10
-82.4797
 20
-44.9768
 11
-82.408
 21
-45.0001
  0
LINE
  8
0
 10
-82.408
 20
-45.0001
 11
-82.3374
 21
-45.0264
  0
LINE
  8
0
 10
-82.3374
 20
-45.0264
 11
-82.2679
 21
-45.0556
  0
LINE
  8
0
 10
-82.2679
 20
-45.0556
 11
-82.1996
 21
-45.0877
  0
LINE
  8
0
 10
-82.1996
 20
-45.0877
 11
-82.1328
 21
-45.1226
  0
LINE
  8
0
 10
-82.1328
 20
-45.1226
 11
-82.0676
 21
-45.1603
  0
LINE
  8
0
 10
-82.0676
 20
-45.1603
 11
-82.0039
 21
-45.2007
  0
LINE
  8
0
 10
-82.0039
 20
-45.2007
 11
-81.942
 21
-45.2437
  0
LINE
  8
0
 10
-81.942
 20
-45.2437
 11
-81.8819
 21
-45.2893
  0
LINE
  8
0
 10
-81.8819
 20
-45.2893
 11
-81.8238
 21
-45.3374
  0
LINE
  8
0
 10
-81.8238
 20
-45.3374
 11
-81.7678
 21
-45.3878
  0
LINE
  8
0
 10
-81.7678
 20
-45.3878
 11
-81.7139
 21
-45.4406
  0
LINE
  8
0
 10
-81.7139
 20
-45.4406
 11
-81.6623
 21
-45.4955
  0
LINE
  8
0
 10
-81.6623
 20
-45.4955
 11
-81.6131
 21
-45.5526
  0
LINE
  8
0
 10
-81.6131
 20
-45.5526
 11
-81.5662
 21
-45.6117
  0
LINE
  8
0
 10
-81.5662
 20
-45.6117
 11
-81.5219
 21
-45.6727
  0
LINE
  8
0
 10
-81.5219
 20
-45.6727
 11
-81.4802
 21
-45.7355
  0
LINE
  8
0
 10
-81.4802
 20
-45.7355
 11
-81.4411
 21
-45.8
  0
LINE
  8
0
 10
-81.4411
 20
-45.8
 11
-81.4048
 21
-45.866
  0
LINE
  8
0
 10
-81.4048
 20
-45.866
 11
-81.3713
 21
-45.9336
  0
LINE
  8
0
 10
-81.3713
 20
-45.9336
 11
-81.3406
 21
-46.0025
  0
LINE
  8
0
 10
-81.3406
 20
-46.0025
 11
-81.3129
 21
-46.0725
  0
LINE
  8
0
 10
-81.3129
 20
-46.0725
 11
-81.2881
 21
-46.1438
  0
LINE
  8
0
 10
-81.2881
 20
-46.1438
 11
-81.2663
 21
-46.2159
  0
LINE
  8
0
 10
-81.2663
 20
-46.2159
 11
-81.2475
 21
-46.2889
  0
LINE
  8
0
 10
-81.2475
 20
-46.2889
 11
-81.2319
 21
-46.3627
  0
LINE
  8
0
 10
-81.2319
 20
-46.3627
 11
-81.2193
 21
-46.437
  0
LINE
  8
0
 10
-81.2193
 20
-46.437
 11
-81.2099
 21
-46.5118
  0
LINE
  8
0
 10
-81.2099
 20
-46.5118
 11
-81.2035
 21
-46.587
  0
LINE
  8
0
 10
-81.2035
 20
-46.587
 11
-81.2004
 21
-46.6623
  0
LINE
  8
0
 10
-81.2004
 20
-46.6623
 11
-81.2004
 21
-46.7377
  0
LINE
  8
0
 10
-81.2004
 20
-46.7377
 11
-81.2035
 21
-46.813
  0
LINE
  8
0
 10
-81.2035
 20
-46.813
 11
-81.2099
 21
-46.8881
  0
LINE
  8
0
 10
-81.2099
 20
-46.8881
 11
-81.2193
 21
-46.9629
  0
LINE
  8
0
 10
-81.2193
 20
-46.9629
 11
-81.2319
 21
-47.0373
  0
LINE
  8
0
 10
-81.2319
 20
-47.0373
 11
-81.2475
 21
-47.111
  0
LINE
  8
0
 10
-81.2475
 20
-47.111
 11
-81.2663
 21
-47.184
  0
LINE
  8
0
 10
-81.2663
 20
-47.184
 11
-81.2881
 21
-47.2562
  0
LINE
  8
0
 10
-81.2881
 20
-47.2562
 11
-81.3129
 21
-47.3274
  0
LINE
  8
0
 10
-81.3129
 20
-47.3274
 11
-81.3406
 21
-47.3975
  0
LINE
  8
0
 10
-81.3406
 20
-47.3975
 11
-81.3713
 21
-47.4664
  0
LINE
  8
0
 10
-81.3713
 20
-47.4664
 11
-81.4048
 21
-47.5339
  0
LINE
  8
0
 10
-81.4048
 20
-47.5339
 11
-81.4411
 21
-47.6
  0
LINE
  8
0
 10
-81.4411
 20
-47.6
 11
-81.4802
 21
-47.6645
  0
LINE
  8
0
 10
-81.4802
 20
-47.6645
 11
-81.5219
 21
-47.7273
  0
LINE
  8
0
 10
-81.5219
 20
-47.7273
 11
-81.5662
 21
-47.7883
  0
LINE
  8
0
 10
-81.5662
 20
-47.7883
 11
-81.6131
 21
-47.8473
  0
LINE
  8
0
 10
-81.6131
 20
-47.8473
 11
-81.6623
 21
-47.9044
  0
LINE
  8
0
 10
-81.6623
 20
-47.9044
 11
-81.7139
 21
-47.9594
  0
LINE
  8
0
 10
-81.7139
 20
-47.9594
 11
-81.7678
 21
-48.0121
  0
LINE
  8
0
 10
-81.7678
 20
-48.0121
 11
-81.8238
 21
-48.0626
  0
LINE
  8
0
 10
-81.8238
 20
-48.0626
 11
-81.8819
 21
-48.1106
  0
LINE
  8
0
 10
-81.8819
 20
-48.1106
 11
-81.942
 21
-48.1562
  0
LINE
  8
0
 10
-81.942
 20
-48.1562
 11
-82.0039
 21
-48.1992
  0
LINE
  8
0
 10
-82.0039
 20
-48.1992
 11
-82.0676
 21
-48.2396
  0
LINE
  8
0
 10
-82.0676
 20
-48.2396
 11
-82.1328
 21
-48.2773
  0
LINE
  8
0
 10
-82.1328
 20
-48.2773
 11
-82.1996
 21
-48.3123
  0
LINE
  8
0
 10
-82.1996
 20
-48.3123
 11
-82.2679
 21
-48.3444
  0
LINE
  8
0
 10
-82.2679
 20
-48.3444
 11
-82.3374
 21
-48.3736
  0
LINE
  8
0
 10
-82.3374
 20
-48.3736
 11
-82.408
 21
-48.3999
  0
LINE
  8
0
 10
-82.408
 20
-48.3999
 11
-82.4797
 21
-48.4232
  0
LINE
  8
0
 10
-82.4797
 20
-48.4232
 11
-82.5524
 21
-48.4434
  0
LINE
  8
0
 10
-82.5524
 20
-48.4434
 11
-82.6257
 21
-48.4606
  0
LINE
  8
0
 10
-82.6257
 20
-48.4606
 11
-82.6998
 21
-48.4748
  0
LINE
  8
0
 10
-82.6998
 20
-48.4748
 11
-82.7744
 21
-48.4858
  0
LINE
  8
0
 10
-82.7744
 20
-48.4858
 11
-82.8494
 21
-48.4937
  0
LINE
  8
0
 10
-82.8494
 20
-48.4937
 11
-82.9246
 21
-48.4984
  0
LINE
  8
0
 10
-82.9246
 20
-48.4984
 11
-83
 21
-48.5
  0
LINE
  8
0
 10
-83
 20
-48.5
 11
-83.0754
 21
-48.4984
  0
LINE
  8
0
 10
-16.2754
 20
-48.4984
 11
-16.3506
 21
-48.4937
  0
LINE
  8
0
 10
-16.3506
 20
-48.4937
 11
-16.4256
 21
-48.4858
  0
LINE
  8
0
 10
-16.4256
 20
-48.4858
 11
-16.5002
 21
-48.4748
  0
LINE
  8
0
 10
-16.5002
 20
-48.4748
 11
-16.5742
 21
-48.4607
  0
LINE
  8
0
 10
-16.5742
 20
-48.4607
 11
-16.6476
 21
-48.4434
  0
LINE
  8
0
 10
-16.6476
 20
-48.4434
 11
-16.7203
 21
-48.4232
  0
LINE
  8
0
 10
-16.7203
 20
-48.4232
 11
-16.792
 21
-48.3999
  0
LINE
  8
0
 10
-16.792
 20
-48.3999
 11
-16.8626
 21
-48.3736
  0
LINE
  8
0
 10
-16.8626
 20
-48.3736
 11
-16.9321
 21
-48.3444
  0
LINE
  8
0
 10
-16.9321
 20
-48.3444
 11
-17.0004
 21
-48.3123
  0
LINE
  8
0
 10
-17.0004
 20
-48.3123
 11
-17.0672
 21
-48.2773
  0
LINE
  8
0
 10
-17.0672
 20
-48.2773
 11
-17.1325
 21
-48.2397
  0
LINE
  8
0
 10
-17.1325
 20
-48.2397
 11
-17.1961
 21
-48.1992
  0
LINE
  8
0
 10
-17.1961
 20
-48.1992
 11
-17.258
 21
-48.1562
  0
LINE
  8
0
 10
-17.258
 20
-48.1562
 11
-17.3181
 21
-48.1106
  0
LINE
  8
0
 10
-17.3181
 20
-48.1106
 11
-17.3762
 21
-48.0626
  0
LINE
  8
0
 10
-17.3762
 20
-48.0626
 11
-17.4322
 21
-48.0121
  0
LINE
  8
0
 10
-17.4322
 20
-48.0121
 11
-17.4861
 21
-47.9594
  0
LINE
  8
0
 10
-17.4861
 20
-47.9594
 11
-17.5377
 21
-47.9044
  0
LINE
  8
0
 10
-17.5377
 20
-47.9044
 11
-17.5869
 21
-47.8474
  0
LINE
  8
0
 10
-17.5869
 20
-47.8474
 11
-17.6338
 21
-47.7883
  0
LINE
  8
0
 10
-17.6338
 20
-47.7883
 11
-17.6781
 21
-47.7273
  0
LINE
  8
0
 10
-17.6781
 20
-47.7273
 11
-17.7198
 21
-47.6645
  0
LINE
  8
0
 10
-17.7198
 20
-47.6645
 11
-17.7589
 21
-47.6
  0
LINE
  8
0
 10
-17.7589
 20
-47.6
 11
-17.7952
 21
-47.5339
  0
LINE
  8
0
 10
-17.7952
 20
-47.5339
 11
-17.8287
 21
-47.4664
  0
LINE
  8
0
 10
-17.8287
 20
-47.4664
 11
-17.8594
 21
-47.3975
  0
LINE
  8
0
 10
-17.8594
 20
-47.3975
 11
-17.8871
 21
-47.3274
  0
LINE
  8
0
 10
-17.8871
 20
-47.3274
 11
-17.9119
 21
-47.2562
  0
LINE
  8
0
 10
-17.9119
 20
-47.2562
 11
-17.9337
 21
-47.1841
  0
LINE
  8
0
 10
-17.9337
 20
-47.1841
 11
-17.9525
 21
-47.111
  0
LINE
  8
0
 10
-17.9525
 20
-47.111
 11
-17.9681
 21
-47.0373
  0
LINE
  8
0
 10
-17.9681
 20
-47.0373
 11
-17.9807
 21
-46.9629
  0
LINE
  8
0
 10
-17.9807
 20
-46.9629
 11
-17.9901
 21
-46.8881
  0
LINE
  8
0
 10
-17.9901
 20
-46.8881
 11
-17.9965
 21
-46.813
  0
LINE
  8
0
 10
-17.9965
 20
-46.813
 11
-17.9996
 21
-46.7377
  0
LINE
  8
0
 10
-17.9996
 20
-46.7377
 11
-17.9996
 21
-46.6623
  0
LINE
  8
0
 10
-17.9996
 20
-46.6623
 11
-17.9965
 21
-46.587
  0
LINE
  8
0
 10
-17.9965
 20
-46.587
 11
-17.9901
 21
-46.5118
  0
LINE
  8
0
 10
-17.9901
 20
-46.5118
 11
-17.9807
 21
-46.437
  0
LINE
  8
0
 10
-17.9807
 20
-46.437
 11
-17.9681
 21
-46.3627
  0
LINE
  8
0
 10
-17.9681
 20
-46.3627
 11
-17.9525
 21
-46.289
  0
LINE
  8
0
 10
-17.9525
 20
-46.289
 11
-17.9337
 21
-46.2159
  0
LINE
  8
0
 10
-17.9337
 20
-46.2159
 11
-17.9119
 21
-46.1438
  0
LINE
  8
0
 10
-17.9119
 20
-46.1438
 11
-17.8871
 21
-46.0726
  0
LINE
  8
0
 10
-17.8871
 20
-46.0726
 11
-17.8594
 21
-46.0025
  0
LINE
  8
0
 10
-17.8594
 20
-46.0025
 11
-17.8287
 21
-45.9336
  0
LINE
  8
0
 10
-17.8287
 20
-45.9336
 11
-17.7952
 21
-45.8661
  0
LINE
  8
0
 10
-17.7952
 20
-45.8661
 11
-17.7589
 21
-45.8
  0
LINE
  8
0
 10
-17.7589
 20
-45.8
 11
-17.7198
 21
-45.7355
  0
LINE
  8
0
 10
-17.7198
 20
-45.7355
 11
-17.6781
 21
-45.6727
  0
LINE
  8
0
 10
-17.6781
 20
-45.6727
 11
-17.6338
 21
-45.6117
  0
LINE
  8
0
 10
-17.6338
 20
-45.6117
 11
-17.5869
 21
-45.5526
  0
LINE
  8
0
 10
-17.5869
 20
-45.5526
 11
-17.5377
 21
-45.4956
  0
LINE
  8
0
 10
-17.5377
 20
-45.4956
 11
-17.4861
 21
-45.4406
  0
LINE
  8
0
 10
-17.4861
 20
-45.4406
 11
-17.4322
 21
-45.3878
  0
LINE
  8
0
 10
-17.4322
 20
-45.3878
 11
-17.3762
 21
-45.3374
  0
LINE
  8
0
 10
-17.3762
 20
-45.3374
 11
-17.3181
 21
-45.2893
  0
LINE
  8
0
 10
-17.3181
 20
-45.2893
 11
-17.258
 21
-45.2438
  0
LINE
  8
0
 10
-17.258
 20
-45.2438
 11
-17.1961
 21
-45.2007
  0
LINE
  8
0
 10
-17.1961
 20
-45.2007
 11
-17.1325
 21
-45.1603
  0
LINE
  8
0
 10
-17.1325
 20
-45.1603
 11
-17.0672
 21
-45.1226
  0
LINE
  8
0
 10
-17.0672
 20
-45.1226
 11
-17.0004
 21
-45.0877
  0
LINE
  8
0
 10
-17.0004
 20
-45.0877
 11
-16.9321
 21
-45.0556
  0
LINE
  8
0
 10
-16.9321
 20
-45.0556
 11
-16.8626
 21
-45.0264
  0
LINE
  8
0
 10
-16.8626
 20
-45.0264
 11
-16.792
 21
-45.0001
  0
LINE
  8
0
 10
-16.792
 20
-45.0001
 11
-16.7203
 21
-44.9768
  0
LINE
  8
0
 10
-16.7203
 20
-44.9768
 11
-16.6476
 21
-44.9565
  0
LINE
  8
0
 10
-16.6476
 20
-44.9565
 11
-16.5742
 21
-44.9393
  0
LINE
  8
0
 10
-16.5742
 20
-44.9393
 11
-16.5002
 21
-44.9252
  0
LINE
  8
0
 10
-16.5002
 20
-44.9252
 11
-16.4256
 21
-44.9142
  0
LINE
  8
0
 10
-16.4256
 20
-44.9142
 11
-16.3506
 21
-44.9063
  0
LINE
  8
0
 10
-16.3506
 20
-44.9063
 11
-16.2754
 21
-44.9016
  0
LINE
  8
0
 10
-16.2754
 20
-44.9016
 11
-16.2
 21
-44.9
  0
LINE
  8
0
 10
-16.2
 20
-44.9
 11
-16.1246
 21
-44.9016
  0
LINE
  8
0
 10
-16.1246
 20
-44.9016
 11
-16.0494
 21
-44.9063
  0
LINE
  8
0
 10
-16.0494
 20
-44.9063
 11
-15.9744
 21
-44.9142
  0
LINE
  8
0
 10
-15.9744
 20
-44.9142
 11
-15.8998
 21
-44.9252
  0
LINE
  8
0
 10
-15.8998
 20
-44.9252
 11
-15.8258
 21
-44.9393
  0
LINE
  8
0
 10
-15.8258
 20
-44.9393
 11
-15.7524
 21
-44.9565
  0
LINE
  8
0
 10
-15.7524
 20
-44.9565
 11
-15.6797
 21
-44.9768
  0
LINE
  8
0
 10
-15.6797
 20
-44.9768
 11
-15.608
 21
-45.0001
  0
LINE
  8
0
 10
-15.608
 20
-45.0001
 11
-15.5374
 21
-45.0264
  0
LINE
  8
0
 10
-15.5374
 20
-45.0264
 11
-15.4679
 21
-45.0556
  0
LINE
  8
0
 10
-15.4679
 20
-45.0556
 11
-15.3997
 21
-45.0877
  0
LINE
  8
0
 10
-15.3997
 20
-45.0877
 11
-15.3329
 21
-45.1226
  0
LINE
  8
0
 10
-15.3329
 20
-45.1226
 11
-15.2676
 21
-45.1603
  0
LINE
  8
0
 10
-15.2676
 20
-45.1603
 11
-15.2039
 21
-45.2007
  0
LINE
  8
0
 10
-15.2039
 20
-45.2007
 11
-15.142
 21
-45.2438
  0
LINE
  8
0
 10
-15.142
 20
-45.2438
 11
-15.0819
 21
-45.2893
  0
LINE
  8
0
 10
-15.0819
 20
-45.2893
 11
-15.0238
 21
-45.3374
  0
LINE
  8
0
 10
-15.0238
 20
-45.3374
 11
-14.9678
 21
-45.3878
  0
LINE
  8
0
 10
-14.9678
 20
-45.3878
 11
-14.914
 21
-45.4406
  0
LINE
  8
0
 10
-14.914
 20
-45.4406
 11
-14.8624
 21
-45.4956
  0
LINE
  8
0
 10
-14.8624
 20
-45.4956
 11
-14.8131
 21
-45.5526
  0
LINE
  8
0
 10
-14.8131
 20
-45.5526
 11
-14.7663
 21
-45.6117
  0
LINE
  8
0
 10
-14.7663
 20
-45.6117
 11
-14.7219
 21
-45.6727
  0
LINE
  8
0
 10
-14.7219
 20
-45.6727
 11
-14.6802
 21
-45.7355
  0
LINE
  8
0
 10
-14.6802
 20
-45.7355
 11
-14.6412
 21
-45.8
  0
LINE
  8
0
 10
-14.6412
 20
-45.8
 11
-14.6048
 21
-45.8661
  0
LINE
  8
0
 10
-14.6048
 20
-45.8661
 11
-14.5713
 21
-45.9336
  0
LINE
  8
0
 10
-14.5713
 20
-45.9336
 11
-14.5406
 21
-46.0025
  0
LINE
  8
0
 10
-14.5406
 20
-46.0025
 11
-14.5129
 21
-46.0726
  0
LINE
  8
0
 10
-14.5129
 20
-46.0726
 11
-14.4881
 21
-46.1438
  0
LINE
  8
0
 10
-14.4881
 20
-46.1438
 11
-14.4663
 21
-46.2159
  0
LINE
  8
0
 10
-14.4663
 20
-46.2159
 11
-14.4476
 21
-46.289
  0
LINE
  8
0
 10
-14.4476
 20
-46.289
 11
-14.4319
 21
-46.3627
  0
LINE
  8
0
 10
-14.4319
 20
-46.3627
 11
-14.4193
 21
-46.437
  0
LINE
  8
0
 10
-14.4193
 20
-46.437
 11
-14.4099
 21
-46.5118
  0
LINE
  8
0
 10
-14.4099
 20
-46.5118
 11
-14.4036
 21
-46.587
  0
LINE
  8
0
 10
-14.4036
 20
-46.587
 11
-14.4004
 21
-46.6623
  0
LINE
  8
0
 10
-14.4004
 20
-46.6623
 11
-14.4004
 21
-46.7377
  0
LINE
  8
0
 10
-14.4004
 20
-46.7377
 11
-14.4036
 21
-46.813
  0
LINE
  8
0
 10
-14.4036
 20
-46.813
 11
-14.4099
 21
-46.8881
  0
LINE
  8
0
 10
-14.4099
 20
-46.8881
 11
-14.4193
 21
-46.9629
  0
LINE
  8
0
 10
-14.4193
 20
-46.9629
 11
-14.4319
 21
-47.0373
  0
LINE
  8
0
 10
-14.4319
 20
-47.0373
 11
-14.4476
 21
-47.111
  0
LINE
  8
0
 10
-14.4476
 20
-47.111
 11
-14.4663
 21
-47.1841
  0
LINE
  8
0
 10
-14.4663
 20
-47.1841
 11
-14.4881
 21
-47.2562
  0
LINE
  8
0
 10
-14.4881
 20
-47.2562
 11
-14.5129
 21
-47.3274
  0
LINE
  8
0
 10
-14.5129
 20
-47.3274
 11
-14.5406
 21
-47.3975
  0
LINE
  8
0
 10
-14.5406
 20
-47.3975
 11
-14.5713
 21
-47.4664
  0
LINE
  8
0
 10
-14.5713
 20
-47.4664
 11
-14.6048
 21
-47.5339
  0
LINE
  8
0
 10
-14.6048
 20
-47.5339
 11
-14.6412
 21
-47.6
  0
LINE
  8
0
 10
-14.6412
 20
-47.6
 11
-14.6802
 21
-47.6645
  0
LINE
  8
0
 10
-14.6802
 20
-47.6645
 11
-14.7219
 21
-47.7273
  0
LINE
  8
0
 10
-14.7219
 20
-47.7273
 11
-14.7663
 21
-47.7883
  0
LINE
  8
0
 10
-14.7663
 20
-47.7883
 11
-14.8131
 21
-47.8474
  0
LINE
  8
0
 10
-14.8131
 20
-47.8474
 11
-14.8624
 21
-47.9044
  0
LINE
  8
0
 10
-14.8624
 20
-47.9044
 11
-14.914
 21
-47.9594
  0
LINE
  8
0
 10
-14.914
 20
-47.9594
 11
-14.9678
 21
-48.0121
  0
LINE
  8
0
 10
-14.9678
 20
-48.0121
 11
-15.0238
 21
-48.0626
  0
LINE
  8
0
 10
-15.0238
 20
-48.0626
 11
-15.0819
 21
-48.1106
  0
LINE
  8
0
 10
-15.0819
 20
-48.1106
 11
-15.142
 21
-48.1562
  0
LINE
  8
0
 10
-15.142
 20
-48.1562
 11
-15.2039
 21
-48.1992
  0
LINE
  8
0
 10
-15.2039
 20
-48.1992
 11
-15.2676
 21
-48.2397
  0
LINE
  8
0
 10
-15.2676
 20
-48.2397
 11
-15.3329
 21
-48.2773
  0
LINE
  8
0
 10
-15.3329
 20
-48.2773
 11
-15.3997
 21
-48.3123
  0
LINE
  8
0
 10
-15.3997
 20
-48.3123
 11
-15.4679
 21
-48.3444
  0
LINE
  8
0
 10
-15.4679
 20
-48.3444
 11
-15.5374
 21
-48.3736
  0
LINE
  8
0
 10
-15.5374
 20
-48.3736
 11
-15.608
 21
-48.3999
  0
LINE
  8
0
 10
-15.608
 20
-48.3999
 11
-15.6797
 21
-48.4232
  0
LINE
  8
0
 10
-15.6797
 20
-48.4232
 11
-15.7524
 21
-48.4434
  0
LINE
  8
0
 10
-15.7524
 20
-48.4434
 11
-15.8258
 21
-48.4607
  0
LINE
  8
0
 10
-15.8258
 20
-48.4607
 11
-15.8998
 21
-48.4748
  0
LINE
  8
0
 10
-15.8998
 20
-48.4748
 11
-15.9744
 21
-48.4858
  0
LINE
  8
0
 10
-15.9744
 20
-48.4858
 11
-16.0494
 21
-48.4937
  0
LINE
  8
0
 10
-16.0494
 20
-48.4937
 11
-16.1246
 21
-48.4984
  0
LINE
  8
0
 10
-16.1246
 20
-48.4984
 11
-16.2
 21
-48.5
  0
LINE
  8
0
 10
-16.2
 20
-48.5
 11
-16.2754
 21
-48.4984
  0
LINE
  8
0
 10
-99.8837
 20
-79.2982
 11
-99.9673
 21
-79.293
  0
LINE
  8
0
 10
-99.9673
 20
-79.293
 11
-100.051
 21
-79.2842
  0
LINE
  8
0
 10
-100.051
 20
-79.2842
 11
-100.134
 21
-79.272
  0
LINE
  8
0
 10
-100.134
 20
-79.272
 11
-100.216
 21
-79.2563
  0
LINE
  8
0
 10
-100.216
 20
-79.2563
 11
-100.297
 21
-79.2371
  0
LINE
  8
0
 10
-100.297
 20
-79.2371
 11
-100.378
 21
-79.2146
  0
LINE
  8
0
 10
-100.378
 20
-79.2146
 11
-100.458
 21
-79.1887
  0
LINE
  8
0
 10
-100.458
 20
-79.1887
 11
-100.536
 21
-79.1595
  0
LINE
  8
0
 10
-100.536
 20
-79.1595
 11
-100.613
 21
-79.1271
  0
LINE
  8
0
 10
-100.613
 20
-79.1271
 11
-100.689
 21
-79.0914
  0
LINE
  8
0
 10
-100.689
 20
-79.0914
 11
-100.764
 21
-79.0526
  0
LINE
  8
0
 10
-100.764
 20
-79.0526
 11
-100.836
 21
-79.0107
  0
LINE
  8
0
 10
-100.836
 20
-79.0107
 11
-100.907
 21
-78.9658
  0
LINE
  8
0
 10
-100.907
 20
-78.9658
 11
-100.976
 21
-78.918
  0
LINE
  8
0
 10
-100.976
 20
-78.918
 11
-101.042
 21
-78.8674
  0
LINE
  8
0
 10
-101.042
 20
-78.8674
 11
-101.107
 21
-78.814
  0
LINE
  8
0
 10
-101.107
 20
-78.814
 11
-101.169
 21
-78.7579
  0
LINE
  8
0
 10
-101.169
 20
-78.7579
 11
-101.229
 21
-78.6993
  0
LINE
  8
0
 10
-101.229
 20
-78.6993
 11
-101.286
 21
-78.6382
  0
LINE
  8
0
 10
-101.286
 20
-78.6382
 11
-101.341
 21
-78.5748
  0
LINE
  8
0
 10
-101.341
 20
-78.5748
 11
-101.393
 21
-78.5092
  0
LINE
  8
0
 10
-101.393
 20
-78.5092
 11
-101.442
 21
-78.4414
  0
LINE
  8
0
 10
-101.442
 20
-78.4414
 11
-101.489
 21
-78.3716
  0
LINE
  8
0
 10
-101.489
 20
-78.3716
 11
-101.532
 21
-78.3
  0
LINE
  8
0
 10
-101.532
 20
-78.3
 11
-101.572
 21
-78.2266
  0
LINE
  8
0
 10
-101.572
 20
-78.2266
 11
-101.61
 21
-78.1515
  0
LINE
  8
0
 10
-101.61
 20
-78.1515
 11
-101.644
 21
-78.075
  0
LINE
  8
0
 10
-101.644
 20
-78.075
 11
-101.675
 21
-77.9971
  0
LINE
  8
0
 10
-101.675
 20
-77.9971
 11
-101.702
 21
-77.918
  0
LINE
  8
0
 10
-101.702
 20
-77.918
 11
-101.726
 21
-77.8378
  0
LINE
  8
0
 10
-101.726
 20
-77.8378
 11
-101.747
 21
-77.7567
  0
LINE
  8
0
 10
-101.747
 20
-77.7567
 11
-101.765
 21
-77.6747
  0
LINE
  8
0
 10
-101.765
 20
-77.6747
 11
-101.779
 21
-77.5921
  0
LINE
  8
0
 10
-101.779
 20
-77.5921
 11
-101.789
 21
-77.509
  0
LINE
  8
0
 10
-101.789
 20
-77.509
 11
-101.796
 21
-77.4256
  0
LINE
  8
0
 10
-101.796
 20
-77.4256
 11
-101.8
 21
-77.3419
  0
LINE
  8
0
 10
-101.8
 20
-77.3419
 11
-101.8
 21
-77.2581
  0
LINE
  8
0
 10
-101.8
 20
-77.2581
 11
-101.796
 21
-77.1744
  0
LINE
  8
0
 10
-101.796
 20
-77.1744
 11
-101.789
 21
-77.0909
  0
LINE
  8
0
 10
-101.789
 20
-77.0909
 11
-101.779
 21
-77.0078
  0
LINE
  8
0
 10
-101.779
 20
-77.0078
 11
-101.765
 21
-76.9252
  0
LINE
  8
0
 10
-101.765
 20
-76.9252
 11
-101.747
 21
-76.8433
  0
LINE
  8
0
 10
-101.747
 20
-76.8433
 11
-101.726
 21
-76.7621
  0
LINE
  8
0
 10
-101.726
 20
-76.7621
 11
-101.702
 21
-76.6819
  0
LINE
  8
0
 10
-101.702
 20
-76.6819
 11
-101.675
 21
-76.6028
  0
LINE
  8
0
 10
-101.675
 20
-76.6028
 11
-101.644
 21
-76.5249
  0
LINE
  8
0
 10
-101.644
 20
-76.5249
 11
-101.61
 21
-76.4484
  0
LINE
  8
0
 10
-101.61
 20
-76.4484
 11
-101.572
 21
-76.3734
  0
LINE
  8
0
 10
-101.572
 20
-76.3734
 11
-101.532
 21
-76.3
  0
LINE
  8
0
 10
-101.532
 20
-76.3
 11
-101.489
 21
-76.2283
  0
LINE
  8
0
 10
-101.489
 20
-76.2283
 11
-101.442
 21
-76.1586
  0
LINE
  8
0
 10
-101.442
 20
-76.1586
 11
-101.393
 21
-76.0908
  0
LINE
  8
0
 10
-101.393
 20
-76.0908
 11
-101.341
 21
-76.0251
  0
LINE
  8
0
 10
-101.341
 20
-76.0251
 11
-101.286
 21
-75.9617
  0
LINE
  8
0
 10
-101.286
 20
-75.9617
 11
-101.229
 21
-75.9007
  0
LINE
  8
0
 10
-101.229
 20
-75.9007
 11
-101.169
 21
-75.842
  0
LINE
  8
0
 10
-101.169
 20
-75.842
 11
-101.107
 21
-75.786
  0
LINE
  8
0
 10
-101.107
 20
-75.786
 11
-101.042
 21
-75.7326
  0
LINE
  8
0
 10
-101.042
 20
-75.7326
 11
-100.976
 21
-75.6819
  0
LINE
  8
0
 10
-100.976
 20
-75.6819
 11
-100.907
 21
-75.6341
  0
LINE
  8
0
 10
-100.907
 20
-75.6341
 11
-100.836
 21
-75.5892
  0
LINE
  8
0
 10
-100.836
 20
-75.5892
 11
-100.764
 21
-75.5474
  0
LINE
  8
0
 10
-100.764
 20
-75.5474
 11
-100.689
 21
-75.5086
  0
LINE
  8
0
 10
-100.689
 20
-75.5086
 11
-100.613
 21
-75.4729
  0
LINE
  8
0
 10
-100.613
 20
-75.4729
 11
-100.536
 21
-75.4404
  0
LINE
  8
0
 10
-100.536
 20
-75.4404
 11
-100.458
 21
-75.4112
  0
LINE
  8
0
 10
-100.458
 20
-75.4112
 11
-100.378
 21
-75.3853
  0
LINE
  8
0
 10
-100.378
 20
-75.3853
 11
-100.297
 21
-75.3628
  0
LINE
  8
0
 10
-100.297
 20
-75.3628
 11
-100.216
 21
-75.3437
  0
LINE
  8
0
 10
-100.216
 20
-75.3437
 11
-100.134
 21
-75.328
  0
LINE
  8
0
 10
-100.134
 20
-75.328
 11
-100.051
 21
-75.3158
  0
LINE
  8
0
 10
-100.051
 20
-75.3158
 11
-99.9673
 21
-75.307
  0
LINE
  8
0
 10
-99.9673
 20
-75.307
 11
-99.8837
 21
-75.3017
  0
LINE
  8
0
 10
-99.8837
 20
-75.3017
 11
-99.8
 21
-75.3
  0
LINE
  8
0
 10
-99.8
 20
-75.3
 11
-99.7162
 21
-75.3017
  0
LINE
  8
0
 10
-99.7162
 20
-75.3017
 11
-99.6326
 21
-75.307
  0
LINE
  8
0
 10
-99.6326
 20
-75.307
 11
-99.5493
 21
-75.3158
  0
LINE
  8
0
 10
-99.5493
 20
-75.3158
 11
-99.4665
 21
-75.328
  0
LINE
  8
0
 10
-99.4665
 20
-75.328
 11
-99.3842
 21
-75.3437
  0
LINE
  8
0
 10
-99.3842
 20
-75.3437
 11
-99.3026
 21
-75.3628
  0
LINE
  8
0
 10
-99.3026
 20
-75.3628
 11
-99.2219
 21
-75.3853
  0
LINE
  8
0
 10
-99.2219
 20
-75.3853
 11
-99.1423
 21
-75.4112
  0
LINE
  8
0
 10
-99.1423
 20
-75.4112
 11
-99.0637
 21
-75.4404
  0
LINE
  8
0
 10
-99.0637
 20
-75.4404
 11
-98.9865
 21
-75.4729
  0
LINE
  8
0
 10
-98.9865
 20
-75.4729
 11
-98.9107
 21
-75.5086
  0
LINE
  8
0
 10
-98.9107
 20
-75.5086
 11
-98.8365
 21
-75.5474
  0
LINE
  8
0
 10
-98.8365
 20
-75.5474
 11
-98.7639
 21
-75.5892
  0
LINE
  8
0
 10
-98.7639
 20
-75.5892
 11
-98.6932
 21
-75.6341
  0
LINE
  8
0
 10
-98.6932
 20
-75.6341
 11
-98.6244
 21
-75.6819
  0
LINE
  8
0
 10
-98.6244
 20
-75.6819
 11
-98.5577
 21
-75.7326
  0
LINE
  8
0
 10
-98.5577
 20
-75.7326
 11
-98.4931
 21
-75.786
  0
LINE
  8
0
 10
-98.4931
 20
-75.786
 11
-98.4309
 21
-75.842
  0
LINE
  8
0
 10
-98.4309
 20
-75.842
 11
-98.371
 21
-75.9007
  0
LINE
  8
0
 10
-98.371
 20
-75.9007
 11
-98.3137
 21
-75.9617
  0
LINE
  8
0
 10
-98.3137
 20
-75.9617
 11
-98.259
 21
-76.0251
  0
LINE
  8
0
 10
-98.259
 20
-76.0251
 11
-98.2069
 21
-76.0908
  0
LINE
  8
0
 10
-98.2069
 20
-76.0908
 11
-98.1577
 21
-76.1586
  0
LINE
  8
0
 10
-98.1577
 20
-76.1586
 11
-98.1113
 21
-76.2283
  0
LINE
  8
0
 10
-98.1113
 20
-76.2283
 11
-98.0679
 21
-76.3
  0
LINE
  8
0
 10
-98.0679
 20
-76.3
 11
-98.0276
 21
-76.3734
  0
LINE
  8
0
 10
-98.0276
 20
-76.3734
 11
-97.9903
 21
-76.4484
  0
LINE
  8
0
 10
-97.9903
 20
-76.4484
 11
-97.9563
 21
-76.5249
  0
LINE
  8
0
 10
-97.9563
 20
-76.5249
 11
-97.9254
 21
-76.6028
  0
LINE
  8
0
 10
-97.9254
 20
-76.6028
 11
-97.8979
 21
-76.6819
  0
LINE
  8
0
 10
-97.8979
 20
-76.6819
 11
-97.8737
 21
-76.7621
  0
LINE
  8
0
 10
-97.8737
 20
-76.7621
 11
-97.8528
 21
-76.8433
  0
LINE
  8
0
 10
-97.8528
 20
-76.8433
 11
-97.8354
 21
-76.9252
  0
LINE
  8
0
 10
-97.8354
 20
-76.9252
 11
-97.8214
 21
-77.0078
  0
LINE
  8
0
 10
-97.8214
 20
-77.0078
 11
-97.8109
 21
-77.0909
  0
LINE
  8
0
 10
-97.8109
 20
-77.0909
 11
-97.8039
 21
-77.1744
  0
LINE
  8
0
 10
-97.8039
 20
-77.1744
 11
-97.8004
 21
-77.2581
  0
LINE
  8
0
 10
-97.8004
 20
-77.2581
 11
-97.8004
 21
-77.3419
  0
LINE
  8
0
 10
-97.8004
 20
-77.3419
 11
-97.8039
 21
-77.4256
  0
LINE
  8
0
 10
-97.8039
 20
-77.4256
 11
-97.8109
 21
-77.509
  0
LINE
  8
0
 10
-97.8109
 20
-77.509
 11
-97.8214
 21
-77.5921
  0
LINE
  8
0
 10
-97.8214
 20
-77.5921
 11
-97.8354
 21
-77.6747
  0
LINE
  8
0
 10
-97.8354
 20
-77.6747
 11
-97.8528
 21
-77.7567
  0
LINE
  8
0
 10
-97.8528
 20
-77.7567
 11
-97.8737
 21
-77.8378
  0
LINE
  8
0
 10
-97.8737
 20
-77.8378
 11
-97.8979
 21
-77.918
  0
LINE
  8
0
 10
-97.8979
 20
-77.918
 11
-97.9254
 21
-77.9971
  0
LINE
  8
0
 10
-97.9254
 20
-77.9971
 11
-97.9563
 21
-78.075
  0
LINE
  8
0
 10
-97.9563
 20
-78.075
 11
-97.9903
 21
-78.1515
  0
LINE
  8
0
 10
-97.9903
 20
-78.1515
 11
-98.0276
 21
-78.2266
  0
LINE
  8
0
 10
-98.0276
 20
-78.2266
 11
-98.0679
 21
-78.3
  0
LINE
  8
0
 10
-98.0679
 20
-78.3
 11
-98.1113
 21
-78.3716
  0
LINE
  8
0
 10
-98.1113
 20
-78.3716
 11
-98.1577
 21
-78.4414
  0
LINE
  8
0
 10
-98.1577
 20
-78.4414
 11
-98.2069
 21
-78.5092
  0
LINE
  8
0
 10
-98.2069
 20
-78.5092
 11
-98.259
 21
-78.5748
  0
LINE
  8
0
 10
-98.259
 20
-78.5748
 11
-98.3137
 21
-78.6382
  0
LINE
  8
0
 10
-98.3137
 20
-78.6382
 11
-98.371
 21
-78.6993
  0
LINE
  8
0
 10
-98.371
 20
-78.6993
 11
-98.4309
 21
-78.7579
  0
LINE
  8
0
 10
-98.4309
 20
-78.7579
 11
-98.4931
 21
-78.814
  0
LINE
  8
0
 10
-98.4931
 20
-78.814
 11
-98.5577
 21
-78.8674
  0
LINE
  8
0
 10
-98.5577
 20
-78.8674
 11
-98.6244
 21
-78.918
  0
LINE
  8
0
 10
-98.6244
 20
-78.918
 11
-98.6932
 21
-78.9658
  0
LINE
  8
0
 10
-98.6932
 20
-78.9658
 11
-98.7639
 21
-79.0107
  0
LINE
  8
0
 10
-98.7639
 20
-79.0107
 11
-98.8365
 21
-79.0526
  0
LINE
  8
0
 10
-98.8365
 20
-79.0526
 11
-98.9107
 21
-79.0914
  0
LINE
  8
0
 10
-98.9107
 20
-79.0914
 11
-98.9865
 21
-79.1271
  0
LINE
  8
0
 10
-98.9865
 20
-79.1271
 11
-99.0637
 21
-79.1595
  0
LINE
  8
0
 10
-99.0637
 20
-79.1595
 11
-99.1423
 21
-79.1887
  0
LINE
  8
0
 10
-99.1423
 20
-79.1887
 11
-99.2219
 21
-79.2146
  0
LINE
  8
0
 10
-99.2219
 20
-79.2146
 11
-99.3026
 21
-79.2371
  0
LINE
  8
0
 10
-99.3026
 20
-79.2371
 11
-99.3842
 21
-79.2563
  0
LINE
  8
0
 10
-99.3842
 20
-79.2563
 11
-99.4665
 21
-79.272
  0
LINE
  8
0
 10
-99.4665
 20
-79.272
 11
-99.5493
 21
-79.2842
  0
LINE
  8
0
 10
-99.5493
 20
-79.2842
 11
-99.6326
 21
-79.293
  0
LINE
  8
0
 10
-99.6326
 20
-79.293
 11
-99.7162
 21
-79.2982
  0
LINE
  8
0
 10
-99.7162
 20
-79.2982
 11
-99.8
 21
-79.3
  0
LINE
  8
0
 10
-99.8
 20
-79.3
 11
-99.8837
 21
-79.2982
  0
LINE
  8
0
 10
-20.2838
 20
-79.2982
 11
-20.3674
 21
-79.293
  0
LINE
  8
0
 10
-20.3674
 20
-79.293
 11
-20.4507
 21
-79.2842
  0
LINE
  8
0
 10
-20.4507
 20
-79.2842
 11
-20.5335
 21
-79.272
  0
LINE
  8
0
 10
-20.5335
 20
-79.272
 11
-20.6158
 21
-79.2563
  0
LINE
  8
0
 10
-20.6158
 20
-79.2563
 11
-20.6974
 21
-79.2372
  0
LINE
  8
0
 10
-20.6974
 20
-79.2372
 11
-20.7781
 21
-79.2146
  0
LINE
  8
0
 10
-20.7781
 20
-79.2146
 11
-20.8577
 21
-79.1888
  0
LINE
  8
0
 10
-20.8577
 20
-79.1888
 11
-20.9363
 21
-79.1595
  0
LINE
  8
0
 10
-20.9363
 20
-79.1595
 11
-21.0135
 21
-79.1271
  0
LINE
  8
0
 10
-21.0135
 20
-79.1271
 11
-21.0893
 21
-79.0914
  0
LINE
  8
0
 10
-21.0893
 20
-79.0914
 11
-21.1635
 21
-79.0526
  0
LINE
  8
0
 10
-21.1635
 20
-79.0526
 11
-21.2361
 21
-79.0107
  0
LINE
  8
0
 10
-21.2361
 20
-79.0107
 11
-21.3068
 21
-78.9658
  0
LINE
  8
0
 10
-21.3068
 20
-78.9658
 11
-21.3756
 21
-78.918
  0
LINE
  8
0
 10
-21.3756
 20
-78.918
 11
-21.4423
 21
-78.8674
  0
LINE
  8
0
 10
-21.4423
 20
-78.8674
 11
-21.5069
 21
-78.814
  0
LINE
  8
0
 10
-21.5069
 20
-78.814
 11
-21.5691
 21
-78.7579
  0
LINE
  8
0
 10
-21.5691
 20
-78.7579
 11
-21.629
 21
-78.6993
  0
LINE
  8
0
 10
-21.629
 20
-78.6993
 11
-21.6863
 21
-78.6383
  0
LINE
  8
0
 10
-21.6863
 20
-78.6383
 11
-21.741
 21
-78.5748
  0
LINE
  8
0
 10
-21.741
 20
-78.5748
 11
-21.7931
 21
-78.5092
  0
LINE
  8
0
 10
-21.7931
 20
-78.5092
 11
-21.8423
 21
-78.4414
  0
LINE
  8
0
 10
-21.8423
 20
-78.4414
 11
-21.8887
 21
-78.3716
  0
LINE
  8
0
 10
-21.8887
 20
-78.3716
 11
-21.9321
 21
-78.3
  0
LINE
  8
0
 10
-21.9321
 20
-78.3
 11
-21.9724
 21
-78.2266
  0
LINE
  8
0
 10
-21.9724
 20
-78.2266
 11
-22.0097
 21
-78.1516
  0
LINE
  8
0
 10
-22.0097
 20
-78.1516
 11
-22.0437
 21
-78.075
  0
LINE
  8
0
 10
-22.0437
 20
-78.075
 11
-22.0746
 21
-77.9971
  0
LINE
  8
0
 10
-22.0746
 20
-77.9971
 11
-22.1021
 21
-77.918
  0
LINE
  8
0
 10
-22.1021
 20
-77.918
 11
-22.1263
 21
-77.8378
  0
LINE
  8
0
 10
-22.1263
 20
-77.8378
 11
-22.1472
 21
-77.7567
  0
LINE
  8
0
 10
-22.1472
 20
-77.7567
 11
-22.1646
 21
-77.6748
  0
LINE
  8
0
 10
-22.1646
 20
-77.6748
 11
-22.1786
 21
-77.5922
  0
LINE
  8
0
 10
-22.1786
 20
-77.5922
 11
-22.1891
 21
-77.509
  0
LINE
  8
0
 10
-22.1891
 20
-77.509
 11
-22.1961
 21
-77.4256
  0
LINE
  8
0
 10
-22.1961
 20
-77.4256
 11
-22.1996
 21
-77.3419
  0
LINE
  8
0
 10
-22.1996
 20
-77.3419
 11
-22.1996
 21
-77.2581
  0
LINE
  8
0
 10
-22.1996
 20
-77.2581
 11
-22.1961
 21
-77.1744
  0
LINE
  8
0
 10
-22.1961
 20
-77.1744
 11
-22.1891
 21
-77.0909
  0
LINE
  8
0
 10
-22.1891
 20
-77.0909
 11
-22.1786
 21
-77.0078
  0
LINE
  8
0
 10
-22.1786
 20
-77.0078
 11
-22.1646
 21
-76.9252
  0
LINE
  8
0
 10
-22.1646
 20
-76.9252
 11
-22.1472
 21
-76.8433
  0
LINE
  8
0
 10
-22.1472
 20
-76.8433
 11
-22.1263
 21
-76.7621
  0
LINE
  8
0
 10
-22.1263
 20
-76.7621
 11
-22.1021
 21
-76.682
  0
LINE
  8
0
 10
-22.1021
 20
-76.682
 11
-22.0746
 21
-76.6028
  0
LINE
  8
0
 10
-22.0746
 20
-76.6028
 11
-22.0437
 21
-76.525
  0
LINE
  8
0
 10
-22.0437
 20
-76.525
 11
-22.0097
 21
-76.4484
  0
LINE
  8
0
 10
-22.0097
 20
-76.4484
 11
-21.9724
 21
-76.3734
  0
LINE
  8
0
 10
-21.9724
 20
-76.3734
 11
-21.9321
 21
-76.3
  0
LINE
  8
0
 10
-21.9321
 20
-76.3
 11
-21.8887
 21
-76.2283
  0
LINE
  8
0
 10
-21.8887
 20
-76.2283
 11
-21.8423
 21
-76.1586
  0
LINE
  8
0
 10
-21.8423
 20
-76.1586
 11
-21.7931
 21
-76.0908
  0
LINE
  8
0
 10
-21.7931
 20
-76.0908
 11
-21.741
 21
-76.0251
  0
LINE
  8
0
 10
-21.741
 20
-76.0251
 11
-21.6863
 21
-75.9617
  0
LINE
  8
0
 10
-21.6863
 20
-75.9617
 11
-21.629
 21
-75.9007
  0
LINE
  8
0
 10
-21.629
 20
-75.9007
 11
-21.5691
 21
-75.8421
  0
LINE
  8
0
 10
-21.5691
 20
-75.8421
 11
-21.5069
 21
-75.786
  0
LINE
  8
0
 10
-21.5069
 20
-75.786
 11
-21.4423
 21
-75.7326
  0
LINE
  8
0
 10
-21.4423
 20
-75.7326
 11
-21.3756
 21
-75.682
  0
LINE
  8
0
 10
-21.3756
 20
-75.682
 11
-21.3068
 21
-75.6342
  0
LINE
  8
0
 10
-21.3068
 20
-75.6342
 11
-21.2361
 21
-75.5893
  0
LINE
  8
0
 10
-21.2361
 20
-75.5893
 11
-21.1635
 21
-75.5474
  0
LINE
  8
0
 10
-21.1635
 20
-75.5474
 11
-21.0893
 21
-75.5086
  0
LINE
  8
0
 10
-21.0893
 20
-75.5086
 11
-21.0135
 21
-75.4729
  0
LINE
  8
0
 10
-21.0135
 20
-75.4729
 11
-20.9363
 21
-75.4404
  0
LINE
  8
0
 10
-20.9363
 20
-75.4404
 11
-20.8577
 21
-75.4112
  0
LINE
  8
0
 10
-20.8577
 20
-75.4112
 11
-20.7781
 21
-75.3854
  0
LINE
  8
0
 10
-20.7781
 20
-75.3854
 11
-20.6974
 21
-75.3628
  0
LINE
  8
0
 10
-20.6974
 20
-75.3628
 11
-20.6158
 21
-75.3437
  0
LINE
  8
0
 10
-20.6158
 20
-75.3437
 11
-20.5335
 21
-75.328
  0
LINE
  8
0
 10
-20.5335
 20
-75.328
 11
-20.4507
 21
-75.3158
  0
LINE
  8
0
 10
-20.4507
 20
-75.3158
 11
-20.3674
 21
-75.307
  0
LINE
  8
0
 10
-20.3674
 20
-75.307
 11
-20.2838
 21
-75.3017
  0
LINE
  8
0
 10
-20.2838
 20
-75.3017
 11
-20.2
 21
-75.3
  0
LINE
  8
0
 10
-20.2
 20
-75.3
 11
-20.1163
 21
-75.3017
  0
LINE
  8
0
 10
-20.1163
 20
-75.3017
 11
-20.0327
 21
-75.307
  0
LINE
  8
0
 10
-20.0327
 20
-75.307
 11
-19.9493
 21
-75.3158
  0
LINE
  8
0
 10
-19.9493
 20
-75.3158
 11
-19.8665
 21
-75.328
  0
LINE
  8
0
 10
-19.8665
 20
-75.328
 11
-19.7842
 21
-75.3437
  0
LINE
  8
0
 10
-19.7842
 20
-75.3437
 11
-19.7026
 21
-75.3628
  0
LINE
  8
0
 10
-19.7026
 20
-75.3628
 11
-19.6219
 21
-75.3854
  0
LINE
  8
0
 10
-19.6219
 20
-75.3854
 11
-19.5423
 21
-75.4112
  0
LINE
  8
0
 10
-19.5423
 20
-75.4112
 11
-19.4638
 21
-75.4404
  0
LINE
  8
0
 10
-19.4638
 20
-75.4404
 11
-19.3865
 21
-75.4729
  0
LINE
  8
0
 10
-19.3865
 20
-75.4729
 11
-19.3107
 21
-75.5086
  0
LINE
  8
0
 10
-19.3107
 20
-75.5086
 11
-19.2365
 21
-75.5474
  0
LINE
  8
0
 10
-19.2365
 20
-75.5474
 11
-19.164
 21
-75.5893
  0
LINE
  8
0
 10
-19.164
 20
-75.5893
 11
-19.0932
 21
-75.6342
  0
LINE
  8
0
 10
-19.0932
 20
-75.6342
 11
-19.0244
 21
-75.682
  0
LINE
  8
0
 10
-19.0244
 20
-75.682
 11
-18.9577
 21
-75.7326
  0
LINE
  8
0
 10
-18.9577
 20
-75.7326
 11
-18.8932
 21
-75.786
  0
LINE
  8
0
 10
-18.8932
 20
-75.786
 11
-18.8309
 21
-75.8421
  0
LINE
  8
0
 10
-18.8309
 20
-75.8421
 11
-18.7711
 21
-75.9007
  0
LINE
  8
0
 10
-18.7711
 20
-75.9007
 11
-18.7137
 21
-75.9617
  0
LINE
  8
0
 10
-18.7137
 20
-75.9617
 11
-18.659
 21
-76.0251
  0
LINE
  8
0
 10
-18.659
 20
-76.0251
 11
-18.6069
 21
-76.0908
  0
LINE
  8
0
 10
-18.6069
 20
-76.0908
 11
-18.5577
 21
-76.1586
  0
LINE
  8
0
 10
-18.5577
 20
-76.1586
 11
-18.5114
 21
-76.2283
  0
LINE
  8
0
 10
-18.5114
 20
-76.2283
 11
-18.468
 21
-76.3
  0
LINE
  8
0
 10
-18.468
 20
-76.3
 11
-18.4276
 21
-76.3734
  0
LINE
  8
0
 10
-18.4276
 20
-76.3734
 11
-18.3904
 21
-76.4484
  0
LINE
  8
0
 10
-18.3904
 20
-76.4484
 11
-18.3563
 21
-76.525
  0
LINE
  8
0
 10
-18.3563
 20
-76.525
 11
-18.3254
 21
-76.6028
  0
LINE
  8
0
 10
-18.3254
 20
-76.6028
 11
-18.2979
 21
-76.682
  0
LINE
  8
0
 10
-18.2979
 20
-76.682
 11
-18.2737
 21
-76.7621
  0
LINE
  8
0
 10
-18.2737
 20
-76.7621
 11
-18.2529
 21
-76.8433
  0
LINE
  8
0
 10
-18.2529
 20
-76.8433
 11
-18.2354
 21
-76.9252
  0
LINE
  8
0
 10
-18.2354
 20
-76.9252
 11
-18.2215
 21
-77.0078
  0
LINE
  8
0
 10
-18.2215
 20
-77.0078
 11
-18.211
 21
-77.0909
  0
LINE
  8
0
 10
-18.211
 20
-77.0909
 11
-18.2039
 21
-77.1744
  0
LINE
  8
0
 10
-18.2039
 20
-77.1744
 11
-18.2004
 21
-77.2581
  0
LINE
  8
0
 10
-18.2004
 20
-77.2581
 11
-18.2004
 21
-77.3419
  0
LINE
  8
0
 10
-18.2004
 20
-77.3419
 11
-18.2039
 21
-77.4256
  0
LINE
  8
0
 10
-18.2039
 20
-77.4256
 11
-18.211
 21
-77.509
  0
LINE
  8
0
 10
-18.211
 20
-77.509
 11
-18.2215
 21
-77.5922
  0
LINE
  8
0
 10
-18.2215
 20
-77.5922
 11
-18.2354
 21
-77.6748
  0
LINE
  8
0
 10
-18.2354
 20
-77.6748
 11
-18.2529
 21
-77.7567
  0
LINE
  8
0
 10
-18.2529
 20
-77.7567
 11
-18.2737
 21
-77.8378
  0
LINE
  8
0
 10
-18.2737
 20
-77.8378
 11
-18.2979
 21
-77.918
  0
LINE
  8
0
 10
-18.2979
 20
-77.918
 11
-18.3254
 21
-77.9971
  0
LINE
  8
0
 10
-18.3254
 20
-77.9971
 11
-18.3563
 21
-78.075
  0
LINE
  8
0
 10
-18.3563
 20
-78.075
 11
-18.3904
 21
-78.1516
  0
LINE
  8
0
 10
-18.3904
 20
-78.1516
 11
-18.4276
 21
-78.2266
  0
LINE
  8
0
 10
-18.4276
 20
-78.2266
 11
-18.468
 21
-78.3
  0
LINE
  8
0
 10
-18.468
 20
-78.3
 11
-18.5114
 21
-78.3716
  0
LINE
  8
0
 10
-18.5114
 20
-78.3716
 11
-18.5577
 21
-78.4414
  0
LINE
  8
0
 10
-18.5577
 20
-78.4414
 11
-18.6069
 21
-78.5092
  0
LINE
  8
0
 10
-18.6069
 20
-78.5092
 11
-18.659
 21
-78.5748
  0
LINE
  8
0
 10
-18.659
 20
-78.5748
 11
-18.7137
 21
-78.6383
  0
LINE
  8
0
 10
-18.7137
 20
-78.6383
 11
-18.7711
 21
-78.6993
  0
LINE
  8
0
 10
-18.7711
 20
-78.6993
 11
-18.8309
 21
-78.7579
  0
LINE
  8
0
 10
-18.8309
 20
-78.7579
 11
-18.8932
 21
-78.814
  0
LINE
  8
0
 10
-18.8932
 20
-78.814
 11
-18.9577
 21
-78.8674
  0
LINE
  8
0
 10
-18.9577
 20
-78.8674
 11
-19.0244
 21
-78.918
  0
LINE
  8
0
 10
-19.0244
 20
-78.918
 11
-19.0932
 21
-78.9658
  0
LINE
  8
0
 10
-19.0932
 20
-78.9658
 11
-19.164
 21
-79.0107
  0
LINE
  8
0
 10
-19.164
 20
-79.0107
 11
-19.2365
 21
-79.0526
  0
LINE
  8
0
 10
-19.2365
 20
-79.0526
 11
-19.3107
 21
-79.0914
  0
LINE
  8
0
 10
-19.3107
 20
-79.0914
 11
-19.3865
 21
-79.1271
  0
LINE
  8
0
 10
-19.3865
 20
-79.1271
 11
-19.4638
 21
-79.1595
  0
LINE
  8
0
 10
-19.4638
 20
-79.1595
 11
-19.5423
 21
-79.1888
  0
LINE
  8
0
 10
-19.5423
 20
-79.1888
 11
-19.6219
 21
-79.2146
  0
LINE
  8
0
 10
-19.6219
 20
-79.2146
 11
-19.7026
 21
-79.2372
  0
LINE
  8
0
 10
-19.7026
 20
-79.2372
 11
-19.7842
 21
-79.2563
  0
LINE
  8
0
 10
-19.7842
 20
-79.2563
 11
-19.8665
 21
-79.272
  0
LINE
  8
0
 10
-19.8665
 20
-79.272
 11
-19.9493
 21
-79.2842
  0
LINE
  8
0
 10
-19.9493
 20
-79.2842
 11
-20.0327
 21
-79.293
  0
LINE
  8
0
 10
-20.0327
 20
-79.293
 11
-20.1163
 21
-79.2982
  0
LINE
  8
0
 10
-20.1163
 20
-79.2982
 11
-20.2
 21
-79.3
  0
LINE
  8
0
 10
-20.2
 20
-79.3
 11
-20.2838
 21
-79.2982
  0
ENDSEC
  0
SECTION
  2
OBJECTS
  0
DICTIONARY
  0
ENDSEC
  0
EOF
