  0
SECTION
  2
BLOCKS
  0
ENDSEC
  0
SECTION
  2
ENTITIES
  0
LINE
  8
0
 10
-14.2157
 20
3.93001
 11
-8.64142
 21
3.93001
  0
LINE
  8
0
 10
-8.64142
 20
3.93001
 11
-8.64142
 21
0.830002
  0
LINE
  8
0
 10
-8.64142
 20
0.830002
 11
-2.78714
 21
0.830002
  0
LINE
  8
0
 10
-2.78714
 20
0.830002
 11
-2.78714
 21
3.93001
  0
LINE
  8
0
 10
-2.78714
 20
3.93001
 11
2.78714
 21
3.93001
  0
LINE
  8
0
 10
2.78714
 20
3.93001
 11
2.78714
 21
0.830002
  0
LINE
  8
0
 10
2.78714
 20
0.830002
 11
8.64142
 21
0.830002
  0
LINE
  8
0
 10
8.64142
 20
0.830002
 11
8.64142
 21
3.93001
  0
LINE
  8
0
 10
8.64142
 20
3.93001
 11
14.2157
 21
3.93001
  0
LINE
  8
0
 10
14.2157
 20
3.93001
 11
14.2157
 21
0.830002
  0
LINE
  8
0
 10
14.2157
 20
0.830002
 11
20.07
 21
0.830002
  0
LINE
  8
0
 10
20.07
 20
0.830002
 11
20.07
 21
0.930008
  0
LINE
  8
0
 10
20.07
 20
0.930008
 11
20.17
 21
0.930008
  0
LINE
  8
0
 10
20.17
 20
0.930008
 11
20.17
 21
6.78429
  0
LINE
  8
0
 10
20.17
 20
6.78429
 11
17.07
 21
6.78429
  0
LINE
  8
0
 10
17.07
 20
6.78429
 11
17.07
 21
12.3586
  0
LINE
  8
0
 10
17.07
 20
12.3586
 11
20.17
 21
12.3586
  0
LINE
  8
0
 10
20.17
 20
12.3586
 11
20.17
 21
18.2129
  0
LINE
  8
0
 10
20.17
 20
18.2129
 11
17.07
 21
18.2129
  0
LINE
  8
0
 10
17.07
 20
18.2129
 11
17.07
 21
23.7871
  0
LINE
  8
0
 10
17.07
 20
23.7871
 11
20.17
 21
23.7871
  0
LINE
  8
0
 10
20.17
 20
23.7871
 11
20.17
 21
29.6414
  0
LINE
  8
0
 10
20.17
 20
29.6414
 11
17.07
 21
29.6414
  0
LINE
  8
0
 10
17.07
 20
29.6414
 11
17.07
 21
35.2157
  0
LINE
  8
0
 10
17.07
 20
35.2157
 11
20.17
 21
35.2157
  0
LINE
  8
0
 10
20.17
 20
35.2157
 11
20.17
 21
41.07
  0
LINE
  8
0
 10
20.17
 20
41.07
 11
20.07
 21
41.07
  0
LINE
  8
0
 10
20.07
 20
41.07
 11
20.07
 21
41.17
  0
LINE
  8
0
 10
20.07
 20
41.17
 11
14.2157
 21
41.17
  0
LINE
  8
0
 10
14.2157
 20
41.17
 11
14.2157
 21
38.07
  0
LINE
  8
0
 10
14.2157
 20
38.07
 11
8.64142
 21
38.07
  0
LINE
  8
0
 10
8.64142
 20
38.07
 11
8.64142
 21
41.17
  0
LINE
  8
0
 10
8.64142
 20
41.17
 11
2.78714
 21
41.17
  0
LINE
  8
0
 10
2.78714
 20
41.17
 11
2.78714
 21
38.07
  0
LINE
  8
0
 10
2.78714
 20
38.07
 11
-2.78714
 21
38.07
  0
LINE
  8
0
 10
-2.78714
 20
38.07
 11
-2.78714
 21
41.17
  0
LINE
  8
0
 10
-2.78714
 20
41.17
 11
-8.64142
 21
41.17
  0
LINE
  8
0
 10
-8.64142
 20
41.17
 11
-8.64142
 21
38.07
  0
LINE
  8
0
 10
-8.64142
 20
38.07
 11
-14.2157
 21
38.07
  0
LINE
  8
0
 10
-14.2157
 20
38.07
 11
-14.2157
 21
41.17
  0
LINE
  8
0
 10
-14.2157
 20
41.17
 11
-20.07
 21
41.17
  0
LINE
  8
0
 10
-20.07
 20
41.17
 11
-20.07
 21
41.07
  0
LINE
  8
0
 10
-20.07
 20
41.07
 11
-20.17
 21
41.07
  0
LINE
  8
0
 10
-20.17
 20
41.07
 11
-20.17
 21
35.2157
  0
LINE
  8
0
 10
-20.17
 20
35.2157
 11
-17.07
 21
35.2157
  0
LINE
  8
0
 10
-17.07
 20
35.2157
 11
-17.07
 21
29.6414
  0
LINE
  8
0
 10
-17.07
 20
29.6414
 11
-20.17
 21
29.6414
  0
LINE
  8
0
 10
-20.17
 20
29.6414
 11
-20.17
 21
23.7871
  0
LINE
  8
0
 10
-20.17
 20
23.7871
 11
-17.07
 21
23.7871
  0
LINE
  8
0
 10
-17.07
 20
23.7871
 11
-17.07
 21
18.2129
  0
LINE
  8
0
 10
-17.07
 20
18.2129
 11
-20.17
 21
18.2129
  0
LINE
  8
0
 10
-20.17
 20
18.2129
 11
-20.17
 21
12.3586
  0
LINE
  8
0
 10
-20.17
 20
12.3586
 11
-17.07
 21
12.3586
  0
LINE
  8
0
 10
-17.07
 20
12.3586
 11
-17.07
 21
6.78429
  0
LINE
  8
0
 10
-17.07
 20
6.78429
 11
-20.17
 21
6.78429
  0
LINE
  8
0
 10
-20.17
 20
6.78429
 11
-20.17
 21
0.930008
  0
LINE
  8
0
 10
-20.17
 20
0.930008
 11
-20.07
 21
0.930008
  0
LINE
  8
0
 10
-20.07
 20
0.930008
 11
-20.07
 21
0.830002
  0
LINE
  8
0
 10
-20.07
 20
0.830002
 11
-14.2157
 21
0.830002
  0
LINE
  8
0
 10
-14.2157
 20
0.830002
 11
-14.2157
 21
3.93001
  0
LINE
  8
0
 10
5.15811
 20
24.2004
 11
5.07442
 21
24.2039
  0
LINE
  8
0
 10
5.07442
 20
24.2039
 11
4.99094
 21
24.211
  0
LINE
  8
0
 10
4.99094
 20
24.211
 11
4.90782
 21
24.2215
  0
LINE
  8
0
 10
4.90782
 20
24.2215
 11
4.82523
 21
24.2354
  0
LINE
  8
0
 10
4.82523
 20
24.2354
 11
4.74329
 21
24.2528
  0
LINE
  8
0
 10
4.74329
 20
24.2528
 11
4.66216
 21
24.2737
  0
LINE
  8
0
 10
4.66216
 20
24.2737
 11
4.58195
 21
24.2979
  0
LINE
  8
0
 10
4.58195
 20
24.2979
 11
4.50285
 21
24.3254
  0
LINE
  8
0
 10
4.50285
 20
24.3254
 11
4.42496
 21
24.3563
  0
LINE
  8
0
 10
4.42496
 20
24.3563
 11
4.34843
 21
24.3903
  0
LINE
  8
0
 10
4.34843
 20
24.3903
 11
4.27341
 21
24.4276
  0
LINE
  8
0
 10
4.27341
 20
24.4276
 11
4.2
 21
24.4679
  0
LINE
  8
0
 10
4.2
 20
24.4679
 11
4.12834
 21
24.5113
  0
LINE
  8
0
 10
4.12834
 20
24.5113
 11
4.05856
 21
24.5577
  0
LINE
  8
0
 10
4.05856
 20
24.5577
 11
3.9908
 21
24.6069
  0
LINE
  8
0
 10
3.9908
 20
24.6069
 11
3.92514
 21
24.659
  0
LINE
  8
0
 10
3.92514
 20
24.659
 11
3.86172
 21
24.7137
  0
LINE
  8
0
 10
3.86172
 20
24.7137
 11
3.80066
 21
24.771
  0
LINE
  8
0
 10
3.80066
 20
24.771
 11
3.74205
 21
24.8309
  0
LINE
  8
0
 10
3.74205
 20
24.8309
 11
3.686
 21
24.8932
  0
LINE
  8
0
 10
3.686
 20
24.8932
 11
3.6326
 21
24.9577
  0
LINE
  8
0
 10
3.6326
 20
24.9577
 11
3.58195
 21
25.0244
  0
LINE
  8
0
 10
3.58195
 20
25.0244
 11
3.53415
 21
25.0932
  0
LINE
  8
0
 10
3.53415
 20
25.0932
 11
3.48926
 21
25.1639
  0
LINE
  8
0
 10
3.48926
 20
25.1639
 11
3.44737
 21
25.2365
  0
LINE
  8
0
 10
3.44737
 20
25.2365
 11
3.40857
 21
25.3107
  0
LINE
  8
0
 10
3.40857
 20
25.3107
 11
3.37289
 21
25.3865
  0
LINE
  8
0
 10
3.37289
 20
25.3865
 11
3.34044
 21
25.4637
  0
LINE
  8
0
 10
3.34044
 20
25.4637
 11
3.31123
 21
25.5423
  0
LINE
  8
0
 10
3.31123
 20
25.5423
 11
3.28535
 21
25.6219
  0
LINE
  8
0
 10
3.28535
 20
25.6219
 11
3.26283
 21
25.7026
  0
LINE
  8
0
 10
3.26283
 20
25.7026
 11
3.2437
 21
25.7842
  0
LINE
  8
0
 10
3.2437
 20
25.7842
 11
3.228
 21
25.8665
  0
LINE
  8
0
 10
3.228
 20
25.8665
 11
3.21576
 21
25.9493
  0
LINE
  8
0
 10
3.21576
 20
25.9493
 11
3.207
 21
26.0326
  0
LINE
  8
0
 10
3.207
 20
26.0326
 11
3.20175
 21
26.1162
  0
LINE
  8
0
 10
3.20175
 20
26.1162
 11
3.2
 21
26.2
  0
LINE
  8
0
 10
3.2
 20
26.2
 11
3.20175
 21
26.2837
  0
LINE
  8
0
 10
3.20175
 20
26.2837
 11
3.207
 21
26.3674
  0
LINE
  8
0
 10
3.207
 20
26.3674
 11
3.21576
 21
26.4507
  0
LINE
  8
0
 10
3.21576
 20
26.4507
 11
3.228
 21
26.5335
  0
LINE
  8
0
 10
3.228
 20
26.5335
 11
3.2437
 21
26.6158
  0
LINE
  8
0
 10
3.2437
 20
26.6158
 11
3.26283
 21
26.6974
  0
LINE
  8
0
 10
3.26283
 20
26.6974
 11
3.28535
 21
26.7781
  0
LINE
  8
0
 10
3.28535
 20
26.7781
 11
3.31123
 21
26.8577
  0
LINE
  8
0
 10
3.31123
 20
26.8577
 11
3.34044
 21
26.9362
  0
LINE
  8
0
 10
3.34044
 20
26.9362
 11
3.37289
 21
27.0135
  0
LINE
  8
0
 10
3.37289
 20
27.0135
 11
3.40857
 21
27.0893
  0
LINE
  8
0
 10
3.40857
 20
27.0893
 11
3.44737
 21
27.1635
  0
LINE
  8
0
 10
3.44737
 20
27.1635
 11
3.48926
 21
27.2361
  0
LINE
  8
0
 10
3.48926
 20
27.2361
 11
3.53415
 21
27.3068
  0
LINE
  8
0
 10
3.53415
 20
27.3068
 11
3.58195
 21
27.3756
  0
LINE
  8
0
 10
3.58195
 20
27.3756
 11
3.6326
 21
27.4423
  0
LINE
  8
0
 10
3.6326
 20
27.4423
 11
3.686
 21
27.5068
  0
LINE
  8
0
 10
3.686
 20
27.5068
 11
3.74205
 21
27.5691
  0
LINE
  8
0
 10
3.74205
 20
27.5691
 11
3.80066
 21
27.6289
  0
LINE
  8
0
 10
3.80066
 20
27.6289
 11
3.86172
 21
27.6863
  0
LINE
  8
0
 10
3.86172
 20
27.6863
 11
3.92514
 21
27.741
  0
LINE
  8
0
 10
3.92514
 20
27.741
 11
3.9908
 21
27.793
  0
LINE
  8
0
 10
3.9908
 20
27.793
 11
4.05856
 21
27.8423
  0
LINE
  8
0
 10
4.05856
 20
27.8423
 11
4.12834
 21
27.8886
  0
LINE
  8
0
 10
4.12834
 20
27.8886
 11
4.2
 21
27.932
  0
LINE
  8
0
 10
4.2
 20
27.932
 11
4.27341
 21
27.9724
  0
LINE
  8
0
 10
4.27341
 20
27.9724
 11
4.34843
 21
28.0096
  0
LINE
  8
0
 10
4.34843
 20
28.0096
 11
4.42496
 21
28.0437
  0
LINE
  8
0
 10
4.42496
 20
28.0437
 11
4.50285
 21
28.0746
  0
LINE
  8
0
 10
4.50285
 20
28.0746
 11
4.58195
 21
28.1021
  0
LINE
  8
0
 10
4.58195
 20
28.1021
 11
4.66216
 21
28.1263
  0
LINE
  8
0
 10
4.66216
 20
28.1263
 11
4.74329
 21
28.1472
  0
LINE
  8
0
 10
4.74329
 20
28.1472
 11
4.82523
 21
28.1646
  0
LINE
  8
0
 10
4.82523
 20
28.1646
 11
4.90782
 21
28.1785
  0
LINE
  8
0
 10
4.90782
 20
28.1785
 11
4.99094
 21
28.189
  0
LINE
  8
0
 10
4.99094
 20
28.189
 11
5.07442
 21
28.196
  0
LINE
  8
0
 10
5.07442
 20
28.196
 11
5.15811
 21
28.1996
  0
LINE
  8
0
 10
5.15811
 20
28.1996
 11
5.24188
 21
28.1996
  0
LINE
  8
0
 10
5.24188
 20
28.1996
 11
5.32558
 21
28.196
  0
LINE
  8
0
 10
5.32558
 20
28.196
 11
5.40904
 21
28.189
  0
LINE
  8
0
 10
5.40904
 20
28.189
 11
5.49216
 21
28.1785
  0
LINE
  8
0
 10
5.49216
 20
28.1785
 11
5.57475
 21
28.1646
  0
LINE
  8
0
 10
5.57475
 20
28.1646
 11
5.65669
 21
28.1472
  0
LINE
  8
0
 10
5.65669
 20
28.1472
 11
5.73784
 21
28.1263
  0
LINE
  8
0
 10
5.73784
 20
28.1263
 11
5.81802
 21
28.1021
  0
LINE
  8
0
 10
5.81802
 20
28.1021
 11
5.89714
 21
28.0746
  0
LINE
  8
0
 10
5.89714
 20
28.0746
 11
5.97502
 21
28.0437
  0
LINE
  8
0
 10
5.97502
 20
28.0437
 11
6.05154
 21
28.0096
  0
LINE
  8
0
 10
6.05154
 20
28.0096
 11
6.12659
 21
27.9724
  0
LINE
  8
0
 10
6.12659
 20
27.9724
 11
6.2
 21
27.932
  0
LINE
  8
0
 10
6.2
 20
27.932
 11
6.27165
 21
27.8886
  0
LINE
  8
0
 10
6.27165
 20
27.8886
 11
6.34142
 21
27.8423
  0
LINE
  8
0
 10
6.34142
 20
27.8423
 11
6.40919
 21
27.793
  0
LINE
  8
0
 10
6.40919
 20
27.793
 11
6.47484
 21
27.741
  0
LINE
  8
0
 10
6.47484
 20
27.741
 11
6.53825
 21
27.6863
  0
LINE
  8
0
 10
6.53825
 20
27.6863
 11
6.59932
 21
27.6289
  0
LINE
  8
0
 10
6.59932
 20
27.6289
 11
6.65793
 21
27.5691
  0
LINE
  8
0
 10
6.65793
 20
27.5691
 11
6.71399
 21
27.5068
  0
LINE
  8
0
 10
6.71399
 20
27.5068
 11
6.76738
 21
27.4423
  0
LINE
  8
0
 10
6.76738
 20
27.4423
 11
6.81802
 21
27.3756
  0
LINE
  8
0
 10
6.81802
 20
27.3756
 11
6.86583
 21
27.3068
  0
LINE
  8
0
 10
6.86583
 20
27.3068
 11
6.91072
 21
27.2361
  0
LINE
  8
0
 10
6.91072
 20
27.2361
 11
6.95261
 21
27.1635
  0
LINE
  8
0
 10
6.95261
 20
27.1635
 11
6.99141
 21
27.0893
  0
LINE
  8
0
 10
6.99141
 20
27.0893
 11
7.02708
 21
27.0135
  0
LINE
  8
0
 10
7.02708
 20
27.0135
 11
7.05954
 21
26.9362
  0
LINE
  8
0
 10
7.05954
 20
26.9362
 11
7.08875
 21
26.8577
  0
LINE
  8
0
 10
7.08875
 20
26.8577
 11
7.11462
 21
26.7781
  0
LINE
  8
0
 10
7.11462
 20
26.7781
 11
7.13716
 21
26.6974
  0
LINE
  8
0
 10
7.13716
 20
26.6974
 11
7.15628
 21
26.6158
  0
LINE
  8
0
 10
7.15628
 20
26.6158
 11
7.17198
 21
26.5335
  0
LINE
  8
0
 10
7.17198
 20
26.5335
 11
7.18422
 21
26.4507
  0
LINE
  8
0
 10
7.18422
 20
26.4507
 11
7.19298
 21
26.3674
  0
LINE
  8
0
 10
7.19298
 20
26.3674
 11
7.19824
 21
26.2837
  0
LINE
  8
0
 10
7.19824
 20
26.2837
 11
7.2
 21
26.2
  0
LINE
  8
0
 10
7.2
 20
26.2
 11
7.19824
 21
26.1162
  0
LINE
  8
0
 10
7.19824
 20
26.1162
 11
7.19298
 21
26.0326
  0
LINE
  8
0
 10
7.19298
 20
26.0326
 11
7.18422
 21
25.9493
  0
LINE
  8
0
 10
7.18422
 20
25.9493
 11
7.17198
 21
25.8665
  0
LINE
  8
0
 10
7.17198
 20
25.8665
 11
7.15628
 21
25.7842
  0
LINE
  8
0
 10
7.15628
 20
25.7842
 11
7.13716
 21
25.7026
  0
LINE
  8
0
 10
7.13716
 20
25.7026
 11
7.11462
 21
25.6219
  0
LINE
  8
0
 10
7.11462
 20
25.6219
 11
7.08875
 21
25.5423
  0
LINE
  8
0
 10
7.08875
 20
25.5423
 11
7.05954
 21
25.4637
  0
LINE
  8
0
 10
7.05954
 20
25.4637
 11
7.02708
 21
25.3865
  0
LINE
  8
0
 10
7.02708
 20
25.3865
 11
6.99141
 21
25.3107
  0
LINE
  8
0
 10
6.99141
 20
25.3107
 11
6.95261
 21
25.2365
  0
LINE
  8
0
 10
6.95261
 20
25.2365
 11
6.91072
 21
25.1639
  0
LINE
  8
0
 10
6.91072
 20
25.1639
 11
6.86583
 21
25.0932
  0
LINE
  8
0
 10
6.86583
 20
25.0932
 11
6.81802
 21
25.0244
  0
LINE
  8
0
 10
6.81802
 20
25.0244
 11
6.76738
 21
24.9577
  0
LINE
  8
0
 10
6.76738
 20
24.9577
 11
6.71399
 21
24.8932
  0
LINE
  8
0
 10
6.71399
 20
24.8932
 11
6.65793
 21
24.8309
  0
LINE
  8
0
 10
6.65793
 20
24.8309
 11
6.59932
 21
24.771
  0
LINE
  8
0
 10
6.59932
 20
24.771
 11
6.53825
 21
24.7137
  0
LINE
  8
0
 10
6.53825
 20
24.7137
 11
6.47484
 21
24.659
  0
LINE
  8
0
 10
6.47484
 20
24.659
 11
6.40919
 21
24.6069
  0
LINE
  8
0
 10
6.40919
 20
24.6069
 11
6.34142
 21
24.5577
  0
LINE
  8
0
 10
6.34142
 20
24.5577
 11
6.27165
 21
24.5113
  0
LINE
  8
0
 10
6.27165
 20
24.5113
 11
6.2
 21
24.4679
  0
LINE
  8
0
 10
6.2
 20
24.4679
 11
6.12659
 21
24.4276
  0
LINE
  8
0
 10
6.12659
 20
24.4276
 11
6.05154
 21
24.3903
  0
LINE
  8
0
 10
6.05154
 20
24.3903
 11
5.97502
 21
24.3563
  0
LINE
  8
0
 10
5.97502
 20
24.3563
 11
5.89714
 21
24.3254
  0
LINE
  8
0
 10
5.89714
 20
24.3254
 11
5.81802
 21
24.2979
  0
LINE
  8
0
 10
5.81802
 20
24.2979
 11
5.73784
 21
24.2737
  0
LINE
  8
0
 10
5.73784
 20
24.2737
 11
5.65669
 21
24.2528
  0
LINE
  8
0
 10
5.65669
 20
24.2528
 11
5.57475
 21
24.2354
  0
LINE
  8
0
 10
5.57475
 20
24.2354
 11
5.49216
 21
24.2215
  0
LINE
  8
0
 10
5.49216
 20
24.2215
 11
5.40904
 21
24.211
  0
LINE
  8
0
 10
5.40904
 20
24.211
 11
5.32558
 21
24.2039
  0
LINE
  8
0
 10
5.32558
 20
24.2039
 11
5.24188
 21
24.2004
  0
LINE
  8
0
 10
5.24188
 20
24.2004
 11
5.15811
 21
24.2004
  0
LINE
  8
0
 10
-5.24188
 20
24.2004
 11
-5.32558
 21
24.2039
  0
LINE
  8
0
 10
-5.32558
 20
24.2039
 11
-5.40904
 21
24.211
  0
LINE
  8
0
 10
-5.40904
 20
24.211
 11
-5.49216
 21
24.2215
  0
LINE
  8
0
 10
-5.49216
 20
24.2215
 11
-5.57475
 21
24.2354
  0
LINE
  8
0
 10
-5.57475
 20
24.2354
 11
-5.65669
 21
24.2528
  0
LINE
  8
0
 10
-5.65669
 20
24.2528
 11
-5.73784
 21
24.2737
  0
LINE
  8
0
 10
-5.73784
 20
24.2737
 11
-5.81802
 21
24.2979
  0
LINE
  8
0
 10
-5.81802
 20
24.2979
 11
-5.89714
 21
24.3254
  0
LINE
  8
0
 10
-5.89714
 20
24.3254
 11
-5.97502
 21
24.3563
  0
LINE
  8
0
 10
-5.97502
 20
24.3563
 11
-6.05154
 21
24.3903
  0
LINE
  8
0
 10
-6.05154
 20
24.3903
 11
-6.12659
 21
24.4276
  0
LINE
  8
0
 10
-6.12659
 20
24.4276
 11
-6.2
 21
24.4679
  0
LINE
  8
0
 10
-6.2
 20
24.4679
 11
-6.27165
 21
24.5113
  0
LINE
  8
0
 10
-6.27165
 20
24.5113
 11
-6.34142
 21
24.5577
  0
LINE
  8
0
 10
-6.34142
 20
24.5577
 11
-6.40919
 21
24.6069
  0
LINE
  8
0
 10
-6.40919
 20
24.6069
 11
-6.47484
 21
24.659
  0
LINE
  8
0
 10
-6.47484
 20
24.659
 11
-6.53825
 21
24.7137
  0
LINE
  8
0
 10
-6.53825
 20
24.7137
 11
-6.59932
 21
24.771
  0
LINE
  8
0
 10
-6.59932
 20
24.771
 11
-6.65793
 21
24.8309
  0
LINE
  8
0
 10
-6.65793
 20
24.8309
 11
-6.71399
 21
24.8932
  0
LINE
  8
0
 10
-6.71399
 20
24.8932
 11
-6.76738
 21
24.9577
  0
LINE
  8
0
 10
-6.76738
 20
24.9577
 11
-6.81802
 21
25.0244
  0
LINE
  8
0
 10
-6.81802
 20
25.0244
 11
-6.86583
 21
25.0932
  0
LINE
  8
0
 10
-6.86583
 20
25.0932
 11
-6.91072
 21
25.1639
  0
LINE
  8
0
 10
-6.91072
 20
25.1639
 11
-6.95261
 21
25.2365
  0
LINE
  8
0
 10
-6.95261
 20
25.2365
 11
-6.99141
 21
25.3107
  0
LINE
  8
0
 10
-6.99141
 20
25.3107
 11
-7.02708
 21
25.3865
  0
LINE
  8
0
 10
-7.02708
 20
25.3865
 11
-7.05954
 21
25.4637
  0
LINE
  8
0
 10
-7.05954
 20
25.4637
 11
-7.08875
 21
25.5423
  0
LINE
  8
0
 10
-7.08875
 20
25.5423
 11
-7.11462
 21
25.6219
  0
LINE
  8
0
 10
-7.11462
 20
25.6219
 11
-7.13716
 21
25.7026
  0
LINE
  8
0
 10
-7.13716
 20
25.7026
 11
-7.15628
 21
25.7842
  0
LINE
  8
0
 10
-7.15628
 20
25.7842
 11
-7.17198
 21
25.8665
  0
LINE
  8
0
 10
-7.17198
 20
25.8665
 11
-7.18422
 21
25.9493
  0
LINE
  8
0
 10
-7.18422
 20
25.9493
 11
-7.19298
 21
26.0326
  0
LINE
  8
0
 10
-7.19298
 20
26.0326
 11
-7.19824
 21
26.1162
  0
LINE
  8
0
 10
-7.19824
 20
26.1162
 11
-7.2
 21
26.2
  0
LINE
  8
0
 10
-7.2
 20
26.2
 11
-7.19824
 21
26.2837
  0
LINE
  8
0
 10
-7.19824
 20
26.2837
 11
-7.19298
 21
26.3674
  0
LINE
  8
0
 10
-7.19298
 20
26.3674
 11
-7.18422
 21
26.4507
  0
LINE
  8
0
 10
-7.18422
 20
26.4507
 11
-7.17198
 21
26.5335
  0
LINE
  8
0
 10
-7.17198
 20
26.5335
 11
-7.15628
 21
26.6158
  0
LINE
  8
0
 10
-7.15628
 20
26.6158
 11
-7.13716
 21
26.6974
  0
LINE
  8
0
 10
-7.13716
 20
26.6974
 11
-7.11462
 21
26.7781
  0
LINE
  8
0
 10
-7.11462
 20
26.7781
 11
-7.08875
 21
26.8577
  0
LINE
  8
0
 10
-7.08875
 20
26.8577
 11
-7.05954
 21
26.9362
  0
LINE
  8
0
 10
-7.05954
 20
26.9362
 11
-7.02708
 21
27.0135
  0
LINE
  8
0
 10
-7.02708
 20
27.0135
 11
-6.99141
 21
27.0893
  0
LINE
  8
0
 10
-6.99141
 20
27.0893
 11
-6.95261
 21
27.1635
  0
LINE
  8
0
 10
-6.95261
 20
27.1635
 11
-6.91072
 21
27.2361
  0
LINE
  8
0
 10
-6.91072
 20
27.2361
 11
-6.86583
 21
27.3068
  0
LINE
  8
0
 10
-6.86583
 20
27.3068
 11
-6.81802
 21
27.3756
  0
LINE
  8
0
 10
-6.81802
 20
27.3756
 11
-6.76738
 21
27.4423
  0
LINE
  8
0
 10
-6.76738
 20
27.4423
 11
-6.71399
 21
27.5068
  0
LINE
  8
0
 10
-6.71399
 20
27.5068
 11
-6.65793
 21
27.5691
  0
LINE
  8
0
 10
-6.65793
 20
27.5691
 11
-6.59932
 21
27.6289
  0
LINE
  8
0
 10
-6.59932
 20
27.6289
 11
-6.53825
 21
27.6863
  0
LINE
  8
0
 10
-6.53825
 20
27.6863
 11
-6.47484
 21
27.741
  0
LINE
  8
0
 10
-6.47484
 20
27.741
 11
-6.40919
 21
27.793
  0
LINE
  8
0
 10
-6.40919
 20
27.793
 11
-6.34142
 21
27.8423
  0
LINE
  8
0
 10
-6.34142
 20
27.8423
 11
-6.27165
 21
27.8886
  0
LINE
  8
0
 10
-6.27165
 20
27.8886
 11
-6.2
 21
27.932
  0
LINE
  8
0
 10
-6.2
 20
27.932
 11
-6.12659
 21
27.9724
  0
LINE
  8
0
 10
-6.12659
 20
27.9724
 11
-6.05154
 21
28.0096
  0
LINE
  8
0
 10
-6.05154
 20
28.0096
 11
-5.97502
 21
28.0437
  0
LINE
  8
0
 10
-5.97502
 20
28.0437
 11
-5.89714
 21
28.0746
  0
LINE
  8
0
 10
-5.89714
 20
28.0746
 11
-5.81802
 21
28.1021
  0
LINE
  8
0
 10
-5.81802
 20
28.1021
 11
-5.73784
 21
28.1263
  0
LINE
  8
0
 10
-5.73784
 20
28.1263
 11
-5.65669
 21
28.1472
  0
LINE
  8
0
 10
-5.65669
 20
28.1472
 11
-5.57475
 21
28.1646
  0
LINE
  8
0
 10
-5.57475
 20
28.1646
 11
-5.49216
 21
28.1785
  0
LINE
  8
0
 10
-5.49216
 20
28.1785
 11
-5.40904
 21
28.189
  0
LINE
  8
0
 10
-5.40904
 20
28.189
 11
-5.32558
 21
28.196
  0
LINE
  8
0
 10
-5.32558
 20
28.196
 11
-5.24188
 21
28.1996
  0
LINE
  8
0
 10
-5.24188
 20
28.1996
 11
-5.15811
 21
28.1996
  0
LINE
  8
0
 10
-5.15811
 20
28.1996
 11
-5.07442
 21
28.196
  0
LINE
  8
0
 10
-5.07442
 20
28.196
 11
-4.99094
 21
28.189
  0
LINE
  8
0
 10
-4.99094
 20
28.189
 11
-4.90782
 21
28.1785
  0
LINE
  8
0
 10
-4.90782
 20
28.1785
 11
-4.82523
 21
28.1646
  0
LINE
  8
0
 10
-4.82523
 20
28.1646
 11
-4.74329
 21
28.1472
  0
LINE
  8
0
 10
-4.74329
 20
28.1472
 11
-4.66216
 21
28.1263
  0
LINE
  8
0
 10
-4.66216
 20
28.1263
 11
-4.58195
 21
28.1021
  0
LINE
  8
0
 10
-4.58195
 20
28.1021
 11
-4.50285
 21
28.0746
  0
LINE
  8
0
 10
-4.50285
 20
28.0746
 11
-4.42496
 21
28.0437
  0
LINE
  8
0
 10
-4.42496
 20
28.0437
 11
-4.34843
 21
28.0096
  0
LINE
  8
0
 10
-4.34843
 20
28.0096
 11
-4.27341
 21
27.9724
  0
LINE
  8
0
 10
-4.27341
 20
27.9724
 11
-4.2
 21
27.932
  0
LINE
  8
0
 10
-4.2
 20
27.932
 11
-4.12834
 21
27.8886
  0
LINE
  8
0
 10
-4.12834
 20
27.8886
 11
-4.05856
 21
27.8423
  0
LINE
  8
0
 10
-4.05856
 20
27.8423
 11
-3.9908
 21
27.793
  0
LINE
  8
0
 10
-3.9908
 20
27.793
 11
-3.92514
 21
27.741
  0
LINE
  8
0
 10
-3.92514
 20
27.741
 11
-3.86172
 21
27.6863
  0
LINE
  8
0
 10
-3.86172
 20
27.6863
 11
-3.80066
 21
27.6289
  0
LINE
  8
0
 10
-3.80066
 20
27.6289
 11
-3.74205
 21
27.5691
  0
LINE
  8
0
 10
-3.74205
 20
27.5691
 11
-3.686
 21
27.5068
  0
LINE
  8
0
 10
-3.686
 20
27.5068
 11
-3.6326
 21
27.4423
  0
LINE
  8
0
 10
-3.6326
 20
27.4423
 11
-3.58195
 21
27.3756
  0
LINE
  8
0
 10
-3.58195
 20
27.3756
 11
-3.53415
 21
27.3068
  0
LINE
  8
0
 10
-3.53415
 20
27.3068
 11
-3.48926
 21
27.2361
  0
LINE
  8
0
 10
-3.48926
 20
27.2361
 11
-3.44737
 21
27.1635
  0
LINE
  8
0
 10
-3.44737
 20
27.1635
 11
-3.40857
 21
27.0893
  0
LINE
  8
0
 10
-3.40857
 20
27.0893
 11
-3.37289
 21
27.0135
  0
LINE
  8
0
 10
-3.37289
 20
27.0135
 11
-3.34044
 21
26.9362
  0
LINE
  8
0
 10
-3.34044
 20
26.9362
 11
-3.31123
 21
26.8577
  0
LINE
  8
0
 10
-3.31123
 20
26.8577
 11
-3.28535
 21
26.7781
  0
LINE
  8
0
 10
-3.28535
 20
26.7781
 11
-3.26283
 21
26.6974
  0
LINE
  8
0
 10
-3.26283
 20
26.6974
 11
-3.2437
 21
26.6158
  0
LINE
  8
0
 10
-3.2437
 20
26.6158
 11
-3.228
 21
26.5335
  0
LINE
  8
0
 10
-3.228
 20
26.5335
 11
-3.21576
 21
26.4507
  0
LINE
  8
0
 10
-3.21576
 20
26.4507
 11
-3.207
 21
26.3674
  0
LINE
  8
0
 10
-3.207
 20
26.3674
 11
-3.20175
 21
26.2837
  0
LINE
  8
0
 10
-3.20175
 20
26.2837
 11
-3.2
 21
26.2
  0
LINE
  8
0
 10
-3.2
 20
26.2
 11
-3.20175
 21
26.1162
  0
LINE
  8
0
 10
-3.20175
 20
26.1162
 11
-3.207
 21
26.0326
  0
LINE
  8
0
 10
-3.207
 20
26.0326
 11
-3.21576
 21
25.9493
  0
LINE
  8
0
 10
-3.21576
 20
25.9493
 11
-3.228
 21
25.8665
  0
LINE
  8
0
 10
-3.228
 20
25.8665
 11
-3.2437
 21
25.7842
  0
LINE
  8
0
 10
-3.2437
 20
25.7842
 11
-3.26283
 21
25.7026
  0
LINE
  8
0
 10
-3.26283
 20
25.7026
 11
-3.28535
 21
25.6219
  0
LINE
  8
0
 10
-3.28535
 20
25.6219
 11
-3.31123
 21
25.5423
  0
LINE
  8
0
 10
-3.31123
 20
25.5423
 11
-3.34044
 21
25.4637
  0
LINE
  8
0
 10
-3.34044
 20
25.4637
 11
-3.37289
 21
25.3865
  0
LINE
  8
0
 10
-3.37289
 20
25.3865
 11
-3.40857
 21
25.3107
  0
LINE
  8
0
 10
-3.40857
 20
25.3107
 11
-3.44737
 21
25.2365
  0
LINE
  8
0
 10
-3.44737
 20
25.2365
 11
-3.48926
 21
25.1639
  0
LINE
  8
0
 10
-3.48926
 20
25.1639
 11
-3.53415
 21
25.0932
  0
LINE
  8
0
 10
-3.53415
 20
25.0932
 11
-3.58195
 21
25.0244
  0
LINE
  8
0
 10
-3.58195
 20
25.0244
 11
-3.6326
 21
24.9577
  0
LINE
  8
0
 10
-3.6326
 20
24.9577
 11
-3.686
 21
24.8932
  0
LINE
  8
0
 10
-3.686
 20
24.8932
 11
-3.74205
 21
24.8309
  0
LINE
  8
0
 10
-3.74205
 20
24.8309
 11
-3.80066
 21
24.771
  0
LINE
  8
0
 10
-3.80066
 20
24.771
 11
-3.86172
 21
24.7137
  0
LINE
  8
0
 10
-3.86172
 20
24.7137
 11
-3.92514
 21
24.659
  0
LINE
  8
0
 10
-3.92514
 20
24.659
 11
-3.9908
 21
24.6069
  0
LINE
  8
0
 10
-3.9908
 20
24.6069
 11
-4.05856
 21
24.5577
  0
LINE
  8
0
 10
-4.05856
 20
24.5577
 11
-4.12834
 21
24.5113
  0
LINE
  8
0
 10
-4.12834
 20
24.5113
 11
-4.2
 21
24.4679
  0
LINE
  8
0
 10
-4.2
 20
24.4679
 11
-4.27341
 21
24.4276
  0
LINE
  8
0
 10
-4.27341
 20
24.4276
 11
-4.34843
 21
24.3903
  0
LINE
  8
0
 10
-4.34843
 20
24.3903
 11
-4.42496
 21
24.3563
  0
LINE
  8
0
 10
-4.42496
 20
24.3563
 11
-4.50285
 21
24.3254
  0
LINE
  8
0
 10
-4.50285
 20
24.3254
 11
-4.58195
 21
24.2979
  0
LINE
  8
0
 10
-4.58195
 20
24.2979
 11
-4.66216
 21
24.2737
  0
LINE
  8
0
 10
-4.66216
 20
24.2737
 11
-4.74329
 21
24.2528
  0
LINE
  8
0
 10
-4.74329
 20
24.2528
 11
-4.82523
 21
24.2354
  0
LINE
  8
0
 10
-4.82523
 20
24.2354
 11
-4.90782
 21
24.2215
  0
LINE
  8
0
 10
-4.90782
 20
24.2215
 11
-4.99094
 21
24.211
  0
LINE
  8
0
 10
-4.99094
 20
24.211
 11
-5.07442
 21
24.2039
  0
LINE
  8
0
 10
-5.07442
 20
24.2039
 11
-5.15811
 21
24.2004
  0
LINE
  8
0
 10
-5.15811
 20
24.2004
 11
-5.24188
 21
24.2004
  0
LINE
  8
0
 10
5.15811
 20
13.8004
 11
5.07442
 21
13.804
  0
LINE
  8
0
 10
5.07442
 20
13.804
 11
4.99094
 21
13.811
  0
LINE
  8
0
 10
4.99094
 20
13.811
 11
4.90782
 21
13.8215
  0
LINE
  8
0
 10
4.90782
 20
13.8215
 11
4.82523
 21
13.8354
  0
LINE
  8
0
 10
4.82523
 20
13.8354
 11
4.74329
 21
13.8528
  0
LINE
  8
0
 10
4.74329
 20
13.8528
 11
4.66216
 21
13.8737
  0
LINE
  8
0
 10
4.66216
 20
13.8737
 11
4.58195
 21
13.8979
  0
LINE
  8
0
 10
4.58195
 20
13.8979
 11
4.50285
 21
13.9254
  0
LINE
  8
0
 10
4.50285
 20
13.9254
 11
4.42496
 21
13.9563
  0
LINE
  8
0
 10
4.42496
 20
13.9563
 11
4.34843
 21
13.9904
  0
LINE
  8
0
 10
4.34843
 20
13.9904
 11
4.27341
 21
14.0276
  0
LINE
  8
0
 10
4.27341
 20
14.0276
 11
4.2
 21
14.068
  0
LINE
  8
0
 10
4.2
 20
14.068
 11
4.12834
 21
14.1114
  0
LINE
  8
0
 10
4.12834
 20
14.1114
 11
4.05856
 21
14.1577
  0
LINE
  8
0
 10
4.05856
 20
14.1577
 11
3.9908
 21
14.207
  0
LINE
  8
0
 10
3.9908
 20
14.207
 11
3.92514
 21
14.259
  0
LINE
  8
0
 10
3.92514
 20
14.259
 11
3.86172
 21
14.3137
  0
LINE
  8
0
 10
3.86172
 20
14.3137
 11
3.80066
 21
14.3711
  0
LINE
  8
0
 10
3.80066
 20
14.3711
 11
3.74205
 21
14.4309
  0
LINE
  8
0
 10
3.74205
 20
14.4309
 11
3.686
 21
14.4932
  0
LINE
  8
0
 10
3.686
 20
14.4932
 11
3.6326
 21
14.5577
  0
LINE
  8
0
 10
3.6326
 20
14.5577
 11
3.58195
 21
14.6244
  0
LINE
  8
0
 10
3.58195
 20
14.6244
 11
3.53415
 21
14.6932
  0
LINE
  8
0
 10
3.53415
 20
14.6932
 11
3.48926
 21
14.7639
  0
LINE
  8
0
 10
3.48926
 20
14.7639
 11
3.44737
 21
14.8365
  0
LINE
  8
0
 10
3.44737
 20
14.8365
 11
3.40857
 21
14.9107
  0
LINE
  8
0
 10
3.40857
 20
14.9107
 11
3.37289
 21
14.9865
  0
LINE
  8
0
 10
3.37289
 20
14.9865
 11
3.34044
 21
15.0638
  0
LINE
  8
0
 10
3.34044
 20
15.0638
 11
3.31123
 21
15.1423
  0
LINE
  8
0
 10
3.31123
 20
15.1423
 11
3.28535
 21
15.2219
  0
LINE
  8
0
 10
3.28535
 20
15.2219
 11
3.26283
 21
15.3026
  0
LINE
  8
0
 10
3.26283
 20
15.3026
 11
3.2437
 21
15.3842
  0
LINE
  8
0
 10
3.2437
 20
15.3842
 11
3.228
 21
15.4665
  0
LINE
  8
0
 10
3.228
 20
15.4665
 11
3.21576
 21
15.5493
  0
LINE
  8
0
 10
3.21576
 20
15.5493
 11
3.207
 21
15.6326
  0
LINE
  8
0
 10
3.207
 20
15.6326
 11
3.20175
 21
15.7163
  0
LINE
  8
0
 10
3.20175
 20
15.7163
 11
3.2
 21
15.8
  0
LINE
  8
0
 10
3.2
 20
15.8
 11
3.20175
 21
15.8838
  0
LINE
  8
0
 10
3.20175
 20
15.8838
 11
3.207
 21
15.9674
  0
LINE
  8
0
 10
3.207
 20
15.9674
 11
3.21576
 21
16.0507
  0
LINE
  8
0
 10
3.21576
 20
16.0507
 11
3.228
 21
16.1335
  0
LINE
  8
0
 10
3.228
 20
16.1335
 11
3.2437
 21
16.2158
  0
LINE
  8
0
 10
3.2437
 20
16.2158
 11
3.26283
 21
16.2974
  0
LINE
  8
0
 10
3.26283
 20
16.2974
 11
3.28535
 21
16.3781
  0
LINE
  8
0
 10
3.28535
 20
16.3781
 11
3.31123
 21
16.4577
  0
LINE
  8
0
 10
3.31123
 20
16.4577
 11
3.34044
 21
16.5363
  0
LINE
  8
0
 10
3.34044
 20
16.5363
 11
3.37289
 21
16.6135
  0
LINE
  8
0
 10
3.37289
 20
16.6135
 11
3.40857
 21
16.6893
  0
LINE
  8
0
 10
3.40857
 20
16.6893
 11
3.44737
 21
16.7635
  0
LINE
  8
0
 10
3.44737
 20
16.7635
 11
3.48926
 21
16.8361
  0
LINE
  8
0
 10
3.48926
 20
16.8361
 11
3.53415
 21
16.9068
  0
LINE
  8
0
 10
3.53415
 20
16.9068
 11
3.58195
 21
16.9756
  0
LINE
  8
0
 10
3.58195
 20
16.9756
 11
3.6326
 21
17.0423
  0
LINE
  8
0
 10
3.6326
 20
17.0423
 11
3.686
 21
17.1068
  0
LINE
  8
0
 10
3.686
 20
17.1068
 11
3.74205
 21
17.1691
  0
LINE
  8
0
 10
3.74205
 20
17.1691
 11
3.80066
 21
17.229
  0
LINE
  8
0
 10
3.80066
 20
17.229
 11
3.86172
 21
17.2863
  0
LINE
  8
0
 10
3.86172
 20
17.2863
 11
3.92514
 21
17.341
  0
LINE
  8
0
 10
3.92514
 20
17.341
 11
3.9908
 21
17.3931
  0
LINE
  8
0
 10
3.9908
 20
17.3931
 11
4.05856
 21
17.4423
  0
LINE
  8
0
 10
4.05856
 20
17.4423
 11
4.12834
 21
17.4887
  0
LINE
  8
0
 10
4.12834
 20
17.4887
 11
4.2
 21
17.5321
  0
LINE
  8
0
 10
4.2
 20
17.5321
 11
4.27341
 21
17.5724
  0
LINE
  8
0
 10
4.27341
 20
17.5724
 11
4.34843
 21
17.6097
  0
LINE
  8
0
 10
4.34843
 20
17.6097
 11
4.42496
 21
17.6437
  0
LINE
  8
0
 10
4.42496
 20
17.6437
 11
4.50285
 21
17.6746
  0
LINE
  8
0
 10
4.50285
 20
17.6746
 11
4.58195
 21
17.7021
  0
LINE
  8
0
 10
4.58195
 20
17.7021
 11
4.66216
 21
17.7263
  0
LINE
  8
0
 10
4.66216
 20
17.7263
 11
4.74329
 21
17.7472
  0
LINE
  8
0
 10
4.74329
 20
17.7472
 11
4.82523
 21
17.7646
  0
LINE
  8
0
 10
4.82523
 20
17.7646
 11
4.90782
 21
17.7785
  0
LINE
  8
0
 10
4.90782
 20
17.7785
 11
4.99094
 21
17.789
  0
LINE
  8
0
 10
4.99094
 20
17.789
 11
5.07442
 21
17.7961
  0
LINE
  8
0
 10
5.07442
 20
17.7961
 11
5.15811
 21
17.7996
  0
LINE
  8
0
 10
5.15811
 20
17.7996
 11
5.24188
 21
17.7996
  0
LINE
  8
0
 10
5.24188
 20
17.7996
 11
5.32558
 21
17.7961
  0
LINE
  8
0
 10
5.32558
 20
17.7961
 11
5.40904
 21
17.789
  0
LINE
  8
0
 10
5.40904
 20
17.789
 11
5.49216
 21
17.7785
  0
LINE
  8
0
 10
5.49216
 20
17.7785
 11
5.57475
 21
17.7646
  0
LINE
  8
0
 10
5.57475
 20
17.7646
 11
5.65669
 21
17.7472
  0
LINE
  8
0
 10
5.65669
 20
17.7472
 11
5.73784
 21
17.7263
  0
LINE
  8
0
 10
5.73784
 20
17.7263
 11
5.81802
 21
17.7021
  0
LINE
  8
0
 10
5.81802
 20
17.7021
 11
5.89714
 21
17.6746
  0
LINE
  8
0
 10
5.89714
 20
17.6746
 11
5.97502
 21
17.6437
  0
LINE
  8
0
 10
5.97502
 20
17.6437
 11
6.05154
 21
17.6097
  0
LINE
  8
0
 10
6.05154
 20
17.6097
 11
6.12659
 21
17.5724
  0
LINE
  8
0
 10
6.12659
 20
17.5724
 11
6.2
 21
17.5321
  0
LINE
  8
0
 10
6.2
 20
17.5321
 11
6.27165
 21
17.4887
  0
LINE
  8
0
 10
6.27165
 20
17.4887
 11
6.34142
 21
17.4423
  0
LINE
  8
0
 10
6.34142
 20
17.4423
 11
6.40919
 21
17.3931
  0
LINE
  8
0
 10
6.40919
 20
17.3931
 11
6.47484
 21
17.341
  0
LINE
  8
0
 10
6.47484
 20
17.341
 11
6.53825
 21
17.2863
  0
LINE
  8
0
 10
6.53825
 20
17.2863
 11
6.59932
 21
17.229
  0
LINE
  8
0
 10
6.59932
 20
17.229
 11
6.65793
 21
17.1691
  0
LINE
  8
0
 10
6.65793
 20
17.1691
 11
6.71399
 21
17.1068
  0
LINE
  8
0
 10
6.71399
 20
17.1068
 11
6.76738
 21
17.0423
  0
LINE
  8
0
 10
6.76738
 20
17.0423
 11
6.81802
 21
16.9756
  0
LINE
  8
0
 10
6.81802
 20
16.9756
 11
6.86583
 21
16.9068
  0
LINE
  8
0
 10
6.86583
 20
16.9068
 11
6.91072
 21
16.8361
  0
LINE
  8
0
 10
6.91072
 20
16.8361
 11
6.95261
 21
16.7635
  0
LINE
  8
0
 10
6.95261
 20
16.7635
 11
6.99141
 21
16.6893
  0
LINE
  8
0
 10
6.99141
 20
16.6893
 11
7.02708
 21
16.6135
  0
LINE
  8
0
 10
7.02708
 20
16.6135
 11
7.05954
 21
16.5363
  0
LINE
  8
0
 10
7.05954
 20
16.5363
 11
7.08875
 21
16.4577
  0
LINE
  8
0
 10
7.08875
 20
16.4577
 11
7.11462
 21
16.3781
  0
LINE
  8
0
 10
7.11462
 20
16.3781
 11
7.13716
 21
16.2974
  0
LINE
  8
0
 10
7.13716
 20
16.2974
 11
7.15628
 21
16.2158
  0
LINE
  8
0
 10
7.15628
 20
16.2158
 11
7.17198
 21
16.1335
  0
LINE
  8
0
 10
7.17198
 20
16.1335
 11
7.18422
 21
16.0507
  0
LINE
  8
0
 10
7.18422
 20
16.0507
 11
7.19298
 21
15.9674
  0
LINE
  8
0
 10
7.19298
 20
15.9674
 11
7.19824
 21
15.8838
  0
LINE
  8
0
 10
7.19824
 20
15.8838
 11
7.2
 21
15.8
  0
LINE
  8
0
 10
7.2
 20
15.8
 11
7.19824
 21
15.7163
  0
LINE
  8
0
 10
7.19824
 20
15.7163
 11
7.19298
 21
15.6326
  0
LINE
  8
0
 10
7.19298
 20
15.6326
 11
7.18422
 21
15.5493
  0
LINE
  8
0
 10
7.18422
 20
15.5493
 11
7.17198
 21
15.4665
  0
LINE
  8
0
 10
7.17198
 20
15.4665
 11
7.15628
 21
15.3842
  0
LINE
  8
0
 10
7.15628
 20
15.3842
 11
7.13716
 21
15.3026
  0
LINE
  8
0
 10
7.13716
 20
15.3026
 11
7.11462
 21
15.2219
  0
LINE
  8
0
 10
7.11462
 20
15.2219
 11
7.08875
 21
15.1423
  0
LINE
  8
0
 10
7.08875
 20
15.1423
 11
7.05954
 21
15.0638
  0
LINE
  8
0
 10
7.05954
 20
15.0638
 11
7.02708
 21
14.9865
  0
LINE
  8
0
 10
7.02708
 20
14.9865
 11
6.99141
 21
14.9107
  0
LINE
  8
0
 10
6.99141
 20
14.9107
 11
6.95261
 21
14.8365
  0
LINE
  8
0
 10
6.95261
 20
14.8365
 11
6.91072
 21
14.7639
  0
LINE
  8
0
 10
6.91072
 20
14.7639
 11
6.86583
 21
14.6932
  0
LINE
  8
0
 10
6.86583
 20
14.6932
 11
6.81802
 21
14.6244
  0
LINE
  8
0
 10
6.81802
 20
14.6244
 11
6.76738
 21
14.5577
  0
LINE
  8
0
 10
6.76738
 20
14.5577
 11
6.71399
 21
14.4932
  0
LINE
  8
0
 10
6.71399
 20
14.4932
 11
6.65793
 21
14.4309
  0
LINE
  8
0
 10
6.65793
 20
14.4309
 11
6.59932
 21
14.3711
  0
LINE
  8
0
 10
6.59932
 20
14.3711
 11
6.53825
 21
14.3137
  0
LINE
  8
0
 10
6.53825
 20
14.3137
 11
6.47484
 21
14.259
  0
LINE
  8
0
 10
6.47484
 20
14.259
 11
6.40919
 21
14.207
  0
LINE
  8
0
 10
6.40919
 20
14.207
 11
6.34142
 21
14.1577
  0
LINE
  8
0
 10
6.34142
 20
14.1577
 11
6.27165
 21
14.1114
  0
LINE
  8
0
 10
6.27165
 20
14.1114
 11
6.2
 21
14.068
  0
LINE
  8
0
 10
6.2
 20
14.068
 11
6.12659
 21
14.0276
  0
LINE
  8
0
 10
6.12659
 20
14.0276
 11
6.05154
 21
13.9904
  0
LINE
  8
0
 10
6.05154
 20
13.9904
 11
5.97502
 21
13.9563
  0
LINE
  8
0
 10
5.97502
 20
13.9563
 11
5.89714
 21
13.9254
  0
LINE
  8
0
 10
5.89714
 20
13.9254
 11
5.81802
 21
13.8979
  0
LINE
  8
0
 10
5.81802
 20
13.8979
 11
5.73784
 21
13.8737
  0
LINE
  8
0
 10
5.73784
 20
13.8737
 11
5.65669
 21
13.8528
  0
LINE
  8
0
 10
5.65669
 20
13.8528
 11
5.57475
 21
13.8354
  0
LINE
  8
0
 10
5.57475
 20
13.8354
 11
5.49216
 21
13.8215
  0
LINE
  8
0
 10
5.49216
 20
13.8215
 11
5.40904
 21
13.811
  0
LINE
  8
0
 10
5.40904
 20
13.811
 11
5.32558
 21
13.804
  0
LINE
  8
0
 10
5.32558
 20
13.804
 11
5.24188
 21
13.8004
  0
LINE
  8
0
 10
5.24188
 20
13.8004
 11
5.15811
 21
13.8004
  0
LINE
  8
0
 10
-5.24188
 20
13.8004
 11
-5.32558
 21
13.804
  0
LINE
  8
0
 10
-5.32558
 20
13.804
 11
-5.40904
 21
13.811
  0
LINE
  8
0
 10
-5.40904
 20
13.811
 11
-5.49216
 21
13.8215
  0
LINE
  8
0
 10
-5.49216
 20
13.8215
 11
-5.57475
 21
13.8354
  0
LINE
  8
0
 10
-5.57475
 20
13.8354
 11
-5.65669
 21
13.8528
  0
LINE
  8
0
 10
-5.65669
 20
13.8528
 11
-5.73784
 21
13.8737
  0
LINE
  8
0
 10
-5.73784
 20
13.8737
 11
-5.81802
 21
13.8979
  0
LINE
  8
0
 10
-5.81802
 20
13.8979
 11
-5.89714
 21
13.9254
  0
LINE
  8
0
 10
-5.89714
 20
13.9254
 11
-5.97502
 21
13.9563
  0
LINE
  8
0
 10
-5.97502
 20
13.9563
 11
-6.05154
 21
13.9904
  0
LINE
  8
0
 10
-6.05154
 20
13.9904
 11
-6.12659
 21
14.0276
  0
LINE
  8
0
 10
-6.12659
 20
14.0276
 11
-6.2
 21
14.068
  0
LINE
  8
0
 10
-6.2
 20
14.068
 11
-6.27165
 21
14.1114
  0
LINE
  8
0
 10
-6.27165
 20
14.1114
 11
-6.34142
 21
14.1577
  0
LINE
  8
0
 10
-6.34142
 20
14.1577
 11
-6.40919
 21
14.207
  0
LINE
  8
0
 10
-6.40919
 20
14.207
 11
-6.47484
 21
14.259
  0
LINE
  8
0
 10
-6.47484
 20
14.259
 11
-6.53825
 21
14.3137
  0
LINE
  8
0
 10
-6.53825
 20
14.3137
 11
-6.59932
 21
14.3711
  0
LINE
  8
0
 10
-6.59932
 20
14.3711
 11
-6.65793
 21
14.4309
  0
LINE
  8
0
 10
-6.65793
 20
14.4309
 11
-6.71399
 21
14.4932
  0
LINE
  8
0
 10
-6.71399
 20
14.4932
 11
-6.76738
 21
14.5577
  0
LINE
  8
0
 10
-6.76738
 20
14.5577
 11
-6.81802
 21
14.6244
  0
LINE
  8
0
 10
-6.81802
 20
14.6244
 11
-6.86583
 21
14.6932
  0
LINE
  8
0
 10
-6.86583
 20
14.6932
 11
-6.91072
 21
14.7639
  0
LINE
  8
0
 10
-6.91072
 20
14.7639
 11
-6.95261
 21
14.8365
  0
LINE
  8
0
 10
-6.95261
 20
14.8365
 11
-6.99141
 21
14.9107
  0
LINE
  8
0
 10
-6.99141
 20
14.9107
 11
-7.02708
 21
14.9865
  0
LINE
  8
0
 10
-7.02708
 20
14.9865
 11
-7.05954
 21
15.0638
  0
LINE
  8
0
 10
-7.05954
 20
15.0638
 11
-7.08875
 21
15.1423
  0
LINE
  8
0
 10
-7.08875
 20
15.1423
 11
-7.11462
 21
15.2219
  0
LINE
  8
0
 10
-7.11462
 20
15.2219
 11
-7.13716
 21
15.3026
  0
LINE
  8
0
 10
-7.13716
 20
15.3026
 11
-7.15628
 21
15.3842
  0
LINE
  8
0
 10
-7.15628
 20
15.3842
 11
-7.17198
 21
15.4665
  0
LINE
  8
0
 10
-7.17198
 20
15.4665
 11
-7.18422
 21
15.5493
  0
LINE
  8
0
 10
-7.18422
 20
15.5493
 11
-7.19298
 21
15.6326
  0
LINE
  8
0
 10
-7.19298
 20
15.6326
 11
-7.19824
 21
15.7163
  0
LINE
  8
0
 10
-7.19824
 20
15.7163
 11
-7.2
 21
15.8
  0
LINE
  8
0
 10
-7.2
 20
15.8
 11
-7.19824
 21
15.8838
  0
LINE
  8
0
 10
-7.19824
 20
15.8838
 11
-7.19298
 21
15.9674
  0
LINE
  8
0
 10
-7.19298
 20
15.9674
 11
-7.18422
 21
16.0507
  0
LINE
  8
0
 10
-7.18422
 20
16.0507
 11
-7.17198
 21
16.1335
  0
LINE
  8
0
 10
-7.17198
 20
16.1335
 11
-7.15628
 21
16.2158
  0
LINE
  8
0
 10
-7.15628
 20
16.2158
 11
-7.13716
 21
16.2974
  0
LINE
  8
0
 10
-7.13716
 20
16.2974
 11
-7.11462
 21
16.3781
  0
LINE
  8
0
 10
-7.11462
 20
16.3781
 11
-7.08875
 21
16.4577
  0
LINE
  8
0
 10
-7.08875
 20
16.4577
 11
-7.05954
 21
16.5363
  0
LINE
  8
0
 10
-7.05954
 20
16.5363
 11
-7.02708
 21
16.6135
  0
LINE
  8
0
 10
-7.02708
 20
16.6135
 11
-6.99141
 21
16.6893
  0
LINE
  8
0
 10
-6.99141
 20
16.6893
 11
-6.95261
 21
16.7635
  0
LINE
  8
0
 10
-6.95261
 20
16.7635
 11
-6.91072
 21
16.8361
  0
LINE
  8
0
 10
-6.91072
 20
16.8361
 11
-6.86583
 21
16.9068
  0
LINE
  8
0
 10
-6.86583
 20
16.9068
 11
-6.81802
 21
16.9756
  0
LINE
  8
0
 10
-6.81802
 20
16.9756
 11
-6.76738
 21
17.0423
  0
LINE
  8
0
 10
-6.76738
 20
17.0423
 11
-6.71399
 21
17.1068
  0
LINE
  8
0
 10
-6.71399
 20
17.1068
 11
-6.65793
 21
17.1691
  0
LINE
  8
0
 10
-6.65793
 20
17.1691
 11
-6.59932
 21
17.229
  0
LINE
  8
0
 10
-6.59932
 20
17.229
 11
-6.53825
 21
17.2863
  0
LINE
  8
0
 10
-6.53825
 20
17.2863
 11
-6.47484
 21
17.341
  0
LINE
  8
0
 10
-6.47484
 20
17.341
 11
-6.40919
 21
17.3931
  0
LINE
  8
0
 10
-6.40919
 20
17.3931
 11
-6.34142
 21
17.4423
  0
LINE
  8
0
 10
-6.34142
 20
17.4423
 11
-6.27165
 21
17.4887
  0
LINE
  8
0
 10
-6.27165
 20
17.4887
 11
-6.2
 21
17.5321
  0
LINE
  8
0
 10
-6.2
 20
17.5321
 11
-6.12659
 21
17.5724
  0
LINE
  8
0
 10
-6.12659
 20
17.5724
 11
-6.05154
 21
17.6097
  0
LINE
  8
0
 10
-6.05154
 20
17.6097
 11
-5.97502
 21
17.6437
  0
LINE
  8
0
 10
-5.97502
 20
17.6437
 11
-5.89714
 21
17.6746
  0
LINE
  8
0
 10
-5.89714
 20
17.6746
 11
-5.81802
 21
17.7021
  0
LINE
  8
0
 10
-5.81802
 20
17.7021
 11
-5.73784
 21
17.7263
  0
LINE
  8
0
 10
-5.73784
 20
17.7263
 11
-5.65669
 21
17.7472
  0
LINE
  8
0
 10
-5.65669
 20
17.7472
 11
-5.57475
 21
17.7646
  0
LINE
  8
0
 10
-5.57475
 20
17.7646
 11
-5.49216
 21
17.7785
  0
LINE
  8
0
 10
-5.49216
 20
17.7785
 11
-5.40904
 21
17.789
  0
LINE
  8
0
 10
-5.40904
 20
17.789
 11
-5.32558
 21
17.7961
  0
LINE
  8
0
 10
-5.32558
 20
17.7961
 11
-5.24188
 21
17.7996
  0
LINE
  8
0
 10
-5.24188
 20
17.7996
 11
-5.15811
 21
17.7996
  0
LINE
  8
0
 10
-5.15811
 20
17.7996
 11
-5.07442
 21
17.7961
  0
LINE
  8
0
 10
-5.07442
 20
17.7961
 11
-4.99094
 21
17.789
  0
LINE
  8
0
 10
-4.99094
 20
17.789
 11
-4.90782
 21
17.7785
  0
LINE
  8
0
 10
-4.90782
 20
17.7785
 11
-4.82523
 21
17.7646
  0
LINE
  8
0
 10
-4.82523
 20
17.7646
 11
-4.74329
 21
17.7472
  0
LINE
  8
0
 10
-4.74329
 20
17.7472
 11
-4.66216
 21
17.7263
  0
LINE
  8
0
 10
-4.66216
 20
17.7263
 11
-4.58195
 21
17.7021
  0
LINE
  8
0
 10
-4.58195
 20
17.7021
 11
-4.50285
 21
17.6746
  0
LINE
  8
0
 10
-4.50285
 20
17.6746
 11
-4.42496
 21
17.6437
  0
LINE
  8
0
 10
-4.42496
 20
17.6437
 11
-4.34843
 21
17.6097
  0
LINE
  8
0
 10
-4.34843
 20
17.6097
 11
-4.27341
 21
17.5724
  0
LINE
  8
0
 10
-4.27341
 20
17.5724
 11
-4.2
 21
17.5321
  0
LINE
  8
0
 10
-4.2
 20
17.5321
 11
-4.12834
 21
17.4887
  0
LINE
  8
0
 10
-4.12834
 20
17.4887
 11
-4.05856
 21
17.4423
  0
LINE
  8
0
 10
-4.05856
 20
17.4423
 11
-3.9908
 21
17.3931
  0
LINE
  8
0
 10
-3.9908
 20
17.3931
 11
-3.92514
 21
17.341
  0
LINE
  8
0
 10
-3.92514
 20
17.341
 11
-3.86172
 21
17.2863
  0
LINE
  8
0
 10
-3.86172
 20
17.2863
 11
-3.80066
 21
17.229
  0
LINE
  8
0
 10
-3.80066
 20
17.229
 11
-3.74205
 21
17.1691
  0
LINE
  8
0
 10
-3.74205
 20
17.1691
 11
-3.686
 21
17.1068
  0
LINE
  8
0
 10
-3.686
 20
17.1068
 11
-3.6326
 21
17.0423
  0
LINE
  8
0
 10
-3.6326
 20
17.0423
 11
-3.58195
 21
16.9756
  0
LINE
  8
0
 10
-3.58195
 20
16.9756
 11
-3.53415
 21
16.9068
  0
LINE
  8
0
 10
-3.53415
 20
16.9068
 11
-3.48926
 21
16.8361
  0
LINE
  8
0
 10
-3.48926
 20
16.8361
 11
-3.44737
 21
16.7635
  0
LINE
  8
0
 10
-3.44737
 20
16.7635
 11
-3.40857
 21
16.6893
  0
LINE
  8
0
 10
-3.40857
 20
16.6893
 11
-3.37289
 21
16.6135
  0
LINE
  8
0
 10
-3.37289
 20
16.6135
 11
-3.34044
 21
16.5363
  0
LINE
  8
0
 10
-3.34044
 20
16.5363
 11
-3.31123
 21
16.4577
  0
LINE
  8
0
 10
-3.31123
 20
16.4577
 11
-3.28535
 21
16.3781
  0
LINE
  8
0
 10
-3.28535
 20
16.3781
 11
-3.26283
 21
16.2974
  0
LINE
  8
0
 10
-3.26283
 20
16.2974
 11
-3.2437
 21
16.2158
  0
LINE
  8
0
 10
-3.2437
 20
16.2158
 11
-3.228
 21
16.1335
  0
LINE
  8
0
 10
-3.228
 20
16.1335
 11
-3.21576
 21
16.0507
  0
LINE
  8
0
 10
-3.21576
 20
16.0507
 11
-3.207
 21
15.9674
  0
LINE
  8
0
 10
-3.207
 20
15.9674
 11
-3.20175
 21
15.8838
  0
LINE
  8
0
 10
-3.20175
 20
15.8838
 11
-3.2
 21
15.8
  0
LINE
  8
0
 10
-3.2
 20
15.8
 11
-3.20175
 21
15.7163
  0
LINE
  8
0
 10
-3.20175
 20
15.7163
 11
-3.207
 21
15.6326
  0
LINE
  8
0
 10
-3.207
 20
15.6326
 11
-3.21576
 21
15.5493
  0
LINE
  8
0
 10
-3.21576
 20
15.5493
 11
-3.228
 21
15.4665
  0
LINE
  8
0
 10
-3.228
 20
15.4665
 11
-3.2437
 21
15.3842
  0
LINE
  8
0
 10
-3.2437
 20
15.3842
 11
-3.26283
 21
15.3026
  0
LINE
  8
0
 10
-3.26283
 20
15.3026
 11
-3.28535
 21
15.2219
  0
LINE
  8
0
 10
-3.28535
 20
15.2219
 11
-3.31123
 21
15.1423
  0
LINE
  8
0
 10
-3.31123
 20
15.1423
 11
-3.34044
 21
15.0638
  0
LINE
  8
0
 10
-3.34044
 20
15.0638
 11
-3.37289
 21
14.9865
  0
LINE
  8
0
 10
-3.37289
 20
14.9865
 11
-3.40857
 21
14.9107
  0
LINE
  8
0
 10
-3.40857
 20
14.9107
 11
-3.44737
 21
14.8365
  0
LINE
  8
0
 10
-3.44737
 20
14.8365
 11
-3.48926
 21
14.7639
  0
LINE
  8
0
 10
-3.48926
 20
14.7639
 11
-3.53415
 21
14.6932
  0
LINE
  8
0
 10
-3.53415
 20
14.6932
 11
-3.58195
 21
14.6244
  0
LINE
  8
0
 10
-3.58195
 20
14.6244
 11
-3.6326
 21
14.5577
  0
LINE
  8
0
 10
-3.6326
 20
14.5577
 11
-3.686
 21
14.4932
  0
LINE
  8
0
 10
-3.686
 20
14.4932
 11
-3.74205
 21
14.4309
  0
LINE
  8
0
 10
-3.74205
 20
14.4309
 11
-3.80066
 21
14.3711
  0
LINE
  8
0
 10
-3.80066
 20
14.3711
 11
-3.86172
 21
14.3137
  0
LINE
  8
0
 10
-3.86172
 20
14.3137
 11
-3.92514
 21
14.259
  0
LINE
  8
0
 10
-3.92514
 20
14.259
 11
-3.9908
 21
14.207
  0
LINE
  8
0
 10
-3.9908
 20
14.207
 11
-4.05856
 21
14.1577
  0
LINE
  8
0
 10
-4.05856
 20
14.1577
 11
-4.12834
 21
14.1114
  0
LINE
  8
0
 10
-4.12834
 20
14.1114
 11
-4.2
 21
14.068
  0
LINE
  8
0
 10
-4.2
 20
14.068
 11
-4.27341
 21
14.0276
  0
LINE
  8
0
 10
-4.27341
 20
14.0276
 11
-4.34843
 21
13.9904
  0
LINE
  8
0
 10
-4.34843
 20
13.9904
 11
-4.42496
 21
13.9563
  0
LINE
  8
0
 10
-4.42496
 20
13.9563
 11
-4.50285
 21
13.9254
  0
LINE
  8
0
 10
-4.50285
 20
13.9254
 11
-4.58195
 21
13.8979
  0
LINE
  8
0
 10
-4.58195
 20
13.8979
 11
-4.66216
 21
13.8737
  0
LINE
  8
0
 10
-4.66216
 20
13.8737
 11
-4.74329
 21
13.8528
  0
LINE
  8
0
 10
-4.74329
 20
13.8528
 11
-4.82523
 21
13.8354
  0
LINE
  8
0
 10
-4.82523
 20
13.8354
 11
-4.90782
 21
13.8215
  0
LINE
  8
0
 10
-4.90782
 20
13.8215
 11
-4.99094
 21
13.811
  0
LINE
  8
0
 10
-4.99094
 20
13.811
 11
-5.07442
 21
13.804
  0
LINE
  8
0
 10
-5.07442
 20
13.804
 11
-5.15811
 21
13.8004
  0
LINE
  8
0
 10
-5.15811
 20
13.8004
 11
-5.24188
 21
13.8004
  0
LINE
  8
0
 10
-8.50142
 20
-38.07
 11
-2.92714
 21
-38.07
  0
LINE
  8
0
 10
-2.92714
 20
-38.07
 11
-2.92714
 21
-41.17
  0
LINE
  8
0
 10
-2.92714
 20
-41.17
 11
2.92714
 21
-41.17
  0
LINE
  8
0
 10
2.92714
 20
-41.17
 11
2.92714
 21
-38.07
  0
LINE
  8
0
 10
2.92714
 20
-38.07
 11
8.50142
 21
-38.07
  0
LINE
  8
0
 10
8.50142
 20
-38.07
 11
8.50142
 21
-41.17
  0
LINE
  8
0
 10
8.50142
 20
-41.17
 11
14.3557
 21
-41.17
  0
LINE
  8
0
 10
14.3557
 20
-41.17
 11
14.3557
 21
-38.07
  0
LINE
  8
0
 10
14.3557
 20
-38.07
 11
16.97
 21
-38.07
  0
LINE
  8
0
 10
16.97
 20
-38.07
 11
16.97
 21
-41.07
  0
LINE
  8
0
 10
16.97
 20
-41.07
 11
17
 21
-41.07
  0
LINE
  8
0
 10
17
 20
-41.07
 11
17
 21
-38.07
  0
LINE
  8
0
 10
17
 20
-38.07
 11
20.17
 21
-38.07
  0
LINE
  8
0
 10
20.17
 20
-38.07
 11
20.17
 21
-35.2157
  0
LINE
  8
0
 10
20.17
 20
-35.2157
 11
17.07
 21
-35.2157
  0
LINE
  8
0
 10
17.07
 20
-35.2157
 11
17.07
 21
-29.6414
  0
LINE
  8
0
 10
17.07
 20
-29.6414
 11
20.17
 21
-29.6414
  0
LINE
  8
0
 10
20.17
 20
-29.6414
 11
20.17
 21
-23.7871
  0
LINE
  8
0
 10
20.17
 20
-23.7871
 11
17.07
 21
-23.7871
  0
LINE
  8
0
 10
17.07
 20
-23.7871
 11
17.07
 21
-18.2129
  0
LINE
  8
0
 10
17.07
 20
-18.2129
 11
20.17
 21
-18.2129
  0
LINE
  8
0
 10
20.17
 20
-18.2129
 11
20.17
 21
-12.3586
  0
LINE
  8
0
 10
20.17
 20
-12.3586
 11
17.07
 21
-12.3586
  0
LINE
  8
0
 10
17.07
 20
-12.3586
 11
17.07
 21
-6.78429
  0
LINE
  8
0
 10
17.07
 20
-6.78429
 11
20.17
 21
-6.78429
  0
LINE
  8
0
 10
20.17
 20
-6.78429
 11
20.17
 21
-3.93001
  0
LINE
  8
0
 10
20.17
 20
-3.93001
 11
17
 21
-3.93001
  0
LINE
  8
0
 10
17
 20
-3.93001
 11
17
 21
-0.930008
  0
LINE
  8
0
 10
17
 20
-0.930008
 11
16.97
 21
-0.930008
  0
LINE
  8
0
 10
16.97
 20
-0.930008
 11
16.97
 21
-3.93001
  0
LINE
  8
0
 10
16.97
 20
-3.93001
 11
14.3557
 21
-3.93001
  0
LINE
  8
0
 10
14.3557
 20
-3.93001
 11
14.3557
 21
-0.830002
  0
LINE
  8
0
 10
14.3557
 20
-0.830002
 11
8.50142
 21
-0.830002
  0
LINE
  8
0
 10
8.50142
 20
-0.830002
 11
8.50142
 21
-3.93001
  0
LINE
  8
0
 10
8.50142
 20
-3.93001
 11
2.92714
 21
-3.93001
  0
LINE
  8
0
 10
2.92714
 20
-3.93001
 11
2.92714
 21
-0.830002
  0
LINE
  8
0
 10
2.92714
 20
-0.830002
 11
-2.92714
 21
-0.830002
  0
LINE
  8
0
 10
-2.92714
 20
-0.830002
 11
-2.92714
 21
-3.93001
  0
LINE
  8
0
 10
-2.92714
 20
-3.93001
 11
-8.50142
 21
-3.93001
  0
LINE
  8
0
 10
-8.50142
 20
-3.93001
 11
-8.50142
 21
-0.830002
  0
LINE
  8
0
 10
-8.50142
 20
-0.830002
 11
-14.3557
 21
-0.830002
  0
LINE
  8
0
 10
-14.3557
 20
-0.830002
 11
-14.3557
 21
-3.93001
  0
LINE
  8
0
 10
-14.3557
 20
-3.93001
 11
-16.97
 21
-3.93001
  0
LINE
  8
0
 10
-16.97
 20
-3.93001
 11
-16.97
 21
-0.930008
  0
LINE
  8
0
 10
-16.97
 20
-0.930008
 11
-17
 21
-0.930008
  0
LINE
  8
0
 10
-17
 20
-0.930008
 11
-17
 21
-3.93001
  0
LINE
  8
0
 10
-17
 20
-3.93001
 11
-20.17
 21
-3.93001
  0
LINE
  8
0
 10
-20.17
 20
-3.93001
 11
-20.17
 21
-6.78429
  0
LINE
  8
0
 10
-20.17
 20
-6.78429
 11
-17.07
 21
-6.78429
  0
LINE
  8
0
 10
-17.07
 20
-6.78429
 11
-17.07
 21
-12.3586
  0
LINE
  8
0
 10
-17.07
 20
-12.3586
 11
-20.17
 21
-12.3586
  0
LINE
  8
0
 10
-20.17
 20
-12.3586
 11
-20.17
 21
-18.2129
  0
LINE
  8
0
 10
-20.17
 20
-18.2129
 11
-17.07
 21
-18.2129
  0
LINE
  8
0
 10
-17.07
 20
-18.2129
 11
-17.07
 21
-23.7871
  0
LINE
  8
0
 10
-17.07
 20
-23.7871
 11
-20.17
 21
-23.7871
  0
LINE
  8
0
 10
-20.17
 20
-23.7871
 11
-20.17
 21
-29.6414
  0
LINE
  8
0
 10
-20.17
 20
-29.6414
 11
-17.07
 21
-29.6414
  0
LINE
  8
0
 10
-17.07
 20
-29.6414
 11
-17.07
 21
-35.2157
  0
LINE
  8
0
 10
-17.07
 20
-35.2157
 11
-20.17
 21
-35.2157
  0
LINE
  8
0
 10
-20.17
 20
-35.2157
 11
-20.17
 21
-38.07
  0
LINE
  8
0
 10
-20.17
 20
-38.07
 11
-17
 21
-38.07
  0
LINE
  8
0
 10
-17
 20
-38.07
 11
-17
 21
-41.07
  0
LINE
  8
0
 10
-17
 20
-41.07
 11
-16.97
 21
-41.07
  0
LINE
  8
0
 10
-16.97
 20
-41.07
 11
-16.97
 21
-38.07
  0
LINE
  8
0
 10
-16.97
 20
-38.07
 11
-14.3557
 21
-38.07
  0
LINE
  8
0
 10
-14.3557
 20
-38.07
 11
-14.3557
 21
-41.17
  0
LINE
  8
0
 10
-14.3557
 20
-41.17
 11
-8.50142
 21
-41.17
  0
LINE
  8
0
 10
-8.50142
 20
-41.17
 11
-8.50142
 21
-38.07
  0
LINE
  8
0
 10
-5.24188
 20
-17.7996
 11
-5.32558
 21
-17.7961
  0
LINE
  8
0
 10
-5.32558
 20
-17.7961
 11
-5.40904
 21
-17.789
  0
LINE
  8
0
 10
-5.40904
 20
-17.789
 11
-5.49216
 21
-17.7785
  0
LINE
  8
0
 10
-5.49216
 20
-17.7785
 11
-5.57475
 21
-17.7646
  0
LINE
  8
0
 10
-5.57475
 20
-17.7646
 11
-5.65669
 21
-17.7472
  0
LINE
  8
0
 10
-5.65669
 20
-17.7472
 11
-5.73784
 21
-17.7263
  0
LINE
  8
0
 10
-5.73784
 20
-17.7263
 11
-5.81802
 21
-17.7021
  0
LINE
  8
0
 10
-5.81802
 20
-17.7021
 11
-5.89714
 21
-17.6746
  0
LINE
  8
0
 10
-5.89714
 20
-17.6746
 11
-5.97502
 21
-17.6437
  0
LINE
  8
0
 10
-5.97502
 20
-17.6437
 11
-6.05154
 21
-17.6097
  0
LINE
  8
0
 10
-6.05154
 20
-17.6097
 11
-6.12659
 21
-17.5724
  0
LINE
  8
0
 10
-6.12659
 20
-17.5724
 11
-6.2
 21
-17.5321
  0
LINE
  8
0
 10
-6.2
 20
-17.5321
 11
-6.27165
 21
-17.4887
  0
LINE
  8
0
 10
-6.27165
 20
-17.4887
 11
-6.34142
 21
-17.4423
  0
LINE
  8
0
 10
-6.34142
 20
-17.4423
 11
-6.40919
 21
-17.3931
  0
LINE
  8
0
 10
-6.40919
 20
-17.3931
 11
-6.47484
 21
-17.341
  0
LINE
  8
0
 10
-6.47484
 20
-17.341
 11
-6.53825
 21
-17.2863
  0
LINE
  8
0
 10
-6.53825
 20
-17.2863
 11
-6.59932
 21
-17.229
  0
LINE
  8
0
 10
-6.59932
 20
-17.229
 11
-6.65793
 21
-17.1691
  0
LINE
  8
0
 10
-6.65793
 20
-17.1691
 11
-6.71399
 21
-17.1068
  0
LINE
  8
0
 10
-6.71399
 20
-17.1068
 11
-6.76738
 21
-17.0423
  0
LINE
  8
0
 10
-6.76738
 20
-17.0423
 11
-6.81802
 21
-16.9756
  0
LINE
  8
0
 10
-6.81802
 20
-16.9756
 11
-6.86583
 21
-16.9068
  0
LINE
  8
0
 10
-6.86583
 20
-16.9068
 11
-6.91072
 21
-16.8361
  0
LINE
  8
0
 10
-6.91072
 20
-16.8361
 11
-6.95261
 21
-16.7635
  0
LINE
  8
0
 10
-6.95261
 20
-16.7635
 11
-6.99141
 21
-16.6893
  0
LINE
  8
0
 10
-6.99141
 20
-16.6893
 11
-7.02708
 21
-16.6135
  0
LINE
  8
0
 10
-7.02708
 20
-16.6135
 11
-7.05954
 21
-16.5363
  0
LINE
  8
0
 10
-7.05954
 20
-16.5363
 11
-7.08875
 21
-16.4577
  0
LINE
  8
0
 10
-7.08875
 20
-16.4577
 11
-7.11462
 21
-16.3781
  0
LINE
  8
0
 10
-7.11462
 20
-16.3781
 11
-7.13716
 21
-16.2974
  0
LINE
  8
0
 10
-7.13716
 20
-16.2974
 11
-7.15628
 21
-16.2158
  0
LINE
  8
0
 10
-7.15628
 20
-16.2158
 11
-7.17198
 21
-16.1335
  0
LINE
  8
0
 10
-7.17198
 20
-16.1335
 11
-7.18422
 21
-16.0507
  0
LINE
  8
0
 10
-7.18422
 20
-16.0507
 11
-7.19298
 21
-15.9674
  0
LINE
  8
0
 10
-7.19298
 20
-15.9674
 11
-7.19824
 21
-15.8838
  0
LINE
  8
0
 10
-7.19824
 20
-15.8838
 11
-7.2
 21
-15.8
  0
LINE
  8
0
 10
-7.2
 20
-15.8
 11
-7.19824
 21
-15.7163
  0
LINE
  8
0
 10
-7.19824
 20
-15.7163
 11
-7.19298
 21
-15.6326
  0
LINE
  8
0
 10
-7.19298
 20
-15.6326
 11
-7.18422
 21
-15.5493
  0
LINE
  8
0
 10
-7.18422
 20
-15.5493
 11
-7.17198
 21
-15.4665
  0
LINE
  8
0
 10
-7.17198
 20
-15.4665
 11
-7.15628
 21
-15.3842
  0
LINE
  8
0
 10
-7.15628
 20
-15.3842
 11
-7.13716
 21
-15.3026
  0
LINE
  8
0
 10
-7.13716
 20
-15.3026
 11
-7.11462
 21
-15.2219
  0
LINE
  8
0
 10
-7.11462
 20
-15.2219
 11
-7.08875
 21
-15.1423
  0
LINE
  8
0
 10
-7.08875
 20
-15.1423
 11
-7.05954
 21
-15.0638
  0
LINE
  8
0
 10
-7.05954
 20
-15.0638
 11
-7.02708
 21
-14.9865
  0
LINE
  8
0
 10
-7.02708
 20
-14.9865
 11
-6.99141
 21
-14.9107
  0
LINE
  8
0
 10
-6.99141
 20
-14.9107
 11
-6.95261
 21
-14.8365
  0
LINE
  8
0
 10
-6.95261
 20
-14.8365
 11
-6.91072
 21
-14.7639
  0
LINE
  8
0
 10
-6.91072
 20
-14.7639
 11
-6.86583
 21
-14.6932
  0
LINE
  8
0
 10
-6.86583
 20
-14.6932
 11
-6.81802
 21
-14.6244
  0
LINE
  8
0
 10
-6.81802
 20
-14.6244
 11
-6.76738
 21
-14.5577
  0
LINE
  8
0
 10
-6.76738
 20
-14.5577
 11
-6.71399
 21
-14.4932
  0
LINE
  8
0
 10
-6.71399
 20
-14.4932
 11
-6.65793
 21
-14.4309
  0
LINE
  8
0
 10
-6.65793
 20
-14.4309
 11
-6.59932
 21
-14.3711
  0
LINE
  8
0
 10
-6.59932
 20
-14.3711
 11
-6.53825
 21
-14.3137
  0
LINE
  8
0
 10
-6.53825
 20
-14.3137
 11
-6.47484
 21
-14.259
  0
LINE
  8
0
 10
-6.47484
 20
-14.259
 11
-6.40919
 21
-14.207
  0
LINE
  8
0
 10
-6.40919
 20
-14.207
 11
-6.34142
 21
-14.1577
  0
LINE
  8
0
 10
-6.34142
 20
-14.1577
 11
-6.27165
 21
-14.1114
  0
LINE
  8
0
 10
-6.27165
 20
-14.1114
 11
-6.2
 21
-14.068
  0
LINE
  8
0
 10
-6.2
 20
-14.068
 11
-6.12659
 21
-14.0276
  0
LINE
  8
0
 10
-6.12659
 20
-14.0276
 11
-6.05154
 21
-13.9904
  0
LINE
  8
0
 10
-6.05154
 20
-13.9904
 11
-5.97502
 21
-13.9563
  0
LINE
  8
0
 10
-5.97502
 20
-13.9563
 11
-5.89714
 21
-13.9254
  0
LINE
  8
0
 10
-5.89714
 20
-13.9254
 11
-5.81802
 21
-13.8979
  0
LINE
  8
0
 10
-5.81802
 20
-13.8979
 11
-5.73784
 21
-13.8737
  0
LINE
  8
0
 10
-5.73784
 20
-13.8737
 11
-5.65669
 21
-13.8528
  0
LINE
  8
0
 10
-5.65669
 20
-13.8528
 11
-5.57475
 21
-13.8354
  0
LINE
  8
0
 10
-5.57475
 20
-13.8354
 11
-5.49216
 21
-13.8215
  0
LINE
  8
0
 10
-5.49216
 20
-13.8215
 11
-5.40904
 21
-13.811
  0
LINE
  8
0
 10
-5.40904
 20
-13.811
 11
-5.32558
 21
-13.804
  0
LINE
  8
0
 10
-5.32558
 20
-13.804
 11
-5.24188
 21
-13.8004
  0
LINE
  8
0
 10
-5.24188
 20
-13.8004
 11
-5.15811
 21
-13.8004
  0
LINE
  8
0
 10
-5.15811
 20
-13.8004
 11
-5.07442
 21
-13.804
  0
LINE
  8
0
 10
-5.07442
 20
-13.804
 11
-4.99094
 21
-13.811
  0
LINE
  8
0
 10
-4.99094
 20
-13.811
 11
-4.90782
 21
-13.8215
  0
LINE
  8
0
 10
-4.90782
 20
-13.8215
 11
-4.82523
 21
-13.8354
  0
LINE
  8
0
 10
-4.82523
 20
-13.8354
 11
-4.74329
 21
-13.8528
  0
LINE
  8
0
 10
-4.74329
 20
-13.8528
 11
-4.66216
 21
-13.8737
  0
LINE
  8
0
 10
-4.66216
 20
-13.8737
 11
-4.58195
 21
-13.8979
  0
LINE
  8
0
 10
-4.58195
 20
-13.8979
 11
-4.50285
 21
-13.9254
  0
LINE
  8
0
 10
-4.50285
 20
-13.9254
 11
-4.42496
 21
-13.9563
  0
LINE
  8
0
 10
-4.42496
 20
-13.9563
 11
-4.34843
 21
-13.9904
  0
LINE
  8
0
 10
-4.34843
 20
-13.9904
 11
-4.27341
 21
-14.0276
  0
LINE
  8
0
 10
-4.27341
 20
-14.0276
 11
-4.2
 21
-14.068
  0
LINE
  8
0
 10
-4.2
 20
-14.068
 11
-4.12834
 21
-14.1114
  0
LINE
  8
0
 10
-4.12834
 20
-14.1114
 11
-4.05856
 21
-14.1577
  0
LINE
  8
0
 10
-4.05856
 20
-14.1577
 11
-3.9908
 21
-14.207
  0
LINE
  8
0
 10
-3.9908
 20
-14.207
 11
-3.92514
 21
-14.259
  0
LINE
  8
0
 10
-3.92514
 20
-14.259
 11
-3.86172
 21
-14.3137
  0
LINE
  8
0
 10
-3.86172
 20
-14.3137
 11
-3.80066
 21
-14.3711
  0
LINE
  8
0
 10
-3.80066
 20
-14.3711
 11
-3.74205
 21
-14.4309
  0
LINE
  8
0
 10
-3.74205
 20
-14.4309
 11
-3.686
 21
-14.4932
  0
LINE
  8
0
 10
-3.686
 20
-14.4932
 11
-3.6326
 21
-14.5577
  0
LINE
  8
0
 10
-3.6326
 20
-14.5577
 11
-3.58195
 21
-14.6244
  0
LINE
  8
0
 10
-3.58195
 20
-14.6244
 11
-3.53415
 21
-14.6932
  0
LINE
  8
0
 10
-3.53415
 20
-14.6932
 11
-3.48926
 21
-14.7639
  0
LINE
  8
0
 10
-3.48926
 20
-14.7639
 11
-3.44737
 21
-14.8365
  0
LINE
  8
0
 10
-3.44737
 20
-14.8365
 11
-3.40857
 21
-14.9107
  0
LINE
  8
0
 10
-3.40857
 20
-14.9107
 11
-3.37289
 21
-14.9865
  0
LINE
  8
0
 10
-3.37289
 20
-14.9865
 11
-3.34044
 21
-15.0638
  0
LINE
  8
0
 10
-3.34044
 20
-15.0638
 11
-3.31123
 21
-15.1423
  0
LINE
  8
0
 10
-3.31123
 20
-15.1423
 11
-3.28535
 21
-15.2219
  0
LINE
  8
0
 10
-3.28535
 20
-15.2219
 11
-3.26283
 21
-15.3026
  0
LINE
  8
0
 10
-3.26283
 20
-15.3026
 11
-3.2437
 21
-15.3842
  0
LINE
  8
0
 10
-3.2437
 20
-15.3842
 11
-3.228
 21
-15.4665
  0
LINE
  8
0
 10
-3.228
 20
-15.4665
 11
-3.21576
 21
-15.5493
  0
LINE
  8
0
 10
-3.21576
 20
-15.5493
 11
-3.207
 21
-15.6326
  0
LINE
  8
0
 10
-3.207
 20
-15.6326
 11
-3.20175
 21
-15.7163
  0
LINE
  8
0
 10
-3.20175
 20
-15.7163
 11
-3.2
 21
-15.8
  0
LINE
  8
0
 10
-3.2
 20
-15.8
 11
-3.20175
 21
-15.8838
  0
LINE
  8
0
 10
-3.20175
 20
-15.8838
 11
-3.207
 21
-15.9674
  0
LINE
  8
0
 10
-3.207
 20
-15.9674
 11
-3.21576
 21
-16.0507
  0
LINE
  8
0
 10
-3.21576
 20
-16.0507
 11
-3.228
 21
-16.1335
  0
LINE
  8
0
 10
-3.228
 20
-16.1335
 11
-3.2437
 21
-16.2158
  0
LINE
  8
0
 10
-3.2437
 20
-16.2158
 11
-3.26283
 21
-16.2974
  0
LINE
  8
0
 10
-3.26283
 20
-16.2974
 11
-3.28535
 21
-16.3781
  0
LINE
  8
0
 10
-3.28535
 20
-16.3781
 11
-3.31123
 21
-16.4577
  0
LINE
  8
0
 10
-3.31123
 20
-16.4577
 11
-3.34044
 21
-16.5363
  0
LINE
  8
0
 10
-3.34044
 20
-16.5363
 11
-3.37289
 21
-16.6135
  0
LINE
  8
0
 10
-3.37289
 20
-16.6135
 11
-3.40857
 21
-16.6893
  0
LINE
  8
0
 10
-3.40857
 20
-16.6893
 11
-3.44737
 21
-16.7635
  0
LINE
  8
0
 10
-3.44737
 20
-16.7635
 11
-3.48926
 21
-16.8361
  0
LINE
  8
0
 10
-3.48926
 20
-16.8361
 11
-3.53415
 21
-16.9068
  0
LINE
  8
0
 10
-3.53415
 20
-16.9068
 11
-3.58195
 21
-16.9756
  0
LINE
  8
0
 10
-3.58195
 20
-16.9756
 11
-3.6326
 21
-17.0423
  0
LINE
  8
0
 10
-3.6326
 20
-17.0423
 11
-3.686
 21
-17.1068
  0
LINE
  8
0
 10
-3.686
 20
-17.1068
 11
-3.74205
 21
-17.1691
  0
LINE
  8
0
 10
-3.74205
 20
-17.1691
 11
-3.80066
 21
-17.229
  0
LINE
  8
0
 10
-3.80066
 20
-17.229
 11
-3.86172
 21
-17.2863
  0
LINE
  8
0
 10
-3.86172
 20
-17.2863
 11
-3.92514
 21
-17.341
  0
LINE
  8
0
 10
-3.92514
 20
-17.341
 11
-3.9908
 21
-17.3931
  0
LINE
  8
0
 10
-3.9908
 20
-17.3931
 11
-4.05856
 21
-17.4423
  0
LINE
  8
0
 10
-4.05856
 20
-17.4423
 11
-4.12834
 21
-17.4887
  0
LINE
  8
0
 10
-4.12834
 20
-17.4887
 11
-4.2
 21
-17.5321
  0
LINE
  8
0
 10
-4.2
 20
-17.5321
 11
-4.27341
 21
-17.5724
  0
LINE
  8
0
 10
-4.27341
 20
-17.5724
 11
-4.34843
 21
-17.6097
  0
LINE
  8
0
 10
-4.34843
 20
-17.6097
 11
-4.42496
 21
-17.6437
  0
LINE
  8
0
 10
-4.42496
 20
-17.6437
 11
-4.50285
 21
-17.6746
  0
LINE
  8
0
 10
-4.50285
 20
-17.6746
 11
-4.58195
 21
-17.7021
  0
LINE
  8
0
 10
-4.58195
 20
-17.7021
 11
-4.66216
 21
-17.7263
  0
LINE
  8
0
 10
-4.66216
 20
-17.7263
 11
-4.74329
 21
-17.7472
  0
LINE
  8
0
 10
-4.74329
 20
-17.7472
 11
-4.82523
 21
-17.7646
  0
LINE
  8
0
 10
-4.82523
 20
-17.7646
 11
-4.90782
 21
-17.7785
  0
LINE
  8
0
 10
-4.90782
 20
-17.7785
 11
-4.99094
 21
-17.789
  0
LINE
  8
0
 10
-4.99094
 20
-17.789
 11
-5.07442
 21
-17.7961
  0
LINE
  8
0
 10
-5.07442
 20
-17.7961
 11
-5.15811
 21
-17.7996
  0
LINE
  8
0
 10
-5.15811
 20
-17.7996
 11
-5.24188
 21
-17.7996
  0
LINE
  8
0
 10
5.15811
 20
-17.7996
 11
5.07442
 21
-17.7961
  0
LINE
  8
0
 10
5.07442
 20
-17.7961
 11
4.99094
 21
-17.789
  0
LINE
  8
0
 10
4.99094
 20
-17.789
 11
4.90782
 21
-17.7785
  0
LINE
  8
0
 10
4.90782
 20
-17.7785
 11
4.82523
 21
-17.7646
  0
LINE
  8
0
 10
4.82523
 20
-17.7646
 11
4.74329
 21
-17.7472
  0
LINE
  8
0
 10
4.74329
 20
-17.7472
 11
4.66216
 21
-17.7263
  0
LINE
  8
0
 10
4.66216
 20
-17.7263
 11
4.58195
 21
-17.7021
  0
LINE
  8
0
 10
4.58195
 20
-17.7021
 11
4.50285
 21
-17.6746
  0
LINE
  8
0
 10
4.50285
 20
-17.6746
 11
4.42496
 21
-17.6437
  0
LINE
  8
0
 10
4.42496
 20
-17.6437
 11
4.34843
 21
-17.6097
  0
LINE
  8
0
 10
4.34843
 20
-17.6097
 11
4.27341
 21
-17.5724
  0
LINE
  8
0
 10
4.27341
 20
-17.5724
 11
4.2
 21
-17.5321
  0
LINE
  8
0
 10
4.2
 20
-17.5321
 11
4.12834
 21
-17.4887
  0
LINE
  8
0
 10
4.12834
 20
-17.4887
 11
4.05856
 21
-17.4423
  0
LINE
  8
0
 10
4.05856
 20
-17.4423
 11
3.9908
 21
-17.3931
  0
LINE
  8
0
 10
3.9908
 20
-17.3931
 11
3.92514
 21
-17.341
  0
LINE
  8
0
 10
3.92514
 20
-17.341
 11
3.86172
 21
-17.2863
  0
LINE
  8
0
 10
3.86172
 20
-17.2863
 11
3.80066
 21
-17.229
  0
LINE
  8
0
 10
3.80066
 20
-17.229
 11
3.74205
 21
-17.1691
  0
LINE
  8
0
 10
3.74205
 20
-17.1691
 11
3.686
 21
-17.1068
  0
LINE
  8
0
 10
3.686
 20
-17.1068
 11
3.6326
 21
-17.0423
  0
LINE
  8
0
 10
3.6326
 20
-17.0423
 11
3.58195
 21
-16.9756
  0
LINE
  8
0
 10
3.58195
 20
-16.9756
 11
3.53415
 21
-16.9068
  0
LINE
  8
0
 10
3.53415
 20
-16.9068
 11
3.48926
 21
-16.8361
  0
LINE
  8
0
 10
3.48926
 20
-16.8361
 11
3.44737
 21
-16.7635
  0
LINE
  8
0
 10
3.44737
 20
-16.7635
 11
3.40857
 21
-16.6893
  0
LINE
  8
0
 10
3.40857
 20
-16.6893
 11
3.37289
 21
-16.6135
  0
LINE
  8
0
 10
3.37289
 20
-16.6135
 11
3.34044
 21
-16.5363
  0
LINE
  8
0
 10
3.34044
 20
-16.5363
 11
3.31123
 21
-16.4577
  0
LINE
  8
0
 10
3.31123
 20
-16.4577
 11
3.28535
 21
-16.3781
  0
LINE
  8
0
 10
3.28535
 20
-16.3781
 11
3.26283
 21
-16.2974
  0
LINE
  8
0
 10
3.26283
 20
-16.2974
 11
3.2437
 21
-16.2158
  0
LINE
  8
0
 10
3.2437
 20
-16.2158
 11
3.228
 21
-16.1335
  0
LINE
  8
0
 10
3.228
 20
-16.1335
 11
3.21576
 21
-16.0507
  0
LINE
  8
0
 10
3.21576
 20
-16.0507
 11
3.207
 21
-15.9674
  0
LINE
  8
0
 10
3.207
 20
-15.9674
 11
3.20175
 21
-15.8838
  0
LINE
  8
0
 10
3.20175
 20
-15.8838
 11
3.2
 21
-15.8
  0
LINE
  8
0
 10
3.2
 20
-15.8
 11
3.20175
 21
-15.7163
  0
LINE
  8
0
 10
3.20175
 20
-15.7163
 11
3.207
 21
-15.6326
  0
LINE
  8
0
 10
3.207
 20
-15.6326
 11
3.21576
 21
-15.5493
  0
LINE
  8
0
 10
3.21576
 20
-15.5493
 11
3.228
 21
-15.4665
  0
LINE
  8
0
 10
3.228
 20
-15.4665
 11
3.2437
 21
-15.3842
  0
LINE
  8
0
 10
3.2437
 20
-15.3842
 11
3.26283
 21
-15.3026
  0
LINE
  8
0
 10
3.26283
 20
-15.3026
 11
3.28535
 21
-15.2219
  0
LINE
  8
0
 10
3.28535
 20
-15.2219
 11
3.31123
 21
-15.1423
  0
LINE
  8
0
 10
3.31123
 20
-15.1423
 11
3.34044
 21
-15.0638
  0
LINE
  8
0
 10
3.34044
 20
-15.0638
 11
3.37289
 21
-14.9865
  0
LINE
  8
0
 10
3.37289
 20
-14.9865
 11
3.40857
 21
-14.9107
  0
LINE
  8
0
 10
3.40857
 20
-14.9107
 11
3.44737
 21
-14.8365
  0
LINE
  8
0
 10
3.44737
 20
-14.8365
 11
3.48926
 21
-14.7639
  0
LINE
  8
0
 10
3.48926
 20
-14.7639
 11
3.53415
 21
-14.6932
  0
LINE
  8
0
 10
3.53415
 20
-14.6932
 11
3.58195
 21
-14.6244
  0
LINE
  8
0
 10
3.58195
 20
-14.6244
 11
3.6326
 21
-14.5577
  0
LINE
  8
0
 10
3.6326
 20
-14.5577
 11
3.686
 21
-14.4932
  0
LINE
  8
0
 10
3.686
 20
-14.4932
 11
3.74205
 21
-14.4309
  0
LINE
  8
0
 10
3.74205
 20
-14.4309
 11
3.80066
 21
-14.3711
  0
LINE
  8
0
 10
3.80066
 20
-14.3711
 11
3.86172
 21
-14.3137
  0
LINE
  8
0
 10
3.86172
 20
-14.3137
 11
3.92514
 21
-14.259
  0
LINE
  8
0
 10
3.92514
 20
-14.259
 11
3.9908
 21
-14.207
  0
LINE
  8
0
 10
3.9908
 20
-14.207
 11
4.05856
 21
-14.1577
  0
LINE
  8
0
 10
4.05856
 20
-14.1577
 11
4.12834
 21
-14.1114
  0
LINE
  8
0
 10
4.12834
 20
-14.1114
 11
4.2
 21
-14.068
  0
LINE
  8
0
 10
4.2
 20
-14.068
 11
4.27341
 21
-14.0276
  0
LINE
  8
0
 10
4.27341
 20
-14.0276
 11
4.34843
 21
-13.9904
  0
LINE
  8
0
 10
4.34843
 20
-13.9904
 11
4.42496
 21
-13.9563
  0
LINE
  8
0
 10
4.42496
 20
-13.9563
 11
4.50285
 21
-13.9254
  0
LINE
  8
0
 10
4.50285
 20
-13.9254
 11
4.58195
 21
-13.8979
  0
LINE
  8
0
 10
4.58195
 20
-13.8979
 11
4.66216
 21
-13.8737
  0
LINE
  8
0
 10
4.66216
 20
-13.8737
 11
4.74329
 21
-13.8528
  0
LINE
  8
0
 10
4.74329
 20
-13.8528
 11
4.82523
 21
-13.8354
  0
LINE
  8
0
 10
4.82523
 20
-13.8354
 11
4.90782
 21
-13.8215
  0
LINE
  8
0
 10
4.90782
 20
-13.8215
 11
4.99094
 21
-13.811
  0
LINE
  8
0
 10
4.99094
 20
-13.811
 11
5.07442
 21
-13.804
  0
LINE
  8
0
 10
5.07442
 20
-13.804
 11
5.15811
 21
-13.8004
  0
LINE
  8
0
 10
5.15811
 20
-13.8004
 11
5.24188
 21
-13.8004
  0
LINE
  8
0
 10
5.24188
 20
-13.8004
 11
5.32558
 21
-13.804
  0
LINE
  8
0
 10
5.32558
 20
-13.804
 11
5.40904
 21
-13.811
  0
LINE
  8
0
 10
5.40904
 20
-13.811
 11
5.49216
 21
-13.8215
  0
LINE
  8
0
 10
5.49216
 20
-13.8215
 11
5.57475
 21
-13.8354
  0
LINE
  8
0
 10
5.57475
 20
-13.8354
 11
5.65669
 21
-13.8528
  0
LINE
  8
0
 10
5.65669
 20
-13.8528
 11
5.73784
 21
-13.8737
  0
LINE
  8
0
 10
5.73784
 20
-13.8737
 11
5.81802
 21
-13.8979
  0
LINE
  8
0
 10
5.81802
 20
-13.8979
 11
5.89714
 21
-13.9254
  0
LINE
  8
0
 10
5.89714
 20
-13.9254
 11
5.97502
 21
-13.9563
  0
LINE
  8
0
 10
5.97502
 20
-13.9563
 11
6.05154
 21
-13.9904
  0
LINE
  8
0
 10
6.05154
 20
-13.9904
 11
6.12659
 21
-14.0276
  0
LINE
  8
0
 10
6.12659
 20
-14.0276
 11
6.2
 21
-14.068
  0
LINE
  8
0
 10
6.2
 20
-14.068
 11
6.27165
 21
-14.1114
  0
LINE
  8
0
 10
6.27165
 20
-14.1114
 11
6.34142
 21
-14.1577
  0
LINE
  8
0
 10
6.34142
 20
-14.1577
 11
6.40919
 21
-14.207
  0
LINE
  8
0
 10
6.40919
 20
-14.207
 11
6.47484
 21
-14.259
  0
LINE
  8
0
 10
6.47484
 20
-14.259
 11
6.53825
 21
-14.3137
  0
LINE
  8
0
 10
6.53825
 20
-14.3137
 11
6.59932
 21
-14.3711
  0
LINE
  8
0
 10
6.59932
 20
-14.3711
 11
6.65793
 21
-14.4309
  0
LINE
  8
0
 10
6.65793
 20
-14.4309
 11
6.71399
 21
-14.4932
  0
LINE
  8
0
 10
6.71399
 20
-14.4932
 11
6.76738
 21
-14.5577
  0
LINE
  8
0
 10
6.76738
 20
-14.5577
 11
6.81802
 21
-14.6244
  0
LINE
  8
0
 10
6.81802
 20
-14.6244
 11
6.86583
 21
-14.6932
  0
LINE
  8
0
 10
6.86583
 20
-14.6932
 11
6.91072
 21
-14.7639
  0
LINE
  8
0
 10
6.91072
 20
-14.7639
 11
6.95261
 21
-14.8365
  0
LINE
  8
0
 10
6.95261
 20
-14.8365
 11
6.99141
 21
-14.9107
  0
LINE
  8
0
 10
6.99141
 20
-14.9107
 11
7.02708
 21
-14.9865
  0
LINE
  8
0
 10
7.02708
 20
-14.9865
 11
7.05954
 21
-15.0638
  0
LINE
  8
0
 10
7.05954
 20
-15.0638
 11
7.08875
 21
-15.1423
  0
LINE
  8
0
 10
7.08875
 20
-15.1423
 11
7.11462
 21
-15.2219
  0
LINE
  8
0
 10
7.11462
 20
-15.2219
 11
7.13716
 21
-15.3026
  0
LINE
  8
0
 10
7.13716
 20
-15.3026
 11
7.15628
 21
-15.3842
  0
LINE
  8
0
 10
7.15628
 20
-15.3842
 11
7.17198
 21
-15.4665
  0
LINE
  8
0
 10
7.17198
 20
-15.4665
 11
7.18422
 21
-15.5493
  0
LINE
  8
0
 10
7.18422
 20
-15.5493
 11
7.19298
 21
-15.6326
  0
LINE
  8
0
 10
7.19298
 20
-15.6326
 11
7.19824
 21
-15.7163
  0
LINE
  8
0
 10
7.19824
 20
-15.7163
 11
7.2
 21
-15.8
  0
LINE
  8
0
 10
7.2
 20
-15.8
 11
7.19824
 21
-15.8838
  0
LINE
  8
0
 10
7.19824
 20
-15.8838
 11
7.19298
 21
-15.9674
  0
LINE
  8
0
 10
7.19298
 20
-15.9674
 11
7.18422
 21
-16.0507
  0
LINE
  8
0
 10
7.18422
 20
-16.0507
 11
7.17198
 21
-16.1335
  0
LINE
  8
0
 10
7.17198
 20
-16.1335
 11
7.15628
 21
-16.2158
  0
LINE
  8
0
 10
7.15628
 20
-16.2158
 11
7.13716
 21
-16.2974
  0
LINE
  8
0
 10
7.13716
 20
-16.2974
 11
7.11462
 21
-16.3781
  0
LINE
  8
0
 10
7.11462
 20
-16.3781
 11
7.08875
 21
-16.4577
  0
LINE
  8
0
 10
7.08875
 20
-16.4577
 11
7.05954
 21
-16.5363
  0
LINE
  8
0
 10
7.05954
 20
-16.5363
 11
7.02708
 21
-16.6135
  0
LINE
  8
0
 10
7.02708
 20
-16.6135
 11
6.99141
 21
-16.6893
  0
LINE
  8
0
 10
6.99141
 20
-16.6893
 11
6.95261
 21
-16.7635
  0
LINE
  8
0
 10
6.95261
 20
-16.7635
 11
6.91072
 21
-16.8361
  0
LINE
  8
0
 10
6.91072
 20
-16.8361
 11
6.86583
 21
-16.9068
  0
LINE
  8
0
 10
6.86583
 20
-16.9068
 11
6.81802
 21
-16.9756
  0
LINE
  8
0
 10
6.81802
 20
-16.9756
 11
6.76738
 21
-17.0423
  0
LINE
  8
0
 10
6.76738
 20
-17.0423
 11
6.71399
 21
-17.1068
  0
LINE
  8
0
 10
6.71399
 20
-17.1068
 11
6.65793
 21
-17.1691
  0
LINE
  8
0
 10
6.65793
 20
-17.1691
 11
6.59932
 21
-17.229
  0
LINE
  8
0
 10
6.59932
 20
-17.229
 11
6.53825
 21
-17.2863
  0
LINE
  8
0
 10
6.53825
 20
-17.2863
 11
6.47484
 21
-17.341
  0
LINE
  8
0
 10
6.47484
 20
-17.341
 11
6.40919
 21
-17.3931
  0
LINE
  8
0
 10
6.40919
 20
-17.3931
 11
6.34142
 21
-17.4423
  0
LINE
  8
0
 10
6.34142
 20
-17.4423
 11
6.27165
 21
-17.4887
  0
LINE
  8
0
 10
6.27165
 20
-17.4887
 11
6.2
 21
-17.5321
  0
LINE
  8
0
 10
6.2
 20
-17.5321
 11
6.12659
 21
-17.5724
  0
LINE
  8
0
 10
6.12659
 20
-17.5724
 11
6.05154
 21
-17.6097
  0
LINE
  8
0
 10
6.05154
 20
-17.6097
 11
5.97502
 21
-17.6437
  0
LINE
  8
0
 10
5.97502
 20
-17.6437
 11
5.89714
 21
-17.6746
  0
LINE
  8
0
 10
5.89714
 20
-17.6746
 11
5.81802
 21
-17.7021
  0
LINE
  8
0
 10
5.81802
 20
-17.7021
 11
5.73784
 21
-17.7263
  0
LINE
  8
0
 10
5.73784
 20
-17.7263
 11
5.65669
 21
-17.7472
  0
LINE
  8
0
 10
5.65669
 20
-17.7472
 11
5.57475
 21
-17.7646
  0
LINE
  8
0
 10
5.57475
 20
-17.7646
 11
5.49216
 21
-17.7785
  0
LINE
  8
0
 10
5.49216
 20
-17.7785
 11
5.40904
 21
-17.789
  0
LINE
  8
0
 10
5.40904
 20
-17.789
 11
5.32558
 21
-17.7961
  0
LINE
  8
0
 10
5.32558
 20
-17.7961
 11
5.24188
 21
-17.7996
  0
LINE
  8
0
 10
5.24188
 20
-17.7996
 11
5.15811
 21
-17.7996
  0
LINE
  8
0
 10
-5.24188
 20
-28.1996
 11
-5.32558
 21
-28.196
  0
LINE
  8
0
 10
-5.32558
 20
-28.196
 11
-5.40904
 21
-28.189
  0
LINE
  8
0
 10
-5.40904
 20
-28.189
 11
-5.49216
 21
-28.1785
  0
LINE
  8
0
 10
-5.49216
 20
-28.1785
 11
-5.57475
 21
-28.1646
  0
LINE
  8
0
 10
-5.57475
 20
-28.1646
 11
-5.65669
 21
-28.1472
  0
LINE
  8
0
 10
-5.65669
 20
-28.1472
 11
-5.73784
 21
-28.1263
  0
LINE
  8
0
 10
-5.73784
 20
-28.1263
 11
-5.81802
 21
-28.1021
  0
LINE
  8
0
 10
-5.81802
 20
-28.1021
 11
-5.89714
 21
-28.0746
  0
LINE
  8
0
 10
-5.89714
 20
-28.0746
 11
-5.97502
 21
-28.0437
  0
LINE
  8
0
 10
-5.97502
 20
-28.0437
 11
-6.05154
 21
-28.0096
  0
LINE
  8
0
 10
-6.05154
 20
-28.0096
 11
-6.12659
 21
-27.9724
  0
LINE
  8
0
 10
-6.12659
 20
-27.9724
 11
-6.2
 21
-27.932
  0
LINE
  8
0
 10
-6.2
 20
-27.932
 11
-6.27165
 21
-27.8886
  0
LINE
  8
0
 10
-6.27165
 20
-27.8886
 11
-6.34142
 21
-27.8423
  0
LINE
  8
0
 10
-6.34142
 20
-27.8423
 11
-6.40919
 21
-27.793
  0
LINE
  8
0
 10
-6.40919
 20
-27.793
 11
-6.47484
 21
-27.741
  0
LINE
  8
0
 10
-6.47484
 20
-27.741
 11
-6.53825
 21
-27.6863
  0
LINE
  8
0
 10
-6.53825
 20
-27.6863
 11
-6.59932
 21
-27.6289
  0
LINE
  8
0
 10
-6.59932
 20
-27.6289
 11
-6.65793
 21
-27.5691
  0
LINE
  8
0
 10
-6.65793
 20
-27.5691
 11
-6.71399
 21
-27.5068
  0
LINE
  8
0
 10
-6.71399
 20
-27.5068
 11
-6.76738
 21
-27.4423
  0
LINE
  8
0
 10
-6.76738
 20
-27.4423
 11
-6.81802
 21
-27.3756
  0
LINE
  8
0
 10
-6.81802
 20
-27.3756
 11
-6.86583
 21
-27.3068
  0
LINE
  8
0
 10
-6.86583
 20
-27.3068
 11
-6.91072
 21
-27.2361
  0
LINE
  8
0
 10
-6.91072
 20
-27.2361
 11
-6.95261
 21
-27.1635
  0
LINE
  8
0
 10
-6.95261
 20
-27.1635
 11
-6.99141
 21
-27.0893
  0
LINE
  8
0
 10
-6.99141
 20
-27.0893
 11
-7.02708
 21
-27.0135
  0
LINE
  8
0
 10
-7.02708
 20
-27.0135
 11
-7.05954
 21
-26.9362
  0
LINE
  8
0
 10
-7.05954
 20
-26.9362
 11
-7.08875
 21
-26.8577
  0
LINE
  8
0
 10
-7.08875
 20
-26.8577
 11
-7.11462
 21
-26.7781
  0
LINE
  8
0
 10
-7.11462
 20
-26.7781
 11
-7.13716
 21
-26.6974
  0
LINE
  8
0
 10
-7.13716
 20
-26.6974
 11
-7.15628
 21
-26.6158
  0
LINE
  8
0
 10
-7.15628
 20
-26.6158
 11
-7.17198
 21
-26.5335
  0
LINE
  8
0
 10
-7.17198
 20
-26.5335
 11
-7.18422
 21
-26.4507
  0
LINE
  8
0
 10
-7.18422
 20
-26.4507
 11
-7.19298
 21
-26.3674
  0
LINE
  8
0
 10
-7.19298
 20
-26.3674
 11
-7.19824
 21
-26.2837
  0
LINE
  8
0
 10
-7.19824
 20
-26.2837
 11
-7.2
 21
-26.2
  0
LINE
  8
0
 10
-7.2
 20
-26.2
 11
-7.19824
 21
-26.1162
  0
LINE
  8
0
 10
-7.19824
 20
-26.1162
 11
-7.19298
 21
-26.0326
  0
LINE
  8
0
 10
-7.19298
 20
-26.0326
 11
-7.18422
 21
-25.9493
  0
LINE
  8
0
 10
-7.18422
 20
-25.9493
 11
-7.17198
 21
-25.8665
  0
LINE
  8
0
 10
-7.17198
 20
-25.8665
 11
-7.15628
 21
-25.7842
  0
LINE
  8
0
 10
-7.15628
 20
-25.7842
 11
-7.13716
 21
-25.7026
  0
LINE
  8
0
 10
-7.13716
 20
-25.7026
 11
-7.11462
 21
-25.6219
  0
LINE
  8
0
 10
-7.11462
 20
-25.6219
 11
-7.08875
 21
-25.5423
  0
LINE
  8
0
 10
-7.08875
 20
-25.5423
 11
-7.05954
 21
-25.4637
  0
LINE
  8
0
 10
-7.05954
 20
-25.4637
 11
-7.02708
 21
-25.3865
  0
LINE
  8
0
 10
-7.02708
 20
-25.3865
 11
-6.99141
 21
-25.3107
  0
LINE
  8
0
 10
-6.99141
 20
-25.3107
 11
-6.95261
 21
-25.2365
  0
LINE
  8
0
 10
-6.95261
 20
-25.2365
 11
-6.91072
 21
-25.1639
  0
LINE
  8
0
 10
-6.91072
 20
-25.1639
 11
-6.86583
 21
-25.0932
  0
LINE
  8
0
 10
-6.86583
 20
-25.0932
 11
-6.81802
 21
-25.0244
  0
LINE
  8
0
 10
-6.81802
 20
-25.0244
 11
-6.76738
 21
-24.9577
  0
LINE
  8
0
 10
-6.76738
 20
-24.9577
 11
-6.71399
 21
-24.8932
  0
LINE
  8
0
 10
-6.71399
 20
-24.8932
 11
-6.65793
 21
-24.8309
  0
LINE
  8
0
 10
-6.65793
 20
-24.8309
 11
-6.59932
 21
-24.771
  0
LINE
  8
0
 10
-6.59932
 20
-24.771
 11
-6.53825
 21
-24.7137
  0
LINE
  8
0
 10
-6.53825
 20
-24.7137
 11
-6.47484
 21
-24.659
  0
LINE
  8
0
 10
-6.47484
 20
-24.659
 11
-6.40919
 21
-24.6069
  0
LINE
  8
0
 10
-6.40919
 20
-24.6069
 11
-6.34142
 21
-24.5577
  0
LINE
  8
0
 10
-6.34142
 20
-24.5577
 11
-6.27165
 21
-24.5113
  0
LINE
  8
0
 10
-6.27165
 20
-24.5113
 11
-6.2
 21
-24.4679
  0
LINE
  8
0
 10
-6.2
 20
-24.4679
 11
-6.12659
 21
-24.4276
  0
LINE
  8
0
 10
-6.12659
 20
-24.4276
 11
-6.05154
 21
-24.3903
  0
LINE
  8
0
 10
-6.05154
 20
-24.3903
 11
-5.97502
 21
-24.3563
  0
LINE
  8
0
 10
-5.97502
 20
-24.3563
 11
-5.89714
 21
-24.3254
  0
LINE
  8
0
 10
-5.89714
 20
-24.3254
 11
-5.81802
 21
-24.2979
  0
LINE
  8
0
 10
-5.81802
 20
-24.2979
 11
-5.73784
 21
-24.2737
  0
LINE
  8
0
 10
-5.73784
 20
-24.2737
 11
-5.65669
 21
-24.2528
  0
LINE
  8
0
 10
-5.65669
 20
-24.2528
 11
-5.57475
 21
-24.2354
  0
LINE
  8
0
 10
-5.57475
 20
-24.2354
 11
-5.49216
 21
-24.2215
  0
LINE
  8
0
 10
-5.49216
 20
-24.2215
 11
-5.40904
 21
-24.211
  0
LINE
  8
0
 10
-5.40904
 20
-24.211
 11
-5.32558
 21
-24.2039
  0
LINE
  8
0
 10
-5.32558
 20
-24.2039
 11
-5.24188
 21
-24.2004
  0
LINE
  8
0
 10
-5.24188
 20
-24.2004
 11
-5.15811
 21
-24.2004
  0
LINE
  8
0
 10
-5.15811
 20
-24.2004
 11
-5.07442
 21
-24.2039
  0
LINE
  8
0
 10
-5.07442
 20
-24.2039
 11
-4.99094
 21
-24.211
  0
LINE
  8
0
 10
-4.99094
 20
-24.211
 11
-4.90782
 21
-24.2215
  0
LINE
  8
0
 10
-4.90782
 20
-24.2215
 11
-4.82523
 21
-24.2354
  0
LINE
  8
0
 10
-4.82523
 20
-24.2354
 11
-4.74329
 21
-24.2528
  0
LINE
  8
0
 10
-4.74329
 20
-24.2528
 11
-4.66216
 21
-24.2737
  0
LINE
  8
0
 10
-4.66216
 20
-24.2737
 11
-4.58195
 21
-24.2979
  0
LINE
  8
0
 10
-4.58195
 20
-24.2979
 11
-4.50285
 21
-24.3254
  0
LINE
  8
0
 10
-4.50285
 20
-24.3254
 11
-4.42496
 21
-24.3563
  0
LINE
  8
0
 10
-4.42496
 20
-24.3563
 11
-4.34843
 21
-24.3903
  0
LINE
  8
0
 10
-4.34843
 20
-24.3903
 11
-4.27341
 21
-24.4276
  0
LINE
  8
0
 10
-4.27341
 20
-24.4276
 11
-4.2
 21
-24.4679
  0
LINE
  8
0
 10
-4.2
 20
-24.4679
 11
-4.12834
 21
-24.5113
  0
LINE
  8
0
 10
-4.12834
 20
-24.5113
 11
-4.05856
 21
-24.5577
  0
LINE
  8
0
 10
-4.05856
 20
-24.5577
 11
-3.9908
 21
-24.6069
  0
LINE
  8
0
 10
-3.9908
 20
-24.6069
 11
-3.92514
 21
-24.659
  0
LINE
  8
0
 10
-3.92514
 20
-24.659
 11
-3.86172
 21
-24.7137
  0
LINE
  8
0
 10
-3.86172
 20
-24.7137
 11
-3.80066
 21
-24.771
  0
LINE
  8
0
 10
-3.80066
 20
-24.771
 11
-3.74205
 21
-24.8309
  0
LINE
  8
0
 10
-3.74205
 20
-24.8309
 11
-3.686
 21
-24.8932
  0
LINE
  8
0
 10
-3.686
 20
-24.8932
 11
-3.6326
 21
-24.9577
  0
LINE
  8
0
 10
-3.6326
 20
-24.9577
 11
-3.58195
 21
-25.0244
  0
LINE
  8
0
 10
-3.58195
 20
-25.0244
 11
-3.53415
 21
-25.0932
  0
LINE
  8
0
 10
-3.53415
 20
-25.0932
 11
-3.48926
 21
-25.1639
  0
LINE
  8
0
 10
-3.48926
 20
-25.1639
 11
-3.44737
 21
-25.2365
  0
LINE
  8
0
 10
-3.44737
 20
-25.2365
 11
-3.40857
 21
-25.3107
  0
LINE
  8
0
 10
-3.40857
 20
-25.3107
 11
-3.37289
 21
-25.3865
  0
LINE
  8
0
 10
-3.37289
 20
-25.3865
 11
-3.34044
 21
-25.4637
  0
LINE
  8
0
 10
-3.34044
 20
-25.4637
 11
-3.31123
 21
-25.5423
  0
LINE
  8
0
 10
-3.31123
 20
-25.5423
 11
-3.28535
 21
-25.6219
  0
LINE
  8
0
 10
-3.28535
 20
-25.6219
 11
-3.26283
 21
-25.7026
  0
LINE
  8
0
 10
-3.26283
 20
-25.7026
 11
-3.2437
 21
-25.7842
  0
LINE
  8
0
 10
-3.2437
 20
-25.7842
 11
-3.228
 21
-25.8665
  0
LINE
  8
0
 10
-3.228
 20
-25.8665
 11
-3.21576
 21
-25.9493
  0
LINE
  8
0
 10
-3.21576
 20
-25.9493
 11
-3.207
 21
-26.0326
  0
LINE
  8
0
 10
-3.207
 20
-26.0326
 11
-3.20175
 21
-26.1162
  0
LINE
  8
0
 10
-3.20175
 20
-26.1162
 11
-3.2
 21
-26.2
  0
LINE
  8
0
 10
-3.2
 20
-26.2
 11
-3.20175
 21
-26.2837
  0
LINE
  8
0
 10
-3.20175
 20
-26.2837
 11
-3.207
 21
-26.3674
  0
LINE
  8
0
 10
-3.207
 20
-26.3674
 11
-3.21576
 21
-26.4507
  0
LINE
  8
0
 10
-3.21576
 20
-26.4507
 11
-3.228
 21
-26.5335
  0
LINE
  8
0
 10
-3.228
 20
-26.5335
 11
-3.2437
 21
-26.6158
  0
LINE
  8
0
 10
-3.2437
 20
-26.6158
 11
-3.26283
 21
-26.6974
  0
LINE
  8
0
 10
-3.26283
 20
-26.6974
 11
-3.28535
 21
-26.7781
  0
LINE
  8
0
 10
-3.28535
 20
-26.7781
 11
-3.31123
 21
-26.8577
  0
LINE
  8
0
 10
-3.31123
 20
-26.8577
 11
-3.34044
 21
-26.9362
  0
LINE
  8
0
 10
-3.34044
 20
-26.9362
 11
-3.37289
 21
-27.0135
  0
LINE
  8
0
 10
-3.37289
 20
-27.0135
 11
-3.40857
 21
-27.0893
  0
LINE
  8
0
 10
-3.40857
 20
-27.0893
 11
-3.44737
 21
-27.1635
  0
LINE
  8
0
 10
-3.44737
 20
-27.1635
 11
-3.48926
 21
-27.2361
  0
LINE
  8
0
 10
-3.48926
 20
-27.2361
 11
-3.53415
 21
-27.3068
  0
LINE
  8
0
 10
-3.53415
 20
-27.3068
 11
-3.58195
 21
-27.3756
  0
LINE
  8
0
 10
-3.58195
 20
-27.3756
 11
-3.6326
 21
-27.4423
  0
LINE
  8
0
 10
-3.6326
 20
-27.4423
 11
-3.686
 21
-27.5068
  0
LINE
  8
0
 10
-3.686
 20
-27.5068
 11
-3.74205
 21
-27.5691
  0
LINE
  8
0
 10
-3.74205
 20
-27.5691
 11
-3.80066
 21
-27.6289
  0
LINE
  8
0
 10
-3.80066
 20
-27.6289
 11
-3.86172
 21
-27.6863
  0
LINE
  8
0
 10
-3.86172
 20
-27.6863
 11
-3.92514
 21
-27.741
  0
LINE
  8
0
 10
-3.92514
 20
-27.741
 11
-3.9908
 21
-27.793
  0
LINE
  8
0
 10
-3.9908
 20
-27.793
 11
-4.05856
 21
-27.8423
  0
LINE
  8
0
 10
-4.05856
 20
-27.8423
 11
-4.12834
 21
-27.8886
  0
LINE
  8
0
 10
-4.12834
 20
-27.8886
 11
-4.2
 21
-27.932
  0
LINE
  8
0
 10
-4.2
 20
-27.932
 11
-4.27341
 21
-27.9724
  0
LINE
  8
0
 10
-4.27341
 20
-27.9724
 11
-4.34843
 21
-28.0096
  0
LINE
  8
0
 10
-4.34843
 20
-28.0096
 11
-4.42496
 21
-28.0437
  0
LINE
  8
0
 10
-4.42496
 20
-28.0437
 11
-4.50285
 21
-28.0746
  0
LINE
  8
0
 10
-4.50285
 20
-28.0746
 11
-4.58195
 21
-28.1021
  0
LINE
  8
0
 10
-4.58195
 20
-28.1021
 11
-4.66216
 21
-28.1263
  0
LINE
  8
0
 10
-4.66216
 20
-28.1263
 11
-4.74329
 21
-28.1472
  0
LINE
  8
0
 10
-4.74329
 20
-28.1472
 11
-4.82523
 21
-28.1646
  0
LINE
  8
0
 10
-4.82523
 20
-28.1646
 11
-4.90782
 21
-28.1785
  0
LINE
  8
0
 10
-4.90782
 20
-28.1785
 11
-4.99094
 21
-28.189
  0
LINE
  8
0
 10
-4.99094
 20
-28.189
 11
-5.07442
 21
-28.196
  0
LINE
  8
0
 10
-5.07442
 20
-28.196
 11
-5.15811
 21
-28.1996
  0
LINE
  8
0
 10
-5.15811
 20
-28.1996
 11
-5.24188
 21
-28.1996
  0
LINE
  8
0
 10
5.15811
 20
-28.1996
 11
5.07442
 21
-28.196
  0
LINE
  8
0
 10
5.07442
 20
-28.196
 11
4.99094
 21
-28.189
  0
LINE
  8
0
 10
4.99094
 20
-28.189
 11
4.90782
 21
-28.1785
  0
LINE
  8
0
 10
4.90782
 20
-28.1785
 11
4.82523
 21
-28.1646
  0
LINE
  8
0
 10
4.82523
 20
-28.1646
 11
4.74329
 21
-28.1472
  0
LINE
  8
0
 10
4.74329
 20
-28.1472
 11
4.66216
 21
-28.1263
  0
LINE
  8
0
 10
4.66216
 20
-28.1263
 11
4.58195
 21
-28.1021
  0
LINE
  8
0
 10
4.58195
 20
-28.1021
 11
4.50285
 21
-28.0746
  0
LINE
  8
0
 10
4.50285
 20
-28.0746
 11
4.42496
 21
-28.0437
  0
LINE
  8
0
 10
4.42496
 20
-28.0437
 11
4.34843
 21
-28.0096
  0
LINE
  8
0
 10
4.34843
 20
-28.0096
 11
4.27341
 21
-27.9724
  0
LINE
  8
0
 10
4.27341
 20
-27.9724
 11
4.2
 21
-27.932
  0
LINE
  8
0
 10
4.2
 20
-27.932
 11
4.12834
 21
-27.8886
  0
LINE
  8
0
 10
4.12834
 20
-27.8886
 11
4.05856
 21
-27.8423
  0
LINE
  8
0
 10
4.05856
 20
-27.8423
 11
3.9908
 21
-27.793
  0
LINE
  8
0
 10
3.9908
 20
-27.793
 11
3.92514
 21
-27.741
  0
LINE
  8
0
 10
3.92514
 20
-27.741
 11
3.86172
 21
-27.6863
  0
LINE
  8
0
 10
3.86172
 20
-27.6863
 11
3.80066
 21
-27.6289
  0
LINE
  8
0
 10
3.80066
 20
-27.6289
 11
3.74205
 21
-27.5691
  0
LINE
  8
0
 10
3.74205
 20
-27.5691
 11
3.686
 21
-27.5068
  0
LINE
  8
0
 10
3.686
 20
-27.5068
 11
3.6326
 21
-27.4423
  0
LINE
  8
0
 10
3.6326
 20
-27.4423
 11
3.58195
 21
-27.3756
  0
LINE
  8
0
 10
3.58195
 20
-27.3756
 11
3.53415
 21
-27.3068
  0
LINE
  8
0
 10
3.53415
 20
-27.3068
 11
3.48926
 21
-27.2361
  0
LINE
  8
0
 10
3.48926
 20
-27.2361
 11
3.44737
 21
-27.1635
  0
LINE
  8
0
 10
3.44737
 20
-27.1635
 11
3.40857
 21
-27.0893
  0
LINE
  8
0
 10
3.40857
 20
-27.0893
 11
3.37289
 21
-27.0135
  0
LINE
  8
0
 10
3.37289
 20
-27.0135
 11
3.34044
 21
-26.9362
  0
LINE
  8
0
 10
3.34044
 20
-26.9362
 11
3.31123
 21
-26.8577
  0
LINE
  8
0
 10
3.31123
 20
-26.8577
 11
3.28535
 21
-26.7781
  0
LINE
  8
0
 10
3.28535
 20
-26.7781
 11
3.26283
 21
-26.6974
  0
LINE
  8
0
 10
3.26283
 20
-26.6974
 11
3.2437
 21
-26.6158
  0
LINE
  8
0
 10
3.2437
 20
-26.6158
 11
3.228
 21
-26.5335
  0
LINE
  8
0
 10
3.228
 20
-26.5335
 11
3.21576
 21
-26.4507
  0
LINE
  8
0
 10
3.21576
 20
-26.4507
 11
3.207
 21
-26.3674
  0
LINE
  8
0
 10
3.207
 20
-26.3674
 11
3.20175
 21
-26.2837
  0
LINE
  8
0
 10
3.20175
 20
-26.2837
 11
3.2
 21
-26.2
  0
LINE
  8
0
 10
3.2
 20
-26.2
 11
3.20175
 21
-26.1162
  0
LINE
  8
0
 10
3.20175
 20
-26.1162
 11
3.207
 21
-26.0326
  0
LINE
  8
0
 10
3.207
 20
-26.0326
 11
3.21576
 21
-25.9493
  0
LINE
  8
0
 10
3.21576
 20
-25.9493
 11
3.228
 21
-25.8665
  0
LINE
  8
0
 10
3.228
 20
-25.8665
 11
3.2437
 21
-25.7842
  0
LINE
  8
0
 10
3.2437
 20
-25.7842
 11
3.26283
 21
-25.7026
  0
LINE
  8
0
 10
3.26283
 20
-25.7026
 11
3.28535
 21
-25.6219
  0
LINE
  8
0
 10
3.28535
 20
-25.6219
 11
3.31123
 21
-25.5423
  0
LINE
  8
0
 10
3.31123
 20
-25.5423
 11
3.34044
 21
-25.4637
  0
LINE
  8
0
 10
3.34044
 20
-25.4637
 11
3.37289
 21
-25.3865
  0
LINE
  8
0
 10
3.37289
 20
-25.3865
 11
3.40857
 21
-25.3107
  0
LINE
  8
0
 10
3.40857
 20
-25.3107
 11
3.44737
 21
-25.2365
  0
LINE
  8
0
 10
3.44737
 20
-25.2365
 11
3.48926
 21
-25.1639
  0
LINE
  8
0
 10
3.48926
 20
-25.1639
 11
3.53415
 21
-25.0932
  0
LINE
  8
0
 10
3.53415
 20
-25.0932
 11
3.58195
 21
-25.0244
  0
LINE
  8
0
 10
3.58195
 20
-25.0244
 11
3.6326
 21
-24.9577
  0
LINE
  8
0
 10
3.6326
 20
-24.9577
 11
3.686
 21
-24.8932
  0
LINE
  8
0
 10
3.686
 20
-24.8932
 11
3.74205
 21
-24.8309
  0
LINE
  8
0
 10
3.74205
 20
-24.8309
 11
3.80066
 21
-24.771
  0
LINE
  8
0
 10
3.80066
 20
-24.771
 11
3.86172
 21
-24.7137
  0
LINE
  8
0
 10
3.86172
 20
-24.7137
 11
3.92514
 21
-24.659
  0
LINE
  8
0
 10
3.92514
 20
-24.659
 11
3.9908
 21
-24.6069
  0
LINE
  8
0
 10
3.9908
 20
-24.6069
 11
4.05856
 21
-24.5577
  0
LINE
  8
0
 10
4.05856
 20
-24.5577
 11
4.12834
 21
-24.5113
  0
LINE
  8
0
 10
4.12834
 20
-24.5113
 11
4.2
 21
-24.4679
  0
LINE
  8
0
 10
4.2
 20
-24.4679
 11
4.27341
 21
-24.4276
  0
LINE
  8
0
 10
4.27341
 20
-24.4276
 11
4.34843
 21
-24.3903
  0
LINE
  8
0
 10
4.34843
 20
-24.3903
 11
4.42496
 21
-24.3563
  0
LINE
  8
0
 10
4.42496
 20
-24.3563
 11
4.50285
 21
-24.3254
  0
LINE
  8
0
 10
4.50285
 20
-24.3254
 11
4.58195
 21
-24.2979
  0
LINE
  8
0
 10
4.58195
 20
-24.2979
 11
4.66216
 21
-24.2737
  0
LINE
  8
0
 10
4.66216
 20
-24.2737
 11
4.74329
 21
-24.2528
  0
LINE
  8
0
 10
4.74329
 20
-24.2528
 11
4.82523
 21
-24.2354
  0
LINE
  8
0
 10
4.82523
 20
-24.2354
 11
4.90782
 21
-24.2215
  0
LINE
  8
0
 10
4.90782
 20
-24.2215
 11
4.99094
 21
-24.211
  0
LINE
  8
0
 10
4.99094
 20
-24.211
 11
5.07442
 21
-24.2039
  0
LINE
  8
0
 10
5.07442
 20
-24.2039
 11
5.15811
 21
-24.2004
  0
LINE
  8
0
 10
5.15811
 20
-24.2004
 11
5.24188
 21
-24.2004
  0
LINE
  8
0
 10
5.24188
 20
-24.2004
 11
5.32558
 21
-24.2039
  0
LINE
  8
0
 10
5.32558
 20
-24.2039
 11
5.40904
 21
-24.211
  0
LINE
  8
0
 10
5.40904
 20
-24.211
 11
5.49216
 21
-24.2215
  0
LINE
  8
0
 10
5.49216
 20
-24.2215
 11
5.57475
 21
-24.2354
  0
LINE
  8
0
 10
5.57475
 20
-24.2354
 11
5.65669
 21
-24.2528
  0
LINE
  8
0
 10
5.65669
 20
-24.2528
 11
5.73784
 21
-24.2737
  0
LINE
  8
0
 10
5.73784
 20
-24.2737
 11
5.81802
 21
-24.2979
  0
LINE
  8
0
 10
5.81802
 20
-24.2979
 11
5.89714
 21
-24.3254
  0
LINE
  8
0
 10
5.89714
 20
-24.3254
 11
5.97502
 21
-24.3563
  0
LINE
  8
0
 10
5.97502
 20
-24.3563
 11
6.05154
 21
-24.3903
  0
LINE
  8
0
 10
6.05154
 20
-24.3903
 11
6.12659
 21
-24.4276
  0
LINE
  8
0
 10
6.12659
 20
-24.4276
 11
6.2
 21
-24.4679
  0
LINE
  8
0
 10
6.2
 20
-24.4679
 11
6.27165
 21
-24.5113
  0
LINE
  8
0
 10
6.27165
 20
-24.5113
 11
6.34142
 21
-24.5577
  0
LINE
  8
0
 10
6.34142
 20
-24.5577
 11
6.40919
 21
-24.6069
  0
LINE
  8
0
 10
6.40919
 20
-24.6069
 11
6.47484
 21
-24.659
  0
LINE
  8
0
 10
6.47484
 20
-24.659
 11
6.53825
 21
-24.7137
  0
LINE
  8
0
 10
6.53825
 20
-24.7137
 11
6.59932
 21
-24.771
  0
LINE
  8
0
 10
6.59932
 20
-24.771
 11
6.65793
 21
-24.8309
  0
LINE
  8
0
 10
6.65793
 20
-24.8309
 11
6.71399
 21
-24.8932
  0
LINE
  8
0
 10
6.71399
 20
-24.8932
 11
6.76738
 21
-24.9577
  0
LINE
  8
0
 10
6.76738
 20
-24.9577
 11
6.81802
 21
-25.0244
  0
LINE
  8
0
 10
6.81802
 20
-25.0244
 11
6.86583
 21
-25.0932
  0
LINE
  8
0
 10
6.86583
 20
-25.0932
 11
6.91072
 21
-25.1639
  0
LINE
  8
0
 10
6.91072
 20
-25.1639
 11
6.95261
 21
-25.2365
  0
LINE
  8
0
 10
6.95261
 20
-25.2365
 11
6.99141
 21
-25.3107
  0
LINE
  8
0
 10
6.99141
 20
-25.3107
 11
7.02708
 21
-25.3865
  0
LINE
  8
0
 10
7.02708
 20
-25.3865
 11
7.05954
 21
-25.4637
  0
LINE
  8
0
 10
7.05954
 20
-25.4637
 11
7.08875
 21
-25.5423
  0
LINE
  8
0
 10
7.08875
 20
-25.5423
 11
7.11462
 21
-25.6219
  0
LINE
  8
0
 10
7.11462
 20
-25.6219
 11
7.13716
 21
-25.7026
  0
LINE
  8
0
 10
7.13716
 20
-25.7026
 11
7.15628
 21
-25.7842
  0
LINE
  8
0
 10
7.15628
 20
-25.7842
 11
7.17198
 21
-25.8665
  0
LINE
  8
0
 10
7.17198
 20
-25.8665
 11
7.18422
 21
-25.9493
  0
LINE
  8
0
 10
7.18422
 20
-25.9493
 11
7.19298
 21
-26.0326
  0
LINE
  8
0
 10
7.19298
 20
-26.0326
 11
7.19824
 21
-26.1162
  0
LINE
  8
0
 10
7.19824
 20
-26.1162
 11
7.2
 21
-26.2
  0
LINE
  8
0
 10
7.2
 20
-26.2
 11
7.19824
 21
-26.2837
  0
LINE
  8
0
 10
7.19824
 20
-26.2837
 11
7.19298
 21
-26.3674
  0
LINE
  8
0
 10
7.19298
 20
-26.3674
 11
7.18422
 21
-26.4507
  0
LINE
  8
0
 10
7.18422
 20
-26.4507
 11
7.17198
 21
-26.5335
  0
LINE
  8
0
 10
7.17198
 20
-26.5335
 11
7.15628
 21
-26.6158
  0
LINE
  8
0
 10
7.15628
 20
-26.6158
 11
7.13716
 21
-26.6974
  0
LINE
  8
0
 10
7.13716
 20
-26.6974
 11
7.11462
 21
-26.7781
  0
LINE
  8
0
 10
7.11462
 20
-26.7781
 11
7.08875
 21
-26.8577
  0
LINE
  8
0
 10
7.08875
 20
-26.8577
 11
7.05954
 21
-26.9362
  0
LINE
  8
0
 10
7.05954
 20
-26.9362
 11
7.02708
 21
-27.0135
  0
LINE
  8
0
 10
7.02708
 20
-27.0135
 11
6.99141
 21
-27.0893
  0
LINE
  8
0
 10
6.99141
 20
-27.0893
 11
6.95261
 21
-27.1635
  0
LINE
  8
0
 10
6.95261
 20
-27.1635
 11
6.91072
 21
-27.2361
  0
LINE
  8
0
 10
6.91072
 20
-27.2361
 11
6.86583
 21
-27.3068
  0
LINE
  8
0
 10
6.86583
 20
-27.3068
 11
6.81802
 21
-27.3756
  0
LINE
  8
0
 10
6.81802
 20
-27.3756
 11
6.76738
 21
-27.4423
  0
LINE
  8
0
 10
6.76738
 20
-27.4423
 11
6.71399
 21
-27.5068
  0
LINE
  8
0
 10
6.71399
 20
-27.5068
 11
6.65793
 21
-27.5691
  0
LINE
  8
0
 10
6.65793
 20
-27.5691
 11
6.59932
 21
-27.6289
  0
LINE
  8
0
 10
6.59932
 20
-27.6289
 11
6.53825
 21
-27.6863
  0
LINE
  8
0
 10
6.53825
 20
-27.6863
 11
6.47484
 21
-27.741
  0
LINE
  8
0
 10
6.47484
 20
-27.741
 11
6.40919
 21
-27.793
  0
LINE
  8
0
 10
6.40919
 20
-27.793
 11
6.34142
 21
-27.8423
  0
LINE
  8
0
 10
6.34142
 20
-27.8423
 11
6.27165
 21
-27.8886
  0
LINE
  8
0
 10
6.27165
 20
-27.8886
 11
6.2
 21
-27.932
  0
LINE
  8
0
 10
6.2
 20
-27.932
 11
6.12659
 21
-27.9724
  0
LINE
  8
0
 10
6.12659
 20
-27.9724
 11
6.05154
 21
-28.0096
  0
LINE
  8
0
 10
6.05154
 20
-28.0096
 11
5.97502
 21
-28.0437
  0
LINE
  8
0
 10
5.97502
 20
-28.0437
 11
5.89714
 21
-28.0746
  0
LINE
  8
0
 10
5.89714
 20
-28.0746
 11
5.81802
 21
-28.1021
  0
LINE
  8
0
 10
5.81802
 20
-28.1021
 11
5.73784
 21
-28.1263
  0
LINE
  8
0
 10
5.73784
 20
-28.1263
 11
5.65669
 21
-28.1472
  0
LINE
  8
0
 10
5.65669
 20
-28.1472
 11
5.57475
 21
-28.1646
  0
LINE
  8
0
 10
5.57475
 20
-28.1646
 11
5.49216
 21
-28.1785
  0
LINE
  8
0
 10
5.49216
 20
-28.1785
 11
5.40904
 21
-28.189
  0
LINE
  8
0
 10
5.40904
 20
-28.189
 11
5.32558
 21
-28.196
  0
LINE
  8
0
 10
5.32558
 20
-28.196
 11
5.24188
 21
-28.1996
  0
LINE
  8
0
 10
5.24188
 20
-28.1996
 11
5.15811
 21
-28.1996
  0
ENDSEC
  0
SECTION
  2
OBJECTS
  0
DICTIONARY
  0
ENDSEC
  0
EOF
