  0
SECTION
  2
BLOCKS
  0
ENDSEC
  0
SECTION
  2
ENTITIES
  0
LINE
  8
0
 10
-78.2633
 20
-88.97
 11
-66.1811
 21
-88.97
  0
LINE
  8
0
 10
-66.1811
 20
-88.97
 11
-66.1811
 21
-92.67
  0
LINE
  8
0
 10
-66.1811
 20
-92.67
 11
-53.8189
 21
-92.67
  0
LINE
  8
0
 10
-53.8189
 20
-92.67
 11
-53.8189
 21
-88.97
  0
LINE
  8
0
 10
-53.8189
 20
-88.97
 11
-41.7367
 21
-88.97
  0
LINE
  8
0
 10
-41.7367
 20
-88.97
 11
-41.7367
 21
-92.67
  0
LINE
  8
0
 10
-41.7367
 20
-92.67
 11
-29.3745
 21
-92.67
  0
LINE
  8
0
 10
-29.3745
 20
-92.67
 11
-29.3745
 21
-88.97
  0
LINE
  8
0
 10
-29.3745
 20
-88.97
 11
-17.2922
 21
-88.97
  0
LINE
  8
0
 10
-17.2922
 20
-88.97
 11
-17.2922
 21
-92.67
  0
LINE
  8
0
 10
-17.2922
 20
-92.67
 11
-4.93001
 21
-92.67
  0
LINE
  8
0
 10
-4.93001
 20
-92.67
 11
-4.93001
 21
-92.57
  0
LINE
  8
0
 10
-4.93001
 20
-92.57
 11
-4.83
 21
-92.57
  0
LINE
  8
0
 10
-4.83
 20
-92.57
 11
-4.83
 21
-82.6931
  0
LINE
  8
0
 10
-4.83
 20
-82.6931
 11
-8.53001
 21
-82.6931
  0
LINE
  8
0
 10
-8.53001
 20
-82.6931
 11
-8.53001
 21
-73.0963
  0
LINE
  8
0
 10
-8.53001
 20
-73.0963
 11
-4.83
 21
-73.0963
  0
LINE
  8
0
 10
-4.83
 20
-73.0963
 11
-4.83
 21
-63.2195
  0
LINE
  8
0
 10
-4.83
 20
-63.2195
 11
-8.53001
 21
-63.2195
  0
LINE
  8
0
 10
-8.53001
 20
-63.2195
 11
-8.53001
 21
-53.6226
  0
LINE
  8
0
 10
-8.53001
 20
-53.6226
 11
-4.83
 21
-53.6226
  0
LINE
  8
0
 10
-4.83
 20
-53.6226
 11
-4.83
 21
-43.7458
  0
LINE
  8
0
 10
-4.83
 20
-43.7458
 11
-8.53001
 21
-43.7458
  0
LINE
  8
0
 10
-8.53001
 20
-43.7458
 11
-8.53001
 21
-34.1489
  0
LINE
  8
0
 10
-8.53001
 20
-34.1489
 11
-4.83
 21
-34.1489
  0
LINE
  8
0
 10
-4.83
 20
-34.1489
 11
-4.83
 21
-24.2721
  0
LINE
  8
0
 10
-4.83
 20
-24.2721
 11
-8.53001
 21
-24.2721
  0
LINE
  8
0
 10
-8.53001
 20
-24.2721
 11
-8.53001
 21
-14.6753
  0
LINE
  8
0
 10
-8.53001
 20
-14.6753
 11
-4.83
 21
-14.6753
  0
LINE
  8
0
 10
-4.83
 20
-14.6753
 11
-4.83
 21
-4.79842
  0
LINE
  8
0
 10
-4.83
 20
-4.79842
 11
-8.53001
 21
-4.79842
  0
LINE
  8
0
 10
-8.53001
 20
-4.79842
 11
-8.53001
 21
4.7984
  0
LINE
  8
0
 10
-8.53001
 20
4.7984
 11
-4.83
 21
4.7984
  0
LINE
  8
0
 10
-4.83
 20
4.7984
 11
-4.83
 21
14.6752
  0
LINE
  8
0
 10
-4.83
 20
14.6752
 11
-8.53001
 21
14.6752
  0
LINE
  8
0
 10
-8.53001
 20
14.6752
 11
-8.53
 21
24.2721
  0
LINE
  8
0
 10
-8.53
 20
24.2721
 11
-4.82999
 21
24.2721
  0
LINE
  8
0
 10
-4.82999
 20
24.2721
 11
-4.82999
 21
34.1489
  0
LINE
  8
0
 10
-4.82999
 20
34.1489
 11
-8.53
 21
34.1489
  0
LINE
  8
0
 10
-8.53
 20
34.1489
 11
-8.53
 21
43.7458
  0
LINE
  8
0
 10
-8.53
 20
43.7458
 11
-4.82999
 21
43.7458
  0
LINE
  8
0
 10
-4.82999
 20
43.7458
 11
-4.82999
 21
53.6226
  0
LINE
  8
0
 10
-4.82999
 20
53.6226
 11
-8.53
 21
53.6226
  0
LINE
  8
0
 10
-8.53
 20
53.6226
 11
-8.53
 21
63.2195
  0
LINE
  8
0
 10
-8.53
 20
63.2195
 11
-4.82999
 21
63.2195
  0
LINE
  8
0
 10
-4.82999
 20
63.2195
 11
-4.82999
 21
73.0963
  0
LINE
  8
0
 10
-4.82999
 20
73.0963
 11
-8.53
 21
73.0963
  0
LINE
  8
0
 10
-8.53
 20
73.0963
 11
-8.53
 21
82.6931
  0
LINE
  8
0
 10
-8.53
 20
82.6931
 11
-4.82999
 21
82.6931
  0
LINE
  8
0
 10
-4.82999
 20
82.6931
 11
-4.82999
 21
92.57
  0
LINE
  8
0
 10
-4.82999
 20
92.57
 11
-4.92999
 21
92.57
  0
LINE
  8
0
 10
-4.92999
 20
92.57
 11
-4.92999
 21
92.67
  0
LINE
  8
0
 10
-4.92999
 20
92.67
 11
-17.2922
 21
92.67
  0
LINE
  8
0
 10
-17.2922
 20
92.67
 11
-17.2922
 21
88.97
  0
LINE
  8
0
 10
-17.2922
 20
88.97
 11
-29.3744
 21
88.97
  0
LINE
  8
0
 10
-29.3744
 20
88.97
 11
-29.3744
 21
92.67
  0
LINE
  8
0
 10
-29.3744
 20
92.67
 11
-41.7367
 21
92.67
  0
LINE
  8
0
 10
-41.7367
 20
92.67
 11
-41.7367
 21
88.97
  0
LINE
  8
0
 10
-41.7367
 20
88.97
 11
-53.8189
 21
88.97
  0
LINE
  8
0
 10
-53.8189
 20
88.97
 11
-53.8189
 21
92.67
  0
LINE
  8
0
 10
-53.8189
 20
92.67
 11
-66.1811
 21
92.67
  0
LINE
  8
0
 10
-66.1811
 20
92.67
 11
-66.1811
 21
88.97
  0
LINE
  8
0
 10
-66.1811
 20
88.97
 11
-78.2633
 21
88.97
  0
LINE
  8
0
 10
-78.2633
 20
88.97
 11
-78.2633
 21
92.67
  0
LINE
  8
0
 10
-78.2633
 20
92.67
 11
-90.6255
 21
92.67
  0
LINE
  8
0
 10
-90.6255
 20
92.67
 11
-90.6255
 21
88.97
  0
LINE
  8
0
 10
-90.6255
 20
88.97
 11
-102.708
 21
88.97
  0
LINE
  8
0
 10
-102.708
 20
88.97
 11
-102.708
 21
92.67
  0
LINE
  8
0
 10
-102.708
 20
92.67
 11
-115.07
 21
92.67
  0
LINE
  8
0
 10
-115.07
 20
92.67
 11
-115.07
 21
92.57
  0
LINE
  8
0
 10
-115.07
 20
92.57
 11
-115.17
 21
92.57
  0
LINE
  8
0
 10
-115.17
 20
92.57
 11
-115.17
 21
82.6931
  0
LINE
  8
0
 10
-115.17
 20
82.6931
 11
-111.47
 21
82.6931
  0
LINE
  8
0
 10
-111.47
 20
82.6931
 11
-111.47
 21
73.0963
  0
LINE
  8
0
 10
-111.47
 20
73.0963
 11
-115.17
 21
73.0963
  0
LINE
  8
0
 10
-115.17
 20
73.0963
 11
-115.17
 21
63.2195
  0
LINE
  8
0
 10
-115.17
 20
63.2195
 11
-111.47
 21
63.2195
  0
LINE
  8
0
 10
-111.47
 20
63.2195
 11
-111.47
 21
53.6226
  0
LINE
  8
0
 10
-111.47
 20
53.6226
 11
-115.17
 21
53.6226
  0
LINE
  8
0
 10
-115.17
 20
53.6226
 11
-115.17
 21
43.7458
  0
LINE
  8
0
 10
-115.17
 20
43.7458
 11
-111.47
 21
43.7458
  0
LINE
  8
0
 10
-111.47
 20
43.7458
 11
-111.47
 21
34.1489
  0
LINE
  8
0
 10
-111.47
 20
34.1489
 11
-115.17
 21
34.1489
  0
LINE
  8
0
 10
-115.17
 20
34.1489
 11
-115.17
 21
24.2721
  0
LINE
  8
0
 10
-115.17
 20
24.2721
 11
-111.47
 21
24.2721
  0
LINE
  8
0
 10
-111.47
 20
24.2721
 11
-111.47
 21
14.6753
  0
LINE
  8
0
 10
-111.47
 20
14.6753
 11
-115.17
 21
14.6753
  0
LINE
  8
0
 10
-115.17
 20
14.6753
 11
-115.17
 21
4.79842
  0
LINE
  8
0
 10
-115.17
 20
4.79842
 11
-111.47
 21
4.79842
  0
LINE
  8
0
 10
-111.47
 20
4.79842
 11
-111.47
 21
-4.7984
  0
LINE
  8
0
 10
-111.47
 20
-4.7984
 11
-115.17
 21
-4.7984
  0
LINE
  8
0
 10
-115.17
 20
-4.7984
 11
-115.17
 21
-14.6752
  0
LINE
  8
0
 10
-115.17
 20
-14.6752
 11
-111.47
 21
-14.6752
  0
LINE
  8
0
 10
-111.47
 20
-14.6752
 11
-111.47
 21
-24.2721
  0
LINE
  8
0
 10
-111.47
 20
-24.2721
 11
-115.17
 21
-24.2721
  0
LINE
  8
0
 10
-115.17
 20
-24.2721
 11
-115.17
 21
-34.1489
  0
LINE
  8
0
 10
-115.17
 20
-34.1489
 11
-111.47
 21
-34.1489
  0
LINE
  8
0
 10
-111.47
 20
-34.1489
 11
-111.47
 21
-43.7458
  0
LINE
  8
0
 10
-111.47
 20
-43.7458
 11
-115.17
 21
-43.7458
  0
LINE
  8
0
 10
-115.17
 20
-43.7458
 11
-115.17
 21
-53.6226
  0
LINE
  8
0
 10
-115.17
 20
-53.6226
 11
-111.47
 21
-53.6226
  0
LINE
  8
0
 10
-111.47
 20
-53.6226
 11
-111.47
 21
-63.2195
  0
LINE
  8
0
 10
-111.47
 20
-63.2195
 11
-115.17
 21
-63.2195
  0
LINE
  8
0
 10
-115.17
 20
-63.2195
 11
-115.17
 21
-73.0963
  0
LINE
  8
0
 10
-115.17
 20
-73.0963
 11
-111.47
 21
-73.0963
  0
LINE
  8
0
 10
-111.47
 20
-73.0963
 11
-111.47
 21
-82.6931
  0
LINE
  8
0
 10
-111.47
 20
-82.6931
 11
-115.17
 21
-82.6931
  0
LINE
  8
0
 10
-115.17
 20
-82.6931
 11
-115.17
 21
-92.57
  0
LINE
  8
0
 10
-115.17
 20
-92.57
 11
-115.07
 21
-92.57
  0
LINE
  8
0
 10
-115.07
 20
-92.57
 11
-115.07
 21
-92.67
  0
LINE
  8
0
 10
-115.07
 20
-92.67
 11
-102.708
 21
-92.67
  0
LINE
  8
0
 10
-102.708
 20
-92.67
 11
-102.708
 21
-88.97
  0
LINE
  8
0
 10
-102.708
 20
-88.97
 11
-90.6255
 21
-88.97
  0
LINE
  8
0
 10
-90.6255
 20
-88.97
 11
-90.6255
 21
-92.67
  0
LINE
  8
0
 10
-90.6255
 20
-92.67
 11
-78.2633
 21
-92.67
  0
LINE
  8
0
 10
-78.2633
 20
-92.67
 11
-78.2633
 21
-88.97
  0
LINE
  8
0
 10
-100.484
 20
75.9017
 11
-100.567
 21
75.907
  0
LINE
  8
0
 10
-100.567
 20
75.907
 11
-100.651
 21
75.9158
  0
LINE
  8
0
 10
-100.651
 20
75.9158
 11
-100.734
 21
75.928
  0
LINE
  8
0
 10
-100.734
 20
75.928
 11
-100.816
 21
75.9437
  0
LINE
  8
0
 10
-100.816
 20
75.9437
 11
-100.897
 21
75.9628
  0
LINE
  8
0
 10
-100.897
 20
75.9628
 11
-100.978
 21
75.9854
  0
LINE
  8
0
 10
-100.978
 20
75.9854
 11
-101.058
 21
76.0112
  0
LINE
  8
0
 10
-101.058
 20
76.0112
 11
-101.136
 21
76.0404
  0
LINE
  8
0
 10
-101.136
 20
76.0404
 11
-101.213
 21
76.0729
  0
LINE
  8
0
 10
-101.213
 20
76.0729
 11
-101.289
 21
76.1086
  0
LINE
  8
0
 10
-101.289
 20
76.1086
 11
-101.363
 21
76.1474
  0
LINE
  8
0
 10
-101.363
 20
76.1474
 11
-101.436
 21
76.1893
  0
LINE
  8
0
 10
-101.436
 20
76.1893
 11
-101.507
 21
76.2341
  0
LINE
  8
0
 10
-101.507
 20
76.2341
 11
-101.576
 21
76.282
  0
LINE
  8
0
 10
-101.576
 20
76.282
 11
-101.642
 21
76.3326
  0
LINE
  8
0
 10
-101.642
 20
76.3326
 11
-101.707
 21
76.386
  0
LINE
  8
0
 10
-101.707
 20
76.386
 11
-101.769
 21
76.4421
  0
LINE
  8
0
 10
-101.769
 20
76.4421
 11
-101.829
 21
76.5007
  0
LINE
  8
0
 10
-101.829
 20
76.5007
 11
-101.886
 21
76.5617
  0
LINE
  8
0
 10
-101.886
 20
76.5617
 11
-101.941
 21
76.6251
  0
LINE
  8
0
 10
-101.941
 20
76.6251
 11
-101.993
 21
76.6908
  0
LINE
  8
0
 10
-101.993
 20
76.6908
 11
-102.042
 21
76.7586
  0
LINE
  8
0
 10
-102.042
 20
76.7586
 11
-102.089
 21
76.8283
  0
LINE
  8
0
 10
-102.089
 20
76.8283
 11
-102.132
 21
76.9
  0
LINE
  8
0
 10
-102.132
 20
76.9
 11
-102.172
 21
76.9734
  0
LINE
  8
0
 10
-102.172
 20
76.9734
 11
-102.21
 21
77.0484
  0
LINE
  8
0
 10
-102.21
 20
77.0484
 11
-102.244
 21
77.125
  0
LINE
  8
0
 10
-102.244
 20
77.125
 11
-102.275
 21
77.2029
  0
LINE
  8
0
 10
-102.275
 20
77.2029
 11
-102.302
 21
77.282
  0
LINE
  8
0
 10
-102.302
 20
77.282
 11
-102.326
 21
77.3622
  0
LINE
  8
0
 10
-102.326
 20
77.3622
 11
-102.347
 21
77.4433
  0
LINE
  8
0
 10
-102.347
 20
77.4433
 11
-102.365
 21
77.5252
  0
LINE
  8
0
 10
-102.365
 20
77.5252
 11
-102.379
 21
77.6078
  0
LINE
  8
0
 10
-102.379
 20
77.6078
 11
-102.389
 21
77.6909
  0
LINE
  8
0
 10
-102.389
 20
77.6909
 11
-102.396
 21
77.7744
  0
LINE
  8
0
 10
-102.396
 20
77.7744
 11
-102.4
 21
77.8581
  0
LINE
  8
0
 10
-102.4
 20
77.8581
 11
-102.4
 21
77.9419
  0
LINE
  8
0
 10
-102.4
 20
77.9419
 11
-102.396
 21
78.0256
  0
LINE
  8
0
 10
-102.396
 20
78.0256
 11
-102.389
 21
78.1091
  0
LINE
  8
0
 10
-102.389
 20
78.1091
 11
-102.379
 21
78.1922
  0
LINE
  8
0
 10
-102.379
 20
78.1922
 11
-102.365
 21
78.2747
  0
LINE
  8
0
 10
-102.365
 20
78.2747
 11
-102.347
 21
78.3567
  0
LINE
  8
0
 10
-102.347
 20
78.3567
 11
-102.326
 21
78.4378
  0
LINE
  8
0
 10
-102.326
 20
78.4378
 11
-102.302
 21
78.518
  0
LINE
  8
0
 10
-102.302
 20
78.518
 11
-102.275
 21
78.5971
  0
LINE
  8
0
 10
-102.275
 20
78.5971
 11
-102.244
 21
78.675
  0
LINE
  8
0
 10
-102.244
 20
78.675
 11
-102.21
 21
78.7516
  0
LINE
  8
0
 10
-102.21
 20
78.7516
 11
-102.172
 21
78.8266
  0
LINE
  8
0
 10
-102.172
 20
78.8266
 11
-102.132
 21
78.9
  0
LINE
  8
0
 10
-102.132
 20
78.9
 11
-102.089
 21
78.9716
  0
LINE
  8
0
 10
-102.089
 20
78.9716
 11
-102.042
 21
79.0414
  0
LINE
  8
0
 10
-102.042
 20
79.0414
 11
-101.993
 21
79.1092
  0
LINE
  8
0
 10
-101.993
 20
79.1092
 11
-101.941
 21
79.1748
  0
LINE
  8
0
 10
-101.941
 20
79.1748
 11
-101.886
 21
79.2383
  0
LINE
  8
0
 10
-101.886
 20
79.2383
 11
-101.829
 21
79.2993
  0
LINE
  8
0
 10
-101.829
 20
79.2993
 11
-101.769
 21
79.3579
  0
LINE
  8
0
 10
-101.769
 20
79.3579
 11
-101.707
 21
79.414
  0
LINE
  8
0
 10
-101.707
 20
79.414
 11
-101.642
 21
79.4674
  0
LINE
  8
0
 10
-101.642
 20
79.4674
 11
-101.576
 21
79.518
  0
LINE
  8
0
 10
-101.576
 20
79.518
 11
-101.507
 21
79.5658
  0
LINE
  8
0
 10
-101.507
 20
79.5658
 11
-101.436
 21
79.6107
  0
LINE
  8
0
 10
-101.436
 20
79.6107
 11
-101.363
 21
79.6526
  0
LINE
  8
0
 10
-101.363
 20
79.6526
 11
-101.289
 21
79.6914
  0
LINE
  8
0
 10
-101.289
 20
79.6914
 11
-101.213
 21
79.7271
  0
LINE
  8
0
 10
-101.213
 20
79.7271
 11
-101.136
 21
79.7596
  0
LINE
  8
0
 10
-101.136
 20
79.7596
 11
-101.058
 21
79.7887
  0
LINE
  8
0
 10
-101.058
 20
79.7887
 11
-100.978
 21
79.8146
  0
LINE
  8
0
 10
-100.978
 20
79.8146
 11
-100.897
 21
79.8372
  0
LINE
  8
0
 10
-100.897
 20
79.8372
 11
-100.816
 21
79.8563
  0
LINE
  8
0
 10
-100.816
 20
79.8563
 11
-100.734
 21
79.872
  0
LINE
  8
0
 10
-100.734
 20
79.872
 11
-100.651
 21
79.8842
  0
LINE
  8
0
 10
-100.651
 20
79.8842
 11
-100.567
 21
79.893
  0
LINE
  8
0
 10
-100.567
 20
79.893
 11
-100.484
 21
79.8982
  0
LINE
  8
0
 10
-100.484
 20
79.8982
 11
-100.4
 21
79.9
  0
LINE
  8
0
 10
-100.4
 20
79.9
 11
-100.316
 21
79.8982
  0
LINE
  8
0
 10
-100.316
 20
79.8982
 11
-100.233
 21
79.893
  0
LINE
  8
0
 10
-100.233
 20
79.893
 11
-100.149
 21
79.8842
  0
LINE
  8
0
 10
-100.149
 20
79.8842
 11
-100.066
 21
79.872
  0
LINE
  8
0
 10
-100.066
 20
79.872
 11
-99.9841
 21
79.8563
  0
LINE
  8
0
 10
-99.9841
 20
79.8563
 11
-99.9026
 21
79.8372
  0
LINE
  8
0
 10
-99.9026
 20
79.8372
 11
-99.8219
 21
79.8146
  0
LINE
  8
0
 10
-99.8219
 20
79.8146
 11
-99.7422
 21
79.7887
  0
LINE
  8
0
 10
-99.7422
 20
79.7887
 11
-99.6637
 21
79.7596
  0
LINE
  8
0
 10
-99.6637
 20
79.7596
 11
-99.5865
 21
79.7271
  0
LINE
  8
0
 10
-99.5865
 20
79.7271
 11
-99.5107
 21
79.6914
  0
LINE
  8
0
 10
-99.5107
 20
79.6914
 11
-99.4365
 21
79.6526
  0
LINE
  8
0
 10
-99.4365
 20
79.6526
 11
-99.3639
 21
79.6107
  0
LINE
  8
0
 10
-99.3639
 20
79.6107
 11
-99.2932
 21
79.5658
  0
LINE
  8
0
 10
-99.2932
 20
79.5658
 11
-99.2244
 21
79.518
  0
LINE
  8
0
 10
-99.2244
 20
79.518
 11
-99.1577
 21
79.4674
  0
LINE
  8
0
 10
-99.1577
 20
79.4674
 11
-99.0931
 21
79.414
  0
LINE
  8
0
 10
-99.0931
 20
79.414
 11
-99.0309
 21
79.3579
  0
LINE
  8
0
 10
-99.0309
 20
79.3579
 11
-98.971
 21
79.2993
  0
LINE
  8
0
 10
-98.971
 20
79.2993
 11
-98.9137
 21
79.2383
  0
LINE
  8
0
 10
-98.9137
 20
79.2383
 11
-98.8589
 21
79.1748
  0
LINE
  8
0
 10
-98.8589
 20
79.1748
 11
-98.8069
 21
79.1092
  0
LINE
  8
0
 10
-98.8069
 20
79.1092
 11
-98.7577
 21
79.0414
  0
LINE
  8
0
 10
-98.7577
 20
79.0414
 11
-98.7113
 21
78.9716
  0
LINE
  8
0
 10
-98.7113
 20
78.9716
 11
-98.6679
 21
78.9
  0
LINE
  8
0
 10
-98.6679
 20
78.9
 11
-98.6276
 21
78.8266
  0
LINE
  8
0
 10
-98.6276
 20
78.8266
 11
-98.5903
 21
78.7516
  0
LINE
  8
0
 10
-98.5903
 20
78.7516
 11
-98.5562
 21
78.675
  0
LINE
  8
0
 10
-98.5562
 20
78.675
 11
-98.5254
 21
78.5971
  0
LINE
  8
0
 10
-98.5254
 20
78.5971
 11
-98.4979
 21
78.518
  0
LINE
  8
0
 10
-98.4979
 20
78.518
 11
-98.4736
 21
78.4378
  0
LINE
  8
0
 10
-98.4736
 20
78.4378
 11
-98.4528
 21
78.3567
  0
LINE
  8
0
 10
-98.4528
 20
78.3567
 11
-98.4354
 21
78.2747
  0
LINE
  8
0
 10
-98.4354
 20
78.2747
 11
-98.4214
 21
78.1922
  0
LINE
  8
0
 10
-98.4214
 20
78.1922
 11
-98.4109
 21
78.1091
  0
LINE
  8
0
 10
-98.4109
 20
78.1091
 11
-98.4039
 21
78.0256
  0
LINE
  8
0
 10
-98.4039
 20
78.0256
 11
-98.4004
 21
77.9419
  0
LINE
  8
0
 10
-98.4004
 20
77.9419
 11
-98.4004
 21
77.8581
  0
LINE
  8
0
 10
-98.4004
 20
77.8581
 11
-98.4039
 21
77.7744
  0
LINE
  8
0
 10
-98.4039
 20
77.7744
 11
-98.4109
 21
77.6909
  0
LINE
  8
0
 10
-98.4109
 20
77.6909
 11
-98.4214
 21
77.6078
  0
LINE
  8
0
 10
-98.4214
 20
77.6078
 11
-98.4354
 21
77.5252
  0
LINE
  8
0
 10
-98.4354
 20
77.5252
 11
-98.4528
 21
77.4433
  0
LINE
  8
0
 10
-98.4528
 20
77.4433
 11
-98.4736
 21
77.3622
  0
LINE
  8
0
 10
-98.4736
 20
77.3622
 11
-98.4979
 21
77.282
  0
LINE
  8
0
 10
-98.4979
 20
77.282
 11
-98.5254
 21
77.2029
  0
LINE
  8
0
 10
-98.5254
 20
77.2029
 11
-98.5562
 21
77.125
  0
LINE
  8
0
 10
-98.5562
 20
77.125
 11
-98.5903
 21
77.0484
  0
LINE
  8
0
 10
-98.5903
 20
77.0484
 11
-98.6276
 21
76.9734
  0
LINE
  8
0
 10
-98.6276
 20
76.9734
 11
-98.6679
 21
76.9
  0
LINE
  8
0
 10
-98.6679
 20
76.9
 11
-98.7113
 21
76.8283
  0
LINE
  8
0
 10
-98.7113
 20
76.8283
 11
-98.7577
 21
76.7586
  0
LINE
  8
0
 10
-98.7577
 20
76.7586
 11
-98.8069
 21
76.6908
  0
LINE
  8
0
 10
-98.8069
 20
76.6908
 11
-98.8589
 21
76.6251
  0
LINE
  8
0
 10
-98.8589
 20
76.6251
 11
-98.9137
 21
76.5617
  0
LINE
  8
0
 10
-98.9137
 20
76.5617
 11
-98.971
 21
76.5007
  0
LINE
  8
0
 10
-98.971
 20
76.5007
 11
-99.0309
 21
76.4421
  0
LINE
  8
0
 10
-99.0309
 20
76.4421
 11
-99.0931
 21
76.386
  0
LINE
  8
0
 10
-99.0931
 20
76.386
 11
-99.1577
 21
76.3326
  0
LINE
  8
0
 10
-99.1577
 20
76.3326
 11
-99.2244
 21
76.282
  0
LINE
  8
0
 10
-99.2244
 20
76.282
 11
-99.2932
 21
76.2341
  0
LINE
  8
0
 10
-99.2932
 20
76.2341
 11
-99.3639
 21
76.1893
  0
LINE
  8
0
 10
-99.3639
 20
76.1893
 11
-99.4365
 21
76.1474
  0
LINE
  8
0
 10
-99.4365
 20
76.1474
 11
-99.5107
 21
76.1086
  0
LINE
  8
0
 10
-99.5107
 20
76.1086
 11
-99.5865
 21
76.0729
  0
LINE
  8
0
 10
-99.5865
 20
76.0729
 11
-99.6637
 21
76.0404
  0
LINE
  8
0
 10
-99.6637
 20
76.0404
 11
-99.7422
 21
76.0112
  0
LINE
  8
0
 10
-99.7422
 20
76.0112
 11
-99.8219
 21
75.9854
  0
LINE
  8
0
 10
-99.8219
 20
75.9854
 11
-99.9026
 21
75.9628
  0
LINE
  8
0
 10
-99.9026
 20
75.9628
 11
-99.9841
 21
75.9437
  0
LINE
  8
0
 10
-99.9841
 20
75.9437
 11
-100.066
 21
75.928
  0
LINE
  8
0
 10
-100.066
 20
75.928
 11
-100.149
 21
75.9158
  0
LINE
  8
0
 10
-100.149
 20
75.9158
 11
-100.233
 21
75.907
  0
LINE
  8
0
 10
-100.233
 20
75.907
 11
-100.316
 21
75.9017
  0
LINE
  8
0
 10
-100.316
 20
75.9017
 11
-100.4
 21
75.9
  0
LINE
  8
0
 10
-100.4
 20
75.9
 11
-100.484
 21
75.9017
  0
LINE
  8
0
 10
-19.6837
 20
75.9017
 11
-19.7673
 21
75.907
  0
LINE
  8
0
 10
-19.7673
 20
75.907
 11
-19.8507
 21
75.9157
  0
LINE
  8
0
 10
-19.8507
 20
75.9157
 11
-19.9335
 21
75.928
  0
LINE
  8
0
 10
-19.9335
 20
75.928
 11
-20.0158
 21
75.9437
  0
LINE
  8
0
 10
-20.0158
 20
75.9437
 11
-20.0974
 21
75.9628
  0
LINE
  8
0
 10
-20.0974
 20
75.9628
 11
-20.1781
 21
75.9853
  0
LINE
  8
0
 10
-20.1781
 20
75.9853
 11
-20.2577
 21
76.0112
  0
LINE
  8
0
 10
-20.2577
 20
76.0112
 11
-20.3362
 21
76.0404
  0
LINE
  8
0
 10
-20.3362
 20
76.0404
 11
-20.4135
 21
76.0729
  0
LINE
  8
0
 10
-20.4135
 20
76.0729
 11
-20.4893
 21
76.1086
  0
LINE
  8
0
 10
-20.4893
 20
76.1086
 11
-20.5635
 21
76.1474
  0
LINE
  8
0
 10
-20.5635
 20
76.1474
 11
-20.636
 21
76.1893
  0
LINE
  8
0
 10
-20.636
 20
76.1893
 11
-20.7068
 21
76.2341
  0
LINE
  8
0
 10
-20.7068
 20
76.2341
 11
-20.7756
 21
76.2819
  0
LINE
  8
0
 10
-20.7756
 20
76.2819
 11
-20.8423
 21
76.3326
  0
LINE
  8
0
 10
-20.8423
 20
76.3326
 11
-20.9068
 21
76.386
  0
LINE
  8
0
 10
-20.9068
 20
76.386
 11
-20.9691
 21
76.442
  0
LINE
  8
0
 10
-20.9691
 20
76.442
 11
-21.0289
 21
76.5007
  0
LINE
  8
0
 10
-21.0289
 20
76.5007
 11
-21.0863
 21
76.5617
  0
LINE
  8
0
 10
-21.0863
 20
76.5617
 11
-21.141
 21
76.6251
  0
LINE
  8
0
 10
-21.141
 20
76.6251
 11
-21.1931
 21
76.6908
  0
LINE
  8
0
 10
-21.1931
 20
76.6908
 11
-21.2423
 21
76.7585
  0
LINE
  8
0
 10
-21.2423
 20
76.7585
 11
-21.2887
 21
76.8283
  0
LINE
  8
0
 10
-21.2887
 20
76.8283
 11
-21.332
 21
76.9
  0
LINE
  8
0
 10
-21.332
 20
76.9
 11
-21.3724
 21
76.9734
  0
LINE
  8
0
 10
-21.3724
 20
76.9734
 11
-21.4097
 21
77.0484
  0
LINE
  8
0
 10
-21.4097
 20
77.0484
 11
-21.4437
 21
77.1249
  0
LINE
  8
0
 10
-21.4437
 20
77.1249
 11
-21.4746
 21
77.2028
  0
LINE
  8
0
 10
-21.4746
 20
77.2028
 11
-21.5021
 21
77.2819
  0
LINE
  8
0
 10
-21.5021
 20
77.2819
 11
-21.5263
 21
77.3621
  0
LINE
  8
0
 10
-21.5263
 20
77.3621
 11
-21.5471
 21
77.4433
  0
LINE
  8
0
 10
-21.5471
 20
77.4433
 11
-21.5646
 21
77.5252
  0
LINE
  8
0
 10
-21.5646
 20
77.5252
 11
-21.5785
 21
77.6078
  0
LINE
  8
0
 10
-21.5785
 20
77.6078
 11
-21.589
 21
77.6909
  0
LINE
  8
0
 10
-21.589
 20
77.6909
 11
-21.596
 21
77.7744
  0
LINE
  8
0
 10
-21.596
 20
77.7744
 11
-21.5995
 21
77.8581
  0
LINE
  8
0
 10
-21.5995
 20
77.8581
 11
-21.5995
 21
77.9419
  0
LINE
  8
0
 10
-21.5995
 20
77.9419
 11
-21.596
 21
78.0256
  0
LINE
  8
0
 10
-21.596
 20
78.0256
 11
-21.589
 21
78.109
  0
LINE
  8
0
 10
-21.589
 20
78.109
 11
-21.5785
 21
78.1921
  0
LINE
  8
0
 10
-21.5785
 20
78.1921
 11
-21.5646
 21
78.2747
  0
LINE
  8
0
 10
-21.5646
 20
78.2747
 11
-21.5471
 21
78.3567
  0
LINE
  8
0
 10
-21.5471
 20
78.3567
 11
-21.5263
 21
78.4378
  0
LINE
  8
0
 10
-21.5263
 20
78.4378
 11
-21.5021
 21
78.518
  0
LINE
  8
0
 10
-21.5021
 20
78.518
 11
-21.4746
 21
78.5971
  0
LINE
  8
0
 10
-21.4746
 20
78.5971
 11
-21.4437
 21
78.675
  0
LINE
  8
0
 10
-21.4437
 20
78.675
 11
-21.4097
 21
78.7515
  0
LINE
  8
0
 10
-21.4097
 20
78.7515
 11
-21.3724
 21
78.8266
  0
LINE
  8
0
 10
-21.3724
 20
78.8266
 11
-21.332
 21
78.9
  0
LINE
  8
0
 10
-21.332
 20
78.9
 11
-21.2887
 21
78.9716
  0
LINE
  8
0
 10
-21.2887
 20
78.9716
 11
-21.2423
 21
79.0414
  0
LINE
  8
0
 10
-21.2423
 20
79.0414
 11
-21.1931
 21
79.1092
  0
LINE
  8
0
 10
-21.1931
 20
79.1092
 11
-21.141
 21
79.1748
  0
LINE
  8
0
 10
-21.141
 20
79.1748
 11
-21.0863
 21
79.2382
  0
LINE
  8
0
 10
-21.0863
 20
79.2382
 11
-21.0289
 21
79.2993
  0
LINE
  8
0
 10
-21.0289
 20
79.2993
 11
-20.9691
 21
79.3579
  0
LINE
  8
0
 10
-20.9691
 20
79.3579
 11
-20.9068
 21
79.414
  0
LINE
  8
0
 10
-20.9068
 20
79.414
 11
-20.8423
 21
79.4674
  0
LINE
  8
0
 10
-20.8423
 20
79.4674
 11
-20.7756
 21
79.518
  0
LINE
  8
0
 10
-20.7756
 20
79.518
 11
-20.7068
 21
79.5658
  0
LINE
  8
0
 10
-20.7068
 20
79.5658
 11
-20.636
 21
79.6107
  0
LINE
  8
0
 10
-20.636
 20
79.6107
 11
-20.5635
 21
79.6526
  0
LINE
  8
0
 10
-20.5635
 20
79.6526
 11
-20.4893
 21
79.6914
  0
LINE
  8
0
 10
-20.4893
 20
79.6914
 11
-20.4135
 21
79.7271
  0
LINE
  8
0
 10
-20.4135
 20
79.7271
 11
-20.3362
 21
79.7595
  0
LINE
  8
0
 10
-20.3362
 20
79.7595
 11
-20.2577
 21
79.7887
  0
LINE
  8
0
 10
-20.2577
 20
79.7887
 11
-20.1781
 21
79.8146
  0
LINE
  8
0
 10
-20.1781
 20
79.8146
 11
-20.0974
 21
79.8371
  0
LINE
  8
0
 10
-20.0974
 20
79.8371
 11
-20.0158
 21
79.8563
  0
LINE
  8
0
 10
-20.0158
 20
79.8563
 11
-19.9335
 21
79.872
  0
LINE
  8
0
 10
-19.9335
 20
79.872
 11
-19.8507
 21
79.8842
  0
LINE
  8
0
 10
-19.8507
 20
79.8842
 11
-19.7673
 21
79.893
  0
LINE
  8
0
 10
-19.7673
 20
79.893
 11
-19.6837
 21
79.8982
  0
LINE
  8
0
 10
-19.6837
 20
79.8982
 11
-19.6
 21
79.9
  0
LINE
  8
0
 10
-19.6
 20
79.9
 11
-19.5162
 21
79.8982
  0
LINE
  8
0
 10
-19.5162
 20
79.8982
 11
-19.4326
 21
79.893
  0
LINE
  8
0
 10
-19.4326
 20
79.893
 11
-19.3493
 21
79.8842
  0
LINE
  8
0
 10
-19.3493
 20
79.8842
 11
-19.2664
 21
79.872
  0
LINE
  8
0
 10
-19.2664
 20
79.872
 11
-19.1842
 21
79.8563
  0
LINE
  8
0
 10
-19.1842
 20
79.8563
 11
-19.1026
 21
79.8371
  0
LINE
  8
0
 10
-19.1026
 20
79.8371
 11
-19.0219
 21
79.8146
  0
LINE
  8
0
 10
-19.0219
 20
79.8146
 11
-18.9423
 21
79.7887
  0
LINE
  8
0
 10
-18.9423
 20
79.7887
 11
-18.8637
 21
79.7595
  0
LINE
  8
0
 10
-18.8637
 20
79.7595
 11
-18.7865
 21
79.7271
  0
LINE
  8
0
 10
-18.7865
 20
79.7271
 11
-18.7107
 21
79.6914
  0
LINE
  8
0
 10
-18.7107
 20
79.6914
 11
-18.6365
 21
79.6526
  0
LINE
  8
0
 10
-18.6365
 20
79.6526
 11
-18.5639
 21
79.6107
  0
LINE
  8
0
 10
-18.5639
 20
79.6107
 11
-18.4932
 21
79.5658
  0
LINE
  8
0
 10
-18.4932
 20
79.5658
 11
-18.4244
 21
79.518
  0
LINE
  8
0
 10
-18.4244
 20
79.518
 11
-18.3577
 21
79.4674
  0
LINE
  8
0
 10
-18.3577
 20
79.4674
 11
-18.2932
 21
79.414
  0
LINE
  8
0
 10
-18.2932
 20
79.414
 11
-18.2309
 21
79.3579
  0
LINE
  8
0
 10
-18.2309
 20
79.3579
 11
-18.1711
 21
79.2993
  0
LINE
  8
0
 10
-18.1711
 20
79.2993
 11
-18.1137
 21
79.2382
  0
LINE
  8
0
 10
-18.1137
 20
79.2382
 11
-18.059
 21
79.1748
  0
LINE
  8
0
 10
-18.059
 20
79.1748
 11
-18.0069
 21
79.1092
  0
LINE
  8
0
 10
-18.0069
 20
79.1092
 11
-17.9577
 21
79.0414
  0
LINE
  8
0
 10
-17.9577
 20
79.0414
 11
-17.9113
 21
78.9716
  0
LINE
  8
0
 10
-17.9113
 20
78.9716
 11
-17.8679
 21
78.9
  0
LINE
  8
0
 10
-17.8679
 20
78.9
 11
-17.8276
 21
78.8266
  0
LINE
  8
0
 10
-17.8276
 20
78.8266
 11
-17.7903
 21
78.7515
  0
LINE
  8
0
 10
-17.7903
 20
78.7515
 11
-17.7563
 21
78.675
  0
LINE
  8
0
 10
-17.7563
 20
78.675
 11
-17.7254
 21
78.5971
  0
LINE
  8
0
 10
-17.7254
 20
78.5971
 11
-17.6979
 21
78.518
  0
LINE
  8
0
 10
-17.6979
 20
78.518
 11
-17.6737
 21
78.4378
  0
LINE
  8
0
 10
-17.6737
 20
78.4378
 11
-17.6528
 21
78.3567
  0
LINE
  8
0
 10
-17.6528
 20
78.3567
 11
-17.6354
 21
78.2747
  0
LINE
  8
0
 10
-17.6354
 20
78.2747
 11
-17.6214
 21
78.1921
  0
LINE
  8
0
 10
-17.6214
 20
78.1921
 11
-17.6109
 21
78.109
  0
LINE
  8
0
 10
-17.6109
 20
78.109
 11
-17.6039
 21
78.0256
  0
LINE
  8
0
 10
-17.6039
 20
78.0256
 11
-17.6004
 21
77.9419
  0
LINE
  8
0
 10
-17.6004
 20
77.9419
 11
-17.6004
 21
77.8581
  0
LINE
  8
0
 10
-17.6004
 20
77.8581
 11
-17.6039
 21
77.7744
  0
LINE
  8
0
 10
-17.6039
 20
77.7744
 11
-17.6109
 21
77.6909
  0
LINE
  8
0
 10
-17.6109
 20
77.6909
 11
-17.6214
 21
77.6078
  0
LINE
  8
0
 10
-17.6214
 20
77.6078
 11
-17.6354
 21
77.5252
  0
LINE
  8
0
 10
-17.6354
 20
77.5252
 11
-17.6528
 21
77.4433
  0
LINE
  8
0
 10
-17.6528
 20
77.4433
 11
-17.6737
 21
77.3621
  0
LINE
  8
0
 10
-17.6737
 20
77.3621
 11
-17.6979
 21
77.2819
  0
LINE
  8
0
 10
-17.6979
 20
77.2819
 11
-17.7254
 21
77.2028
  0
LINE
  8
0
 10
-17.7254
 20
77.2028
 11
-17.7563
 21
77.1249
  0
LINE
  8
0
 10
-17.7563
 20
77.1249
 11
-17.7903
 21
77.0484
  0
LINE
  8
0
 10
-17.7903
 20
77.0484
 11
-17.8276
 21
76.9734
  0
LINE
  8
0
 10
-17.8276
 20
76.9734
 11
-17.8679
 21
76.9
  0
LINE
  8
0
 10
-17.8679
 20
76.9
 11
-17.9113
 21
76.8283
  0
LINE
  8
0
 10
-17.9113
 20
76.8283
 11
-17.9577
 21
76.7585
  0
LINE
  8
0
 10
-17.9577
 20
76.7585
 11
-18.0069
 21
76.6908
  0
LINE
  8
0
 10
-18.0069
 20
76.6908
 11
-18.059
 21
76.6251
  0
LINE
  8
0
 10
-18.059
 20
76.6251
 11
-18.1137
 21
76.5617
  0
LINE
  8
0
 10
-18.1137
 20
76.5617
 11
-18.1711
 21
76.5007
  0
LINE
  8
0
 10
-18.1711
 20
76.5007
 11
-18.2309
 21
76.442
  0
LINE
  8
0
 10
-18.2309
 20
76.442
 11
-18.2932
 21
76.386
  0
LINE
  8
0
 10
-18.2932
 20
76.386
 11
-18.3577
 21
76.3326
  0
LINE
  8
0
 10
-18.3577
 20
76.3326
 11
-18.4244
 21
76.2819
  0
LINE
  8
0
 10
-18.4244
 20
76.2819
 11
-18.4932
 21
76.2341
  0
LINE
  8
0
 10
-18.4932
 20
76.2341
 11
-18.5639
 21
76.1893
  0
LINE
  8
0
 10
-18.5639
 20
76.1893
 11
-18.6365
 21
76.1474
  0
LINE
  8
0
 10
-18.6365
 20
76.1474
 11
-18.7107
 21
76.1086
  0
LINE
  8
0
 10
-18.7107
 20
76.1086
 11
-18.7865
 21
76.0729
  0
LINE
  8
0
 10
-18.7865
 20
76.0729
 11
-18.8637
 21
76.0404
  0
LINE
  8
0
 10
-18.8637
 20
76.0404
 11
-18.9423
 21
76.0112
  0
LINE
  8
0
 10
-18.9423
 20
76.0112
 11
-19.0219
 21
75.9853
  0
LINE
  8
0
 10
-19.0219
 20
75.9853
 11
-19.1026
 21
75.9628
  0
LINE
  8
0
 10
-19.1026
 20
75.9628
 11
-19.1842
 21
75.9437
  0
LINE
  8
0
 10
-19.1842
 20
75.9437
 11
-19.2664
 21
75.928
  0
LINE
  8
0
 10
-19.2664
 20
75.928
 11
-19.3493
 21
75.9157
  0
LINE
  8
0
 10
-19.3493
 20
75.9157
 11
-19.4326
 21
75.907
  0
LINE
  8
0
 10
-19.4326
 20
75.907
 11
-19.5162
 21
75.9017
  0
LINE
  8
0
 10
-19.5162
 20
75.9017
 11
-19.6
 21
75.9
  0
LINE
  8
0
 10
-19.6
 20
75.9
 11
-19.6837
 21
75.9017
  0
LINE
  8
0
 10
-83.73
 20
55
 11
-83.73
 21
75.53
  0
LINE
  8
0
 10
-83.73
 20
75.53
 11
-74
 21
75.53
  0
LINE
  8
0
 10
-74
 20
75.53
 11
-74
 21
55
  0
LINE
  8
0
 10
-74
 20
55
 11
-83.73
 21
55
  0
LINE
  8
0
 10
-32.2198
 20
61.7546
 11
-32.4393
 21
61.7684
  0
LINE
  8
0
 10
-32.4393
 20
61.7684
 11
-32.658
 21
61.7914
  0
LINE
  8
0
 10
-32.658
 20
61.7914
 11
-32.8755
 21
61.8235
  0
LINE
  8
0
 10
-32.8755
 20
61.8235
 11
-33.0915
 21
61.8647
  0
LINE
  8
0
 10
-33.0915
 20
61.8647
 11
-33.3056
 21
61.9149
  0
LINE
  8
0
 10
-33.3056
 20
61.9149
 11
-33.5174
 21
61.974
  0
LINE
  8
0
 10
-33.5174
 20
61.974
 11
-33.7265
 21
62.042
  0
LINE
  8
0
 10
-33.7265
 20
62.042
 11
-33.9326
 21
62.1187
  0
LINE
  8
0
 10
-33.9326
 20
62.1187
 11
-34.1354
 21
62.2039
  0
LINE
  8
0
 10
-34.1354
 20
62.2039
 11
-34.3343
 21
62.2975
  0
LINE
  8
0
 10
-34.3343
 20
62.2975
 11
-34.5292
 21
62.3994
  0
LINE
  8
0
 10
-34.5292
 20
62.3994
 11
-34.7196
 21
62.5093
  0
LINE
  8
0
 10
-34.7196
 20
62.5093
 11
-34.9053
 21
62.6271
  0
LINE
  8
0
 10
-34.9053
 20
62.6271
 11
-35.0859
 21
62.7526
  0
LINE
  8
0
 10
-35.0859
 20
62.7526
 11
-35.261
 21
62.8856
  0
LINE
  8
0
 10
-35.261
 20
62.8856
 11
-35.4305
 21
63.0258
  0
LINE
  8
0
 10
-35.4305
 20
63.0258
 11
-35.5939
 21
63.1729
  0
LINE
  8
0
 10
-35.5939
 20
63.1729
 11
-35.751
 21
63.3268
  0
LINE
  8
0
 10
-35.751
 20
63.3268
 11
-35.9015
 21
63.487
  0
LINE
  8
0
 10
-35.9015
 20
63.487
 11
-36.0452
 21
63.6535
  0
LINE
  8
0
 10
-36.0452
 20
63.6535
 11
-36.1818
 21
63.8258
  0
LINE
  8
0
 10
-36.1818
 20
63.8258
 11
-36.311
 21
64.0038
  0
LINE
  8
0
 10
-36.311
 20
64.0038
 11
-36.4327
 21
64.1869
  0
LINE
  8
0
 10
-36.4327
 20
64.1869
 11
-36.5466
 21
64.375
  0
LINE
  8
0
 10
-36.5466
 20
64.375
 11
-36.6526
 21
64.5677
  0
LINE
  8
0
 10
-36.6526
 20
64.5677
 11
-36.7503
 21
64.7646
  0
LINE
  8
0
 10
-36.7503
 20
64.7646
 11
-36.8398
 21
64.9655
  0
LINE
  8
0
 10
-36.8398
 20
64.9655
 11
-36.9207
 21
65.17
  0
LINE
  8
0
 10
-36.9207
 20
65.17
 11
-36.993
 21
65.3777
  0
LINE
  8
0
 10
-36.993
 20
65.3777
 11
-37.0566
 21
65.5882
  0
LINE
  8
0
 10
-37.0566
 20
65.5882
 11
-37.1113
 21
65.8011
  0
LINE
  8
0
 10
-37.1113
 20
65.8011
 11
-37.157
 21
66.0162
  0
LINE
  8
0
 10
-37.157
 20
66.0162
 11
-37.1937
 21
66.2331
  0
LINE
  8
0
 10
-37.1937
 20
66.2331
 11
-37.2212
 21
66.4512
  0
LINE
  8
0
 10
-37.2212
 20
66.4512
 11
-37.2396
 21
66.6703
  0
LINE
  8
0
 10
-37.2396
 20
66.6703
 11
-37.2488
 21
66.89
  0
LINE
  8
0
 10
-37.2488
 20
66.89
 11
-37.2488
 21
67.1099
  0
LINE
  8
0
 10
-37.2488
 20
67.1099
 11
-37.2396
 21
67.3296
  0
LINE
  8
0
 10
-37.2396
 20
67.3296
 11
-37.2212
 21
67.5488
  0
LINE
  8
0
 10
-37.2212
 20
67.5488
 11
-37.1937
 21
67.7669
  0
LINE
  8
0
 10
-37.1937
 20
67.7669
 11
-37.157
 21
67.9837
  0
LINE
  8
0
 10
-37.157
 20
67.9837
 11
-37.1113
 21
68.1988
  0
LINE
  8
0
 10
-37.1113
 20
68.1988
 11
-37.0566
 21
68.4118
  0
LINE
  8
0
 10
-37.0566
 20
68.4118
 11
-36.993
 21
68.6223
  0
LINE
  8
0
 10
-36.993
 20
68.6223
 11
-36.9207
 21
68.83
  0
LINE
  8
0
 10
-36.9207
 20
68.83
 11
-36.8398
 21
69.0345
  0
LINE
  8
0
 10
-36.8398
 20
69.0345
 11
-36.7503
 21
69.2353
  0
LINE
  8
0
 10
-36.7503
 20
69.2353
 11
-36.6526
 21
69.4323
  0
LINE
  8
0
 10
-36.6526
 20
69.4323
 11
-36.5466
 21
69.625
  0
LINE
  8
0
 10
-36.5466
 20
69.625
 11
-36.4327
 21
69.8131
  0
LINE
  8
0
 10
-36.4327
 20
69.8131
 11
-36.311
 21
69.9962
  0
LINE
  8
0
 10
-36.311
 20
69.9962
 11
-36.1818
 21
70.1741
  0
LINE
  8
0
 10
-36.1818
 20
70.1741
 11
-36.0452
 21
70.3465
  0
LINE
  8
0
 10
-36.0452
 20
70.3465
 11
-35.9015
 21
70.5129
  0
LINE
  8
0
 10
-35.9015
 20
70.5129
 11
-35.751
 21
70.6732
  0
LINE
  8
0
 10
-35.751
 20
70.6732
 11
-35.5939
 21
70.8271
  0
LINE
  8
0
 10
-35.5939
 20
70.8271
 11
-35.4305
 21
70.9742
  0
LINE
  8
0
 10
-35.4305
 20
70.9742
 11
-35.261
 21
71.1144
  0
LINE
  8
0
 10
-35.261
 20
71.1144
 11
-35.0859
 21
71.2473
  0
LINE
  8
0
 10
-35.0859
 20
71.2473
 11
-34.9053
 21
71.3728
  0
LINE
  8
0
 10
-34.9053
 20
71.3728
 11
-34.7196
 21
71.4907
  0
LINE
  8
0
 10
-34.7196
 20
71.4907
 11
-34.5292
 21
71.6006
  0
LINE
  8
0
 10
-34.5292
 20
71.6006
 11
-34.3343
 21
71.7025
  0
LINE
  8
0
 10
-34.3343
 20
71.7025
 11
-34.1354
 21
71.7961
  0
LINE
  8
0
 10
-34.1354
 20
71.7961
 11
-33.9326
 21
71.8813
  0
LINE
  8
0
 10
-33.9326
 20
71.8813
 11
-33.7265
 21
71.958
  0
LINE
  8
0
 10
-33.7265
 20
71.958
 11
-33.5174
 21
72.0259
  0
LINE
  8
0
 10
-33.5174
 20
72.0259
 11
-33.3056
 21
72.0851
  0
LINE
  8
0
 10
-33.3056
 20
72.0851
 11
-33.0915
 21
72.1353
  0
LINE
  8
0
 10
-33.0915
 20
72.1353
 11
-32.8755
 21
72.1765
  0
LINE
  8
0
 10
-32.8755
 20
72.1765
 11
-32.658
 21
72.2086
  0
LINE
  8
0
 10
-32.658
 20
72.2086
 11
-32.4393
 21
72.2316
  0
LINE
  8
0
 10
-32.4393
 20
72.2316
 11
-32.2198
 21
72.2454
  0
LINE
  8
0
 10
-32.2198
 20
72.2454
 11
-32
 21
72.25
  0
LINE
  8
0
 10
-32
 20
72.25
 11
-31.7802
 21
72.2454
  0
LINE
  8
0
 10
-31.7802
 20
72.2454
 11
-31.5607
 21
72.2316
  0
LINE
  8
0
 10
-31.5607
 20
72.2316
 11
-31.342
 21
72.2086
  0
LINE
  8
0
 10
-31.342
 20
72.2086
 11
-31.1245
 21
72.1765
  0
LINE
  8
0
 10
-31.1245
 20
72.1765
 11
-30.9085
 21
72.1353
  0
LINE
  8
0
 10
-30.9085
 20
72.1353
 11
-30.6944
 21
72.0851
  0
LINE
  8
0
 10
-30.6944
 20
72.0851
 11
-30.4826
 21
72.0259
  0
LINE
  8
0
 10
-30.4826
 20
72.0259
 11
-30.2734
 21
71.958
  0
LINE
  8
0
 10
-30.2734
 20
71.958
 11
-30.0673
 21
71.8813
  0
LINE
  8
0
 10
-30.0673
 20
71.8813
 11
-29.8646
 21
71.7961
  0
LINE
  8
0
 10
-29.8646
 20
71.7961
 11
-29.6657
 21
71.7025
  0
LINE
  8
0
 10
-29.6657
 20
71.7025
 11
-29.4708
 21
71.6006
  0
LINE
  8
0
 10
-29.4708
 20
71.6006
 11
-29.2803
 21
71.4907
  0
LINE
  8
0
 10
-29.2803
 20
71.4907
 11
-29.0947
 21
71.3728
  0
LINE
  8
0
 10
-29.0947
 20
71.3728
 11
-28.9141
 21
71.2473
  0
LINE
  8
0
 10
-28.9141
 20
71.2473
 11
-28.739
 21
71.1144
  0
LINE
  8
0
 10
-28.739
 20
71.1144
 11
-28.5695
 21
70.9742
  0
LINE
  8
0
 10
-28.5695
 20
70.9742
 11
-28.4061
 21
70.8271
  0
LINE
  8
0
 10
-28.4061
 20
70.8271
 11
-28.249
 21
70.6732
  0
LINE
  8
0
 10
-28.249
 20
70.6732
 11
-28.0985
 21
70.5129
  0
LINE
  8
0
 10
-28.0985
 20
70.5129
 11
-27.9548
 21
70.3465
  0
LINE
  8
0
 10
-27.9548
 20
70.3465
 11
-27.8182
 21
70.1741
  0
LINE
  8
0
 10
-27.8182
 20
70.1741
 11
-27.689
 21
69.9962
  0
LINE
  8
0
 10
-27.689
 20
69.9962
 11
-27.5673
 21
69.8131
  0
LINE
  8
0
 10
-27.5673
 20
69.8131
 11
-27.4534
 21
69.625
  0
LINE
  8
0
 10
-27.4534
 20
69.625
 11
-27.3474
 21
69.4323
  0
LINE
  8
0
 10
-27.3474
 20
69.4323
 11
-27.2496
 21
69.2353
  0
LINE
  8
0
 10
-27.2496
 20
69.2353
 11
-27.1602
 21
69.0344
  0
LINE
  8
0
 10
-27.1602
 20
69.0344
 11
-27.0793
 21
68.83
  0
LINE
  8
0
 10
-27.0793
 20
68.83
 11
-27.0069
 21
68.6223
  0
LINE
  8
0
 10
-27.0069
 20
68.6223
 11
-26.9434
 21
68.4118
  0
LINE
  8
0
 10
-26.9434
 20
68.4118
 11
-26.8887
 21
68.1988
  0
LINE
  8
0
 10
-26.8887
 20
68.1988
 11
-26.843
 21
67.9837
  0
LINE
  8
0
 10
-26.843
 20
67.9837
 11
-26.8063
 21
67.7669
  0
LINE
  8
0
 10
-26.8063
 20
67.7669
 11
-26.7787
 21
67.5488
  0
LINE
  8
0
 10
-26.7787
 20
67.5488
 11
-26.7603
 21
67.3296
  0
LINE
  8
0
 10
-26.7603
 20
67.3296
 11
-26.7511
 21
67.1099
  0
LINE
  8
0
 10
-26.7511
 20
67.1099
 11
-26.7511
 21
66.89
  0
LINE
  8
0
 10
-26.7511
 20
66.89
 11
-26.7603
 21
66.6703
  0
LINE
  8
0
 10
-26.7603
 20
66.6703
 11
-26.7787
 21
66.4512
  0
LINE
  8
0
 10
-26.7787
 20
66.4512
 11
-26.8063
 21
66.233
  0
LINE
  8
0
 10
-26.8063
 20
66.233
 11
-26.843
 21
66.0162
  0
LINE
  8
0
 10
-26.843
 20
66.0162
 11
-26.8887
 21
65.8011
  0
LINE
  8
0
 10
-26.8887
 20
65.8011
 11
-26.9434
 21
65.5882
  0
LINE
  8
0
 10
-26.9434
 20
65.5882
 11
-27.0069
 21
65.3776
  0
LINE
  8
0
 10
-27.0069
 20
65.3776
 11
-27.0793
 21
65.17
  0
LINE
  8
0
 10
-27.0793
 20
65.17
 11
-27.1602
 21
64.9655
  0
LINE
  8
0
 10
-27.1602
 20
64.9655
 11
-27.2496
 21
64.7646
  0
LINE
  8
0
 10
-27.2496
 20
64.7646
 11
-27.3474
 21
64.5677
  0
LINE
  8
0
 10
-27.3474
 20
64.5677
 11
-27.4534
 21
64.375
  0
LINE
  8
0
 10
-27.4534
 20
64.375
 11
-27.5673
 21
64.1869
  0
LINE
  8
0
 10
-27.5673
 20
64.1869
 11
-27.689
 21
64.0037
  0
LINE
  8
0
 10
-27.689
 20
64.0037
 11
-27.8182
 21
63.8258
  0
LINE
  8
0
 10
-27.8182
 20
63.8258
 11
-27.9548
 21
63.6535
  0
LINE
  8
0
 10
-27.9548
 20
63.6535
 11
-28.0985
 21
63.487
  0
LINE
  8
0
 10
-28.0985
 20
63.487
 11
-28.249
 21
63.3268
  0
LINE
  8
0
 10
-28.249
 20
63.3268
 11
-28.4061
 21
63.1729
  0
LINE
  8
0
 10
-28.4061
 20
63.1729
 11
-28.5695
 21
63.0258
  0
LINE
  8
0
 10
-28.5695
 20
63.0258
 11
-28.739
 21
62.8856
  0
LINE
  8
0
 10
-28.739
 20
62.8856
 11
-28.9141
 21
62.7526
  0
LINE
  8
0
 10
-28.9141
 20
62.7526
 11
-29.0947
 21
62.6271
  0
LINE
  8
0
 10
-29.0947
 20
62.6271
 11
-29.2803
 21
62.5093
  0
LINE
  8
0
 10
-29.2803
 20
62.5093
 11
-29.4708
 21
62.3994
  0
LINE
  8
0
 10
-29.4708
 20
62.3994
 11
-29.6657
 21
62.2975
  0
LINE
  8
0
 10
-29.6657
 20
62.2975
 11
-29.8646
 21
62.2039
  0
LINE
  8
0
 10
-29.8646
 20
62.2039
 11
-30.0673
 21
62.1187
  0
LINE
  8
0
 10
-30.0673
 20
62.1187
 11
-30.2734
 21
62.042
  0
LINE
  8
0
 10
-30.2734
 20
62.042
 11
-30.4826
 21
61.974
  0
LINE
  8
0
 10
-30.4826
 20
61.974
 11
-30.6944
 21
61.9149
  0
LINE
  8
0
 10
-30.6944
 20
61.9149
 11
-30.9085
 21
61.8647
  0
LINE
  8
0
 10
-30.9085
 20
61.8647
 11
-31.1245
 21
61.8235
  0
LINE
  8
0
 10
-31.1245
 20
61.8235
 11
-31.342
 21
61.7914
  0
LINE
  8
0
 10
-31.342
 20
61.7914
 11
-31.5607
 21
61.7684
  0
LINE
  8
0
 10
-31.5607
 20
61.7684
 11
-31.7802
 21
61.7546
  0
LINE
  8
0
 10
-31.7802
 20
61.7546
 11
-32
 21
61.75
  0
LINE
  8
0
 10
-32
 20
61.75
 11
-32.2198
 21
61.7546
  0
LINE
  8
0
 10
-83.63
 20
-8.99998
 11
-83.63
 21
33.53
  0
LINE
  8
0
 10
-83.63
 20
33.53
 11
-66
 21
33.53
  0
LINE
  8
0
 10
-66
 20
33.53
 11
-66
 21
-8.99998
  0
LINE
  8
0
 10
-66
 20
-8.99998
 11
-83.63
 21
-8.99998
  0
LINE
  8
0
 10
-86.5
 20
-71.5
 11
-86.5
 21
-58.5
  0
LINE
  8
0
 10
-86.5
 20
-58.5
 11
-67.5
 21
-58.5
  0
LINE
  8
0
 10
-67.5
 20
-58.5
 11
-67.5
 21
-71.5
  0
LINE
  8
0
 10
-67.5
 20
-71.5
 11
-86.5
 21
-71.5
  0
LINE
  8
0
 10
-100.484
 20
-79.8982
 11
-100.567
 21
-79.893
  0
LINE
  8
0
 10
-100.567
 20
-79.893
 11
-100.651
 21
-79.8842
  0
LINE
  8
0
 10
-100.651
 20
-79.8842
 11
-100.734
 21
-79.872
  0
LINE
  8
0
 10
-100.734
 20
-79.872
 11
-100.816
 21
-79.8563
  0
LINE
  8
0
 10
-100.816
 20
-79.8563
 11
-100.897
 21
-79.8371
  0
LINE
  8
0
 10
-100.897
 20
-79.8371
 11
-100.978
 21
-79.8146
  0
LINE
  8
0
 10
-100.978
 20
-79.8146
 11
-101.058
 21
-79.7887
  0
LINE
  8
0
 10
-101.058
 20
-79.7887
 11
-101.136
 21
-79.7595
  0
LINE
  8
0
 10
-101.136
 20
-79.7595
 11
-101.213
 21
-79.7271
  0
LINE
  8
0
 10
-101.213
 20
-79.7271
 11
-101.289
 21
-79.6914
  0
LINE
  8
0
 10
-101.289
 20
-79.6914
 11
-101.363
 21
-79.6526
  0
LINE
  8
0
 10
-101.363
 20
-79.6526
 11
-101.436
 21
-79.6107
  0
LINE
  8
0
 10
-101.436
 20
-79.6107
 11
-101.507
 21
-79.5658
  0
LINE
  8
0
 10
-101.507
 20
-79.5658
 11
-101.576
 21
-79.518
  0
LINE
  8
0
 10
-101.576
 20
-79.518
 11
-101.642
 21
-79.4674
  0
LINE
  8
0
 10
-101.642
 20
-79.4674
 11
-101.707
 21
-79.414
  0
LINE
  8
0
 10
-101.707
 20
-79.414
 11
-101.769
 21
-79.3579
  0
LINE
  8
0
 10
-101.769
 20
-79.3579
 11
-101.829
 21
-79.2993
  0
LINE
  8
0
 10
-101.829
 20
-79.2993
 11
-101.886
 21
-79.2382
  0
LINE
  8
0
 10
-101.886
 20
-79.2382
 11
-101.941
 21
-79.1748
  0
LINE
  8
0
 10
-101.941
 20
-79.1748
 11
-101.993
 21
-79.1092
  0
LINE
  8
0
 10
-101.993
 20
-79.1092
 11
-102.042
 21
-79.0414
  0
LINE
  8
0
 10
-102.042
 20
-79.0414
 11
-102.089
 21
-78.9716
  0
LINE
  8
0
 10
-102.089
 20
-78.9716
 11
-102.132
 21
-78.9
  0
LINE
  8
0
 10
-102.132
 20
-78.9
 11
-102.172
 21
-78.8266
  0
LINE
  8
0
 10
-102.172
 20
-78.8266
 11
-102.21
 21
-78.7515
  0
LINE
  8
0
 10
-102.21
 20
-78.7515
 11
-102.244
 21
-78.675
  0
LINE
  8
0
 10
-102.244
 20
-78.675
 11
-102.275
 21
-78.5971
  0
LINE
  8
0
 10
-102.275
 20
-78.5971
 11
-102.302
 21
-78.518
  0
LINE
  8
0
 10
-102.302
 20
-78.518
 11
-102.326
 21
-78.4378
  0
LINE
  8
0
 10
-102.326
 20
-78.4378
 11
-102.347
 21
-78.3567
  0
LINE
  8
0
 10
-102.347
 20
-78.3567
 11
-102.365
 21
-78.2747
  0
LINE
  8
0
 10
-102.365
 20
-78.2747
 11
-102.379
 21
-78.1921
  0
LINE
  8
0
 10
-102.379
 20
-78.1921
 11
-102.389
 21
-78.109
  0
LINE
  8
0
 10
-102.389
 20
-78.109
 11
-102.396
 21
-78.0256
  0
LINE
  8
0
 10
-102.396
 20
-78.0256
 11
-102.4
 21
-77.9419
  0
LINE
  8
0
 10
-102.4
 20
-77.9419
 11
-102.4
 21
-77.8581
  0
LINE
  8
0
 10
-102.4
 20
-77.8581
 11
-102.396
 21
-77.7744
  0
LINE
  8
0
 10
-102.396
 20
-77.7744
 11
-102.389
 21
-77.6909
  0
LINE
  8
0
 10
-102.389
 20
-77.6909
 11
-102.379
 21
-77.6078
  0
LINE
  8
0
 10
-102.379
 20
-77.6078
 11
-102.365
 21
-77.5252
  0
LINE
  8
0
 10
-102.365
 20
-77.5252
 11
-102.347
 21
-77.4433
  0
LINE
  8
0
 10
-102.347
 20
-77.4433
 11
-102.326
 21
-77.3621
  0
LINE
  8
0
 10
-102.326
 20
-77.3621
 11
-102.302
 21
-77.2819
  0
LINE
  8
0
 10
-102.302
 20
-77.2819
 11
-102.275
 21
-77.2028
  0
LINE
  8
0
 10
-102.275
 20
-77.2028
 11
-102.244
 21
-77.1249
  0
LINE
  8
0
 10
-102.244
 20
-77.1249
 11
-102.21
 21
-77.0484
  0
LINE
  8
0
 10
-102.21
 20
-77.0484
 11
-102.172
 21
-76.9734
  0
LINE
  8
0
 10
-102.172
 20
-76.9734
 11
-102.132
 21
-76.9
  0
LINE
  8
0
 10
-102.132
 20
-76.9
 11
-102.089
 21
-76.8283
  0
LINE
  8
0
 10
-102.089
 20
-76.8283
 11
-102.042
 21
-76.7585
  0
LINE
  8
0
 10
-102.042
 20
-76.7585
 11
-101.993
 21
-76.6908
  0
LINE
  8
0
 10
-101.993
 20
-76.6908
 11
-101.941
 21
-76.6251
  0
LINE
  8
0
 10
-101.941
 20
-76.6251
 11
-101.886
 21
-76.5617
  0
LINE
  8
0
 10
-101.886
 20
-76.5617
 11
-101.829
 21
-76.5007
  0
LINE
  8
0
 10
-101.829
 20
-76.5007
 11
-101.769
 21
-76.442
  0
LINE
  8
0
 10
-101.769
 20
-76.442
 11
-101.707
 21
-76.386
  0
LINE
  8
0
 10
-101.707
 20
-76.386
 11
-101.642
 21
-76.3326
  0
LINE
  8
0
 10
-101.642
 20
-76.3326
 11
-101.576
 21
-76.2819
  0
LINE
  8
0
 10
-101.576
 20
-76.2819
 11
-101.507
 21
-76.2341
  0
LINE
  8
0
 10
-101.507
 20
-76.2341
 11
-101.436
 21
-76.1893
  0
LINE
  8
0
 10
-101.436
 20
-76.1893
 11
-101.363
 21
-76.1474
  0
LINE
  8
0
 10
-101.363
 20
-76.1474
 11
-101.289
 21
-76.1086
  0
LINE
  8
0
 10
-101.289
 20
-76.1086
 11
-101.213
 21
-76.0729
  0
LINE
  8
0
 10
-101.213
 20
-76.0729
 11
-101.136
 21
-76.0404
  0
LINE
  8
0
 10
-101.136
 20
-76.0404
 11
-101.058
 21
-76.0112
  0
LINE
  8
0
 10
-101.058
 20
-76.0112
 11
-100.978
 21
-75.9853
  0
LINE
  8
0
 10
-100.978
 20
-75.9853
 11
-100.897
 21
-75.9628
  0
LINE
  8
0
 10
-100.897
 20
-75.9628
 11
-100.816
 21
-75.9437
  0
LINE
  8
0
 10
-100.816
 20
-75.9437
 11
-100.734
 21
-75.928
  0
LINE
  8
0
 10
-100.734
 20
-75.928
 11
-100.651
 21
-75.9157
  0
LINE
  8
0
 10
-100.651
 20
-75.9157
 11
-100.567
 21
-75.907
  0
LINE
  8
0
 10
-100.567
 20
-75.907
 11
-100.484
 21
-75.9017
  0
LINE
  8
0
 10
-100.484
 20
-75.9017
 11
-100.4
 21
-75.9
  0
LINE
  8
0
 10
-100.4
 20
-75.9
 11
-100.316
 21
-75.9017
  0
LINE
  8
0
 10
-100.316
 20
-75.9017
 11
-100.233
 21
-75.907
  0
LINE
  8
0
 10
-100.233
 20
-75.907
 11
-100.149
 21
-75.9157
  0
LINE
  8
0
 10
-100.149
 20
-75.9157
 11
-100.066
 21
-75.928
  0
LINE
  8
0
 10
-100.066
 20
-75.928
 11
-99.9842
 21
-75.9437
  0
LINE
  8
0
 10
-99.9842
 20
-75.9437
 11
-99.9026
 21
-75.9628
  0
LINE
  8
0
 10
-99.9026
 20
-75.9628
 11
-99.8219
 21
-75.9853
  0
LINE
  8
0
 10
-99.8219
 20
-75.9853
 11
-99.7423
 21
-76.0112
  0
LINE
  8
0
 10
-99.7423
 20
-76.0112
 11
-99.6637
 21
-76.0404
  0
LINE
  8
0
 10
-99.6637
 20
-76.0404
 11
-99.5865
 21
-76.0729
  0
LINE
  8
0
 10
-99.5865
 20
-76.0729
 11
-99.5107
 21
-76.1086
  0
LINE
  8
0
 10
-99.5107
 20
-76.1086
 11
-99.4365
 21
-76.1474
  0
LINE
  8
0
 10
-99.4365
 20
-76.1474
 11
-99.3639
 21
-76.1893
  0
LINE
  8
0
 10
-99.3639
 20
-76.1893
 11
-99.2932
 21
-76.2341
  0
LINE
  8
0
 10
-99.2932
 20
-76.2341
 11
-99.2244
 21
-76.2819
  0
LINE
  8
0
 10
-99.2244
 20
-76.2819
 11
-99.1577
 21
-76.3326
  0
LINE
  8
0
 10
-99.1577
 20
-76.3326
 11
-99.0932
 21
-76.386
  0
LINE
  8
0
 10
-99.0932
 20
-76.386
 11
-99.0309
 21
-76.442
  0
LINE
  8
0
 10
-99.0309
 20
-76.442
 11
-98.9711
 21
-76.5007
  0
LINE
  8
0
 10
-98.9711
 20
-76.5007
 11
-98.9137
 21
-76.5617
  0
LINE
  8
0
 10
-98.9137
 20
-76.5617
 11
-98.859
 21
-76.6251
  0
LINE
  8
0
 10
-98.859
 20
-76.6251
 11
-98.8069
 21
-76.6908
  0
LINE
  8
0
 10
-98.8069
 20
-76.6908
 11
-98.7577
 21
-76.7585
  0
LINE
  8
0
 10
-98.7577
 20
-76.7585
 11
-98.7113
 21
-76.8283
  0
LINE
  8
0
 10
-98.7113
 20
-76.8283
 11
-98.6679
 21
-76.9
  0
LINE
  8
0
 10
-98.6679
 20
-76.9
 11
-98.6276
 21
-76.9734
  0
LINE
  8
0
 10
-98.6276
 20
-76.9734
 11
-98.5903
 21
-77.0484
  0
LINE
  8
0
 10
-98.5903
 20
-77.0484
 11
-98.5563
 21
-77.1249
  0
LINE
  8
0
 10
-98.5563
 20
-77.1249
 11
-98.5254
 21
-77.2028
  0
LINE
  8
0
 10
-98.5254
 20
-77.2028
 11
-98.4979
 21
-77.2819
  0
LINE
  8
0
 10
-98.4979
 20
-77.2819
 11
-98.4737
 21
-77.3621
  0
LINE
  8
0
 10
-98.4737
 20
-77.3621
 11
-98.4528
 21
-77.4433
  0
LINE
  8
0
 10
-98.4528
 20
-77.4433
 11
-98.4354
 21
-77.5252
  0
LINE
  8
0
 10
-98.4354
 20
-77.5252
 11
-98.4214
 21
-77.6078
  0
LINE
  8
0
 10
-98.4214
 20
-77.6078
 11
-98.4109
 21
-77.6909
  0
LINE
  8
0
 10
-98.4109
 20
-77.6909
 11
-98.4039
 21
-77.7744
  0
LINE
  8
0
 10
-98.4039
 20
-77.7744
 11
-98.4004
 21
-77.8581
  0
LINE
  8
0
 10
-98.4004
 20
-77.8581
 11
-98.4004
 21
-77.9419
  0
LINE
  8
0
 10
-98.4004
 20
-77.9419
 11
-98.4039
 21
-78.0256
  0
LINE
  8
0
 10
-98.4039
 20
-78.0256
 11
-98.4109
 21
-78.109
  0
LINE
  8
0
 10
-98.4109
 20
-78.109
 11
-98.4214
 21
-78.1921
  0
LINE
  8
0
 10
-98.4214
 20
-78.1921
 11
-98.4354
 21
-78.2747
  0
LINE
  8
0
 10
-98.4354
 20
-78.2747
 11
-98.4528
 21
-78.3567
  0
LINE
  8
0
 10
-98.4528
 20
-78.3567
 11
-98.4737
 21
-78.4378
  0
LINE
  8
0
 10
-98.4737
 20
-78.4378
 11
-98.4979
 21
-78.518
  0
LINE
  8
0
 10
-98.4979
 20
-78.518
 11
-98.5254
 21
-78.5971
  0
LINE
  8
0
 10
-98.5254
 20
-78.5971
 11
-98.5563
 21
-78.675
  0
LINE
  8
0
 10
-98.5563
 20
-78.675
 11
-98.5903
 21
-78.7515
  0
LINE
  8
0
 10
-98.5903
 20
-78.7515
 11
-98.6276
 21
-78.8266
  0
LINE
  8
0
 10
-98.6276
 20
-78.8266
 11
-98.6679
 21
-78.9
  0
LINE
  8
0
 10
-98.6679
 20
-78.9
 11
-98.7113
 21
-78.9716
  0
LINE
  8
0
 10
-98.7113
 20
-78.9716
 11
-98.7577
 21
-79.0414
  0
LINE
  8
0
 10
-98.7577
 20
-79.0414
 11
-98.8069
 21
-79.1092
  0
LINE
  8
0
 10
-98.8069
 20
-79.1092
 11
-98.859
 21
-79.1748
  0
LINE
  8
0
 10
-98.859
 20
-79.1748
 11
-98.9137
 21
-79.2382
  0
LINE
  8
0
 10
-98.9137
 20
-79.2382
 11
-98.9711
 21
-79.2993
  0
LINE
  8
0
 10
-98.9711
 20
-79.2993
 11
-99.0309
 21
-79.3579
  0
LINE
  8
0
 10
-99.0309
 20
-79.3579
 11
-99.0932
 21
-79.414
  0
LINE
  8
0
 10
-99.0932
 20
-79.414
 11
-99.1577
 21
-79.4674
  0
LINE
  8
0
 10
-99.1577
 20
-79.4674
 11
-99.2244
 21
-79.518
  0
LINE
  8
0
 10
-99.2244
 20
-79.518
 11
-99.2932
 21
-79.5658
  0
LINE
  8
0
 10
-99.2932
 20
-79.5658
 11
-99.3639
 21
-79.6107
  0
LINE
  8
0
 10
-99.3639
 20
-79.6107
 11
-99.4365
 21
-79.6526
  0
LINE
  8
0
 10
-99.4365
 20
-79.6526
 11
-99.5107
 21
-79.6914
  0
LINE
  8
0
 10
-99.5107
 20
-79.6914
 11
-99.5865
 21
-79.7271
  0
LINE
  8
0
 10
-99.5865
 20
-79.7271
 11
-99.6637
 21
-79.7595
  0
LINE
  8
0
 10
-99.6637
 20
-79.7595
 11
-99.7423
 21
-79.7887
  0
LINE
  8
0
 10
-99.7423
 20
-79.7887
 11
-99.8219
 21
-79.8146
  0
LINE
  8
0
 10
-99.8219
 20
-79.8146
 11
-99.9026
 21
-79.8371
  0
LINE
  8
0
 10
-99.9026
 20
-79.8371
 11
-99.9842
 21
-79.8563
  0
LINE
  8
0
 10
-99.9842
 20
-79.8563
 11
-100.066
 21
-79.872
  0
LINE
  8
0
 10
-100.066
 20
-79.872
 11
-100.149
 21
-79.8842
  0
LINE
  8
0
 10
-100.149
 20
-79.8842
 11
-100.233
 21
-79.893
  0
LINE
  8
0
 10
-100.233
 20
-79.893
 11
-100.316
 21
-79.8982
  0
LINE
  8
0
 10
-100.316
 20
-79.8982
 11
-100.4
 21
-79.9
  0
LINE
  8
0
 10
-100.4
 20
-79.9
 11
-100.484
 21
-79.8982
  0
LINE
  8
0
 10
-19.6838
 20
-79.8982
 11
-19.7674
 21
-79.893
  0
LINE
  8
0
 10
-19.7674
 20
-79.893
 11
-19.8507
 21
-79.8842
  0
LINE
  8
0
 10
-19.8507
 20
-79.8842
 11
-19.9335
 21
-79.872
  0
LINE
  8
0
 10
-19.9335
 20
-79.872
 11
-20.0158
 21
-79.8563
  0
LINE
  8
0
 10
-20.0158
 20
-79.8563
 11
-20.0974
 21
-79.8372
  0
LINE
  8
0
 10
-20.0974
 20
-79.8372
 11
-20.1781
 21
-79.8146
  0
LINE
  8
0
 10
-20.1781
 20
-79.8146
 11
-20.2577
 21
-79.7887
  0
LINE
  8
0
 10
-20.2577
 20
-79.7887
 11
-20.3363
 21
-79.7596
  0
LINE
  8
0
 10
-20.3363
 20
-79.7596
 11
-20.4135
 21
-79.7271
  0
LINE
  8
0
 10
-20.4135
 20
-79.7271
 11
-20.4893
 21
-79.6914
  0
LINE
  8
0
 10
-20.4893
 20
-79.6914
 11
-20.5635
 21
-79.6526
  0
LINE
  8
0
 10
-20.5635
 20
-79.6526
 11
-20.6361
 21
-79.6107
  0
LINE
  8
0
 10
-20.6361
 20
-79.6107
 11
-20.7068
 21
-79.5658
  0
LINE
  8
0
 10
-20.7068
 20
-79.5658
 11
-20.7756
 21
-79.518
  0
LINE
  8
0
 10
-20.7756
 20
-79.518
 11
-20.8423
 21
-79.4674
  0
LINE
  8
0
 10
-20.8423
 20
-79.4674
 11
-20.9068
 21
-79.414
  0
LINE
  8
0
 10
-20.9068
 20
-79.414
 11
-20.9691
 21
-79.3579
  0
LINE
  8
0
 10
-20.9691
 20
-79.3579
 11
-21.0289
 21
-79.2993
  0
LINE
  8
0
 10
-21.0289
 20
-79.2993
 11
-21.0863
 21
-79.2383
  0
LINE
  8
0
 10
-21.0863
 20
-79.2383
 11
-21.141
 21
-79.1748
  0
LINE
  8
0
 10
-21.141
 20
-79.1748
 11
-21.1931
 21
-79.1092
  0
LINE
  8
0
 10
-21.1931
 20
-79.1092
 11
-21.2423
 21
-79.0414
  0
LINE
  8
0
 10
-21.2423
 20
-79.0414
 11
-21.2887
 21
-78.9716
  0
LINE
  8
0
 10
-21.2887
 20
-78.9716
 11
-21.3321
 21
-78.9
  0
LINE
  8
0
 10
-21.3321
 20
-78.9
 11
-21.3724
 21
-78.8266
  0
LINE
  8
0
 10
-21.3724
 20
-78.8266
 11
-21.4097
 21
-78.7516
  0
LINE
  8
0
 10
-21.4097
 20
-78.7516
 11
-21.4437
 21
-78.675
  0
LINE
  8
0
 10
-21.4437
 20
-78.675
 11
-21.4746
 21
-78.5971
  0
LINE
  8
0
 10
-21.4746
 20
-78.5971
 11
-21.5021
 21
-78.518
  0
LINE
  8
0
 10
-21.5021
 20
-78.518
 11
-21.5263
 21
-78.4378
  0
LINE
  8
0
 10
-21.5263
 20
-78.4378
 11
-21.5472
 21
-78.3567
  0
LINE
  8
0
 10
-21.5472
 20
-78.3567
 11
-21.5646
 21
-78.2747
  0
LINE
  8
0
 10
-21.5646
 20
-78.2747
 11
-21.5786
 21
-78.1922
  0
LINE
  8
0
 10
-21.5786
 20
-78.1922
 11
-21.5891
 21
-78.1091
  0
LINE
  8
0
 10
-21.5891
 20
-78.1091
 11
-21.5961
 21
-78.0256
  0
LINE
  8
0
 10
-21.5961
 20
-78.0256
 11
-21.5996
 21
-77.9419
  0
LINE
  8
0
 10
-21.5996
 20
-77.9419
 11
-21.5996
 21
-77.8581
  0
LINE
  8
0
 10
-21.5996
 20
-77.8581
 11
-21.5961
 21
-77.7744
  0
LINE
  8
0
 10
-21.5961
 20
-77.7744
 11
-21.5891
 21
-77.6909
  0
LINE
  8
0
 10
-21.5891
 20
-77.6909
 11
-21.5786
 21
-77.6078
  0
LINE
  8
0
 10
-21.5786
 20
-77.6078
 11
-21.5646
 21
-77.5252
  0
LINE
  8
0
 10
-21.5646
 20
-77.5252
 11
-21.5472
 21
-77.4433
  0
LINE
  8
0
 10
-21.5472
 20
-77.4433
 11
-21.5263
 21
-77.3622
  0
LINE
  8
0
 10
-21.5263
 20
-77.3622
 11
-21.5021
 21
-77.282
  0
LINE
  8
0
 10
-21.5021
 20
-77.282
 11
-21.4746
 21
-77.2029
  0
LINE
  8
0
 10
-21.4746
 20
-77.2029
 11
-21.4437
 21
-77.125
  0
LINE
  8
0
 10
-21.4437
 20
-77.125
 11
-21.4097
 21
-77.0484
  0
LINE
  8
0
 10
-21.4097
 20
-77.0484
 11
-21.3724
 21
-76.9734
  0
LINE
  8
0
 10
-21.3724
 20
-76.9734
 11
-21.3321
 21
-76.9
  0
LINE
  8
0
 10
-21.3321
 20
-76.9
 11
-21.2887
 21
-76.8283
  0
LINE
  8
0
 10
-21.2887
 20
-76.8283
 11
-21.2423
 21
-76.7586
  0
LINE
  8
0
 10
-21.2423
 20
-76.7586
 11
-21.1931
 21
-76.6908
  0
LINE
  8
0
 10
-21.1931
 20
-76.6908
 11
-21.141
 21
-76.6251
  0
LINE
  8
0
 10
-21.141
 20
-76.6251
 11
-21.0863
 21
-76.5617
  0
LINE
  8
0
 10
-21.0863
 20
-76.5617
 11
-21.0289
 21
-76.5007
  0
LINE
  8
0
 10
-21.0289
 20
-76.5007
 11
-20.9691
 21
-76.4421
  0
LINE
  8
0
 10
-20.9691
 20
-76.4421
 11
-20.9068
 21
-76.386
  0
LINE
  8
0
 10
-20.9068
 20
-76.386
 11
-20.8423
 21
-76.3326
  0
LINE
  8
0
 10
-20.8423
 20
-76.3326
 11
-20.7756
 21
-76.282
  0
LINE
  8
0
 10
-20.7756
 20
-76.282
 11
-20.7068
 21
-76.2341
  0
LINE
  8
0
 10
-20.7068
 20
-76.2341
 11
-20.6361
 21
-76.1893
  0
LINE
  8
0
 10
-20.6361
 20
-76.1893
 11
-20.5635
 21
-76.1474
  0
LINE
  8
0
 10
-20.5635
 20
-76.1474
 11
-20.4893
 21
-76.1086
  0
LINE
  8
0
 10
-20.4893
 20
-76.1086
 11
-20.4135
 21
-76.0729
  0
LINE
  8
0
 10
-20.4135
 20
-76.0729
 11
-20.3363
 21
-76.0404
  0
LINE
  8
0
 10
-20.3363
 20
-76.0404
 11
-20.2577
 21
-76.0112
  0
LINE
  8
0
 10
-20.2577
 20
-76.0112
 11
-20.1781
 21
-75.9854
  0
LINE
  8
0
 10
-20.1781
 20
-75.9854
 11
-20.0974
 21
-75.9628
  0
LINE
  8
0
 10
-20.0974
 20
-75.9628
 11
-20.0158
 21
-75.9437
  0
LINE
  8
0
 10
-20.0158
 20
-75.9437
 11
-19.9335
 21
-75.928
  0
LINE
  8
0
 10
-19.9335
 20
-75.928
 11
-19.8507
 21
-75.9158
  0
LINE
  8
0
 10
-19.8507
 20
-75.9158
 11
-19.7674
 21
-75.907
  0
LINE
  8
0
 10
-19.7674
 20
-75.907
 11
-19.6838
 21
-75.9017
  0
LINE
  8
0
 10
-19.6838
 20
-75.9017
 11
-19.6
 21
-75.9
  0
LINE
  8
0
 10
-19.6
 20
-75.9
 11
-19.5163
 21
-75.9017
  0
LINE
  8
0
 10
-19.5163
 20
-75.9017
 11
-19.4326
 21
-75.907
  0
LINE
  8
0
 10
-19.4326
 20
-75.907
 11
-19.3493
 21
-75.9158
  0
LINE
  8
0
 10
-19.3493
 20
-75.9158
 11
-19.2665
 21
-75.928
  0
LINE
  8
0
 10
-19.2665
 20
-75.928
 11
-19.1842
 21
-75.9437
  0
LINE
  8
0
 10
-19.1842
 20
-75.9437
 11
-19.1026
 21
-75.9628
  0
LINE
  8
0
 10
-19.1026
 20
-75.9628
 11
-19.0219
 21
-75.9854
  0
LINE
  8
0
 10
-19.0219
 20
-75.9854
 11
-18.9423
 21
-76.0112
  0
LINE
  8
0
 10
-18.9423
 20
-76.0112
 11
-18.8638
 21
-76.0404
  0
LINE
  8
0
 10
-18.8638
 20
-76.0404
 11
-18.7865
 21
-76.0729
  0
LINE
  8
0
 10
-18.7865
 20
-76.0729
 11
-18.7107
 21
-76.1086
  0
LINE
  8
0
 10
-18.7107
 20
-76.1086
 11
-18.6365
 21
-76.1474
  0
LINE
  8
0
 10
-18.6365
 20
-76.1474
 11
-18.5639
 21
-76.1893
  0
LINE
  8
0
 10
-18.5639
 20
-76.1893
 11
-18.4932
 21
-76.2341
  0
LINE
  8
0
 10
-18.4932
 20
-76.2341
 11
-18.4244
 21
-76.282
  0
LINE
  8
0
 10
-18.4244
 20
-76.282
 11
-18.3577
 21
-76.3326
  0
LINE
  8
0
 10
-18.3577
 20
-76.3326
 11
-18.2932
 21
-76.386
  0
LINE
  8
0
 10
-18.2932
 20
-76.386
 11
-18.2309
 21
-76.4421
  0
LINE
  8
0
 10
-18.2309
 20
-76.4421
 11
-18.1711
 21
-76.5007
  0
LINE
  8
0
 10
-18.1711
 20
-76.5007
 11
-18.1137
 21
-76.5617
  0
LINE
  8
0
 10
-18.1137
 20
-76.5617
 11
-18.059
 21
-76.6251
  0
LINE
  8
0
 10
-18.059
 20
-76.6251
 11
-18.0069
 21
-76.6908
  0
LINE
  8
0
 10
-18.0069
 20
-76.6908
 11
-17.9577
 21
-76.7586
  0
LINE
  8
0
 10
-17.9577
 20
-76.7586
 11
-17.9113
 21
-76.8283
  0
LINE
  8
0
 10
-17.9113
 20
-76.8283
 11
-17.868
 21
-76.9
  0
LINE
  8
0
 10
-17.868
 20
-76.9
 11
-17.8276
 21
-76.9734
  0
LINE
  8
0
 10
-17.8276
 20
-76.9734
 11
-17.7904
 21
-77.0484
  0
LINE
  8
0
 10
-17.7904
 20
-77.0484
 11
-17.7563
 21
-77.125
  0
LINE
  8
0
 10
-17.7563
 20
-77.125
 11
-17.7254
 21
-77.2029
  0
LINE
  8
0
 10
-17.7254
 20
-77.2029
 11
-17.6979
 21
-77.282
  0
LINE
  8
0
 10
-17.6979
 20
-77.282
 11
-17.6737
 21
-77.3622
  0
LINE
  8
0
 10
-17.6737
 20
-77.3622
 11
-17.6528
 21
-77.4433
  0
LINE
  8
0
 10
-17.6528
 20
-77.4433
 11
-17.6354
 21
-77.5252
  0
LINE
  8
0
 10
-17.6354
 20
-77.5252
 11
-17.6215
 21
-77.6078
  0
LINE
  8
0
 10
-17.6215
 20
-77.6078
 11
-17.611
 21
-77.6909
  0
LINE
  8
0
 10
-17.611
 20
-77.6909
 11
-17.604
 21
-77.7744
  0
LINE
  8
0
 10
-17.604
 20
-77.7744
 11
-17.6004
 21
-77.8581
  0
LINE
  8
0
 10
-17.6004
 20
-77.8581
 11
-17.6004
 21
-77.9419
  0
LINE
  8
0
 10
-17.6004
 20
-77.9419
 11
-17.604
 21
-78.0256
  0
LINE
  8
0
 10
-17.604
 20
-78.0256
 11
-17.611
 21
-78.1091
  0
LINE
  8
0
 10
-17.611
 20
-78.1091
 11
-17.6215
 21
-78.1922
  0
LINE
  8
0
 10
-17.6215
 20
-78.1922
 11
-17.6354
 21
-78.2747
  0
LINE
  8
0
 10
-17.6354
 20
-78.2747
 11
-17.6528
 21
-78.3567
  0
LINE
  8
0
 10
-17.6528
 20
-78.3567
 11
-17.6737
 21
-78.4378
  0
LINE
  8
0
 10
-17.6737
 20
-78.4378
 11
-17.6979
 21
-78.518
  0
LINE
  8
0
 10
-17.6979
 20
-78.518
 11
-17.7254
 21
-78.5971
  0
LINE
  8
0
 10
-17.7254
 20
-78.5971
 11
-17.7563
 21
-78.675
  0
LINE
  8
0
 10
-17.7563
 20
-78.675
 11
-17.7904
 21
-78.7516
  0
LINE
  8
0
 10
-17.7904
 20
-78.7516
 11
-17.8276
 21
-78.8266
  0
LINE
  8
0
 10
-17.8276
 20
-78.8266
 11
-17.868
 21
-78.9
  0
LINE
  8
0
 10
-17.868
 20
-78.9
 11
-17.9113
 21
-78.9716
  0
LINE
  8
0
 10
-17.9113
 20
-78.9716
 11
-17.9577
 21
-79.0414
  0
LINE
  8
0
 10
-17.9577
 20
-79.0414
 11
-18.0069
 21
-79.1092
  0
LINE
  8
0
 10
-18.0069
 20
-79.1092
 11
-18.059
 21
-79.1748
  0
LINE
  8
0
 10
-18.059
 20
-79.1748
 11
-18.1137
 21
-79.2383
  0
LINE
  8
0
 10
-18.1137
 20
-79.2383
 11
-18.1711
 21
-79.2993
  0
LINE
  8
0
 10
-18.1711
 20
-79.2993
 11
-18.2309
 21
-79.3579
  0
LINE
  8
0
 10
-18.2309
 20
-79.3579
 11
-18.2932
 21
-79.414
  0
LINE
  8
0
 10
-18.2932
 20
-79.414
 11
-18.3577
 21
-79.4674
  0
LINE
  8
0
 10
-18.3577
 20
-79.4674
 11
-18.4244
 21
-79.518
  0
LINE
  8
0
 10
-18.4244
 20
-79.518
 11
-18.4932
 21
-79.5658
  0
LINE
  8
0
 10
-18.4932
 20
-79.5658
 11
-18.5639
 21
-79.6107
  0
LINE
  8
0
 10
-18.5639
 20
-79.6107
 11
-18.6365
 21
-79.6526
  0
LINE
  8
0
 10
-18.6365
 20
-79.6526
 11
-18.7107
 21
-79.6914
  0
LINE
  8
0
 10
-18.7107
 20
-79.6914
 11
-18.7865
 21
-79.7271
  0
LINE
  8
0
 10
-18.7865
 20
-79.7271
 11
-18.8638
 21
-79.7596
  0
LINE
  8
0
 10
-18.8638
 20
-79.7596
 11
-18.9423
 21
-79.7887
  0
LINE
  8
0
 10
-18.9423
 20
-79.7887
 11
-19.0219
 21
-79.8146
  0
LINE
  8
0
 10
-19.0219
 20
-79.8146
 11
-19.1026
 21
-79.8372
  0
LINE
  8
0
 10
-19.1026
 20
-79.8372
 11
-19.1842
 21
-79.8563
  0
LINE
  8
0
 10
-19.1842
 20
-79.8563
 11
-19.2665
 21
-79.872
  0
LINE
  8
0
 10
-19.2665
 20
-79.872
 11
-19.3493
 21
-79.8842
  0
LINE
  8
0
 10
-19.3493
 20
-79.8842
 11
-19.4326
 21
-79.893
  0
LINE
  8
0
 10
-19.4326
 20
-79.893
 11
-19.5163
 21
-79.8982
  0
LINE
  8
0
 10
-19.5163
 20
-79.8982
 11
-19.6
 21
-79.9
  0
LINE
  8
0
 10
-19.6
 20
-79.9
 11
-19.6838
 21
-79.8982
  0
LINE
  8
0
 10
53.9589
 20
-88.97
 11
66.0411
 21
-88.97
  0
LINE
  8
0
 10
66.0411
 20
-88.97
 11
66.0411
 21
-92.67
  0
LINE
  8
0
 10
66.0411
 20
-92.67
 11
78.4033
 21
-92.67
  0
LINE
  8
0
 10
78.4033
 20
-92.67
 11
78.4033
 21
-88.97
  0
LINE
  8
0
 10
78.4033
 20
-88.97
 11
90.4855
 21
-88.97
  0
LINE
  8
0
 10
90.4855
 20
-88.97
 11
90.4855
 21
-92.67
  0
LINE
  8
0
 10
90.4855
 20
-92.67
 11
102.848
 21
-92.67
  0
LINE
  8
0
 10
102.848
 20
-92.67
 11
102.848
 21
-88.97
  0
LINE
  8
0
 10
102.848
 20
-88.97
 11
111.47
 21
-88.97
  0
LINE
  8
0
 10
111.47
 20
-88.97
 11
111.47
 21
-82.8331
  0
LINE
  8
0
 10
111.47
 20
-82.8331
 11
115.17
 21
-82.8331
  0
LINE
  8
0
 10
115.17
 20
-82.8331
 11
115.17
 21
-72.9563
  0
LINE
  8
0
 10
115.17
 20
-72.9563
 11
111.47
 21
-72.9563
  0
LINE
  8
0
 10
111.47
 20
-72.9563
 11
111.47
 21
-63.3595
  0
LINE
  8
0
 10
111.47
 20
-63.3595
 11
115.17
 21
-63.3595
  0
LINE
  8
0
 10
115.17
 20
-63.3595
 11
115.17
 21
-53.4826
  0
LINE
  8
0
 10
115.17
 20
-53.4826
 11
111.47
 21
-53.4826
  0
LINE
  8
0
 10
111.47
 20
-53.4826
 11
111.47
 21
-43.8858
  0
LINE
  8
0
 10
111.47
 20
-43.8858
 11
115.17
 21
-43.8858
  0
LINE
  8
0
 10
115.17
 20
-43.8858
 11
115.17
 21
-34.0089
  0
LINE
  8
0
 10
115.17
 20
-34.0089
 11
111.47
 21
-34.0089
  0
LINE
  8
0
 10
111.47
 20
-34.0089
 11
111.47
 21
-24.4121
  0
LINE
  8
0
 10
111.47
 20
-24.4121
 11
115.17
 21
-24.4121
  0
LINE
  8
0
 10
115.17
 20
-24.4121
 11
115.17
 21
-14.5353
  0
LINE
  8
0
 10
115.17
 20
-14.5353
 11
111.47
 21
-14.5353
  0
LINE
  8
0
 10
111.47
 20
-14.5353
 11
111.47
 21
-4.93842
  0
LINE
  8
0
 10
111.47
 20
-4.93842
 11
115.17
 21
-4.93842
  0
LINE
  8
0
 10
115.17
 20
-4.93842
 11
115.17
 21
4.9384
  0
LINE
  8
0
 10
115.17
 20
4.9384
 11
111.47
 21
4.9384
  0
LINE
  8
0
 10
111.47
 20
4.9384
 11
111.47
 21
14.5352
  0
LINE
  8
0
 10
111.47
 20
14.5352
 11
115.17
 21
14.5352
  0
LINE
  8
0
 10
115.17
 20
14.5352
 11
115.17
 21
24.4121
  0
LINE
  8
0
 10
115.17
 20
24.4121
 11
111.47
 21
24.4121
  0
LINE
  8
0
 10
111.47
 20
24.4121
 11
111.47
 21
34.0089
  0
LINE
  8
0
 10
111.47
 20
34.0089
 11
115.17
 21
34.0089
  0
LINE
  8
0
 10
115.17
 20
34.0089
 11
115.17
 21
43.8858
  0
LINE
  8
0
 10
115.17
 20
43.8858
 11
111.47
 21
43.8858
  0
LINE
  8
0
 10
111.47
 20
43.8858
 11
111.47
 21
53.4826
  0
LINE
  8
0
 10
111.47
 20
53.4826
 11
115.17
 21
53.4826
  0
LINE
  8
0
 10
115.17
 20
53.4826
 11
115.17
 21
63.3595
  0
LINE
  8
0
 10
115.17
 20
63.3595
 11
111.47
 21
63.3595
  0
LINE
  8
0
 10
111.47
 20
63.3595
 11
111.47
 21
72.9563
  0
LINE
  8
0
 10
111.47
 20
72.9563
 11
115.17
 21
72.9563
  0
LINE
  8
0
 10
115.17
 20
72.9563
 11
115.17
 21
82.8331
  0
LINE
  8
0
 10
115.17
 20
82.8331
 11
111.47
 21
82.8331
  0
LINE
  8
0
 10
111.47
 20
82.8331
 11
111.47
 21
88.97
  0
LINE
  8
0
 10
111.47
 20
88.97
 11
102.848
 21
88.97
  0
LINE
  8
0
 10
102.848
 20
88.97
 11
102.848
 21
92.67
  0
LINE
  8
0
 10
102.848
 20
92.67
 11
90.4855
 21
92.67
  0
LINE
  8
0
 10
90.4855
 20
92.67
 11
90.4855
 21
88.97
  0
LINE
  8
0
 10
90.4855
 20
88.97
 11
78.4033
 21
88.97
  0
LINE
  8
0
 10
78.4033
 20
88.97
 11
78.4033
 21
92.67
  0
LINE
  8
0
 10
78.4033
 20
92.67
 11
66.0411
 21
92.67
  0
LINE
  8
0
 10
66.0411
 20
92.67
 11
66.0411
 21
88.97
  0
LINE
  8
0
 10
66.0411
 20
88.97
 11
53.9589
 21
88.97
  0
LINE
  8
0
 10
53.9589
 20
88.97
 11
53.9589
 21
92.67
  0
LINE
  8
0
 10
53.9589
 20
92.67
 11
41.5967
 21
92.67
  0
LINE
  8
0
 10
41.5967
 20
92.67
 11
41.5967
 21
88.97
  0
LINE
  8
0
 10
41.5967
 20
88.97
 11
29.5145
 21
88.97
  0
LINE
  8
0
 10
29.5145
 20
88.97
 11
29.5145
 21
92.67
  0
LINE
  8
0
 10
29.5145
 20
92.67
 11
17.1522
 21
92.67
  0
LINE
  8
0
 10
17.1522
 20
92.67
 11
17.1522
 21
88.97
  0
LINE
  8
0
 10
17.1522
 20
88.97
 11
8.53001
 21
88.97
  0
LINE
  8
0
 10
8.53001
 20
88.97
 11
8.53001
 21
82.8331
  0
LINE
  8
0
 10
8.53001
 20
82.8331
 11
4.83
 21
82.8331
  0
LINE
  8
0
 10
4.83
 20
82.8331
 11
4.83
 21
72.9563
  0
LINE
  8
0
 10
4.83
 20
72.9563
 11
8.53001
 21
72.9563
  0
LINE
  8
0
 10
8.53001
 20
72.9563
 11
8.53001
 21
63.3595
  0
LINE
  8
0
 10
8.53001
 20
63.3595
 11
4.83
 21
63.3595
  0
LINE
  8
0
 10
4.83
 20
63.3595
 11
4.83
 21
53.4826
  0
LINE
  8
0
 10
4.83
 20
53.4826
 11
8.53001
 21
53.4826
  0
LINE
  8
0
 10
8.53001
 20
53.4826
 11
8.53001
 21
43.8858
  0
LINE
  8
0
 10
8.53001
 20
43.8858
 11
4.83
 21
43.8858
  0
LINE
  8
0
 10
4.83
 20
43.8858
 11
4.83
 21
34.0089
  0
LINE
  8
0
 10
4.83
 20
34.0089
 11
8.53001
 21
34.0089
  0
LINE
  8
0
 10
8.53001
 20
34.0089
 11
8.53001
 21
24.4121
  0
LINE
  8
0
 10
8.53001
 20
24.4121
 11
4.83
 21
24.4121
  0
LINE
  8
0
 10
4.83
 20
24.4121
 11
4.83
 21
14.5353
  0
LINE
  8
0
 10
4.83
 20
14.5353
 11
8.53001
 21
14.5353
  0
LINE
  8
0
 10
8.53001
 20
14.5353
 11
8.53001
 21
4.93842
  0
LINE
  8
0
 10
8.53001
 20
4.93842
 11
4.83
 21
4.93842
  0
LINE
  8
0
 10
4.83
 20
4.93842
 11
4.83
 21
-4.9384
  0
LINE
  8
0
 10
4.83
 20
-4.9384
 11
8.53001
 21
-4.9384
  0
LINE
  8
0
 10
8.53001
 20
-4.9384
 11
8.53001
 21
-14.5352
  0
LINE
  8
0
 10
8.53001
 20
-14.5352
 11
4.83
 21
-14.5352
  0
LINE
  8
0
 10
4.83
 20
-14.5352
 11
4.82999
 21
-24.4121
  0
LINE
  8
0
 10
4.82999
 20
-24.4121
 11
8.53
 21
-24.4121
  0
LINE
  8
0
 10
8.53
 20
-24.4121
 11
8.53
 21
-34.0089
  0
LINE
  8
0
 10
8.53
 20
-34.0089
 11
4.82999
 21
-34.0089
  0
LINE
  8
0
 10
4.82999
 20
-34.0089
 11
4.82999
 21
-43.8858
  0
LINE
  8
0
 10
4.82999
 20
-43.8858
 11
8.53
 21
-43.8858
  0
LINE
  8
0
 10
8.53
 20
-43.8858
 11
8.53
 21
-53.4826
  0
LINE
  8
0
 10
8.53
 20
-53.4826
 11
4.82999
 21
-53.4826
  0
LINE
  8
0
 10
4.82999
 20
-53.4826
 11
4.82999
 21
-63.3595
  0
LINE
  8
0
 10
4.82999
 20
-63.3595
 11
8.53
 21
-63.3595
  0
LINE
  8
0
 10
8.53
 20
-63.3595
 11
8.53
 21
-72.9563
  0
LINE
  8
0
 10
8.53
 20
-72.9563
 11
4.82999
 21
-72.9563
  0
LINE
  8
0
 10
4.82999
 20
-72.9563
 11
4.82999
 21
-82.8331
  0
LINE
  8
0
 10
4.82999
 20
-82.8331
 11
8.53
 21
-82.8331
  0
LINE
  8
0
 10
8.53
 20
-82.8331
 11
8.53
 21
-88.97
  0
LINE
  8
0
 10
8.53
 20
-88.97
 11
17.1522
 21
-88.97
  0
LINE
  8
0
 10
17.1522
 20
-88.97
 11
17.1522
 21
-92.67
  0
LINE
  8
0
 10
17.1522
 20
-92.67
 11
29.5144
 21
-92.67
  0
LINE
  8
0
 10
29.5144
 20
-92.67
 11
29.5144
 21
-88.97
  0
LINE
  8
0
 10
29.5144
 20
-88.97
 11
41.5967
 21
-88.97
  0
LINE
  8
0
 10
41.5967
 20
-88.97
 11
41.5967
 21
-92.67
  0
LINE
  8
0
 10
41.5967
 20
-92.67
 11
53.9589
 21
-92.67
  0
LINE
  8
0
 10
53.9589
 20
-92.67
 11
53.9589
 21
-88.97
  0
LINE
  8
0
 10
19.5163
 20
75.9017
 11
19.4326
 21
75.907
  0
LINE
  8
0
 10
19.4326
 20
75.907
 11
19.3493
 21
75.9158
  0
LINE
  8
0
 10
19.3493
 20
75.9158
 11
19.2665
 21
75.928
  0
LINE
  8
0
 10
19.2665
 20
75.928
 11
19.1842
 21
75.9437
  0
LINE
  8
0
 10
19.1842
 20
75.9437
 11
19.1026
 21
75.9628
  0
LINE
  8
0
 10
19.1026
 20
75.9628
 11
19.0219
 21
75.9854
  0
LINE
  8
0
 10
19.0219
 20
75.9854
 11
18.9423
 21
76.0112
  0
LINE
  8
0
 10
18.9423
 20
76.0112
 11
18.8638
 21
76.0404
  0
LINE
  8
0
 10
18.8638
 20
76.0404
 11
18.7865
 21
76.0729
  0
LINE
  8
0
 10
18.7865
 20
76.0729
 11
18.7107
 21
76.1086
  0
LINE
  8
0
 10
18.7107
 20
76.1086
 11
18.6365
 21
76.1474
  0
LINE
  8
0
 10
18.6365
 20
76.1474
 11
18.5639
 21
76.1893
  0
LINE
  8
0
 10
18.5639
 20
76.1893
 11
18.4932
 21
76.2341
  0
LINE
  8
0
 10
18.4932
 20
76.2341
 11
18.4244
 21
76.282
  0
LINE
  8
0
 10
18.4244
 20
76.282
 11
18.3577
 21
76.3326
  0
LINE
  8
0
 10
18.3577
 20
76.3326
 11
18.2932
 21
76.386
  0
LINE
  8
0
 10
18.2932
 20
76.386
 11
18.2309
 21
76.4421
  0
LINE
  8
0
 10
18.2309
 20
76.4421
 11
18.1711
 21
76.5007
  0
LINE
  8
0
 10
18.1711
 20
76.5007
 11
18.1137
 21
76.5617
  0
LINE
  8
0
 10
18.1137
 20
76.5617
 11
18.059
 21
76.6251
  0
LINE
  8
0
 10
18.059
 20
76.6251
 11
18.0069
 21
76.6908
  0
LINE
  8
0
 10
18.0069
 20
76.6908
 11
17.9577
 21
76.7586
  0
LINE
  8
0
 10
17.9577
 20
76.7586
 11
17.9113
 21
76.8283
  0
LINE
  8
0
 10
17.9113
 20
76.8283
 11
17.868
 21
76.9
  0
LINE
  8
0
 10
17.868
 20
76.9
 11
17.8276
 21
76.9734
  0
LINE
  8
0
 10
17.8276
 20
76.9734
 11
17.7904
 21
77.0484
  0
LINE
  8
0
 10
17.7904
 20
77.0484
 11
17.7563
 21
77.125
  0
LINE
  8
0
 10
17.7563
 20
77.125
 11
17.7254
 21
77.2029
  0
LINE
  8
0
 10
17.7254
 20
77.2029
 11
17.6979
 21
77.282
  0
LINE
  8
0
 10
17.6979
 20
77.282
 11
17.6737
 21
77.3622
  0
LINE
  8
0
 10
17.6737
 20
77.3622
 11
17.6528
 21
77.4433
  0
LINE
  8
0
 10
17.6528
 20
77.4433
 11
17.6354
 21
77.5252
  0
LINE
  8
0
 10
17.6354
 20
77.5252
 11
17.6215
 21
77.6078
  0
LINE
  8
0
 10
17.6215
 20
77.6078
 11
17.611
 21
77.6909
  0
LINE
  8
0
 10
17.611
 20
77.6909
 11
17.604
 21
77.7744
  0
LINE
  8
0
 10
17.604
 20
77.7744
 11
17.6004
 21
77.8581
  0
LINE
  8
0
 10
17.6004
 20
77.8581
 11
17.6004
 21
77.9419
  0
LINE
  8
0
 10
17.6004
 20
77.9419
 11
17.604
 21
78.0256
  0
LINE
  8
0
 10
17.604
 20
78.0256
 11
17.611
 21
78.1091
  0
LINE
  8
0
 10
17.611
 20
78.1091
 11
17.6215
 21
78.1922
  0
LINE
  8
0
 10
17.6215
 20
78.1922
 11
17.6354
 21
78.2747
  0
LINE
  8
0
 10
17.6354
 20
78.2747
 11
17.6528
 21
78.3567
  0
LINE
  8
0
 10
17.6528
 20
78.3567
 11
17.6737
 21
78.4378
  0
LINE
  8
0
 10
17.6737
 20
78.4378
 11
17.6979
 21
78.518
  0
LINE
  8
0
 10
17.6979
 20
78.518
 11
17.7254
 21
78.5971
  0
LINE
  8
0
 10
17.7254
 20
78.5971
 11
17.7563
 21
78.675
  0
LINE
  8
0
 10
17.7563
 20
78.675
 11
17.7904
 21
78.7516
  0
LINE
  8
0
 10
17.7904
 20
78.7516
 11
17.8276
 21
78.8266
  0
LINE
  8
0
 10
17.8276
 20
78.8266
 11
17.868
 21
78.9
  0
LINE
  8
0
 10
17.868
 20
78.9
 11
17.9113
 21
78.9716
  0
LINE
  8
0
 10
17.9113
 20
78.9716
 11
17.9577
 21
79.0414
  0
LINE
  8
0
 10
17.9577
 20
79.0414
 11
18.0069
 21
79.1092
  0
LINE
  8
0
 10
18.0069
 20
79.1092
 11
18.059
 21
79.1748
  0
LINE
  8
0
 10
18.059
 20
79.1748
 11
18.1137
 21
79.2383
  0
LINE
  8
0
 10
18.1137
 20
79.2383
 11
18.1711
 21
79.2993
  0
LINE
  8
0
 10
18.1711
 20
79.2993
 11
18.2309
 21
79.3579
  0
LINE
  8
0
 10
18.2309
 20
79.3579
 11
18.2932
 21
79.414
  0
LINE
  8
0
 10
18.2932
 20
79.414
 11
18.3577
 21
79.4674
  0
LINE
  8
0
 10
18.3577
 20
79.4674
 11
18.4244
 21
79.518
  0
LINE
  8
0
 10
18.4244
 20
79.518
 11
18.4932
 21
79.5658
  0
LINE
  8
0
 10
18.4932
 20
79.5658
 11
18.5639
 21
79.6107
  0
LINE
  8
0
 10
18.5639
 20
79.6107
 11
18.6365
 21
79.6526
  0
LINE
  8
0
 10
18.6365
 20
79.6526
 11
18.7107
 21
79.6914
  0
LINE
  8
0
 10
18.7107
 20
79.6914
 11
18.7865
 21
79.7271
  0
LINE
  8
0
 10
18.7865
 20
79.7271
 11
18.8638
 21
79.7596
  0
LINE
  8
0
 10
18.8638
 20
79.7596
 11
18.9423
 21
79.7887
  0
LINE
  8
0
 10
18.9423
 20
79.7887
 11
19.0219
 21
79.8146
  0
LINE
  8
0
 10
19.0219
 20
79.8146
 11
19.1026
 21
79.8372
  0
LINE
  8
0
 10
19.1026
 20
79.8372
 11
19.1842
 21
79.8563
  0
LINE
  8
0
 10
19.1842
 20
79.8563
 11
19.2665
 21
79.872
  0
LINE
  8
0
 10
19.2665
 20
79.872
 11
19.3493
 21
79.8842
  0
LINE
  8
0
 10
19.3493
 20
79.8842
 11
19.4326
 21
79.893
  0
LINE
  8
0
 10
19.4326
 20
79.893
 11
19.5163
 21
79.8982
  0
LINE
  8
0
 10
19.5163
 20
79.8982
 11
19.6
 21
79.9
  0
LINE
  8
0
 10
19.6
 20
79.9
 11
19.6838
 21
79.8982
  0
LINE
  8
0
 10
19.6838
 20
79.8982
 11
19.7674
 21
79.893
  0
LINE
  8
0
 10
19.7674
 20
79.893
 11
19.8507
 21
79.8842
  0
LINE
  8
0
 10
19.8507
 20
79.8842
 11
19.9335
 21
79.872
  0
LINE
  8
0
 10
19.9335
 20
79.872
 11
20.0158
 21
79.8563
  0
LINE
  8
0
 10
20.0158
 20
79.8563
 11
20.0974
 21
79.8372
  0
LINE
  8
0
 10
20.0974
 20
79.8372
 11
20.1781
 21
79.8146
  0
LINE
  8
0
 10
20.1781
 20
79.8146
 11
20.2577
 21
79.7887
  0
LINE
  8
0
 10
20.2577
 20
79.7887
 11
20.3363
 21
79.7596
  0
LINE
  8
0
 10
20.3363
 20
79.7596
 11
20.4135
 21
79.7271
  0
LINE
  8
0
 10
20.4135
 20
79.7271
 11
20.4893
 21
79.6914
  0
LINE
  8
0
 10
20.4893
 20
79.6914
 11
20.5635
 21
79.6526
  0
LINE
  8
0
 10
20.5635
 20
79.6526
 11
20.6361
 21
79.6107
  0
LINE
  8
0
 10
20.6361
 20
79.6107
 11
20.7068
 21
79.5658
  0
LINE
  8
0
 10
20.7068
 20
79.5658
 11
20.7756
 21
79.518
  0
LINE
  8
0
 10
20.7756
 20
79.518
 11
20.8423
 21
79.4674
  0
LINE
  8
0
 10
20.8423
 20
79.4674
 11
20.9068
 21
79.414
  0
LINE
  8
0
 10
20.9068
 20
79.414
 11
20.9691
 21
79.3579
  0
LINE
  8
0
 10
20.9691
 20
79.3579
 11
21.0289
 21
79.2993
  0
LINE
  8
0
 10
21.0289
 20
79.2993
 11
21.0863
 21
79.2383
  0
LINE
  8
0
 10
21.0863
 20
79.2383
 11
21.141
 21
79.1748
  0
LINE
  8
0
 10
21.141
 20
79.1748
 11
21.1931
 21
79.1092
  0
LINE
  8
0
 10
21.1931
 20
79.1092
 11
21.2423
 21
79.0414
  0
LINE
  8
0
 10
21.2423
 20
79.0414
 11
21.2887
 21
78.9716
  0
LINE
  8
0
 10
21.2887
 20
78.9716
 11
21.3321
 21
78.9
  0
LINE
  8
0
 10
21.3321
 20
78.9
 11
21.3724
 21
78.8266
  0
LINE
  8
0
 10
21.3724
 20
78.8266
 11
21.4097
 21
78.7516
  0
LINE
  8
0
 10
21.4097
 20
78.7516
 11
21.4437
 21
78.675
  0
LINE
  8
0
 10
21.4437
 20
78.675
 11
21.4746
 21
78.5971
  0
LINE
  8
0
 10
21.4746
 20
78.5971
 11
21.5021
 21
78.518
  0
LINE
  8
0
 10
21.5021
 20
78.518
 11
21.5263
 21
78.4378
  0
LINE
  8
0
 10
21.5263
 20
78.4378
 11
21.5472
 21
78.3567
  0
LINE
  8
0
 10
21.5472
 20
78.3567
 11
21.5646
 21
78.2747
  0
LINE
  8
0
 10
21.5646
 20
78.2747
 11
21.5786
 21
78.1922
  0
LINE
  8
0
 10
21.5786
 20
78.1922
 11
21.5891
 21
78.1091
  0
LINE
  8
0
 10
21.5891
 20
78.1091
 11
21.5961
 21
78.0256
  0
LINE
  8
0
 10
21.5961
 20
78.0256
 11
21.5996
 21
77.9419
  0
LINE
  8
0
 10
21.5996
 20
77.9419
 11
21.5996
 21
77.8581
  0
LINE
  8
0
 10
21.5996
 20
77.8581
 11
21.5961
 21
77.7744
  0
LINE
  8
0
 10
21.5961
 20
77.7744
 11
21.5891
 21
77.6909
  0
LINE
  8
0
 10
21.5891
 20
77.6909
 11
21.5786
 21
77.6078
  0
LINE
  8
0
 10
21.5786
 20
77.6078
 11
21.5646
 21
77.5252
  0
LINE
  8
0
 10
21.5646
 20
77.5252
 11
21.5472
 21
77.4433
  0
LINE
  8
0
 10
21.5472
 20
77.4433
 11
21.5263
 21
77.3622
  0
LINE
  8
0
 10
21.5263
 20
77.3622
 11
21.5021
 21
77.282
  0
LINE
  8
0
 10
21.5021
 20
77.282
 11
21.4746
 21
77.2029
  0
LINE
  8
0
 10
21.4746
 20
77.2029
 11
21.4437
 21
77.125
  0
LINE
  8
0
 10
21.4437
 20
77.125
 11
21.4097
 21
77.0484
  0
LINE
  8
0
 10
21.4097
 20
77.0484
 11
21.3724
 21
76.9734
  0
LINE
  8
0
 10
21.3724
 20
76.9734
 11
21.3321
 21
76.9
  0
LINE
  8
0
 10
21.3321
 20
76.9
 11
21.2887
 21
76.8283
  0
LINE
  8
0
 10
21.2887
 20
76.8283
 11
21.2423
 21
76.7586
  0
LINE
  8
0
 10
21.2423
 20
76.7586
 11
21.1931
 21
76.6908
  0
LINE
  8
0
 10
21.1931
 20
76.6908
 11
21.141
 21
76.6251
  0
LINE
  8
0
 10
21.141
 20
76.6251
 11
21.0863
 21
76.5617
  0
LINE
  8
0
 10
21.0863
 20
76.5617
 11
21.0289
 21
76.5007
  0
LINE
  8
0
 10
21.0289
 20
76.5007
 11
20.9691
 21
76.4421
  0
LINE
  8
0
 10
20.9691
 20
76.4421
 11
20.9068
 21
76.386
  0
LINE
  8
0
 10
20.9068
 20
76.386
 11
20.8423
 21
76.3326
  0
LINE
  8
0
 10
20.8423
 20
76.3326
 11
20.7756
 21
76.282
  0
LINE
  8
0
 10
20.7756
 20
76.282
 11
20.7068
 21
76.2341
  0
LINE
  8
0
 10
20.7068
 20
76.2341
 11
20.6361
 21
76.1893
  0
LINE
  8
0
 10
20.6361
 20
76.1893
 11
20.5635
 21
76.1474
  0
LINE
  8
0
 10
20.5635
 20
76.1474
 11
20.4893
 21
76.1086
  0
LINE
  8
0
 10
20.4893
 20
76.1086
 11
20.4135
 21
76.0729
  0
LINE
  8
0
 10
20.4135
 20
76.0729
 11
20.3363
 21
76.0404
  0
LINE
  8
0
 10
20.3363
 20
76.0404
 11
20.2577
 21
76.0112
  0
LINE
  8
0
 10
20.2577
 20
76.0112
 11
20.1781
 21
75.9854
  0
LINE
  8
0
 10
20.1781
 20
75.9854
 11
20.0974
 21
75.9628
  0
LINE
  8
0
 10
20.0974
 20
75.9628
 11
20.0158
 21
75.9437
  0
LINE
  8
0
 10
20.0158
 20
75.9437
 11
19.9335
 21
75.928
  0
LINE
  8
0
 10
19.9335
 20
75.928
 11
19.8507
 21
75.9158
  0
LINE
  8
0
 10
19.8507
 20
75.9158
 11
19.7674
 21
75.907
  0
LINE
  8
0
 10
19.7674
 20
75.907
 11
19.6838
 21
75.9017
  0
LINE
  8
0
 10
19.6838
 20
75.9017
 11
19.6
 21
75.9
  0
LINE
  8
0
 10
19.6
 20
75.9
 11
19.5163
 21
75.9017
  0
LINE
  8
0
 10
100.316
 20
75.9017
 11
100.233
 21
75.907
  0
LINE
  8
0
 10
100.233
 20
75.907
 11
100.149
 21
75.9157
  0
LINE
  8
0
 10
100.149
 20
75.9157
 11
100.066
 21
75.928
  0
LINE
  8
0
 10
100.066
 20
75.928
 11
99.9842
 21
75.9437
  0
LINE
  8
0
 10
99.9842
 20
75.9437
 11
99.9026
 21
75.9628
  0
LINE
  8
0
 10
99.9026
 20
75.9628
 11
99.8219
 21
75.9853
  0
LINE
  8
0
 10
99.8219
 20
75.9853
 11
99.7423
 21
76.0112
  0
LINE
  8
0
 10
99.7423
 20
76.0112
 11
99.6637
 21
76.0404
  0
LINE
  8
0
 10
99.6637
 20
76.0404
 11
99.5865
 21
76.0729
  0
LINE
  8
0
 10
99.5865
 20
76.0729
 11
99.5107
 21
76.1086
  0
LINE
  8
0
 10
99.5107
 20
76.1086
 11
99.4365
 21
76.1474
  0
LINE
  8
0
 10
99.4365
 20
76.1474
 11
99.3639
 21
76.1893
  0
LINE
  8
0
 10
99.3639
 20
76.1893
 11
99.2932
 21
76.2341
  0
LINE
  8
0
 10
99.2932
 20
76.2341
 11
99.2244
 21
76.2819
  0
LINE
  8
0
 10
99.2244
 20
76.2819
 11
99.1577
 21
76.3326
  0
LINE
  8
0
 10
99.1577
 20
76.3326
 11
99.0932
 21
76.386
  0
LINE
  8
0
 10
99.0932
 20
76.386
 11
99.0309
 21
76.442
  0
LINE
  8
0
 10
99.0309
 20
76.442
 11
98.9711
 21
76.5007
  0
LINE
  8
0
 10
98.9711
 20
76.5007
 11
98.9137
 21
76.5617
  0
LINE
  8
0
 10
98.9137
 20
76.5617
 11
98.859
 21
76.6251
  0
LINE
  8
0
 10
98.859
 20
76.6251
 11
98.8069
 21
76.6908
  0
LINE
  8
0
 10
98.8069
 20
76.6908
 11
98.7577
 21
76.7585
  0
LINE
  8
0
 10
98.7577
 20
76.7585
 11
98.7113
 21
76.8283
  0
LINE
  8
0
 10
98.7113
 20
76.8283
 11
98.6679
 21
76.9
  0
LINE
  8
0
 10
98.6679
 20
76.9
 11
98.6276
 21
76.9734
  0
LINE
  8
0
 10
98.6276
 20
76.9734
 11
98.5903
 21
77.0484
  0
LINE
  8
0
 10
98.5903
 20
77.0484
 11
98.5563
 21
77.1249
  0
LINE
  8
0
 10
98.5563
 20
77.1249
 11
98.5254
 21
77.2028
  0
LINE
  8
0
 10
98.5254
 20
77.2028
 11
98.4979
 21
77.2819
  0
LINE
  8
0
 10
98.4979
 20
77.2819
 11
98.4737
 21
77.3621
  0
LINE
  8
0
 10
98.4737
 20
77.3621
 11
98.4528
 21
77.4433
  0
LINE
  8
0
 10
98.4528
 20
77.4433
 11
98.4354
 21
77.5252
  0
LINE
  8
0
 10
98.4354
 20
77.5252
 11
98.4214
 21
77.6078
  0
LINE
  8
0
 10
98.4214
 20
77.6078
 11
98.4109
 21
77.6909
  0
LINE
  8
0
 10
98.4109
 20
77.6909
 11
98.4039
 21
77.7744
  0
LINE
  8
0
 10
98.4039
 20
77.7744
 11
98.4004
 21
77.8581
  0
LINE
  8
0
 10
98.4004
 20
77.8581
 11
98.4004
 21
77.9419
  0
LINE
  8
0
 10
98.4004
 20
77.9419
 11
98.4039
 21
78.0256
  0
LINE
  8
0
 10
98.4039
 20
78.0256
 11
98.4109
 21
78.109
  0
LINE
  8
0
 10
98.4109
 20
78.109
 11
98.4214
 21
78.1921
  0
LINE
  8
0
 10
98.4214
 20
78.1921
 11
98.4354
 21
78.2747
  0
LINE
  8
0
 10
98.4354
 20
78.2747
 11
98.4528
 21
78.3567
  0
LINE
  8
0
 10
98.4528
 20
78.3567
 11
98.4737
 21
78.4378
  0
LINE
  8
0
 10
98.4737
 20
78.4378
 11
98.4979
 21
78.518
  0
LINE
  8
0
 10
98.4979
 20
78.518
 11
98.5254
 21
78.5971
  0
LINE
  8
0
 10
98.5254
 20
78.5971
 11
98.5563
 21
78.675
  0
LINE
  8
0
 10
98.5563
 20
78.675
 11
98.5903
 21
78.7515
  0
LINE
  8
0
 10
98.5903
 20
78.7515
 11
98.6276
 21
78.8266
  0
LINE
  8
0
 10
98.6276
 20
78.8266
 11
98.6679
 21
78.9
  0
LINE
  8
0
 10
98.6679
 20
78.9
 11
98.7113
 21
78.9716
  0
LINE
  8
0
 10
98.7113
 20
78.9716
 11
98.7577
 21
79.0414
  0
LINE
  8
0
 10
98.7577
 20
79.0414
 11
98.8069
 21
79.1092
  0
LINE
  8
0
 10
98.8069
 20
79.1092
 11
98.859
 21
79.1748
  0
LINE
  8
0
 10
98.859
 20
79.1748
 11
98.9137
 21
79.2382
  0
LINE
  8
0
 10
98.9137
 20
79.2382
 11
98.9711
 21
79.2993
  0
LINE
  8
0
 10
98.9711
 20
79.2993
 11
99.0309
 21
79.3579
  0
LINE
  8
0
 10
99.0309
 20
79.3579
 11
99.0932
 21
79.414
  0
LINE
  8
0
 10
99.0932
 20
79.414
 11
99.1577
 21
79.4674
  0
LINE
  8
0
 10
99.1577
 20
79.4674
 11
99.2244
 21
79.518
  0
LINE
  8
0
 10
99.2244
 20
79.518
 11
99.2932
 21
79.5658
  0
LINE
  8
0
 10
99.2932
 20
79.5658
 11
99.3639
 21
79.6107
  0
LINE
  8
0
 10
99.3639
 20
79.6107
 11
99.4365
 21
79.6526
  0
LINE
  8
0
 10
99.4365
 20
79.6526
 11
99.5107
 21
79.6914
  0
LINE
  8
0
 10
99.5107
 20
79.6914
 11
99.5865
 21
79.7271
  0
LINE
  8
0
 10
99.5865
 20
79.7271
 11
99.6637
 21
79.7595
  0
LINE
  8
0
 10
99.6637
 20
79.7595
 11
99.7423
 21
79.7887
  0
LINE
  8
0
 10
99.7423
 20
79.7887
 11
99.8219
 21
79.8146
  0
LINE
  8
0
 10
99.8219
 20
79.8146
 11
99.9026
 21
79.8371
  0
LINE
  8
0
 10
99.9026
 20
79.8371
 11
99.9842
 21
79.8563
  0
LINE
  8
0
 10
99.9842
 20
79.8563
 11
100.066
 21
79.872
  0
LINE
  8
0
 10
100.066
 20
79.872
 11
100.149
 21
79.8842
  0
LINE
  8
0
 10
100.149
 20
79.8842
 11
100.233
 21
79.893
  0
LINE
  8
0
 10
100.233
 20
79.893
 11
100.316
 21
79.8982
  0
LINE
  8
0
 10
100.316
 20
79.8982
 11
100.4
 21
79.9
  0
LINE
  8
0
 10
100.4
 20
79.9
 11
100.484
 21
79.8982
  0
LINE
  8
0
 10
100.484
 20
79.8982
 11
100.567
 21
79.893
  0
LINE
  8
0
 10
100.567
 20
79.893
 11
100.651
 21
79.8842
  0
LINE
  8
0
 10
100.651
 20
79.8842
 11
100.734
 21
79.872
  0
LINE
  8
0
 10
100.734
 20
79.872
 11
100.816
 21
79.8563
  0
LINE
  8
0
 10
100.816
 20
79.8563
 11
100.897
 21
79.8371
  0
LINE
  8
0
 10
100.897
 20
79.8371
 11
100.978
 21
79.8146
  0
LINE
  8
0
 10
100.978
 20
79.8146
 11
101.058
 21
79.7887
  0
LINE
  8
0
 10
101.058
 20
79.7887
 11
101.136
 21
79.7595
  0
LINE
  8
0
 10
101.136
 20
79.7595
 11
101.213
 21
79.7271
  0
LINE
  8
0
 10
101.213
 20
79.7271
 11
101.289
 21
79.6914
  0
LINE
  8
0
 10
101.289
 20
79.6914
 11
101.363
 21
79.6526
  0
LINE
  8
0
 10
101.363
 20
79.6526
 11
101.436
 21
79.6107
  0
LINE
  8
0
 10
101.436
 20
79.6107
 11
101.507
 21
79.5658
  0
LINE
  8
0
 10
101.507
 20
79.5658
 11
101.576
 21
79.518
  0
LINE
  8
0
 10
101.576
 20
79.518
 11
101.642
 21
79.4674
  0
LINE
  8
0
 10
101.642
 20
79.4674
 11
101.707
 21
79.414
  0
LINE
  8
0
 10
101.707
 20
79.414
 11
101.769
 21
79.3579
  0
LINE
  8
0
 10
101.769
 20
79.3579
 11
101.829
 21
79.2993
  0
LINE
  8
0
 10
101.829
 20
79.2993
 11
101.886
 21
79.2382
  0
LINE
  8
0
 10
101.886
 20
79.2382
 11
101.941
 21
79.1748
  0
LINE
  8
0
 10
101.941
 20
79.1748
 11
101.993
 21
79.1092
  0
LINE
  8
0
 10
101.993
 20
79.1092
 11
102.042
 21
79.0414
  0
LINE
  8
0
 10
102.042
 20
79.0414
 11
102.089
 21
78.9716
  0
LINE
  8
0
 10
102.089
 20
78.9716
 11
102.132
 21
78.9
  0
LINE
  8
0
 10
102.132
 20
78.9
 11
102.172
 21
78.8266
  0
LINE
  8
0
 10
102.172
 20
78.8266
 11
102.21
 21
78.7515
  0
LINE
  8
0
 10
102.21
 20
78.7515
 11
102.244
 21
78.675
  0
LINE
  8
0
 10
102.244
 20
78.675
 11
102.275
 21
78.5971
  0
LINE
  8
0
 10
102.275
 20
78.5971
 11
102.302
 21
78.518
  0
LINE
  8
0
 10
102.302
 20
78.518
 11
102.326
 21
78.4378
  0
LINE
  8
0
 10
102.326
 20
78.4378
 11
102.347
 21
78.3567
  0
LINE
  8
0
 10
102.347
 20
78.3567
 11
102.365
 21
78.2747
  0
LINE
  8
0
 10
102.365
 20
78.2747
 11
102.379
 21
78.1921
  0
LINE
  8
0
 10
102.379
 20
78.1921
 11
102.389
 21
78.109
  0
LINE
  8
0
 10
102.389
 20
78.109
 11
102.396
 21
78.0256
  0
LINE
  8
0
 10
102.396
 20
78.0256
 11
102.4
 21
77.9419
  0
LINE
  8
0
 10
102.4
 20
77.9419
 11
102.4
 21
77.8581
  0
LINE
  8
0
 10
102.4
 20
77.8581
 11
102.396
 21
77.7744
  0
LINE
  8
0
 10
102.396
 20
77.7744
 11
102.389
 21
77.6909
  0
LINE
  8
0
 10
102.389
 20
77.6909
 11
102.379
 21
77.6078
  0
LINE
  8
0
 10
102.379
 20
77.6078
 11
102.365
 21
77.5252
  0
LINE
  8
0
 10
102.365
 20
77.5252
 11
102.347
 21
77.4433
  0
LINE
  8
0
 10
102.347
 20
77.4433
 11
102.326
 21
77.3621
  0
LINE
  8
0
 10
102.326
 20
77.3621
 11
102.302
 21
77.2819
  0
LINE
  8
0
 10
102.302
 20
77.2819
 11
102.275
 21
77.2028
  0
LINE
  8
0
 10
102.275
 20
77.2028
 11
102.244
 21
77.1249
  0
LINE
  8
0
 10
102.244
 20
77.1249
 11
102.21
 21
77.0484
  0
LINE
  8
0
 10
102.21
 20
77.0484
 11
102.172
 21
76.9734
  0
LINE
  8
0
 10
102.172
 20
76.9734
 11
102.132
 21
76.9
  0
LINE
  8
0
 10
102.132
 20
76.9
 11
102.089
 21
76.8283
  0
LINE
  8
0
 10
102.089
 20
76.8283
 11
102.042
 21
76.7585
  0
LINE
  8
0
 10
102.042
 20
76.7585
 11
101.993
 21
76.6908
  0
LINE
  8
0
 10
101.993
 20
76.6908
 11
101.941
 21
76.6251
  0
LINE
  8
0
 10
101.941
 20
76.6251
 11
101.886
 21
76.5617
  0
LINE
  8
0
 10
101.886
 20
76.5617
 11
101.829
 21
76.5007
  0
LINE
  8
0
 10
101.829
 20
76.5007
 11
101.769
 21
76.442
  0
LINE
  8
0
 10
101.769
 20
76.442
 11
101.707
 21
76.386
  0
LINE
  8
0
 10
101.707
 20
76.386
 11
101.642
 21
76.3326
  0
LINE
  8
0
 10
101.642
 20
76.3326
 11
101.576
 21
76.2819
  0
LINE
  8
0
 10
101.576
 20
76.2819
 11
101.507
 21
76.2341
  0
LINE
  8
0
 10
101.507
 20
76.2341
 11
101.436
 21
76.1893
  0
LINE
  8
0
 10
101.436
 20
76.1893
 11
101.363
 21
76.1474
  0
LINE
  8
0
 10
101.363
 20
76.1474
 11
101.289
 21
76.1086
  0
LINE
  8
0
 10
101.289
 20
76.1086
 11
101.213
 21
76.0729
  0
LINE
  8
0
 10
101.213
 20
76.0729
 11
101.136
 21
76.0404
  0
LINE
  8
0
 10
101.136
 20
76.0404
 11
101.058
 21
76.0112
  0
LINE
  8
0
 10
101.058
 20
76.0112
 11
100.978
 21
75.9853
  0
LINE
  8
0
 10
100.978
 20
75.9853
 11
100.897
 21
75.9628
  0
LINE
  8
0
 10
100.897
 20
75.9628
 11
100.816
 21
75.9437
  0
LINE
  8
0
 10
100.816
 20
75.9437
 11
100.734
 21
75.928
  0
LINE
  8
0
 10
100.734
 20
75.928
 11
100.651
 21
75.9157
  0
LINE
  8
0
 10
100.651
 20
75.9157
 11
100.567
 21
75.907
  0
LINE
  8
0
 10
100.567
 20
75.907
 11
100.484
 21
75.9017
  0
LINE
  8
0
 10
100.484
 20
75.9017
 11
100.4
 21
75.9
  0
LINE
  8
0
 10
100.4
 20
75.9
 11
100.316
 21
75.9017
  0
LINE
  8
0
 10
84.4975
 20
24.0105
 11
83.9959
 21
24.0421
  0
LINE
  8
0
 10
83.9959
 20
24.0421
 11
83.496
 21
24.0946
  0
LINE
  8
0
 10
83.496
 20
24.0946
 11
82.9988
 21
24.168
  0
LINE
  8
0
 10
82.9988
 20
24.168
 11
82.5051
 21
24.2622
  0
LINE
  8
0
 10
82.5051
 20
24.2622
 11
82.0157
 21
24.377
  0
LINE
  8
0
 10
82.0157
 20
24.377
 11
81.5316
 21
24.5121
  0
LINE
  8
0
 10
81.5316
 20
24.5121
 11
81.0536
 21
24.6675
  0
LINE
  8
0
 10
81.0536
 20
24.6675
 11
80.5825
 21
24.8427
  0
LINE
  8
0
 10
80.5825
 20
24.8427
 11
80.1192
 21
25.0374
  0
LINE
  8
0
 10
80.1192
 20
25.0374
 11
79.6644
 21
25.2514
  0
LINE
  8
0
 10
79.6644
 20
25.2514
 11
79.2189
 21
25.4843
  0
LINE
  8
0
 10
79.2189
 20
25.4843
 11
78.7837
 21
25.7356
  0
LINE
  8
0
 10
78.7837
 20
25.7356
 11
78.3593
 21
26.0049
  0
LINE
  8
0
 10
78.3593
 20
26.0049
 11
77.9466
 21
26.2918
  0
LINE
  8
0
 10
77.9466
 20
26.2918
 11
77.5462
 21
26.5957
  0
LINE
  8
0
 10
77.5462
 20
26.5957
 11
77.159
 21
26.916
  0
LINE
  8
0
 10
77.159
 20
26.916
 11
76.7854
 21
27.2523
  0
LINE
  8
0
 10
76.7854
 20
27.2523
 11
76.4263
 21
27.604
  0
LINE
  8
0
 10
76.4263
 20
27.604
 11
76.0823
 21
27.9704
  0
LINE
  8
0
 10
76.0823
 20
27.9704
 11
75.7538
 21
28.3509
  0
LINE
  8
0
 10
75.7538
 20
28.3509
 11
75.4416
 21
28.7448
  0
LINE
  8
0
 10
75.4416
 20
28.7448
 11
75.1462
 21
29.1514
  0
LINE
  8
0
 10
75.1462
 20
29.1514
 11
74.8681
 21
29.5701
  0
LINE
  8
0
 10
74.8681
 20
29.5701
 11
74.6077
 21
30
  0
LINE
  8
0
 10
74.6077
 20
30
 11
74.3656
 21
30.4404
  0
LINE
  8
0
 10
74.3656
 20
30.4404
 11
74.1421
 21
30.8906
  0
LINE
  8
0
 10
74.1421
 20
30.8906
 11
73.9376
 21
31.3498
  0
LINE
  8
0
 10
73.9376
 20
31.3498
 11
73.7526
 21
31.8171
  0
LINE
  8
0
 10
73.7526
 20
31.8171
 11
73.5873
 21
32.2918
  0
LINE
  8
0
 10
73.5873
 20
32.2918
 11
73.442
 21
32.7729
  0
LINE
  8
0
 10
73.442
 20
32.7729
 11
73.317
 21
33.2598
  0
LINE
  8
0
 10
73.317
 20
33.2598
 11
73.2125
 21
33.7514
  0
LINE
  8
0
 10
73.2125
 20
33.7514
 11
73.1287
 21
34.247
  0
LINE
  8
0
 10
73.1287
 20
34.247
 11
73.0657
 21
34.7457
  0
LINE
  8
0
 10
73.0657
 20
34.7457
 11
73.0237
 21
35.2465
  0
LINE
  8
0
 10
73.0237
 20
35.2465
 11
73.0026
 21
35.7487
  0
LINE
  8
0
 10
73.0026
 20
35.7487
 11
73.0026
 21
36.2513
  0
LINE
  8
0
 10
73.0026
 20
36.2513
 11
73.0237
 21
36.7535
  0
LINE
  8
0
 10
73.0237
 20
36.7535
 11
73.0657
 21
37.2543
  0
LINE
  8
0
 10
73.0657
 20
37.2543
 11
73.1287
 21
37.753
  0
LINE
  8
0
 10
73.1287
 20
37.753
 11
73.2125
 21
38.2486
  0
LINE
  8
0
 10
73.2125
 20
38.2486
 11
73.317
 21
38.7402
  0
LINE
  8
0
 10
73.317
 20
38.7402
 11
73.442
 21
39.227
  0
LINE
  8
0
 10
73.442
 20
39.227
 11
73.5873
 21
39.7082
  0
LINE
  8
0
 10
73.5873
 20
39.7082
 11
73.7526
 21
40.1829
  0
LINE
  8
0
 10
73.7526
 20
40.1829
 11
73.9376
 21
40.6502
  0
LINE
  8
0
 10
73.9376
 20
40.6502
 11
74.1421
 21
41.1093
  0
LINE
  8
0
 10
74.1421
 20
41.1093
 11
74.3656
 21
41.5595
  0
LINE
  8
0
 10
74.3656
 20
41.5595
 11
74.6077
 21
42
  0
LINE
  8
0
 10
74.6077
 20
42
 11
74.8681
 21
42.4299
  0
LINE
  8
0
 10
74.8681
 20
42.4299
 11
75.1462
 21
42.8486
  0
LINE
  8
0
 10
75.1462
 20
42.8486
 11
75.4416
 21
43.2552
  0
LINE
  8
0
 10
75.4416
 20
43.2552
 11
75.7538
 21
43.6491
  0
LINE
  8
0
 10
75.7538
 20
43.6491
 11
76.0823
 21
44.0295
  0
LINE
  8
0
 10
76.0823
 20
44.0295
 11
76.4263
 21
44.3959
  0
LINE
  8
0
 10
76.4263
 20
44.3959
 11
76.7854
 21
44.7476
  0
LINE
  8
0
 10
76.7854
 20
44.7476
 11
77.159
 21
45.0839
  0
LINE
  8
0
 10
77.159
 20
45.0839
 11
77.5462
 21
45.4043
  0
LINE
  8
0
 10
77.5462
 20
45.4043
 11
77.9466
 21
45.7082
  0
LINE
  8
0
 10
77.9466
 20
45.7082
 11
78.3593
 21
45.995
  0
LINE
  8
0
 10
78.3593
 20
45.995
 11
78.7837
 21
46.2643
  0
LINE
  8
0
 10
78.7837
 20
46.2643
 11
79.2189
 21
46.5157
  0
LINE
  8
0
 10
79.2189
 20
46.5157
 11
79.6644
 21
46.7485
  0
LINE
  8
0
 10
79.6644
 20
46.7485
 11
80.1192
 21
46.9625
  0
LINE
  8
0
 10
80.1192
 20
46.9625
 11
80.5825
 21
47.1573
  0
LINE
  8
0
 10
80.5825
 20
47.1573
 11
81.0536
 21
47.3325
  0
LINE
  8
0
 10
81.0536
 20
47.3325
 11
81.5316
 21
47.4878
  0
LINE
  8
0
 10
81.5316
 20
47.4878
 11
82.0157
 21
47.623
  0
LINE
  8
0
 10
82.0157
 20
47.623
 11
82.5051
 21
47.7377
  0
LINE
  8
0
 10
82.5051
 20
47.7377
 11
82.9988
 21
47.8319
  0
LINE
  8
0
 10
82.9988
 20
47.8319
 11
83.496
 21
47.9053
  0
LINE
  8
0
 10
83.496
 20
47.9053
 11
83.9959
 21
47.9579
  0
LINE
  8
0
 10
83.9959
 20
47.9579
 11
84.4975
 21
47.9895
  0
LINE
  8
0
 10
84.4975
 20
47.9895
 11
85
 21
48
  0
LINE
  8
0
 10
85
 20
48
 11
85.5025
 21
47.9895
  0
LINE
  8
0
 10
85.5025
 20
47.9895
 11
86.0041
 21
47.9579
  0
LINE
  8
0
 10
86.0041
 20
47.9579
 11
86.504
 21
47.9053
  0
LINE
  8
0
 10
86.504
 20
47.9053
 11
87.0012
 21
47.8319
  0
LINE
  8
0
 10
87.0012
 20
47.8319
 11
87.4949
 21
47.7377
  0
LINE
  8
0
 10
87.4949
 20
47.7377
 11
87.9843
 21
47.623
  0
LINE
  8
0
 10
87.9843
 20
47.623
 11
88.4684
 21
47.4878
  0
LINE
  8
0
 10
88.4684
 20
47.4878
 11
88.9464
 21
47.3325
  0
LINE
  8
0
 10
88.9464
 20
47.3325
 11
89.4175
 21
47.1573
  0
LINE
  8
0
 10
89.4175
 20
47.1573
 11
89.8808
 21
46.9625
  0
LINE
  8
0
 10
89.8808
 20
46.9625
 11
90.3356
 21
46.7485
  0
LINE
  8
0
 10
90.3356
 20
46.7485
 11
90.781
 21
46.5157
  0
LINE
  8
0
 10
90.781
 20
46.5157
 11
91.2163
 21
46.2643
  0
LINE
  8
0
 10
91.2163
 20
46.2643
 11
91.6407
 21
45.995
  0
LINE
  8
0
 10
91.6407
 20
45.995
 11
92.0534
 21
45.7082
  0
LINE
  8
0
 10
92.0534
 20
45.7082
 11
92.4538
 21
45.4043
  0
LINE
  8
0
 10
92.4538
 20
45.4043
 11
92.841
 21
45.0839
  0
LINE
  8
0
 10
92.841
 20
45.0839
 11
93.2146
 21
44.7476
  0
LINE
  8
0
 10
93.2146
 20
44.7476
 11
93.5737
 21
44.3959
  0
LINE
  8
0
 10
93.5737
 20
44.3959
 11
93.9177
 21
44.0295
  0
LINE
  8
0
 10
93.9177
 20
44.0295
 11
94.2462
 21
43.6491
  0
LINE
  8
0
 10
94.2462
 20
43.6491
 11
94.5583
 21
43.2552
  0
LINE
  8
0
 10
94.5583
 20
43.2552
 11
94.8538
 21
42.8485
  0
LINE
  8
0
 10
94.8538
 20
42.8485
 11
95.1319
 21
42.4299
  0
LINE
  8
0
 10
95.1319
 20
42.4299
 11
95.3923
 21
42
  0
LINE
  8
0
 10
95.3923
 20
42
 11
95.6344
 21
41.5595
  0
LINE
  8
0
 10
95.6344
 20
41.5595
 11
95.8579
 21
41.1093
  0
LINE
  8
0
 10
95.8579
 20
41.1093
 11
96.0623
 21
40.6502
  0
LINE
  8
0
 10
96.0623
 20
40.6502
 11
96.2474
 21
40.1828
  0
LINE
  8
0
 10
96.2474
 20
40.1828
 11
96.4127
 21
39.7082
  0
LINE
  8
0
 10
96.4127
 20
39.7082
 11
96.5579
 21
39.227
  0
LINE
  8
0
 10
96.5579
 20
39.227
 11
96.6829
 21
38.7402
  0
LINE
  8
0
 10
96.6829
 20
38.7402
 11
96.7874
 21
38.2486
  0
LINE
  8
0
 10
96.7874
 20
38.2486
 11
96.8713
 21
37.753
  0
LINE
  8
0
 10
96.8713
 20
37.753
 11
96.9342
 21
37.2543
  0
LINE
  8
0
 10
96.9342
 20
37.2543
 11
96.9763
 21
36.7535
  0
LINE
  8
0
 10
96.9763
 20
36.7535
 11
96.9974
 21
36.2513
  0
LINE
  8
0
 10
96.9974
 20
36.2513
 11
96.9974
 21
35.7487
  0
LINE
  8
0
 10
96.9974
 20
35.7487
 11
96.9763
 21
35.2465
  0
LINE
  8
0
 10
96.9763
 20
35.2465
 11
96.9342
 21
34.7456
  0
LINE
  8
0
 10
96.9342
 20
34.7456
 11
96.8713
 21
34.247
  0
LINE
  8
0
 10
96.8713
 20
34.247
 11
96.7874
 21
33.7514
  0
LINE
  8
0
 10
96.7874
 20
33.7514
 11
96.6829
 21
33.2598
  0
LINE
  8
0
 10
96.6829
 20
33.2598
 11
96.5579
 21
32.7729
  0
LINE
  8
0
 10
96.5579
 20
32.7729
 11
96.4127
 21
32.2918
  0
LINE
  8
0
 10
96.4127
 20
32.2918
 11
96.2474
 21
31.8171
  0
LINE
  8
0
 10
96.2474
 20
31.8171
 11
96.0623
 21
31.3498
  0
LINE
  8
0
 10
96.0623
 20
31.3498
 11
95.8579
 21
30.8906
  0
LINE
  8
0
 10
95.8579
 20
30.8906
 11
95.6344
 21
30.4404
  0
LINE
  8
0
 10
95.6344
 20
30.4404
 11
95.3923
 21
30
  0
LINE
  8
0
 10
95.3923
 20
30
 11
95.1319
 21
29.5701
  0
LINE
  8
0
 10
95.1319
 20
29.5701
 11
94.8538
 21
29.1514
  0
LINE
  8
0
 10
94.8538
 20
29.1514
 11
94.5583
 21
28.7448
  0
LINE
  8
0
 10
94.5583
 20
28.7448
 11
94.2462
 21
28.3509
  0
LINE
  8
0
 10
94.2462
 20
28.3509
 11
93.9177
 21
27.9704
  0
LINE
  8
0
 10
93.9177
 20
27.9704
 11
93.5737
 21
27.604
  0
LINE
  8
0
 10
93.5737
 20
27.604
 11
93.2146
 21
27.2523
  0
LINE
  8
0
 10
93.2146
 20
27.2523
 11
92.841
 21
26.916
  0
LINE
  8
0
 10
92.841
 20
26.916
 11
92.4538
 21
26.5957
  0
LINE
  8
0
 10
92.4538
 20
26.5957
 11
92.0534
 21
26.2918
  0
LINE
  8
0
 10
92.0534
 20
26.2918
 11
91.6407
 21
26.0049
  0
LINE
  8
0
 10
91.6407
 20
26.0049
 11
91.2163
 21
25.7356
  0
LINE
  8
0
 10
91.2163
 20
25.7356
 11
90.781
 21
25.4843
  0
LINE
  8
0
 10
90.781
 20
25.4843
 11
90.3356
 21
25.2514
  0
LINE
  8
0
 10
90.3356
 20
25.2514
 11
89.8808
 21
25.0374
  0
LINE
  8
0
 10
89.8808
 20
25.0374
 11
89.4175
 21
24.8427
  0
LINE
  8
0
 10
89.4175
 20
24.8427
 11
88.9464
 21
24.6675
  0
LINE
  8
0
 10
88.9464
 20
24.6675
 11
88.4684
 21
24.5121
  0
LINE
  8
0
 10
88.4684
 20
24.5121
 11
87.9843
 21
24.377
  0
LINE
  8
0
 10
87.9843
 20
24.377
 11
87.4949
 21
24.2622
  0
LINE
  8
0
 10
87.4949
 20
24.2622
 11
87.0012
 21
24.168
  0
LINE
  8
0
 10
87.0012
 20
24.168
 11
86.504
 21
24.0946
  0
LINE
  8
0
 10
86.504
 20
24.0946
 11
86.0041
 21
24.0421
  0
LINE
  8
0
 10
86.0041
 20
24.0421
 11
85.5025
 21
24.0105
  0
LINE
  8
0
 10
85.5025
 20
24.0105
 11
85
 21
24
  0
LINE
  8
0
 10
85
 20
24
 11
84.4975
 21
24.0105
  0
LINE
  8
0
 10
56.933
 20
16.9014
 11
56.8661
 21
16.9056
  0
LINE
  8
0
 10
56.8661
 20
16.9056
 11
56.7995
 21
16.9126
  0
LINE
  8
0
 10
56.7995
 20
16.9126
 11
56.7332
 21
16.9224
  0
LINE
  8
0
 10
56.7332
 20
16.9224
 11
56.6673
 21
16.935
  0
LINE
  8
0
 10
56.6673
 20
16.935
 11
56.6021
 21
16.9503
  0
LINE
  8
0
 10
56.6021
 20
16.9503
 11
56.5375
 21
16.9683
  0
LINE
  8
0
 10
56.5375
 20
16.9683
 11
56.4738
 21
16.989
  0
LINE
  8
0
 10
56.4738
 20
16.989
 11
56.411
 21
17.0123
  0
LINE
  8
0
 10
56.411
 20
17.0123
 11
56.3492
 21
17.0383
  0
LINE
  8
0
 10
56.3492
 20
17.0383
 11
56.2886
 21
17.0668
  0
LINE
  8
0
 10
56.2886
 20
17.0668
 11
56.2292
 21
17.0979
  0
LINE
  8
0
 10
56.2292
 20
17.0979
 11
56.1711
 21
17.1314
  0
LINE
  8
0
 10
56.1711
 20
17.1314
 11
56.1146
 21
17.1673
  0
LINE
  8
0
 10
56.1146
 20
17.1673
 11
56.0595
 21
17.2056
  0
LINE
  8
0
 10
56.0595
 20
17.2056
 11
56.0061
 21
17.2461
  0
LINE
  8
0
 10
56.0061
 20
17.2461
 11
55.9545
 21
17.2888
  0
LINE
  8
0
 10
55.9545
 20
17.2888
 11
55.9047
 21
17.3336
  0
LINE
  8
0
 10
55.9047
 20
17.3336
 11
55.8568
 21
17.3805
  0
LINE
  8
0
 10
55.8568
 20
17.3805
 11
55.811
 21
17.4294
  0
LINE
  8
0
 10
55.811
 20
17.4294
 11
55.7672
 21
17.4801
  0
LINE
  8
0
 10
55.7672
 20
17.4801
 11
55.7255
 21
17.5326
  0
LINE
  8
0
 10
55.7255
 20
17.5326
 11
55.6862
 21
17.5869
  0
LINE
  8
0
 10
55.6862
 20
17.5869
 11
55.6491
 21
17.6427
  0
LINE
  8
0
 10
55.6491
 20
17.6427
 11
55.6143
 21
17.7
  0
LINE
  8
0
 10
55.6143
 20
17.7
 11
55.5821
 21
17.7587
  0
LINE
  8
0
 10
55.5821
 20
17.7587
 11
55.5523
 21
17.8187
  0
LINE
  8
0
 10
55.5523
 20
17.8187
 11
55.525
 21
17.88
  0
LINE
  8
0
 10
55.525
 20
17.88
 11
55.5003
 21
17.9423
  0
LINE
  8
0
 10
55.5003
 20
17.9423
 11
55.4783
 21
18.0056
  0
LINE
  8
0
 10
55.4783
 20
18.0056
 11
55.4589
 21
18.0697
  0
LINE
  8
0
 10
55.4589
 20
18.0697
 11
55.4423
 21
18.1346
  0
LINE
  8
0
 10
55.4423
 20
18.1346
 11
55.4283
 21
18.2002
  0
LINE
  8
0
 10
55.4283
 20
18.2002
 11
55.4172
 21
18.2663
  0
LINE
  8
0
 10
55.4172
 20
18.2663
 11
55.4088
 21
18.3327
  0
LINE
  8
0
 10
55.4088
 20
18.3327
 11
55.4032
 21
18.3995
  0
LINE
  8
0
 10
55.4032
 20
18.3995
 11
55.4003
 21
18.4665
  0
LINE
  8
0
 10
55.4003
 20
18.4665
 11
55.4003
 21
18.5335
  0
LINE
  8
0
 10
55.4003
 20
18.5335
 11
55.4032
 21
18.6005
  0
LINE
  8
0
 10
55.4032
 20
18.6005
 11
55.4088
 21
18.6672
  0
LINE
  8
0
 10
55.4088
 20
18.6672
 11
55.4172
 21
18.7337
  0
LINE
  8
0
 10
55.4172
 20
18.7337
 11
55.4283
 21
18.7998
  0
LINE
  8
0
 10
55.4283
 20
18.7998
 11
55.4423
 21
18.8654
  0
LINE
  8
0
 10
55.4423
 20
18.8654
 11
55.4589
 21
18.9303
  0
LINE
  8
0
 10
55.4589
 20
18.9303
 11
55.4783
 21
18.9944
  0
LINE
  8
0
 10
55.4783
 20
18.9944
 11
55.5003
 21
19.0577
  0
LINE
  8
0
 10
55.5003
 20
19.0577
 11
55.525
 21
19.12
  0
LINE
  8
0
 10
55.525
 20
19.12
 11
55.5523
 21
19.1812
  0
LINE
  8
0
 10
55.5523
 20
19.1812
 11
55.5821
 21
19.2413
  0
LINE
  8
0
 10
55.5821
 20
19.2413
 11
55.6143
 21
19.3
  0
LINE
  8
0
 10
55.6143
 20
19.3
 11
55.6491
 21
19.3573
  0
LINE
  8
0
 10
55.6491
 20
19.3573
 11
55.6862
 21
19.4131
  0
LINE
  8
0
 10
55.6862
 20
19.4131
 11
55.7255
 21
19.4673
  0
LINE
  8
0
 10
55.7255
 20
19.4673
 11
55.7672
 21
19.5199
  0
LINE
  8
0
 10
55.7672
 20
19.5199
 11
55.811
 21
19.5706
  0
LINE
  8
0
 10
55.811
 20
19.5706
 11
55.8568
 21
19.6195
  0
LINE
  8
0
 10
55.8568
 20
19.6195
 11
55.9047
 21
19.6663
  0
LINE
  8
0
 10
55.9047
 20
19.6663
 11
55.9545
 21
19.7112
  0
LINE
  8
0
 10
55.9545
 20
19.7112
 11
56.0061
 21
19.7539
  0
LINE
  8
0
 10
56.0061
 20
19.7539
 11
56.0595
 21
19.7944
  0
LINE
  8
0
 10
56.0595
 20
19.7944
 11
56.1146
 21
19.8327
  0
LINE
  8
0
 10
56.1146
 20
19.8327
 11
56.1711
 21
19.8686
  0
LINE
  8
0
 10
56.1711
 20
19.8686
 11
56.2292
 21
19.9021
  0
LINE
  8
0
 10
56.2292
 20
19.9021
 11
56.2886
 21
19.9331
  0
LINE
  8
0
 10
56.2886
 20
19.9331
 11
56.3492
 21
19.9617
  0
LINE
  8
0
 10
56.3492
 20
19.9617
 11
56.411
 21
19.9876
  0
LINE
  8
0
 10
56.411
 20
19.9876
 11
56.4738
 21
20.011
  0
LINE
  8
0
 10
56.4738
 20
20.011
 11
56.5375
 21
20.0317
  0
LINE
  8
0
 10
56.5375
 20
20.0317
 11
56.6021
 21
20.0497
  0
LINE
  8
0
 10
56.6021
 20
20.0497
 11
56.6673
 21
20.065
  0
LINE
  8
0
 10
56.6673
 20
20.065
 11
56.7332
 21
20.0776
  0
LINE
  8
0
 10
56.7332
 20
20.0776
 11
56.7995
 21
20.0874
  0
LINE
  8
0
 10
56.7995
 20
20.0874
 11
56.8661
 21
20.0944
  0
LINE
  8
0
 10
56.8661
 20
20.0944
 11
56.933
 21
20.0986
  0
LINE
  8
0
 10
56.933
 20
20.0986
 11
57
 21
20.1
  0
LINE
  8
0
 10
57
 20
20.1
 11
57.067
 21
20.0986
  0
LINE
  8
0
 10
57.067
 20
20.0986
 11
57.1339
 21
20.0944
  0
LINE
  8
0
 10
57.1339
 20
20.0944
 11
57.2005
 21
20.0874
  0
LINE
  8
0
 10
57.2005
 20
20.0874
 11
57.2668
 21
20.0776
  0
LINE
  8
0
 10
57.2668
 20
20.0776
 11
57.3327
 21
20.065
  0
LINE
  8
0
 10
57.3327
 20
20.065
 11
57.3979
 21
20.0497
  0
LINE
  8
0
 10
57.3979
 20
20.0497
 11
57.4624
 21
20.0317
  0
LINE
  8
0
 10
57.4624
 20
20.0317
 11
57.5262
 21
20.011
  0
LINE
  8
0
 10
57.5262
 20
20.011
 11
57.589
 21
19.9876
  0
LINE
  8
0
 10
57.589
 20
19.9876
 11
57.6508
 21
19.9617
  0
LINE
  8
0
 10
57.6508
 20
19.9617
 11
57.7114
 21
19.9331
  0
LINE
  8
0
 10
57.7114
 20
19.9331
 11
57.7708
 21
19.9021
  0
LINE
  8
0
 10
57.7708
 20
19.9021
 11
57.8288
 21
19.8686
  0
LINE
  8
0
 10
57.8288
 20
19.8686
 11
57.8854
 21
19.8327
  0
LINE
  8
0
 10
57.8854
 20
19.8327
 11
57.9404
 21
19.7944
  0
LINE
  8
0
 10
57.9404
 20
19.7944
 11
57.9938
 21
19.7539
  0
LINE
  8
0
 10
57.9938
 20
19.7539
 11
58.0455
 21
19.7112
  0
LINE
  8
0
 10
58.0455
 20
19.7112
 11
58.0953
 21
19.6663
  0
LINE
  8
0
 10
58.0953
 20
19.6663
 11
58.1431
 21
19.6195
  0
LINE
  8
0
 10
58.1431
 20
19.6195
 11
58.189
 21
19.5706
  0
LINE
  8
0
 10
58.189
 20
19.5706
 11
58.2328
 21
19.5199
  0
LINE
  8
0
 10
58.2328
 20
19.5199
 11
58.2744
 21
19.4673
  0
LINE
  8
0
 10
58.2744
 20
19.4673
 11
58.3138
 21
19.4131
  0
LINE
  8
0
 10
58.3138
 20
19.4131
 11
58.3509
 21
19.3573
  0
LINE
  8
0
 10
58.3509
 20
19.3573
 11
58.3856
 21
19.3
  0
LINE
  8
0
 10
58.3856
 20
19.3
 11
58.4179
 21
19.2413
  0
LINE
  8
0
 10
58.4179
 20
19.2413
 11
58.4477
 21
19.1812
  0
LINE
  8
0
 10
58.4477
 20
19.1812
 11
58.475
 21
19.12
  0
LINE
  8
0
 10
58.475
 20
19.12
 11
58.4996
 21
19.0577
  0
LINE
  8
0
 10
58.4996
 20
19.0577
 11
58.5217
 21
18.9944
  0
LINE
  8
0
 10
58.5217
 20
18.9944
 11
58.541
 21
18.9303
  0
LINE
  8
0
 10
58.541
 20
18.9303
 11
58.5577
 21
18.8654
  0
LINE
  8
0
 10
58.5577
 20
18.8654
 11
58.5717
 21
18.7998
  0
LINE
  8
0
 10
58.5717
 20
18.7998
 11
58.5828
 21
18.7337
  0
LINE
  8
0
 10
58.5828
 20
18.7337
 11
58.5912
 21
18.6672
  0
LINE
  8
0
 10
58.5912
 20
18.6672
 11
58.5968
 21
18.6005
  0
LINE
  8
0
 10
58.5968
 20
18.6005
 11
58.5996
 21
18.5335
  0
LINE
  8
0
 10
58.5996
 20
18.5335
 11
58.5996
 21
18.4665
  0
LINE
  8
0
 10
58.5996
 20
18.4665
 11
58.5968
 21
18.3995
  0
LINE
  8
0
 10
58.5968
 20
18.3995
 11
58.5912
 21
18.3327
  0
LINE
  8
0
 10
58.5912
 20
18.3327
 11
58.5828
 21
18.2663
  0
LINE
  8
0
 10
58.5828
 20
18.2663
 11
58.5717
 21
18.2002
  0
LINE
  8
0
 10
58.5717
 20
18.2002
 11
58.5577
 21
18.1346
  0
LINE
  8
0
 10
58.5577
 20
18.1346
 11
58.541
 21
18.0697
  0
LINE
  8
0
 10
58.541
 20
18.0697
 11
58.5217
 21
18.0056
  0
LINE
  8
0
 10
58.5217
 20
18.0056
 11
58.4996
 21
17.9423
  0
LINE
  8
0
 10
58.4996
 20
17.9423
 11
58.475
 21
17.88
  0
LINE
  8
0
 10
58.475
 20
17.88
 11
58.4477
 21
17.8187
  0
LINE
  8
0
 10
58.4477
 20
17.8187
 11
58.4179
 21
17.7587
  0
LINE
  8
0
 10
58.4179
 20
17.7587
 11
58.3856
 21
17.7
  0
LINE
  8
0
 10
58.3856
 20
17.7
 11
58.3509
 21
17.6427
  0
LINE
  8
0
 10
58.3509
 20
17.6427
 11
58.3138
 21
17.5869
  0
LINE
  8
0
 10
58.3138
 20
17.5869
 11
58.2744
 21
17.5326
  0
LINE
  8
0
 10
58.2744
 20
17.5326
 11
58.2328
 21
17.4801
  0
LINE
  8
0
 10
58.2328
 20
17.4801
 11
58.189
 21
17.4294
  0
LINE
  8
0
 10
58.189
 20
17.4294
 11
58.1431
 21
17.3805
  0
LINE
  8
0
 10
58.1431
 20
17.3805
 11
58.0953
 21
17.3336
  0
LINE
  8
0
 10
58.0953
 20
17.3336
 11
58.0455
 21
17.2888
  0
LINE
  8
0
 10
58.0455
 20
17.2888
 11
57.9938
 21
17.2461
  0
LINE
  8
0
 10
57.9938
 20
17.2461
 11
57.9404
 21
17.2056
  0
LINE
  8
0
 10
57.9404
 20
17.2056
 11
57.8854
 21
17.1673
  0
LINE
  8
0
 10
57.8854
 20
17.1673
 11
57.8288
 21
17.1314
  0
LINE
  8
0
 10
57.8288
 20
17.1314
 11
57.7708
 21
17.0979
  0
LINE
  8
0
 10
57.7708
 20
17.0979
 11
57.7114
 21
17.0668
  0
LINE
  8
0
 10
57.7114
 20
17.0668
 11
57.6508
 21
17.0383
  0
LINE
  8
0
 10
57.6508
 20
17.0383
 11
57.589
 21
17.0123
  0
LINE
  8
0
 10
57.589
 20
17.0123
 11
57.5262
 21
16.989
  0
LINE
  8
0
 10
57.5262
 20
16.989
 11
57.4624
 21
16.9683
  0
LINE
  8
0
 10
57.4624
 20
16.9683
 11
57.3979
 21
16.9503
  0
LINE
  8
0
 10
57.3979
 20
16.9503
 11
57.3327
 21
16.935
  0
LINE
  8
0
 10
57.3327
 20
16.935
 11
57.2668
 21
16.9224
  0
LINE
  8
0
 10
57.2668
 20
16.9224
 11
57.2005
 21
16.9126
  0
LINE
  8
0
 10
57.2005
 20
16.9126
 11
57.1339
 21
16.9056
  0
LINE
  8
0
 10
57.1339
 20
16.9056
 11
57.067
 21
16.9014
  0
LINE
  8
0
 10
57.067
 20
16.9014
 11
57
 21
16.9
  0
LINE
  8
0
 10
57
 20
16.9
 11
56.933
 21
16.9014
  0
LINE
  8
0
 10
22.933
 20
16.9014
 11
22.8661
 21
16.9056
  0
LINE
  8
0
 10
22.8661
 20
16.9056
 11
22.7995
 21
16.9126
  0
LINE
  8
0
 10
22.7995
 20
16.9126
 11
22.7332
 21
16.9224
  0
LINE
  8
0
 10
22.7332
 20
16.9224
 11
22.6673
 21
16.935
  0
LINE
  8
0
 10
22.6673
 20
16.935
 11
22.6021
 21
16.9503
  0
LINE
  8
0
 10
22.6021
 20
16.9503
 11
22.5376
 21
16.9683
  0
LINE
  8
0
 10
22.5376
 20
16.9683
 11
22.4738
 21
16.989
  0
LINE
  8
0
 10
22.4738
 20
16.989
 11
22.411
 21
17.0123
  0
LINE
  8
0
 10
22.411
 20
17.0123
 11
22.3492
 21
17.0383
  0
LINE
  8
0
 10
22.3492
 20
17.0383
 11
22.2886
 21
17.0668
  0
LINE
  8
0
 10
22.2886
 20
17.0668
 11
22.2292
 21
17.0979
  0
LINE
  8
0
 10
22.2292
 20
17.0979
 11
22.1712
 21
17.1314
  0
LINE
  8
0
 10
22.1712
 20
17.1314
 11
22.1146
 21
17.1673
  0
LINE
  8
0
 10
22.1146
 20
17.1673
 11
22.0596
 21
17.2056
  0
LINE
  8
0
 10
22.0596
 20
17.2056
 11
22.0062
 21
17.2461
  0
LINE
  8
0
 10
22.0062
 20
17.2461
 11
21.9545
 21
17.2888
  0
LINE
  8
0
 10
21.9545
 20
17.2888
 11
21.9047
 21
17.3336
  0
LINE
  8
0
 10
21.9047
 20
17.3336
 11
21.8569
 21
17.3805
  0
LINE
  8
0
 10
21.8569
 20
17.3805
 11
21.811
 21
17.4294
  0
LINE
  8
0
 10
21.811
 20
17.4294
 11
21.7672
 21
17.4801
  0
LINE
  8
0
 10
21.7672
 20
17.4801
 11
21.7256
 21
17.5326
  0
LINE
  8
0
 10
21.7256
 20
17.5326
 11
21.6862
 21
17.5869
  0
LINE
  8
0
 10
21.6862
 20
17.5869
 11
21.6491
 21
17.6427
  0
LINE
  8
0
 10
21.6491
 20
17.6427
 11
21.6144
 21
17.7
  0
LINE
  8
0
 10
21.6144
 20
17.7
 11
21.5821
 21
17.7587
  0
LINE
  8
0
 10
21.5821
 20
17.7587
 11
21.5523
 21
17.8187
  0
LINE
  8
0
 10
21.5523
 20
17.8187
 11
21.525
 21
17.88
  0
LINE
  8
0
 10
21.525
 20
17.88
 11
21.5004
 21
17.9423
  0
LINE
  8
0
 10
21.5004
 20
17.9423
 11
21.4783
 21
18.0056
  0
LINE
  8
0
 10
21.4783
 20
18.0056
 11
21.459
 21
18.0697
  0
LINE
  8
0
 10
21.459
 20
18.0697
 11
21.4423
 21
18.1346
  0
LINE
  8
0
 10
21.4423
 20
18.1346
 11
21.4283
 21
18.2002
  0
LINE
  8
0
 10
21.4283
 20
18.2002
 11
21.4172
 21
18.2663
  0
LINE
  8
0
 10
21.4172
 20
18.2663
 11
21.4088
 21
18.3327
  0
LINE
  8
0
 10
21.4088
 20
18.3327
 11
21.4032
 21
18.3995
  0
LINE
  8
0
 10
21.4032
 20
18.3995
 11
21.4004
 21
18.4665
  0
LINE
  8
0
 10
21.4004
 20
18.4665
 11
21.4004
 21
18.5335
  0
LINE
  8
0
 10
21.4004
 20
18.5335
 11
21.4032
 21
18.6005
  0
LINE
  8
0
 10
21.4032
 20
18.6005
 11
21.4088
 21
18.6672
  0
LINE
  8
0
 10
21.4088
 20
18.6672
 11
21.4172
 21
18.7337
  0
LINE
  8
0
 10
21.4172
 20
18.7337
 11
21.4283
 21
18.7998
  0
LINE
  8
0
 10
21.4283
 20
18.7998
 11
21.4423
 21
18.8654
  0
LINE
  8
0
 10
21.4423
 20
18.8654
 11
21.459
 21
18.9303
  0
LINE
  8
0
 10
21.459
 20
18.9303
 11
21.4783
 21
18.9944
  0
LINE
  8
0
 10
21.4783
 20
18.9944
 11
21.5004
 21
19.0577
  0
LINE
  8
0
 10
21.5004
 20
19.0577
 11
21.525
 21
19.12
  0
LINE
  8
0
 10
21.525
 20
19.12
 11
21.5523
 21
19.1812
  0
LINE
  8
0
 10
21.5523
 20
19.1812
 11
21.5821
 21
19.2413
  0
LINE
  8
0
 10
21.5821
 20
19.2413
 11
21.6144
 21
19.3
  0
LINE
  8
0
 10
21.6144
 20
19.3
 11
21.6491
 21
19.3573
  0
LINE
  8
0
 10
21.6491
 20
19.3573
 11
21.6862
 21
19.4131
  0
LINE
  8
0
 10
21.6862
 20
19.4131
 11
21.7256
 21
19.4673
  0
LINE
  8
0
 10
21.7256
 20
19.4673
 11
21.7672
 21
19.5199
  0
LINE
  8
0
 10
21.7672
 20
19.5199
 11
21.811
 21
19.5706
  0
LINE
  8
0
 10
21.811
 20
19.5706
 11
21.8569
 21
19.6195
  0
LINE
  8
0
 10
21.8569
 20
19.6195
 11
21.9047
 21
19.6663
  0
LINE
  8
0
 10
21.9047
 20
19.6663
 11
21.9545
 21
19.7112
  0
LINE
  8
0
 10
21.9545
 20
19.7112
 11
22.0062
 21
19.7539
  0
LINE
  8
0
 10
22.0062
 20
19.7539
 11
22.0596
 21
19.7944
  0
LINE
  8
0
 10
22.0596
 20
19.7944
 11
22.1146
 21
19.8327
  0
LINE
  8
0
 10
22.1146
 20
19.8327
 11
22.1712
 21
19.8686
  0
LINE
  8
0
 10
22.1712
 20
19.8686
 11
22.2292
 21
19.9021
  0
LINE
  8
0
 10
22.2292
 20
19.9021
 11
22.2886
 21
19.9331
  0
LINE
  8
0
 10
22.2886
 20
19.9331
 11
22.3492
 21
19.9617
  0
LINE
  8
0
 10
22.3492
 20
19.9617
 11
22.411
 21
19.9876
  0
LINE
  8
0
 10
22.411
 20
19.9876
 11
22.4738
 21
20.011
  0
LINE
  8
0
 10
22.4738
 20
20.011
 11
22.5376
 21
20.0317
  0
LINE
  8
0
 10
22.5376
 20
20.0317
 11
22.6021
 21
20.0497
  0
LINE
  8
0
 10
22.6021
 20
20.0497
 11
22.6673
 21
20.065
  0
LINE
  8
0
 10
22.6673
 20
20.065
 11
22.7332
 21
20.0776
  0
LINE
  8
0
 10
22.7332
 20
20.0776
 11
22.7995
 21
20.0874
  0
LINE
  8
0
 10
22.7995
 20
20.0874
 11
22.8661
 21
20.0944
  0
LINE
  8
0
 10
22.8661
 20
20.0944
 11
22.933
 21
20.0986
  0
LINE
  8
0
 10
22.933
 20
20.0986
 11
23
 21
20.1
  0
LINE
  8
0
 10
23
 20
20.1
 11
23.067
 21
20.0986
  0
LINE
  8
0
 10
23.067
 20
20.0986
 11
23.1339
 21
20.0944
  0
LINE
  8
0
 10
23.1339
 20
20.0944
 11
23.2005
 21
20.0874
  0
LINE
  8
0
 10
23.2005
 20
20.0874
 11
23.2668
 21
20.0776
  0
LINE
  8
0
 10
23.2668
 20
20.0776
 11
23.3327
 21
20.065
  0
LINE
  8
0
 10
23.3327
 20
20.065
 11
23.3979
 21
20.0497
  0
LINE
  8
0
 10
23.3979
 20
20.0497
 11
23.4625
 21
20.0317
  0
LINE
  8
0
 10
23.4625
 20
20.0317
 11
23.5262
 21
20.011
  0
LINE
  8
0
 10
23.5262
 20
20.011
 11
23.589
 21
19.9876
  0
LINE
  8
0
 10
23.589
 20
19.9876
 11
23.6508
 21
19.9617
  0
LINE
  8
0
 10
23.6508
 20
19.9617
 11
23.7114
 21
19.9331
  0
LINE
  8
0
 10
23.7114
 20
19.9331
 11
23.7708
 21
19.9021
  0
LINE
  8
0
 10
23.7708
 20
19.9021
 11
23.8289
 21
19.8686
  0
LINE
  8
0
 10
23.8289
 20
19.8686
 11
23.8854
 21
19.8327
  0
LINE
  8
0
 10
23.8854
 20
19.8327
 11
23.9405
 21
19.7944
  0
LINE
  8
0
 10
23.9405
 20
19.7944
 11
23.9939
 21
19.7539
  0
LINE
  8
0
 10
23.9939
 20
19.7539
 11
24.0455
 21
19.7112
  0
LINE
  8
0
 10
24.0455
 20
19.7112
 11
24.0953
 21
19.6663
  0
LINE
  8
0
 10
24.0953
 20
19.6663
 11
24.1432
 21
19.6195
  0
LINE
  8
0
 10
24.1432
 20
19.6195
 11
24.189
 21
19.5706
  0
LINE
  8
0
 10
24.189
 20
19.5706
 11
24.2328
 21
19.5199
  0
LINE
  8
0
 10
24.2328
 20
19.5199
 11
24.2745
 21
19.4673
  0
LINE
  8
0
 10
24.2745
 20
19.4673
 11
24.3138
 21
19.4131
  0
LINE
  8
0
 10
24.3138
 20
19.4131
 11
24.3509
 21
19.3573
  0
LINE
  8
0
 10
24.3509
 20
19.3573
 11
24.3857
 21
19.3
  0
LINE
  8
0
 10
24.3857
 20
19.3
 11
24.4179
 21
19.2413
  0
LINE
  8
0
 10
24.4179
 20
19.2413
 11
24.4477
 21
19.1812
  0
LINE
  8
0
 10
24.4477
 20
19.1812
 11
24.475
 21
19.12
  0
LINE
  8
0
 10
24.475
 20
19.12
 11
24.4997
 21
19.0577
  0
LINE
  8
0
 10
24.4997
 20
19.0577
 11
24.5217
 21
18.9944
  0
LINE
  8
0
 10
24.5217
 20
18.9944
 11
24.5411
 21
18.9303
  0
LINE
  8
0
 10
24.5411
 20
18.9303
 11
24.5577
 21
18.8654
  0
LINE
  8
0
 10
24.5577
 20
18.8654
 11
24.5717
 21
18.7998
  0
LINE
  8
0
 10
24.5717
 20
18.7998
 11
24.5828
 21
18.7337
  0
LINE
  8
0
 10
24.5828
 20
18.7337
 11
24.5912
 21
18.6672
  0
LINE
  8
0
 10
24.5912
 20
18.6672
 11
24.5968
 21
18.6005
  0
LINE
  8
0
 10
24.5968
 20
18.6005
 11
24.5997
 21
18.5335
  0
LINE
  8
0
 10
24.5997
 20
18.5335
 11
24.5997
 21
18.4665
  0
LINE
  8
0
 10
24.5997
 20
18.4665
 11
24.5968
 21
18.3995
  0
LINE
  8
0
 10
24.5968
 20
18.3995
 11
24.5912
 21
18.3327
  0
LINE
  8
0
 10
24.5912
 20
18.3327
 11
24.5828
 21
18.2663
  0
LINE
  8
0
 10
24.5828
 20
18.2663
 11
24.5717
 21
18.2002
  0
LINE
  8
0
 10
24.5717
 20
18.2002
 11
24.5577
 21
18.1346
  0
LINE
  8
0
 10
24.5577
 20
18.1346
 11
24.5411
 21
18.0697
  0
LINE
  8
0
 10
24.5411
 20
18.0697
 11
24.5217
 21
18.0056
  0
LINE
  8
0
 10
24.5217
 20
18.0056
 11
24.4997
 21
17.9423
  0
LINE
  8
0
 10
24.4997
 20
17.9423
 11
24.475
 21
17.88
  0
LINE
  8
0
 10
24.475
 20
17.88
 11
24.4477
 21
17.8187
  0
LINE
  8
0
 10
24.4477
 20
17.8187
 11
24.4179
 21
17.7587
  0
LINE
  8
0
 10
24.4179
 20
17.7587
 11
24.3857
 21
17.7
  0
LINE
  8
0
 10
24.3857
 20
17.7
 11
24.3509
 21
17.6427
  0
LINE
  8
0
 10
24.3509
 20
17.6427
 11
24.3138
 21
17.5869
  0
LINE
  8
0
 10
24.3138
 20
17.5869
 11
24.2745
 21
17.5326
  0
LINE
  8
0
 10
24.2745
 20
17.5326
 11
24.2328
 21
17.4801
  0
LINE
  8
0
 10
24.2328
 20
17.4801
 11
24.189
 21
17.4294
  0
LINE
  8
0
 10
24.189
 20
17.4294
 11
24.1432
 21
17.3805
  0
LINE
  8
0
 10
24.1432
 20
17.3805
 11
24.0953
 21
17.3336
  0
LINE
  8
0
 10
24.0953
 20
17.3336
 11
24.0455
 21
17.2888
  0
LINE
  8
0
 10
24.0455
 20
17.2888
 11
23.9939
 21
17.2461
  0
LINE
  8
0
 10
23.9939
 20
17.2461
 11
23.9405
 21
17.2056
  0
LINE
  8
0
 10
23.9405
 20
17.2056
 11
23.8854
 21
17.1673
  0
LINE
  8
0
 10
23.8854
 20
17.1673
 11
23.8289
 21
17.1314
  0
LINE
  8
0
 10
23.8289
 20
17.1314
 11
23.7708
 21
17.0979
  0
LINE
  8
0
 10
23.7708
 20
17.0979
 11
23.7114
 21
17.0668
  0
LINE
  8
0
 10
23.7114
 20
17.0668
 11
23.6508
 21
17.0383
  0
LINE
  8
0
 10
23.6508
 20
17.0383
 11
23.589
 21
17.0123
  0
LINE
  8
0
 10
23.589
 20
17.0123
 11
23.5262
 21
16.989
  0
LINE
  8
0
 10
23.5262
 20
16.989
 11
23.4625
 21
16.9683
  0
LINE
  8
0
 10
23.4625
 20
16.9683
 11
23.3979
 21
16.9503
  0
LINE
  8
0
 10
23.3979
 20
16.9503
 11
23.3327
 21
16.935
  0
LINE
  8
0
 10
23.3327
 20
16.935
 11
23.2668
 21
16.9224
  0
LINE
  8
0
 10
23.2668
 20
16.9224
 11
23.2005
 21
16.9126
  0
LINE
  8
0
 10
23.2005
 20
16.9126
 11
23.1339
 21
16.9056
  0
LINE
  8
0
 10
23.1339
 20
16.9056
 11
23.067
 21
16.9014
  0
LINE
  8
0
 10
23.067
 20
16.9014
 11
23
 21
16.9
  0
LINE
  8
0
 10
23
 20
16.9
 11
22.933
 21
16.9014
  0
LINE
  8
0
 10
84.4975
 20
-11.9895
 11
83.9959
 21
-11.9579
  0
LINE
  8
0
 10
83.9959
 20
-11.9579
 11
83.496
 21
-11.9054
  0
LINE
  8
0
 10
83.496
 20
-11.9054
 11
82.9988
 21
-11.8319
  0
LINE
  8
0
 10
82.9988
 20
-11.8319
 11
82.5051
 21
-11.7378
  0
LINE
  8
0
 10
82.5051
 20
-11.7378
 11
82.0157
 21
-11.623
  0
LINE
  8
0
 10
82.0157
 20
-11.623
 11
81.5316
 21
-11.4878
  0
LINE
  8
0
 10
81.5316
 20
-11.4878
 11
81.0536
 21
-11.3325
  0
LINE
  8
0
 10
81.0536
 20
-11.3325
 11
80.5825
 21
-11.1573
  0
LINE
  8
0
 10
80.5825
 20
-11.1573
 11
80.1192
 21
-10.9625
  0
LINE
  8
0
 10
80.1192
 20
-10.9625
 11
79.6644
 21
-10.7485
  0
LINE
  8
0
 10
79.6644
 20
-10.7485
 11
79.2189
 21
-10.5157
  0
LINE
  8
0
 10
79.2189
 20
-10.5157
 11
78.7837
 21
-10.2644
  0
LINE
  8
0
 10
78.7837
 20
-10.2644
 11
78.3593
 21
-9.99504
  0
LINE
  8
0
 10
78.3593
 20
-9.99504
 11
77.9466
 21
-9.70819
  0
LINE
  8
0
 10
77.9466
 20
-9.70819
 11
77.5462
 21
-9.40431
  0
LINE
  8
0
 10
77.5462
 20
-9.40431
 11
77.159
 21
-9.08394
  0
LINE
  8
0
 10
77.159
 20
-9.08394
 11
76.7854
 21
-8.74762
  0
LINE
  8
0
 10
76.7854
 20
-8.74762
 11
76.4263
 21
-8.39595
  0
LINE
  8
0
 10
76.4263
 20
-8.39595
 11
76.0823
 21
-8.02956
  0
LINE
  8
0
 10
76.0823
 20
-8.02956
 11
75.7538
 21
-7.64908
  0
LINE
  8
0
 10
75.7538
 20
-7.64908
 11
75.4416
 21
-7.25519
  0
LINE
  8
0
 10
75.4416
 20
-7.25519
 11
75.1462
 21
-6.84856
  0
LINE
  8
0
 10
75.1462
 20
-6.84856
 11
74.8681
 21
-6.42992
  0
LINE
  8
0
 10
74.8681
 20
-6.42992
 11
74.6077
 21
-6
  0
LINE
  8
0
 10
74.6077
 20
-6
 11
74.3656
 21
-5.55954
  0
LINE
  8
0
 10
74.3656
 20
-5.55954
 11
74.1421
 21
-5.10934
  0
LINE
  8
0
 10
74.1421
 20
-5.10934
 11
73.9376
 21
-4.65018
  0
LINE
  8
0
 10
73.9376
 20
-4.65018
 11
73.7526
 21
-4.18286
  0
LINE
  8
0
 10
73.7526
 20
-4.18286
 11
73.5873
 21
-3.70819
  0
LINE
  8
0
 10
73.5873
 20
-3.70819
 11
73.442
 21
-3.22704
  0
LINE
  8
0
 10
73.442
 20
-3.22704
 11
73.317
 21
-2.7402
  0
LINE
  8
0
 10
73.317
 20
-2.7402
 11
73.2125
 21
-2.24857
  0
LINE
  8
0
 10
73.2125
 20
-2.24857
 11
73.1287
 21
-1.75299
  0
LINE
  8
0
 10
73.1287
 20
-1.75299
 11
73.0657
 21
-1.25433
  0
LINE
  8
0
 10
73.0657
 20
-1.25433
 11
73.0237
 21
-0.753479
  0
LINE
  8
0
 10
73.0237
 20
-0.753479
 11
73.0026
 21
-0.251297
  0
LINE
  8
0
 10
73.0026
 20
-0.251297
 11
73.0026
 21
0.251282
  0
LINE
  8
0
 10
73.0026
 20
0.251282
 11
73.0237
 21
0.753464
  0
LINE
  8
0
 10
73.0237
 20
0.753464
 11
73.0657
 21
1.25432
  0
LINE
  8
0
 10
73.0657
 20
1.25432
 11
73.1287
 21
1.75298
  0
LINE
  8
0
 10
73.1287
 20
1.75298
 11
73.2125
 21
2.24855
  0
LINE
  8
0
 10
73.2125
 20
2.24855
 11
73.317
 21
2.74019
  0
LINE
  8
0
 10
73.317
 20
2.74019
 11
73.442
 21
3.22702
  0
LINE
  8
0
 10
73.442
 20
3.22702
 11
73.5873
 21
3.70818
  0
LINE
  8
0
 10
73.5873
 20
3.70818
 11
73.7526
 21
4.18285
  0
LINE
  8
0
 10
73.7526
 20
4.18285
 11
73.9376
 21
4.65016
  0
LINE
  8
0
 10
73.9376
 20
4.65016
 11
74.1421
 21
5.10933
  0
LINE
  8
0
 10
74.1421
 20
5.10933
 11
74.3656
 21
5.55952
  0
LINE
  8
0
 10
74.3656
 20
5.55952
 11
74.6077
 21
5.99997
  0
LINE
  8
0
 10
74.6077
 20
5.99997
 11
74.8681
 21
6.4299
  0
LINE
  8
0
 10
74.8681
 20
6.4299
 11
75.1462
 21
6.84854
  0
LINE
  8
0
 10
75.1462
 20
6.84854
 11
75.4416
 21
7.25517
  0
LINE
  8
0
 10
75.4416
 20
7.25517
 11
75.7538
 21
7.64906
  0
LINE
  8
0
 10
75.7538
 20
7.64906
 11
76.0823
 21
8.02954
  0
LINE
  8
0
 10
76.0823
 20
8.02954
 11
76.4263
 21
8.39594
  0
LINE
  8
0
 10
76.4263
 20
8.39594
 11
76.7854
 21
8.7476
  0
LINE
  8
0
 10
76.7854
 20
8.7476
 11
77.159
 21
9.08392
  0
LINE
  8
0
 10
77.159
 20
9.08392
 11
77.5462
 21
9.4043
  0
LINE
  8
0
 10
77.5462
 20
9.4043
 11
77.9466
 21
9.70818
  0
LINE
  8
0
 10
77.9466
 20
9.70818
 11
78.3593
 21
9.99503
  0
LINE
  8
0
 10
78.3593
 20
9.99503
 11
78.7837
 21
10.2643
  0
LINE
  8
0
 10
78.7837
 20
10.2643
 11
79.2189
 21
10.5157
  0
LINE
  8
0
 10
79.2189
 20
10.5157
 11
79.6644
 21
10.7485
  0
LINE
  8
0
 10
79.6644
 20
10.7485
 11
80.1192
 21
10.9625
  0
LINE
  8
0
 10
80.1192
 20
10.9625
 11
80.5825
 21
11.1573
  0
LINE
  8
0
 10
80.5825
 20
11.1573
 11
81.0536
 21
11.3325
  0
LINE
  8
0
 10
81.0536
 20
11.3325
 11
81.5316
 21
11.4878
  0
LINE
  8
0
 10
81.5316
 20
11.4878
 11
82.0157
 21
11.623
  0
LINE
  8
0
 10
82.0157
 20
11.623
 11
82.5051
 21
11.7377
  0
LINE
  8
0
 10
82.5051
 20
11.7377
 11
82.9988
 21
11.8319
  0
LINE
  8
0
 10
82.9988
 20
11.8319
 11
83.496
 21
11.9053
  0
LINE
  8
0
 10
83.496
 20
11.9053
 11
83.9959
 21
11.9579
  0
LINE
  8
0
 10
83.9959
 20
11.9579
 11
84.4975
 21
11.9895
  0
LINE
  8
0
 10
84.4975
 20
11.9895
 11
85
 21
12
  0
LINE
  8
0
 10
85
 20
12
 11
85.5025
 21
11.9895
  0
LINE
  8
0
 10
85.5025
 20
11.9895
 11
86.0041
 21
11.9579
  0
LINE
  8
0
 10
86.0041
 20
11.9579
 11
86.504
 21
11.9053
  0
LINE
  8
0
 10
86.504
 20
11.9053
 11
87.0012
 21
11.8319
  0
LINE
  8
0
 10
87.0012
 20
11.8319
 11
87.4949
 21
11.7377
  0
LINE
  8
0
 10
87.4949
 20
11.7377
 11
87.9843
 21
11.623
  0
LINE
  8
0
 10
87.9843
 20
11.623
 11
88.4684
 21
11.4878
  0
LINE
  8
0
 10
88.4684
 20
11.4878
 11
88.9464
 21
11.3325
  0
LINE
  8
0
 10
88.9464
 20
11.3325
 11
89.4175
 21
11.1573
  0
LINE
  8
0
 10
89.4175
 20
11.1573
 11
89.8808
 21
10.9625
  0
LINE
  8
0
 10
89.8808
 20
10.9625
 11
90.3356
 21
10.7485
  0
LINE
  8
0
 10
90.3356
 20
10.7485
 11
90.781
 21
10.5157
  0
LINE
  8
0
 10
90.781
 20
10.5157
 11
91.2163
 21
10.2643
  0
LINE
  8
0
 10
91.2163
 20
10.2643
 11
91.6407
 21
9.99503
  0
LINE
  8
0
 10
91.6407
 20
9.99503
 11
92.0534
 21
9.70818
  0
LINE
  8
0
 10
92.0534
 20
9.70818
 11
92.4538
 21
9.4043
  0
LINE
  8
0
 10
92.4538
 20
9.4043
 11
92.841
 21
9.08392
  0
LINE
  8
0
 10
92.841
 20
9.08392
 11
93.2146
 21
8.7476
  0
LINE
  8
0
 10
93.2146
 20
8.7476
 11
93.5737
 21
8.39594
  0
LINE
  8
0
 10
93.5737
 20
8.39594
 11
93.9177
 21
8.02954
  0
LINE
  8
0
 10
93.9177
 20
8.02954
 11
94.2462
 21
7.64906
  0
LINE
  8
0
 10
94.2462
 20
7.64906
 11
94.5583
 21
7.25517
  0
LINE
  8
0
 10
94.5583
 20
7.25517
 11
94.8538
 21
6.84854
  0
LINE
  8
0
 10
94.8538
 20
6.84854
 11
95.1319
 21
6.4299
  0
LINE
  8
0
 10
95.1319
 20
6.4299
 11
95.3923
 21
5.99997
  0
LINE
  8
0
 10
95.3923
 20
5.99997
 11
95.6344
 21
5.55952
  0
LINE
  8
0
 10
95.6344
 20
5.55952
 11
95.8579
 21
5.10933
  0
LINE
  8
0
 10
95.8579
 20
5.10933
 11
96.0623
 21
4.65016
  0
LINE
  8
0
 10
96.0623
 20
4.65016
 11
96.2474
 21
4.18285
  0
LINE
  8
0
 10
96.2474
 20
4.18285
 11
96.4127
 21
3.70818
  0
LINE
  8
0
 10
96.4127
 20
3.70818
 11
96.5579
 21
3.22702
  0
LINE
  8
0
 10
96.5579
 20
3.22702
 11
96.6829
 21
2.74019
  0
LINE
  8
0
 10
96.6829
 20
2.74019
 11
96.7874
 21
2.24855
  0
LINE
  8
0
 10
96.7874
 20
2.24855
 11
96.8713
 21
1.75298
  0
LINE
  8
0
 10
96.8713
 20
1.75298
 11
96.9342
 21
1.25432
  0
LINE
  8
0
 10
96.9342
 20
1.25432
 11
96.9763
 21
0.753464
  0
LINE
  8
0
 10
96.9763
 20
0.753464
 11
96.9974
 21
0.251282
  0
LINE
  8
0
 10
96.9974
 20
0.251282
 11
96.9974
 21
-0.251297
  0
LINE
  8
0
 10
96.9974
 20
-0.251297
 11
96.9763
 21
-0.753479
  0
LINE
  8
0
 10
96.9763
 20
-0.753479
 11
96.9342
 21
-1.25433
  0
LINE
  8
0
 10
96.9342
 20
-1.25433
 11
96.8713
 21
-1.75299
  0
LINE
  8
0
 10
96.8713
 20
-1.75299
 11
96.7874
 21
-2.24857
  0
LINE
  8
0
 10
96.7874
 20
-2.24857
 11
96.6829
 21
-2.7402
  0
LINE
  8
0
 10
96.6829
 20
-2.7402
 11
96.5579
 21
-3.22704
  0
LINE
  8
0
 10
96.5579
 20
-3.22704
 11
96.4127
 21
-3.70819
  0
LINE
  8
0
 10
96.4127
 20
-3.70819
 11
96.2474
 21
-4.18286
  0
LINE
  8
0
 10
96.2474
 20
-4.18286
 11
96.0623
 21
-4.65018
  0
LINE
  8
0
 10
96.0623
 20
-4.65018
 11
95.8579
 21
-5.10934
  0
LINE
  8
0
 10
95.8579
 20
-5.10934
 11
95.6344
 21
-5.55954
  0
LINE
  8
0
 10
95.6344
 20
-5.55954
 11
95.3923
 21
-5.99998
  0
LINE
  8
0
 10
95.3923
 20
-5.99998
 11
95.1319
 21
-6.42992
  0
LINE
  8
0
 10
95.1319
 20
-6.42992
 11
94.8538
 21
-6.84856
  0
LINE
  8
0
 10
94.8538
 20
-6.84856
 11
94.5583
 21
-7.25519
  0
LINE
  8
0
 10
94.5583
 20
-7.25519
 11
94.2462
 21
-7.64908
  0
LINE
  8
0
 10
94.2462
 20
-7.64908
 11
93.9177
 21
-8.02956
  0
LINE
  8
0
 10
93.9177
 20
-8.02956
 11
93.5737
 21
-8.39595
  0
LINE
  8
0
 10
93.5737
 20
-8.39595
 11
93.2146
 21
-8.74762
  0
LINE
  8
0
 10
93.2146
 20
-8.74762
 11
92.841
 21
-9.08394
  0
LINE
  8
0
 10
92.841
 20
-9.08394
 11
92.4538
 21
-9.40431
  0
LINE
  8
0
 10
92.4538
 20
-9.40431
 11
92.0534
 21
-9.70819
  0
LINE
  8
0
 10
92.0534
 20
-9.70819
 11
91.6407
 21
-9.99504
  0
LINE
  8
0
 10
91.6407
 20
-9.99504
 11
91.2163
 21
-10.2644
  0
LINE
  8
0
 10
91.2163
 20
-10.2644
 11
90.781
 21
-10.5157
  0
LINE
  8
0
 10
90.781
 20
-10.5157
 11
90.3356
 21
-10.7485
  0
LINE
  8
0
 10
90.3356
 20
-10.7485
 11
89.8808
 21
-10.9625
  0
LINE
  8
0
 10
89.8808
 20
-10.9625
 11
89.4175
 21
-11.1573
  0
LINE
  8
0
 10
89.4175
 20
-11.1573
 11
88.9464
 21
-11.3325
  0
LINE
  8
0
 10
88.9464
 20
-11.3325
 11
88.4684
 21
-11.4878
  0
LINE
  8
0
 10
88.4684
 20
-11.4878
 11
87.9843
 21
-11.623
  0
LINE
  8
0
 10
87.9843
 20
-11.623
 11
87.4949
 21
-11.7378
  0
LINE
  8
0
 10
87.4949
 20
-11.7378
 11
87.0012
 21
-11.8319
  0
LINE
  8
0
 10
87.0012
 20
-11.8319
 11
86.504
 21
-11.9054
  0
LINE
  8
0
 10
86.504
 20
-11.9054
 11
86.0041
 21
-11.9579
  0
LINE
  8
0
 10
86.0041
 20
-11.9579
 11
85.5025
 21
-11.9895
  0
LINE
  8
0
 10
85.5025
 20
-11.9895
 11
85
 21
-12
  0
LINE
  8
0
 10
85
 20
-12
 11
84.4975
 21
-11.9895
  0
LINE
  8
0
 10
27.433
 20
-20.0986
 11
27.3661
 21
-20.0944
  0
LINE
  8
0
 10
27.3661
 20
-20.0944
 11
27.2995
 21
-20.0874
  0
LINE
  8
0
 10
27.2995
 20
-20.0874
 11
27.2332
 21
-20.0776
  0
LINE
  8
0
 10
27.2332
 20
-20.0776
 11
27.1673
 21
-20.065
  0
LINE
  8
0
 10
27.1673
 20
-20.065
 11
27.1021
 21
-20.0497
  0
LINE
  8
0
 10
27.1021
 20
-20.0497
 11
27.0375
 21
-20.0317
  0
LINE
  8
0
 10
27.0375
 20
-20.0317
 11
26.9738
 21
-20.011
  0
LINE
  8
0
 10
26.9738
 20
-20.011
 11
26.911
 21
-19.9876
  0
LINE
  8
0
 10
26.911
 20
-19.9876
 11
26.8492
 21
-19.9617
  0
LINE
  8
0
 10
26.8492
 20
-19.9617
 11
26.7886
 21
-19.9331
  0
LINE
  8
0
 10
26.7886
 20
-19.9331
 11
26.7292
 21
-19.9021
  0
LINE
  8
0
 10
26.7292
 20
-19.9021
 11
26.6711
 21
-19.8686
  0
LINE
  8
0
 10
26.6711
 20
-19.8686
 11
26.6146
 21
-19.8327
  0
LINE
  8
0
 10
26.6146
 20
-19.8327
 11
26.5595
 21
-19.7944
  0
LINE
  8
0
 10
26.5595
 20
-19.7944
 11
26.5061
 21
-19.7539
  0
LINE
  8
0
 10
26.5061
 20
-19.7539
 11
26.4545
 21
-19.7112
  0
LINE
  8
0
 10
26.4545
 20
-19.7112
 11
26.4047
 21
-19.6663
  0
LINE
  8
0
 10
26.4047
 20
-19.6663
 11
26.3568
 21
-19.6194
  0
LINE
  8
0
 10
26.3568
 20
-19.6194
 11
26.311
 21
-19.5706
  0
LINE
  8
0
 10
26.311
 20
-19.5706
 11
26.2672
 21
-19.5199
  0
LINE
  8
0
 10
26.2672
 20
-19.5199
 11
26.2255
 21
-19.4673
  0
LINE
  8
0
 10
26.2255
 20
-19.4673
 11
26.1862
 21
-19.4131
  0
LINE
  8
0
 10
26.1862
 20
-19.4131
 11
26.1491
 21
-19.3573
  0
LINE
  8
0
 10
26.1491
 20
-19.3573
 11
26.1143
 21
-19.3
  0
LINE
  8
0
 10
26.1143
 20
-19.3
 11
26.0821
 21
-19.2413
  0
LINE
  8
0
 10
26.0821
 20
-19.2413
 11
26.0523
 21
-19.1812
  0
LINE
  8
0
 10
26.0523
 20
-19.1812
 11
26.025
 21
-19.12
  0
LINE
  8
0
 10
26.025
 20
-19.12
 11
26.0003
 21
-19.0577
  0
LINE
  8
0
 10
26.0003
 20
-19.0577
 11
25.9783
 21
-18.9944
  0
LINE
  8
0
 10
25.9783
 20
-18.9944
 11
25.9589
 21
-18.9303
  0
LINE
  8
0
 10
25.9589
 20
-18.9303
 11
25.9423
 21
-18.8653
  0
LINE
  8
0
 10
25.9423
 20
-18.8653
 11
25.9283
 21
-18.7998
  0
LINE
  8
0
 10
25.9283
 20
-18.7998
 11
25.9172
 21
-18.7337
  0
LINE
  8
0
 10
25.9172
 20
-18.7337
 11
25.9088
 21
-18.6672
  0
LINE
  8
0
 10
25.9088
 20
-18.6672
 11
25.9032
 21
-18.6004
  0
LINE
  8
0
 10
25.9032
 20
-18.6004
 11
25.9003
 21
-18.5335
  0
LINE
  8
0
 10
25.9003
 20
-18.5335
 11
25.9003
 21
-18.4665
  0
LINE
  8
0
 10
25.9003
 20
-18.4665
 11
25.9032
 21
-18.3995
  0
LINE
  8
0
 10
25.9032
 20
-18.3995
 11
25.9088
 21
-18.3327
  0
LINE
  8
0
 10
25.9088
 20
-18.3327
 11
25.9172
 21
-18.2663
  0
LINE
  8
0
 10
25.9172
 20
-18.2663
 11
25.9283
 21
-18.2002
  0
LINE
  8
0
 10
25.9283
 20
-18.2002
 11
25.9423
 21
-18.1346
  0
LINE
  8
0
 10
25.9423
 20
-18.1346
 11
25.9589
 21
-18.0697
  0
LINE
  8
0
 10
25.9589
 20
-18.0697
 11
25.9783
 21
-18.0056
  0
LINE
  8
0
 10
25.9783
 20
-18.0056
 11
26.0003
 21
-17.9423
  0
LINE
  8
0
 10
26.0003
 20
-17.9423
 11
26.025
 21
-17.88
  0
LINE
  8
0
 10
26.025
 20
-17.88
 11
26.0523
 21
-17.8187
  0
LINE
  8
0
 10
26.0523
 20
-17.8187
 11
26.0821
 21
-17.7587
  0
LINE
  8
0
 10
26.0821
 20
-17.7587
 11
26.1143
 21
-17.7
  0
LINE
  8
0
 10
26.1143
 20
-17.7
 11
26.1491
 21
-17.6427
  0
LINE
  8
0
 10
26.1491
 20
-17.6427
 11
26.1862
 21
-17.5868
  0
LINE
  8
0
 10
26.1862
 20
-17.5868
 11
26.2255
 21
-17.5326
  0
LINE
  8
0
 10
26.2255
 20
-17.5326
 11
26.2672
 21
-17.4801
  0
LINE
  8
0
 10
26.2672
 20
-17.4801
 11
26.311
 21
-17.4294
  0
LINE
  8
0
 10
26.311
 20
-17.4294
 11
26.3568
 21
-17.3805
  0
LINE
  8
0
 10
26.3568
 20
-17.3805
 11
26.4047
 21
-17.3336
  0
LINE
  8
0
 10
26.4047
 20
-17.3336
 11
26.4545
 21
-17.2888
  0
LINE
  8
0
 10
26.4545
 20
-17.2888
 11
26.5061
 21
-17.2461
  0
LINE
  8
0
 10
26.5061
 20
-17.2461
 11
26.5595
 21
-17.2056
  0
LINE
  8
0
 10
26.5595
 20
-17.2056
 11
26.6146
 21
-17.1673
  0
LINE
  8
0
 10
26.6146
 20
-17.1673
 11
26.6711
 21
-17.1314
  0
LINE
  8
0
 10
26.6711
 20
-17.1314
 11
26.7292
 21
-17.0979
  0
LINE
  8
0
 10
26.7292
 20
-17.0979
 11
26.7886
 21
-17.0668
  0
LINE
  8
0
 10
26.7886
 20
-17.0668
 11
26.8492
 21
-17.0383
  0
LINE
  8
0
 10
26.8492
 20
-17.0383
 11
26.911
 21
-17.0123
  0
LINE
  8
0
 10
26.911
 20
-17.0123
 11
26.9738
 21
-16.989
  0
LINE
  8
0
 10
26.9738
 20
-16.989
 11
27.0375
 21
-16.9683
  0
LINE
  8
0
 10
27.0375
 20
-16.9683
 11
27.1021
 21
-16.9502
  0
LINE
  8
0
 10
27.1021
 20
-16.9502
 11
27.1673
 21
-16.9349
  0
LINE
  8
0
 10
27.1673
 20
-16.9349
 11
27.2332
 21
-16.9224
  0
LINE
  8
0
 10
27.2332
 20
-16.9224
 11
27.2995
 21
-16.9126
  0
LINE
  8
0
 10
27.2995
 20
-16.9126
 11
27.3661
 21
-16.9056
  0
LINE
  8
0
 10
27.3661
 20
-16.9056
 11
27.433
 21
-16.9014
  0
LINE
  8
0
 10
27.433
 20
-16.9014
 11
27.5
 21
-16.9
  0
LINE
  8
0
 10
27.5
 20
-16.9
 11
27.567
 21
-16.9014
  0
LINE
  8
0
 10
27.567
 20
-16.9014
 11
27.6339
 21
-16.9056
  0
LINE
  8
0
 10
27.6339
 20
-16.9056
 11
27.7005
 21
-16.9126
  0
LINE
  8
0
 10
27.7005
 20
-16.9126
 11
27.7668
 21
-16.9224
  0
LINE
  8
0
 10
27.7668
 20
-16.9224
 11
27.8327
 21
-16.9349
  0
LINE
  8
0
 10
27.8327
 20
-16.9349
 11
27.8979
 21
-16.9502
  0
LINE
  8
0
 10
27.8979
 20
-16.9502
 11
27.9624
 21
-16.9683
  0
LINE
  8
0
 10
27.9624
 20
-16.9683
 11
28.0262
 21
-16.989
  0
LINE
  8
0
 10
28.0262
 20
-16.989
 11
28.089
 21
-17.0123
  0
LINE
  8
0
 10
28.089
 20
-17.0123
 11
28.1508
 21
-17.0383
  0
LINE
  8
0
 10
28.1508
 20
-17.0383
 11
28.2114
 21
-17.0668
  0
LINE
  8
0
 10
28.2114
 20
-17.0668
 11
28.2708
 21
-17.0979
  0
LINE
  8
0
 10
28.2708
 20
-17.0979
 11
28.3288
 21
-17.1314
  0
LINE
  8
0
 10
28.3288
 20
-17.1314
 11
28.3854
 21
-17.1673
  0
LINE
  8
0
 10
28.3854
 20
-17.1673
 11
28.4404
 21
-17.2056
  0
LINE
  8
0
 10
28.4404
 20
-17.2056
 11
28.4938
 21
-17.2461
  0
LINE
  8
0
 10
28.4938
 20
-17.2461
 11
28.5455
 21
-17.2888
  0
LINE
  8
0
 10
28.5455
 20
-17.2888
 11
28.5953
 21
-17.3336
  0
LINE
  8
0
 10
28.5953
 20
-17.3336
 11
28.6431
 21
-17.3805
  0
LINE
  8
0
 10
28.6431
 20
-17.3805
 11
28.689
 21
-17.4294
  0
LINE
  8
0
 10
28.689
 20
-17.4294
 11
28.7328
 21
-17.4801
  0
LINE
  8
0
 10
28.7328
 20
-17.4801
 11
28.7744
 21
-17.5326
  0
LINE
  8
0
 10
28.7744
 20
-17.5326
 11
28.8138
 21
-17.5868
  0
LINE
  8
0
 10
28.8138
 20
-17.5868
 11
28.8509
 21
-17.6427
  0
LINE
  8
0
 10
28.8509
 20
-17.6427
 11
28.8856
 21
-17.7
  0
LINE
  8
0
 10
28.8856
 20
-17.7
 11
28.9179
 21
-17.7587
  0
LINE
  8
0
 10
28.9179
 20
-17.7587
 11
28.9477
 21
-17.8187
  0
LINE
  8
0
 10
28.9477
 20
-17.8187
 11
28.975
 21
-17.88
  0
LINE
  8
0
 10
28.975
 20
-17.88
 11
28.9996
 21
-17.9423
  0
LINE
  8
0
 10
28.9996
 20
-17.9423
 11
29.0217
 21
-18.0056
  0
LINE
  8
0
 10
29.0217
 20
-18.0056
 11
29.041
 21
-18.0697
  0
LINE
  8
0
 10
29.041
 20
-18.0697
 11
29.0577
 21
-18.1346
  0
LINE
  8
0
 10
29.0577
 20
-18.1346
 11
29.0717
 21
-18.2002
  0
LINE
  8
0
 10
29.0717
 20
-18.2002
 11
29.0828
 21
-18.2663
  0
LINE
  8
0
 10
29.0828
 20
-18.2663
 11
29.0912
 21
-18.3327
  0
LINE
  8
0
 10
29.0912
 20
-18.3327
 11
29.0968
 21
-18.3995
  0
LINE
  8
0
 10
29.0968
 20
-18.3995
 11
29.0996
 21
-18.4665
  0
LINE
  8
0
 10
29.0996
 20
-18.4665
 11
29.0996
 21
-18.5335
  0
LINE
  8
0
 10
29.0996
 20
-18.5335
 11
29.0968
 21
-18.6004
  0
LINE
  8
0
 10
29.0968
 20
-18.6004
 11
29.0912
 21
-18.6672
  0
LINE
  8
0
 10
29.0912
 20
-18.6672
 11
29.0828
 21
-18.7337
  0
LINE
  8
0
 10
29.0828
 20
-18.7337
 11
29.0717
 21
-18.7998
  0
LINE
  8
0
 10
29.0717
 20
-18.7998
 11
29.0577
 21
-18.8653
  0
LINE
  8
0
 10
29.0577
 20
-18.8653
 11
29.041
 21
-18.9303
  0
LINE
  8
0
 10
29.041
 20
-18.9303
 11
29.0217
 21
-18.9944
  0
LINE
  8
0
 10
29.0217
 20
-18.9944
 11
28.9996
 21
-19.0577
  0
LINE
  8
0
 10
28.9996
 20
-19.0577
 11
28.975
 21
-19.12
  0
LINE
  8
0
 10
28.975
 20
-19.12
 11
28.9477
 21
-19.1812
  0
LINE
  8
0
 10
28.9477
 20
-19.1812
 11
28.9179
 21
-19.2413
  0
LINE
  8
0
 10
28.9179
 20
-19.2413
 11
28.8856
 21
-19.3
  0
LINE
  8
0
 10
28.8856
 20
-19.3
 11
28.8509
 21
-19.3573
  0
LINE
  8
0
 10
28.8509
 20
-19.3573
 11
28.8138
 21
-19.4131
  0
LINE
  8
0
 10
28.8138
 20
-19.4131
 11
28.7744
 21
-19.4673
  0
LINE
  8
0
 10
28.7744
 20
-19.4673
 11
28.7328
 21
-19.5199
  0
LINE
  8
0
 10
28.7328
 20
-19.5199
 11
28.689
 21
-19.5706
  0
LINE
  8
0
 10
28.689
 20
-19.5706
 11
28.6431
 21
-19.6194
  0
LINE
  8
0
 10
28.6431
 20
-19.6194
 11
28.5953
 21
-19.6663
  0
LINE
  8
0
 10
28.5953
 20
-19.6663
 11
28.5455
 21
-19.7112
  0
LINE
  8
0
 10
28.5455
 20
-19.7112
 11
28.4938
 21
-19.7539
  0
LINE
  8
0
 10
28.4938
 20
-19.7539
 11
28.4404
 21
-19.7944
  0
LINE
  8
0
 10
28.4404
 20
-19.7944
 11
28.3854
 21
-19.8327
  0
LINE
  8
0
 10
28.3854
 20
-19.8327
 11
28.3288
 21
-19.8686
  0
LINE
  8
0
 10
28.3288
 20
-19.8686
 11
28.2708
 21
-19.9021
  0
LINE
  8
0
 10
28.2708
 20
-19.9021
 11
28.2114
 21
-19.9331
  0
LINE
  8
0
 10
28.2114
 20
-19.9331
 11
28.1508
 21
-19.9617
  0
LINE
  8
0
 10
28.1508
 20
-19.9617
 11
28.089
 21
-19.9876
  0
LINE
  8
0
 10
28.089
 20
-19.9876
 11
28.0262
 21
-20.011
  0
LINE
  8
0
 10
28.0262
 20
-20.011
 11
27.9624
 21
-20.0317
  0
LINE
  8
0
 10
27.9624
 20
-20.0317
 11
27.8979
 21
-20.0497
  0
LINE
  8
0
 10
27.8979
 20
-20.0497
 11
27.8327
 21
-20.065
  0
LINE
  8
0
 10
27.8327
 20
-20.065
 11
27.7668
 21
-20.0776
  0
LINE
  8
0
 10
27.7668
 20
-20.0776
 11
27.7005
 21
-20.0874
  0
LINE
  8
0
 10
27.7005
 20
-20.0874
 11
27.6339
 21
-20.0944
  0
LINE
  8
0
 10
27.6339
 20
-20.0944
 11
27.567
 21
-20.0986
  0
LINE
  8
0
 10
27.567
 20
-20.0986
 11
27.5
 21
-20.1
  0
LINE
  8
0
 10
27.5
 20
-20.1
 11
27.433
 21
-20.0986
  0
LINE
  8
0
 10
52.433
 20
-20.0986
 11
52.3661
 21
-20.0944
  0
LINE
  8
0
 10
52.3661
 20
-20.0944
 11
52.2994
 21
-20.0874
  0
LINE
  8
0
 10
52.2994
 20
-20.0874
 11
52.2332
 21
-20.0776
  0
LINE
  8
0
 10
52.2332
 20
-20.0776
 11
52.1673
 21
-20.065
  0
LINE
  8
0
 10
52.1673
 20
-20.065
 11
52.1021
 21
-20.0497
  0
LINE
  8
0
 10
52.1021
 20
-20.0497
 11
52.0375
 21
-20.0317
  0
LINE
  8
0
 10
52.0375
 20
-20.0317
 11
51.9738
 21
-20.011
  0
LINE
  8
0
 10
51.9738
 20
-20.011
 11
51.911
 21
-19.9876
  0
LINE
  8
0
 10
51.911
 20
-19.9876
 11
51.8492
 21
-19.9617
  0
LINE
  8
0
 10
51.8492
 20
-19.9617
 11
51.7886
 21
-19.9331
  0
LINE
  8
0
 10
51.7886
 20
-19.9331
 11
51.7292
 21
-19.9021
  0
LINE
  8
0
 10
51.7292
 20
-19.9021
 11
51.6711
 21
-19.8686
  0
LINE
  8
0
 10
51.6711
 20
-19.8686
 11
51.6146
 21
-19.8327
  0
LINE
  8
0
 10
51.6146
 20
-19.8327
 11
51.5595
 21
-19.7944
  0
LINE
  8
0
 10
51.5595
 20
-19.7944
 11
51.5061
 21
-19.7539
  0
LINE
  8
0
 10
51.5061
 20
-19.7539
 11
51.4545
 21
-19.7112
  0
LINE
  8
0
 10
51.4545
 20
-19.7112
 11
51.4047
 21
-19.6663
  0
LINE
  8
0
 10
51.4047
 20
-19.6663
 11
51.3568
 21
-19.6194
  0
LINE
  8
0
 10
51.3568
 20
-19.6194
 11
51.311
 21
-19.5706
  0
LINE
  8
0
 10
51.311
 20
-19.5706
 11
51.2672
 21
-19.5199
  0
LINE
  8
0
 10
51.2672
 20
-19.5199
 11
51.2255
 21
-19.4673
  0
LINE
  8
0
 10
51.2255
 20
-19.4673
 11
51.1862
 21
-19.4131
  0
LINE
  8
0
 10
51.1862
 20
-19.4131
 11
51.1491
 21
-19.3573
  0
LINE
  8
0
 10
51.1491
 20
-19.3573
 11
51.1143
 21
-19.3
  0
LINE
  8
0
 10
51.1143
 20
-19.3
 11
51.0821
 21
-19.2413
  0
LINE
  8
0
 10
51.0821
 20
-19.2413
 11
51.0523
 21
-19.1812
  0
LINE
  8
0
 10
51.0523
 20
-19.1812
 11
51.025
 21
-19.12
  0
LINE
  8
0
 10
51.025
 20
-19.12
 11
51.0003
 21
-19.0577
  0
LINE
  8
0
 10
51.0003
 20
-19.0577
 11
50.9783
 21
-18.9944
  0
LINE
  8
0
 10
50.9783
 20
-18.9944
 11
50.9589
 21
-18.9303
  0
LINE
  8
0
 10
50.9589
 20
-18.9303
 11
50.9423
 21
-18.8653
  0
LINE
  8
0
 10
50.9423
 20
-18.8653
 11
50.9283
 21
-18.7998
  0
LINE
  8
0
 10
50.9283
 20
-18.7998
 11
50.9172
 21
-18.7337
  0
LINE
  8
0
 10
50.9172
 20
-18.7337
 11
50.9088
 21
-18.6672
  0
LINE
  8
0
 10
50.9088
 20
-18.6672
 11
50.9032
 21
-18.6004
  0
LINE
  8
0
 10
50.9032
 20
-18.6004
 11
50.9003
 21
-18.5335
  0
LINE
  8
0
 10
50.9003
 20
-18.5335
 11
50.9003
 21
-18.4665
  0
LINE
  8
0
 10
50.9003
 20
-18.4665
 11
50.9032
 21
-18.3995
  0
LINE
  8
0
 10
50.9032
 20
-18.3995
 11
50.9088
 21
-18.3327
  0
LINE
  8
0
 10
50.9088
 20
-18.3327
 11
50.9172
 21
-18.2663
  0
LINE
  8
0
 10
50.9172
 20
-18.2663
 11
50.9283
 21
-18.2002
  0
LINE
  8
0
 10
50.9283
 20
-18.2002
 11
50.9423
 21
-18.1346
  0
LINE
  8
0
 10
50.9423
 20
-18.1346
 11
50.9589
 21
-18.0697
  0
LINE
  8
0
 10
50.9589
 20
-18.0697
 11
50.9783
 21
-18.0056
  0
LINE
  8
0
 10
50.9783
 20
-18.0056
 11
51.0003
 21
-17.9423
  0
LINE
  8
0
 10
51.0003
 20
-17.9423
 11
51.025
 21
-17.88
  0
LINE
  8
0
 10
51.025
 20
-17.88
 11
51.0523
 21
-17.8187
  0
LINE
  8
0
 10
51.0523
 20
-17.8187
 11
51.0821
 21
-17.7587
  0
LINE
  8
0
 10
51.0821
 20
-17.7587
 11
51.1143
 21
-17.7
  0
LINE
  8
0
 10
51.1143
 20
-17.7
 11
51.1491
 21
-17.6427
  0
LINE
  8
0
 10
51.1491
 20
-17.6427
 11
51.1862
 21
-17.5868
  0
LINE
  8
0
 10
51.1862
 20
-17.5868
 11
51.2255
 21
-17.5326
  0
LINE
  8
0
 10
51.2255
 20
-17.5326
 11
51.2672
 21
-17.4801
  0
LINE
  8
0
 10
51.2672
 20
-17.4801
 11
51.311
 21
-17.4294
  0
LINE
  8
0
 10
51.311
 20
-17.4294
 11
51.3568
 21
-17.3805
  0
LINE
  8
0
 10
51.3568
 20
-17.3805
 11
51.4047
 21
-17.3336
  0
LINE
  8
0
 10
51.4047
 20
-17.3336
 11
51.4545
 21
-17.2888
  0
LINE
  8
0
 10
51.4545
 20
-17.2888
 11
51.5061
 21
-17.2461
  0
LINE
  8
0
 10
51.5061
 20
-17.2461
 11
51.5595
 21
-17.2056
  0
LINE
  8
0
 10
51.5595
 20
-17.2056
 11
51.6146
 21
-17.1673
  0
LINE
  8
0
 10
51.6146
 20
-17.1673
 11
51.6711
 21
-17.1314
  0
LINE
  8
0
 10
51.6711
 20
-17.1314
 11
51.7292
 21
-17.0979
  0
LINE
  8
0
 10
51.7292
 20
-17.0979
 11
51.7886
 21
-17.0668
  0
LINE
  8
0
 10
51.7886
 20
-17.0668
 11
51.8492
 21
-17.0383
  0
LINE
  8
0
 10
51.8492
 20
-17.0383
 11
51.911
 21
-17.0123
  0
LINE
  8
0
 10
51.911
 20
-17.0123
 11
51.9738
 21
-16.989
  0
LINE
  8
0
 10
51.9738
 20
-16.989
 11
52.0375
 21
-16.9683
  0
LINE
  8
0
 10
52.0375
 20
-16.9683
 11
52.1021
 21
-16.9503
  0
LINE
  8
0
 10
52.1021
 20
-16.9503
 11
52.1673
 21
-16.935
  0
LINE
  8
0
 10
52.1673
 20
-16.935
 11
52.2332
 21
-16.9224
  0
LINE
  8
0
 10
52.2332
 20
-16.9224
 11
52.2995
 21
-16.9126
  0
LINE
  8
0
 10
52.2995
 20
-16.9126
 11
52.3661
 21
-16.9056
  0
LINE
  8
0
 10
52.3661
 20
-16.9056
 11
52.433
 21
-16.9014
  0
LINE
  8
0
 10
52.433
 20
-16.9014
 11
52.5
 21
-16.9
  0
LINE
  8
0
 10
52.5
 20
-16.9
 11
52.567
 21
-16.9014
  0
LINE
  8
0
 10
52.567
 20
-16.9014
 11
52.6339
 21
-16.9056
  0
LINE
  8
0
 10
52.6339
 20
-16.9056
 11
52.7005
 21
-16.9126
  0
LINE
  8
0
 10
52.7005
 20
-16.9126
 11
52.7668
 21
-16.9224
  0
LINE
  8
0
 10
52.7668
 20
-16.9224
 11
52.8327
 21
-16.935
  0
LINE
  8
0
 10
52.8327
 20
-16.935
 11
52.8979
 21
-16.9503
  0
LINE
  8
0
 10
52.8979
 20
-16.9503
 11
52.9624
 21
-16.9683
  0
LINE
  8
0
 10
52.9624
 20
-16.9683
 11
53.0262
 21
-16.989
  0
LINE
  8
0
 10
53.0262
 20
-16.989
 11
53.089
 21
-17.0123
  0
LINE
  8
0
 10
53.089
 20
-17.0123
 11
53.1508
 21
-17.0383
  0
LINE
  8
0
 10
53.1508
 20
-17.0383
 11
53.2114
 21
-17.0668
  0
LINE
  8
0
 10
53.2114
 20
-17.0668
 11
53.2708
 21
-17.0979
  0
LINE
  8
0
 10
53.2708
 20
-17.0979
 11
53.3288
 21
-17.1314
  0
LINE
  8
0
 10
53.3288
 20
-17.1314
 11
53.3854
 21
-17.1673
  0
LINE
  8
0
 10
53.3854
 20
-17.1673
 11
53.4404
 21
-17.2056
  0
LINE
  8
0
 10
53.4404
 20
-17.2056
 11
53.4938
 21
-17.2461
  0
LINE
  8
0
 10
53.4938
 20
-17.2461
 11
53.5455
 21
-17.2888
  0
LINE
  8
0
 10
53.5455
 20
-17.2888
 11
53.5953
 21
-17.3336
  0
LINE
  8
0
 10
53.5953
 20
-17.3336
 11
53.6431
 21
-17.3805
  0
LINE
  8
0
 10
53.6431
 20
-17.3805
 11
53.689
 21
-17.4294
  0
LINE
  8
0
 10
53.689
 20
-17.4294
 11
53.7328
 21
-17.4801
  0
LINE
  8
0
 10
53.7328
 20
-17.4801
 11
53.7744
 21
-17.5326
  0
LINE
  8
0
 10
53.7744
 20
-17.5326
 11
53.8138
 21
-17.5869
  0
LINE
  8
0
 10
53.8138
 20
-17.5869
 11
53.8509
 21
-17.6427
  0
LINE
  8
0
 10
53.8509
 20
-17.6427
 11
53.8856
 21
-17.7
  0
LINE
  8
0
 10
53.8856
 20
-17.7
 11
53.9179
 21
-17.7587
  0
LINE
  8
0
 10
53.9179
 20
-17.7587
 11
53.9477
 21
-17.8187
  0
LINE
  8
0
 10
53.9477
 20
-17.8187
 11
53.975
 21
-17.88
  0
LINE
  8
0
 10
53.975
 20
-17.88
 11
53.9996
 21
-17.9423
  0
LINE
  8
0
 10
53.9996
 20
-17.9423
 11
54.0217
 21
-18.0056
  0
LINE
  8
0
 10
54.0217
 20
-18.0056
 11
54.041
 21
-18.0697
  0
LINE
  8
0
 10
54.041
 20
-18.0697
 11
54.0577
 21
-18.1346
  0
LINE
  8
0
 10
54.0577
 20
-18.1346
 11
54.0716
 21
-18.2002
  0
LINE
  8
0
 10
54.0716
 20
-18.2002
 11
54.0828
 21
-18.2663
  0
LINE
  8
0
 10
54.0828
 20
-18.2663
 11
54.0912
 21
-18.3327
  0
LINE
  8
0
 10
54.0912
 20
-18.3327
 11
54.0968
 21
-18.3995
  0
LINE
  8
0
 10
54.0968
 20
-18.3995
 11
54.0996
 21
-18.4665
  0
LINE
  8
0
 10
54.0996
 20
-18.4665
 11
54.0996
 21
-18.5335
  0
LINE
  8
0
 10
54.0996
 20
-18.5335
 11
54.0968
 21
-18.6005
  0
LINE
  8
0
 10
54.0968
 20
-18.6005
 11
54.0912
 21
-18.6672
  0
LINE
  8
0
 10
54.0912
 20
-18.6672
 11
54.0828
 21
-18.7337
  0
LINE
  8
0
 10
54.0828
 20
-18.7337
 11
54.0716
 21
-18.7998
  0
LINE
  8
0
 10
54.0716
 20
-18.7998
 11
54.0577
 21
-18.8654
  0
LINE
  8
0
 10
54.0577
 20
-18.8654
 11
54.041
 21
-18.9303
  0
LINE
  8
0
 10
54.041
 20
-18.9303
 11
54.0217
 21
-18.9944
  0
LINE
  8
0
 10
54.0217
 20
-18.9944
 11
53.9996
 21
-19.0577
  0
LINE
  8
0
 10
53.9996
 20
-19.0577
 11
53.975
 21
-19.12
  0
LINE
  8
0
 10
53.975
 20
-19.12
 11
53.9477
 21
-19.1812
  0
LINE
  8
0
 10
53.9477
 20
-19.1812
 11
53.9179
 21
-19.2413
  0
LINE
  8
0
 10
53.9179
 20
-19.2413
 11
53.8856
 21
-19.3
  0
LINE
  8
0
 10
53.8856
 20
-19.3
 11
53.8509
 21
-19.3573
  0
LINE
  8
0
 10
53.8509
 20
-19.3573
 11
53.8138
 21
-19.4131
  0
LINE
  8
0
 10
53.8138
 20
-19.4131
 11
53.7744
 21
-19.4673
  0
LINE
  8
0
 10
53.7744
 20
-19.4673
 11
53.7328
 21
-19.5199
  0
LINE
  8
0
 10
53.7328
 20
-19.5199
 11
53.689
 21
-19.5706
  0
LINE
  8
0
 10
53.689
 20
-19.5706
 11
53.6431
 21
-19.6195
  0
LINE
  8
0
 10
53.6431
 20
-19.6195
 11
53.5952
 21
-19.6663
  0
LINE
  8
0
 10
53.5952
 20
-19.6663
 11
53.5455
 21
-19.7112
  0
LINE
  8
0
 10
53.5455
 20
-19.7112
 11
53.4938
 21
-19.7539
  0
LINE
  8
0
 10
53.4938
 20
-19.7539
 11
53.4404
 21
-19.7944
  0
LINE
  8
0
 10
53.4404
 20
-19.7944
 11
53.3854
 21
-19.8327
  0
LINE
  8
0
 10
53.3854
 20
-19.8327
 11
53.3288
 21
-19.8686
  0
LINE
  8
0
 10
53.3288
 20
-19.8686
 11
53.2708
 21
-19.9021
  0
LINE
  8
0
 10
53.2708
 20
-19.9021
 11
53.2114
 21
-19.9331
  0
LINE
  8
0
 10
53.2114
 20
-19.9331
 11
53.1508
 21
-19.9617
  0
LINE
  8
0
 10
53.1508
 20
-19.9617
 11
53.089
 21
-19.9876
  0
LINE
  8
0
 10
53.089
 20
-19.9876
 11
53.0262
 21
-20.011
  0
LINE
  8
0
 10
53.0262
 20
-20.011
 11
52.9624
 21
-20.0317
  0
LINE
  8
0
 10
52.9624
 20
-20.0317
 11
52.8979
 21
-20.0497
  0
LINE
  8
0
 10
52.8979
 20
-20.0497
 11
52.8326
 21
-20.065
  0
LINE
  8
0
 10
52.8326
 20
-20.065
 11
52.7668
 21
-20.0776
  0
LINE
  8
0
 10
52.7668
 20
-20.0776
 11
52.7005
 21
-20.0874
  0
LINE
  8
0
 10
52.7005
 20
-20.0874
 11
52.6339
 21
-20.0944
  0
LINE
  8
0
 10
52.6339
 20
-20.0944
 11
52.567
 21
-20.0986
  0
LINE
  8
0
 10
52.567
 20
-20.0986
 11
52.5
 21
-20.1
  0
LINE
  8
0
 10
52.5
 20
-20.1
 11
52.433
 21
-20.0986
  0
LINE
  8
0
 10
84.4975
 20
-47.9895
 11
83.9958
 21
-47.9579
  0
LINE
  8
0
 10
83.9958
 20
-47.9579
 11
83.496
 21
-47.9054
  0
LINE
  8
0
 10
83.496
 20
-47.9054
 11
82.9987
 21
-47.8319
  0
LINE
  8
0
 10
82.9987
 20
-47.8319
 11
82.505
 21
-47.7378
  0
LINE
  8
0
 10
82.505
 20
-47.7378
 11
82.0157
 21
-47.623
  0
LINE
  8
0
 10
82.0157
 20
-47.623
 11
81.5316
 21
-47.4878
  0
LINE
  8
0
 10
81.5316
 20
-47.4878
 11
81.0536
 21
-47.3325
  0
LINE
  8
0
 10
81.0536
 20
-47.3325
 11
80.5825
 21
-47.1573
  0
LINE
  8
0
 10
80.5825
 20
-47.1573
 11
80.1191
 21
-46.9625
  0
LINE
  8
0
 10
80.1191
 20
-46.9625
 11
79.6644
 21
-46.7485
  0
LINE
  8
0
 10
79.6644
 20
-46.7485
 11
79.2189
 21
-46.5157
  0
LINE
  8
0
 10
79.2189
 20
-46.5157
 11
78.7836
 21
-46.2644
  0
LINE
  8
0
 10
78.7836
 20
-46.2644
 11
78.3593
 21
-45.995
  0
LINE
  8
0
 10
78.3593
 20
-45.995
 11
77.9465
 21
-45.7082
  0
LINE
  8
0
 10
77.9465
 20
-45.7082
 11
77.5462
 21
-45.4043
  0
LINE
  8
0
 10
77.5462
 20
-45.4043
 11
77.1589
 21
-45.0839
  0
LINE
  8
0
 10
77.1589
 20
-45.0839
 11
76.7854
 21
-44.7476
  0
LINE
  8
0
 10
76.7854
 20
-44.7476
 11
76.4263
 21
-44.396
  0
LINE
  8
0
 10
76.4263
 20
-44.396
 11
76.0822
 21
-44.0296
  0
LINE
  8
0
 10
76.0822
 20
-44.0296
 11
75.7538
 21
-43.6491
  0
LINE
  8
0
 10
75.7538
 20
-43.6491
 11
75.4416
 21
-43.2552
  0
LINE
  8
0
 10
75.4416
 20
-43.2552
 11
75.1462
 21
-42.8486
  0
LINE
  8
0
 10
75.1462
 20
-42.8486
 11
74.868
 21
-42.4299
  0
LINE
  8
0
 10
74.868
 20
-42.4299
 11
74.6077
 21
-42
  0
LINE
  8
0
 10
74.6077
 20
-42
 11
74.3655
 21
-41.5595
  0
LINE
  8
0
 10
74.3655
 20
-41.5595
 11
74.1421
 21
-41.1093
  0
LINE
  8
0
 10
74.1421
 20
-41.1093
 11
73.9376
 21
-40.6502
  0
LINE
  8
0
 10
73.9376
 20
-40.6502
 11
73.7526
 21
-40.1829
  0
LINE
  8
0
 10
73.7526
 20
-40.1829
 11
73.5873
 21
-39.7082
  0
LINE
  8
0
 10
73.5873
 20
-39.7082
 11
73.442
 21
-39.227
  0
LINE
  8
0
 10
73.442
 20
-39.227
 11
73.317
 21
-38.7402
  0
LINE
  8
0
 10
73.317
 20
-38.7402
 11
73.2125
 21
-38.2486
  0
LINE
  8
0
 10
73.2125
 20
-38.2486
 11
73.1287
 21
-37.753
  0
LINE
  8
0
 10
73.1287
 20
-37.753
 11
73.0657
 21
-37.2543
  0
LINE
  8
0
 10
73.0657
 20
-37.2543
 11
73.0237
 21
-36.7535
  0
LINE
  8
0
 10
73.0237
 20
-36.7535
 11
73.0026
 21
-36.2513
  0
LINE
  8
0
 10
73.0026
 20
-36.2513
 11
73.0026
 21
-35.7487
  0
LINE
  8
0
 10
73.0026
 20
-35.7487
 11
73.0237
 21
-35.2465
  0
LINE
  8
0
 10
73.0237
 20
-35.2465
 11
73.0657
 21
-34.7457
  0
LINE
  8
0
 10
73.0657
 20
-34.7457
 11
73.1287
 21
-34.247
  0
LINE
  8
0
 10
73.1287
 20
-34.247
 11
73.2125
 21
-33.7514
  0
LINE
  8
0
 10
73.2125
 20
-33.7514
 11
73.317
 21
-33.2598
  0
LINE
  8
0
 10
73.317
 20
-33.2598
 11
73.442
 21
-32.7729
  0
LINE
  8
0
 10
73.442
 20
-32.7729
 11
73.5873
 21
-32.2918
  0
LINE
  8
0
 10
73.5873
 20
-32.2918
 11
73.7526
 21
-31.8171
  0
LINE
  8
0
 10
73.7526
 20
-31.8171
 11
73.9376
 21
-31.3498
  0
LINE
  8
0
 10
73.9376
 20
-31.3498
 11
74.1421
 21
-30.8906
  0
LINE
  8
0
 10
74.1421
 20
-30.8906
 11
74.3656
 21
-30.4404
  0
LINE
  8
0
 10
74.3656
 20
-30.4404
 11
74.6077
 21
-30
  0
LINE
  8
0
 10
74.6077
 20
-30
 11
74.8681
 21
-29.5701
  0
LINE
  8
0
 10
74.8681
 20
-29.5701
 11
75.1462
 21
-29.1514
  0
LINE
  8
0
 10
75.1462
 20
-29.1514
 11
75.4416
 21
-28.7448
  0
LINE
  8
0
 10
75.4416
 20
-28.7448
 11
75.7538
 21
-28.3509
  0
LINE
  8
0
 10
75.7538
 20
-28.3509
 11
76.0823
 21
-27.9704
  0
LINE
  8
0
 10
76.0823
 20
-27.9704
 11
76.4263
 21
-27.604
  0
LINE
  8
0
 10
76.4263
 20
-27.604
 11
76.7854
 21
-27.2524
  0
LINE
  8
0
 10
76.7854
 20
-27.2524
 11
77.159
 21
-26.916
  0
LINE
  8
0
 10
77.159
 20
-26.916
 11
77.5462
 21
-26.5957
  0
LINE
  8
0
 10
77.5462
 20
-26.5957
 11
77.9466
 21
-26.2918
  0
LINE
  8
0
 10
77.9466
 20
-26.2918
 11
78.3593
 21
-26.0049
  0
LINE
  8
0
 10
78.3593
 20
-26.0049
 11
78.7837
 21
-25.7356
  0
LINE
  8
0
 10
78.7837
 20
-25.7356
 11
79.2189
 21
-25.4843
  0
LINE
  8
0
 10
79.2189
 20
-25.4843
 11
79.6644
 21
-25.2514
  0
LINE
  8
0
 10
79.6644
 20
-25.2514
 11
80.1192
 21
-25.0374
  0
LINE
  8
0
 10
80.1192
 20
-25.0374
 11
80.5825
 21
-24.8427
  0
LINE
  8
0
 10
80.5825
 20
-24.8427
 11
81.0536
 21
-24.6675
  0
LINE
  8
0
 10
81.0536
 20
-24.6675
 11
81.5316
 21
-24.5122
  0
LINE
  8
0
 10
81.5316
 20
-24.5122
 11
82.0157
 21
-24.377
  0
LINE
  8
0
 10
82.0157
 20
-24.377
 11
82.5051
 21
-24.2622
  0
LINE
  8
0
 10
82.5051
 20
-24.2622
 11
82.9988
 21
-24.168
  0
LINE
  8
0
 10
82.9988
 20
-24.168
 11
83.496
 21
-24.0946
  0
LINE
  8
0
 10
83.496
 20
-24.0946
 11
83.9959
 21
-24.0421
  0
LINE
  8
0
 10
83.9959
 20
-24.0421
 11
84.4975
 21
-24.0105
  0
LINE
  8
0
 10
84.4975
 20
-24.0105
 11
85
 21
-24
  0
LINE
  8
0
 10
85
 20
-24
 11
85.5025
 21
-24.0105
  0
LINE
  8
0
 10
85.5025
 20
-24.0105
 11
86.0041
 21
-24.0421
  0
LINE
  8
0
 10
86.0041
 20
-24.0421
 11
86.504
 21
-24.0946
  0
LINE
  8
0
 10
86.504
 20
-24.0946
 11
87.0012
 21
-24.168
  0
LINE
  8
0
 10
87.0012
 20
-24.168
 11
87.4949
 21
-24.2622
  0
LINE
  8
0
 10
87.4949
 20
-24.2622
 11
87.9843
 21
-24.377
  0
LINE
  8
0
 10
87.9843
 20
-24.377
 11
88.4684
 21
-24.5122
  0
LINE
  8
0
 10
88.4684
 20
-24.5122
 11
88.9464
 21
-24.6675
  0
LINE
  8
0
 10
88.9464
 20
-24.6675
 11
89.4175
 21
-24.8427
  0
LINE
  8
0
 10
89.4175
 20
-24.8427
 11
89.8808
 21
-25.0374
  0
LINE
  8
0
 10
89.8808
 20
-25.0374
 11
90.3356
 21
-25.2514
  0
LINE
  8
0
 10
90.3356
 20
-25.2514
 11
90.781
 21
-25.4843
  0
LINE
  8
0
 10
90.781
 20
-25.4843
 11
91.2163
 21
-25.7356
  0
LINE
  8
0
 10
91.2163
 20
-25.7356
 11
91.6407
 21
-26.0049
  0
LINE
  8
0
 10
91.6407
 20
-26.0049
 11
92.0534
 21
-26.2918
  0
LINE
  8
0
 10
92.0534
 20
-26.2918
 11
92.4538
 21
-26.5957
  0
LINE
  8
0
 10
92.4538
 20
-26.5957
 11
92.841
 21
-26.916
  0
LINE
  8
0
 10
92.841
 20
-26.916
 11
93.2146
 21
-27.2524
  0
LINE
  8
0
 10
93.2146
 20
-27.2524
 11
93.5737
 21
-27.604
  0
LINE
  8
0
 10
93.5737
 20
-27.604
 11
93.9177
 21
-27.9704
  0
LINE
  8
0
 10
93.9177
 20
-27.9704
 11
94.2462
 21
-28.3509
  0
LINE
  8
0
 10
94.2462
 20
-28.3509
 11
94.5583
 21
-28.7448
  0
LINE
  8
0
 10
94.5583
 20
-28.7448
 11
94.8538
 21
-29.1514
  0
LINE
  8
0
 10
94.8538
 20
-29.1514
 11
95.1319
 21
-29.5701
  0
LINE
  8
0
 10
95.1319
 20
-29.5701
 11
95.3923
 21
-30
  0
LINE
  8
0
 10
95.3923
 20
-30
 11
95.6344
 21
-30.4404
  0
LINE
  8
0
 10
95.6344
 20
-30.4404
 11
95.8579
 21
-30.8906
  0
LINE
  8
0
 10
95.8579
 20
-30.8906
 11
96.0623
 21
-31.3498
  0
LINE
  8
0
 10
96.0623
 20
-31.3498
 11
96.2474
 21
-31.8171
  0
LINE
  8
0
 10
96.2474
 20
-31.8171
 11
96.4127
 21
-32.2918
  0
LINE
  8
0
 10
96.4127
 20
-32.2918
 11
96.5579
 21
-32.7729
  0
LINE
  8
0
 10
96.5579
 20
-32.7729
 11
96.6829
 21
-33.2598
  0
LINE
  8
0
 10
96.6829
 20
-33.2598
 11
96.7874
 21
-33.7514
  0
LINE
  8
0
 10
96.7874
 20
-33.7514
 11
96.8713
 21
-34.247
  0
LINE
  8
0
 10
96.8713
 20
-34.247
 11
96.9342
 21
-34.7457
  0
LINE
  8
0
 10
96.9342
 20
-34.7457
 11
96.9763
 21
-35.2465
  0
LINE
  8
0
 10
96.9763
 20
-35.2465
 11
96.9974
 21
-35.7487
  0
LINE
  8
0
 10
96.9974
 20
-35.7487
 11
96.9974
 21
-36.2513
  0
LINE
  8
0
 10
96.9974
 20
-36.2513
 11
96.9763
 21
-36.7535
  0
LINE
  8
0
 10
96.9763
 20
-36.7535
 11
96.9342
 21
-37.2543
  0
LINE
  8
0
 10
96.9342
 20
-37.2543
 11
96.8713
 21
-37.753
  0
LINE
  8
0
 10
96.8713
 20
-37.753
 11
96.7874
 21
-38.2486
  0
LINE
  8
0
 10
96.7874
 20
-38.2486
 11
96.6829
 21
-38.7402
  0
LINE
  8
0
 10
96.6829
 20
-38.7402
 11
96.5579
 21
-39.227
  0
LINE
  8
0
 10
96.5579
 20
-39.227
 11
96.4127
 21
-39.7082
  0
LINE
  8
0
 10
96.4127
 20
-39.7082
 11
96.2474
 21
-40.1829
  0
LINE
  8
0
 10
96.2474
 20
-40.1829
 11
96.0623
 21
-40.6502
  0
LINE
  8
0
 10
96.0623
 20
-40.6502
 11
95.8579
 21
-41.1093
  0
LINE
  8
0
 10
95.8579
 20
-41.1093
 11
95.6344
 21
-41.5595
  0
LINE
  8
0
 10
95.6344
 20
-41.5595
 11
95.3923
 21
-42
  0
LINE
  8
0
 10
95.3923
 20
-42
 11
95.1319
 21
-42.4299
  0
LINE
  8
0
 10
95.1319
 20
-42.4299
 11
94.8538
 21
-42.8486
  0
LINE
  8
0
 10
94.8538
 20
-42.8486
 11
94.5583
 21
-43.2552
  0
LINE
  8
0
 10
94.5583
 20
-43.2552
 11
94.2462
 21
-43.6491
  0
LINE
  8
0
 10
94.2462
 20
-43.6491
 11
93.9177
 21
-44.0296
  0
LINE
  8
0
 10
93.9177
 20
-44.0296
 11
93.5737
 21
-44.396
  0
LINE
  8
0
 10
93.5737
 20
-44.396
 11
93.2146
 21
-44.7476
  0
LINE
  8
0
 10
93.2146
 20
-44.7476
 11
92.841
 21
-45.0839
  0
LINE
  8
0
 10
92.841
 20
-45.0839
 11
92.4538
 21
-45.4043
  0
LINE
  8
0
 10
92.4538
 20
-45.4043
 11
92.0534
 21
-45.7082
  0
LINE
  8
0
 10
92.0534
 20
-45.7082
 11
91.6407
 21
-45.995
  0
LINE
  8
0
 10
91.6407
 20
-45.995
 11
91.2163
 21
-46.2644
  0
LINE
  8
0
 10
91.2163
 20
-46.2644
 11
90.781
 21
-46.5157
  0
LINE
  8
0
 10
90.781
 20
-46.5157
 11
90.3356
 21
-46.7485
  0
LINE
  8
0
 10
90.3356
 20
-46.7485
 11
89.8808
 21
-46.9625
  0
LINE
  8
0
 10
89.8808
 20
-46.9625
 11
89.4175
 21
-47.1573
  0
LINE
  8
0
 10
89.4175
 20
-47.1573
 11
88.9464
 21
-47.3325
  0
LINE
  8
0
 10
88.9464
 20
-47.3325
 11
88.4684
 21
-47.4878
  0
LINE
  8
0
 10
88.4684
 20
-47.4878
 11
87.9843
 21
-47.623
  0
LINE
  8
0
 10
87.9843
 20
-47.623
 11
87.4949
 21
-47.7378
  0
LINE
  8
0
 10
87.4949
 20
-47.7378
 11
87.0012
 21
-47.8319
  0
LINE
  8
0
 10
87.0012
 20
-47.8319
 11
86.504
 21
-47.9054
  0
LINE
  8
0
 10
86.504
 20
-47.9054
 11
86.0041
 21
-47.9579
  0
LINE
  8
0
 10
86.0041
 20
-47.9579
 11
85.5025
 21
-47.9895
  0
LINE
  8
0
 10
85.5025
 20
-47.9895
 11
85
 21
-48
  0
LINE
  8
0
 10
85
 20
-48
 11
84.4975
 21
-47.9895
  0
LINE
  8
0
 10
19.5162
 20
-79.8982
 11
19.4326
 21
-79.893
  0
LINE
  8
0
 10
19.4326
 20
-79.893
 11
19.3493
 21
-79.8842
  0
LINE
  8
0
 10
19.3493
 20
-79.8842
 11
19.2664
 21
-79.872
  0
LINE
  8
0
 10
19.2664
 20
-79.872
 11
19.1842
 21
-79.8563
  0
LINE
  8
0
 10
19.1842
 20
-79.8563
 11
19.1026
 21
-79.8371
  0
LINE
  8
0
 10
19.1026
 20
-79.8371
 11
19.0219
 21
-79.8146
  0
LINE
  8
0
 10
19.0219
 20
-79.8146
 11
18.9423
 21
-79.7887
  0
LINE
  8
0
 10
18.9423
 20
-79.7887
 11
18.8637
 21
-79.7595
  0
LINE
  8
0
 10
18.8637
 20
-79.7595
 11
18.7865
 21
-79.7271
  0
LINE
  8
0
 10
18.7865
 20
-79.7271
 11
18.7107
 21
-79.6914
  0
LINE
  8
0
 10
18.7107
 20
-79.6914
 11
18.6365
 21
-79.6526
  0
LINE
  8
0
 10
18.6365
 20
-79.6526
 11
18.5639
 21
-79.6107
  0
LINE
  8
0
 10
18.5639
 20
-79.6107
 11
18.4932
 21
-79.5658
  0
LINE
  8
0
 10
18.4932
 20
-79.5658
 11
18.4244
 21
-79.518
  0
LINE
  8
0
 10
18.4244
 20
-79.518
 11
18.3577
 21
-79.4674
  0
LINE
  8
0
 10
18.3577
 20
-79.4674
 11
18.2932
 21
-79.414
  0
LINE
  8
0
 10
18.2932
 20
-79.414
 11
18.2309
 21
-79.3579
  0
LINE
  8
0
 10
18.2309
 20
-79.3579
 11
18.1711
 21
-79.2993
  0
LINE
  8
0
 10
18.1711
 20
-79.2993
 11
18.1137
 21
-79.2382
  0
LINE
  8
0
 10
18.1137
 20
-79.2382
 11
18.059
 21
-79.1748
  0
LINE
  8
0
 10
18.059
 20
-79.1748
 11
18.0069
 21
-79.1092
  0
LINE
  8
0
 10
18.0069
 20
-79.1092
 11
17.9577
 21
-79.0414
  0
LINE
  8
0
 10
17.9577
 20
-79.0414
 11
17.9113
 21
-78.9716
  0
LINE
  8
0
 10
17.9113
 20
-78.9716
 11
17.8679
 21
-78.9
  0
LINE
  8
0
 10
17.8679
 20
-78.9
 11
17.8276
 21
-78.8266
  0
LINE
  8
0
 10
17.8276
 20
-78.8266
 11
17.7903
 21
-78.7515
  0
LINE
  8
0
 10
17.7903
 20
-78.7515
 11
17.7563
 21
-78.675
  0
LINE
  8
0
 10
17.7563
 20
-78.675
 11
17.7254
 21
-78.5971
  0
LINE
  8
0
 10
17.7254
 20
-78.5971
 11
17.6979
 21
-78.518
  0
LINE
  8
0
 10
17.6979
 20
-78.518
 11
17.6737
 21
-78.4378
  0
LINE
  8
0
 10
17.6737
 20
-78.4378
 11
17.6528
 21
-78.3567
  0
LINE
  8
0
 10
17.6528
 20
-78.3567
 11
17.6354
 21
-78.2747
  0
LINE
  8
0
 10
17.6354
 20
-78.2747
 11
17.6214
 21
-78.1921
  0
LINE
  8
0
 10
17.6214
 20
-78.1921
 11
17.6109
 21
-78.109
  0
LINE
  8
0
 10
17.6109
 20
-78.109
 11
17.6039
 21
-78.0256
  0
LINE
  8
0
 10
17.6039
 20
-78.0256
 11
17.6004
 21
-77.9419
  0
LINE
  8
0
 10
17.6004
 20
-77.9419
 11
17.6004
 21
-77.8581
  0
LINE
  8
0
 10
17.6004
 20
-77.8581
 11
17.6039
 21
-77.7744
  0
LINE
  8
0
 10
17.6039
 20
-77.7744
 11
17.6109
 21
-77.6909
  0
LINE
  8
0
 10
17.6109
 20
-77.6909
 11
17.6214
 21
-77.6078
  0
LINE
  8
0
 10
17.6214
 20
-77.6078
 11
17.6354
 21
-77.5252
  0
LINE
  8
0
 10
17.6354
 20
-77.5252
 11
17.6528
 21
-77.4433
  0
LINE
  8
0
 10
17.6528
 20
-77.4433
 11
17.6737
 21
-77.3621
  0
LINE
  8
0
 10
17.6737
 20
-77.3621
 11
17.6979
 21
-77.2819
  0
LINE
  8
0
 10
17.6979
 20
-77.2819
 11
17.7254
 21
-77.2028
  0
LINE
  8
0
 10
17.7254
 20
-77.2028
 11
17.7563
 21
-77.1249
  0
LINE
  8
0
 10
17.7563
 20
-77.1249
 11
17.7903
 21
-77.0484
  0
LINE
  8
0
 10
17.7903
 20
-77.0484
 11
17.8276
 21
-76.9734
  0
LINE
  8
0
 10
17.8276
 20
-76.9734
 11
17.8679
 21
-76.9
  0
LINE
  8
0
 10
17.8679
 20
-76.9
 11
17.9113
 21
-76.8283
  0
LINE
  8
0
 10
17.9113
 20
-76.8283
 11
17.9577
 21
-76.7585
  0
LINE
  8
0
 10
17.9577
 20
-76.7585
 11
18.0069
 21
-76.6908
  0
LINE
  8
0
 10
18.0069
 20
-76.6908
 11
18.059
 21
-76.6251
  0
LINE
  8
0
 10
18.059
 20
-76.6251
 11
18.1137
 21
-76.5617
  0
LINE
  8
0
 10
18.1137
 20
-76.5617
 11
18.1711
 21
-76.5007
  0
LINE
  8
0
 10
18.1711
 20
-76.5007
 11
18.2309
 21
-76.442
  0
LINE
  8
0
 10
18.2309
 20
-76.442
 11
18.2932
 21
-76.386
  0
LINE
  8
0
 10
18.2932
 20
-76.386
 11
18.3577
 21
-76.3326
  0
LINE
  8
0
 10
18.3577
 20
-76.3326
 11
18.4244
 21
-76.2819
  0
LINE
  8
0
 10
18.4244
 20
-76.2819
 11
18.4932
 21
-76.2341
  0
LINE
  8
0
 10
18.4932
 20
-76.2341
 11
18.5639
 21
-76.1893
  0
LINE
  8
0
 10
18.5639
 20
-76.1893
 11
18.6365
 21
-76.1474
  0
LINE
  8
0
 10
18.6365
 20
-76.1474
 11
18.7107
 21
-76.1086
  0
LINE
  8
0
 10
18.7107
 20
-76.1086
 11
18.7865
 21
-76.0729
  0
LINE
  8
0
 10
18.7865
 20
-76.0729
 11
18.8637
 21
-76.0404
  0
LINE
  8
0
 10
18.8637
 20
-76.0404
 11
18.9423
 21
-76.0112
  0
LINE
  8
0
 10
18.9423
 20
-76.0112
 11
19.0219
 21
-75.9853
  0
LINE
  8
0
 10
19.0219
 20
-75.9853
 11
19.1026
 21
-75.9628
  0
LINE
  8
0
 10
19.1026
 20
-75.9628
 11
19.1842
 21
-75.9437
  0
LINE
  8
0
 10
19.1842
 20
-75.9437
 11
19.2664
 21
-75.928
  0
LINE
  8
0
 10
19.2664
 20
-75.928
 11
19.3493
 21
-75.9157
  0
LINE
  8
0
 10
19.3493
 20
-75.9157
 11
19.4326
 21
-75.907
  0
LINE
  8
0
 10
19.4326
 20
-75.907
 11
19.5162
 21
-75.9017
  0
LINE
  8
0
 10
19.5162
 20
-75.9017
 11
19.6
 21
-75.9
  0
LINE
  8
0
 10
19.6
 20
-75.9
 11
19.6837
 21
-75.9017
  0
LINE
  8
0
 10
19.6837
 20
-75.9017
 11
19.7673
 21
-75.907
  0
LINE
  8
0
 10
19.7673
 20
-75.907
 11
19.8507
 21
-75.9157
  0
LINE
  8
0
 10
19.8507
 20
-75.9157
 11
19.9335
 21
-75.928
  0
LINE
  8
0
 10
19.9335
 20
-75.928
 11
20.0158
 21
-75.9437
  0
LINE
  8
0
 10
20.0158
 20
-75.9437
 11
20.0974
 21
-75.9628
  0
LINE
  8
0
 10
20.0974
 20
-75.9628
 11
20.1781
 21
-75.9853
  0
LINE
  8
0
 10
20.1781
 20
-75.9853
 11
20.2577
 21
-76.0112
  0
LINE
  8
0
 10
20.2577
 20
-76.0112
 11
20.3362
 21
-76.0404
  0
LINE
  8
0
 10
20.3362
 20
-76.0404
 11
20.4135
 21
-76.0729
  0
LINE
  8
0
 10
20.4135
 20
-76.0729
 11
20.4893
 21
-76.1086
  0
LINE
  8
0
 10
20.4893
 20
-76.1086
 11
20.5635
 21
-76.1474
  0
LINE
  8
0
 10
20.5635
 20
-76.1474
 11
20.636
 21
-76.1893
  0
LINE
  8
0
 10
20.636
 20
-76.1893
 11
20.7068
 21
-76.2341
  0
LINE
  8
0
 10
20.7068
 20
-76.2341
 11
20.7756
 21
-76.2819
  0
LINE
  8
0
 10
20.7756
 20
-76.2819
 11
20.8423
 21
-76.3326
  0
LINE
  8
0
 10
20.8423
 20
-76.3326
 11
20.9068
 21
-76.386
  0
LINE
  8
0
 10
20.9068
 20
-76.386
 11
20.9691
 21
-76.442
  0
LINE
  8
0
 10
20.9691
 20
-76.442
 11
21.0289
 21
-76.5007
  0
LINE
  8
0
 10
21.0289
 20
-76.5007
 11
21.0863
 21
-76.5617
  0
LINE
  8
0
 10
21.0863
 20
-76.5617
 11
21.141
 21
-76.6251
  0
LINE
  8
0
 10
21.141
 20
-76.6251
 11
21.1931
 21
-76.6908
  0
LINE
  8
0
 10
21.1931
 20
-76.6908
 11
21.2423
 21
-76.7585
  0
LINE
  8
0
 10
21.2423
 20
-76.7585
 11
21.2887
 21
-76.8283
  0
LINE
  8
0
 10
21.2887
 20
-76.8283
 11
21.332
 21
-76.9
  0
LINE
  8
0
 10
21.332
 20
-76.9
 11
21.3724
 21
-76.9734
  0
LINE
  8
0
 10
21.3724
 20
-76.9734
 11
21.4097
 21
-77.0484
  0
LINE
  8
0
 10
21.4097
 20
-77.0484
 11
21.4437
 21
-77.1249
  0
LINE
  8
0
 10
21.4437
 20
-77.1249
 11
21.4746
 21
-77.2028
  0
LINE
  8
0
 10
21.4746
 20
-77.2028
 11
21.5021
 21
-77.2819
  0
LINE
  8
0
 10
21.5021
 20
-77.2819
 11
21.5263
 21
-77.3621
  0
LINE
  8
0
 10
21.5263
 20
-77.3621
 11
21.5471
 21
-77.4433
  0
LINE
  8
0
 10
21.5471
 20
-77.4433
 11
21.5646
 21
-77.5252
  0
LINE
  8
0
 10
21.5646
 20
-77.5252
 11
21.5785
 21
-77.6078
  0
LINE
  8
0
 10
21.5785
 20
-77.6078
 11
21.589
 21
-77.6909
  0
LINE
  8
0
 10
21.589
 20
-77.6909
 11
21.596
 21
-77.7744
  0
LINE
  8
0
 10
21.596
 20
-77.7744
 11
21.5995
 21
-77.8581
  0
LINE
  8
0
 10
21.5995
 20
-77.8581
 11
21.5995
 21
-77.9419
  0
LINE
  8
0
 10
21.5995
 20
-77.9419
 11
21.596
 21
-78.0256
  0
LINE
  8
0
 10
21.596
 20
-78.0256
 11
21.589
 21
-78.109
  0
LINE
  8
0
 10
21.589
 20
-78.109
 11
21.5785
 21
-78.1921
  0
LINE
  8
0
 10
21.5785
 20
-78.1921
 11
21.5646
 21
-78.2747
  0
LINE
  8
0
 10
21.5646
 20
-78.2747
 11
21.5471
 21
-78.3567
  0
LINE
  8
0
 10
21.5471
 20
-78.3567
 11
21.5263
 21
-78.4378
  0
LINE
  8
0
 10
21.5263
 20
-78.4378
 11
21.5021
 21
-78.518
  0
LINE
  8
0
 10
21.5021
 20
-78.518
 11
21.4746
 21
-78.5971
  0
LINE
  8
0
 10
21.4746
 20
-78.5971
 11
21.4437
 21
-78.675
  0
LINE
  8
0
 10
21.4437
 20
-78.675
 11
21.4097
 21
-78.7515
  0
LINE
  8
0
 10
21.4097
 20
-78.7515
 11
21.3724
 21
-78.8266
  0
LINE
  8
0
 10
21.3724
 20
-78.8266
 11
21.332
 21
-78.9
  0
LINE
  8
0
 10
21.332
 20
-78.9
 11
21.2887
 21
-78.9716
  0
LINE
  8
0
 10
21.2887
 20
-78.9716
 11
21.2423
 21
-79.0414
  0
LINE
  8
0
 10
21.2423
 20
-79.0414
 11
21.1931
 21
-79.1092
  0
LINE
  8
0
 10
21.1931
 20
-79.1092
 11
21.141
 21
-79.1748
  0
LINE
  8
0
 10
21.141
 20
-79.1748
 11
21.0863
 21
-79.2382
  0
LINE
  8
0
 10
21.0863
 20
-79.2382
 11
21.0289
 21
-79.2993
  0
LINE
  8
0
 10
21.0289
 20
-79.2993
 11
20.9691
 21
-79.3579
  0
LINE
  8
0
 10
20.9691
 20
-79.3579
 11
20.9068
 21
-79.414
  0
LINE
  8
0
 10
20.9068
 20
-79.414
 11
20.8423
 21
-79.4674
  0
LINE
  8
0
 10
20.8423
 20
-79.4674
 11
20.7756
 21
-79.518
  0
LINE
  8
0
 10
20.7756
 20
-79.518
 11
20.7068
 21
-79.5658
  0
LINE
  8
0
 10
20.7068
 20
-79.5658
 11
20.636
 21
-79.6107
  0
LINE
  8
0
 10
20.636
 20
-79.6107
 11
20.5635
 21
-79.6526
  0
LINE
  8
0
 10
20.5635
 20
-79.6526
 11
20.4893
 21
-79.6914
  0
LINE
  8
0
 10
20.4893
 20
-79.6914
 11
20.4135
 21
-79.7271
  0
LINE
  8
0
 10
20.4135
 20
-79.7271
 11
20.3362
 21
-79.7595
  0
LINE
  8
0
 10
20.3362
 20
-79.7595
 11
20.2577
 21
-79.7887
  0
LINE
  8
0
 10
20.2577
 20
-79.7887
 11
20.1781
 21
-79.8146
  0
LINE
  8
0
 10
20.1781
 20
-79.8146
 11
20.0974
 21
-79.8371
  0
LINE
  8
0
 10
20.0974
 20
-79.8371
 11
20.0158
 21
-79.8563
  0
LINE
  8
0
 10
20.0158
 20
-79.8563
 11
19.9335
 21
-79.872
  0
LINE
  8
0
 10
19.9335
 20
-79.872
 11
19.8507
 21
-79.8842
  0
LINE
  8
0
 10
19.8507
 20
-79.8842
 11
19.7673
 21
-79.893
  0
LINE
  8
0
 10
19.7673
 20
-79.893
 11
19.6837
 21
-79.8982
  0
LINE
  8
0
 10
19.6837
 20
-79.8982
 11
19.6
 21
-79.9
  0
LINE
  8
0
 10
19.6
 20
-79.9
 11
19.5162
 21
-79.8982
  0
LINE
  8
0
 10
100.316
 20
-79.8982
 11
100.233
 21
-79.893
  0
LINE
  8
0
 10
100.233
 20
-79.893
 11
100.149
 21
-79.8842
  0
LINE
  8
0
 10
100.149
 20
-79.8842
 11
100.066
 21
-79.872
  0
LINE
  8
0
 10
100.066
 20
-79.872
 11
99.9841
 21
-79.8563
  0
LINE
  8
0
 10
99.9841
 20
-79.8563
 11
99.9026
 21
-79.8372
  0
LINE
  8
0
 10
99.9026
 20
-79.8372
 11
99.8219
 21
-79.8146
  0
LINE
  8
0
 10
99.8219
 20
-79.8146
 11
99.7422
 21
-79.7887
  0
LINE
  8
0
 10
99.7422
 20
-79.7887
 11
99.6637
 21
-79.7596
  0
LINE
  8
0
 10
99.6637
 20
-79.7596
 11
99.5865
 21
-79.7271
  0
LINE
  8
0
 10
99.5865
 20
-79.7271
 11
99.5107
 21
-79.6914
  0
LINE
  8
0
 10
99.5107
 20
-79.6914
 11
99.4365
 21
-79.6526
  0
LINE
  8
0
 10
99.4365
 20
-79.6526
 11
99.3639
 21
-79.6107
  0
LINE
  8
0
 10
99.3639
 20
-79.6107
 11
99.2932
 21
-79.5658
  0
LINE
  8
0
 10
99.2932
 20
-79.5658
 11
99.2244
 21
-79.518
  0
LINE
  8
0
 10
99.2244
 20
-79.518
 11
99.1577
 21
-79.4674
  0
LINE
  8
0
 10
99.1577
 20
-79.4674
 11
99.0931
 21
-79.414
  0
LINE
  8
0
 10
99.0931
 20
-79.414
 11
99.0309
 21
-79.3579
  0
LINE
  8
0
 10
99.0309
 20
-79.3579
 11
98.971
 21
-79.2993
  0
LINE
  8
0
 10
98.971
 20
-79.2993
 11
98.9137
 21
-79.2383
  0
LINE
  8
0
 10
98.9137
 20
-79.2383
 11
98.8589
 21
-79.1748
  0
LINE
  8
0
 10
98.8589
 20
-79.1748
 11
98.8069
 21
-79.1092
  0
LINE
  8
0
 10
98.8069
 20
-79.1092
 11
98.7577
 21
-79.0414
  0
LINE
  8
0
 10
98.7577
 20
-79.0414
 11
98.7113
 21
-78.9716
  0
LINE
  8
0
 10
98.7113
 20
-78.9716
 11
98.6679
 21
-78.9
  0
LINE
  8
0
 10
98.6679
 20
-78.9
 11
98.6276
 21
-78.8266
  0
LINE
  8
0
 10
98.6276
 20
-78.8266
 11
98.5903
 21
-78.7516
  0
LINE
  8
0
 10
98.5903
 20
-78.7516
 11
98.5562
 21
-78.675
  0
LINE
  8
0
 10
98.5562
 20
-78.675
 11
98.5254
 21
-78.5971
  0
LINE
  8
0
 10
98.5254
 20
-78.5971
 11
98.4979
 21
-78.518
  0
LINE
  8
0
 10
98.4979
 20
-78.518
 11
98.4736
 21
-78.4378
  0
LINE
  8
0
 10
98.4736
 20
-78.4378
 11
98.4528
 21
-78.3567
  0
LINE
  8
0
 10
98.4528
 20
-78.3567
 11
98.4354
 21
-78.2747
  0
LINE
  8
0
 10
98.4354
 20
-78.2747
 11
98.4214
 21
-78.1922
  0
LINE
  8
0
 10
98.4214
 20
-78.1922
 11
98.4109
 21
-78.1091
  0
LINE
  8
0
 10
98.4109
 20
-78.1091
 11
98.4039
 21
-78.0256
  0
LINE
  8
0
 10
98.4039
 20
-78.0256
 11
98.4004
 21
-77.9419
  0
LINE
  8
0
 10
98.4004
 20
-77.9419
 11
98.4004
 21
-77.8581
  0
LINE
  8
0
 10
98.4004
 20
-77.8581
 11
98.4039
 21
-77.7744
  0
LINE
  8
0
 10
98.4039
 20
-77.7744
 11
98.4109
 21
-77.6909
  0
LINE
  8
0
 10
98.4109
 20
-77.6909
 11
98.4214
 21
-77.6078
  0
LINE
  8
0
 10
98.4214
 20
-77.6078
 11
98.4354
 21
-77.5252
  0
LINE
  8
0
 10
98.4354
 20
-77.5252
 11
98.4528
 21
-77.4433
  0
LINE
  8
0
 10
98.4528
 20
-77.4433
 11
98.4736
 21
-77.3622
  0
LINE
  8
0
 10
98.4736
 20
-77.3622
 11
98.4979
 21
-77.282
  0
LINE
  8
0
 10
98.4979
 20
-77.282
 11
98.5254
 21
-77.2029
  0
LINE
  8
0
 10
98.5254
 20
-77.2029
 11
98.5562
 21
-77.125
  0
LINE
  8
0
 10
98.5562
 20
-77.125
 11
98.5903
 21
-77.0484
  0
LINE
  8
0
 10
98.5903
 20
-77.0484
 11
98.6276
 21
-76.9734
  0
LINE
  8
0
 10
98.6276
 20
-76.9734
 11
98.6679
 21
-76.9
  0
LINE
  8
0
 10
98.6679
 20
-76.9
 11
98.7113
 21
-76.8283
  0
LINE
  8
0
 10
98.7113
 20
-76.8283
 11
98.7577
 21
-76.7586
  0
LINE
  8
0
 10
98.7577
 20
-76.7586
 11
98.8069
 21
-76.6908
  0
LINE
  8
0
 10
98.8069
 20
-76.6908
 11
98.8589
 21
-76.6251
  0
LINE
  8
0
 10
98.8589
 20
-76.6251
 11
98.9137
 21
-76.5617
  0
LINE
  8
0
 10
98.9137
 20
-76.5617
 11
98.971
 21
-76.5007
  0
LINE
  8
0
 10
98.971
 20
-76.5007
 11
99.0309
 21
-76.4421
  0
LINE
  8
0
 10
99.0309
 20
-76.4421
 11
99.0931
 21
-76.386
  0
LINE
  8
0
 10
99.0931
 20
-76.386
 11
99.1577
 21
-76.3326
  0
LINE
  8
0
 10
99.1577
 20
-76.3326
 11
99.2244
 21
-76.282
  0
LINE
  8
0
 10
99.2244
 20
-76.282
 11
99.2932
 21
-76.2341
  0
LINE
  8
0
 10
99.2932
 20
-76.2341
 11
99.3639
 21
-76.1893
  0
LINE
  8
0
 10
99.3639
 20
-76.1893
 11
99.4365
 21
-76.1474
  0
LINE
  8
0
 10
99.4365
 20
-76.1474
 11
99.5107
 21
-76.1086
  0
LINE
  8
0
 10
99.5107
 20
-76.1086
 11
99.5865
 21
-76.0729
  0
LINE
  8
0
 10
99.5865
 20
-76.0729
 11
99.6637
 21
-76.0404
  0
LINE
  8
0
 10
99.6637
 20
-76.0404
 11
99.7422
 21
-76.0112
  0
LINE
  8
0
 10
99.7422
 20
-76.0112
 11
99.8219
 21
-75.9854
  0
LINE
  8
0
 10
99.8219
 20
-75.9854
 11
99.9026
 21
-75.9628
  0
LINE
  8
0
 10
99.9026
 20
-75.9628
 11
99.9841
 21
-75.9437
  0
LINE
  8
0
 10
99.9841
 20
-75.9437
 11
100.066
 21
-75.928
  0
LINE
  8
0
 10
100.066
 20
-75.928
 11
100.149
 21
-75.9158
  0
LINE
  8
0
 10
100.149
 20
-75.9158
 11
100.233
 21
-75.907
  0
LINE
  8
0
 10
100.233
 20
-75.907
 11
100.316
 21
-75.9017
  0
LINE
  8
0
 10
100.316
 20
-75.9017
 11
100.4
 21
-75.9
  0
LINE
  8
0
 10
100.4
 20
-75.9
 11
100.484
 21
-75.9017
  0
LINE
  8
0
 10
100.484
 20
-75.9017
 11
100.567
 21
-75.907
  0
LINE
  8
0
 10
100.567
 20
-75.907
 11
100.651
 21
-75.9158
  0
LINE
  8
0
 10
100.651
 20
-75.9158
 11
100.734
 21
-75.928
  0
LINE
  8
0
 10
100.734
 20
-75.928
 11
100.816
 21
-75.9437
  0
LINE
  8
0
 10
100.816
 20
-75.9437
 11
100.897
 21
-75.9628
  0
LINE
  8
0
 10
100.897
 20
-75.9628
 11
100.978
 21
-75.9854
  0
LINE
  8
0
 10
100.978
 20
-75.9854
 11
101.058
 21
-76.0112
  0
LINE
  8
0
 10
101.058
 20
-76.0112
 11
101.136
 21
-76.0404
  0
LINE
  8
0
 10
101.136
 20
-76.0404
 11
101.213
 21
-76.0729
  0
LINE
  8
0
 10
101.213
 20
-76.0729
 11
101.289
 21
-76.1086
  0
LINE
  8
0
 10
101.289
 20
-76.1086
 11
101.363
 21
-76.1474
  0
LINE
  8
0
 10
101.363
 20
-76.1474
 11
101.436
 21
-76.1893
  0
LINE
  8
0
 10
101.436
 20
-76.1893
 11
101.507
 21
-76.2341
  0
LINE
  8
0
 10
101.507
 20
-76.2341
 11
101.576
 21
-76.282
  0
LINE
  8
0
 10
101.576
 20
-76.282
 11
101.642
 21
-76.3326
  0
LINE
  8
0
 10
101.642
 20
-76.3326
 11
101.707
 21
-76.386
  0
LINE
  8
0
 10
101.707
 20
-76.386
 11
101.769
 21
-76.4421
  0
LINE
  8
0
 10
101.769
 20
-76.4421
 11
101.829
 21
-76.5007
  0
LINE
  8
0
 10
101.829
 20
-76.5007
 11
101.886
 21
-76.5617
  0
LINE
  8
0
 10
101.886
 20
-76.5617
 11
101.941
 21
-76.6251
  0
LINE
  8
0
 10
101.941
 20
-76.6251
 11
101.993
 21
-76.6908
  0
LINE
  8
0
 10
101.993
 20
-76.6908
 11
102.042
 21
-76.7586
  0
LINE
  8
0
 10
102.042
 20
-76.7586
 11
102.089
 21
-76.8283
  0
LINE
  8
0
 10
102.089
 20
-76.8283
 11
102.132
 21
-76.9
  0
LINE
  8
0
 10
102.132
 20
-76.9
 11
102.172
 21
-76.9734
  0
LINE
  8
0
 10
102.172
 20
-76.9734
 11
102.21
 21
-77.0484
  0
LINE
  8
0
 10
102.21
 20
-77.0484
 11
102.244
 21
-77.125
  0
LINE
  8
0
 10
102.244
 20
-77.125
 11
102.275
 21
-77.2029
  0
LINE
  8
0
 10
102.275
 20
-77.2029
 11
102.302
 21
-77.282
  0
LINE
  8
0
 10
102.302
 20
-77.282
 11
102.326
 21
-77.3622
  0
LINE
  8
0
 10
102.326
 20
-77.3622
 11
102.347
 21
-77.4433
  0
LINE
  8
0
 10
102.347
 20
-77.4433
 11
102.365
 21
-77.5252
  0
LINE
  8
0
 10
102.365
 20
-77.5252
 11
102.379
 21
-77.6078
  0
LINE
  8
0
 10
102.379
 20
-77.6078
 11
102.389
 21
-77.6909
  0
LINE
  8
0
 10
102.389
 20
-77.6909
 11
102.396
 21
-77.7744
  0
LINE
  8
0
 10
102.396
 20
-77.7744
 11
102.4
 21
-77.8581
  0
LINE
  8
0
 10
102.4
 20
-77.8581
 11
102.4
 21
-77.9419
  0
LINE
  8
0
 10
102.4
 20
-77.9419
 11
102.396
 21
-78.0256
  0
LINE
  8
0
 10
102.396
 20
-78.0256
 11
102.389
 21
-78.1091
  0
LINE
  8
0
 10
102.389
 20
-78.1091
 11
102.379
 21
-78.1922
  0
LINE
  8
0
 10
102.379
 20
-78.1922
 11
102.365
 21
-78.2747
  0
LINE
  8
0
 10
102.365
 20
-78.2747
 11
102.347
 21
-78.3567
  0
LINE
  8
0
 10
102.347
 20
-78.3567
 11
102.326
 21
-78.4378
  0
LINE
  8
0
 10
102.326
 20
-78.4378
 11
102.302
 21
-78.518
  0
LINE
  8
0
 10
102.302
 20
-78.518
 11
102.275
 21
-78.5971
  0
LINE
  8
0
 10
102.275
 20
-78.5971
 11
102.244
 21
-78.675
  0
LINE
  8
0
 10
102.244
 20
-78.675
 11
102.21
 21
-78.7516
  0
LINE
  8
0
 10
102.21
 20
-78.7516
 11
102.172
 21
-78.8266
  0
LINE
  8
0
 10
102.172
 20
-78.8266
 11
102.132
 21
-78.9
  0
LINE
  8
0
 10
102.132
 20
-78.9
 11
102.089
 21
-78.9716
  0
LINE
  8
0
 10
102.089
 20
-78.9716
 11
102.042
 21
-79.0414
  0
LINE
  8
0
 10
102.042
 20
-79.0414
 11
101.993
 21
-79.1092
  0
LINE
  8
0
 10
101.993
 20
-79.1092
 11
101.941
 21
-79.1748
  0
LINE
  8
0
 10
101.941
 20
-79.1748
 11
101.886
 21
-79.2383
  0
LINE
  8
0
 10
101.886
 20
-79.2383
 11
101.829
 21
-79.2993
  0
LINE
  8
0
 10
101.829
 20
-79.2993
 11
101.769
 21
-79.3579
  0
LINE
  8
0
 10
101.769
 20
-79.3579
 11
101.707
 21
-79.414
  0
LINE
  8
0
 10
101.707
 20
-79.414
 11
101.642
 21
-79.4674
  0
LINE
  8
0
 10
101.642
 20
-79.4674
 11
101.576
 21
-79.518
  0
LINE
  8
0
 10
101.576
 20
-79.518
 11
101.507
 21
-79.5658
  0
LINE
  8
0
 10
101.507
 20
-79.5658
 11
101.436
 21
-79.6107
  0
LINE
  8
0
 10
101.436
 20
-79.6107
 11
101.363
 21
-79.6526
  0
LINE
  8
0
 10
101.363
 20
-79.6526
 11
101.289
 21
-79.6914
  0
LINE
  8
0
 10
101.289
 20
-79.6914
 11
101.213
 21
-79.7271
  0
LINE
  8
0
 10
101.213
 20
-79.7271
 11
101.136
 21
-79.7596
  0
LINE
  8
0
 10
101.136
 20
-79.7596
 11
101.058
 21
-79.7887
  0
LINE
  8
0
 10
101.058
 20
-79.7887
 11
100.978
 21
-79.8146
  0
LINE
  8
0
 10
100.978
 20
-79.8146
 11
100.897
 21
-79.8372
  0
LINE
  8
0
 10
100.897
 20
-79.8372
 11
100.816
 21
-79.8563
  0
LINE
  8
0
 10
100.816
 20
-79.8563
 11
100.734
 21
-79.872
  0
LINE
  8
0
 10
100.734
 20
-79.872
 11
100.651
 21
-79.8842
  0
LINE
  8
0
 10
100.651
 20
-79.8842
 11
100.567
 21
-79.893
  0
LINE
  8
0
 10
100.567
 20
-79.893
 11
100.484
 21
-79.8982
  0
LINE
  8
0
 10
100.484
 20
-79.8982
 11
100.4
 21
-79.9
  0
LINE
  8
0
 10
100.4
 20
-79.9
 11
100.316
 21
-79.8982
  0
ENDSEC
  0
SECTION
  2
OBJECTS
  0
DICTIONARY
  0
ENDSEC
  0
EOF
