  0
SECTION
  2
BLOCKS
  0
ENDSEC
  0
SECTION
  2
ENTITIES
  0
LINE
  8
0
 10
-145
 20
43.8158
 11
-141.6
 21
43.8158
  0
LINE
  8
0
 10
-141.6
 20
43.8158
 11
-141.6
 21
34.0789
  0
LINE
  8
0
 10
-141.6
 20
34.0789
 11
-145
 21
34.0789
  0
LINE
  8
0
 10
-145
 20
34.0789
 11
-145
 21
24.3421
  0
LINE
  8
0
 10
-145
 20
24.3421
 11
-141.6
 21
24.3421
  0
LINE
  8
0
 10
-141.6
 20
24.3421
 11
-141.6
 21
14.6053
  0
LINE
  8
0
 10
-141.6
 20
14.6053
 11
-145
 21
14.6053
  0
LINE
  8
0
 10
-145
 20
14.6053
 11
-145
 21
4.86841
  0
LINE
  8
0
 10
-145
 20
4.86841
 11
-141.6
 21
4.86841
  0
LINE
  8
0
 10
-141.6
 20
4.86841
 11
-141.6
 21
-4.86841
  0
LINE
  8
0
 10
-141.6
 20
-4.86841
 11
-145
 21
-4.86841
  0
LINE
  8
0
 10
-145
 20
-4.86841
 11
-145
 21
-14.6053
  0
LINE
  8
0
 10
-145
 20
-14.6053
 11
-141.6
 21
-14.6053
  0
LINE
  8
0
 10
-141.6
 20
-14.6053
 11
-141.6
 21
-24.3421
  0
LINE
  8
0
 10
-141.6
 20
-24.3421
 11
-145
 21
-24.3421
  0
LINE
  8
0
 10
-145
 20
-24.3421
 11
-145
 21
-34.0789
  0
LINE
  8
0
 10
-145
 20
-34.0789
 11
-141.6
 21
-34.0789
  0
LINE
  8
0
 10
-141.6
 20
-34.0789
 11
-141.6
 21
-43.8158
  0
LINE
  8
0
 10
-141.6
 20
-43.8158
 11
-145
 21
-43.8158
  0
LINE
  8
0
 10
-145
 20
-43.8158
 11
-145
 21
-53.5526
  0
LINE
  8
0
 10
-145
 20
-53.5526
 11
-141.6
 21
-53.5526
  0
LINE
  8
0
 10
-141.6
 20
-53.5526
 11
-141.6
 21
-63.2895
  0
LINE
  8
0
 10
-141.6
 20
-63.2895
 11
-145
 21
-63.2895
  0
LINE
  8
0
 10
-145
 20
-63.2895
 11
-145
 21
-73.0263
  0
LINE
  8
0
 10
-145
 20
-73.0263
 11
-141.6
 21
-73.0263
  0
LINE
  8
0
 10
-141.6
 20
-73.0263
 11
-141.6
 21
-82.7632
  0
LINE
  8
0
 10
-141.6
 20
-82.7632
 11
-145
 21
-82.7632
  0
LINE
  8
0
 10
-145
 20
-82.7632
 11
-145
 21
-92.5
  0
LINE
  8
0
 10
-145
 20
-92.5
 11
-132.778
 21
-92.5
  0
LINE
  8
0
 10
-132.778
 20
-92.5
 11
-132.778
 21
-89.1
  0
LINE
  8
0
 10
-132.778
 20
-89.1
 11
-120.556
 21
-89.1
  0
LINE
  8
0
 10
-120.556
 20
-89.1
 11
-120.556
 21
-92.5
  0
LINE
  8
0
 10
-120.556
 20
-92.5
 11
-108.333
 21
-92.5
  0
LINE
  8
0
 10
-108.333
 20
-92.5
 11
-108.333
 21
-89.1
  0
LINE
  8
0
 10
-108.333
 20
-89.1
 11
-96.1111
 21
-89.1
  0
LINE
  8
0
 10
-96.1111
 20
-89.1
 11
-96.1111
 21
-92.5
  0
LINE
  8
0
 10
-96.1111
 20
-92.5
 11
-83.8889
 21
-92.5
  0
LINE
  8
0
 10
-83.8889
 20
-92.5
 11
-83.8889
 21
-89.1
  0
LINE
  8
0
 10
-83.8889
 20
-89.1
 11
-71.6667
 21
-89.1
  0
LINE
  8
0
 10
-71.6667
 20
-89.1
 11
-71.6667
 21
-92.5
  0
LINE
  8
0
 10
-71.6667
 20
-92.5
 11
-59.4445
 21
-92.5
  0
LINE
  8
0
 10
-59.4445
 20
-92.5
 11
-59.4445
 21
-89.1
  0
LINE
  8
0
 10
-59.4445
 20
-89.1
 11
-47.2222
 21
-89.1
  0
LINE
  8
0
 10
-47.2222
 20
-89.1
 11
-47.2222
 21
-92.5
  0
LINE
  8
0
 10
-47.2222
 20
-92.5
 11
-35
 21
-92.5
  0
LINE
  8
0
 10
-35
 20
-92.5
 11
-35
 21
-82.7632
  0
LINE
  8
0
 10
-35
 20
-82.7632
 11
-38.4
 21
-82.7632
  0
LINE
  8
0
 10
-38.4
 20
-82.7632
 11
-38.4
 21
-73.0263
  0
LINE
  8
0
 10
-38.4
 20
-73.0263
 11
-35
 21
-73.0263
  0
LINE
  8
0
 10
-35
 20
-73.0263
 11
-35
 21
-63.2895
  0
LINE
  8
0
 10
-35
 20
-63.2895
 11
-38.4
 21
-63.2895
  0
LINE
  8
0
 10
-38.4
 20
-63.2895
 11
-38.4
 21
-53.5526
  0
LINE
  8
0
 10
-38.4
 20
-53.5526
 11
-35
 21
-53.5526
  0
LINE
  8
0
 10
-35
 20
-53.5526
 11
-35
 21
-43.8158
  0
LINE
  8
0
 10
-35
 20
-43.8158
 11
-38.4
 21
-43.8158
  0
LINE
  8
0
 10
-38.4
 20
-43.8158
 11
-38.4
 21
-34.0789
  0
LINE
  8
0
 10
-38.4
 20
-34.0789
 11
-35
 21
-34.0789
  0
LINE
  8
0
 10
-35
 20
-34.0789
 11
-35
 21
-24.3421
  0
LINE
  8
0
 10
-35
 20
-24.3421
 11
-38.4
 21
-24.3421
  0
LINE
  8
0
 10
-38.4
 20
-24.3421
 11
-38.4
 21
-14.6053
  0
LINE
  8
0
 10
-38.4
 20
-14.6053
 11
-35
 21
-14.6053
  0
LINE
  8
0
 10
-35
 20
-14.6053
 11
-35
 21
-4.86841
  0
LINE
  8
0
 10
-35
 20
-4.86841
 11
-38.4
 21
-4.86841
  0
LINE
  8
0
 10
-38.4
 20
-4.86841
 11
-38.4
 21
4.86841
  0
LINE
  8
0
 10
-38.4
 20
4.86841
 11
-35
 21
4.86841
  0
LINE
  8
0
 10
-35
 20
4.86841
 11
-35
 21
14.6053
  0
LINE
  8
0
 10
-35
 20
14.6053
 11
-38.4
 21
14.6053
  0
LINE
  8
0
 10
-38.4
 20
14.6053
 11
-38.4
 21
24.3421
  0
LINE
  8
0
 10
-38.4
 20
24.3421
 11
-35
 21
24.3421
  0
LINE
  8
0
 10
-35
 20
24.3421
 11
-35
 21
34.0789
  0
LINE
  8
0
 10
-35
 20
34.0789
 11
-38.4
 21
34.0789
  0
LINE
  8
0
 10
-38.4
 20
34.0789
 11
-38.4
 21
43.8158
  0
LINE
  8
0
 10
-38.4
 20
43.8158
 11
-35
 21
43.8158
  0
LINE
  8
0
 10
-35
 20
43.8158
 11
-35
 21
53.5526
  0
LINE
  8
0
 10
-35
 20
53.5526
 11
-38.4
 21
53.5526
  0
LINE
  8
0
 10
-38.4
 20
53.5526
 11
-38.4
 21
63.2895
  0
LINE
  8
0
 10
-38.4
 20
63.2895
 11
-35
 21
63.2895
  0
LINE
  8
0
 10
-35
 20
63.2895
 11
-35
 21
73.0263
  0
LINE
  8
0
 10
-35
 20
73.0263
 11
-38.4
 21
73.0263
  0
LINE
  8
0
 10
-38.4
 20
73.0263
 11
-38.4
 21
82.7632
  0
LINE
  8
0
 10
-38.4
 20
82.7632
 11
-35
 21
82.7632
  0
LINE
  8
0
 10
-35
 20
82.7632
 11
-35
 21
92.5
  0
LINE
  8
0
 10
-35
 20
92.5
 11
-47.2222
 21
92.5
  0
LINE
  8
0
 10
-47.2222
 20
92.5
 11
-47.2222
 21
89.1
  0
LINE
  8
0
 10
-47.2222
 20
89.1
 11
-59.4445
 21
89.1
  0
LINE
  8
0
 10
-59.4445
 20
89.1
 11
-59.4445
 21
92.5
  0
LINE
  8
0
 10
-59.4445
 20
92.5
 11
-71.6667
 21
92.5
  0
LINE
  8
0
 10
-71.6667
 20
92.5
 11
-71.6667
 21
89.1
  0
LINE
  8
0
 10
-71.6667
 20
89.1
 11
-83.8889
 21
89.1
  0
LINE
  8
0
 10
-83.8889
 20
89.1
 11
-83.8889
 21
92.5
  0
LINE
  8
0
 10
-83.8889
 20
92.5
 11
-96.1111
 21
92.5
  0
LINE
  8
0
 10
-96.1111
 20
92.5
 11
-96.1111
 21
89.1
  0
LINE
  8
0
 10
-96.1111
 20
89.1
 11
-108.333
 21
89.1
  0
LINE
  8
0
 10
-108.333
 20
89.1
 11
-108.333
 21
92.5
  0
LINE
  8
0
 10
-108.333
 20
92.5
 11
-120.556
 21
92.5
  0
LINE
  8
0
 10
-120.556
 20
92.5
 11
-120.556
 21
89.1
  0
LINE
  8
0
 10
-120.556
 20
89.1
 11
-132.778
 21
89.1
  0
LINE
  8
0
 10
-132.778
 20
89.1
 11
-132.778
 21
92.5
  0
LINE
  8
0
 10
-132.778
 20
92.5
 11
-145
 21
92.5
  0
LINE
  8
0
 10
-145
 20
92.5
 11
-145
 21
82.7632
  0
LINE
  8
0
 10
-145
 20
82.7632
 11
-141.6
 21
82.7632
  0
LINE
  8
0
 10
-141.6
 20
82.7632
 11
-141.6
 21
73.0263
  0
LINE
  8
0
 10
-141.6
 20
73.0263
 11
-145
 21
73.0263
  0
LINE
  8
0
 10
-145
 20
73.0263
 11
-145
 21
63.2895
  0
LINE
  8
0
 10
-145
 20
63.2895
 11
-141.6
 21
63.2895
  0
LINE
  8
0
 10
-141.6
 20
63.2895
 11
-141.6
 21
53.5526
  0
LINE
  8
0
 10
-141.6
 20
53.5526
 11
-145
 21
53.5526
  0
LINE
  8
0
 10
-145
 20
53.5526
 11
-145
 21
43.8158
  0
LINE
  8
0
 10
-110.5
 20
-71.5
 11
-129.5
 21
-71.5
  0
LINE
  8
0
 10
-129.5
 20
-71.5
 11
-129.5
 21
-58.5
  0
LINE
  8
0
 10
-129.5
 20
-58.5
 11
-110.5
 21
-58.5
  0
LINE
  8
0
 10
-110.5
 20
-58.5
 11
-110.5
 21
-71.5
  0
LINE
  8
0
 10
-115
 20
55
 11
-123.3
 21
55
  0
LINE
  8
0
 10
-123.3
 20
55
 11
-123.3
 21
74.2
  0
LINE
  8
0
 10
-123.3
 20
74.2
 11
-115
 21
74.2
  0
LINE
  8
0
 10
-115
 20
74.2
 11
-115
 21
55
  0
LINE
  8
0
 10
-96
 20
-9
 11
-112.3
 21
-9
  0
LINE
  8
0
 10
-112.3
 20
-9
 11
-112.3
 21
32.2
  0
LINE
  8
0
 10
-112.3
 20
32.2
 11
-96
 21
32.2
  0
LINE
  8
0
 10
-96
 20
32.2
 11
-96
 21
-9
  0
ENDSEC
  0
SECTION
  2
OBJECTS
  0
DICTIONARY
  0
ENDSEC
  0
EOF
