solid OpenSCAD_Model
  facet normal -1 0 0
    outer loop
      vertex -24.9 14.9 -0.5
      vertex -24.9 9.9 0.400001
      vertex -24.9 14.9 1.3
    endloop
  endfacet
  facet normal -1 0 0
    outer loop
      vertex -24.9 14.9 -0.5
      vertex -24.9 5.1 0.400001
      vertex -24.9 9.9 0.400001
    endloop
  endfacet
  facet normal -1 0 0
    outer loop
      vertex -24.9 5.1 0.400001
      vertex -24.9 -5.1 0.400001
      vertex -24.9 5.1 1.2
    endloop
  endfacet
  facet normal -1 0 0
    outer loop
      vertex -24.9 14.9 -0.5
      vertex -24.9 -5.1 0.400001
      vertex -24.9 5.1 0.400001
    endloop
  endfacet
  facet normal -1 0 0
    outer loop
      vertex -24.9 -14.9 -0.5
      vertex -24.9 -5.1 0.400001
      vertex -24.9 14.9 -0.5
    endloop
  endfacet
  facet normal -1 0 0
    outer loop
      vertex -24.9 -14.9 1.3
      vertex -24.9 -9.9 0.400001
      vertex -24.9 -14.9 -0.5
    endloop
  endfacet
  facet normal -1 -0 0
    outer loop
      vertex -24.9 -5.1 0.400001
      vertex -24.9 -14.9 -0.5
      vertex -24.9 -9.9 0.400001
    endloop
  endfacet
  facet normal -1 0 0
    outer loop
      vertex -24.9 9.9 1.2
      vertex -24.9 14.9 1.3
      vertex -24.9 9.9 0.400001
    endloop
  endfacet
  facet normal -1 0 0
    outer loop
      vertex -24.9 5.1 1.2
      vertex -24.9 14.9 1.3
      vertex -24.9 9.9 1.2
    endloop
  endfacet
  facet normal -1 0 0
    outer loop
      vertex -24.9 -5.1 1.2
      vertex -24.9 5.1 1.2
      vertex -24.9 -5.1 0.400001
    endloop
  endfacet
  facet normal -1 0 0
    outer loop
      vertex -24.9 -5.1 1.2
      vertex -24.9 14.9 1.3
      vertex -24.9 5.1 1.2
    endloop
  endfacet
  facet normal -1 0 0
    outer loop
      vertex -24.9 -14.9 1.3
      vertex -24.9 -5.1 1.2
      vertex -24.9 -9.9 1.2
    endloop
  endfacet
  facet normal -1 0 0
    outer loop
      vertex -24.9 -5.1 1.2
      vertex -24.9 -14.9 1.3
      vertex -24.9 14.9 1.3
    endloop
  endfacet
  facet normal -1 0 0
    outer loop
      vertex -24.9 -9.9 0.400001
      vertex -24.9 -14.9 1.3
      vertex -24.9 -9.9 1.2
    endloop
  endfacet
  facet normal 0 0 1
    outer loop
      vertex 24.9 14.9 1.3
      vertex 20.55 0 1.3
      vertex 24.9 -14.9 1.3
    endloop
  endfacet
  facet normal 0 0 1
    outer loop
      vertex 24.9 14.9 1.3
      vertex 20.5378 0.194266 1.3
      vertex 20.55 0 1.3
    endloop
  endfacet
  facet normal 0 0 1
    outer loop
      vertex 24.9 14.9 1.3
      vertex 20.5013 0.385468 1.3
      vertex 20.5378 0.194266 1.3
    endloop
  endfacet
  facet normal 0 0 1
    outer loop
      vertex 24.9 14.9 1.3
      vertex 20.4412 0.570593 1.3
      vertex 20.5013 0.385468 1.3
    endloop
  endfacet
  facet normal 0 0 1
    outer loop
      vertex 24.9 14.9 1.3
      vertex 20.3583 0.746717 1.3
      vertex 20.4412 0.570593 1.3
    endloop
  endfacet
  facet normal 0 0 1
    outer loop
      vertex 24.9 14.9 1.3
      vertex 20.254 0.911067 1.3
      vertex 20.3583 0.746717 1.3
    endloop
  endfacet
  facet normal 0 0 1
    outer loop
      vertex 24.9 14.9 1.3
      vertex 20.1299 1.06105 1.3
      vertex 20.254 0.911067 1.3
    endloop
  endfacet
  facet normal 0 0 1
    outer loop
      vertex 24.9 14.9 1.3
      vertex 19.988 1.19429 1.3
      vertex 20.1299 1.06105 1.3
    endloop
  endfacet
  facet normal 0 0 1
    outer loop
      vertex 24.9 14.9 1.3
      vertex 19.8305 1.30871 1.3
      vertex 19.988 1.19429 1.3
    endloop
  endfacet
  facet normal 0 0 1
    outer loop
      vertex 24.9 14.9 1.3
      vertex 19.66 1.40248 1.3
      vertex 19.8305 1.30871 1.3
    endloop
  endfacet
  facet normal 0 0 1
    outer loop
      vertex 24.9 14.9 1.3
      vertex 19.479 1.47414 1.3
      vertex 19.66 1.40248 1.3
    endloop
  endfacet
  facet normal 0 0 1
    outer loop
      vertex 24.9 14.9 1.3
      vertex 19.2904 1.52254 1.3
      vertex 19.479 1.47414 1.3
    endloop
  endfacet
  facet normal 0 0 1
    outer loop
      vertex 24.9 14.9 1.3
      vertex 19.0973 1.54694 1.3
      vertex 19.2904 1.52254 1.3
    endloop
  endfacet
  facet normal 0 0 1
    outer loop
      vertex 24.9 14.9 1.3
      vertex 18.9027 1.54694 1.3
      vertex 19.0973 1.54694 1.3
    endloop
  endfacet
  facet normal 0 0 1
    outer loop
      vertex 24.9 14.9 1.3
      vertex 18.7096 1.52254 1.3
      vertex 18.9027 1.54694 1.3
    endloop
  endfacet
  facet normal 0 0 1
    outer loop
      vertex 24.9 14.9 1.3
      vertex 18.521 1.47414 1.3
      vertex 18.7096 1.52254 1.3
    endloop
  endfacet
  facet normal 0 0 1
    outer loop
      vertex 24.9 14.9 1.3
      vertex 18.34 1.40248 1.3
      vertex 18.521 1.47414 1.3
    endloop
  endfacet
  facet normal 0 0 1
    outer loop
      vertex 24.9 14.9 1.3
      vertex 18.1695 1.30871 1.3
      vertex 18.34 1.40248 1.3
    endloop
  endfacet
  facet normal 0 0 1
    outer loop
      vertex 24.9 14.9 1.3
      vertex 18.012 1.19429 1.3
      vertex 18.1695 1.30871 1.3
    endloop
  endfacet
  facet normal 0 0 1
    outer loop
      vertex 24.9 14.9 1.3
      vertex 17.8701 1.06105 1.3
      vertex 18.012 1.19429 1.3
    endloop
  endfacet
  facet normal -0 0 1
    outer loop
      vertex -24.9 14.9 1.3
      vertex 17.8701 1.06105 1.3
      vertex 24.9 14.9 1.3
    endloop
  endfacet
  facet normal 0 0 1
    outer loop
      vertex 17.8701 1.06105 1.3
      vertex -24.9 14.9 1.3
      vertex 17.746 0.911067 1.3
    endloop
  endfacet
  facet normal 0 0 1
    outer loop
      vertex 17.4622 0.194266 1.3
      vertex -24.9 14.9 1.3
      vertex 17.45 0 1.3
    endloop
  endfacet
  facet normal 0 0 1
    outer loop
      vertex 17.4987 0.385468 1.3
      vertex -24.9 14.9 1.3
      vertex 17.4622 0.194266 1.3
    endloop
  endfacet
  facet normal 0 0 1
    outer loop
      vertex 17.5588 0.570593 1.3
      vertex -24.9 14.9 1.3
      vertex 17.4987 0.385468 1.3
    endloop
  endfacet
  facet normal 0 0 1
    outer loop
      vertex 17.6417 0.746717 1.3
      vertex -24.9 14.9 1.3
      vertex 17.5588 0.570593 1.3
    endloop
  endfacet
  facet normal 0 0 1
    outer loop
      vertex 17.746 0.911067 1.3
      vertex -24.9 14.9 1.3
      vertex 17.6417 0.746717 1.3
    endloop
  endfacet
  facet normal -0 0 1
    outer loop
      vertex 20.5378 -0.194266 1.3
      vertex 24.9 -14.9 1.3
      vertex 20.55 0 1.3
    endloop
  endfacet
  facet normal -0 0 1
    outer loop
      vertex 20.5013 -0.385468 1.3
      vertex 24.9 -14.9 1.3
      vertex 20.5378 -0.194266 1.3
    endloop
  endfacet
  facet normal -0 0 1
    outer loop
      vertex 20.4412 -0.570593 1.3
      vertex 24.9 -14.9 1.3
      vertex 20.5013 -0.385468 1.3
    endloop
  endfacet
  facet normal -0 0 1
    outer loop
      vertex 20.3583 -0.746717 1.3
      vertex 24.9 -14.9 1.3
      vertex 20.4412 -0.570593 1.3
    endloop
  endfacet
  facet normal -0 0 1
    outer loop
      vertex 20.254 -0.911067 1.3
      vertex 24.9 -14.9 1.3
      vertex 20.3583 -0.746717 1.3
    endloop
  endfacet
  facet normal -0 0 1
    outer loop
      vertex 20.1299 -1.06105 1.3
      vertex 24.9 -14.9 1.3
      vertex 20.254 -0.911067 1.3
    endloop
  endfacet
  facet normal -0 0 1
    outer loop
      vertex 19.988 -1.19429 1.3
      vertex 24.9 -14.9 1.3
      vertex 20.1299 -1.06105 1.3
    endloop
  endfacet
  facet normal -0 0 1
    outer loop
      vertex 19.8305 -1.30871 1.3
      vertex 24.9 -14.9 1.3
      vertex 19.988 -1.19429 1.3
    endloop
  endfacet
  facet normal -0 0 1
    outer loop
      vertex 19.66 -1.40248 1.3
      vertex 24.9 -14.9 1.3
      vertex 19.8305 -1.30871 1.3
    endloop
  endfacet
  facet normal -0 0 1
    outer loop
      vertex 19.479 -1.47414 1.3
      vertex 24.9 -14.9 1.3
      vertex 19.66 -1.40248 1.3
    endloop
  endfacet
  facet normal -0 0 1
    outer loop
      vertex 19.2904 -1.52254 1.3
      vertex 24.9 -14.9 1.3
      vertex 19.479 -1.47414 1.3
    endloop
  endfacet
  facet normal -0 0 1
    outer loop
      vertex 19.0973 -1.54694 1.3
      vertex 24.9 -14.9 1.3
      vertex 19.2904 -1.52254 1.3
    endloop
  endfacet
  facet normal -0 0 1
    outer loop
      vertex 18.9027 -1.54694 1.3
      vertex 24.9 -14.9 1.3
      vertex 19.0973 -1.54694 1.3
    endloop
  endfacet
  facet normal 0 0 1
    outer loop
      vertex 18.7096 -1.52254 1.3
      vertex 24.9 -14.9 1.3
      vertex 18.9027 -1.54694 1.3
    endloop
  endfacet
  facet normal 0 0 1
    outer loop
      vertex 18.521 -1.47414 1.3
      vertex 24.9 -14.9 1.3
      vertex 18.7096 -1.52254 1.3
    endloop
  endfacet
  facet normal 0 0 1
    outer loop
      vertex 18.34 -1.40248 1.3
      vertex 24.9 -14.9 1.3
      vertex 18.521 -1.47414 1.3
    endloop
  endfacet
  facet normal 0 0 1
    outer loop
      vertex 18.1695 -1.30871 1.3
      vertex 24.9 -14.9 1.3
      vertex 18.34 -1.40248 1.3
    endloop
  endfacet
  facet normal 0 0 1
    outer loop
      vertex 18.012 -1.19429 1.3
      vertex 24.9 -14.9 1.3
      vertex 18.1695 -1.30871 1.3
    endloop
  endfacet
  facet normal 0 0 1
    outer loop
      vertex 17.8701 -1.06105 1.3
      vertex 24.9 -14.9 1.3
      vertex 18.012 -1.19429 1.3
    endloop
  endfacet
  facet normal 0 0 1
    outer loop
      vertex -24.9 -14.9 1.3
      vertex 17.8701 -1.06105 1.3
      vertex 17.746 -0.911067 1.3
    endloop
  endfacet
  facet normal 0 0 1
    outer loop
      vertex -24.9 -14.9 1.3
      vertex 17.746 -0.911067 1.3
      vertex 17.6417 -0.746717 1.3
    endloop
  endfacet
  facet normal 0 0 1
    outer loop
      vertex -24.9 -14.9 1.3
      vertex 17.45 0 1.3
      vertex -24.9 14.9 1.3
    endloop
  endfacet
  facet normal 0 0 1
    outer loop
      vertex 17.45 0 1.3
      vertex -24.9 -14.9 1.3
      vertex 17.4622 -0.194266 1.3
    endloop
  endfacet
  facet normal 0 0 1
    outer loop
      vertex 17.4622 -0.194266 1.3
      vertex -24.9 -14.9 1.3
      vertex 17.4987 -0.385468 1.3
    endloop
  endfacet
  facet normal 0 0 1
    outer loop
      vertex 17.4987 -0.385468 1.3
      vertex -24.9 -14.9 1.3
      vertex 17.5588 -0.570593 1.3
    endloop
  endfacet
  facet normal 0 0 1
    outer loop
      vertex 17.5588 -0.570593 1.3
      vertex -24.9 -14.9 1.3
      vertex 17.6417 -0.746717 1.3
    endloop
  endfacet
  facet normal 0 0 1
    outer loop
      vertex 17.8701 -1.06105 1.3
      vertex -24.9 -14.9 1.3
      vertex 24.9 -14.9 1.3
    endloop
  endfacet
  facet normal 1 -0 0
    outer loop
      vertex 24.9 -14.9 1.3
      vertex 24.9 14.9 -0.5
      vertex 24.9 14.9 1.3
    endloop
  endfacet
  facet normal 1 0 0
    outer loop
      vertex 24.9 14.9 -0.5
      vertex 24.9 -14.9 1.3
      vertex 24.9 -14.9 -0.5
    endloop
  endfacet
  facet normal 0 1 -0
    outer loop
      vertex 24.9 14.9 -0.5
      vertex -24.9 14.9 1.3
      vertex 24.9 14.9 1.3
    endloop
  endfacet
  facet normal 0 1 0
    outer loop
      vertex -24.9 14.9 1.3
      vertex 24.9 14.9 -0.5
      vertex -24.9 14.9 -0.5
    endloop
  endfacet
  facet normal 0 0 -1
    outer loop
      vertex 24.9 -14.9 -0.5
      vertex 21.5 0 -0.5
      vertex 24.9 14.9 -0.5
    endloop
  endfacet
  facet normal 0 0 -1
    outer loop
      vertex 24.9 -14.9 -0.5
      vertex 21.4803 -0.313333 -0.5
      vertex 21.5 0 -0.5
    endloop
  endfacet
  facet normal 0 0 -1
    outer loop
      vertex 24.9 -14.9 -0.5
      vertex 21.4215 -0.621724 -0.5
      vertex 21.4803 -0.313333 -0.5
    endloop
  endfacet
  facet normal 0 0 -1
    outer loop
      vertex 24.9 -14.9 -0.5
      vertex 21.3244 -0.920311 -0.5
      vertex 21.4215 -0.621724 -0.5
    endloop
  endfacet
  facet normal 0 0 -1
    outer loop
      vertex 24.9 -14.9 -0.5
      vertex 21.1908 -1.20438 -0.5
      vertex 21.3244 -0.920311 -0.5
    endloop
  endfacet
  facet normal 0 0 -1
    outer loop
      vertex 24.9 -14.9 -0.5
      vertex 21.0225 -1.46946 -0.5
      vertex 21.1908 -1.20438 -0.5
    endloop
  endfacet
  facet normal 0 0 -1
    outer loop
      vertex 24.9 -14.9 -0.5
      vertex 20.8224 -1.71137 -0.5
      vertex 21.0225 -1.46946 -0.5
    endloop
  endfacet
  facet normal 0 0 -1
    outer loop
      vertex 24.9 -14.9 -0.5
      vertex 20.5936 -1.92628 -0.5
      vertex 20.8224 -1.71137 -0.5
    endloop
  endfacet
  facet normal 0 0 -1
    outer loop
      vertex 24.9 -14.9 -0.5
      vertex 20.3396 -2.11082 -0.5
      vertex 20.5936 -1.92628 -0.5
    endloop
  endfacet
  facet normal 0 0 -1
    outer loop
      vertex 24.9 -14.9 -0.5
      vertex 20.0644 -2.26207 -0.5
      vertex 20.3396 -2.11082 -0.5
    endloop
  endfacet
  facet normal 0 0 -1
    outer loop
      vertex 24.9 -14.9 -0.5
      vertex 19.7725 -2.37764 -0.5
      vertex 20.0644 -2.26207 -0.5
    endloop
  endfacet
  facet normal 0 0 -1
    outer loop
      vertex 24.9 -14.9 -0.5
      vertex 19.4685 -2.45572 -0.5
      vertex 19.7725 -2.37764 -0.5
    endloop
  endfacet
  facet normal 0 0 -1
    outer loop
      vertex 24.9 -14.9 -0.5
      vertex 19.157 -2.49507 -0.5
      vertex 19.4685 -2.45572 -0.5
    endloop
  endfacet
  facet normal 0 0 -1
    outer loop
      vertex 24.9 -14.9 -0.5
      vertex 18.843 -2.49507 -0.5
      vertex 19.157 -2.49507 -0.5
    endloop
  endfacet
  facet normal 0 0 -1
    outer loop
      vertex 24.9 -14.9 -0.5
      vertex 18.5315 -2.45572 -0.5
      vertex 18.843 -2.49507 -0.5
    endloop
  endfacet
  facet normal 0 0 -1
    outer loop
      vertex 24.9 -14.9 -0.5
      vertex 18.2275 -2.37764 -0.5
      vertex 18.5315 -2.45572 -0.5
    endloop
  endfacet
  facet normal 0 0 -1
    outer loop
      vertex 24.9 -14.9 -0.5
      vertex 17.9356 -2.26207 -0.5
      vertex 18.2275 -2.37764 -0.5
    endloop
  endfacet
  facet normal 0 0 -1
    outer loop
      vertex 24.9 -14.9 -0.5
      vertex 17.6604 -2.11082 -0.5
      vertex 17.9356 -2.26207 -0.5
    endloop
  endfacet
  facet normal 0 0 -1
    outer loop
      vertex 24.9 -14.9 -0.5
      vertex 17.4064 -1.92628 -0.5
      vertex 17.6604 -2.11082 -0.5
    endloop
  endfacet
  facet normal 0 0 -1
    outer loop
      vertex -24.9 -14.9 -0.5
      vertex 17.4064 -1.92628 -0.5
      vertex 24.9 -14.9 -0.5
    endloop
  endfacet
  facet normal -0 0 -1
    outer loop
      vertex 17.4064 -1.92628 -0.5
      vertex -24.9 -14.9 -0.5
      vertex 17.1776 -1.71137 -0.5
    endloop
  endfacet
  facet normal -0 0 -1
    outer loop
      vertex 17.1776 -1.71137 -0.5
      vertex -24.9 -14.9 -0.5
      vertex 16.9775 -1.46946 -0.5
    endloop
  endfacet
  facet normal -0 0 -1
    outer loop
      vertex 16.5197 -0.313333 -0.5
      vertex -24.9 -14.9 -0.5
      vertex 16.5 0 -0.5
    endloop
  endfacet
  facet normal -0 0 -1
    outer loop
      vertex 16.5785 -0.621724 -0.5
      vertex -24.9 -14.9 -0.5
      vertex 16.5197 -0.313333 -0.5
    endloop
  endfacet
  facet normal -0 0 -1
    outer loop
      vertex 16.6756 -0.920311 -0.5
      vertex -24.9 -14.9 -0.5
      vertex 16.5785 -0.621724 -0.5
    endloop
  endfacet
  facet normal -0 0 -1
    outer loop
      vertex 16.8092 -1.20438 -0.5
      vertex -24.9 -14.9 -0.5
      vertex 16.6756 -0.920311 -0.5
    endloop
  endfacet
  facet normal -0 0 -1
    outer loop
      vertex 16.9775 -1.46946 -0.5
      vertex -24.9 -14.9 -0.5
      vertex 16.8092 -1.20438 -0.5
    endloop
  endfacet
  facet normal 0 0 -1
    outer loop
      vertex 21.4803 0.313333 -0.5
      vertex 24.9 14.9 -0.5
      vertex 21.5 0 -0.5
    endloop
  endfacet
  facet normal 0 0 -1
    outer loop
      vertex 21.4215 0.621724 -0.5
      vertex 24.9 14.9 -0.5
      vertex 21.4803 0.313333 -0.5
    endloop
  endfacet
  facet normal 0 0 -1
    outer loop
      vertex 21.3244 0.920311 -0.5
      vertex 24.9 14.9 -0.5
      vertex 21.4215 0.621724 -0.5
    endloop
  endfacet
  facet normal 0 0 -1
    outer loop
      vertex 21.1908 1.20438 -0.5
      vertex 24.9 14.9 -0.5
      vertex 21.3244 0.920311 -0.5
    endloop
  endfacet
  facet normal 0 0 -1
    outer loop
      vertex 21.0225 1.46946 -0.5
      vertex 24.9 14.9 -0.5
      vertex 21.1908 1.20438 -0.5
    endloop
  endfacet
  facet normal 0 0 -1
    outer loop
      vertex 20.8224 1.71137 -0.5
      vertex 24.9 14.9 -0.5
      vertex 21.0225 1.46946 -0.5
    endloop
  endfacet
  facet normal 0 0 -1
    outer loop
      vertex 20.5936 1.92628 -0.5
      vertex 24.9 14.9 -0.5
      vertex 20.8224 1.71137 -0.5
    endloop
  endfacet
  facet normal 0 0 -1
    outer loop
      vertex 20.3396 2.11082 -0.5
      vertex 24.9 14.9 -0.5
      vertex 20.5936 1.92628 -0.5
    endloop
  endfacet
  facet normal 0 0 -1
    outer loop
      vertex 20.0644 2.26207 -0.5
      vertex 24.9 14.9 -0.5
      vertex 20.3396 2.11082 -0.5
    endloop
  endfacet
  facet normal 0 0 -1
    outer loop
      vertex 19.7725 2.37764 -0.5
      vertex 24.9 14.9 -0.5
      vertex 20.0644 2.26207 -0.5
    endloop
  endfacet
  facet normal 0 0 -1
    outer loop
      vertex 19.4685 2.45572 -0.5
      vertex 24.9 14.9 -0.5
      vertex 19.7725 2.37764 -0.5
    endloop
  endfacet
  facet normal 0 0 -1
    outer loop
      vertex 19.157 2.49507 -0.5
      vertex 24.9 14.9 -0.5
      vertex 19.4685 2.45572 -0.5
    endloop
  endfacet
  facet normal 0 0 -1
    outer loop
      vertex 18.843 2.49507 -0.5
      vertex 24.9 14.9 -0.5
      vertex 19.157 2.49507 -0.5
    endloop
  endfacet
  facet normal 0 0 -1
    outer loop
      vertex 18.5315 2.45572 -0.5
      vertex 24.9 14.9 -0.5
      vertex 18.843 2.49507 -0.5
    endloop
  endfacet
  facet normal 0 0 -1
    outer loop
      vertex 18.2275 2.37764 -0.5
      vertex 24.9 14.9 -0.5
      vertex 18.5315 2.45572 -0.5
    endloop
  endfacet
  facet normal 0 0 -1
    outer loop
      vertex 17.9356 2.26207 -0.5
      vertex 24.9 14.9 -0.5
      vertex 18.2275 2.37764 -0.5
    endloop
  endfacet
  facet normal 0 0 -1
    outer loop
      vertex 17.6604 2.11082 -0.5
      vertex 24.9 14.9 -0.5
      vertex 17.9356 2.26207 -0.5
    endloop
  endfacet
  facet normal 0 0 -1
    outer loop
      vertex 17.4064 1.92628 -0.5
      vertex 24.9 14.9 -0.5
      vertex 17.6604 2.11082 -0.5
    endloop
  endfacet
  facet normal 0 0 -1
    outer loop
      vertex -24.9 14.9 -0.5
      vertex 17.4064 1.92628 -0.5
      vertex 17.1776 1.71137 -0.5
    endloop
  endfacet
  facet normal 0 0 -1
    outer loop
      vertex -24.9 14.9 -0.5
      vertex 17.1776 1.71137 -0.5
      vertex 16.9775 1.46946 -0.5
    endloop
  endfacet
  facet normal 0 0 -1
    outer loop
      vertex -24.9 14.9 -0.5
      vertex 16.9775 1.46946 -0.5
      vertex 16.8092 1.20438 -0.5
    endloop
  endfacet
  facet normal 0 0 -1
    outer loop
      vertex -24.9 14.9 -0.5
      vertex 16.5 0 -0.5
      vertex -24.9 -14.9 -0.5
    endloop
  endfacet
  facet normal 0 0 -1
    outer loop
      vertex 16.5 0 -0.5
      vertex -24.9 14.9 -0.5
      vertex 16.5197 0.313333 -0.5
    endloop
  endfacet
  facet normal 0 0 -1
    outer loop
      vertex 16.5197 0.313333 -0.5
      vertex -24.9 14.9 -0.5
      vertex 16.5785 0.621724 -0.5
    endloop
  endfacet
  facet normal 0 0 -1
    outer loop
      vertex 16.5785 0.621724 -0.5
      vertex -24.9 14.9 -0.5
      vertex 16.6756 0.920311 -0.5
    endloop
  endfacet
  facet normal 0 0 -1
    outer loop
      vertex 16.6756 0.920311 -0.5
      vertex -24.9 14.9 -0.5
      vertex 16.8092 1.20438 -0.5
    endloop
  endfacet
  facet normal 0 0 -1
    outer loop
      vertex 17.4064 1.92628 -0.5
      vertex -24.9 14.9 -0.5
      vertex 24.9 14.9 -0.5
    endloop
  endfacet
  facet normal 0 -1 0
    outer loop
      vertex -24.9 -14.9 -0.5
      vertex 24.9 -14.9 1.3
      vertex -24.9 -14.9 1.3
    endloop
  endfacet
  facet normal 0 -1 -0
    outer loop
      vertex 24.9 -14.9 1.3
      vertex -24.9 -14.9 -0.5
      vertex 24.9 -14.9 -0.5
    endloop
  endfacet
  facet normal -0.904823 -0.425788 0
    outer loop
      vertex 20.4412 0.570593 0.5
      vertex 20.3583 0.746717 1.3
      vertex 20.3583 0.746717 0.5
    endloop
  endfacet
  facet normal -0.904823 -0.425788 0
    outer loop
      vertex 20.3583 0.746717 1.3
      vertex 20.4412 0.570593 0.5
      vertex 20.4412 0.570593 1.3
    endloop
  endfacet
  facet normal -0.844328 -0.535827 0
    outer loop
      vertex 20.3583 0.746717 0.5
      vertex 20.254 0.911067 1.3
      vertex 20.254 0.911067 0.5
    endloop
  endfacet
  facet normal -0.844328 -0.535827 0
    outer loop
      vertex 20.254 0.911067 1.3
      vertex 20.3583 0.746717 0.5
      vertex 20.3583 0.746717 1.3
    endloop
  endfacet
  facet normal -0.368129 -0.929775 0
    outer loop
      vertex 19.479 1.47414 0.5
      vertex 19.66 1.40248 1.3
      vertex 19.479 1.47414 1.3
    endloop
  endfacet
  facet normal -0.368129 -0.929775 -0
    outer loop
      vertex 19.66 1.40248 1.3
      vertex 19.479 1.47414 0.5
      vertex 19.66 1.40248 0.5
    endloop
  endfacet
  facet normal 0.368129 -0.929775 0
    outer loop
      vertex 18.34 1.40248 0.5
      vertex 18.521 1.47414 1.3
      vertex 18.34 1.40248 1.3
    endloop
  endfacet
  facet normal 0.368129 -0.929775 0
    outer loop
      vertex 18.521 1.47414 1.3
      vertex 18.34 1.40248 0.5
      vertex 18.521 1.47414 0.5
    endloop
  endfacet
  facet normal 0.904827 -0.42578 0
    outer loop
      vertex 17.5588 0.570593 1.3
      vertex 17.6417 0.746717 0.5
      vertex 17.6417 0.746717 1.3
    endloop
  endfacet
  facet normal 0.904827 -0.42578 0
    outer loop
      vertex 17.6417 0.746717 0.5
      vertex 17.5588 0.570593 1.3
      vertex 17.5588 0.570593 0.5
    endloop
  endfacet
  facet normal -0.982289 0.187374 0
    outer loop
      vertex 20.5013 -0.385468 0.5
      vertex 20.5378 -0.194266 1.3
      vertex 20.5378 -0.194266 0.5
    endloop
  endfacet
  facet normal -0.982289 0.187374 0
    outer loop
      vertex 20.5378 -0.194266 1.3
      vertex 20.5013 -0.385468 0.5
      vertex 20.5013 -0.385468 1.3
    endloop
  endfacet
  facet normal -0.125332 -0.992115 0
    outer loop
      vertex 19.0973 1.54694 0.5
      vertex 19.2904 1.52254 1.3
      vertex 19.0973 1.54694 1.3
    endloop
  endfacet
  facet normal -0.125332 -0.992115 -0
    outer loop
      vertex 19.2904 1.52254 1.3
      vertex 19.0973 1.54694 0.5
      vertex 19.2904 1.52254 0.5
    endloop
  endfacet
  facet normal -0.58779 -0.809014 0
    outer loop
      vertex 19.8305 1.30871 0.5
      vertex 19.988 1.19429 1.3
      vertex 19.8305 1.30871 1.3
    endloop
  endfacet
  facet normal -0.58779 -0.809014 -0
    outer loop
      vertex 19.988 1.19429 1.3
      vertex 19.8305 1.30871 0.5
      vertex 19.988 1.19429 0.5
    endloop
  endfacet
  facet normal 0.982289 -0.187374 0
    outer loop
      vertex 17.4622 0.194266 1.3
      vertex 17.4987 0.385468 0.5
      vertex 17.4987 0.385468 1.3
    endloop
  endfacet
  facet normal 0.982289 -0.187374 0
    outer loop
      vertex 17.4987 0.385468 0.5
      vertex 17.4622 0.194266 1.3
      vertex 17.4622 0.194266 0.5
    endloop
  endfacet
  facet normal 0.770513 -0.637425 0
    outer loop
      vertex 17.746 0.911067 1.3
      vertex 17.8701 1.06105 0.5
      vertex 17.8701 1.06105 1.3
    endloop
  endfacet
  facet normal 0.770513 -0.637425 0
    outer loop
      vertex 17.8701 1.06105 0.5
      vertex 17.746 0.911067 1.3
      vertex 17.746 0.911067 0.5
    endloop
  endfacet
  facet normal 0.481749 -0.876309 0
    outer loop
      vertex 18.1695 1.30871 0.5
      vertex 18.34 1.40248 1.3
      vertex 18.1695 1.30871 1.3
    endloop
  endfacet
  facet normal 0.481749 -0.876309 0
    outer loop
      vertex 18.34 1.40248 1.3
      vertex 18.1695 1.30871 0.5
      vertex 18.34 1.40248 0.5
    endloop
  endfacet
  facet normal 0.248689 -0.968583 0
    outer loop
      vertex 18.521 1.47414 0.5
      vertex 18.7096 1.52254 1.3
      vertex 18.521 1.47414 1.3
    endloop
  endfacet
  facet normal 0.248689 -0.968583 0
    outer loop
      vertex 18.7096 1.52254 1.3
      vertex 18.521 1.47414 0.5
      vertex 18.7096 1.52254 0.5
    endloop
  endfacet
  facet normal -0.998027 -0.062791 0
    outer loop
      vertex 20.55 0 0.5
      vertex 20.5378 0.194266 1.3
      vertex 20.5378 0.194266 0.5
    endloop
  endfacet
  facet normal -0.998027 -0.062791 0
    outer loop
      vertex 20.5378 0.194266 1.3
      vertex 20.55 0 0.5
      vertex 20.55 0 1.3
    endloop
  endfacet
  facet normal -0.951057 0.309015 0
    outer loop
      vertex 20.4412 -0.570593 0.5
      vertex 20.5013 -0.385468 1.3
      vertex 20.5013 -0.385468 0.5
    endloop
  endfacet
  facet normal -0.951057 0.309015 0
    outer loop
      vertex 20.5013 -0.385468 1.3
      vertex 20.4412 -0.570593 0.5
      vertex 20.4412 -0.570593 1.3
    endloop
  endfacet
  facet normal 0.684544 0.728972 -0
    outer loop
      vertex 18.012 -1.19429 0.5
      vertex 17.8701 -1.06105 1.3
      vertex 18.012 -1.19429 1.3
    endloop
  endfacet
  facet normal 0.684544 0.728972 0
    outer loop
      vertex 17.8701 -1.06105 1.3
      vertex 18.012 -1.19429 0.5
      vertex 17.8701 -1.06105 0.5
    endloop
  endfacet
  facet normal -0.58779 0.809014 0
    outer loop
      vertex 19.988 -1.19429 0.5
      vertex 19.8305 -1.30871 1.3
      vertex 19.988 -1.19429 1.3
    endloop
  endfacet
  facet normal -0.58779 0.809014 0
    outer loop
      vertex 19.8305 -1.30871 1.3
      vertex 19.988 -1.19429 0.5
      vertex 19.8305 -1.30871 0.5
    endloop
  endfacet
  facet normal -0.982289 -0.187374 0
    outer loop
      vertex 20.5378 0.194266 0.5
      vertex 20.5013 0.385468 1.3
      vertex 20.5013 0.385468 0.5
    endloop
  endfacet
  facet normal -0.982289 -0.187374 0
    outer loop
      vertex 20.5013 0.385468 1.3
      vertex 20.5378 0.194266 0.5
      vertex 20.5378 0.194266 1.3
    endloop
  endfacet
  facet normal -0.951057 -0.309015 0
    outer loop
      vertex 20.5013 0.385468 0.5
      vertex 20.4412 0.570593 1.3
      vertex 20.4412 0.570593 0.5
    endloop
  endfacet
  facet normal -0.951057 -0.309015 0
    outer loop
      vertex 20.4412 0.570593 1.3
      vertex 20.5013 0.385468 0.5
      vertex 20.5013 0.385468 1.3
    endloop
  endfacet
  facet normal -0.684544 -0.728972 0
    outer loop
      vertex 19.988 1.19429 0.5
      vertex 20.1299 1.06105 1.3
      vertex 19.988 1.19429 1.3
    endloop
  endfacet
  facet normal -0.684544 -0.728972 -0
    outer loop
      vertex 20.1299 1.06105 1.3
      vertex 19.988 1.19429 0.5
      vertex 20.1299 1.06105 0.5
    endloop
  endfacet
  facet normal 0 -1 0
    outer loop
      vertex 18.9027 1.54694 0.5
      vertex 19.0973 1.54694 1.3
      vertex 18.9027 1.54694 1.3
    endloop
  endfacet
  facet normal 0 -1 -0
    outer loop
      vertex 19.0973 1.54694 1.3
      vertex 18.9027 1.54694 0.5
      vertex 19.0973 1.54694 0.5
    endloop
  endfacet
  facet normal -0.248687 -0.968584 0
    outer loop
      vertex 19.2904 1.52254 0.5
      vertex 19.479 1.47414 1.3
      vertex 19.2904 1.52254 1.3
    endloop
  endfacet
  facet normal -0.248687 -0.968584 -0
    outer loop
      vertex 19.479 1.47414 1.3
      vertex 19.2904 1.52254 0.5
      vertex 19.479 1.47414 0.5
    endloop
  endfacet
  facet normal -0.481749 -0.876309 0
    outer loop
      vertex 19.66 1.40248 0.5
      vertex 19.8305 1.30871 1.3
      vertex 19.66 1.40248 1.3
    endloop
  endfacet
  facet normal -0.481749 -0.876309 -0
    outer loop
      vertex 19.8305 1.30871 1.3
      vertex 19.66 1.40248 0.5
      vertex 19.8305 1.30871 0.5
    endloop
  endfacet
  facet normal 0.998027 -0.062791 0
    outer loop
      vertex 17.45 0 1.3
      vertex 17.4622 0.194266 0.5
      vertex 17.4622 0.194266 1.3
    endloop
  endfacet
  facet normal 0.998027 -0.062791 0
    outer loop
      vertex 17.4622 0.194266 0.5
      vertex 17.45 0 1.3
      vertex 17.45 0 0.5
    endloop
  endfacet
  facet normal 0.951057 -0.309015 0
    outer loop
      vertex 17.4987 0.385468 1.3
      vertex 17.5588 0.570593 0.5
      vertex 17.5588 0.570593 1.3
    endloop
  endfacet
  facet normal 0.951057 -0.309015 0
    outer loop
      vertex 17.5588 0.570593 0.5
      vertex 17.4987 0.385468 1.3
      vertex 17.4987 0.385468 0.5
    endloop
  endfacet
  facet normal 0.844328 -0.535827 0
    outer loop
      vertex 17.6417 0.746717 1.3
      vertex 17.746 0.911067 0.5
      vertex 17.746 0.911067 1.3
    endloop
  endfacet
  facet normal 0.844328 -0.535827 0
    outer loop
      vertex 17.746 0.911067 0.5
      vertex 17.6417 0.746717 1.3
      vertex 17.6417 0.746717 0.5
    endloop
  endfacet
  facet normal 0.125331 -0.992115 0
    outer loop
      vertex 18.7096 1.52254 0.5
      vertex 18.9027 1.54694 1.3
      vertex 18.7096 1.52254 1.3
    endloop
  endfacet
  facet normal 0.125331 -0.992115 0
    outer loop
      vertex 18.9027 1.54694 1.3
      vertex 18.7096 1.52254 0.5
      vertex 18.9027 1.54694 0.5
    endloop
  endfacet
  facet normal 0.58779 -0.809014 0
    outer loop
      vertex 18.012 1.19429 0.5
      vertex 18.1695 1.30871 1.3
      vertex 18.012 1.19429 1.3
    endloop
  endfacet
  facet normal 0.58779 -0.809014 0
    outer loop
      vertex 18.1695 1.30871 1.3
      vertex 18.012 1.19429 0.5
      vertex 18.1695 1.30871 0.5
    endloop
  endfacet
  facet normal 0.684544 -0.728972 0
    outer loop
      vertex 17.8701 1.06105 0.5
      vertex 18.012 1.19429 1.3
      vertex 17.8701 1.06105 1.3
    endloop
  endfacet
  facet normal 0.684544 -0.728972 0
    outer loop
      vertex 18.012 1.19429 1.3
      vertex 17.8701 1.06105 0.5
      vertex 18.012 1.19429 0.5
    endloop
  endfacet
  facet normal -0.998027 0.062791 0
    outer loop
      vertex 20.5378 -0.194266 0.5
      vertex 20.55 0 1.3
      vertex 20.55 0 0.5
    endloop
  endfacet
  facet normal -0.998027 0.062791 0
    outer loop
      vertex 20.55 0 1.3
      vertex 20.5378 -0.194266 0.5
      vertex 20.5378 -0.194266 1.3
    endloop
  endfacet
  facet normal -0.844328 0.535827 0
    outer loop
      vertex 20.254 -0.911067 0.5
      vertex 20.3583 -0.746717 1.3
      vertex 20.3583 -0.746717 0.5
    endloop
  endfacet
  facet normal -0.844328 0.535827 0
    outer loop
      vertex 20.3583 -0.746717 1.3
      vertex 20.254 -0.911067 0.5
      vertex 20.254 -0.911067 1.3
    endloop
  endfacet
  facet normal 0.770513 0.637425 0
    outer loop
      vertex 17.8701 -1.06105 1.3
      vertex 17.746 -0.911067 0.5
      vertex 17.746 -0.911067 1.3
    endloop
  endfacet
  facet normal 0.770513 0.637425 0
    outer loop
      vertex 17.746 -0.911067 0.5
      vertex 17.8701 -1.06105 1.3
      vertex 17.8701 -1.06105 0.5
    endloop
  endfacet
  facet normal -0.248687 0.968584 0
    outer loop
      vertex 19.479 -1.47414 0.5
      vertex 19.2904 -1.52254 1.3
      vertex 19.479 -1.47414 1.3
    endloop
  endfacet
  facet normal -0.248687 0.968584 0
    outer loop
      vertex 19.2904 -1.52254 1.3
      vertex 19.479 -1.47414 0.5
      vertex 19.2904 -1.52254 0.5
    endloop
  endfacet
  facet normal -0.770517 -0.637419 0
    outer loop
      vertex 20.254 0.911067 0.5
      vertex 20.1299 1.06105 1.3
      vertex 20.1299 1.06105 0.5
    endloop
  endfacet
  facet normal -0.770517 -0.637419 0
    outer loop
      vertex 20.1299 1.06105 1.3
      vertex 20.254 0.911067 0.5
      vertex 20.254 0.911067 1.3
    endloop
  endfacet
  facet normal -0.904823 0.425788 0
    outer loop
      vertex 20.3583 -0.746717 0.5
      vertex 20.4412 -0.570593 1.3
      vertex 20.4412 -0.570593 0.5
    endloop
  endfacet
  facet normal -0.904823 0.425788 0
    outer loop
      vertex 20.4412 -0.570593 1.3
      vertex 20.3583 -0.746717 0.5
      vertex 20.3583 -0.746717 1.3
    endloop
  endfacet
  facet normal 0.481749 0.876309 -0
    outer loop
      vertex 18.34 -1.40248 0.5
      vertex 18.1695 -1.30871 1.3
      vertex 18.34 -1.40248 1.3
    endloop
  endfacet
  facet normal 0.481749 0.876309 0
    outer loop
      vertex 18.1695 -1.30871 1.3
      vertex 18.34 -1.40248 0.5
      vertex 18.1695 -1.30871 0.5
    endloop
  endfacet
  facet normal 0.248689 0.968583 -0
    outer loop
      vertex 18.7096 -1.52254 0.5
      vertex 18.521 -1.47414 1.3
      vertex 18.7096 -1.52254 1.3
    endloop
  endfacet
  facet normal 0.248689 0.968583 0
    outer loop
      vertex 18.521 -1.47414 1.3
      vertex 18.7096 -1.52254 0.5
      vertex 18.521 -1.47414 0.5
    endloop
  endfacet
  facet normal 0.125331 0.992115 -0
    outer loop
      vertex 18.9027 -1.54694 0.5
      vertex 18.7096 -1.52254 1.3
      vertex 18.9027 -1.54694 1.3
    endloop
  endfacet
  facet normal 0.125331 0.992115 0
    outer loop
      vertex 18.7096 -1.52254 1.3
      vertex 18.9027 -1.54694 0.5
      vertex 18.7096 -1.52254 0.5
    endloop
  endfacet
  facet normal 0.998027 0.062791 0
    outer loop
      vertex 17.4622 -0.194266 1.3
      vertex 17.45 0 0.5
      vertex 17.45 0 1.3
    endloop
  endfacet
  facet normal 0.998027 0.062791 0
    outer loop
      vertex 17.45 0 0.5
      vertex 17.4622 -0.194266 1.3
      vertex 17.4622 -0.194266 0.5
    endloop
  endfacet
  facet normal 0.951057 0.309015 0
    outer loop
      vertex 17.5588 -0.570593 1.3
      vertex 17.4987 -0.385468 0.5
      vertex 17.4987 -0.385468 1.3
    endloop
  endfacet
  facet normal 0.951057 0.309015 0
    outer loop
      vertex 17.4987 -0.385468 0.5
      vertex 17.5588 -0.570593 1.3
      vertex 17.5588 -0.570593 0.5
    endloop
  endfacet
  facet normal -0.125332 0.992115 0
    outer loop
      vertex 19.2904 -1.52254 0.5
      vertex 19.0973 -1.54694 1.3
      vertex 19.2904 -1.52254 1.3
    endloop
  endfacet
  facet normal -0.125332 0.992115 0
    outer loop
      vertex 19.0973 -1.54694 1.3
      vertex 19.2904 -1.52254 0.5
      vertex 19.0973 -1.54694 0.5
    endloop
  endfacet
  facet normal -0.481749 0.876309 0
    outer loop
      vertex 19.8305 -1.30871 0.5
      vertex 19.66 -1.40248 1.3
      vertex 19.8305 -1.30871 1.3
    endloop
  endfacet
  facet normal -0.481749 0.876309 0
    outer loop
      vertex 19.66 -1.40248 1.3
      vertex 19.8305 -1.30871 0.5
      vertex 19.66 -1.40248 0.5
    endloop
  endfacet
  facet normal -0.770517 0.637419 0
    outer loop
      vertex 20.1299 -1.06105 0.5
      vertex 20.254 -0.911067 1.3
      vertex 20.254 -0.911067 0.5
    endloop
  endfacet
  facet normal -0.770517 0.637419 0
    outer loop
      vertex 20.254 -0.911067 1.3
      vertex 20.1299 -1.06105 0.5
      vertex 20.1299 -1.06105 1.3
    endloop
  endfacet
  facet normal 0 1 -0
    outer loop
      vertex 19.0973 -1.54694 0.5
      vertex 18.9027 -1.54694 1.3
      vertex 19.0973 -1.54694 1.3
    endloop
  endfacet
  facet normal 0 1 0
    outer loop
      vertex 18.9027 -1.54694 1.3
      vertex 19.0973 -1.54694 0.5
      vertex 18.9027 -1.54694 0.5
    endloop
  endfacet
  facet normal 0.982289 0.187374 0
    outer loop
      vertex 17.4987 -0.385468 1.3
      vertex 17.4622 -0.194266 0.5
      vertex 17.4622 -0.194266 1.3
    endloop
  endfacet
  facet normal 0.982289 0.187374 0
    outer loop
      vertex 17.4622 -0.194266 0.5
      vertex 17.4987 -0.385468 1.3
      vertex 17.4987 -0.385468 0.5
    endloop
  endfacet
  facet normal 0.844328 0.535827 0
    outer loop
      vertex 17.746 -0.911067 1.3
      vertex 17.6417 -0.746717 0.5
      vertex 17.6417 -0.746717 1.3
    endloop
  endfacet
  facet normal 0.844328 0.535827 0
    outer loop
      vertex 17.6417 -0.746717 0.5
      vertex 17.746 -0.911067 1.3
      vertex 17.746 -0.911067 0.5
    endloop
  endfacet
  facet normal 0.904827 0.42578 0
    outer loop
      vertex 17.6417 -0.746717 1.3
      vertex 17.5588 -0.570593 0.5
      vertex 17.5588 -0.570593 1.3
    endloop
  endfacet
  facet normal 0.904827 0.42578 0
    outer loop
      vertex 17.5588 -0.570593 0.5
      vertex 17.6417 -0.746717 1.3
      vertex 17.6417 -0.746717 0.5
    endloop
  endfacet
  facet normal -0.368129 0.929775 0
    outer loop
      vertex 19.66 -1.40248 0.5
      vertex 19.479 -1.47414 1.3
      vertex 19.66 -1.40248 1.3
    endloop
  endfacet
  facet normal -0.368129 0.929775 0
    outer loop
      vertex 19.479 -1.47414 1.3
      vertex 19.66 -1.40248 0.5
      vertex 19.479 -1.47414 0.5
    endloop
  endfacet
  facet normal -0.684544 0.728972 0
    outer loop
      vertex 20.1299 -1.06105 0.5
      vertex 19.988 -1.19429 1.3
      vertex 20.1299 -1.06105 1.3
    endloop
  endfacet
  facet normal -0.684544 0.728972 0
    outer loop
      vertex 19.988 -1.19429 1.3
      vertex 20.1299 -1.06105 0.5
      vertex 19.988 -1.19429 0.5
    endloop
  endfacet
  facet normal 0.58779 0.809014 -0
    outer loop
      vertex 18.1695 -1.30871 0.5
      vertex 18.012 -1.19429 1.3
      vertex 18.1695 -1.30871 1.3
    endloop
  endfacet
  facet normal 0.58779 0.809014 0
    outer loop
      vertex 18.012 -1.19429 1.3
      vertex 18.1695 -1.30871 0.5
      vertex 18.012 -1.19429 0.5
    endloop
  endfacet
  facet normal 0.368129 0.929775 -0
    outer loop
      vertex 18.521 -1.47414 0.5
      vertex 18.34 -1.40248 1.3
      vertex 18.521 -1.47414 1.3
    endloop
  endfacet
  facet normal 0.368129 0.929775 0
    outer loop
      vertex 18.34 -1.40248 1.3
      vertex 18.521 -1.47414 0.5
      vertex 18.34 -1.40248 0.5
    endloop
  endfacet
  facet normal -0.998027 -0.0627941 0
    outer loop
      vertex 21.5 0 -0.5
      vertex 21.4803 0.313333 0.5
      vertex 21.4803 0.313333 -0.5
    endloop
  endfacet
  facet normal -0.998027 -0.0627941 0
    outer loop
      vertex 21.4803 0.313333 0.5
      vertex 21.5 0 -0.5
      vertex 21.5 0 0.5
    endloop
  endfacet
  facet normal 0 -1 0
    outer loop
      vertex 18.843 2.49507 -0.5
      vertex 19.157 2.49507 0.5
      vertex 18.843 2.49507 0.5
    endloop
  endfacet
  facet normal 0 -1 -0
    outer loop
      vertex 19.157 2.49507 0.5
      vertex 18.843 2.49507 -0.5
      vertex 19.157 2.49507 -0.5
    endloop
  endfacet
  facet normal -0.684545 -0.72897 0
    outer loop
      vertex 20.5936 1.92628 -0.5
      vertex 20.8224 1.71137 0.5
      vertex 20.5936 1.92628 0.5
    endloop
  endfacet
  facet normal -0.684545 -0.72897 -0
    outer loop
      vertex 20.8224 1.71137 0.5
      vertex 20.5936 1.92628 -0.5
      vertex 20.8224 1.71137 -0.5
    endloop
  endfacet
  facet normal 0.684545 -0.72897 0
    outer loop
      vertex 17.1776 1.71137 -0.5
      vertex 17.4064 1.92628 0.5
      vertex 17.1776 1.71137 0.5
    endloop
  endfacet
  facet normal 0.684545 -0.72897 0
    outer loop
      vertex 17.4064 1.92628 0.5
      vertex 17.1776 1.71137 -0.5
      vertex 17.4064 1.92628 -0.5
    endloop
  endfacet
  facet normal 0.368124 -0.929777 0
    outer loop
      vertex 17.9356 2.26207 -0.5
      vertex 18.2275 2.37764 0.5
      vertex 17.9356 2.26207 0.5
    endloop
  endfacet
  facet normal 0.368124 -0.929777 0
    outer loop
      vertex 18.2275 2.37764 0.5
      vertex 17.9356 2.26207 -0.5
      vertex 18.2275 2.37764 -0.5
    endloop
  endfacet
  facet normal -0.904827 -0.425779 0
    outer loop
      vertex 21.3244 0.920311 -0.5
      vertex 21.1908 1.20438 0.5
      vertex 21.1908 1.20438 -0.5
    endloop
  endfacet
  facet normal -0.904827 -0.425779 0
    outer loop
      vertex 21.1908 1.20438 0.5
      vertex 21.3244 0.920311 -0.5
      vertex 21.3244 0.920311 0.5
    endloop
  endfacet
  facet normal -0.368124 -0.929777 0
    outer loop
      vertex 19.7725 2.37764 -0.5
      vertex 20.0644 2.26207 0.5
      vertex 19.7725 2.37764 0.5
    endloop
  endfacet
  facet normal -0.368124 -0.929777 -0
    outer loop
      vertex 20.0644 2.26207 0.5
      vertex 19.7725 2.37764 -0.5
      vertex 20.0644 2.26207 -0.5
    endloop
  endfacet
  facet normal -0.248692 -0.968583 0
    outer loop
      vertex 19.4685 2.45572 -0.5
      vertex 19.7725 2.37764 0.5
      vertex 19.4685 2.45572 0.5
    endloop
  endfacet
  facet normal -0.248692 -0.968583 -0
    outer loop
      vertex 19.7725 2.37764 0.5
      vertex 19.4685 2.45572 -0.5
      vertex 19.7725 2.37764 -0.5
    endloop
  endfacet
  facet normal -0.481755 -0.876306 0
    outer loop
      vertex 20.0644 2.26207 -0.5
      vertex 20.3396 2.11082 0.5
      vertex 20.0644 2.26207 0.5
    endloop
  endfacet
  facet normal -0.481755 -0.876306 -0
    outer loop
      vertex 20.3396 2.11082 0.5
      vertex 20.0644 2.26207 -0.5
      vertex 20.3396 2.11082 -0.5
    endloop
  endfacet
  facet normal 0.904827 -0.425779 0
    outer loop
      vertex 16.6756 0.920311 0.5
      vertex 16.8092 1.20438 -0.5
      vertex 16.8092 1.20438 0.5
    endloop
  endfacet
  facet normal 0.904827 -0.425779 0
    outer loop
      vertex 16.8092 1.20438 -0.5
      vertex 16.6756 0.920311 0.5
      vertex 16.6756 0.920311 -0.5
    endloop
  endfacet
  facet normal 0.844327 -0.535828 0
    outer loop
      vertex 16.8092 1.20438 0.5
      vertex 16.9775 1.46946 -0.5
      vertex 16.9775 1.46946 0.5
    endloop
  endfacet
  facet normal 0.844327 -0.535828 0
    outer loop
      vertex 16.9775 1.46946 -0.5
      vertex 16.8092 1.20438 0.5
      vertex 16.8092 1.20438 -0.5
    endloop
  endfacet
  facet normal 0.587785 -0.809017 0
    outer loop
      vertex 17.4064 1.92628 -0.5
      vertex 17.6604 2.11082 0.5
      vertex 17.4064 1.92628 0.5
    endloop
  endfacet
  facet normal 0.587785 -0.809017 0
    outer loop
      vertex 17.6604 2.11082 0.5
      vertex 17.4064 1.92628 -0.5
      vertex 17.6604 2.11082 -0.5
    endloop
  endfacet
  facet normal 0.125333 -0.992115 0
    outer loop
      vertex 18.5315 2.45572 -0.5
      vertex 18.843 2.49507 0.5
      vertex 18.5315 2.45572 0.5
    endloop
  endfacet
  facet normal 0.125333 -0.992115 0
    outer loop
      vertex 18.843 2.49507 0.5
      vertex 18.5315 2.45572 -0.5
      vertex 18.843 2.49507 -0.5
    endloop
  endfacet
  facet normal -0.248692 0.968583 0
    outer loop
      vertex 19.7725 -2.37764 -0.5
      vertex 19.4685 -2.45572 0.5
      vertex 19.7725 -2.37764 0.5
    endloop
  endfacet
  facet normal -0.248692 0.968583 0
    outer loop
      vertex 19.4685 -2.45572 0.5
      vertex 19.7725 -2.37764 -0.5
      vertex 19.4685 -2.45572 -0.5
    endloop
  endfacet
  facet normal -0.125333 0.992115 0
    outer loop
      vertex 19.4685 -2.45572 -0.5
      vertex 19.157 -2.49507 0.5
      vertex 19.4685 -2.45572 0.5
    endloop
  endfacet
  facet normal -0.125333 0.992115 0
    outer loop
      vertex 19.157 -2.49507 0.5
      vertex 19.4685 -2.45572 -0.5
      vertex 19.157 -2.49507 -0.5
    endloop
  endfacet
  facet normal -0.951056 0.309019 0
    outer loop
      vertex 21.3244 -0.920311 -0.5
      vertex 21.4215 -0.621724 0.5
      vertex 21.4215 -0.621724 -0.5
    endloop
  endfacet
  facet normal -0.951056 0.309019 0
    outer loop
      vertex 21.4215 -0.621724 0.5
      vertex 21.3244 -0.920311 -0.5
      vertex 21.3244 -0.920311 0.5
    endloop
  endfacet
  facet normal 0.368124 0.929777 -0
    outer loop
      vertex 18.2275 -2.37764 -0.5
      vertex 17.9356 -2.26207 0.5
      vertex 18.2275 -2.37764 0.5
    endloop
  endfacet
  facet normal 0.368124 0.929777 0
    outer loop
      vertex 17.9356 -2.26207 0.5
      vertex 18.2275 -2.37764 -0.5
      vertex 17.9356 -2.26207 -0.5
    endloop
  endfacet
  facet normal 0.24869 0.968583 -0
    outer loop
      vertex 18.5315 -2.45572 -0.5
      vertex 18.2275 -2.37764 0.5
      vertex 18.5315 -2.45572 0.5
    endloop
  endfacet
  facet normal 0.24869 0.968583 0
    outer loop
      vertex 18.2275 -2.37764 0.5
      vertex 18.5315 -2.45572 -0.5
      vertex 18.2275 -2.37764 -0.5
    endloop
  endfacet
  facet normal 0.684545 0.72897 -0
    outer loop
      vertex 17.4064 -1.92628 -0.5
      vertex 17.1776 -1.71137 0.5
      vertex 17.4064 -1.92628 0.5
    endloop
  endfacet
  facet normal 0.684545 0.72897 0
    outer loop
      vertex 17.1776 -1.71137 0.5
      vertex 17.4064 -1.92628 -0.5
      vertex 17.1776 -1.71137 -0.5
    endloop
  endfacet
  facet normal -0.951056 -0.309019 0
    outer loop
      vertex 21.4215 0.621724 -0.5
      vertex 21.3244 0.920311 0.5
      vertex 21.3244 0.920311 -0.5
    endloop
  endfacet
  facet normal -0.951056 -0.309019 0
    outer loop
      vertex 21.3244 0.920311 0.5
      vertex 21.4215 0.621724 -0.5
      vertex 21.4215 0.621724 0.5
    endloop
  endfacet
  facet normal -0.982288 -0.18738 0
    outer loop
      vertex 21.4803 0.313333 -0.5
      vertex 21.4215 0.621724 0.5
      vertex 21.4215 0.621724 -0.5
    endloop
  endfacet
  facet normal -0.982288 -0.18738 0
    outer loop
      vertex 21.4215 0.621724 0.5
      vertex 21.4803 0.313333 -0.5
      vertex 21.4803 0.313333 0.5
    endloop
  endfacet
  facet normal -0.770517 -0.637419 0
    outer loop
      vertex 21.0225 1.46946 -0.5
      vertex 20.8224 1.71137 0.5
      vertex 20.8224 1.71137 -0.5
    endloop
  endfacet
  facet normal -0.770517 -0.637419 0
    outer loop
      vertex 20.8224 1.71137 0.5
      vertex 21.0225 1.46946 -0.5
      vertex 21.0225 1.46946 0.5
    endloop
  endfacet
  facet normal -0.844327 -0.535828 0
    outer loop
      vertex 21.1908 1.20438 -0.5
      vertex 21.0225 1.46946 0.5
      vertex 21.0225 1.46946 -0.5
    endloop
  endfacet
  facet normal -0.844327 -0.535828 0
    outer loop
      vertex 21.0225 1.46946 0.5
      vertex 21.1908 1.20438 -0.5
      vertex 21.1908 1.20438 0.5
    endloop
  endfacet
  facet normal -0.125333 -0.992115 0
    outer loop
      vertex 19.157 2.49507 -0.5
      vertex 19.4685 2.45572 0.5
      vertex 19.157 2.49507 0.5
    endloop
  endfacet
  facet normal -0.125333 -0.992115 -0
    outer loop
      vertex 19.4685 2.45572 0.5
      vertex 19.157 2.49507 -0.5
      vertex 19.4685 2.45572 -0.5
    endloop
  endfacet
  facet normal -0.587782 -0.809019 0
    outer loop
      vertex 20.3396 2.11082 -0.5
      vertex 20.5936 1.92628 0.5
      vertex 20.3396 2.11082 0.5
    endloop
  endfacet
  facet normal -0.587782 -0.809019 -0
    outer loop
      vertex 20.5936 1.92628 0.5
      vertex 20.3396 2.11082 -0.5
      vertex 20.5936 1.92628 -0.5
    endloop
  endfacet
  facet normal 0.982288 -0.18738 0
    outer loop
      vertex 16.5197 0.313333 0.5
      vertex 16.5785 0.621724 -0.5
      vertex 16.5785 0.621724 0.5
    endloop
  endfacet
  facet normal 0.982288 -0.18738 0
    outer loop
      vertex 16.5785 0.621724 -0.5
      vertex 16.5197 0.313333 0.5
      vertex 16.5197 0.313333 -0.5
    endloop
  endfacet
  facet normal 0.998027 -0.0627881 0
    outer loop
      vertex 16.5 0 0.5
      vertex 16.5197 0.313333 -0.5
      vertex 16.5197 0.313333 0.5
    endloop
  endfacet
  facet normal 0.998027 -0.0627881 0
    outer loop
      vertex 16.5197 0.313333 -0.5
      vertex 16.5 0 0.5
      vertex 16.5 0 -0.5
    endloop
  endfacet
  facet normal 0 0 -1
    outer loop
      vertex 20.55 0 0.5
      vertex 21.5 0 0.5
      vertex 21.4803 -0.313333 0.5
    endloop
  endfacet
  facet normal 0 0 -1
    outer loop
      vertex 20.5378 -0.194266 0.5
      vertex 21.4803 -0.313333 0.5
      vertex 21.4215 -0.621724 0.5
    endloop
  endfacet
  facet normal 0 0 -1
    outer loop
      vertex 21.5 0 0.5
      vertex 20.55 0 0.5
      vertex 21.4803 0.313333 0.5
    endloop
  endfacet
  facet normal 0 0 -1
    outer loop
      vertex 20.5013 -0.385468 0.5
      vertex 21.4215 -0.621724 0.5
      vertex 21.3244 -0.920311 0.5
    endloop
  endfacet
  facet normal 0 0 -1
    outer loop
      vertex 20.5378 0.194266 0.5
      vertex 21.4803 0.313333 0.5
      vertex 20.55 0 0.5
    endloop
  endfacet
  facet normal 0 0 -1
    outer loop
      vertex 20.4412 -0.570593 0.5
      vertex 21.3244 -0.920311 0.5
      vertex 21.1908 -1.20438 0.5
    endloop
  endfacet
  facet normal -0 0 -1
    outer loop
      vertex 21.4803 0.313333 0.5
      vertex 20.5378 0.194266 0.5
      vertex 21.4215 0.621724 0.5
    endloop
  endfacet
  facet normal 0 0 -1
    outer loop
      vertex 20.3583 -0.746717 0.5
      vertex 21.1908 -1.20438 0.5
      vertex 21.0225 -1.46946 0.5
    endloop
  endfacet
  facet normal 0 0 -1
    outer loop
      vertex 20.5013 0.385468 0.5
      vertex 21.4215 0.621724 0.5
      vertex 20.5378 0.194266 0.5
    endloop
  endfacet
  facet normal 0 0 -1
    outer loop
      vertex 20.254 -0.911067 0.5
      vertex 21.0225 -1.46946 0.5
      vertex 20.8224 -1.71137 0.5
    endloop
  endfacet
  facet normal -0 0 -1
    outer loop
      vertex 21.4215 0.621724 0.5
      vertex 20.5013 0.385468 0.5
      vertex 21.3244 0.920311 0.5
    endloop
  endfacet
  facet normal 0 0 -1
    outer loop
      vertex 20.1299 -1.06105 0.5
      vertex 20.8224 -1.71137 0.5
      vertex 20.5936 -1.92628 0.5
    endloop
  endfacet
  facet normal 0 0 -1
    outer loop
      vertex 20.4412 0.570593 0.5
      vertex 21.3244 0.920311 0.5
      vertex 20.5013 0.385468 0.5
    endloop
  endfacet
  facet normal -0 0 -1
    outer loop
      vertex 21.3244 0.920311 0.5
      vertex 20.4412 0.570593 0.5
      vertex 21.1908 1.20438 0.5
    endloop
  endfacet
  facet normal 0 0 -1
    outer loop
      vertex 21.4803 -0.313333 0.5
      vertex 20.5378 -0.194266 0.5
      vertex 20.55 0 0.5
    endloop
  endfacet
  facet normal 0 0 -1
    outer loop
      vertex 21.4215 -0.621724 0.5
      vertex 20.5013 -0.385468 0.5
      vertex 20.5378 -0.194266 0.5
    endloop
  endfacet
  facet normal 0 0 -1
    outer loop
      vertex 21.3244 -0.920311 0.5
      vertex 20.4412 -0.570593 0.5
      vertex 20.5013 -0.385468 0.5
    endloop
  endfacet
  facet normal 0 0 -1
    outer loop
      vertex 21.1908 -1.20438 0.5
      vertex 20.3583 -0.746717 0.5
      vertex 20.4412 -0.570593 0.5
    endloop
  endfacet
  facet normal 0 0 -1
    outer loop
      vertex 19.988 -1.19429 0.5
      vertex 20.5936 -1.92628 0.5
      vertex 20.3396 -2.11082 0.5
    endloop
  endfacet
  facet normal 0 0 -1
    outer loop
      vertex 21.0225 -1.46946 0.5
      vertex 20.254 -0.911067 0.5
      vertex 20.3583 -0.746717 0.5
    endloop
  endfacet
  facet normal 0 0 -1
    outer loop
      vertex 20.8224 -1.71137 0.5
      vertex 20.1299 -1.06105 0.5
      vertex 20.254 -0.911067 0.5
    endloop
  endfacet
  facet normal 0 0 -1
    outer loop
      vertex 19.8305 -1.30871 0.5
      vertex 20.3396 -2.11082 0.5
      vertex 20.0644 -2.26207 0.5
    endloop
  endfacet
  facet normal 0 0 -1
    outer loop
      vertex 20.5936 -1.92628 0.5
      vertex 19.988 -1.19429 0.5
      vertex 20.1299 -1.06105 0.5
    endloop
  endfacet
  facet normal 0 0 -1
    outer loop
      vertex 20.3396 -2.11082 0.5
      vertex 19.8305 -1.30871 0.5
      vertex 19.988 -1.19429 0.5
    endloop
  endfacet
  facet normal 0 0 -1
    outer loop
      vertex 19.66 -1.40248 0.5
      vertex 20.0644 -2.26207 0.5
      vertex 19.7725 -2.37764 0.5
    endloop
  endfacet
  facet normal 0 0 -1
    outer loop
      vertex 20.0644 -2.26207 0.5
      vertex 19.66 -1.40248 0.5
      vertex 19.8305 -1.30871 0.5
    endloop
  endfacet
  facet normal 0 0 -1
    outer loop
      vertex 19.7725 -2.37764 0.5
      vertex 19.479 -1.47414 0.5
      vertex 19.66 -1.40248 0.5
    endloop
  endfacet
  facet normal 0 0 -1
    outer loop
      vertex 19.4685 -2.45572 0.5
      vertex 19.479 -1.47414 0.5
      vertex 19.7725 -2.37764 0.5
    endloop
  endfacet
  facet normal 0 0 -1
    outer loop
      vertex 19.4685 -2.45572 0.5
      vertex 19.2904 -1.52254 0.5
      vertex 19.479 -1.47414 0.5
    endloop
  endfacet
  facet normal 0 0 -1
    outer loop
      vertex 19.157 -2.49507 0.5
      vertex 19.2904 -1.52254 0.5
      vertex 19.4685 -2.45572 0.5
    endloop
  endfacet
  facet normal 0 0 -1
    outer loop
      vertex 19.157 -2.49507 0.5
      vertex 19.0973 -1.54694 0.5
      vertex 19.2904 -1.52254 0.5
    endloop
  endfacet
  facet normal 0 0 -1
    outer loop
      vertex 19.157 -2.49507 0.5
      vertex 18.9027 -1.54694 0.5
      vertex 19.0973 -1.54694 0.5
    endloop
  endfacet
  facet normal 0 0 -1
    outer loop
      vertex 18.843 -2.49507 0.5
      vertex 18.9027 -1.54694 0.5
      vertex 19.157 -2.49507 0.5
    endloop
  endfacet
  facet normal 0 0 -1
    outer loop
      vertex 18.843 -2.49507 0.5
      vertex 18.7096 -1.52254 0.5
      vertex 18.9027 -1.54694 0.5
    endloop
  endfacet
  facet normal 0 0 -1
    outer loop
      vertex 18.5315 -2.45572 0.5
      vertex 18.7096 -1.52254 0.5
      vertex 18.843 -2.49507 0.5
    endloop
  endfacet
  facet normal 0 0 -1
    outer loop
      vertex 18.5315 -2.45572 0.5
      vertex 18.521 -1.47414 0.5
      vertex 18.7096 -1.52254 0.5
    endloop
  endfacet
  facet normal 0 0 -1
    outer loop
      vertex 18.2275 -2.37764 0.5
      vertex 18.521 -1.47414 0.5
      vertex 18.5315 -2.45572 0.5
    endloop
  endfacet
  facet normal -0 0 -1
    outer loop
      vertex 18.521 -1.47414 0.5
      vertex 18.2275 -2.37764 0.5
      vertex 18.34 -1.40248 0.5
    endloop
  endfacet
  facet normal 0 0 -1
    outer loop
      vertex 17.9356 -2.26207 0.5
      vertex 18.34 -1.40248 0.5
      vertex 18.2275 -2.37764 0.5
    endloop
  endfacet
  facet normal -0 0 -1
    outer loop
      vertex 18.34 -1.40248 0.5
      vertex 17.9356 -2.26207 0.5
      vertex 18.1695 -1.30871 0.5
    endloop
  endfacet
  facet normal 0 0 -1
    outer loop
      vertex 17.6604 -2.11082 0.5
      vertex 18.1695 -1.30871 0.5
      vertex 17.9356 -2.26207 0.5
    endloop
  endfacet
  facet normal -0 0 -1
    outer loop
      vertex 18.1695 -1.30871 0.5
      vertex 17.6604 -2.11082 0.5
      vertex 18.012 -1.19429 0.5
    endloop
  endfacet
  facet normal 0 0 -1
    outer loop
      vertex 17.4064 -1.92628 0.5
      vertex 18.012 -1.19429 0.5
      vertex 17.6604 -2.11082 0.5
    endloop
  endfacet
  facet normal -0 0 -1
    outer loop
      vertex 18.012 -1.19429 0.5
      vertex 17.4064 -1.92628 0.5
      vertex 17.8701 -1.06105 0.5
    endloop
  endfacet
  facet normal 0 0 -1
    outer loop
      vertex 17.1776 -1.71137 0.5
      vertex 17.8701 -1.06105 0.5
      vertex 17.4064 -1.92628 0.5
    endloop
  endfacet
  facet normal -0 0 -1
    outer loop
      vertex 17.8701 -1.06105 0.5
      vertex 17.1776 -1.71137 0.5
      vertex 17.746 -0.911067 0.5
    endloop
  endfacet
  facet normal 0 0 -1
    outer loop
      vertex 16.9775 -1.46946 0.5
      vertex 17.746 -0.911067 0.5
      vertex 17.1776 -1.71137 0.5
    endloop
  endfacet
  facet normal -0 0 -1
    outer loop
      vertex 17.746 -0.911067 0.5
      vertex 16.9775 -1.46946 0.5
      vertex 17.6417 -0.746717 0.5
    endloop
  endfacet
  facet normal -0 0 -1
    outer loop
      vertex 17.6417 -0.746717 0.5
      vertex 16.8092 -1.20438 0.5
      vertex 17.5588 -0.570593 0.5
    endloop
  endfacet
  facet normal 0 0 -1
    outer loop
      vertex 16.8092 -1.20438 0.5
      vertex 17.6417 -0.746717 0.5
      vertex 16.9775 -1.46946 0.5
    endloop
  endfacet
  facet normal 0 0 -1
    outer loop
      vertex 20.3583 0.746717 0.5
      vertex 21.1908 1.20438 0.5
      vertex 20.4412 0.570593 0.5
    endloop
  endfacet
  facet normal -0 0 -1
    outer loop
      vertex 21.1908 1.20438 0.5
      vertex 20.3583 0.746717 0.5
      vertex 21.0225 1.46946 0.5
    endloop
  endfacet
  facet normal 0 0 -1
    outer loop
      vertex 20.254 0.911067 0.5
      vertex 21.0225 1.46946 0.5
      vertex 20.3583 0.746717 0.5
    endloop
  endfacet
  facet normal -0 0 -1
    outer loop
      vertex 21.0225 1.46946 0.5
      vertex 20.254 0.911067 0.5
      vertex 20.8224 1.71137 0.5
    endloop
  endfacet
  facet normal 0 0 -1
    outer loop
      vertex 20.1299 1.06105 0.5
      vertex 20.8224 1.71137 0.5
      vertex 20.254 0.911067 0.5
    endloop
  endfacet
  facet normal -0 0 -1
    outer loop
      vertex 20.8224 1.71137 0.5
      vertex 20.1299 1.06105 0.5
      vertex 20.5936 1.92628 0.5
    endloop
  endfacet
  facet normal 0 0 -1
    outer loop
      vertex 19.988 1.19429 0.5
      vertex 20.5936 1.92628 0.5
      vertex 20.1299 1.06105 0.5
    endloop
  endfacet
  facet normal -0 0 -1
    outer loop
      vertex 20.5936 1.92628 0.5
      vertex 19.988 1.19429 0.5
      vertex 20.3396 2.11082 0.5
    endloop
  endfacet
  facet normal 0 0 -1
    outer loop
      vertex 19.8305 1.30871 0.5
      vertex 20.3396 2.11082 0.5
      vertex 19.988 1.19429 0.5
    endloop
  endfacet
  facet normal -0 0 -1
    outer loop
      vertex 20.3396 2.11082 0.5
      vertex 19.8305 1.30871 0.5
      vertex 20.0644 2.26207 0.5
    endloop
  endfacet
  facet normal 0 0 -1
    outer loop
      vertex 19.66 1.40248 0.5
      vertex 20.0644 2.26207 0.5
      vertex 19.8305 1.30871 0.5
    endloop
  endfacet
  facet normal -0 0 -1
    outer loop
      vertex 20.0644 2.26207 0.5
      vertex 19.66 1.40248 0.5
      vertex 19.7725 2.37764 0.5
    endloop
  endfacet
  facet normal 0 0 -1
    outer loop
      vertex 19.479 1.47414 0.5
      vertex 19.7725 2.37764 0.5
      vertex 19.66 1.40248 0.5
    endloop
  endfacet
  facet normal 0 0 -1
    outer loop
      vertex 19.479 1.47414 0.5
      vertex 19.4685 2.45572 0.5
      vertex 19.7725 2.37764 0.5
    endloop
  endfacet
  facet normal 0 0 -1
    outer loop
      vertex 19.2904 1.52254 0.5
      vertex 19.4685 2.45572 0.5
      vertex 19.479 1.47414 0.5
    endloop
  endfacet
  facet normal 0 0 -1
    outer loop
      vertex 19.2904 1.52254 0.5
      vertex 19.157 2.49507 0.5
      vertex 19.4685 2.45572 0.5
    endloop
  endfacet
  facet normal 0 0 -1
    outer loop
      vertex 19.0973 1.54694 0.5
      vertex 19.157 2.49507 0.5
      vertex 19.2904 1.52254 0.5
    endloop
  endfacet
  facet normal 0 0 -1
    outer loop
      vertex 18.9027 1.54694 0.5
      vertex 19.157 2.49507 0.5
      vertex 19.0973 1.54694 0.5
    endloop
  endfacet
  facet normal 0 0 -1
    outer loop
      vertex 18.9027 1.54694 0.5
      vertex 18.843 2.49507 0.5
      vertex 19.157 2.49507 0.5
    endloop
  endfacet
  facet normal 0 0 -1
    outer loop
      vertex 18.7096 1.52254 0.5
      vertex 18.843 2.49507 0.5
      vertex 18.9027 1.54694 0.5
    endloop
  endfacet
  facet normal 0 0 -1
    outer loop
      vertex 18.7096 1.52254 0.5
      vertex 18.5315 2.45572 0.5
      vertex 18.843 2.49507 0.5
    endloop
  endfacet
  facet normal 0 0 -1
    outer loop
      vertex 18.521 1.47414 0.5
      vertex 18.5315 2.45572 0.5
      vertex 18.7096 1.52254 0.5
    endloop
  endfacet
  facet normal 0 0 -1
    outer loop
      vertex 18.2275 2.37764 0.5
      vertex 18.521 1.47414 0.5
      vertex 18.34 1.40248 0.5
    endloop
  endfacet
  facet normal 0 0 -1
    outer loop
      vertex 18.521 1.47414 0.5
      vertex 18.2275 2.37764 0.5
      vertex 18.5315 2.45572 0.5
    endloop
  endfacet
  facet normal 0 0 -1
    outer loop
      vertex 17.9356 2.26207 0.5
      vertex 18.34 1.40248 0.5
      vertex 18.1695 1.30871 0.5
    endloop
  endfacet
  facet normal 0 0 -1
    outer loop
      vertex 17.6604 2.11082 0.5
      vertex 18.1695 1.30871 0.5
      vertex 18.012 1.19429 0.5
    endloop
  endfacet
  facet normal 0 0 -1
    outer loop
      vertex 18.34 1.40248 0.5
      vertex 17.9356 2.26207 0.5
      vertex 18.2275 2.37764 0.5
    endloop
  endfacet
  facet normal 0 0 -1
    outer loop
      vertex 17.4064 1.92628 0.5
      vertex 18.012 1.19429 0.5
      vertex 17.8701 1.06105 0.5
    endloop
  endfacet
  facet normal 0 0 -1
    outer loop
      vertex 17.1776 1.71137 0.5
      vertex 17.8701 1.06105 0.5
      vertex 17.746 0.911067 0.5
    endloop
  endfacet
  facet normal 0 0 -1
    outer loop
      vertex 18.1695 1.30871 0.5
      vertex 17.6604 2.11082 0.5
      vertex 17.9356 2.26207 0.5
    endloop
  endfacet
  facet normal 0 0 -1
    outer loop
      vertex 16.9775 1.46946 0.5
      vertex 17.746 0.911067 0.5
      vertex 17.6417 0.746717 0.5
    endloop
  endfacet
  facet normal 0 0 -1
    outer loop
      vertex 16.8092 1.20438 0.5
      vertex 17.6417 0.746717 0.5
      vertex 17.5588 0.570593 0.5
    endloop
  endfacet
  facet normal 0 0 -1
    outer loop
      vertex 16.6756 0.920311 0.5
      vertex 17.5588 0.570593 0.5
      vertex 17.4987 0.385468 0.5
    endloop
  endfacet
  facet normal 0 0 -1
    outer loop
      vertex 16.5785 0.621724 0.5
      vertex 17.4987 0.385468 0.5
      vertex 17.4622 0.194266 0.5
    endloop
  endfacet
  facet normal 0 0 -1
    outer loop
      vertex 18.012 1.19429 0.5
      vertex 17.4064 1.92628 0.5
      vertex 17.6604 2.11082 0.5
    endloop
  endfacet
  facet normal 0 0 -1
    outer loop
      vertex 16.5197 0.313333 0.5
      vertex 17.4622 0.194266 0.5
      vertex 17.45 0 0.5
    endloop
  endfacet
  facet normal 0 0 -1
    outer loop
      vertex 16.6756 -0.920311 0.5
      vertex 17.5588 -0.570593 0.5
      vertex 16.8092 -1.20438 0.5
    endloop
  endfacet
  facet normal -0 0 -1
    outer loop
      vertex 17.5588 -0.570593 0.5
      vertex 16.6756 -0.920311 0.5
      vertex 17.4987 -0.385468 0.5
    endloop
  endfacet
  facet normal 0 0 -1
    outer loop
      vertex 17.8701 1.06105 0.5
      vertex 17.1776 1.71137 0.5
      vertex 17.4064 1.92628 0.5
    endloop
  endfacet
  facet normal 0 0 -1
    outer loop
      vertex 16.5785 -0.621724 0.5
      vertex 17.4987 -0.385468 0.5
      vertex 16.6756 -0.920311 0.5
    endloop
  endfacet
  facet normal 0 0 -1
    outer loop
      vertex 17.746 0.911067 0.5
      vertex 16.9775 1.46946 0.5
      vertex 17.1776 1.71137 0.5
    endloop
  endfacet
  facet normal -0 0 -1
    outer loop
      vertex 17.4987 -0.385468 0.5
      vertex 16.5785 -0.621724 0.5
      vertex 17.4622 -0.194266 0.5
    endloop
  endfacet
  facet normal 0 0 -1
    outer loop
      vertex 17.6417 0.746717 0.5
      vertex 16.8092 1.20438 0.5
      vertex 16.9775 1.46946 0.5
    endloop
  endfacet
  facet normal 0 0 -1
    outer loop
      vertex 16.5197 -0.313333 0.5
      vertex 17.4622 -0.194266 0.5
      vertex 16.5785 -0.621724 0.5
    endloop
  endfacet
  facet normal 0 0 -1
    outer loop
      vertex 17.5588 0.570593 0.5
      vertex 16.6756 0.920311 0.5
      vertex 16.8092 1.20438 0.5
    endloop
  endfacet
  facet normal -0 0 -1
    outer loop
      vertex 17.4622 -0.194266 0.5
      vertex 16.5197 -0.313333 0.5
      vertex 17.45 0 0.5
    endloop
  endfacet
  facet normal 0 0 -1
    outer loop
      vertex 17.4987 0.385468 0.5
      vertex 16.5785 0.621724 0.5
      vertex 16.6756 0.920311 0.5
    endloop
  endfacet
  facet normal 0 0 -1
    outer loop
      vertex 16.5 0 0.5
      vertex 17.45 0 0.5
      vertex 16.5197 -0.313333 0.5
    endloop
  endfacet
  facet normal 0 0 -1
    outer loop
      vertex 17.4622 0.194266 0.5
      vertex 16.5197 0.313333 0.5
      vertex 16.5785 0.621724 0.5
    endloop
  endfacet
  facet normal 0 0 -1
    outer loop
      vertex 17.45 0 0.5
      vertex 16.5 0 0.5
      vertex 16.5197 0.313333 0.5
    endloop
  endfacet
  facet normal 0.481755 -0.876306 0
    outer loop
      vertex 17.6604 2.11082 -0.5
      vertex 17.9356 2.26207 0.5
      vertex 17.6604 2.11082 0.5
    endloop
  endfacet
  facet normal 0.481755 -0.876306 0
    outer loop
      vertex 17.9356 2.26207 0.5
      vertex 17.6604 2.11082 -0.5
      vertex 17.9356 2.26207 -0.5
    endloop
  endfacet
  facet normal 0.24869 -0.968583 0
    outer loop
      vertex 18.2275 2.37764 -0.5
      vertex 18.5315 2.45572 0.5
      vertex 18.2275 2.37764 0.5
    endloop
  endfacet
  facet normal 0.24869 -0.968583 0
    outer loop
      vertex 18.5315 2.45572 0.5
      vertex 18.2275 2.37764 -0.5
      vertex 18.5315 2.45572 -0.5
    endloop
  endfacet
  facet normal -0.481755 0.876306 0
    outer loop
      vertex 20.3396 -2.11082 -0.5
      vertex 20.0644 -2.26207 0.5
      vertex 20.3396 -2.11082 0.5
    endloop
  endfacet
  facet normal -0.481755 0.876306 0
    outer loop
      vertex 20.0644 -2.26207 0.5
      vertex 20.3396 -2.11082 -0.5
      vertex 20.0644 -2.26207 -0.5
    endloop
  endfacet
  facet normal -0.684545 0.72897 0
    outer loop
      vertex 20.8224 -1.71137 -0.5
      vertex 20.5936 -1.92628 0.5
      vertex 20.8224 -1.71137 0.5
    endloop
  endfacet
  facet normal -0.684545 0.72897 0
    outer loop
      vertex 20.5936 -1.92628 0.5
      vertex 20.8224 -1.71137 -0.5
      vertex 20.5936 -1.92628 -0.5
    endloop
  endfacet
  facet normal -0.904827 0.425779 0
    outer loop
      vertex 21.1908 -1.20438 -0.5
      vertex 21.3244 -0.920311 0.5
      vertex 21.3244 -0.920311 -0.5
    endloop
  endfacet
  facet normal -0.904827 0.425779 0
    outer loop
      vertex 21.3244 -0.920311 0.5
      vertex 21.1908 -1.20438 -0.5
      vertex 21.1908 -1.20438 0.5
    endloop
  endfacet
  facet normal -0.770517 0.637419 0
    outer loop
      vertex 20.8224 -1.71137 -0.5
      vertex 21.0225 -1.46946 0.5
      vertex 21.0225 -1.46946 -0.5
    endloop
  endfacet
  facet normal -0.770517 0.637419 0
    outer loop
      vertex 21.0225 -1.46946 0.5
      vertex 20.8224 -1.71137 -0.5
      vertex 20.8224 -1.71137 0.5
    endloop
  endfacet
  facet normal -0.844327 0.535828 0
    outer loop
      vertex 21.0225 -1.46946 -0.5
      vertex 21.1908 -1.20438 0.5
      vertex 21.1908 -1.20438 -0.5
    endloop
  endfacet
  facet normal -0.844327 0.535828 0
    outer loop
      vertex 21.1908 -1.20438 0.5
      vertex 21.0225 -1.46946 -0.5
      vertex 21.0225 -1.46946 0.5
    endloop
  endfacet
  facet normal 0.587785 0.809017 -0
    outer loop
      vertex 17.6604 -2.11082 -0.5
      vertex 17.4064 -1.92628 0.5
      vertex 17.6604 -2.11082 0.5
    endloop
  endfacet
  facet normal 0.587785 0.809017 0
    outer loop
      vertex 17.4064 -1.92628 0.5
      vertex 17.6604 -2.11082 -0.5
      vertex 17.4064 -1.92628 -0.5
    endloop
  endfacet
  facet normal 0.481755 0.876306 -0
    outer loop
      vertex 17.9356 -2.26207 -0.5
      vertex 17.6604 -2.11082 0.5
      vertex 17.9356 -2.26207 0.5
    endloop
  endfacet
  facet normal 0.481755 0.876306 0
    outer loop
      vertex 17.6604 -2.11082 0.5
      vertex 17.9356 -2.26207 -0.5
      vertex 17.6604 -2.11082 -0.5
    endloop
  endfacet
  facet normal 0.125333 0.992115 -0
    outer loop
      vertex 18.843 -2.49507 -0.5
      vertex 18.5315 -2.45572 0.5
      vertex 18.843 -2.49507 0.5
    endloop
  endfacet
  facet normal 0.125333 0.992115 0
    outer loop
      vertex 18.5315 -2.45572 0.5
      vertex 18.843 -2.49507 -0.5
      vertex 18.5315 -2.45572 -0.5
    endloop
  endfacet
  facet normal 0.844327 0.535828 0
    outer loop
      vertex 16.9775 -1.46946 0.5
      vertex 16.8092 -1.20438 -0.5
      vertex 16.8092 -1.20438 0.5
    endloop
  endfacet
  facet normal 0.844327 0.535828 0
    outer loop
      vertex 16.8092 -1.20438 -0.5
      vertex 16.9775 -1.46946 0.5
      vertex 16.9775 -1.46946 -0.5
    endloop
  endfacet
  facet normal 0.904827 0.425779 0
    outer loop
      vertex 16.8092 -1.20438 0.5
      vertex 16.6756 -0.920311 -0.5
      vertex 16.6756 -0.920311 0.5
    endloop
  endfacet
  facet normal 0.904827 0.425779 0
    outer loop
      vertex 16.6756 -0.920311 -0.5
      vertex 16.8092 -1.20438 0.5
      vertex 16.8092 -1.20438 -0.5
    endloop
  endfacet
  facet normal 0.982288 0.18738 0
    outer loop
      vertex 16.5785 -0.621724 0.5
      vertex 16.5197 -0.313333 -0.5
      vertex 16.5197 -0.313333 0.5
    endloop
  endfacet
  facet normal 0.982288 0.18738 0
    outer loop
      vertex 16.5197 -0.313333 -0.5
      vertex 16.5785 -0.621724 0.5
      vertex 16.5785 -0.621724 -0.5
    endloop
  endfacet
  facet normal 0.770514 -0.637423 0
    outer loop
      vertex 16.9775 1.46946 0.5
      vertex 17.1776 1.71137 -0.5
      vertex 17.1776 1.71137 0.5
    endloop
  endfacet
  facet normal 0.770514 -0.637423 0
    outer loop
      vertex 17.1776 1.71137 -0.5
      vertex 16.9775 1.46946 0.5
      vertex 16.9775 1.46946 -0.5
    endloop
  endfacet
  facet normal 0.951056 -0.309019 0
    outer loop
      vertex 16.5785 0.621724 0.5
      vertex 16.6756 0.920311 -0.5
      vertex 16.6756 0.920311 0.5
    endloop
  endfacet
  facet normal 0.951056 -0.309019 0
    outer loop
      vertex 16.6756 0.920311 -0.5
      vertex 16.5785 0.621724 0.5
      vertex 16.5785 0.621724 -0.5
    endloop
  endfacet
  facet normal 0.998027 0.0627881 0
    outer loop
      vertex 16.5197 -0.313333 0.5
      vertex 16.5 0 -0.5
      vertex 16.5 0 0.5
    endloop
  endfacet
  facet normal 0.998027 0.0627881 0
    outer loop
      vertex 16.5 0 -0.5
      vertex 16.5197 -0.313333 0.5
      vertex 16.5197 -0.313333 -0.5
    endloop
  endfacet
  facet normal -0.368124 0.929777 0
    outer loop
      vertex 20.0644 -2.26207 -0.5
      vertex 19.7725 -2.37764 0.5
      vertex 20.0644 -2.26207 0.5
    endloop
  endfacet
  facet normal -0.368124 0.929777 0
    outer loop
      vertex 19.7725 -2.37764 0.5
      vertex 20.0644 -2.26207 -0.5
      vertex 19.7725 -2.37764 -0.5
    endloop
  endfacet
  facet normal -0.587782 0.809019 0
    outer loop
      vertex 20.5936 -1.92628 -0.5
      vertex 20.3396 -2.11082 0.5
      vertex 20.5936 -1.92628 0.5
    endloop
  endfacet
  facet normal -0.587782 0.809019 0
    outer loop
      vertex 20.3396 -2.11082 0.5
      vertex 20.5936 -1.92628 -0.5
      vertex 20.3396 -2.11082 -0.5
    endloop
  endfacet
  facet normal -0.982288 0.18738 0
    outer loop
      vertex 21.4215 -0.621724 -0.5
      vertex 21.4803 -0.313333 0.5
      vertex 21.4803 -0.313333 -0.5
    endloop
  endfacet
  facet normal -0.982288 0.18738 0
    outer loop
      vertex 21.4803 -0.313333 0.5
      vertex 21.4215 -0.621724 -0.5
      vertex 21.4215 -0.621724 0.5
    endloop
  endfacet
  facet normal -0.998027 0.0627941 0
    outer loop
      vertex 21.4803 -0.313333 -0.5
      vertex 21.5 0 0.5
      vertex 21.5 0 -0.5
    endloop
  endfacet
  facet normal -0.998027 0.0627941 0
    outer loop
      vertex 21.5 0 0.5
      vertex 21.4803 -0.313333 -0.5
      vertex 21.4803 -0.313333 0.5
    endloop
  endfacet
  facet normal 0 1 -0
    outer loop
      vertex 19.157 -2.49507 -0.5
      vertex 18.843 -2.49507 0.5
      vertex 19.157 -2.49507 0.5
    endloop
  endfacet
  facet normal 0 1 0
    outer loop
      vertex 18.843 -2.49507 0.5
      vertex 19.157 -2.49507 -0.5
      vertex 18.843 -2.49507 -0.5
    endloop
  endfacet
  facet normal 0.770514 0.637423 0
    outer loop
      vertex 17.1776 -1.71137 0.5
      vertex 16.9775 -1.46946 -0.5
      vertex 16.9775 -1.46946 0.5
    endloop
  endfacet
  facet normal 0.770514 0.637423 0
    outer loop
      vertex 16.9775 -1.46946 -0.5
      vertex 17.1776 -1.71137 0.5
      vertex 17.1776 -1.71137 -0.5
    endloop
  endfacet
  facet normal 0.951056 0.309019 0
    outer loop
      vertex 16.6756 -0.920311 0.5
      vertex 16.5785 -0.621724 -0.5
      vertex 16.5785 -0.621724 0.5
    endloop
  endfacet
  facet normal 0.951056 0.309019 0
    outer loop
      vertex 16.5785 -0.621724 -0.5
      vertex 16.6756 -0.920311 0.5
      vertex 16.6756 -0.920311 -0.5
    endloop
  endfacet
  facet normal -1 0 0
    outer loop
      vertex -26 -9.9 0.400001
      vertex -26 -5.1 1.2
      vertex -26 -5.1 0.400001
    endloop
  endfacet
  facet normal -1 -0 0
    outer loop
      vertex -26 -5.1 1.2
      vertex -26 -9.9 0.400001
      vertex -26 -9.9 1.2
    endloop
  endfacet
  facet normal -0 0 1
    outer loop
      vertex -26 -5.1 1.2
      vertex -24.9 -9.9 1.2
      vertex -24.9 -5.1 1.2
    endloop
  endfacet
  facet normal 0 0 1
    outer loop
      vertex -24.9 -9.9 1.2
      vertex -26 -5.1 1.2
      vertex -26 -9.9 1.2
    endloop
  endfacet
  facet normal 0 1 -0
    outer loop
      vertex -24.9 -5.1 0.400001
      vertex -26 -5.1 1.2
      vertex -24.9 -5.1 1.2
    endloop
  endfacet
  facet normal 0 1 0
    outer loop
      vertex -26 -5.1 1.2
      vertex -24.9 -5.1 0.400001
      vertex -26 -5.1 0.400001
    endloop
  endfacet
  facet normal 0 0 -1
    outer loop
      vertex -26 -9.9 0.400001
      vertex -24.9 -5.1 0.400001
      vertex -24.9 -9.9 0.400001
    endloop
  endfacet
  facet normal -0 0 -1
    outer loop
      vertex -24.9 -5.1 0.400001
      vertex -26 -9.9 0.400001
      vertex -26 -5.1 0.400001
    endloop
  endfacet
  facet normal 0 -1 0
    outer loop
      vertex -26 -9.9 0.400001
      vertex -24.9 -9.9 1.2
      vertex -26 -9.9 1.2
    endloop
  endfacet
  facet normal 0 -1 -0
    outer loop
      vertex -24.9 -9.9 1.2
      vertex -26 -9.9 0.400001
      vertex -24.9 -9.9 0.400001
    endloop
  endfacet
  facet normal -1 0 0
    outer loop
      vertex -26 5.1 0.400001
      vertex -26 9.9 1.2
      vertex -26 9.9 0.400001
    endloop
  endfacet
  facet normal -1 -0 0
    outer loop
      vertex -26 9.9 1.2
      vertex -26 5.1 0.400001
      vertex -26 5.1 1.2
    endloop
  endfacet
  facet normal -0 0 1
    outer loop
      vertex -26 9.9 1.2
      vertex -24.9 5.1 1.2
      vertex -24.9 9.9 1.2
    endloop
  endfacet
  facet normal 0 0 1
    outer loop
      vertex -24.9 5.1 1.2
      vertex -26 9.9 1.2
      vertex -26 5.1 1.2
    endloop
  endfacet
  facet normal 0 1 -0
    outer loop
      vertex -24.9 9.9 0.400001
      vertex -26 9.9 1.2
      vertex -24.9 9.9 1.2
    endloop
  endfacet
  facet normal 0 1 0
    outer loop
      vertex -26 9.9 1.2
      vertex -24.9 9.9 0.400001
      vertex -26 9.9 0.400001
    endloop
  endfacet
  facet normal 0 0 -1
    outer loop
      vertex -26 5.1 0.400001
      vertex -24.9 9.9 0.400001
      vertex -24.9 5.1 0.400001
    endloop
  endfacet
  facet normal -0 0 -1
    outer loop
      vertex -24.9 9.9 0.400001
      vertex -26 5.1 0.400001
      vertex -26 9.9 0.400001
    endloop
  endfacet
  facet normal 0 -1 0
    outer loop
      vertex -26 5.1 0.400001
      vertex -24.9 5.1 1.2
      vertex -26 5.1 1.2
    endloop
  endfacet
  facet normal 0 -1 -0
    outer loop
      vertex -24.9 5.1 1.2
      vertex -26 5.1 0.400001
      vertex -24.9 5.1 0.400001
    endloop
  endfacet
endsolid OpenSCAD_Model
