  0
SECTION
  2
BLOCKS
  0
ENDSEC
  0
SECTION
  2
ENTITIES
  0
LINE
  8
0
 10
-100.274
 20
38.4039
 11
-100.191
 21
38.4109
  0
LINE
  8
0
 10
-100.191
 20
38.4109
 11
-100.108
 21
38.4214
  0
LINE
  8
0
 10
-100.108
 20
38.4214
 11
-100.025
 21
38.4354
  0
LINE
  8
0
 10
-100.025
 20
38.4354
 11
-99.9433
 21
38.4528
  0
LINE
  8
0
 10
-99.9433
 20
38.4528
 11
-99.8622
 21
38.4737
  0
LINE
  8
0
 10
-99.8622
 20
38.4737
 11
-99.782
 21
38.4979
  0
LINE
  8
0
 10
-99.782
 20
38.4979
 11
-99.7029
 21
38.5254
  0
LINE
  8
0
 10
-99.7029
 20
38.5254
 11
-99.625
 21
38.5563
  0
LINE
  8
0
 10
-99.625
 20
38.5563
 11
-99.5484
 21
38.5903
  0
LINE
  8
0
 10
-99.5484
 20
38.5903
 11
-99.4734
 21
38.6276
  0
LINE
  8
0
 10
-99.4734
 20
38.6276
 11
-99.4
 21
38.6679
  0
LINE
  8
0
 10
-99.4
 20
38.6679
 11
-99.3283
 21
38.7113
  0
LINE
  8
0
 10
-99.3283
 20
38.7113
 11
-99.2586
 21
38.7577
  0
LINE
  8
0
 10
-99.2586
 20
38.7577
 11
-99.1908
 21
38.8069
  0
LINE
  8
0
 10
-99.1908
 20
38.8069
 11
-99.1251
 21
38.859
  0
LINE
  8
0
 10
-99.1251
 20
38.859
 11
-99.0617
 21
38.9137
  0
LINE
  8
0
 10
-99.0617
 20
38.9137
 11
-99.0007
 21
38.9711
  0
LINE
  8
0
 10
-99.0007
 20
38.9711
 11
-98.9421
 21
39.0309
  0
LINE
  8
0
 10
-98.9421
 20
39.0309
 11
-98.886
 21
39.0932
  0
LINE
  8
0
 10
-98.886
 20
39.0932
 11
-98.8326
 21
39.1577
  0
LINE
  8
0
 10
-98.8326
 20
39.1577
 11
-98.782
 21
39.2244
  0
LINE
  8
0
 10
-98.782
 20
39.2244
 11
-98.7341
 21
39.2932
  0
LINE
  8
0
 10
-98.7341
 20
39.2932
 11
-98.6893
 21
39.3639
  0
LINE
  8
0
 10
-98.6893
 20
39.3639
 11
-98.6474
 21
39.4365
  0
LINE
  8
0
 10
-98.6474
 20
39.4365
 11
-98.6086
 21
39.5107
  0
LINE
  8
0
 10
-98.6086
 20
39.5107
 11
-98.5729
 21
39.5865
  0
LINE
  8
0
 10
-98.5729
 20
39.5865
 11
-98.5404
 21
39.6637
  0
LINE
  8
0
 10
-98.5404
 20
39.6637
 11
-98.5112
 21
39.7423
  0
LINE
  8
0
 10
-98.5112
 20
39.7423
 11
-98.4854
 21
39.8219
  0
LINE
  8
0
 10
-98.4854
 20
39.8219
 11
-98.4628
 21
39.9026
  0
LINE
  8
0
 10
-98.4628
 20
39.9026
 11
-98.4437
 21
39.9842
  0
LINE
  8
0
 10
-98.4437
 20
39.9842
 11
-98.428
 21
40.0665
  0
LINE
  8
0
 10
-98.428
 20
40.0665
 11
-98.4158
 21
40.1493
  0
LINE
  8
0
 10
-98.4158
 20
40.1493
 11
-98.407
 21
40.2326
  0
LINE
  8
0
 10
-98.407
 20
40.2326
 11
-98.4017
 21
40.3162
  0
LINE
  8
0
 10
-98.4017
 20
40.3162
 11
-98.4
 21
40.4
  0
LINE
  8
0
 10
-98.4
 20
40.4
 11
-98.4017
 21
40.4837
  0
LINE
  8
0
 10
-98.4017
 20
40.4837
 11
-98.407
 21
40.5674
  0
LINE
  8
0
 10
-98.407
 20
40.5674
 11
-98.4158
 21
40.6507
  0
LINE
  8
0
 10
-98.4158
 20
40.6507
 11
-98.428
 21
40.7335
  0
LINE
  8
0
 10
-98.428
 20
40.7335
 11
-98.4437
 21
40.8158
  0
LINE
  8
0
 10
-98.4437
 20
40.8158
 11
-98.4628
 21
40.8974
  0
LINE
  8
0
 10
-98.4628
 20
40.8974
 11
-98.4854
 21
40.9781
  0
LINE
  8
0
 10
-98.4854
 20
40.9781
 11
-98.5112
 21
41.0577
  0
LINE
  8
0
 10
-98.5112
 20
41.0577
 11
-98.5404
 21
41.1362
  0
LINE
  8
0
 10
-98.5404
 20
41.1362
 11
-98.5729
 21
41.2135
  0
LINE
  8
0
 10
-98.5729
 20
41.2135
 11
-98.6086
 21
41.2893
  0
LINE
  8
0
 10
-98.6086
 20
41.2893
 11
-98.6474
 21
41.3635
  0
LINE
  8
0
 10
-98.6474
 20
41.3635
 11
-98.6893
 21
41.4361
  0
LINE
  8
0
 10
-98.6893
 20
41.4361
 11
-98.7341
 21
41.5068
  0
LINE
  8
0
 10
-98.7341
 20
41.5068
 11
-98.782
 21
41.5756
  0
LINE
  8
0
 10
-98.782
 20
41.5756
 11
-98.8326
 21
41.6423
  0
LINE
  8
0
 10
-98.8326
 20
41.6423
 11
-98.886
 21
41.7068
  0
LINE
  8
0
 10
-98.886
 20
41.7068
 11
-98.9421
 21
41.7691
  0
LINE
  8
0
 10
-98.9421
 20
41.7691
 11
-99.0007
 21
41.8289
  0
LINE
  8
0
 10
-99.0007
 20
41.8289
 11
-99.0617
 21
41.8863
  0
LINE
  8
0
 10
-99.0617
 20
41.8863
 11
-99.1251
 21
41.941
  0
LINE
  8
0
 10
-99.1251
 20
41.941
 11
-99.1908
 21
41.9931
  0
LINE
  8
0
 10
-99.1908
 20
41.9931
 11
-99.2586
 21
42.0423
  0
LINE
  8
0
 10
-99.2586
 20
42.0423
 11
-99.3283
 21
42.0887
  0
LINE
  8
0
 10
-99.3283
 20
42.0887
 11
-99.4
 21
42.132
  0
LINE
  8
0
 10
-99.4
 20
42.132
 11
-99.4734
 21
42.1724
  0
LINE
  8
0
 10
-99.4734
 20
42.1724
 11
-99.5484
 21
42.2096
  0
LINE
  8
0
 10
-99.5484
 20
42.2096
 11
-99.625
 21
42.2437
  0
LINE
  8
0
 10
-99.625
 20
42.2437
 11
-99.7029
 21
42.2746
  0
LINE
  8
0
 10
-99.7029
 20
42.2746
 11
-99.782
 21
42.3021
  0
LINE
  8
0
 10
-99.782
 20
42.3021
 11
-99.8622
 21
42.3263
  0
LINE
  8
0
 10
-99.8622
 20
42.3263
 11
-99.9433
 21
42.3472
  0
LINE
  8
0
 10
-99.9433
 20
42.3472
 11
-100.025
 21
42.3646
  0
LINE
  8
0
 10
-100.025
 20
42.3646
 11
-100.108
 21
42.3785
  0
LINE
  8
0
 10
-100.108
 20
42.3785
 11
-100.191
 21
42.389
  0
LINE
  8
0
 10
-100.191
 20
42.389
 11
-100.274
 21
42.396
  0
LINE
  8
0
 10
-100.274
 20
42.396
 11
-100.358
 21
42.3996
  0
LINE
  8
0
 10
-100.358
 20
42.3996
 11
-100.442
 21
42.3996
  0
LINE
  8
0
 10
-100.442
 20
42.3996
 11
-100.526
 21
42.396
  0
LINE
  8
0
 10
-100.526
 20
42.396
 11
-100.609
 21
42.389
  0
LINE
  8
0
 10
-100.609
 20
42.389
 11
-100.692
 21
42.3785
  0
LINE
  8
0
 10
-100.692
 20
42.3785
 11
-100.775
 21
42.3646
  0
LINE
  8
0
 10
-100.775
 20
42.3646
 11
-100.857
 21
42.3472
  0
LINE
  8
0
 10
-100.857
 20
42.3472
 11
-100.938
 21
42.3263
  0
LINE
  8
0
 10
-100.938
 20
42.3263
 11
-101.018
 21
42.3021
  0
LINE
  8
0
 10
-101.018
 20
42.3021
 11
-101.097
 21
42.2746
  0
LINE
  8
0
 10
-101.097
 20
42.2746
 11
-101.175
 21
42.2437
  0
LINE
  8
0
 10
-101.175
 20
42.2437
 11
-101.252
 21
42.2096
  0
LINE
  8
0
 10
-101.252
 20
42.2096
 11
-101.327
 21
42.1724
  0
LINE
  8
0
 10
-101.327
 20
42.1724
 11
-101.4
 21
42.132
  0
LINE
  8
0
 10
-101.4
 20
42.132
 11
-101.472
 21
42.0887
  0
LINE
  8
0
 10
-101.472
 20
42.0887
 11
-101.541
 21
42.0423
  0
LINE
  8
0
 10
-101.541
 20
42.0423
 11
-101.609
 21
41.9931
  0
LINE
  8
0
 10
-101.609
 20
41.9931
 11
-101.675
 21
41.941
  0
LINE
  8
0
 10
-101.675
 20
41.941
 11
-101.738
 21
41.8863
  0
LINE
  8
0
 10
-101.738
 20
41.8863
 11
-101.799
 21
41.8289
  0
LINE
  8
0
 10
-101.799
 20
41.8289
 11
-101.858
 21
41.7691
  0
LINE
  8
0
 10
-101.858
 20
41.7691
 11
-101.914
 21
41.7068
  0
LINE
  8
0
 10
-101.914
 20
41.7068
 11
-101.967
 21
41.6423
  0
LINE
  8
0
 10
-101.967
 20
41.6423
 11
-102.018
 21
41.5756
  0
LINE
  8
0
 10
-102.018
 20
41.5756
 11
-102.066
 21
41.5068
  0
LINE
  8
0
 10
-102.066
 20
41.5068
 11
-102.111
 21
41.4361
  0
LINE
  8
0
 10
-102.111
 20
41.4361
 11
-102.153
 21
41.3635
  0
LINE
  8
0
 10
-102.153
 20
41.3635
 11
-102.191
 21
41.2893
  0
LINE
  8
0
 10
-102.191
 20
41.2893
 11
-102.227
 21
41.2135
  0
LINE
  8
0
 10
-102.227
 20
41.2135
 11
-102.26
 21
41.1362
  0
LINE
  8
0
 10
-102.26
 20
41.1362
 11
-102.289
 21
41.0577
  0
LINE
  8
0
 10
-102.289
 20
41.0577
 11
-102.315
 21
40.9781
  0
LINE
  8
0
 10
-102.315
 20
40.9781
 11
-102.337
 21
40.8974
  0
LINE
  8
0
 10
-102.337
 20
40.8974
 11
-102.356
 21
40.8158
  0
LINE
  8
0
 10
-102.356
 20
40.8158
 11
-102.372
 21
40.7335
  0
LINE
  8
0
 10
-102.372
 20
40.7335
 11
-102.384
 21
40.6507
  0
LINE
  8
0
 10
-102.384
 20
40.6507
 11
-102.393
 21
40.5674
  0
LINE
  8
0
 10
-102.393
 20
40.5674
 11
-102.398
 21
40.4837
  0
LINE
  8
0
 10
-102.398
 20
40.4837
 11
-102.4
 21
40.4
  0
LINE
  8
0
 10
-102.4
 20
40.4
 11
-102.398
 21
40.3162
  0
LINE
  8
0
 10
-102.398
 20
40.3162
 11
-102.393
 21
40.2326
  0
LINE
  8
0
 10
-102.393
 20
40.2326
 11
-102.384
 21
40.1493
  0
LINE
  8
0
 10
-102.384
 20
40.1493
 11
-102.372
 21
40.0665
  0
LINE
  8
0
 10
-102.372
 20
40.0665
 11
-102.356
 21
39.9842
  0
LINE
  8
0
 10
-102.356
 20
39.9842
 11
-102.337
 21
39.9026
  0
LINE
  8
0
 10
-102.337
 20
39.9026
 11
-102.315
 21
39.8219
  0
LINE
  8
0
 10
-102.315
 20
39.8219
 11
-102.289
 21
39.7423
  0
LINE
  8
0
 10
-102.289
 20
39.7423
 11
-102.26
 21
39.6637
  0
LINE
  8
0
 10
-102.26
 20
39.6637
 11
-102.227
 21
39.5865
  0
LINE
  8
0
 10
-102.227
 20
39.5865
 11
-102.191
 21
39.5107
  0
LINE
  8
0
 10
-102.191
 20
39.5107
 11
-102.153
 21
39.4365
  0
LINE
  8
0
 10
-102.153
 20
39.4365
 11
-102.111
 21
39.3639
  0
LINE
  8
0
 10
-102.111
 20
39.3639
 11
-102.066
 21
39.2932
  0
LINE
  8
0
 10
-102.066
 20
39.2932
 11
-102.018
 21
39.2244
  0
LINE
  8
0
 10
-102.018
 20
39.2244
 11
-101.967
 21
39.1577
  0
LINE
  8
0
 10
-101.967
 20
39.1577
 11
-101.914
 21
39.0932
  0
LINE
  8
0
 10
-101.914
 20
39.0932
 11
-101.858
 21
39.0309
  0
LINE
  8
0
 10
-101.858
 20
39.0309
 11
-101.799
 21
38.9711
  0
LINE
  8
0
 10
-101.799
 20
38.9711
 11
-101.738
 21
38.9137
  0
LINE
  8
0
 10
-101.738
 20
38.9137
 11
-101.675
 21
38.859
  0
LINE
  8
0
 10
-101.675
 20
38.859
 11
-101.609
 21
38.8069
  0
LINE
  8
0
 10
-101.609
 20
38.8069
 11
-101.541
 21
38.7577
  0
LINE
  8
0
 10
-101.541
 20
38.7577
 11
-101.472
 21
38.7113
  0
LINE
  8
0
 10
-101.472
 20
38.7113
 11
-101.4
 21
38.6679
  0
LINE
  8
0
 10
-101.4
 20
38.6679
 11
-101.327
 21
38.6276
  0
LINE
  8
0
 10
-101.327
 20
38.6276
 11
-101.252
 21
38.5903
  0
LINE
  8
0
 10
-101.252
 20
38.5903
 11
-101.175
 21
38.5563
  0
LINE
  8
0
 10
-101.175
 20
38.5563
 11
-101.097
 21
38.5254
  0
LINE
  8
0
 10
-101.097
 20
38.5254
 11
-101.018
 21
38.4979
  0
LINE
  8
0
 10
-101.018
 20
38.4979
 11
-100.938
 21
38.4737
  0
LINE
  8
0
 10
-100.938
 20
38.4737
 11
-100.857
 21
38.4528
  0
LINE
  8
0
 10
-100.857
 20
38.4528
 11
-100.775
 21
38.4354
  0
LINE
  8
0
 10
-100.775
 20
38.4354
 11
-100.692
 21
38.4214
  0
LINE
  8
0
 10
-100.692
 20
38.4214
 11
-100.609
 21
38.4109
  0
LINE
  8
0
 10
-100.609
 20
38.4109
 11
-100.526
 21
38.4039
  0
LINE
  8
0
 10
-100.526
 20
38.4039
 11
-100.442
 21
38.4004
  0
LINE
  8
0
 10
-100.442
 20
38.4004
 11
-100.358
 21
38.4004
  0
LINE
  8
0
 10
-100.358
 20
38.4004
 11
-100.274
 21
38.4039
  0
LINE
  8
0
 10
-19.4744
 20
38.4039
 11
-19.3909
 21
38.4109
  0
LINE
  8
0
 10
-19.3909
 20
38.4109
 11
-19.3078
 21
38.4214
  0
LINE
  8
0
 10
-19.3078
 20
38.4214
 11
-19.2253
 21
38.4354
  0
LINE
  8
0
 10
-19.2253
 20
38.4354
 11
-19.1433
 21
38.4528
  0
LINE
  8
0
 10
-19.1433
 20
38.4528
 11
-19.0622
 21
38.4737
  0
LINE
  8
0
 10
-19.0622
 20
38.4737
 11
-18.982
 21
38.4979
  0
LINE
  8
0
 10
-18.982
 20
38.4979
 11
-18.9029
 21
38.5254
  0
LINE
  8
0
 10
-18.9029
 20
38.5254
 11
-18.825
 21
38.5563
  0
LINE
  8
0
 10
-18.825
 20
38.5563
 11
-18.7484
 21
38.5903
  0
LINE
  8
0
 10
-18.7484
 20
38.5903
 11
-18.6734
 21
38.6276
  0
LINE
  8
0
 10
-18.6734
 20
38.6276
 11
-18.6
 21
38.6679
  0
LINE
  8
0
 10
-18.6
 20
38.6679
 11
-18.5284
 21
38.7113
  0
LINE
  8
0
 10
-18.5284
 20
38.7113
 11
-18.4586
 21
38.7577
  0
LINE
  8
0
 10
-18.4586
 20
38.7577
 11
-18.3908
 21
38.8069
  0
LINE
  8
0
 10
-18.3908
 20
38.8069
 11
-18.3252
 21
38.859
  0
LINE
  8
0
 10
-18.3252
 20
38.859
 11
-18.2617
 21
38.9137
  0
LINE
  8
0
 10
-18.2617
 20
38.9137
 11
-18.2007
 21
38.9711
  0
LINE
  8
0
 10
-18.2007
 20
38.9711
 11
-18.1421
 21
39.0309
  0
LINE
  8
0
 10
-18.1421
 20
39.0309
 11
-18.086
 21
39.0932
  0
LINE
  8
0
 10
-18.086
 20
39.0932
 11
-18.0326
 21
39.1577
  0
LINE
  8
0
 10
-18.0326
 20
39.1577
 11
-17.982
 21
39.2244
  0
LINE
  8
0
 10
-17.982
 20
39.2244
 11
-17.9342
 21
39.2932
  0
LINE
  8
0
 10
-17.9342
 20
39.2932
 11
-17.8893
 21
39.3639
  0
LINE
  8
0
 10
-17.8893
 20
39.3639
 11
-17.8474
 21
39.4365
  0
LINE
  8
0
 10
-17.8474
 20
39.4365
 11
-17.8086
 21
39.5107
  0
LINE
  8
0
 10
-17.8086
 20
39.5107
 11
-17.7729
 21
39.5865
  0
LINE
  8
0
 10
-17.7729
 20
39.5865
 11
-17.7404
 21
39.6637
  0
LINE
  8
0
 10
-17.7404
 20
39.6637
 11
-17.7113
 21
39.7423
  0
LINE
  8
0
 10
-17.7113
 20
39.7423
 11
-17.6854
 21
39.8219
  0
LINE
  8
0
 10
-17.6854
 20
39.8219
 11
-17.6628
 21
39.9026
  0
LINE
  8
0
 10
-17.6628
 20
39.9026
 11
-17.6437
 21
39.9842
  0
LINE
  8
0
 10
-17.6437
 20
39.9842
 11
-17.628
 21
40.0665
  0
LINE
  8
0
 10
-17.628
 20
40.0665
 11
-17.6158
 21
40.1493
  0
LINE
  8
0
 10
-17.6158
 20
40.1493
 11
-17.607
 21
40.2326
  0
LINE
  8
0
 10
-17.607
 20
40.2326
 11
-17.6018
 21
40.3162
  0
LINE
  8
0
 10
-17.6018
 20
40.3162
 11
-17.6
 21
40.4
  0
LINE
  8
0
 10
-17.6
 20
40.4
 11
-17.6018
 21
40.4837
  0
LINE
  8
0
 10
-17.6018
 20
40.4837
 11
-17.607
 21
40.5674
  0
LINE
  8
0
 10
-17.607
 20
40.5674
 11
-17.6158
 21
40.6507
  0
LINE
  8
0
 10
-17.6158
 20
40.6507
 11
-17.628
 21
40.7335
  0
LINE
  8
0
 10
-17.628
 20
40.7335
 11
-17.6437
 21
40.8158
  0
LINE
  8
0
 10
-17.6437
 20
40.8158
 11
-17.6628
 21
40.8974
  0
LINE
  8
0
 10
-17.6628
 20
40.8974
 11
-17.6854
 21
40.9781
  0
LINE
  8
0
 10
-17.6854
 20
40.9781
 11
-17.7113
 21
41.0577
  0
LINE
  8
0
 10
-17.7113
 20
41.0577
 11
-17.7404
 21
41.1362
  0
LINE
  8
0
 10
-17.7404
 20
41.1362
 11
-17.7729
 21
41.2135
  0
LINE
  8
0
 10
-17.7729
 20
41.2135
 11
-17.8086
 21
41.2893
  0
LINE
  8
0
 10
-17.8086
 20
41.2893
 11
-17.8474
 21
41.3635
  0
LINE
  8
0
 10
-17.8474
 20
41.3635
 11
-17.8893
 21
41.4361
  0
LINE
  8
0
 10
-17.8893
 20
41.4361
 11
-17.9342
 21
41.5068
  0
LINE
  8
0
 10
-17.9342
 20
41.5068
 11
-17.982
 21
41.5756
  0
LINE
  8
0
 10
-17.982
 20
41.5756
 11
-18.0326
 21
41.6423
  0
LINE
  8
0
 10
-18.0326
 20
41.6423
 11
-18.086
 21
41.7068
  0
LINE
  8
0
 10
-18.086
 20
41.7068
 11
-18.1421
 21
41.7691
  0
LINE
  8
0
 10
-18.1421
 20
41.7691
 11
-18.2007
 21
41.8289
  0
LINE
  8
0
 10
-18.2007
 20
41.8289
 11
-18.2617
 21
41.8863
  0
LINE
  8
0
 10
-18.2617
 20
41.8863
 11
-18.3252
 21
41.941
  0
LINE
  8
0
 10
-18.3252
 20
41.941
 11
-18.3908
 21
41.9931
  0
LINE
  8
0
 10
-18.3908
 20
41.9931
 11
-18.4586
 21
42.0423
  0
LINE
  8
0
 10
-18.4586
 20
42.0423
 11
-18.5284
 21
42.0887
  0
LINE
  8
0
 10
-18.5284
 20
42.0887
 11
-18.6
 21
42.132
  0
LINE
  8
0
 10
-18.6
 20
42.132
 11
-18.6734
 21
42.1724
  0
LINE
  8
0
 10
-18.6734
 20
42.1724
 11
-18.7484
 21
42.2096
  0
LINE
  8
0
 10
-18.7484
 20
42.2096
 11
-18.825
 21
42.2437
  0
LINE
  8
0
 10
-18.825
 20
42.2437
 11
-18.9029
 21
42.2746
  0
LINE
  8
0
 10
-18.9029
 20
42.2746
 11
-18.982
 21
42.3021
  0
LINE
  8
0
 10
-18.982
 20
42.3021
 11
-19.0622
 21
42.3263
  0
LINE
  8
0
 10
-19.0622
 20
42.3263
 11
-19.1433
 21
42.3472
  0
LINE
  8
0
 10
-19.1433
 20
42.3472
 11
-19.2253
 21
42.3646
  0
LINE
  8
0
 10
-19.2253
 20
42.3646
 11
-19.3078
 21
42.3785
  0
LINE
  8
0
 10
-19.3078
 20
42.3785
 11
-19.3909
 21
42.389
  0
LINE
  8
0
 10
-19.3909
 20
42.389
 11
-19.4744
 21
42.396
  0
LINE
  8
0
 10
-19.4744
 20
42.396
 11
-19.5581
 21
42.3996
  0
LINE
  8
0
 10
-19.5581
 20
42.3996
 11
-19.6419
 21
42.3996
  0
LINE
  8
0
 10
-19.6419
 20
42.3996
 11
-19.7256
 21
42.396
  0
LINE
  8
0
 10
-19.7256
 20
42.396
 11
-19.8091
 21
42.389
  0
LINE
  8
0
 10
-19.8091
 20
42.389
 11
-19.8922
 21
42.3785
  0
LINE
  8
0
 10
-19.8922
 20
42.3785
 11
-19.9748
 21
42.3646
  0
LINE
  8
0
 10
-19.9748
 20
42.3646
 11
-20.0567
 21
42.3472
  0
LINE
  8
0
 10
-20.0567
 20
42.3472
 11
-20.1378
 21
42.3263
  0
LINE
  8
0
 10
-20.1378
 20
42.3263
 11
-20.218
 21
42.3021
  0
LINE
  8
0
 10
-20.218
 20
42.3021
 11
-20.2971
 21
42.2746
  0
LINE
  8
0
 10
-20.2971
 20
42.2746
 11
-20.375
 21
42.2437
  0
LINE
  8
0
 10
-20.375
 20
42.2437
 11
-20.4516
 21
42.2096
  0
LINE
  8
0
 10
-20.4516
 20
42.2096
 11
-20.5266
 21
42.1724
  0
LINE
  8
0
 10
-20.5266
 20
42.1724
 11
-20.6
 21
42.132
  0
LINE
  8
0
 10
-20.6
 20
42.132
 11
-20.6717
 21
42.0887
  0
LINE
  8
0
 10
-20.6717
 20
42.0887
 11
-20.7414
 21
42.0423
  0
LINE
  8
0
 10
-20.7414
 20
42.0423
 11
-20.8092
 21
41.9931
  0
LINE
  8
0
 10
-20.8092
 20
41.9931
 11
-20.8749
 21
41.941
  0
LINE
  8
0
 10
-20.8749
 20
41.941
 11
-20.9383
 21
41.8863
  0
LINE
  8
0
 10
-20.9383
 20
41.8863
 11
-20.9993
 21
41.8289
  0
LINE
  8
0
 10
-20.9993
 20
41.8289
 11
-21.0579
 21
41.7691
  0
LINE
  8
0
 10
-21.0579
 20
41.7691
 11
-21.114
 21
41.7068
  0
LINE
  8
0
 10
-21.114
 20
41.7068
 11
-21.1674
 21
41.6423
  0
LINE
  8
0
 10
-21.1674
 20
41.6423
 11
-21.218
 21
41.5756
  0
LINE
  8
0
 10
-21.218
 20
41.5756
 11
-21.2659
 21
41.5068
  0
LINE
  8
0
 10
-21.2659
 20
41.5068
 11
-21.3107
 21
41.4361
  0
LINE
  8
0
 10
-21.3107
 20
41.4361
 11
-21.3526
 21
41.3635
  0
LINE
  8
0
 10
-21.3526
 20
41.3635
 11
-21.3914
 21
41.2893
  0
LINE
  8
0
 10
-21.3914
 20
41.2893
 11
-21.4271
 21
41.2135
  0
LINE
  8
0
 10
-21.4271
 20
41.2135
 11
-21.4596
 21
41.1362
  0
LINE
  8
0
 10
-21.4596
 20
41.1362
 11
-21.4888
 21
41.0577
  0
LINE
  8
0
 10
-21.4888
 20
41.0577
 11
-21.5146
 21
40.9781
  0
LINE
  8
0
 10
-21.5146
 20
40.9781
 11
-21.5372
 21
40.8974
  0
LINE
  8
0
 10
-21.5372
 20
40.8974
 11
-21.5563
 21
40.8158
  0
LINE
  8
0
 10
-21.5563
 20
40.8158
 11
-21.572
 21
40.7335
  0
LINE
  8
0
 10
-21.572
 20
40.7335
 11
-21.5842
 21
40.6507
  0
LINE
  8
0
 10
-21.5842
 20
40.6507
 11
-21.593
 21
40.5674
  0
LINE
  8
0
 10
-21.593
 20
40.5674
 11
-21.5983
 21
40.4837
  0
LINE
  8
0
 10
-21.5983
 20
40.4837
 11
-21.6
 21
40.4
  0
LINE
  8
0
 10
-21.6
 20
40.4
 11
-21.5983
 21
40.3162
  0
LINE
  8
0
 10
-21.5983
 20
40.3162
 11
-21.593
 21
40.2326
  0
LINE
  8
0
 10
-21.593
 20
40.2326
 11
-21.5842
 21
40.1493
  0
LINE
  8
0
 10
-21.5842
 20
40.1493
 11
-21.572
 21
40.0665
  0
LINE
  8
0
 10
-21.572
 20
40.0665
 11
-21.5563
 21
39.9842
  0
LINE
  8
0
 10
-21.5563
 20
39.9842
 11
-21.5372
 21
39.9026
  0
LINE
  8
0
 10
-21.5372
 20
39.9026
 11
-21.5146
 21
39.8219
  0
LINE
  8
0
 10
-21.5146
 20
39.8219
 11
-21.4888
 21
39.7423
  0
LINE
  8
0
 10
-21.4888
 20
39.7423
 11
-21.4596
 21
39.6637
  0
LINE
  8
0
 10
-21.4596
 20
39.6637
 11
-21.4271
 21
39.5865
  0
LINE
  8
0
 10
-21.4271
 20
39.5865
 11
-21.3914
 21
39.5107
  0
LINE
  8
0
 10
-21.3914
 20
39.5107
 11
-21.3526
 21
39.4365
  0
LINE
  8
0
 10
-21.3526
 20
39.4365
 11
-21.3107
 21
39.3639
  0
LINE
  8
0
 10
-21.3107
 20
39.3639
 11
-21.2659
 21
39.2932
  0
LINE
  8
0
 10
-21.2659
 20
39.2932
 11
-21.218
 21
39.2244
  0
LINE
  8
0
 10
-21.218
 20
39.2244
 11
-21.1674
 21
39.1577
  0
LINE
  8
0
 10
-21.1674
 20
39.1577
 11
-21.114
 21
39.0932
  0
LINE
  8
0
 10
-21.114
 20
39.0932
 11
-21.0579
 21
39.0309
  0
LINE
  8
0
 10
-21.0579
 20
39.0309
 11
-20.9993
 21
38.9711
  0
LINE
  8
0
 10
-20.9993
 20
38.9711
 11
-20.9383
 21
38.9137
  0
LINE
  8
0
 10
-20.9383
 20
38.9137
 11
-20.8749
 21
38.859
  0
LINE
  8
0
 10
-20.8749
 20
38.859
 11
-20.8092
 21
38.8069
  0
LINE
  8
0
 10
-20.8092
 20
38.8069
 11
-20.7414
 21
38.7577
  0
LINE
  8
0
 10
-20.7414
 20
38.7577
 11
-20.6717
 21
38.7113
  0
LINE
  8
0
 10
-20.6717
 20
38.7113
 11
-20.6
 21
38.6679
  0
LINE
  8
0
 10
-20.6
 20
38.6679
 11
-20.5266
 21
38.6276
  0
LINE
  8
0
 10
-20.5266
 20
38.6276
 11
-20.4516
 21
38.5903
  0
LINE
  8
0
 10
-20.4516
 20
38.5903
 11
-20.375
 21
38.5563
  0
LINE
  8
0
 10
-20.375
 20
38.5563
 11
-20.2971
 21
38.5254
  0
LINE
  8
0
 10
-20.2971
 20
38.5254
 11
-20.218
 21
38.4979
  0
LINE
  8
0
 10
-20.218
 20
38.4979
 11
-20.1378
 21
38.4737
  0
LINE
  8
0
 10
-20.1378
 20
38.4737
 11
-20.0567
 21
38.4528
  0
LINE
  8
0
 10
-20.0567
 20
38.4528
 11
-19.9748
 21
38.4354
  0
LINE
  8
0
 10
-19.9748
 20
38.4354
 11
-19.8922
 21
38.4214
  0
LINE
  8
0
 10
-19.8922
 20
38.4214
 11
-19.8091
 21
38.4109
  0
LINE
  8
0
 10
-19.8091
 20
38.4109
 11
-19.7256
 21
38.4039
  0
LINE
  8
0
 10
-19.7256
 20
38.4039
 11
-19.6419
 21
38.4004
  0
LINE
  8
0
 10
-19.6419
 20
38.4004
 11
-19.5581
 21
38.4004
  0
LINE
  8
0
 10
-19.5581
 20
38.4004
 11
-19.4744
 21
38.4039
  0
LINE
  8
0
 10
19.7256
 20
38.4039
 11
19.8091
 21
38.4109
  0
LINE
  8
0
 10
19.8091
 20
38.4109
 11
19.8922
 21
38.4214
  0
LINE
  8
0
 10
19.8922
 20
38.4214
 11
19.9748
 21
38.4354
  0
LINE
  8
0
 10
19.9748
 20
38.4354
 11
20.0567
 21
38.4528
  0
LINE
  8
0
 10
20.0567
 20
38.4528
 11
20.1378
 21
38.4737
  0
LINE
  8
0
 10
20.1378
 20
38.4737
 11
20.218
 21
38.4979
  0
LINE
  8
0
 10
20.218
 20
38.4979
 11
20.2971
 21
38.5254
  0
LINE
  8
0
 10
20.2971
 20
38.5254
 11
20.375
 21
38.5563
  0
LINE
  8
0
 10
20.375
 20
38.5563
 11
20.4516
 21
38.5903
  0
LINE
  8
0
 10
20.4516
 20
38.5903
 11
20.5266
 21
38.6276
  0
LINE
  8
0
 10
20.5266
 20
38.6276
 11
20.6
 21
38.6679
  0
LINE
  8
0
 10
20.6
 20
38.6679
 11
20.6717
 21
38.7113
  0
LINE
  8
0
 10
20.6717
 20
38.7113
 11
20.7414
 21
38.7577
  0
LINE
  8
0
 10
20.7414
 20
38.7577
 11
20.8092
 21
38.8069
  0
LINE
  8
0
 10
20.8092
 20
38.8069
 11
20.8749
 21
38.859
  0
LINE
  8
0
 10
20.8749
 20
38.859
 11
20.9383
 21
38.9137
  0
LINE
  8
0
 10
20.9383
 20
38.9137
 11
20.9993
 21
38.9711
  0
LINE
  8
0
 10
20.9993
 20
38.9711
 11
21.0579
 21
39.0309
  0
LINE
  8
0
 10
21.0579
 20
39.0309
 11
21.114
 21
39.0932
  0
LINE
  8
0
 10
21.114
 20
39.0932
 11
21.1674
 21
39.1577
  0
LINE
  8
0
 10
21.1674
 20
39.1577
 11
21.218
 21
39.2244
  0
LINE
  8
0
 10
21.218
 20
39.2244
 11
21.2659
 21
39.2932
  0
LINE
  8
0
 10
21.2659
 20
39.2932
 11
21.3107
 21
39.3639
  0
LINE
  8
0
 10
21.3107
 20
39.3639
 11
21.3526
 21
39.4365
  0
LINE
  8
0
 10
21.3526
 20
39.4365
 11
21.3914
 21
39.5107
  0
LINE
  8
0
 10
21.3914
 20
39.5107
 11
21.4271
 21
39.5865
  0
LINE
  8
0
 10
21.4271
 20
39.5865
 11
21.4596
 21
39.6637
  0
LINE
  8
0
 10
21.4596
 20
39.6637
 11
21.4888
 21
39.7423
  0
LINE
  8
0
 10
21.4888
 20
39.7423
 11
21.5146
 21
39.8219
  0
LINE
  8
0
 10
21.5146
 20
39.8219
 11
21.5372
 21
39.9026
  0
LINE
  8
0
 10
21.5372
 20
39.9026
 11
21.5563
 21
39.9842
  0
LINE
  8
0
 10
21.5563
 20
39.9842
 11
21.572
 21
40.0665
  0
LINE
  8
0
 10
21.572
 20
40.0665
 11
21.5842
 21
40.1493
  0
LINE
  8
0
 10
21.5842
 20
40.1493
 11
21.593
 21
40.2326
  0
LINE
  8
0
 10
21.593
 20
40.2326
 11
21.5983
 21
40.3162
  0
LINE
  8
0
 10
21.5983
 20
40.3162
 11
21.6
 21
40.4
  0
LINE
  8
0
 10
21.6
 20
40.4
 11
21.5983
 21
40.4837
  0
LINE
  8
0
 10
21.5983
 20
40.4837
 11
21.593
 21
40.5674
  0
LINE
  8
0
 10
21.593
 20
40.5674
 11
21.5842
 21
40.6507
  0
LINE
  8
0
 10
21.5842
 20
40.6507
 11
21.572
 21
40.7335
  0
LINE
  8
0
 10
21.572
 20
40.7335
 11
21.5563
 21
40.8158
  0
LINE
  8
0
 10
21.5563
 20
40.8158
 11
21.5372
 21
40.8974
  0
LINE
  8
0
 10
21.5372
 20
40.8974
 11
21.5146
 21
40.9781
  0
LINE
  8
0
 10
21.5146
 20
40.9781
 11
21.4888
 21
41.0577
  0
LINE
  8
0
 10
21.4888
 20
41.0577
 11
21.4596
 21
41.1362
  0
LINE
  8
0
 10
21.4596
 20
41.1362
 11
21.4271
 21
41.2135
  0
LINE
  8
0
 10
21.4271
 20
41.2135
 11
21.3914
 21
41.2893
  0
LINE
  8
0
 10
21.3914
 20
41.2893
 11
21.3526
 21
41.3635
  0
LINE
  8
0
 10
21.3526
 20
41.3635
 11
21.3107
 21
41.4361
  0
LINE
  8
0
 10
21.3107
 20
41.4361
 11
21.2659
 21
41.5068
  0
LINE
  8
0
 10
21.2659
 20
41.5068
 11
21.218
 21
41.5756
  0
LINE
  8
0
 10
21.218
 20
41.5756
 11
21.1674
 21
41.6423
  0
LINE
  8
0
 10
21.1674
 20
41.6423
 11
21.114
 21
41.7068
  0
LINE
  8
0
 10
21.114
 20
41.7068
 11
21.0579
 21
41.7691
  0
LINE
  8
0
 10
21.0579
 20
41.7691
 11
20.9993
 21
41.8289
  0
LINE
  8
0
 10
20.9993
 20
41.8289
 11
20.9383
 21
41.8863
  0
LINE
  8
0
 10
20.9383
 20
41.8863
 11
20.8749
 21
41.941
  0
LINE
  8
0
 10
20.8749
 20
41.941
 11
20.8092
 21
41.9931
  0
LINE
  8
0
 10
20.8092
 20
41.9931
 11
20.7414
 21
42.0423
  0
LINE
  8
0
 10
20.7414
 20
42.0423
 11
20.6717
 21
42.0887
  0
LINE
  8
0
 10
20.6717
 20
42.0887
 11
20.6
 21
42.132
  0
LINE
  8
0
 10
20.6
 20
42.132
 11
20.5266
 21
42.1724
  0
LINE
  8
0
 10
20.5266
 20
42.1724
 11
20.4516
 21
42.2096
  0
LINE
  8
0
 10
20.4516
 20
42.2096
 11
20.375
 21
42.2437
  0
LINE
  8
0
 10
20.375
 20
42.2437
 11
20.2971
 21
42.2746
  0
LINE
  8
0
 10
20.2971
 20
42.2746
 11
20.218
 21
42.3021
  0
LINE
  8
0
 10
20.218
 20
42.3021
 11
20.1378
 21
42.3263
  0
LINE
  8
0
 10
20.1378
 20
42.3263
 11
20.0567
 21
42.3472
  0
LINE
  8
0
 10
20.0567
 20
42.3472
 11
19.9748
 21
42.3646
  0
LINE
  8
0
 10
19.9748
 20
42.3646
 11
19.8922
 21
42.3785
  0
LINE
  8
0
 10
19.8922
 20
42.3785
 11
19.8091
 21
42.389
  0
LINE
  8
0
 10
19.8091
 20
42.389
 11
19.7256
 21
42.396
  0
LINE
  8
0
 10
19.7256
 20
42.396
 11
19.6419
 21
42.3996
  0
LINE
  8
0
 10
19.6419
 20
42.3996
 11
19.5581
 21
42.3996
  0
LINE
  8
0
 10
19.5581
 20
42.3996
 11
19.4744
 21
42.396
  0
LINE
  8
0
 10
19.4744
 20
42.396
 11
19.3909
 21
42.389
  0
LINE
  8
0
 10
19.3909
 20
42.389
 11
19.3078
 21
42.3785
  0
LINE
  8
0
 10
19.3078
 20
42.3785
 11
19.2253
 21
42.3646
  0
LINE
  8
0
 10
19.2253
 20
42.3646
 11
19.1433
 21
42.3472
  0
LINE
  8
0
 10
19.1433
 20
42.3472
 11
19.0622
 21
42.3263
  0
LINE
  8
0
 10
19.0622
 20
42.3263
 11
18.982
 21
42.3021
  0
LINE
  8
0
 10
18.982
 20
42.3021
 11
18.9029
 21
42.2746
  0
LINE
  8
0
 10
18.9029
 20
42.2746
 11
18.825
 21
42.2437
  0
LINE
  8
0
 10
18.825
 20
42.2437
 11
18.7484
 21
42.2096
  0
LINE
  8
0
 10
18.7484
 20
42.2096
 11
18.6734
 21
42.1724
  0
LINE
  8
0
 10
18.6734
 20
42.1724
 11
18.6
 21
42.132
  0
LINE
  8
0
 10
18.6
 20
42.132
 11
18.5284
 21
42.0887
  0
LINE
  8
0
 10
18.5284
 20
42.0887
 11
18.4586
 21
42.0423
  0
LINE
  8
0
 10
18.4586
 20
42.0423
 11
18.3908
 21
41.9931
  0
LINE
  8
0
 10
18.3908
 20
41.9931
 11
18.3252
 21
41.941
  0
LINE
  8
0
 10
18.3252
 20
41.941
 11
18.2617
 21
41.8863
  0
LINE
  8
0
 10
18.2617
 20
41.8863
 11
18.2007
 21
41.8289
  0
LINE
  8
0
 10
18.2007
 20
41.8289
 11
18.1421
 21
41.7691
  0
LINE
  8
0
 10
18.1421
 20
41.7691
 11
18.086
 21
41.7068
  0
LINE
  8
0
 10
18.086
 20
41.7068
 11
18.0326
 21
41.6423
  0
LINE
  8
0
 10
18.0326
 20
41.6423
 11
17.982
 21
41.5756
  0
LINE
  8
0
 10
17.982
 20
41.5756
 11
17.9342
 21
41.5068
  0
LINE
  8
0
 10
17.9342
 20
41.5068
 11
17.8893
 21
41.4361
  0
LINE
  8
0
 10
17.8893
 20
41.4361
 11
17.8474
 21
41.3635
  0
LINE
  8
0
 10
17.8474
 20
41.3635
 11
17.8086
 21
41.2893
  0
LINE
  8
0
 10
17.8086
 20
41.2893
 11
17.7729
 21
41.2135
  0
LINE
  8
0
 10
17.7729
 20
41.2135
 11
17.7404
 21
41.1362
  0
LINE
  8
0
 10
17.7404
 20
41.1362
 11
17.7113
 21
41.0577
  0
LINE
  8
0
 10
17.7113
 20
41.0577
 11
17.6854
 21
40.9781
  0
LINE
  8
0
 10
17.6854
 20
40.9781
 11
17.6628
 21
40.8974
  0
LINE
  8
0
 10
17.6628
 20
40.8974
 11
17.6437
 21
40.8158
  0
LINE
  8
0
 10
17.6437
 20
40.8158
 11
17.628
 21
40.7335
  0
LINE
  8
0
 10
17.628
 20
40.7335
 11
17.6158
 21
40.6507
  0
LINE
  8
0
 10
17.6158
 20
40.6507
 11
17.607
 21
40.5674
  0
LINE
  8
0
 10
17.607
 20
40.5674
 11
17.6018
 21
40.4837
  0
LINE
  8
0
 10
17.6018
 20
40.4837
 11
17.6
 21
40.4
  0
LINE
  8
0
 10
17.6
 20
40.4
 11
17.6018
 21
40.3162
  0
LINE
  8
0
 10
17.6018
 20
40.3162
 11
17.607
 21
40.2326
  0
LINE
  8
0
 10
17.607
 20
40.2326
 11
17.6158
 21
40.1493
  0
LINE
  8
0
 10
17.6158
 20
40.1493
 11
17.628
 21
40.0665
  0
LINE
  8
0
 10
17.628
 20
40.0665
 11
17.6437
 21
39.9842
  0
LINE
  8
0
 10
17.6437
 20
39.9842
 11
17.6628
 21
39.9026
  0
LINE
  8
0
 10
17.6628
 20
39.9026
 11
17.6854
 21
39.8219
  0
LINE
  8
0
 10
17.6854
 20
39.8219
 11
17.7113
 21
39.7423
  0
LINE
  8
0
 10
17.7113
 20
39.7423
 11
17.7404
 21
39.6637
  0
LINE
  8
0
 10
17.7404
 20
39.6637
 11
17.7729
 21
39.5865
  0
LINE
  8
0
 10
17.7729
 20
39.5865
 11
17.8086
 21
39.5107
  0
LINE
  8
0
 10
17.8086
 20
39.5107
 11
17.8474
 21
39.4365
  0
LINE
  8
0
 10
17.8474
 20
39.4365
 11
17.8893
 21
39.3639
  0
LINE
  8
0
 10
17.8893
 20
39.3639
 11
17.9342
 21
39.2932
  0
LINE
  8
0
 10
17.9342
 20
39.2932
 11
17.982
 21
39.2244
  0
LINE
  8
0
 10
17.982
 20
39.2244
 11
18.0326
 21
39.1577
  0
LINE
  8
0
 10
18.0326
 20
39.1577
 11
18.086
 21
39.0932
  0
LINE
  8
0
 10
18.086
 20
39.0932
 11
18.1421
 21
39.0309
  0
LINE
  8
0
 10
18.1421
 20
39.0309
 11
18.2007
 21
38.9711
  0
LINE
  8
0
 10
18.2007
 20
38.9711
 11
18.2617
 21
38.9137
  0
LINE
  8
0
 10
18.2617
 20
38.9137
 11
18.3252
 21
38.859
  0
LINE
  8
0
 10
18.3252
 20
38.859
 11
18.3908
 21
38.8069
  0
LINE
  8
0
 10
18.3908
 20
38.8069
 11
18.4586
 21
38.7577
  0
LINE
  8
0
 10
18.4586
 20
38.7577
 11
18.5284
 21
38.7113
  0
LINE
  8
0
 10
18.5284
 20
38.7113
 11
18.6
 21
38.6679
  0
LINE
  8
0
 10
18.6
 20
38.6679
 11
18.6734
 21
38.6276
  0
LINE
  8
0
 10
18.6734
 20
38.6276
 11
18.7484
 21
38.5903
  0
LINE
  8
0
 10
18.7484
 20
38.5903
 11
18.825
 21
38.5563
  0
LINE
  8
0
 10
18.825
 20
38.5563
 11
18.9029
 21
38.5254
  0
LINE
  8
0
 10
18.9029
 20
38.5254
 11
18.982
 21
38.4979
  0
LINE
  8
0
 10
18.982
 20
38.4979
 11
19.0622
 21
38.4737
  0
LINE
  8
0
 10
19.0622
 20
38.4737
 11
19.1433
 21
38.4528
  0
LINE
  8
0
 10
19.1433
 20
38.4528
 11
19.2253
 21
38.4354
  0
LINE
  8
0
 10
19.2253
 20
38.4354
 11
19.3078
 21
38.4214
  0
LINE
  8
0
 10
19.3078
 20
38.4214
 11
19.3909
 21
38.4109
  0
LINE
  8
0
 10
19.3909
 20
38.4109
 11
19.4744
 21
38.4039
  0
LINE
  8
0
 10
19.4744
 20
38.4039
 11
19.5581
 21
38.4004
  0
LINE
  8
0
 10
19.5581
 20
38.4004
 11
19.6419
 21
38.4004
  0
LINE
  8
0
 10
19.6419
 20
38.4004
 11
19.7256
 21
38.4039
  0
LINE
  8
0
 10
100.526
 20
38.4039
 11
100.609
 21
38.4109
  0
LINE
  8
0
 10
100.609
 20
38.4109
 11
100.692
 21
38.4214
  0
LINE
  8
0
 10
100.692
 20
38.4214
 11
100.775
 21
38.4354
  0
LINE
  8
0
 10
100.775
 20
38.4354
 11
100.857
 21
38.4528
  0
LINE
  8
0
 10
100.857
 20
38.4528
 11
100.938
 21
38.4737
  0
LINE
  8
0
 10
100.938
 20
38.4737
 11
101.018
 21
38.4979
  0
LINE
  8
0
 10
101.018
 20
38.4979
 11
101.097
 21
38.5254
  0
LINE
  8
0
 10
101.097
 20
38.5254
 11
101.175
 21
38.5563
  0
LINE
  8
0
 10
101.175
 20
38.5563
 11
101.252
 21
38.5903
  0
LINE
  8
0
 10
101.252
 20
38.5903
 11
101.327
 21
38.6276
  0
LINE
  8
0
 10
101.327
 20
38.6276
 11
101.4
 21
38.6679
  0
LINE
  8
0
 10
101.4
 20
38.6679
 11
101.472
 21
38.7113
  0
LINE
  8
0
 10
101.472
 20
38.7113
 11
101.541
 21
38.7577
  0
LINE
  8
0
 10
101.541
 20
38.7577
 11
101.609
 21
38.8069
  0
LINE
  8
0
 10
101.609
 20
38.8069
 11
101.675
 21
38.859
  0
LINE
  8
0
 10
101.675
 20
38.859
 11
101.738
 21
38.9137
  0
LINE
  8
0
 10
101.738
 20
38.9137
 11
101.799
 21
38.9711
  0
LINE
  8
0
 10
101.799
 20
38.9711
 11
101.858
 21
39.0309
  0
LINE
  8
0
 10
101.858
 20
39.0309
 11
101.914
 21
39.0932
  0
LINE
  8
0
 10
101.914
 20
39.0932
 11
101.967
 21
39.1577
  0
LINE
  8
0
 10
101.967
 20
39.1577
 11
102.018
 21
39.2244
  0
LINE
  8
0
 10
102.018
 20
39.2244
 11
102.066
 21
39.2932
  0
LINE
  8
0
 10
102.066
 20
39.2932
 11
102.111
 21
39.3639
  0
LINE
  8
0
 10
102.111
 20
39.3639
 11
102.153
 21
39.4365
  0
LINE
  8
0
 10
102.153
 20
39.4365
 11
102.191
 21
39.5107
  0
LINE
  8
0
 10
102.191
 20
39.5107
 11
102.227
 21
39.5865
  0
LINE
  8
0
 10
102.227
 20
39.5865
 11
102.26
 21
39.6637
  0
LINE
  8
0
 10
102.26
 20
39.6637
 11
102.289
 21
39.7423
  0
LINE
  8
0
 10
102.289
 20
39.7423
 11
102.315
 21
39.8219
  0
LINE
  8
0
 10
102.315
 20
39.8219
 11
102.337
 21
39.9026
  0
LINE
  8
0
 10
102.337
 20
39.9026
 11
102.356
 21
39.9842
  0
LINE
  8
0
 10
102.356
 20
39.9842
 11
102.372
 21
40.0665
  0
LINE
  8
0
 10
102.372
 20
40.0665
 11
102.384
 21
40.1493
  0
LINE
  8
0
 10
102.384
 20
40.1493
 11
102.393
 21
40.2326
  0
LINE
  8
0
 10
102.393
 20
40.2326
 11
102.398
 21
40.3162
  0
LINE
  8
0
 10
102.398
 20
40.3162
 11
102.4
 21
40.4
  0
LINE
  8
0
 10
102.4
 20
40.4
 11
102.398
 21
40.4837
  0
LINE
  8
0
 10
102.398
 20
40.4837
 11
102.393
 21
40.5674
  0
LINE
  8
0
 10
102.393
 20
40.5674
 11
102.384
 21
40.6507
  0
LINE
  8
0
 10
102.384
 20
40.6507
 11
102.372
 21
40.7335
  0
LINE
  8
0
 10
102.372
 20
40.7335
 11
102.356
 21
40.8158
  0
LINE
  8
0
 10
102.356
 20
40.8158
 11
102.337
 21
40.8974
  0
LINE
  8
0
 10
102.337
 20
40.8974
 11
102.315
 21
40.9781
  0
LINE
  8
0
 10
102.315
 20
40.9781
 11
102.289
 21
41.0577
  0
LINE
  8
0
 10
102.289
 20
41.0577
 11
102.26
 21
41.1362
  0
LINE
  8
0
 10
102.26
 20
41.1362
 11
102.227
 21
41.2135
  0
LINE
  8
0
 10
102.227
 20
41.2135
 11
102.191
 21
41.2893
  0
LINE
  8
0
 10
102.191
 20
41.2893
 11
102.153
 21
41.3635
  0
LINE
  8
0
 10
102.153
 20
41.3635
 11
102.111
 21
41.4361
  0
LINE
  8
0
 10
102.111
 20
41.4361
 11
102.066
 21
41.5068
  0
LINE
  8
0
 10
102.066
 20
41.5068
 11
102.018
 21
41.5756
  0
LINE
  8
0
 10
102.018
 20
41.5756
 11
101.967
 21
41.6423
  0
LINE
  8
0
 10
101.967
 20
41.6423
 11
101.914
 21
41.7068
  0
LINE
  8
0
 10
101.914
 20
41.7068
 11
101.858
 21
41.7691
  0
LINE
  8
0
 10
101.858
 20
41.7691
 11
101.799
 21
41.8289
  0
LINE
  8
0
 10
101.799
 20
41.8289
 11
101.738
 21
41.8863
  0
LINE
  8
0
 10
101.738
 20
41.8863
 11
101.675
 21
41.941
  0
LINE
  8
0
 10
101.675
 20
41.941
 11
101.609
 21
41.9931
  0
LINE
  8
0
 10
101.609
 20
41.9931
 11
101.541
 21
42.0423
  0
LINE
  8
0
 10
101.541
 20
42.0423
 11
101.472
 21
42.0887
  0
LINE
  8
0
 10
101.472
 20
42.0887
 11
101.4
 21
42.132
  0
LINE
  8
0
 10
101.4
 20
42.132
 11
101.327
 21
42.1724
  0
LINE
  8
0
 10
101.327
 20
42.1724
 11
101.252
 21
42.2096
  0
LINE
  8
0
 10
101.252
 20
42.2096
 11
101.175
 21
42.2437
  0
LINE
  8
0
 10
101.175
 20
42.2437
 11
101.097
 21
42.2746
  0
LINE
  8
0
 10
101.097
 20
42.2746
 11
101.018
 21
42.3021
  0
LINE
  8
0
 10
101.018
 20
42.3021
 11
100.938
 21
42.3263
  0
LINE
  8
0
 10
100.938
 20
42.3263
 11
100.857
 21
42.3472
  0
LINE
  8
0
 10
100.857
 20
42.3472
 11
100.775
 21
42.3646
  0
LINE
  8
0
 10
100.775
 20
42.3646
 11
100.692
 21
42.3785
  0
LINE
  8
0
 10
100.692
 20
42.3785
 11
100.609
 21
42.389
  0
LINE
  8
0
 10
100.609
 20
42.389
 11
100.526
 21
42.396
  0
LINE
  8
0
 10
100.526
 20
42.396
 11
100.442
 21
42.3996
  0
LINE
  8
0
 10
100.442
 20
42.3996
 11
100.358
 21
42.3996
  0
LINE
  8
0
 10
100.358
 20
42.3996
 11
100.274
 21
42.396
  0
LINE
  8
0
 10
100.274
 20
42.396
 11
100.191
 21
42.389
  0
LINE
  8
0
 10
100.191
 20
42.389
 11
100.108
 21
42.3785
  0
LINE
  8
0
 10
100.108
 20
42.3785
 11
100.025
 21
42.3646
  0
LINE
  8
0
 10
100.025
 20
42.3646
 11
99.9433
 21
42.3472
  0
LINE
  8
0
 10
99.9433
 20
42.3472
 11
99.8622
 21
42.3263
  0
LINE
  8
0
 10
99.8622
 20
42.3263
 11
99.782
 21
42.3021
  0
LINE
  8
0
 10
99.782
 20
42.3021
 11
99.7029
 21
42.2746
  0
LINE
  8
0
 10
99.7029
 20
42.2746
 11
99.625
 21
42.2437
  0
LINE
  8
0
 10
99.625
 20
42.2437
 11
99.5484
 21
42.2096
  0
LINE
  8
0
 10
99.5484
 20
42.2096
 11
99.4734
 21
42.1724
  0
LINE
  8
0
 10
99.4734
 20
42.1724
 11
99.4
 21
42.132
  0
LINE
  8
0
 10
99.4
 20
42.132
 11
99.3283
 21
42.0887
  0
LINE
  8
0
 10
99.3283
 20
42.0887
 11
99.2586
 21
42.0423
  0
LINE
  8
0
 10
99.2586
 20
42.0423
 11
99.1908
 21
41.9931
  0
LINE
  8
0
 10
99.1908
 20
41.9931
 11
99.1251
 21
41.941
  0
LINE
  8
0
 10
99.1251
 20
41.941
 11
99.0617
 21
41.8863
  0
LINE
  8
0
 10
99.0617
 20
41.8863
 11
99.0007
 21
41.8289
  0
LINE
  8
0
 10
99.0007
 20
41.8289
 11
98.9421
 21
41.7691
  0
LINE
  8
0
 10
98.9421
 20
41.7691
 11
98.886
 21
41.7068
  0
LINE
  8
0
 10
98.886
 20
41.7068
 11
98.8326
 21
41.6423
  0
LINE
  8
0
 10
98.8326
 20
41.6423
 11
98.782
 21
41.5756
  0
LINE
  8
0
 10
98.782
 20
41.5756
 11
98.7341
 21
41.5068
  0
LINE
  8
0
 10
98.7341
 20
41.5068
 11
98.6893
 21
41.4361
  0
LINE
  8
0
 10
98.6893
 20
41.4361
 11
98.6474
 21
41.3635
  0
LINE
  8
0
 10
98.6474
 20
41.3635
 11
98.6086
 21
41.2893
  0
LINE
  8
0
 10
98.6086
 20
41.2893
 11
98.5729
 21
41.2135
  0
LINE
  8
0
 10
98.5729
 20
41.2135
 11
98.5404
 21
41.1362
  0
LINE
  8
0
 10
98.5404
 20
41.1362
 11
98.5112
 21
41.0577
  0
LINE
  8
0
 10
98.5112
 20
41.0577
 11
98.4854
 21
40.9781
  0
LINE
  8
0
 10
98.4854
 20
40.9781
 11
98.4628
 21
40.8974
  0
LINE
  8
0
 10
98.4628
 20
40.8974
 11
98.4437
 21
40.8158
  0
LINE
  8
0
 10
98.4437
 20
40.8158
 11
98.428
 21
40.7335
  0
LINE
  8
0
 10
98.428
 20
40.7335
 11
98.4158
 21
40.6507
  0
LINE
  8
0
 10
98.4158
 20
40.6507
 11
98.407
 21
40.5674
  0
LINE
  8
0
 10
98.407
 20
40.5674
 11
98.4017
 21
40.4837
  0
LINE
  8
0
 10
98.4017
 20
40.4837
 11
98.4
 21
40.4
  0
LINE
  8
0
 10
98.4
 20
40.4
 11
98.4017
 21
40.3162
  0
LINE
  8
0
 10
98.4017
 20
40.3162
 11
98.407
 21
40.2326
  0
LINE
  8
0
 10
98.407
 20
40.2326
 11
98.4158
 21
40.1493
  0
LINE
  8
0
 10
98.4158
 20
40.1493
 11
98.428
 21
40.0665
  0
LINE
  8
0
 10
98.428
 20
40.0665
 11
98.4437
 21
39.9842
  0
LINE
  8
0
 10
98.4437
 20
39.9842
 11
98.4628
 21
39.9026
  0
LINE
  8
0
 10
98.4628
 20
39.9026
 11
98.4854
 21
39.8219
  0
LINE
  8
0
 10
98.4854
 20
39.8219
 11
98.5112
 21
39.7423
  0
LINE
  8
0
 10
98.5112
 20
39.7423
 11
98.5404
 21
39.6637
  0
LINE
  8
0
 10
98.5404
 20
39.6637
 11
98.5729
 21
39.5865
  0
LINE
  8
0
 10
98.5729
 20
39.5865
 11
98.6086
 21
39.5107
  0
LINE
  8
0
 10
98.6086
 20
39.5107
 11
98.6474
 21
39.4365
  0
LINE
  8
0
 10
98.6474
 20
39.4365
 11
98.6893
 21
39.3639
  0
LINE
  8
0
 10
98.6893
 20
39.3639
 11
98.7341
 21
39.2932
  0
LINE
  8
0
 10
98.7341
 20
39.2932
 11
98.782
 21
39.2244
  0
LINE
  8
0
 10
98.782
 20
39.2244
 11
98.8326
 21
39.1577
  0
LINE
  8
0
 10
98.8326
 20
39.1577
 11
98.886
 21
39.0932
  0
LINE
  8
0
 10
98.886
 20
39.0932
 11
98.9421
 21
39.0309
  0
LINE
  8
0
 10
98.9421
 20
39.0309
 11
99.0007
 21
38.9711
  0
LINE
  8
0
 10
99.0007
 20
38.9711
 11
99.0617
 21
38.9137
  0
LINE
  8
0
 10
99.0617
 20
38.9137
 11
99.1251
 21
38.859
  0
LINE
  8
0
 10
99.1251
 20
38.859
 11
99.1908
 21
38.8069
  0
LINE
  8
0
 10
99.1908
 20
38.8069
 11
99.2586
 21
38.7577
  0
LINE
  8
0
 10
99.2586
 20
38.7577
 11
99.3283
 21
38.7113
  0
LINE
  8
0
 10
99.3283
 20
38.7113
 11
99.4
 21
38.6679
  0
LINE
  8
0
 10
99.4
 20
38.6679
 11
99.4734
 21
38.6276
  0
LINE
  8
0
 10
99.4734
 20
38.6276
 11
99.5484
 21
38.5903
  0
LINE
  8
0
 10
99.5484
 20
38.5903
 11
99.625
 21
38.5563
  0
LINE
  8
0
 10
99.625
 20
38.5563
 11
99.7029
 21
38.5254
  0
LINE
  8
0
 10
99.7029
 20
38.5254
 11
99.782
 21
38.4979
  0
LINE
  8
0
 10
99.782
 20
38.4979
 11
99.8622
 21
38.4737
  0
LINE
  8
0
 10
99.8622
 20
38.4737
 11
99.9433
 21
38.4528
  0
LINE
  8
0
 10
99.9433
 20
38.4528
 11
100.025
 21
38.4354
  0
LINE
  8
0
 10
100.025
 20
38.4354
 11
100.108
 21
38.4214
  0
LINE
  8
0
 10
100.108
 20
38.4214
 11
100.191
 21
38.4109
  0
LINE
  8
0
 10
100.191
 20
38.4109
 11
100.274
 21
38.4039
  0
LINE
  8
0
 10
100.274
 20
38.4039
 11
100.358
 21
38.4004
  0
LINE
  8
0
 10
100.358
 20
38.4004
 11
100.442
 21
38.4004
  0
LINE
  8
0
 10
100.442
 20
38.4004
 11
100.526
 21
38.4039
  0
LINE
  8
0
 10
-100.274
 20
-42.396
 11
-100.191
 21
-42.389
  0
LINE
  8
0
 10
-100.191
 20
-42.389
 11
-100.108
 21
-42.3785
  0
LINE
  8
0
 10
-100.108
 20
-42.3785
 11
-100.025
 21
-42.3646
  0
LINE
  8
0
 10
-100.025
 20
-42.3646
 11
-99.9433
 21
-42.3472
  0
LINE
  8
0
 10
-99.9433
 20
-42.3472
 11
-99.8622
 21
-42.3263
  0
LINE
  8
0
 10
-99.8622
 20
-42.3263
 11
-99.782
 21
-42.3021
  0
LINE
  8
0
 10
-99.782
 20
-42.3021
 11
-99.7029
 21
-42.2746
  0
LINE
  8
0
 10
-99.7029
 20
-42.2746
 11
-99.625
 21
-42.2437
  0
LINE
  8
0
 10
-99.625
 20
-42.2437
 11
-99.5484
 21
-42.2096
  0
LINE
  8
0
 10
-99.5484
 20
-42.2096
 11
-99.4734
 21
-42.1724
  0
LINE
  8
0
 10
-99.4734
 20
-42.1724
 11
-99.4
 21
-42.132
  0
LINE
  8
0
 10
-99.4
 20
-42.132
 11
-99.3283
 21
-42.0887
  0
LINE
  8
0
 10
-99.3283
 20
-42.0887
 11
-99.2586
 21
-42.0423
  0
LINE
  8
0
 10
-99.2586
 20
-42.0423
 11
-99.1908
 21
-41.9931
  0
LINE
  8
0
 10
-99.1908
 20
-41.9931
 11
-99.1251
 21
-41.941
  0
LINE
  8
0
 10
-99.1251
 20
-41.941
 11
-99.0617
 21
-41.8863
  0
LINE
  8
0
 10
-99.0617
 20
-41.8863
 11
-99.0007
 21
-41.8289
  0
LINE
  8
0
 10
-99.0007
 20
-41.8289
 11
-98.9421
 21
-41.7691
  0
LINE
  8
0
 10
-98.9421
 20
-41.7691
 11
-98.886
 21
-41.7068
  0
LINE
  8
0
 10
-98.886
 20
-41.7068
 11
-98.8326
 21
-41.6423
  0
LINE
  8
0
 10
-98.8326
 20
-41.6423
 11
-98.782
 21
-41.5756
  0
LINE
  8
0
 10
-98.782
 20
-41.5756
 11
-98.7341
 21
-41.5068
  0
LINE
  8
0
 10
-98.7341
 20
-41.5068
 11
-98.6893
 21
-41.4361
  0
LINE
  8
0
 10
-98.6893
 20
-41.4361
 11
-98.6474
 21
-41.3635
  0
LINE
  8
0
 10
-98.6474
 20
-41.3635
 11
-98.6086
 21
-41.2893
  0
LINE
  8
0
 10
-98.6086
 20
-41.2893
 11
-98.5729
 21
-41.2135
  0
LINE
  8
0
 10
-98.5729
 20
-41.2135
 11
-98.5404
 21
-41.1362
  0
LINE
  8
0
 10
-98.5404
 20
-41.1362
 11
-98.5112
 21
-41.0577
  0
LINE
  8
0
 10
-98.5112
 20
-41.0577
 11
-98.4854
 21
-40.9781
  0
LINE
  8
0
 10
-98.4854
 20
-40.9781
 11
-98.4628
 21
-40.8974
  0
LINE
  8
0
 10
-98.4628
 20
-40.8974
 11
-98.4437
 21
-40.8158
  0
LINE
  8
0
 10
-98.4437
 20
-40.8158
 11
-98.428
 21
-40.7335
  0
LINE
  8
0
 10
-98.428
 20
-40.7335
 11
-98.4158
 21
-40.6507
  0
LINE
  8
0
 10
-98.4158
 20
-40.6507
 11
-98.407
 21
-40.5674
  0
LINE
  8
0
 10
-98.407
 20
-40.5674
 11
-98.4017
 21
-40.4837
  0
LINE
  8
0
 10
-98.4017
 20
-40.4837
 11
-98.4
 21
-40.4
  0
LINE
  8
0
 10
-98.4
 20
-40.4
 11
-98.4017
 21
-40.3162
  0
LINE
  8
0
 10
-98.4017
 20
-40.3162
 11
-98.407
 21
-40.2326
  0
LINE
  8
0
 10
-98.407
 20
-40.2326
 11
-98.4158
 21
-40.1493
  0
LINE
  8
0
 10
-98.4158
 20
-40.1493
 11
-98.428
 21
-40.0665
  0
LINE
  8
0
 10
-98.428
 20
-40.0665
 11
-98.4437
 21
-39.9842
  0
LINE
  8
0
 10
-98.4437
 20
-39.9842
 11
-98.4628
 21
-39.9026
  0
LINE
  8
0
 10
-98.4628
 20
-39.9026
 11
-98.4854
 21
-39.8219
  0
LINE
  8
0
 10
-98.4854
 20
-39.8219
 11
-98.5112
 21
-39.7423
  0
LINE
  8
0
 10
-98.5112
 20
-39.7423
 11
-98.5404
 21
-39.6637
  0
LINE
  8
0
 10
-98.5404
 20
-39.6637
 11
-98.5729
 21
-39.5865
  0
LINE
  8
0
 10
-98.5729
 20
-39.5865
 11
-98.6086
 21
-39.5107
  0
LINE
  8
0
 10
-98.6086
 20
-39.5107
 11
-98.6474
 21
-39.4365
  0
LINE
  8
0
 10
-98.6474
 20
-39.4365
 11
-98.6893
 21
-39.3639
  0
LINE
  8
0
 10
-98.6893
 20
-39.3639
 11
-98.7341
 21
-39.2932
  0
LINE
  8
0
 10
-98.7341
 20
-39.2932
 11
-98.782
 21
-39.2244
  0
LINE
  8
0
 10
-98.782
 20
-39.2244
 11
-98.8326
 21
-39.1577
  0
LINE
  8
0
 10
-98.8326
 20
-39.1577
 11
-98.886
 21
-39.0932
  0
LINE
  8
0
 10
-98.886
 20
-39.0932
 11
-98.9421
 21
-39.0309
  0
LINE
  8
0
 10
-98.9421
 20
-39.0309
 11
-99.0007
 21
-38.9711
  0
LINE
  8
0
 10
-99.0007
 20
-38.9711
 11
-99.0617
 21
-38.9137
  0
LINE
  8
0
 10
-99.0617
 20
-38.9137
 11
-99.1251
 21
-38.859
  0
LINE
  8
0
 10
-99.1251
 20
-38.859
 11
-99.1908
 21
-38.8069
  0
LINE
  8
0
 10
-99.1908
 20
-38.8069
 11
-99.2586
 21
-38.7577
  0
LINE
  8
0
 10
-99.2586
 20
-38.7577
 11
-99.3283
 21
-38.7113
  0
LINE
  8
0
 10
-99.3283
 20
-38.7113
 11
-99.4
 21
-38.6679
  0
LINE
  8
0
 10
-99.4
 20
-38.6679
 11
-99.4734
 21
-38.6276
  0
LINE
  8
0
 10
-99.4734
 20
-38.6276
 11
-99.5484
 21
-38.5903
  0
LINE
  8
0
 10
-99.5484
 20
-38.5903
 11
-99.625
 21
-38.5563
  0
LINE
  8
0
 10
-99.625
 20
-38.5563
 11
-99.7029
 21
-38.5254
  0
LINE
  8
0
 10
-99.7029
 20
-38.5254
 11
-99.782
 21
-38.4979
  0
LINE
  8
0
 10
-99.782
 20
-38.4979
 11
-99.8622
 21
-38.4737
  0
LINE
  8
0
 10
-99.8622
 20
-38.4737
 11
-99.9433
 21
-38.4528
  0
LINE
  8
0
 10
-99.9433
 20
-38.4528
 11
-100.025
 21
-38.4354
  0
LINE
  8
0
 10
-100.025
 20
-38.4354
 11
-100.108
 21
-38.4214
  0
LINE
  8
0
 10
-100.108
 20
-38.4214
 11
-100.191
 21
-38.4109
  0
LINE
  8
0
 10
-100.191
 20
-38.4109
 11
-100.274
 21
-38.4039
  0
LINE
  8
0
 10
-100.274
 20
-38.4039
 11
-100.358
 21
-38.4004
  0
LINE
  8
0
 10
-100.358
 20
-38.4004
 11
-100.442
 21
-38.4004
  0
LINE
  8
0
 10
-100.442
 20
-38.4004
 11
-100.526
 21
-38.4039
  0
LINE
  8
0
 10
-100.526
 20
-38.4039
 11
-100.609
 21
-38.4109
  0
LINE
  8
0
 10
-100.609
 20
-38.4109
 11
-100.692
 21
-38.4214
  0
LINE
  8
0
 10
-100.692
 20
-38.4214
 11
-100.775
 21
-38.4354
  0
LINE
  8
0
 10
-100.775
 20
-38.4354
 11
-100.857
 21
-38.4528
  0
LINE
  8
0
 10
-100.857
 20
-38.4528
 11
-100.938
 21
-38.4737
  0
LINE
  8
0
 10
-100.938
 20
-38.4737
 11
-101.018
 21
-38.4979
  0
LINE
  8
0
 10
-101.018
 20
-38.4979
 11
-101.097
 21
-38.5254
  0
LINE
  8
0
 10
-101.097
 20
-38.5254
 11
-101.175
 21
-38.5563
  0
LINE
  8
0
 10
-101.175
 20
-38.5563
 11
-101.252
 21
-38.5903
  0
LINE
  8
0
 10
-101.252
 20
-38.5903
 11
-101.327
 21
-38.6276
  0
LINE
  8
0
 10
-101.327
 20
-38.6276
 11
-101.4
 21
-38.6679
  0
LINE
  8
0
 10
-101.4
 20
-38.6679
 11
-101.472
 21
-38.7113
  0
LINE
  8
0
 10
-101.472
 20
-38.7113
 11
-101.541
 21
-38.7577
  0
LINE
  8
0
 10
-101.541
 20
-38.7577
 11
-101.609
 21
-38.8069
  0
LINE
  8
0
 10
-101.609
 20
-38.8069
 11
-101.675
 21
-38.859
  0
LINE
  8
0
 10
-101.675
 20
-38.859
 11
-101.738
 21
-38.9137
  0
LINE
  8
0
 10
-101.738
 20
-38.9137
 11
-101.799
 21
-38.9711
  0
LINE
  8
0
 10
-101.799
 20
-38.9711
 11
-101.858
 21
-39.0309
  0
LINE
  8
0
 10
-101.858
 20
-39.0309
 11
-101.914
 21
-39.0932
  0
LINE
  8
0
 10
-101.914
 20
-39.0932
 11
-101.967
 21
-39.1577
  0
LINE
  8
0
 10
-101.967
 20
-39.1577
 11
-102.018
 21
-39.2244
  0
LINE
  8
0
 10
-102.018
 20
-39.2244
 11
-102.066
 21
-39.2932
  0
LINE
  8
0
 10
-102.066
 20
-39.2932
 11
-102.111
 21
-39.3639
  0
LINE
  8
0
 10
-102.111
 20
-39.3639
 11
-102.153
 21
-39.4365
  0
LINE
  8
0
 10
-102.153
 20
-39.4365
 11
-102.191
 21
-39.5107
  0
LINE
  8
0
 10
-102.191
 20
-39.5107
 11
-102.227
 21
-39.5865
  0
LINE
  8
0
 10
-102.227
 20
-39.5865
 11
-102.26
 21
-39.6637
  0
LINE
  8
0
 10
-102.26
 20
-39.6637
 11
-102.289
 21
-39.7423
  0
LINE
  8
0
 10
-102.289
 20
-39.7423
 11
-102.315
 21
-39.8219
  0
LINE
  8
0
 10
-102.315
 20
-39.8219
 11
-102.337
 21
-39.9026
  0
LINE
  8
0
 10
-102.337
 20
-39.9026
 11
-102.356
 21
-39.9842
  0
LINE
  8
0
 10
-102.356
 20
-39.9842
 11
-102.372
 21
-40.0665
  0
LINE
  8
0
 10
-102.372
 20
-40.0665
 11
-102.384
 21
-40.1493
  0
LINE
  8
0
 10
-102.384
 20
-40.1493
 11
-102.393
 21
-40.2326
  0
LINE
  8
0
 10
-102.393
 20
-40.2326
 11
-102.398
 21
-40.3162
  0
LINE
  8
0
 10
-102.398
 20
-40.3162
 11
-102.4
 21
-40.4
  0
LINE
  8
0
 10
-102.4
 20
-40.4
 11
-102.398
 21
-40.4837
  0
LINE
  8
0
 10
-102.398
 20
-40.4837
 11
-102.393
 21
-40.5674
  0
LINE
  8
0
 10
-102.393
 20
-40.5674
 11
-102.384
 21
-40.6507
  0
LINE
  8
0
 10
-102.384
 20
-40.6507
 11
-102.372
 21
-40.7335
  0
LINE
  8
0
 10
-102.372
 20
-40.7335
 11
-102.356
 21
-40.8158
  0
LINE
  8
0
 10
-102.356
 20
-40.8158
 11
-102.337
 21
-40.8974
  0
LINE
  8
0
 10
-102.337
 20
-40.8974
 11
-102.315
 21
-40.9781
  0
LINE
  8
0
 10
-102.315
 20
-40.9781
 11
-102.289
 21
-41.0577
  0
LINE
  8
0
 10
-102.289
 20
-41.0577
 11
-102.26
 21
-41.1362
  0
LINE
  8
0
 10
-102.26
 20
-41.1362
 11
-102.227
 21
-41.2135
  0
LINE
  8
0
 10
-102.227
 20
-41.2135
 11
-102.191
 21
-41.2893
  0
LINE
  8
0
 10
-102.191
 20
-41.2893
 11
-102.153
 21
-41.3635
  0
LINE
  8
0
 10
-102.153
 20
-41.3635
 11
-102.111
 21
-41.4361
  0
LINE
  8
0
 10
-102.111
 20
-41.4361
 11
-102.066
 21
-41.5068
  0
LINE
  8
0
 10
-102.066
 20
-41.5068
 11
-102.018
 21
-41.5756
  0
LINE
  8
0
 10
-102.018
 20
-41.5756
 11
-101.967
 21
-41.6423
  0
LINE
  8
0
 10
-101.967
 20
-41.6423
 11
-101.914
 21
-41.7068
  0
LINE
  8
0
 10
-101.914
 20
-41.7068
 11
-101.858
 21
-41.7691
  0
LINE
  8
0
 10
-101.858
 20
-41.7691
 11
-101.799
 21
-41.8289
  0
LINE
  8
0
 10
-101.799
 20
-41.8289
 11
-101.738
 21
-41.8863
  0
LINE
  8
0
 10
-101.738
 20
-41.8863
 11
-101.675
 21
-41.941
  0
LINE
  8
0
 10
-101.675
 20
-41.941
 11
-101.609
 21
-41.9931
  0
LINE
  8
0
 10
-101.609
 20
-41.9931
 11
-101.541
 21
-42.0423
  0
LINE
  8
0
 10
-101.541
 20
-42.0423
 11
-101.472
 21
-42.0887
  0
LINE
  8
0
 10
-101.472
 20
-42.0887
 11
-101.4
 21
-42.132
  0
LINE
  8
0
 10
-101.4
 20
-42.132
 11
-101.327
 21
-42.1724
  0
LINE
  8
0
 10
-101.327
 20
-42.1724
 11
-101.252
 21
-42.2096
  0
LINE
  8
0
 10
-101.252
 20
-42.2096
 11
-101.175
 21
-42.2437
  0
LINE
  8
0
 10
-101.175
 20
-42.2437
 11
-101.097
 21
-42.2746
  0
LINE
  8
0
 10
-101.097
 20
-42.2746
 11
-101.018
 21
-42.3021
  0
LINE
  8
0
 10
-101.018
 20
-42.3021
 11
-100.938
 21
-42.3263
  0
LINE
  8
0
 10
-100.938
 20
-42.3263
 11
-100.857
 21
-42.3472
  0
LINE
  8
0
 10
-100.857
 20
-42.3472
 11
-100.775
 21
-42.3646
  0
LINE
  8
0
 10
-100.775
 20
-42.3646
 11
-100.692
 21
-42.3785
  0
LINE
  8
0
 10
-100.692
 20
-42.3785
 11
-100.609
 21
-42.389
  0
LINE
  8
0
 10
-100.609
 20
-42.389
 11
-100.526
 21
-42.396
  0
LINE
  8
0
 10
-100.526
 20
-42.396
 11
-100.442
 21
-42.3996
  0
LINE
  8
0
 10
-100.442
 20
-42.3996
 11
-100.358
 21
-42.3996
  0
LINE
  8
0
 10
-100.358
 20
-42.3996
 11
-100.274
 21
-42.396
  0
LINE
  8
0
 10
-19.4744
 20
-42.396
 11
-19.3909
 21
-42.389
  0
LINE
  8
0
 10
-19.3909
 20
-42.389
 11
-19.3078
 21
-42.3785
  0
LINE
  8
0
 10
-19.3078
 20
-42.3785
 11
-19.2253
 21
-42.3646
  0
LINE
  8
0
 10
-19.2253
 20
-42.3646
 11
-19.1433
 21
-42.3472
  0
LINE
  8
0
 10
-19.1433
 20
-42.3472
 11
-19.0622
 21
-42.3263
  0
LINE
  8
0
 10
-19.0622
 20
-42.3263
 11
-18.982
 21
-42.3021
  0
LINE
  8
0
 10
-18.982
 20
-42.3021
 11
-18.9029
 21
-42.2746
  0
LINE
  8
0
 10
-18.9029
 20
-42.2746
 11
-18.825
 21
-42.2437
  0
LINE
  8
0
 10
-18.825
 20
-42.2437
 11
-18.7484
 21
-42.2096
  0
LINE
  8
0
 10
-18.7484
 20
-42.2096
 11
-18.6734
 21
-42.1724
  0
LINE
  8
0
 10
-18.6734
 20
-42.1724
 11
-18.6
 21
-42.132
  0
LINE
  8
0
 10
-18.6
 20
-42.132
 11
-18.5284
 21
-42.0887
  0
LINE
  8
0
 10
-18.5284
 20
-42.0887
 11
-18.4586
 21
-42.0423
  0
LINE
  8
0
 10
-18.4586
 20
-42.0423
 11
-18.3908
 21
-41.9931
  0
LINE
  8
0
 10
-18.3908
 20
-41.9931
 11
-18.3252
 21
-41.941
  0
LINE
  8
0
 10
-18.3252
 20
-41.941
 11
-18.2617
 21
-41.8863
  0
LINE
  8
0
 10
-18.2617
 20
-41.8863
 11
-18.2007
 21
-41.8289
  0
LINE
  8
0
 10
-18.2007
 20
-41.8289
 11
-18.1421
 21
-41.7691
  0
LINE
  8
0
 10
-18.1421
 20
-41.7691
 11
-18.086
 21
-41.7068
  0
LINE
  8
0
 10
-18.086
 20
-41.7068
 11
-18.0326
 21
-41.6423
  0
LINE
  8
0
 10
-18.0326
 20
-41.6423
 11
-17.982
 21
-41.5756
  0
LINE
  8
0
 10
-17.982
 20
-41.5756
 11
-17.9342
 21
-41.5068
  0
LINE
  8
0
 10
-17.9342
 20
-41.5068
 11
-17.8893
 21
-41.4361
  0
LINE
  8
0
 10
-17.8893
 20
-41.4361
 11
-17.8474
 21
-41.3635
  0
LINE
  8
0
 10
-17.8474
 20
-41.3635
 11
-17.8086
 21
-41.2893
  0
LINE
  8
0
 10
-17.8086
 20
-41.2893
 11
-17.7729
 21
-41.2135
  0
LINE
  8
0
 10
-17.7729
 20
-41.2135
 11
-17.7404
 21
-41.1362
  0
LINE
  8
0
 10
-17.7404
 20
-41.1362
 11
-17.7113
 21
-41.0577
  0
LINE
  8
0
 10
-17.7113
 20
-41.0577
 11
-17.6854
 21
-40.9781
  0
LINE
  8
0
 10
-17.6854
 20
-40.9781
 11
-17.6628
 21
-40.8974
  0
LINE
  8
0
 10
-17.6628
 20
-40.8974
 11
-17.6437
 21
-40.8158
  0
LINE
  8
0
 10
-17.6437
 20
-40.8158
 11
-17.628
 21
-40.7335
  0
LINE
  8
0
 10
-17.628
 20
-40.7335
 11
-17.6158
 21
-40.6507
  0
LINE
  8
0
 10
-17.6158
 20
-40.6507
 11
-17.607
 21
-40.5674
  0
LINE
  8
0
 10
-17.607
 20
-40.5674
 11
-17.6018
 21
-40.4837
  0
LINE
  8
0
 10
-17.6018
 20
-40.4837
 11
-17.6
 21
-40.4
  0
LINE
  8
0
 10
-17.6
 20
-40.4
 11
-17.6018
 21
-40.3162
  0
LINE
  8
0
 10
-17.6018
 20
-40.3162
 11
-17.607
 21
-40.2326
  0
LINE
  8
0
 10
-17.607
 20
-40.2326
 11
-17.6158
 21
-40.1493
  0
LINE
  8
0
 10
-17.6158
 20
-40.1493
 11
-17.628
 21
-40.0665
  0
LINE
  8
0
 10
-17.628
 20
-40.0665
 11
-17.6437
 21
-39.9842
  0
LINE
  8
0
 10
-17.6437
 20
-39.9842
 11
-17.6628
 21
-39.9026
  0
LINE
  8
0
 10
-17.6628
 20
-39.9026
 11
-17.6854
 21
-39.8219
  0
LINE
  8
0
 10
-17.6854
 20
-39.8219
 11
-17.7113
 21
-39.7423
  0
LINE
  8
0
 10
-17.7113
 20
-39.7423
 11
-17.7404
 21
-39.6637
  0
LINE
  8
0
 10
-17.7404
 20
-39.6637
 11
-17.7729
 21
-39.5865
  0
LINE
  8
0
 10
-17.7729
 20
-39.5865
 11
-17.8086
 21
-39.5107
  0
LINE
  8
0
 10
-17.8086
 20
-39.5107
 11
-17.8474
 21
-39.4365
  0
LINE
  8
0
 10
-17.8474
 20
-39.4365
 11
-17.8893
 21
-39.3639
  0
LINE
  8
0
 10
-17.8893
 20
-39.3639
 11
-17.9342
 21
-39.2932
  0
LINE
  8
0
 10
-17.9342
 20
-39.2932
 11
-17.982
 21
-39.2244
  0
LINE
  8
0
 10
-17.982
 20
-39.2244
 11
-18.0326
 21
-39.1577
  0
LINE
  8
0
 10
-18.0326
 20
-39.1577
 11
-18.086
 21
-39.0932
  0
LINE
  8
0
 10
-18.086
 20
-39.0932
 11
-18.1421
 21
-39.0309
  0
LINE
  8
0
 10
-18.1421
 20
-39.0309
 11
-18.2007
 21
-38.9711
  0
LINE
  8
0
 10
-18.2007
 20
-38.9711
 11
-18.2617
 21
-38.9137
  0
LINE
  8
0
 10
-18.2617
 20
-38.9137
 11
-18.3252
 21
-38.859
  0
LINE
  8
0
 10
-18.3252
 20
-38.859
 11
-18.3908
 21
-38.8069
  0
LINE
  8
0
 10
-18.3908
 20
-38.8069
 11
-18.4586
 21
-38.7577
  0
LINE
  8
0
 10
-18.4586
 20
-38.7577
 11
-18.5284
 21
-38.7113
  0
LINE
  8
0
 10
-18.5284
 20
-38.7113
 11
-18.6
 21
-38.6679
  0
LINE
  8
0
 10
-18.6
 20
-38.6679
 11
-18.6734
 21
-38.6276
  0
LINE
  8
0
 10
-18.6734
 20
-38.6276
 11
-18.7484
 21
-38.5903
  0
LINE
  8
0
 10
-18.7484
 20
-38.5903
 11
-18.825
 21
-38.5563
  0
LINE
  8
0
 10
-18.825
 20
-38.5563
 11
-18.9029
 21
-38.5254
  0
LINE
  8
0
 10
-18.9029
 20
-38.5254
 11
-18.982
 21
-38.4979
  0
LINE
  8
0
 10
-18.982
 20
-38.4979
 11
-19.0622
 21
-38.4737
  0
LINE
  8
0
 10
-19.0622
 20
-38.4737
 11
-19.1433
 21
-38.4528
  0
LINE
  8
0
 10
-19.1433
 20
-38.4528
 11
-19.2253
 21
-38.4354
  0
LINE
  8
0
 10
-19.2253
 20
-38.4354
 11
-19.3078
 21
-38.4214
  0
LINE
  8
0
 10
-19.3078
 20
-38.4214
 11
-19.3909
 21
-38.4109
  0
LINE
  8
0
 10
-19.3909
 20
-38.4109
 11
-19.4744
 21
-38.4039
  0
LINE
  8
0
 10
-19.4744
 20
-38.4039
 11
-19.5581
 21
-38.4004
  0
LINE
  8
0
 10
-19.5581
 20
-38.4004
 11
-19.6419
 21
-38.4004
  0
LINE
  8
0
 10
-19.6419
 20
-38.4004
 11
-19.7256
 21
-38.4039
  0
LINE
  8
0
 10
-19.7256
 20
-38.4039
 11
-19.8091
 21
-38.4109
  0
LINE
  8
0
 10
-19.8091
 20
-38.4109
 11
-19.8922
 21
-38.4214
  0
LINE
  8
0
 10
-19.8922
 20
-38.4214
 11
-19.9748
 21
-38.4354
  0
LINE
  8
0
 10
-19.9748
 20
-38.4354
 11
-20.0567
 21
-38.4528
  0
LINE
  8
0
 10
-20.0567
 20
-38.4528
 11
-20.1378
 21
-38.4737
  0
LINE
  8
0
 10
-20.1378
 20
-38.4737
 11
-20.218
 21
-38.4979
  0
LINE
  8
0
 10
-20.218
 20
-38.4979
 11
-20.2971
 21
-38.5254
  0
LINE
  8
0
 10
-20.2971
 20
-38.5254
 11
-20.375
 21
-38.5563
  0
LINE
  8
0
 10
-20.375
 20
-38.5563
 11
-20.4516
 21
-38.5903
  0
LINE
  8
0
 10
-20.4516
 20
-38.5903
 11
-20.5266
 21
-38.6276
  0
LINE
  8
0
 10
-20.5266
 20
-38.6276
 11
-20.6
 21
-38.6679
  0
LINE
  8
0
 10
-20.6
 20
-38.6679
 11
-20.6717
 21
-38.7113
  0
LINE
  8
0
 10
-20.6717
 20
-38.7113
 11
-20.7414
 21
-38.7577
  0
LINE
  8
0
 10
-20.7414
 20
-38.7577
 11
-20.8092
 21
-38.8069
  0
LINE
  8
0
 10
-20.8092
 20
-38.8069
 11
-20.8749
 21
-38.859
  0
LINE
  8
0
 10
-20.8749
 20
-38.859
 11
-20.9383
 21
-38.9137
  0
LINE
  8
0
 10
-20.9383
 20
-38.9137
 11
-20.9993
 21
-38.9711
  0
LINE
  8
0
 10
-20.9993
 20
-38.9711
 11
-21.0579
 21
-39.0309
  0
LINE
  8
0
 10
-21.0579
 20
-39.0309
 11
-21.114
 21
-39.0932
  0
LINE
  8
0
 10
-21.114
 20
-39.0932
 11
-21.1674
 21
-39.1577
  0
LINE
  8
0
 10
-21.1674
 20
-39.1577
 11
-21.218
 21
-39.2244
  0
LINE
  8
0
 10
-21.218
 20
-39.2244
 11
-21.2659
 21
-39.2932
  0
LINE
  8
0
 10
-21.2659
 20
-39.2932
 11
-21.3107
 21
-39.3639
  0
LINE
  8
0
 10
-21.3107
 20
-39.3639
 11
-21.3526
 21
-39.4365
  0
LINE
  8
0
 10
-21.3526
 20
-39.4365
 11
-21.3914
 21
-39.5107
  0
LINE
  8
0
 10
-21.3914
 20
-39.5107
 11
-21.4271
 21
-39.5865
  0
LINE
  8
0
 10
-21.4271
 20
-39.5865
 11
-21.4596
 21
-39.6637
  0
LINE
  8
0
 10
-21.4596
 20
-39.6637
 11
-21.4888
 21
-39.7423
  0
LINE
  8
0
 10
-21.4888
 20
-39.7423
 11
-21.5146
 21
-39.8219
  0
LINE
  8
0
 10
-21.5146
 20
-39.8219
 11
-21.5372
 21
-39.9026
  0
LINE
  8
0
 10
-21.5372
 20
-39.9026
 11
-21.5563
 21
-39.9842
  0
LINE
  8
0
 10
-21.5563
 20
-39.9842
 11
-21.572
 21
-40.0665
  0
LINE
  8
0
 10
-21.572
 20
-40.0665
 11
-21.5842
 21
-40.1493
  0
LINE
  8
0
 10
-21.5842
 20
-40.1493
 11
-21.593
 21
-40.2326
  0
LINE
  8
0
 10
-21.593
 20
-40.2326
 11
-21.5983
 21
-40.3162
  0
LINE
  8
0
 10
-21.5983
 20
-40.3162
 11
-21.6
 21
-40.4
  0
LINE
  8
0
 10
-21.6
 20
-40.4
 11
-21.5983
 21
-40.4837
  0
LINE
  8
0
 10
-21.5983
 20
-40.4837
 11
-21.593
 21
-40.5674
  0
LINE
  8
0
 10
-21.593
 20
-40.5674
 11
-21.5842
 21
-40.6507
  0
LINE
  8
0
 10
-21.5842
 20
-40.6507
 11
-21.572
 21
-40.7335
  0
LINE
  8
0
 10
-21.572
 20
-40.7335
 11
-21.5563
 21
-40.8158
  0
LINE
  8
0
 10
-21.5563
 20
-40.8158
 11
-21.5372
 21
-40.8974
  0
LINE
  8
0
 10
-21.5372
 20
-40.8974
 11
-21.5146
 21
-40.9781
  0
LINE
  8
0
 10
-21.5146
 20
-40.9781
 11
-21.4888
 21
-41.0577
  0
LINE
  8
0
 10
-21.4888
 20
-41.0577
 11
-21.4596
 21
-41.1362
  0
LINE
  8
0
 10
-21.4596
 20
-41.1362
 11
-21.4271
 21
-41.2135
  0
LINE
  8
0
 10
-21.4271
 20
-41.2135
 11
-21.3914
 21
-41.2893
  0
LINE
  8
0
 10
-21.3914
 20
-41.2893
 11
-21.3526
 21
-41.3635
  0
LINE
  8
0
 10
-21.3526
 20
-41.3635
 11
-21.3107
 21
-41.4361
  0
LINE
  8
0
 10
-21.3107
 20
-41.4361
 11
-21.2659
 21
-41.5068
  0
LINE
  8
0
 10
-21.2659
 20
-41.5068
 11
-21.218
 21
-41.5756
  0
LINE
  8
0
 10
-21.218
 20
-41.5756
 11
-21.1674
 21
-41.6423
  0
LINE
  8
0
 10
-21.1674
 20
-41.6423
 11
-21.114
 21
-41.7068
  0
LINE
  8
0
 10
-21.114
 20
-41.7068
 11
-21.0579
 21
-41.7691
  0
LINE
  8
0
 10
-21.0579
 20
-41.7691
 11
-20.9993
 21
-41.8289
  0
LINE
  8
0
 10
-20.9993
 20
-41.8289
 11
-20.9383
 21
-41.8863
  0
LINE
  8
0
 10
-20.9383
 20
-41.8863
 11
-20.8749
 21
-41.941
  0
LINE
  8
0
 10
-20.8749
 20
-41.941
 11
-20.8092
 21
-41.9931
  0
LINE
  8
0
 10
-20.8092
 20
-41.9931
 11
-20.7414
 21
-42.0423
  0
LINE
  8
0
 10
-20.7414
 20
-42.0423
 11
-20.6717
 21
-42.0887
  0
LINE
  8
0
 10
-20.6717
 20
-42.0887
 11
-20.6
 21
-42.132
  0
LINE
  8
0
 10
-20.6
 20
-42.132
 11
-20.5266
 21
-42.1724
  0
LINE
  8
0
 10
-20.5266
 20
-42.1724
 11
-20.4516
 21
-42.2096
  0
LINE
  8
0
 10
-20.4516
 20
-42.2096
 11
-20.375
 21
-42.2437
  0
LINE
  8
0
 10
-20.375
 20
-42.2437
 11
-20.2971
 21
-42.2746
  0
LINE
  8
0
 10
-20.2971
 20
-42.2746
 11
-20.218
 21
-42.3021
  0
LINE
  8
0
 10
-20.218
 20
-42.3021
 11
-20.1378
 21
-42.3263
  0
LINE
  8
0
 10
-20.1378
 20
-42.3263
 11
-20.0567
 21
-42.3472
  0
LINE
  8
0
 10
-20.0567
 20
-42.3472
 11
-19.9748
 21
-42.3646
  0
LINE
  8
0
 10
-19.9748
 20
-42.3646
 11
-19.8922
 21
-42.3785
  0
LINE
  8
0
 10
-19.8922
 20
-42.3785
 11
-19.8091
 21
-42.389
  0
LINE
  8
0
 10
-19.8091
 20
-42.389
 11
-19.7256
 21
-42.396
  0
LINE
  8
0
 10
-19.7256
 20
-42.396
 11
-19.6419
 21
-42.3996
  0
LINE
  8
0
 10
-19.6419
 20
-42.3996
 11
-19.5581
 21
-42.3996
  0
LINE
  8
0
 10
-19.5581
 20
-42.3996
 11
-19.4744
 21
-42.396
  0
LINE
  8
0
 10
19.7256
 20
-42.396
 11
19.8091
 21
-42.389
  0
LINE
  8
0
 10
19.8091
 20
-42.389
 11
19.8922
 21
-42.3785
  0
LINE
  8
0
 10
19.8922
 20
-42.3785
 11
19.9748
 21
-42.3646
  0
LINE
  8
0
 10
19.9748
 20
-42.3646
 11
20.0567
 21
-42.3472
  0
LINE
  8
0
 10
20.0567
 20
-42.3472
 11
20.1378
 21
-42.3263
  0
LINE
  8
0
 10
20.1378
 20
-42.3263
 11
20.218
 21
-42.3021
  0
LINE
  8
0
 10
20.218
 20
-42.3021
 11
20.2971
 21
-42.2746
  0
LINE
  8
0
 10
20.2971
 20
-42.2746
 11
20.375
 21
-42.2437
  0
LINE
  8
0
 10
20.375
 20
-42.2437
 11
20.4516
 21
-42.2096
  0
LINE
  8
0
 10
20.4516
 20
-42.2096
 11
20.5266
 21
-42.1724
  0
LINE
  8
0
 10
20.5266
 20
-42.1724
 11
20.6
 21
-42.132
  0
LINE
  8
0
 10
20.6
 20
-42.132
 11
20.6717
 21
-42.0887
  0
LINE
  8
0
 10
20.6717
 20
-42.0887
 11
20.7414
 21
-42.0423
  0
LINE
  8
0
 10
20.7414
 20
-42.0423
 11
20.8092
 21
-41.9931
  0
LINE
  8
0
 10
20.8092
 20
-41.9931
 11
20.8749
 21
-41.941
  0
LINE
  8
0
 10
20.8749
 20
-41.941
 11
20.9383
 21
-41.8863
  0
LINE
  8
0
 10
20.9383
 20
-41.8863
 11
20.9993
 21
-41.8289
  0
LINE
  8
0
 10
20.9993
 20
-41.8289
 11
21.0579
 21
-41.7691
  0
LINE
  8
0
 10
21.0579
 20
-41.7691
 11
21.114
 21
-41.7068
  0
LINE
  8
0
 10
21.114
 20
-41.7068
 11
21.1674
 21
-41.6423
  0
LINE
  8
0
 10
21.1674
 20
-41.6423
 11
21.218
 21
-41.5756
  0
LINE
  8
0
 10
21.218
 20
-41.5756
 11
21.2659
 21
-41.5068
  0
LINE
  8
0
 10
21.2659
 20
-41.5068
 11
21.3107
 21
-41.4361
  0
LINE
  8
0
 10
21.3107
 20
-41.4361
 11
21.3526
 21
-41.3635
  0
LINE
  8
0
 10
21.3526
 20
-41.3635
 11
21.3914
 21
-41.2893
  0
LINE
  8
0
 10
21.3914
 20
-41.2893
 11
21.4271
 21
-41.2135
  0
LINE
  8
0
 10
21.4271
 20
-41.2135
 11
21.4596
 21
-41.1362
  0
LINE
  8
0
 10
21.4596
 20
-41.1362
 11
21.4888
 21
-41.0577
  0
LINE
  8
0
 10
21.4888
 20
-41.0577
 11
21.5146
 21
-40.9781
  0
LINE
  8
0
 10
21.5146
 20
-40.9781
 11
21.5372
 21
-40.8974
  0
LINE
  8
0
 10
21.5372
 20
-40.8974
 11
21.5563
 21
-40.8158
  0
LINE
  8
0
 10
21.5563
 20
-40.8158
 11
21.572
 21
-40.7335
  0
LINE
  8
0
 10
21.572
 20
-40.7335
 11
21.5842
 21
-40.6507
  0
LINE
  8
0
 10
21.5842
 20
-40.6507
 11
21.593
 21
-40.5674
  0
LINE
  8
0
 10
21.593
 20
-40.5674
 11
21.5983
 21
-40.4837
  0
LINE
  8
0
 10
21.5983
 20
-40.4837
 11
21.6
 21
-40.4
  0
LINE
  8
0
 10
21.6
 20
-40.4
 11
21.5983
 21
-40.3162
  0
LINE
  8
0
 10
21.5983
 20
-40.3162
 11
21.593
 21
-40.2326
  0
LINE
  8
0
 10
21.593
 20
-40.2326
 11
21.5842
 21
-40.1493
  0
LINE
  8
0
 10
21.5842
 20
-40.1493
 11
21.572
 21
-40.0665
  0
LINE
  8
0
 10
21.572
 20
-40.0665
 11
21.5563
 21
-39.9842
  0
LINE
  8
0
 10
21.5563
 20
-39.9842
 11
21.5372
 21
-39.9026
  0
LINE
  8
0
 10
21.5372
 20
-39.9026
 11
21.5146
 21
-39.8219
  0
LINE
  8
0
 10
21.5146
 20
-39.8219
 11
21.4888
 21
-39.7423
  0
LINE
  8
0
 10
21.4888
 20
-39.7423
 11
21.4596
 21
-39.6637
  0
LINE
  8
0
 10
21.4596
 20
-39.6637
 11
21.4271
 21
-39.5865
  0
LINE
  8
0
 10
21.4271
 20
-39.5865
 11
21.3914
 21
-39.5107
  0
LINE
  8
0
 10
21.3914
 20
-39.5107
 11
21.3526
 21
-39.4365
  0
LINE
  8
0
 10
21.3526
 20
-39.4365
 11
21.3107
 21
-39.3639
  0
LINE
  8
0
 10
21.3107
 20
-39.3639
 11
21.2659
 21
-39.2932
  0
LINE
  8
0
 10
21.2659
 20
-39.2932
 11
21.218
 21
-39.2244
  0
LINE
  8
0
 10
21.218
 20
-39.2244
 11
21.1674
 21
-39.1577
  0
LINE
  8
0
 10
21.1674
 20
-39.1577
 11
21.114
 21
-39.0932
  0
LINE
  8
0
 10
21.114
 20
-39.0932
 11
21.0579
 21
-39.0309
  0
LINE
  8
0
 10
21.0579
 20
-39.0309
 11
20.9993
 21
-38.9711
  0
LINE
  8
0
 10
20.9993
 20
-38.9711
 11
20.9383
 21
-38.9137
  0
LINE
  8
0
 10
20.9383
 20
-38.9137
 11
20.8749
 21
-38.859
  0
LINE
  8
0
 10
20.8749
 20
-38.859
 11
20.8092
 21
-38.8069
  0
LINE
  8
0
 10
20.8092
 20
-38.8069
 11
20.7414
 21
-38.7577
  0
LINE
  8
0
 10
20.7414
 20
-38.7577
 11
20.6717
 21
-38.7113
  0
LINE
  8
0
 10
20.6717
 20
-38.7113
 11
20.6
 21
-38.6679
  0
LINE
  8
0
 10
20.6
 20
-38.6679
 11
20.5266
 21
-38.6276
  0
LINE
  8
0
 10
20.5266
 20
-38.6276
 11
20.4516
 21
-38.5903
  0
LINE
  8
0
 10
20.4516
 20
-38.5903
 11
20.375
 21
-38.5563
  0
LINE
  8
0
 10
20.375
 20
-38.5563
 11
20.2971
 21
-38.5254
  0
LINE
  8
0
 10
20.2971
 20
-38.5254
 11
20.218
 21
-38.4979
  0
LINE
  8
0
 10
20.218
 20
-38.4979
 11
20.1378
 21
-38.4737
  0
LINE
  8
0
 10
20.1378
 20
-38.4737
 11
20.0567
 21
-38.4528
  0
LINE
  8
0
 10
20.0567
 20
-38.4528
 11
19.9748
 21
-38.4354
  0
LINE
  8
0
 10
19.9748
 20
-38.4354
 11
19.8922
 21
-38.4214
  0
LINE
  8
0
 10
19.8922
 20
-38.4214
 11
19.8091
 21
-38.4109
  0
LINE
  8
0
 10
19.8091
 20
-38.4109
 11
19.7256
 21
-38.4039
  0
LINE
  8
0
 10
19.7256
 20
-38.4039
 11
19.6419
 21
-38.4004
  0
LINE
  8
0
 10
19.6419
 20
-38.4004
 11
19.5581
 21
-38.4004
  0
LINE
  8
0
 10
19.5581
 20
-38.4004
 11
19.4744
 21
-38.4039
  0
LINE
  8
0
 10
19.4744
 20
-38.4039
 11
19.3909
 21
-38.4109
  0
LINE
  8
0
 10
19.3909
 20
-38.4109
 11
19.3078
 21
-38.4214
  0
LINE
  8
0
 10
19.3078
 20
-38.4214
 11
19.2253
 21
-38.4354
  0
LINE
  8
0
 10
19.2253
 20
-38.4354
 11
19.1433
 21
-38.4528
  0
LINE
  8
0
 10
19.1433
 20
-38.4528
 11
19.0622
 21
-38.4737
  0
LINE
  8
0
 10
19.0622
 20
-38.4737
 11
18.982
 21
-38.4979
  0
LINE
  8
0
 10
18.982
 20
-38.4979
 11
18.9029
 21
-38.5254
  0
LINE
  8
0
 10
18.9029
 20
-38.5254
 11
18.825
 21
-38.5563
  0
LINE
  8
0
 10
18.825
 20
-38.5563
 11
18.7484
 21
-38.5903
  0
LINE
  8
0
 10
18.7484
 20
-38.5903
 11
18.6734
 21
-38.6276
  0
LINE
  8
0
 10
18.6734
 20
-38.6276
 11
18.6
 21
-38.6679
  0
LINE
  8
0
 10
18.6
 20
-38.6679
 11
18.5284
 21
-38.7113
  0
LINE
  8
0
 10
18.5284
 20
-38.7113
 11
18.4586
 21
-38.7577
  0
LINE
  8
0
 10
18.4586
 20
-38.7577
 11
18.3908
 21
-38.8069
  0
LINE
  8
0
 10
18.3908
 20
-38.8069
 11
18.3252
 21
-38.859
  0
LINE
  8
0
 10
18.3252
 20
-38.859
 11
18.2617
 21
-38.9137
  0
LINE
  8
0
 10
18.2617
 20
-38.9137
 11
18.2007
 21
-38.9711
  0
LINE
  8
0
 10
18.2007
 20
-38.9711
 11
18.1421
 21
-39.0309
  0
LINE
  8
0
 10
18.1421
 20
-39.0309
 11
18.086
 21
-39.0932
  0
LINE
  8
0
 10
18.086
 20
-39.0932
 11
18.0326
 21
-39.1577
  0
LINE
  8
0
 10
18.0326
 20
-39.1577
 11
17.982
 21
-39.2244
  0
LINE
  8
0
 10
17.982
 20
-39.2244
 11
17.9342
 21
-39.2932
  0
LINE
  8
0
 10
17.9342
 20
-39.2932
 11
17.8893
 21
-39.3639
  0
LINE
  8
0
 10
17.8893
 20
-39.3639
 11
17.8474
 21
-39.4365
  0
LINE
  8
0
 10
17.8474
 20
-39.4365
 11
17.8086
 21
-39.5107
  0
LINE
  8
0
 10
17.8086
 20
-39.5107
 11
17.7729
 21
-39.5865
  0
LINE
  8
0
 10
17.7729
 20
-39.5865
 11
17.7404
 21
-39.6637
  0
LINE
  8
0
 10
17.7404
 20
-39.6637
 11
17.7113
 21
-39.7423
  0
LINE
  8
0
 10
17.7113
 20
-39.7423
 11
17.6854
 21
-39.8219
  0
LINE
  8
0
 10
17.6854
 20
-39.8219
 11
17.6628
 21
-39.9026
  0
LINE
  8
0
 10
17.6628
 20
-39.9026
 11
17.6437
 21
-39.9842
  0
LINE
  8
0
 10
17.6437
 20
-39.9842
 11
17.628
 21
-40.0665
  0
LINE
  8
0
 10
17.628
 20
-40.0665
 11
17.6158
 21
-40.1493
  0
LINE
  8
0
 10
17.6158
 20
-40.1493
 11
17.607
 21
-40.2326
  0
LINE
  8
0
 10
17.607
 20
-40.2326
 11
17.6018
 21
-40.3162
  0
LINE
  8
0
 10
17.6018
 20
-40.3162
 11
17.6
 21
-40.4
  0
LINE
  8
0
 10
17.6
 20
-40.4
 11
17.6018
 21
-40.4837
  0
LINE
  8
0
 10
17.6018
 20
-40.4837
 11
17.607
 21
-40.5674
  0
LINE
  8
0
 10
17.607
 20
-40.5674
 11
17.6158
 21
-40.6507
  0
LINE
  8
0
 10
17.6158
 20
-40.6507
 11
17.628
 21
-40.7335
  0
LINE
  8
0
 10
17.628
 20
-40.7335
 11
17.6437
 21
-40.8158
  0
LINE
  8
0
 10
17.6437
 20
-40.8158
 11
17.6628
 21
-40.8974
  0
LINE
  8
0
 10
17.6628
 20
-40.8974
 11
17.6854
 21
-40.9781
  0
LINE
  8
0
 10
17.6854
 20
-40.9781
 11
17.7113
 21
-41.0577
  0
LINE
  8
0
 10
17.7113
 20
-41.0577
 11
17.7404
 21
-41.1362
  0
LINE
  8
0
 10
17.7404
 20
-41.1362
 11
17.7729
 21
-41.2135
  0
LINE
  8
0
 10
17.7729
 20
-41.2135
 11
17.8086
 21
-41.2893
  0
LINE
  8
0
 10
17.8086
 20
-41.2893
 11
17.8474
 21
-41.3635
  0
LINE
  8
0
 10
17.8474
 20
-41.3635
 11
17.8893
 21
-41.4361
  0
LINE
  8
0
 10
17.8893
 20
-41.4361
 11
17.9342
 21
-41.5068
  0
LINE
  8
0
 10
17.9342
 20
-41.5068
 11
17.982
 21
-41.5756
  0
LINE
  8
0
 10
17.982
 20
-41.5756
 11
18.0326
 21
-41.6423
  0
LINE
  8
0
 10
18.0326
 20
-41.6423
 11
18.086
 21
-41.7068
  0
LINE
  8
0
 10
18.086
 20
-41.7068
 11
18.1421
 21
-41.7691
  0
LINE
  8
0
 10
18.1421
 20
-41.7691
 11
18.2007
 21
-41.8289
  0
LINE
  8
0
 10
18.2007
 20
-41.8289
 11
18.2617
 21
-41.8863
  0
LINE
  8
0
 10
18.2617
 20
-41.8863
 11
18.3252
 21
-41.941
  0
LINE
  8
0
 10
18.3252
 20
-41.941
 11
18.3908
 21
-41.9931
  0
LINE
  8
0
 10
18.3908
 20
-41.9931
 11
18.4586
 21
-42.0423
  0
LINE
  8
0
 10
18.4586
 20
-42.0423
 11
18.5284
 21
-42.0887
  0
LINE
  8
0
 10
18.5284
 20
-42.0887
 11
18.6
 21
-42.132
  0
LINE
  8
0
 10
18.6
 20
-42.132
 11
18.6734
 21
-42.1724
  0
LINE
  8
0
 10
18.6734
 20
-42.1724
 11
18.7484
 21
-42.2096
  0
LINE
  8
0
 10
18.7484
 20
-42.2096
 11
18.825
 21
-42.2437
  0
LINE
  8
0
 10
18.825
 20
-42.2437
 11
18.9029
 21
-42.2746
  0
LINE
  8
0
 10
18.9029
 20
-42.2746
 11
18.982
 21
-42.3021
  0
LINE
  8
0
 10
18.982
 20
-42.3021
 11
19.0622
 21
-42.3263
  0
LINE
  8
0
 10
19.0622
 20
-42.3263
 11
19.1433
 21
-42.3472
  0
LINE
  8
0
 10
19.1433
 20
-42.3472
 11
19.2253
 21
-42.3646
  0
LINE
  8
0
 10
19.2253
 20
-42.3646
 11
19.3078
 21
-42.3785
  0
LINE
  8
0
 10
19.3078
 20
-42.3785
 11
19.3909
 21
-42.389
  0
LINE
  8
0
 10
19.3909
 20
-42.389
 11
19.4744
 21
-42.396
  0
LINE
  8
0
 10
19.4744
 20
-42.396
 11
19.5581
 21
-42.3996
  0
LINE
  8
0
 10
19.5581
 20
-42.3996
 11
19.6419
 21
-42.3996
  0
LINE
  8
0
 10
19.6419
 20
-42.3996
 11
19.7256
 21
-42.396
  0
LINE
  8
0
 10
100.526
 20
-42.396
 11
100.609
 21
-42.389
  0
LINE
  8
0
 10
100.609
 20
-42.389
 11
100.692
 21
-42.3785
  0
LINE
  8
0
 10
100.692
 20
-42.3785
 11
100.775
 21
-42.3646
  0
LINE
  8
0
 10
100.775
 20
-42.3646
 11
100.857
 21
-42.3472
  0
LINE
  8
0
 10
100.857
 20
-42.3472
 11
100.938
 21
-42.3263
  0
LINE
  8
0
 10
100.938
 20
-42.3263
 11
101.018
 21
-42.3021
  0
LINE
  8
0
 10
101.018
 20
-42.3021
 11
101.097
 21
-42.2746
  0
LINE
  8
0
 10
101.097
 20
-42.2746
 11
101.175
 21
-42.2437
  0
LINE
  8
0
 10
101.175
 20
-42.2437
 11
101.252
 21
-42.2096
  0
LINE
  8
0
 10
101.252
 20
-42.2096
 11
101.327
 21
-42.1724
  0
LINE
  8
0
 10
101.327
 20
-42.1724
 11
101.4
 21
-42.132
  0
LINE
  8
0
 10
101.4
 20
-42.132
 11
101.472
 21
-42.0887
  0
LINE
  8
0
 10
101.472
 20
-42.0887
 11
101.541
 21
-42.0423
  0
LINE
  8
0
 10
101.541
 20
-42.0423
 11
101.609
 21
-41.9931
  0
LINE
  8
0
 10
101.609
 20
-41.9931
 11
101.675
 21
-41.941
  0
LINE
  8
0
 10
101.675
 20
-41.941
 11
101.738
 21
-41.8863
  0
LINE
  8
0
 10
101.738
 20
-41.8863
 11
101.799
 21
-41.8289
  0
LINE
  8
0
 10
101.799
 20
-41.8289
 11
101.858
 21
-41.7691
  0
LINE
  8
0
 10
101.858
 20
-41.7691
 11
101.914
 21
-41.7068
  0
LINE
  8
0
 10
101.914
 20
-41.7068
 11
101.967
 21
-41.6423
  0
LINE
  8
0
 10
101.967
 20
-41.6423
 11
102.018
 21
-41.5756
  0
LINE
  8
0
 10
102.018
 20
-41.5756
 11
102.066
 21
-41.5068
  0
LINE
  8
0
 10
102.066
 20
-41.5068
 11
102.111
 21
-41.4361
  0
LINE
  8
0
 10
102.111
 20
-41.4361
 11
102.153
 21
-41.3635
  0
LINE
  8
0
 10
102.153
 20
-41.3635
 11
102.191
 21
-41.2893
  0
LINE
  8
0
 10
102.191
 20
-41.2893
 11
102.227
 21
-41.2135
  0
LINE
  8
0
 10
102.227
 20
-41.2135
 11
102.26
 21
-41.1362
  0
LINE
  8
0
 10
102.26
 20
-41.1362
 11
102.289
 21
-41.0577
  0
LINE
  8
0
 10
102.289
 20
-41.0577
 11
102.315
 21
-40.9781
  0
LINE
  8
0
 10
102.315
 20
-40.9781
 11
102.337
 21
-40.8974
  0
LINE
  8
0
 10
102.337
 20
-40.8974
 11
102.356
 21
-40.8158
  0
LINE
  8
0
 10
102.356
 20
-40.8158
 11
102.372
 21
-40.7335
  0
LINE
  8
0
 10
102.372
 20
-40.7335
 11
102.384
 21
-40.6507
  0
LINE
  8
0
 10
102.384
 20
-40.6507
 11
102.393
 21
-40.5674
  0
LINE
  8
0
 10
102.393
 20
-40.5674
 11
102.398
 21
-40.4837
  0
LINE
  8
0
 10
102.398
 20
-40.4837
 11
102.4
 21
-40.4
  0
LINE
  8
0
 10
102.4
 20
-40.4
 11
102.398
 21
-40.3162
  0
LINE
  8
0
 10
102.398
 20
-40.3162
 11
102.393
 21
-40.2326
  0
LINE
  8
0
 10
102.393
 20
-40.2326
 11
102.384
 21
-40.1493
  0
LINE
  8
0
 10
102.384
 20
-40.1493
 11
102.372
 21
-40.0665
  0
LINE
  8
0
 10
102.372
 20
-40.0665
 11
102.356
 21
-39.9842
  0
LINE
  8
0
 10
102.356
 20
-39.9842
 11
102.337
 21
-39.9026
  0
LINE
  8
0
 10
102.337
 20
-39.9026
 11
102.315
 21
-39.8219
  0
LINE
  8
0
 10
102.315
 20
-39.8219
 11
102.289
 21
-39.7423
  0
LINE
  8
0
 10
102.289
 20
-39.7423
 11
102.26
 21
-39.6637
  0
LINE
  8
0
 10
102.26
 20
-39.6637
 11
102.227
 21
-39.5865
  0
LINE
  8
0
 10
102.227
 20
-39.5865
 11
102.191
 21
-39.5107
  0
LINE
  8
0
 10
102.191
 20
-39.5107
 11
102.153
 21
-39.4365
  0
LINE
  8
0
 10
102.153
 20
-39.4365
 11
102.111
 21
-39.3639
  0
LINE
  8
0
 10
102.111
 20
-39.3639
 11
102.066
 21
-39.2932
  0
LINE
  8
0
 10
102.066
 20
-39.2932
 11
102.018
 21
-39.2244
  0
LINE
  8
0
 10
102.018
 20
-39.2244
 11
101.967
 21
-39.1577
  0
LINE
  8
0
 10
101.967
 20
-39.1577
 11
101.914
 21
-39.0932
  0
LINE
  8
0
 10
101.914
 20
-39.0932
 11
101.858
 21
-39.0309
  0
LINE
  8
0
 10
101.858
 20
-39.0309
 11
101.799
 21
-38.9711
  0
LINE
  8
0
 10
101.799
 20
-38.9711
 11
101.738
 21
-38.9137
  0
LINE
  8
0
 10
101.738
 20
-38.9137
 11
101.675
 21
-38.859
  0
LINE
  8
0
 10
101.675
 20
-38.859
 11
101.609
 21
-38.8069
  0
LINE
  8
0
 10
101.609
 20
-38.8069
 11
101.541
 21
-38.7577
  0
LINE
  8
0
 10
101.541
 20
-38.7577
 11
101.472
 21
-38.7113
  0
LINE
  8
0
 10
101.472
 20
-38.7113
 11
101.4
 21
-38.6679
  0
LINE
  8
0
 10
101.4
 20
-38.6679
 11
101.327
 21
-38.6276
  0
LINE
  8
0
 10
101.327
 20
-38.6276
 11
101.252
 21
-38.5903
  0
LINE
  8
0
 10
101.252
 20
-38.5903
 11
101.175
 21
-38.5563
  0
LINE
  8
0
 10
101.175
 20
-38.5563
 11
101.097
 21
-38.5254
  0
LINE
  8
0
 10
101.097
 20
-38.5254
 11
101.018
 21
-38.4979
  0
LINE
  8
0
 10
101.018
 20
-38.4979
 11
100.938
 21
-38.4737
  0
LINE
  8
0
 10
100.938
 20
-38.4737
 11
100.857
 21
-38.4528
  0
LINE
  8
0
 10
100.857
 20
-38.4528
 11
100.775
 21
-38.4354
  0
LINE
  8
0
 10
100.775
 20
-38.4354
 11
100.692
 21
-38.4214
  0
LINE
  8
0
 10
100.692
 20
-38.4214
 11
100.609
 21
-38.4109
  0
LINE
  8
0
 10
100.609
 20
-38.4109
 11
100.526
 21
-38.4039
  0
LINE
  8
0
 10
100.526
 20
-38.4039
 11
100.442
 21
-38.4004
  0
LINE
  8
0
 10
100.442
 20
-38.4004
 11
100.358
 21
-38.4004
  0
LINE
  8
0
 10
100.358
 20
-38.4004
 11
100.274
 21
-38.4039
  0
LINE
  8
0
 10
100.274
 20
-38.4039
 11
100.191
 21
-38.4109
  0
LINE
  8
0
 10
100.191
 20
-38.4109
 11
100.108
 21
-38.4214
  0
LINE
  8
0
 10
100.108
 20
-38.4214
 11
100.025
 21
-38.4354
  0
LINE
  8
0
 10
100.025
 20
-38.4354
 11
99.9433
 21
-38.4528
  0
LINE
  8
0
 10
99.9433
 20
-38.4528
 11
99.8622
 21
-38.4737
  0
LINE
  8
0
 10
99.8622
 20
-38.4737
 11
99.782
 21
-38.4979
  0
LINE
  8
0
 10
99.782
 20
-38.4979
 11
99.7029
 21
-38.5254
  0
LINE
  8
0
 10
99.7029
 20
-38.5254
 11
99.625
 21
-38.5563
  0
LINE
  8
0
 10
99.625
 20
-38.5563
 11
99.5484
 21
-38.5903
  0
LINE
  8
0
 10
99.5484
 20
-38.5903
 11
99.4734
 21
-38.6276
  0
LINE
  8
0
 10
99.4734
 20
-38.6276
 11
99.4
 21
-38.6679
  0
LINE
  8
0
 10
99.4
 20
-38.6679
 11
99.3283
 21
-38.7113
  0
LINE
  8
0
 10
99.3283
 20
-38.7113
 11
99.2586
 21
-38.7577
  0
LINE
  8
0
 10
99.2586
 20
-38.7577
 11
99.1908
 21
-38.8069
  0
LINE
  8
0
 10
99.1908
 20
-38.8069
 11
99.1251
 21
-38.859
  0
LINE
  8
0
 10
99.1251
 20
-38.859
 11
99.0617
 21
-38.9137
  0
LINE
  8
0
 10
99.0617
 20
-38.9137
 11
99.0007
 21
-38.9711
  0
LINE
  8
0
 10
99.0007
 20
-38.9711
 11
98.9421
 21
-39.0309
  0
LINE
  8
0
 10
98.9421
 20
-39.0309
 11
98.886
 21
-39.0932
  0
LINE
  8
0
 10
98.886
 20
-39.0932
 11
98.8326
 21
-39.1577
  0
LINE
  8
0
 10
98.8326
 20
-39.1577
 11
98.782
 21
-39.2244
  0
LINE
  8
0
 10
98.782
 20
-39.2244
 11
98.7341
 21
-39.2932
  0
LINE
  8
0
 10
98.7341
 20
-39.2932
 11
98.6893
 21
-39.3639
  0
LINE
  8
0
 10
98.6893
 20
-39.3639
 11
98.6474
 21
-39.4365
  0
LINE
  8
0
 10
98.6474
 20
-39.4365
 11
98.6086
 21
-39.5107
  0
LINE
  8
0
 10
98.6086
 20
-39.5107
 11
98.5729
 21
-39.5865
  0
LINE
  8
0
 10
98.5729
 20
-39.5865
 11
98.5404
 21
-39.6637
  0
LINE
  8
0
 10
98.5404
 20
-39.6637
 11
98.5112
 21
-39.7423
  0
LINE
  8
0
 10
98.5112
 20
-39.7423
 11
98.4854
 21
-39.8219
  0
LINE
  8
0
 10
98.4854
 20
-39.8219
 11
98.4628
 21
-39.9026
  0
LINE
  8
0
 10
98.4628
 20
-39.9026
 11
98.4437
 21
-39.9842
  0
LINE
  8
0
 10
98.4437
 20
-39.9842
 11
98.428
 21
-40.0665
  0
LINE
  8
0
 10
98.428
 20
-40.0665
 11
98.4158
 21
-40.1493
  0
LINE
  8
0
 10
98.4158
 20
-40.1493
 11
98.407
 21
-40.2326
  0
LINE
  8
0
 10
98.407
 20
-40.2326
 11
98.4017
 21
-40.3162
  0
LINE
  8
0
 10
98.4017
 20
-40.3162
 11
98.4
 21
-40.4
  0
LINE
  8
0
 10
98.4
 20
-40.4
 11
98.4017
 21
-40.4837
  0
LINE
  8
0
 10
98.4017
 20
-40.4837
 11
98.407
 21
-40.5674
  0
LINE
  8
0
 10
98.407
 20
-40.5674
 11
98.4158
 21
-40.6507
  0
LINE
  8
0
 10
98.4158
 20
-40.6507
 11
98.428
 21
-40.7335
  0
LINE
  8
0
 10
98.428
 20
-40.7335
 11
98.4437
 21
-40.8158
  0
LINE
  8
0
 10
98.4437
 20
-40.8158
 11
98.4628
 21
-40.8974
  0
LINE
  8
0
 10
98.4628
 20
-40.8974
 11
98.4854
 21
-40.9781
  0
LINE
  8
0
 10
98.4854
 20
-40.9781
 11
98.5112
 21
-41.0577
  0
LINE
  8
0
 10
98.5112
 20
-41.0577
 11
98.5404
 21
-41.1362
  0
LINE
  8
0
 10
98.5404
 20
-41.1362
 11
98.5729
 21
-41.2135
  0
LINE
  8
0
 10
98.5729
 20
-41.2135
 11
98.6086
 21
-41.2893
  0
LINE
  8
0
 10
98.6086
 20
-41.2893
 11
98.6474
 21
-41.3635
  0
LINE
  8
0
 10
98.6474
 20
-41.3635
 11
98.6893
 21
-41.4361
  0
LINE
  8
0
 10
98.6893
 20
-41.4361
 11
98.7341
 21
-41.5068
  0
LINE
  8
0
 10
98.7341
 20
-41.5068
 11
98.782
 21
-41.5756
  0
LINE
  8
0
 10
98.782
 20
-41.5756
 11
98.8326
 21
-41.6423
  0
LINE
  8
0
 10
98.8326
 20
-41.6423
 11
98.886
 21
-41.7068
  0
LINE
  8
0
 10
98.886
 20
-41.7068
 11
98.9421
 21
-41.7691
  0
LINE
  8
0
 10
98.9421
 20
-41.7691
 11
99.0007
 21
-41.8289
  0
LINE
  8
0
 10
99.0007
 20
-41.8289
 11
99.0617
 21
-41.8863
  0
LINE
  8
0
 10
99.0617
 20
-41.8863
 11
99.1251
 21
-41.941
  0
LINE
  8
0
 10
99.1251
 20
-41.941
 11
99.1908
 21
-41.9931
  0
LINE
  8
0
 10
99.1908
 20
-41.9931
 11
99.2586
 21
-42.0423
  0
LINE
  8
0
 10
99.2586
 20
-42.0423
 11
99.3283
 21
-42.0887
  0
LINE
  8
0
 10
99.3283
 20
-42.0887
 11
99.4
 21
-42.132
  0
LINE
  8
0
 10
99.4
 20
-42.132
 11
99.4734
 21
-42.1724
  0
LINE
  8
0
 10
99.4734
 20
-42.1724
 11
99.5484
 21
-42.2096
  0
LINE
  8
0
 10
99.5484
 20
-42.2096
 11
99.625
 21
-42.2437
  0
LINE
  8
0
 10
99.625
 20
-42.2437
 11
99.7029
 21
-42.2746
  0
LINE
  8
0
 10
99.7029
 20
-42.2746
 11
99.782
 21
-42.3021
  0
LINE
  8
0
 10
99.782
 20
-42.3021
 11
99.8622
 21
-42.3263
  0
LINE
  8
0
 10
99.8622
 20
-42.3263
 11
99.9433
 21
-42.3472
  0
LINE
  8
0
 10
99.9433
 20
-42.3472
 11
100.025
 21
-42.3646
  0
LINE
  8
0
 10
100.025
 20
-42.3646
 11
100.108
 21
-42.3785
  0
LINE
  8
0
 10
100.108
 20
-42.3785
 11
100.191
 21
-42.389
  0
LINE
  8
0
 10
100.191
 20
-42.389
 11
100.274
 21
-42.396
  0
LINE
  8
0
 10
100.274
 20
-42.396
 11
100.358
 21
-42.3996
  0
LINE
  8
0
 10
100.358
 20
-42.3996
 11
100.442
 21
-42.3996
  0
LINE
  8
0
 10
100.442
 20
-42.3996
 11
100.526
 21
-42.396
  0
ENDSEC
  0
SECTION
  2
OBJECTS
  0
DICTIONARY
  0
ENDSEC
  0
EOF
