  0
SECTION
  2
BLOCKS
  0
ENDSEC
  0
SECTION
  2
ENTITIES
  0
LINE
  8
0
 10
-14.2257
 20
4.54001
 11
-8.63142
 21
4.54001
  0
LINE
  8
0
 10
-8.63142
 20
4.54001
 11
-8.63142
 21
0.840012
  0
LINE
  8
0
 10
-8.63142
 20
0.840012
 11
-2.79713
 21
0.840012
  0
LINE
  8
0
 10
-2.79713
 20
0.840012
 11
-2.79713
 21
4.54001
  0
LINE
  8
0
 10
-2.79713
 20
4.54001
 11
2.79713
 21
4.54001
  0
LINE
  8
0
 10
2.79713
 20
4.54001
 11
2.79713
 21
0.840012
  0
LINE
  8
0
 10
2.79713
 20
0.840012
 11
8.63142
 21
0.840012
  0
LINE
  8
0
 10
8.63142
 20
0.840012
 11
8.63142
 21
4.54001
  0
LINE
  8
0
 10
8.63142
 20
4.54001
 11
14.2257
 21
4.54001
  0
LINE
  8
0
 10
14.2257
 20
4.54001
 11
14.2257
 21
0.840012
  0
LINE
  8
0
 10
14.2257
 20
0.840012
 11
20.06
 21
0.840012
  0
LINE
  8
0
 10
20.06
 20
0.840012
 11
20.06
 21
0.940002
  0
LINE
  8
0
 10
20.06
 20
0.940002
 11
20.16
 21
0.940002
  0
LINE
  8
0
 10
20.16
 20
0.940002
 11
20.16
 21
6.77429
  0
LINE
  8
0
 10
20.16
 20
6.77429
 11
16.46
 21
6.77429
  0
LINE
  8
0
 10
16.46
 20
6.77429
 11
16.46
 21
12.3686
  0
LINE
  8
0
 10
16.46
 20
12.3686
 11
20.16
 21
12.3686
  0
LINE
  8
0
 10
20.16
 20
12.3686
 11
20.16
 21
18.2029
  0
LINE
  8
0
 10
20.16
 20
18.2029
 11
16.46
 21
18.2029
  0
LINE
  8
0
 10
16.46
 20
18.2029
 11
16.46
 21
23.7971
  0
LINE
  8
0
 10
16.46
 20
23.7971
 11
20.16
 21
23.7971
  0
LINE
  8
0
 10
20.16
 20
23.7971
 11
20.16
 21
29.6314
  0
LINE
  8
0
 10
20.16
 20
29.6314
 11
16.46
 21
29.6314
  0
LINE
  8
0
 10
16.46
 20
29.6314
 11
16.46
 21
35.2257
  0
LINE
  8
0
 10
16.46
 20
35.2257
 11
20.16
 21
35.2257
  0
LINE
  8
0
 10
20.16
 20
35.2257
 11
20.16
 21
41.06
  0
LINE
  8
0
 10
20.16
 20
41.06
 11
20.06
 21
41.06
  0
LINE
  8
0
 10
20.06
 20
41.06
 11
20.06
 21
41.16
  0
LINE
  8
0
 10
20.06
 20
41.16
 11
14.2257
 21
41.16
  0
LINE
  8
0
 10
14.2257
 20
41.16
 11
14.2257
 21
37.46
  0
LINE
  8
0
 10
14.2257
 20
37.46
 11
8.63142
 21
37.46
  0
LINE
  8
0
 10
8.63142
 20
37.46
 11
8.63142
 21
41.16
  0
LINE
  8
0
 10
8.63142
 20
41.16
 11
2.79713
 21
41.16
  0
LINE
  8
0
 10
2.79713
 20
41.16
 11
2.79713
 21
37.46
  0
LINE
  8
0
 10
2.79713
 20
37.46
 11
-2.79713
 21
37.46
  0
LINE
  8
0
 10
-2.79713
 20
37.46
 11
-2.79713
 21
41.16
  0
LINE
  8
0
 10
-2.79713
 20
41.16
 11
-8.63142
 21
41.16
  0
LINE
  8
0
 10
-8.63142
 20
41.16
 11
-8.63142
 21
37.46
  0
LINE
  8
0
 10
-8.63142
 20
37.46
 11
-14.2257
 21
37.46
  0
LINE
  8
0
 10
-14.2257
 20
37.46
 11
-14.2257
 21
41.16
  0
LINE
  8
0
 10
-14.2257
 20
41.16
 11
-20.06
 21
41.16
  0
LINE
  8
0
 10
-20.06
 20
41.16
 11
-20.06
 21
41.06
  0
LINE
  8
0
 10
-20.06
 20
41.06
 11
-20.16
 21
41.06
  0
LINE
  8
0
 10
-20.16
 20
41.06
 11
-20.16
 21
35.2257
  0
LINE
  8
0
 10
-20.16
 20
35.2257
 11
-16.46
 21
35.2257
  0
LINE
  8
0
 10
-16.46
 20
35.2257
 11
-16.46
 21
29.6314
  0
LINE
  8
0
 10
-16.46
 20
29.6314
 11
-20.16
 21
29.6314
  0
LINE
  8
0
 10
-20.16
 20
29.6314
 11
-20.16
 21
23.7971
  0
LINE
  8
0
 10
-20.16
 20
23.7971
 11
-16.46
 21
23.7971
  0
LINE
  8
0
 10
-16.46
 20
23.7971
 11
-16.46
 21
18.2029
  0
LINE
  8
0
 10
-16.46
 20
18.2029
 11
-20.16
 21
18.2029
  0
LINE
  8
0
 10
-20.16
 20
18.2029
 11
-20.16
 21
12.3686
  0
LINE
  8
0
 10
-20.16
 20
12.3686
 11
-16.46
 21
12.3686
  0
LINE
  8
0
 10
-16.46
 20
12.3686
 11
-16.46
 21
6.77429
  0
LINE
  8
0
 10
-16.46
 20
6.77429
 11
-20.16
 21
6.77429
  0
LINE
  8
0
 10
-20.16
 20
6.77429
 11
-20.16
 21
0.940002
  0
LINE
  8
0
 10
-20.16
 20
0.940002
 11
-20.06
 21
0.940002
  0
LINE
  8
0
 10
-20.06
 20
0.940002
 11
-20.06
 21
0.840012
  0
LINE
  8
0
 10
-20.06
 20
0.840012
 11
-14.2257
 21
0.840012
  0
LINE
  8
0
 10
-14.2257
 20
0.840012
 11
-14.2257
 21
4.54001
  0
LINE
  8
0
 10
-8.51141
 20
-37.46
 11
-2.91713
 21
-37.46
  0
LINE
  8
0
 10
-2.91713
 20
-37.46
 11
-2.91713
 21
-41.16
  0
LINE
  8
0
 10
-2.91713
 20
-41.16
 11
2.91713
 21
-41.16
  0
LINE
  8
0
 10
2.91713
 20
-41.16
 11
2.91713
 21
-37.46
  0
LINE
  8
0
 10
2.91713
 20
-37.46
 11
8.51141
 21
-37.46
  0
LINE
  8
0
 10
8.51141
 20
-37.46
 11
8.51141
 21
-41.16
  0
LINE
  8
0
 10
8.51141
 20
-41.16
 11
14.3457
 21
-41.16
  0
LINE
  8
0
 10
14.3457
 20
-41.16
 11
14.3457
 21
-37.46
  0
LINE
  8
0
 10
14.3457
 20
-37.46
 11
16.36
 21
-37.46
  0
LINE
  8
0
 10
16.36
 20
-37.46
 11
16.36
 21
-41.06
  0
LINE
  8
0
 10
16.36
 20
-41.06
 11
16.4
 21
-41.06
  0
LINE
  8
0
 10
16.4
 20
-41.06
 11
16.4
 21
-37.46
  0
LINE
  8
0
 10
16.4
 20
-37.46
 11
20.16
 21
-37.46
  0
LINE
  8
0
 10
20.16
 20
-37.46
 11
20.16
 21
-35.2257
  0
LINE
  8
0
 10
20.16
 20
-35.2257
 11
16.46
 21
-35.2257
  0
LINE
  8
0
 10
16.46
 20
-35.2257
 11
16.46
 21
-29.6314
  0
LINE
  8
0
 10
16.46
 20
-29.6314
 11
20.16
 21
-29.6314
  0
LINE
  8
0
 10
20.16
 20
-29.6314
 11
20.16
 21
-23.7971
  0
LINE
  8
0
 10
20.16
 20
-23.7971
 11
16.46
 21
-23.7971
  0
LINE
  8
0
 10
16.46
 20
-23.7971
 11
16.46
 21
-18.2029
  0
LINE
  8
0
 10
16.46
 20
-18.2029
 11
20.16
 21
-18.2029
  0
LINE
  8
0
 10
20.16
 20
-18.2029
 11
20.16
 21
-12.3686
  0
LINE
  8
0
 10
20.16
 20
-12.3686
 11
16.46
 21
-12.3686
  0
LINE
  8
0
 10
16.46
 20
-12.3686
 11
16.46
 21
-6.77429
  0
LINE
  8
0
 10
16.46
 20
-6.77429
 11
20.16
 21
-6.77429
  0
LINE
  8
0
 10
20.16
 20
-6.77429
 11
20.16
 21
-4.54001
  0
LINE
  8
0
 10
20.16
 20
-4.54001
 11
16.4
 21
-4.54001
  0
LINE
  8
0
 10
16.4
 20
-4.54001
 11
16.4
 21
-0.940002
  0
LINE
  8
0
 10
16.4
 20
-0.940002
 11
16.36
 21
-0.940002
  0
LINE
  8
0
 10
16.36
 20
-0.940002
 11
16.36
 21
-4.54001
  0
LINE
  8
0
 10
16.36
 20
-4.54001
 11
14.3457
 21
-4.54001
  0
LINE
  8
0
 10
14.3457
 20
-4.54001
 11
14.3457
 21
-0.840012
  0
LINE
  8
0
 10
14.3457
 20
-0.840012
 11
8.51141
 21
-0.840012
  0
LINE
  8
0
 10
8.51141
 20
-0.840012
 11
8.51141
 21
-4.54001
  0
LINE
  8
0
 10
8.51141
 20
-4.54001
 11
2.91713
 21
-4.54001
  0
LINE
  8
0
 10
2.91713
 20
-4.54001
 11
2.91713
 21
-0.840012
  0
LINE
  8
0
 10
2.91713
 20
-0.840012
 11
-2.91713
 21
-0.840012
  0
LINE
  8
0
 10
-2.91713
 20
-0.840012
 11
-2.91713
 21
-4.54001
  0
LINE
  8
0
 10
-2.91713
 20
-4.54001
 11
-8.51141
 21
-4.54001
  0
LINE
  8
0
 10
-8.51141
 20
-4.54001
 11
-8.51141
 21
-0.840012
  0
LINE
  8
0
 10
-8.51141
 20
-0.840012
 11
-14.3457
 21
-0.840012
  0
LINE
  8
0
 10
-14.3457
 20
-0.840012
 11
-14.3457
 21
-4.54001
  0
LINE
  8
0
 10
-14.3457
 20
-4.54001
 11
-16.36
 21
-4.54001
  0
LINE
  8
0
 10
-16.36
 20
-4.54001
 11
-16.36
 21
-0.940002
  0
LINE
  8
0
 10
-16.36
 20
-0.940002
 11
-16.4
 21
-0.940002
  0
LINE
  8
0
 10
-16.4
 20
-0.940002
 11
-16.4
 21
-4.54001
  0
LINE
  8
0
 10
-16.4
 20
-4.54001
 11
-20.16
 21
-4.54001
  0
LINE
  8
0
 10
-20.16
 20
-4.54001
 11
-20.16
 21
-6.77429
  0
LINE
  8
0
 10
-20.16
 20
-6.77429
 11
-16.46
 21
-6.77429
  0
LINE
  8
0
 10
-16.46
 20
-6.77429
 11
-16.46
 21
-12.3686
  0
LINE
  8
0
 10
-16.46
 20
-12.3686
 11
-20.16
 21
-12.3686
  0
LINE
  8
0
 10
-20.16
 20
-12.3686
 11
-20.16
 21
-18.2029
  0
LINE
  8
0
 10
-20.16
 20
-18.2029
 11
-16.46
 21
-18.2029
  0
LINE
  8
0
 10
-16.46
 20
-18.2029
 11
-16.46
 21
-23.7971
  0
LINE
  8
0
 10
-16.46
 20
-23.7971
 11
-20.16
 21
-23.7971
  0
LINE
  8
0
 10
-20.16
 20
-23.7971
 11
-20.16
 21
-29.6314
  0
LINE
  8
0
 10
-20.16
 20
-29.6314
 11
-16.46
 21
-29.6314
  0
LINE
  8
0
 10
-16.46
 20
-29.6314
 11
-16.46
 21
-35.2257
  0
LINE
  8
0
 10
-16.46
 20
-35.2257
 11
-20.16
 21
-35.2257
  0
LINE
  8
0
 10
-20.16
 20
-35.2257
 11
-20.16
 21
-37.46
  0
LINE
  8
0
 10
-20.16
 20
-37.46
 11
-16.4
 21
-37.46
  0
LINE
  8
0
 10
-16.4
 20
-37.46
 11
-16.4
 21
-41.06
  0
LINE
  8
0
 10
-16.4
 20
-41.06
 11
-16.36
 21
-41.06
  0
LINE
  8
0
 10
-16.36
 20
-41.06
 11
-16.36
 21
-37.46
  0
LINE
  8
0
 10
-16.36
 20
-37.46
 11
-14.3457
 21
-37.46
  0
LINE
  8
0
 10
-14.3457
 20
-37.46
 11
-14.3457
 21
-41.16
  0
LINE
  8
0
 10
-14.3457
 20
-41.16
 11
-8.51141
 21
-41.16
  0
LINE
  8
0
 10
-8.51141
 20
-41.16
 11
-8.51141
 21
-37.46
  0
ENDSEC
  0
SECTION
  2
OBJECTS
  0
DICTIONARY
  0
ENDSEC
  0
EOF
