  0
SECTION
  2
BLOCKS
  0
ENDSEC
  0
SECTION
  2
ENTITIES
  0
LINE
  8
0
 10
45
 20
-12.4901
 11
45.3139
 21
-12.4901
  0
LINE
  8
0
 10
45.3139
 20
-12.4901
 11
45.9369
 21
-12.4114
  0
LINE
  8
0
 10
45.9369
 20
-12.4114
 11
46.5451
 21
-12.2553
  0
LINE
  8
0
 10
46.5451
 20
-12.2553
 11
47.1289
 21
-12.0241
  0
LINE
  8
0
 10
47.1289
 20
-12.0241
 11
47.6791
 21
-11.7216
  0
LINE
  8
0
 10
47.6791
 20
-11.7216
 11
48.1871
 21
-11.3526
  0
LINE
  8
0
 10
48.1871
 20
-11.3526
 11
48.6448
 21
-10.9227
  0
LINE
  8
0
 10
48.6448
 20
-10.9227
 11
49.0451
 21
-10.4389
  0
LINE
  8
0
 10
49.0451
 20
-10.4389
 11
49.3815
 21
-9.90877
  0
LINE
  8
0
 10
49.3815
 20
-9.90877
 11
49.6489
 21
-9.34062
  0
LINE
  8
0
 10
49.6489
 20
-9.34062
 11
49.8429
 21
-8.74344
  0
LINE
  8
0
 10
49.8429
 20
-8.74344
 11
49.9606
 21
-8.12666
  0
LINE
  8
0
 10
49.9606
 20
-8.12666
 11
50
 21
-7.5
  0
LINE
  8
0
 10
50
 20
-7.5
 11
50
 21
7.5
  0
LINE
  8
0
 10
50
 20
7.5
 11
49.9606
 21
8.12666
  0
LINE
  8
0
 10
49.9606
 20
8.12666
 11
49.8429
 21
8.74344
  0
LINE
  8
0
 10
49.8429
 20
8.74344
 11
49.6489
 21
9.34062
  0
LINE
  8
0
 10
49.6489
 20
9.34062
 11
49.3815
 21
9.90877
  0
LINE
  8
0
 10
49.3815
 20
9.90877
 11
49.0451
 21
10.4389
  0
LINE
  8
0
 10
49.0451
 20
10.4389
 11
48.6448
 21
10.9227
  0
LINE
  8
0
 10
48.6448
 20
10.9227
 11
48.1871
 21
11.3526
  0
LINE
  8
0
 10
48.1871
 20
11.3526
 11
47.6791
 21
11.7216
  0
LINE
  8
0
 10
47.6791
 20
11.7216
 11
47.1289
 21
12.0241
  0
LINE
  8
0
 10
47.1289
 20
12.0241
 11
46.5451
 21
12.2553
  0
LINE
  8
0
 10
46.5451
 20
12.2553
 11
45.9369
 21
12.4114
  0
LINE
  8
0
 10
45.9369
 20
12.4114
 11
45.3139
 21
12.4901
  0
LINE
  8
0
 10
45.3139
 20
12.4901
 11
45
 21
12.4901
  0
LINE
  8
0
 10
45
 20
12.4901
 11
45
 21
12.5
  0
LINE
  8
0
 10
45
 20
12.5
 11
-45
 21
12.5
  0
LINE
  8
0
 10
-45
 20
12.5
 11
-45
 21
12.4901
  0
LINE
  8
0
 10
-45
 20
12.4901
 11
-45.3139
 21
12.4901
  0
LINE
  8
0
 10
-45.3139
 20
12.4901
 11
-45.9369
 21
12.4114
  0
LINE
  8
0
 10
-45.9369
 20
12.4114
 11
-46.5451
 21
12.2553
  0
LINE
  8
0
 10
-46.5451
 20
12.2553
 11
-47.1289
 21
12.0241
  0
LINE
  8
0
 10
-47.1289
 20
12.0241
 11
-47.6791
 21
11.7216
  0
LINE
  8
0
 10
-47.6791
 20
11.7216
 11
-48.1871
 21
11.3526
  0
LINE
  8
0
 10
-48.1871
 20
11.3526
 11
-48.6448
 21
10.9227
  0
LINE
  8
0
 10
-48.6448
 20
10.9227
 11
-49.0451
 21
10.4389
  0
LINE
  8
0
 10
-49.0451
 20
10.4389
 11
-49.3815
 21
9.90877
  0
LINE
  8
0
 10
-49.3815
 20
9.90877
 11
-49.6489
 21
9.34062
  0
LINE
  8
0
 10
-49.6489
 20
9.34062
 11
-49.8429
 21
8.74344
  0
LINE
  8
0
 10
-49.8429
 20
8.74344
 11
-49.9606
 21
8.12666
  0
LINE
  8
0
 10
-49.9606
 20
8.12666
 11
-50
 21
7.5
  0
LINE
  8
0
 10
-50
 20
7.5
 11
-50
 21
-7.5
  0
LINE
  8
0
 10
-50
 20
-7.5
 11
-49.9606
 21
-8.12666
  0
LINE
  8
0
 10
-49.9606
 20
-8.12666
 11
-49.8429
 21
-8.74344
  0
LINE
  8
0
 10
-49.8429
 20
-8.74344
 11
-49.6489
 21
-9.34062
  0
LINE
  8
0
 10
-49.6489
 20
-9.34062
 11
-49.3815
 21
-9.90877
  0
LINE
  8
0
 10
-49.3815
 20
-9.90877
 11
-49.0451
 21
-10.4389
  0
LINE
  8
0
 10
-49.0451
 20
-10.4389
 11
-48.6448
 21
-10.9227
  0
LINE
  8
0
 10
-48.6448
 20
-10.9227
 11
-48.1871
 21
-11.3526
  0
LINE
  8
0
 10
-48.1871
 20
-11.3526
 11
-47.6791
 21
-11.7216
  0
LINE
  8
0
 10
-47.6791
 20
-11.7216
 11
-47.1289
 21
-12.0241
  0
LINE
  8
0
 10
-47.1289
 20
-12.0241
 11
-46.5451
 21
-12.2553
  0
LINE
  8
0
 10
-46.5451
 20
-12.2553
 11
-45.9369
 21
-12.4114
  0
LINE
  8
0
 10
-45.9369
 20
-12.4114
 11
-45.3139
 21
-12.4901
  0
LINE
  8
0
 10
-45.3139
 20
-12.4901
 11
-45
 21
-12.4901
  0
LINE
  8
0
 10
-45
 20
-12.4901
 11
-45
 21
-12.5
  0
LINE
  8
0
 10
-45
 20
-12.5
 11
45
 21
-12.5
  0
LINE
  8
0
 10
45
 20
-12.5
 11
45
 21
-12.4901
  0
LINE
  8
0
 10
-0.0313873
 20
-0.499008
 11
-0.093689
 21
-0.491135
  0
LINE
  8
0
 10
-0.093689
 20
-0.491135
 11
-0.154495
 21
-0.475525
  0
LINE
  8
0
 10
-0.154495
 20
-0.475525
 11
-0.212875
 21
-0.452408
  0
LINE
  8
0
 10
-0.212875
 20
-0.452408
 11
-0.267899
 21
-0.42215
  0
LINE
  8
0
 10
-0.267899
 20
-0.42215
 11
-0.31871
 21
-0.385254
  0
LINE
  8
0
 10
-0.31871
 20
-0.385254
 11
-0.364471
 21
-0.34227
  0
LINE
  8
0
 10
-0.364471
 20
-0.34227
 11
-0.404495
 21
-0.293884
  0
LINE
  8
0
 10
-0.404495
 20
-0.293884
 11
-0.438141
 21
-0.240875
  0
LINE
  8
0
 10
-0.438141
 20
-0.240875
 11
-0.464874
 21
-0.184052
  0
LINE
  8
0
 10
-0.464874
 20
-0.184052
 11
-0.484283
 21
-0.124344
  0
LINE
  8
0
 10
-0.484283
 20
-0.124344
 11
-0.496048
 21
-0.0626526
  0
LINE
  8
0
 10
-0.496048
 20
-0.0626526
 11
-0.5
 21
0
  0
LINE
  8
0
 10
-0.5
 20
0
 11
-0.496048
 21
0.0626526
  0
LINE
  8
0
 10
-0.496048
 20
0.0626526
 11
-0.484283
 21
0.124344
  0
LINE
  8
0
 10
-0.484283
 20
0.124344
 11
-0.464874
 21
0.184052
  0
LINE
  8
0
 10
-0.464874
 20
0.184052
 11
-0.438141
 21
0.240875
  0
LINE
  8
0
 10
-0.438141
 20
0.240875
 11
-0.404495
 21
0.293884
  0
LINE
  8
0
 10
-0.404495
 20
0.293884
 11
-0.364471
 21
0.34227
  0
LINE
  8
0
 10
-0.364471
 20
0.34227
 11
-0.31871
 21
0.385254
  0
LINE
  8
0
 10
-0.31871
 20
0.385254
 11
-0.267899
 21
0.42215
  0
LINE
  8
0
 10
-0.267899
 20
0.42215
 11
-0.212875
 21
0.452408
  0
LINE
  8
0
 10
-0.212875
 20
0.452408
 11
-0.154495
 21
0.475525
  0
LINE
  8
0
 10
-0.154495
 20
0.475525
 11
-0.093689
 21
0.491135
  0
LINE
  8
0
 10
-0.093689
 20
0.491135
 11
-0.0313873
 21
0.499008
  0
LINE
  8
0
 10
-0.0313873
 20
0.499008
 11
0.0313873
 21
0.499008
  0
LINE
  8
0
 10
0.0313873
 20
0.499008
 11
0.093689
 21
0.491135
  0
LINE
  8
0
 10
0.093689
 20
0.491135
 11
0.154495
 21
0.475525
  0
LINE
  8
0
 10
0.154495
 20
0.475525
 11
0.212875
 21
0.452408
  0
LINE
  8
0
 10
0.212875
 20
0.452408
 11
0.267899
 21
0.42215
  0
LINE
  8
0
 10
0.267899
 20
0.42215
 11
0.31871
 21
0.385254
  0
LINE
  8
0
 10
0.31871
 20
0.385254
 11
0.364471
 21
0.34227
  0
LINE
  8
0
 10
0.364471
 20
0.34227
 11
0.404495
 21
0.293884
  0
LINE
  8
0
 10
0.404495
 20
0.293884
 11
0.438141
 21
0.240875
  0
LINE
  8
0
 10
0.438141
 20
0.240875
 11
0.464874
 21
0.184052
  0
LINE
  8
0
 10
0.464874
 20
0.184052
 11
0.484283
 21
0.124344
  0
LINE
  8
0
 10
0.484283
 20
0.124344
 11
0.496048
 21
0.0626526
  0
LINE
  8
0
 10
0.496048
 20
0.0626526
 11
0.5
 21
0
  0
LINE
  8
0
 10
0.5
 20
0
 11
0.496048
 21
-0.0626526
  0
LINE
  8
0
 10
0.496048
 20
-0.0626526
 11
0.484283
 21
-0.124344
  0
LINE
  8
0
 10
0.484283
 20
-0.124344
 11
0.464874
 21
-0.184052
  0
LINE
  8
0
 10
0.464874
 20
-0.184052
 11
0.438141
 21
-0.240875
  0
LINE
  8
0
 10
0.438141
 20
-0.240875
 11
0.404495
 21
-0.293884
  0
LINE
  8
0
 10
0.404495
 20
-0.293884
 11
0.364471
 21
-0.34227
  0
LINE
  8
0
 10
0.364471
 20
-0.34227
 11
0.31871
 21
-0.385254
  0
LINE
  8
0
 10
0.31871
 20
-0.385254
 11
0.267899
 21
-0.42215
  0
LINE
  8
0
 10
0.267899
 20
-0.42215
 11
0.212875
 21
-0.452408
  0
LINE
  8
0
 10
0.212875
 20
-0.452408
 11
0.154495
 21
-0.475525
  0
LINE
  8
0
 10
0.154495
 20
-0.475525
 11
0.093689
 21
-0.491135
  0
LINE
  8
0
 10
0.093689
 20
-0.491135
 11
0.0313873
 21
-0.499008
  0
LINE
  8
0
 10
0.0313873
 20
-0.499008
 11
-0.0313873
 21
-0.499008
  0
LINE
  8
0
 10
17.3686
 20
-0.499008
 11
17.3063
 21
-0.491135
  0
LINE
  8
0
 10
17.3063
 20
-0.491135
 11
17.2455
 21
-0.475525
  0
LINE
  8
0
 10
17.2455
 20
-0.475525
 11
17.1871
 21
-0.452408
  0
LINE
  8
0
 10
17.1871
 20
-0.452408
 11
17.1321
 21
-0.42215
  0
LINE
  8
0
 10
17.1321
 20
-0.42215
 11
17.0813
 21
-0.385254
  0
LINE
  8
0
 10
17.0813
 20
-0.385254
 11
17.0355
 21
-0.34227
  0
LINE
  8
0
 10
17.0355
 20
-0.34227
 11
16.9955
 21
-0.293884
  0
LINE
  8
0
 10
16.9955
 20
-0.293884
 11
16.9618
 21
-0.240875
  0
LINE
  8
0
 10
16.9618
 20
-0.240875
 11
16.9351
 21
-0.184052
  0
LINE
  8
0
 10
16.9351
 20
-0.184052
 11
16.9157
 21
-0.124344
  0
LINE
  8
0
 10
16.9157
 20
-0.124344
 11
16.9039
 21
-0.0626526
  0
LINE
  8
0
 10
16.9039
 20
-0.0626526
 11
16.9
 21
0
  0
LINE
  8
0
 10
16.9
 20
0
 11
16.9039
 21
0.0626526
  0
LINE
  8
0
 10
16.9039
 20
0.0626526
 11
16.9157
 21
0.124344
  0
LINE
  8
0
 10
16.9157
 20
0.124344
 11
16.9351
 21
0.184052
  0
LINE
  8
0
 10
16.9351
 20
0.184052
 11
16.9618
 21
0.240875
  0
LINE
  8
0
 10
16.9618
 20
0.240875
 11
16.9955
 21
0.293884
  0
LINE
  8
0
 10
16.9955
 20
0.293884
 11
17.0355
 21
0.34227
  0
LINE
  8
0
 10
17.0355
 20
0.34227
 11
17.0813
 21
0.385254
  0
LINE
  8
0
 10
17.0813
 20
0.385254
 11
17.1321
 21
0.42215
  0
LINE
  8
0
 10
17.1321
 20
0.42215
 11
17.1871
 21
0.452408
  0
LINE
  8
0
 10
17.1871
 20
0.452408
 11
17.2455
 21
0.475525
  0
LINE
  8
0
 10
17.2455
 20
0.475525
 11
17.3063
 21
0.491135
  0
LINE
  8
0
 10
17.3063
 20
0.491135
 11
17.3686
 21
0.499008
  0
LINE
  8
0
 10
17.3686
 20
0.499008
 11
17.4314
 21
0.499008
  0
LINE
  8
0
 10
17.4314
 20
0.499008
 11
17.4937
 21
0.491135
  0
LINE
  8
0
 10
17.4937
 20
0.491135
 11
17.5545
 21
0.475525
  0
LINE
  8
0
 10
17.5545
 20
0.475525
 11
17.6129
 21
0.452408
  0
LINE
  8
0
 10
17.6129
 20
0.452408
 11
17.6679
 21
0.42215
  0
LINE
  8
0
 10
17.6679
 20
0.42215
 11
17.7187
 21
0.385254
  0
LINE
  8
0
 10
17.7187
 20
0.385254
 11
17.7645
 21
0.34227
  0
LINE
  8
0
 10
17.7645
 20
0.34227
 11
17.8045
 21
0.293884
  0
LINE
  8
0
 10
17.8045
 20
0.293884
 11
17.8382
 21
0.240875
  0
LINE
  8
0
 10
17.8382
 20
0.240875
 11
17.8649
 21
0.184052
  0
LINE
  8
0
 10
17.8649
 20
0.184052
 11
17.8843
 21
0.124344
  0
LINE
  8
0
 10
17.8843
 20
0.124344
 11
17.8961
 21
0.0626526
  0
LINE
  8
0
 10
17.8961
 20
0.0626526
 11
17.9
 21
0
  0
LINE
  8
0
 10
17.9
 20
0
 11
17.8961
 21
-0.0626526
  0
LINE
  8
0
 10
17.8961
 20
-0.0626526
 11
17.8843
 21
-0.124344
  0
LINE
  8
0
 10
17.8843
 20
-0.124344
 11
17.8649
 21
-0.184052
  0
LINE
  8
0
 10
17.8649
 20
-0.184052
 11
17.8382
 21
-0.240875
  0
LINE
  8
0
 10
17.8382
 20
-0.240875
 11
17.8045
 21
-0.293884
  0
LINE
  8
0
 10
17.8045
 20
-0.293884
 11
17.7645
 21
-0.34227
  0
LINE
  8
0
 10
17.7645
 20
-0.34227
 11
17.7187
 21
-0.385254
  0
LINE
  8
0
 10
17.7187
 20
-0.385254
 11
17.6679
 21
-0.42215
  0
LINE
  8
0
 10
17.6679
 20
-0.42215
 11
17.6129
 21
-0.452408
  0
LINE
  8
0
 10
17.6129
 20
-0.452408
 11
17.5545
 21
-0.475525
  0
LINE
  8
0
 10
17.5545
 20
-0.475525
 11
17.4937
 21
-0.491135
  0
LINE
  8
0
 10
17.4937
 20
-0.491135
 11
17.4314
 21
-0.499008
  0
LINE
  8
0
 10
17.4314
 20
-0.499008
 11
17.3686
 21
-0.499008
  0
LINE
  8
0
 10
-17.4314
 20
-0.499008
 11
-17.4937
 21
-0.491135
  0
LINE
  8
0
 10
-17.4937
 20
-0.491135
 11
-17.5545
 21
-0.475525
  0
LINE
  8
0
 10
-17.5545
 20
-0.475525
 11
-17.6129
 21
-0.452408
  0
LINE
  8
0
 10
-17.6129
 20
-0.452408
 11
-17.6679
 21
-0.42215
  0
LINE
  8
0
 10
-17.6679
 20
-0.42215
 11
-17.7187
 21
-0.385254
  0
LINE
  8
0
 10
-17.7187
 20
-0.385254
 11
-17.7645
 21
-0.34227
  0
LINE
  8
0
 10
-17.7645
 20
-0.34227
 11
-17.8045
 21
-0.293884
  0
LINE
  8
0
 10
-17.8045
 20
-0.293884
 11
-17.8382
 21
-0.240875
  0
LINE
  8
0
 10
-17.8382
 20
-0.240875
 11
-17.8649
 21
-0.184052
  0
LINE
  8
0
 10
-17.8649
 20
-0.184052
 11
-17.8843
 21
-0.124344
  0
LINE
  8
0
 10
-17.8843
 20
-0.124344
 11
-17.8961
 21
-0.0626526
  0
LINE
  8
0
 10
-17.8961
 20
-0.0626526
 11
-17.9
 21
0
  0
LINE
  8
0
 10
-17.9
 20
0
 11
-17.8961
 21
0.0626526
  0
LINE
  8
0
 10
-17.8961
 20
0.0626526
 11
-17.8843
 21
0.124344
  0
LINE
  8
0
 10
-17.8843
 20
0.124344
 11
-17.8649
 21
0.184052
  0
LINE
  8
0
 10
-17.8649
 20
0.184052
 11
-17.8382
 21
0.240875
  0
LINE
  8
0
 10
-17.8382
 20
0.240875
 11
-17.8045
 21
0.293884
  0
LINE
  8
0
 10
-17.8045
 20
0.293884
 11
-17.7645
 21
0.34227
  0
LINE
  8
0
 10
-17.7645
 20
0.34227
 11
-17.7187
 21
0.385254
  0
LINE
  8
0
 10
-17.7187
 20
0.385254
 11
-17.6679
 21
0.42215
  0
LINE
  8
0
 10
-17.6679
 20
0.42215
 11
-17.6129
 21
0.452408
  0
LINE
  8
0
 10
-17.6129
 20
0.452408
 11
-17.5545
 21
0.475525
  0
LINE
  8
0
 10
-17.5545
 20
0.475525
 11
-17.4937
 21
0.491135
  0
LINE
  8
0
 10
-17.4937
 20
0.491135
 11
-17.4314
 21
0.499008
  0
LINE
  8
0
 10
-17.4314
 20
0.499008
 11
-17.3686
 21
0.499008
  0
LINE
  8
0
 10
-17.3686
 20
0.499008
 11
-17.3063
 21
0.491135
  0
LINE
  8
0
 10
-17.3063
 20
0.491135
 11
-17.2455
 21
0.475525
  0
LINE
  8
0
 10
-17.2455
 20
0.475525
 11
-17.1871
 21
0.452408
  0
LINE
  8
0
 10
-17.1871
 20
0.452408
 11
-17.1321
 21
0.42215
  0
LINE
  8
0
 10
-17.1321
 20
0.42215
 11
-17.0813
 21
0.385254
  0
LINE
  8
0
 10
-17.0813
 20
0.385254
 11
-17.0355
 21
0.34227
  0
LINE
  8
0
 10
-17.0355
 20
0.34227
 11
-16.9955
 21
0.293884
  0
LINE
  8
0
 10
-16.9955
 20
0.293884
 11
-16.9618
 21
0.240875
  0
LINE
  8
0
 10
-16.9618
 20
0.240875
 11
-16.9351
 21
0.184052
  0
LINE
  8
0
 10
-16.9351
 20
0.184052
 11
-16.9157
 21
0.124344
  0
LINE
  8
0
 10
-16.9157
 20
0.124344
 11
-16.9039
 21
0.0626526
  0
LINE
  8
0
 10
-16.9039
 20
0.0626526
 11
-16.9
 21
0
  0
LINE
  8
0
 10
-16.9
 20
0
 11
-16.9039
 21
-0.0626526
  0
LINE
  8
0
 10
-16.9039
 20
-0.0626526
 11
-16.9157
 21
-0.124344
  0
LINE
  8
0
 10
-16.9157
 20
-0.124344
 11
-16.9351
 21
-0.184052
  0
LINE
  8
0
 10
-16.9351
 20
-0.184052
 11
-16.9618
 21
-0.240875
  0
LINE
  8
0
 10
-16.9618
 20
-0.240875
 11
-16.9955
 21
-0.293884
  0
LINE
  8
0
 10
-16.9955
 20
-0.293884
 11
-17.0355
 21
-0.34227
  0
LINE
  8
0
 10
-17.0355
 20
-0.34227
 11
-17.0813
 21
-0.385254
  0
LINE
  8
0
 10
-17.0813
 20
-0.385254
 11
-17.1321
 21
-0.42215
  0
LINE
  8
0
 10
-17.1321
 20
-0.42215
 11
-17.1871
 21
-0.452408
  0
LINE
  8
0
 10
-17.1871
 20
-0.452408
 11
-17.2455
 21
-0.475525
  0
LINE
  8
0
 10
-17.2455
 20
-0.475525
 11
-17.3063
 21
-0.491135
  0
LINE
  8
0
 10
-17.3063
 20
-0.491135
 11
-17.3686
 21
-0.499008
  0
LINE
  8
0
 10
-17.3686
 20
-0.499008
 11
-17.4314
 21
-0.499008
  0
LINE
  8
0
 10
34.7686
 20
-0.499008
 11
34.7063
 21
-0.491135
  0
LINE
  8
0
 10
34.7063
 20
-0.491135
 11
34.6455
 21
-0.475525
  0
LINE
  8
0
 10
34.6455
 20
-0.475525
 11
34.5871
 21
-0.452408
  0
LINE
  8
0
 10
34.5871
 20
-0.452408
 11
34.5321
 21
-0.42215
  0
LINE
  8
0
 10
34.5321
 20
-0.42215
 11
34.4813
 21
-0.385254
  0
LINE
  8
0
 10
34.4813
 20
-0.385254
 11
34.4355
 21
-0.34227
  0
LINE
  8
0
 10
34.4355
 20
-0.34227
 11
34.3955
 21
-0.293884
  0
LINE
  8
0
 10
34.3955
 20
-0.293884
 11
34.3618
 21
-0.240875
  0
LINE
  8
0
 10
34.3618
 20
-0.240875
 11
34.3351
 21
-0.184052
  0
LINE
  8
0
 10
34.3351
 20
-0.184052
 11
34.3157
 21
-0.124344
  0
LINE
  8
0
 10
34.3157
 20
-0.124344
 11
34.3039
 21
-0.0626526
  0
LINE
  8
0
 10
34.3039
 20
-0.0626526
 11
34.3
 21
0
  0
LINE
  8
0
 10
34.3
 20
0
 11
34.3039
 21
0.0626526
  0
LINE
  8
0
 10
34.3039
 20
0.0626526
 11
34.3157
 21
0.124344
  0
LINE
  8
0
 10
34.3157
 20
0.124344
 11
34.3351
 21
0.184052
  0
LINE
  8
0
 10
34.3351
 20
0.184052
 11
34.3618
 21
0.240875
  0
LINE
  8
0
 10
34.3618
 20
0.240875
 11
34.3955
 21
0.293884
  0
LINE
  8
0
 10
34.3955
 20
0.293884
 11
34.4355
 21
0.34227
  0
LINE
  8
0
 10
34.4355
 20
0.34227
 11
34.4813
 21
0.385254
  0
LINE
  8
0
 10
34.4813
 20
0.385254
 11
34.5321
 21
0.42215
  0
LINE
  8
0
 10
34.5321
 20
0.42215
 11
34.5871
 21
0.452408
  0
LINE
  8
0
 10
34.5871
 20
0.452408
 11
34.6455
 21
0.475525
  0
LINE
  8
0
 10
34.6455
 20
0.475525
 11
34.7063
 21
0.491135
  0
LINE
  8
0
 10
34.7063
 20
0.491135
 11
34.7686
 21
0.499008
  0
LINE
  8
0
 10
34.7686
 20
0.499008
 11
34.8314
 21
0.499008
  0
LINE
  8
0
 10
34.8314
 20
0.499008
 11
34.8937
 21
0.491135
  0
LINE
  8
0
 10
34.8937
 20
0.491135
 11
34.9545
 21
0.475525
  0
LINE
  8
0
 10
34.9545
 20
0.475525
 11
35.0129
 21
0.452408
  0
LINE
  8
0
 10
35.0129
 20
0.452408
 11
35.0679
 21
0.42215
  0
LINE
  8
0
 10
35.0679
 20
0.42215
 11
35.1187
 21
0.385254
  0
LINE
  8
0
 10
35.1187
 20
0.385254
 11
35.1645
 21
0.34227
  0
LINE
  8
0
 10
35.1645
 20
0.34227
 11
35.2045
 21
0.293884
  0
LINE
  8
0
 10
35.2045
 20
0.293884
 11
35.2381
 21
0.240875
  0
LINE
  8
0
 10
35.2381
 20
0.240875
 11
35.2649
 21
0.184052
  0
LINE
  8
0
 10
35.2649
 20
0.184052
 11
35.2843
 21
0.124344
  0
LINE
  8
0
 10
35.2843
 20
0.124344
 11
35.2961
 21
0.0626526
  0
LINE
  8
0
 10
35.2961
 20
0.0626526
 11
35.3
 21
0
  0
LINE
  8
0
 10
35.3
 20
0
 11
35.2961
 21
-0.0626526
  0
LINE
  8
0
 10
35.2961
 20
-0.0626526
 11
35.2843
 21
-0.124344
  0
LINE
  8
0
 10
35.2843
 20
-0.124344
 11
35.2649
 21
-0.184052
  0
LINE
  8
0
 10
35.2649
 20
-0.184052
 11
35.2381
 21
-0.240875
  0
LINE
  8
0
 10
35.2381
 20
-0.240875
 11
35.2045
 21
-0.293884
  0
LINE
  8
0
 10
35.2045
 20
-0.293884
 11
35.1645
 21
-0.34227
  0
LINE
  8
0
 10
35.1645
 20
-0.34227
 11
35.1187
 21
-0.385254
  0
LINE
  8
0
 10
35.1187
 20
-0.385254
 11
35.0679
 21
-0.42215
  0
LINE
  8
0
 10
35.0679
 20
-0.42215
 11
35.0129
 21
-0.452408
  0
LINE
  8
0
 10
35.0129
 20
-0.452408
 11
34.9545
 21
-0.475525
  0
LINE
  8
0
 10
34.9545
 20
-0.475525
 11
34.8937
 21
-0.491135
  0
LINE
  8
0
 10
34.8937
 20
-0.491135
 11
34.8314
 21
-0.499008
  0
LINE
  8
0
 10
34.8314
 20
-0.499008
 11
34.7686
 21
-0.499008
  0
LINE
  8
0
 10
-34.8314
 20
-0.499008
 11
-34.8937
 21
-0.491135
  0
LINE
  8
0
 10
-34.8937
 20
-0.491135
 11
-34.9545
 21
-0.475525
  0
LINE
  8
0
 10
-34.9545
 20
-0.475525
 11
-35.0129
 21
-0.452408
  0
LINE
  8
0
 10
-35.0129
 20
-0.452408
 11
-35.0679
 21
-0.42215
  0
LINE
  8
0
 10
-35.0679
 20
-0.42215
 11
-35.1187
 21
-0.385254
  0
LINE
  8
0
 10
-35.1187
 20
-0.385254
 11
-35.1645
 21
-0.34227
  0
LINE
  8
0
 10
-35.1645
 20
-0.34227
 11
-35.2045
 21
-0.293884
  0
LINE
  8
0
 10
-35.2045
 20
-0.293884
 11
-35.2381
 21
-0.240875
  0
LINE
  8
0
 10
-35.2381
 20
-0.240875
 11
-35.2649
 21
-0.184052
  0
LINE
  8
0
 10
-35.2649
 20
-0.184052
 11
-35.2843
 21
-0.124344
  0
LINE
  8
0
 10
-35.2843
 20
-0.124344
 11
-35.2961
 21
-0.0626526
  0
LINE
  8
0
 10
-35.2961
 20
-0.0626526
 11
-35.3
 21
0
  0
LINE
  8
0
 10
-35.3
 20
0
 11
-35.2961
 21
0.0626526
  0
LINE
  8
0
 10
-35.2961
 20
0.0626526
 11
-35.2843
 21
0.124344
  0
LINE
  8
0
 10
-35.2843
 20
0.124344
 11
-35.2649
 21
0.184052
  0
LINE
  8
0
 10
-35.2649
 20
0.184052
 11
-35.2381
 21
0.240875
  0
LINE
  8
0
 10
-35.2381
 20
0.240875
 11
-35.2045
 21
0.293884
  0
LINE
  8
0
 10
-35.2045
 20
0.293884
 11
-35.1645
 21
0.34227
  0
LINE
  8
0
 10
-35.1645
 20
0.34227
 11
-35.1187
 21
0.385254
  0
LINE
  8
0
 10
-35.1187
 20
0.385254
 11
-35.0679
 21
0.42215
  0
LINE
  8
0
 10
-35.0679
 20
0.42215
 11
-35.0129
 21
0.452408
  0
LINE
  8
0
 10
-35.0129
 20
0.452408
 11
-34.9545
 21
0.475525
  0
LINE
  8
0
 10
-34.9545
 20
0.475525
 11
-34.8937
 21
0.491135
  0
LINE
  8
0
 10
-34.8937
 20
0.491135
 11
-34.8314
 21
0.499008
  0
LINE
  8
0
 10
-34.8314
 20
0.499008
 11
-34.7686
 21
0.499008
  0
LINE
  8
0
 10
-34.7686
 20
0.499008
 11
-34.7063
 21
0.491135
  0
LINE
  8
0
 10
-34.7063
 20
0.491135
 11
-34.6455
 21
0.475525
  0
LINE
  8
0
 10
-34.6455
 20
0.475525
 11
-34.5871
 21
0.452408
  0
LINE
  8
0
 10
-34.5871
 20
0.452408
 11
-34.5321
 21
0.42215
  0
LINE
  8
0
 10
-34.5321
 20
0.42215
 11
-34.4813
 21
0.385254
  0
LINE
  8
0
 10
-34.4813
 20
0.385254
 11
-34.4355
 21
0.34227
  0
LINE
  8
0
 10
-34.4355
 20
0.34227
 11
-34.3955
 21
0.293884
  0
LINE
  8
0
 10
-34.3955
 20
0.293884
 11
-34.3618
 21
0.240875
  0
LINE
  8
0
 10
-34.3618
 20
0.240875
 11
-34.3351
 21
0.184052
  0
LINE
  8
0
 10
-34.3351
 20
0.184052
 11
-34.3157
 21
0.124344
  0
LINE
  8
0
 10
-34.3157
 20
0.124344
 11
-34.3039
 21
0.0626526
  0
LINE
  8
0
 10
-34.3039
 20
0.0626526
 11
-34.3
 21
0
  0
LINE
  8
0
 10
-34.3
 20
0
 11
-34.3039
 21
-0.0626526
  0
LINE
  8
0
 10
-34.3039
 20
-0.0626526
 11
-34.3157
 21
-0.124344
  0
LINE
  8
0
 10
-34.3157
 20
-0.124344
 11
-34.3351
 21
-0.184052
  0
LINE
  8
0
 10
-34.3351
 20
-0.184052
 11
-34.3618
 21
-0.240875
  0
LINE
  8
0
 10
-34.3618
 20
-0.240875
 11
-34.3955
 21
-0.293884
  0
LINE
  8
0
 10
-34.3955
 20
-0.293884
 11
-34.4355
 21
-0.34227
  0
LINE
  8
0
 10
-34.4355
 20
-0.34227
 11
-34.4813
 21
-0.385254
  0
LINE
  8
0
 10
-34.4813
 20
-0.385254
 11
-34.5321
 21
-0.42215
  0
LINE
  8
0
 10
-34.5321
 20
-0.42215
 11
-34.5871
 21
-0.452408
  0
LINE
  8
0
 10
-34.5871
 20
-0.452408
 11
-34.6455
 21
-0.475525
  0
LINE
  8
0
 10
-34.6455
 20
-0.475525
 11
-34.7063
 21
-0.491135
  0
LINE
  8
0
 10
-34.7063
 20
-0.491135
 11
-34.7686
 21
-0.499008
  0
LINE
  8
0
 10
-34.7686
 20
-0.499008
 11
-34.8314
 21
-0.499008
  0
ENDSEC
  0
SECTION
  2
OBJECTS
  0
DICTIONARY
  0
ENDSEC
  0
EOF
