  0
SECTION
  2
BLOCKS
  0
ENDSEC
  0
SECTION
  2
ENTITIES
  0
LINE
  8
0
 10
49.7553
 20
9.04507
 11
49.0451
 21
10.4389
  0
LINE
  8
0
 10
49.0451
 20
10.4389
 11
47.9389
 21
11.5451
  0
LINE
  8
0
 10
47.9389
 20
11.5451
 11
46.5451
 21
12.2553
  0
LINE
  8
0
 10
46.5451
 20
12.2553
 11
45
 21
12.5
  0
LINE
  8
0
 10
45
 20
12.5
 11
-45
 21
12.5
  0
LINE
  8
0
 10
-45
 20
12.5
 11
-46.5451
 21
12.2553
  0
LINE
  8
0
 10
-46.5451
 20
12.2553
 11
-47.9389
 21
11.5451
  0
LINE
  8
0
 10
-47.9389
 20
11.5451
 11
-49.0451
 21
10.4389
  0
LINE
  8
0
 10
-49.0451
 20
10.4389
 11
-49.7553
 21
9.04507
  0
LINE
  8
0
 10
-49.7553
 20
9.04507
 11
-50
 21
7.5
  0
LINE
  8
0
 10
-50
 20
7.5
 11
-50
 21
-7.5
  0
LINE
  8
0
 10
-50
 20
-7.5
 11
-49.7553
 21
-9.04507
  0
LINE
  8
0
 10
-49.7553
 20
-9.04507
 11
-49.0451
 21
-10.4389
  0
LINE
  8
0
 10
-49.0451
 20
-10.4389
 11
-47.9389
 21
-11.5451
  0
LINE
  8
0
 10
-47.9389
 20
-11.5451
 11
-46.5451
 21
-12.2553
  0
LINE
  8
0
 10
-46.5451
 20
-12.2553
 11
-45
 21
-12.5
  0
LINE
  8
0
 10
-45
 20
-12.5
 11
45
 21
-12.5
  0
LINE
  8
0
 10
45
 20
-12.5
 11
46.5451
 21
-12.2553
  0
LINE
  8
0
 10
46.5451
 20
-12.2553
 11
47.9389
 21
-11.5451
  0
LINE
  8
0
 10
47.9389
 20
-11.5451
 11
49.0451
 21
-10.4389
  0
LINE
  8
0
 10
49.0451
 20
-10.4389
 11
49.7553
 21
-9.04507
  0
LINE
  8
0
 10
49.7553
 20
-9.04507
 11
50
 21
-7.5
  0
LINE
  8
0
 10
50
 20
-7.5
 11
50
 21
7.5
  0
LINE
  8
0
 10
50
 20
7.5
 11
49.7553
 21
9.04507
  0
LINE
  8
0
 10
-35.6961
 20
-2.75806
 11
-36.5046
 21
-2.34615
  0
LINE
  8
0
 10
-36.5046
 20
-2.34615
 11
-37.1461
 21
-1.70457
  0
LINE
  8
0
 10
-37.1461
 20
-1.70457
 11
-37.5581
 21
-0.896149
  0
LINE
  8
0
 10
-37.5581
 20
-0.896149
 11
-37.7
 21
0
  0
LINE
  8
0
 10
-37.7
 20
0
 11
-37.5581
 21
0.896149
  0
LINE
  8
0
 10
-37.5581
 20
0.896149
 11
-37.1461
 21
1.70457
  0
LINE
  8
0
 10
-37.1461
 20
1.70457
 11
-36.8507
 21
2
  0
LINE
  8
0
 10
-36.8507
 20
2
 11
-32.7493
 21
2
  0
LINE
  8
0
 10
-32.7493
 20
2
 11
-32.4538
 21
1.70457
  0
LINE
  8
0
 10
-32.4538
 20
1.70457
 11
-32.0419
 21
0.896149
  0
LINE
  8
0
 10
-32.0419
 20
0.896149
 11
-31.9
 21
0
  0
LINE
  8
0
 10
-31.9
 20
0
 11
-32.0419
 21
-0.896149
  0
LINE
  8
0
 10
-32.0419
 20
-0.896149
 11
-32.4538
 21
-1.70457
  0
LINE
  8
0
 10
-32.4538
 20
-1.70457
 11
-33.0954
 21
-2.34615
  0
LINE
  8
0
 10
-33.0954
 20
-2.34615
 11
-33.9038
 21
-2.75806
  0
LINE
  8
0
 10
-33.9038
 20
-2.75806
 11
-34.8
 21
-2.89999
  0
LINE
  8
0
 10
-34.8
 20
-2.89999
 11
-35.6961
 21
-2.75806
  0
LINE
  8
0
 10
-18.2961
 20
-2.75806
 11
-19.1046
 21
-2.34615
  0
LINE
  8
0
 10
-19.1046
 20
-2.34615
 11
-19.7461
 21
-1.70457
  0
LINE
  8
0
 10
-19.7461
 20
-1.70457
 11
-20.1581
 21
-0.896149
  0
LINE
  8
0
 10
-20.1581
 20
-0.896149
 11
-20.3
 21
0
  0
LINE
  8
0
 10
-20.3
 20
0
 11
-20.1581
 21
0.896149
  0
LINE
  8
0
 10
-20.1581
 20
0.896149
 11
-19.7461
 21
1.70457
  0
LINE
  8
0
 10
-19.7461
 20
1.70457
 11
-19.4507
 21
2
  0
LINE
  8
0
 10
-19.4507
 20
2
 11
-15.3493
 21
2
  0
LINE
  8
0
 10
-15.3493
 20
2
 11
-15.0538
 21
1.70457
  0
LINE
  8
0
 10
-15.0538
 20
1.70457
 11
-14.6419
 21
0.896149
  0
LINE
  8
0
 10
-14.6419
 20
0.896149
 11
-14.5
 21
0
  0
LINE
  8
0
 10
-14.5
 20
0
 11
-14.6419
 21
-0.896149
  0
LINE
  8
0
 10
-14.6419
 20
-0.896149
 11
-15.0538
 21
-1.70457
  0
LINE
  8
0
 10
-15.0538
 20
-1.70457
 11
-15.6954
 21
-2.34615
  0
LINE
  8
0
 10
-15.6954
 20
-2.34615
 11
-16.5038
 21
-2.75806
  0
LINE
  8
0
 10
-16.5038
 20
-2.75806
 11
-17.4
 21
-2.89999
  0
LINE
  8
0
 10
-17.4
 20
-2.89999
 11
-18.2961
 21
-2.75806
  0
LINE
  8
0
 10
-0.896149
 20
-2.75806
 11
-1.70457
 21
-2.34615
  0
LINE
  8
0
 10
-1.70457
 20
-2.34615
 11
-2.34615
 21
-1.70457
  0
LINE
  8
0
 10
-2.34615
 20
-1.70457
 11
-2.75806
 21
-0.896149
  0
LINE
  8
0
 10
-2.75806
 20
-0.896149
 11
-2.89999
 21
0
  0
LINE
  8
0
 10
-2.89999
 20
0
 11
-2.75806
 21
0.896149
  0
LINE
  8
0
 10
-2.75806
 20
0.896149
 11
-2.34615
 21
1.70457
  0
LINE
  8
0
 10
-2.34615
 20
1.70457
 11
-2.05072
 21
2
  0
LINE
  8
0
 10
-2.05072
 20
2
 11
2.05072
 21
2
  0
LINE
  8
0
 10
2.05072
 20
2
 11
2.34615
 21
1.70457
  0
LINE
  8
0
 10
2.34615
 20
1.70457
 11
2.75806
 21
0.896149
  0
LINE
  8
0
 10
2.75806
 20
0.896149
 11
2.89999
 21
0
  0
LINE
  8
0
 10
2.89999
 20
0
 11
2.75806
 21
-0.896149
  0
LINE
  8
0
 10
2.75806
 20
-0.896149
 11
2.34615
 21
-1.70457
  0
LINE
  8
0
 10
2.34615
 20
-1.70457
 11
1.70457
 21
-2.34615
  0
LINE
  8
0
 10
1.70457
 20
-2.34615
 11
0.896149
 21
-2.75806
  0
LINE
  8
0
 10
0.896149
 20
-2.75806
 11
0
 21
-2.89999
  0
LINE
  8
0
 10
0
 20
-2.89999
 11
-0.896149
 21
-2.75806
  0
LINE
  8
0
 10
16.5038
 20
-2.75806
 11
15.6954
 21
-2.34615
  0
LINE
  8
0
 10
15.6954
 20
-2.34615
 11
15.0538
 21
-1.70457
  0
LINE
  8
0
 10
15.0538
 20
-1.70457
 11
14.6419
 21
-0.896149
  0
LINE
  8
0
 10
14.6419
 20
-0.896149
 11
14.5
 21
0
  0
LINE
  8
0
 10
14.5
 20
0
 11
14.6419
 21
0.896149
  0
LINE
  8
0
 10
14.6419
 20
0.896149
 11
15.0538
 21
1.70457
  0
LINE
  8
0
 10
15.0538
 20
1.70457
 11
15.3493
 21
2
  0
LINE
  8
0
 10
15.3493
 20
2
 11
19.4507
 21
2
  0
LINE
  8
0
 10
19.4507
 20
2
 11
19.7461
 21
1.70457
  0
LINE
  8
0
 10
19.7461
 20
1.70457
 11
20.1581
 21
0.896149
  0
LINE
  8
0
 10
20.1581
 20
0.896149
 11
20.3
 21
0
  0
LINE
  8
0
 10
20.3
 20
0
 11
20.1581
 21
-0.896149
  0
LINE
  8
0
 10
20.1581
 20
-0.896149
 11
19.7461
 21
-1.70457
  0
LINE
  8
0
 10
19.7461
 20
-1.70457
 11
19.1046
 21
-2.34615
  0
LINE
  8
0
 10
19.1046
 20
-2.34615
 11
18.2961
 21
-2.75806
  0
LINE
  8
0
 10
18.2961
 20
-2.75806
 11
17.4
 21
-2.89999
  0
LINE
  8
0
 10
17.4
 20
-2.89999
 11
16.5038
 21
-2.75806
  0
LINE
  8
0
 10
33.9038
 20
-2.75806
 11
33.0954
 21
-2.34615
  0
LINE
  8
0
 10
33.0954
 20
-2.34615
 11
32.4538
 21
-1.70457
  0
LINE
  8
0
 10
32.4538
 20
-1.70457
 11
32.0419
 21
-0.896149
  0
LINE
  8
0
 10
32.0419
 20
-0.896149
 11
31.9
 21
0
  0
LINE
  8
0
 10
31.9
 20
0
 11
32.0419
 21
0.896149
  0
LINE
  8
0
 10
32.0419
 20
0.896149
 11
32.4538
 21
1.70457
  0
LINE
  8
0
 10
32.4538
 20
1.70457
 11
32.7493
 21
2
  0
LINE
  8
0
 10
32.7493
 20
2
 11
36.8507
 21
2
  0
LINE
  8
0
 10
36.8507
 20
2
 11
37.1461
 21
1.70457
  0
LINE
  8
0
 10
37.1461
 20
1.70457
 11
37.5581
 21
0.896149
  0
LINE
  8
0
 10
37.5581
 20
0.896149
 11
37.7
 21
0
  0
LINE
  8
0
 10
37.7
 20
0
 11
37.5581
 21
-0.896149
  0
LINE
  8
0
 10
37.5581
 20
-0.896149
 11
37.1461
 21
-1.70457
  0
LINE
  8
0
 10
37.1461
 20
-1.70457
 11
36.5046
 21
-2.34615
  0
LINE
  8
0
 10
36.5046
 20
-2.34615
 11
35.6961
 21
-2.75806
  0
LINE
  8
0
 10
35.6961
 20
-2.75806
 11
34.8
 21
-2.89999
  0
LINE
  8
0
 10
34.8
 20
-2.89999
 11
33.9038
 21
-2.75806
  0
ENDSEC
  0
SECTION
  2
OBJECTS
  0
DICTIONARY
  0
ENDSEC
  0
EOF
