  0
SECTION
  2
BLOCKS
  0
ENDSEC
  0
SECTION
  2
ENTITIES
  0
LINE
  8
0
 10
55
 20
60
 11
-55
 21
60
  0
LINE
  8
0
 10
-55
 20
60
 11
-55
 21
-60
  0
LINE
  8
0
 10
-55
 20
-60
 11
55
 21
-60
  0
LINE
  8
0
 10
55
 20
-60
 11
55
 21
60
  0
LINE
  8
0
 10
-39.5
 20
-5.5
 11
-39.5
 21
-5.49408
  0
LINE
  8
0
 10
-39.5
 20
-5.49408
 11
-39.6884
 21
-5.49408
  0
LINE
  8
0
 10
-39.6884
 20
-5.49408
 11
-40.0621
 21
-5.44685
  0
LINE
  8
0
 10
-40.0621
 20
-5.44685
 11
-40.427
 21
-5.35316
  0
LINE
  8
0
 10
-40.427
 20
-5.35316
 11
-40.7773
 21
-5.21448
  0
LINE
  8
0
 10
-40.7773
 20
-5.21448
 11
-41.1075
 21
-5.03297
  0
LINE
  8
0
 10
-41.1075
 20
-5.03297
 11
-41.4123
 21
-4.81154
  0
LINE
  8
0
 10
-41.4123
 20
-4.81154
 11
-41.6869
 21
-4.55363
  0
LINE
  8
0
 10
-41.6869
 20
-4.55363
 11
-41.927
 21
-4.26335
  0
LINE
  8
0
 10
-41.927
 20
-4.26335
 11
-42.1289
 21
-3.94525
  0
LINE
  8
0
 10
-42.1289
 20
-3.94525
 11
-42.2893
 21
-3.60437
  0
LINE
  8
0
 10
-42.2893
 20
-3.60437
 11
-42.4057
 21
-3.24606
  0
LINE
  8
0
 10
-42.4057
 20
-3.24606
 11
-42.4763
 21
-2.87599
  0
LINE
  8
0
 10
-42.4763
 20
-2.87599
 11
-42.5
 21
-2.5
  0
LINE
  8
0
 10
-42.5
 20
-2.5
 11
-42.5
 21
6.5
  0
LINE
  8
0
 10
-42.5
 20
6.5
 11
-42.4763
 21
6.87599
  0
LINE
  8
0
 10
-42.4763
 20
6.87599
 11
-42.4057
 21
7.24606
  0
LINE
  8
0
 10
-42.4057
 20
7.24606
 11
-42.2893
 21
7.60437
  0
LINE
  8
0
 10
-42.2893
 20
7.60437
 11
-42.1289
 21
7.94525
  0
LINE
  8
0
 10
-42.1289
 20
7.94525
 11
-41.927
 21
8.26335
  0
LINE
  8
0
 10
-41.927
 20
8.26335
 11
-41.6869
 21
8.55363
  0
LINE
  8
0
 10
-41.6869
 20
8.55363
 11
-41.4123
 21
8.81154
  0
LINE
  8
0
 10
-41.4123
 20
8.81154
 11
-41.1075
 21
9.03297
  0
LINE
  8
0
 10
-41.1075
 20
9.03297
 11
-40.7773
 21
9.21448
  0
LINE
  8
0
 10
-40.7773
 20
9.21448
 11
-40.427
 21
9.35316
  0
LINE
  8
0
 10
-40.427
 20
9.35316
 11
-40.0621
 21
9.44685
  0
LINE
  8
0
 10
-40.0621
 20
9.44685
 11
-39.6884
 21
9.49408
  0
LINE
  8
0
 10
-39.6884
 20
9.49408
 11
-39.5
 21
9.49408
  0
LINE
  8
0
 10
-39.5
 20
9.49408
 11
-39.5
 21
9.5
  0
LINE
  8
0
 10
-39.5
 20
9.5
 11
39.5
 21
9.5
  0
LINE
  8
0
 10
39.5
 20
9.5
 11
39.5
 21
9.49408
  0
LINE
  8
0
 10
39.5
 20
9.49408
 11
39.6884
 21
9.49408
  0
LINE
  8
0
 10
39.6884
 20
9.49408
 11
40.0621
 21
9.44685
  0
LINE
  8
0
 10
40.0621
 20
9.44685
 11
40.427
 21
9.35316
  0
LINE
  8
0
 10
40.427
 20
9.35316
 11
40.7773
 21
9.21448
  0
LINE
  8
0
 10
40.7773
 20
9.21448
 11
41.1075
 21
9.03297
  0
LINE
  8
0
 10
41.1075
 20
9.03297
 11
41.4123
 21
8.81154
  0
LINE
  8
0
 10
41.4123
 20
8.81154
 11
41.6869
 21
8.55363
  0
LINE
  8
0
 10
41.6869
 20
8.55363
 11
41.927
 21
8.26335
  0
LINE
  8
0
 10
41.927
 20
8.26335
 11
42.1289
 21
7.94525
  0
LINE
  8
0
 10
42.1289
 20
7.94525
 11
42.2893
 21
7.60437
  0
LINE
  8
0
 10
42.2893
 20
7.60437
 11
42.4057
 21
7.24606
  0
LINE
  8
0
 10
42.4057
 20
7.24606
 11
42.4763
 21
6.87599
  0
LINE
  8
0
 10
42.4763
 20
6.87599
 11
42.5
 21
6.5
  0
LINE
  8
0
 10
42.5
 20
6.5
 11
42.5
 21
-2.5
  0
LINE
  8
0
 10
42.5
 20
-2.5
 11
42.4763
 21
-2.87599
  0
LINE
  8
0
 10
42.4763
 20
-2.87599
 11
42.4057
 21
-3.24606
  0
LINE
  8
0
 10
42.4057
 20
-3.24606
 11
42.2893
 21
-3.60437
  0
LINE
  8
0
 10
42.2893
 20
-3.60437
 11
42.1289
 21
-3.94525
  0
LINE
  8
0
 10
42.1289
 20
-3.94525
 11
41.927
 21
-4.26335
  0
LINE
  8
0
 10
41.927
 20
-4.26335
 11
41.6869
 21
-4.55363
  0
LINE
  8
0
 10
41.6869
 20
-4.55363
 11
41.4123
 21
-4.81154
  0
LINE
  8
0
 10
41.4123
 20
-4.81154
 11
41.1075
 21
-5.03297
  0
LINE
  8
0
 10
41.1075
 20
-5.03297
 11
40.7773
 21
-5.21448
  0
LINE
  8
0
 10
40.7773
 20
-5.21448
 11
40.427
 21
-5.35316
  0
LINE
  8
0
 10
40.427
 20
-5.35316
 11
40.0621
 21
-5.44685
  0
LINE
  8
0
 10
40.0621
 20
-5.44685
 11
39.6884
 21
-5.49408
  0
LINE
  8
0
 10
39.6884
 20
-5.49408
 11
39.5
 21
-5.49408
  0
LINE
  8
0
 10
39.5
 20
-5.49408
 11
39.5
 21
-5.5
  0
LINE
  8
0
 10
39.5
 20
-5.5
 11
-39.5
 21
-5.5
  0
ENDSEC
  0
SECTION
  2
OBJECTS
  0
DICTIONARY
  0
ENDSEC
  0
EOF
