  0
SECTION
  2
BLOCKS
  0
ENDSEC
  0
SECTION
  2
ENTITIES
  0
LINE
  8
0
 10
-5.55554
 20
-91.15
 11
6.66667
 21
-91.15
  0
LINE
  8
0
 10
6.66667
 20
-91.15
 11
6.66667
 21
-95
  0
LINE
  8
0
 10
6.66667
 20
-95
 11
18.8889
 21
-95
  0
LINE
  8
0
 10
18.8889
 20
-95
 11
18.8889
 21
-91.15
  0
LINE
  8
0
 10
18.8889
 20
-91.15
 11
31.1111
 21
-91.15
  0
LINE
  8
0
 10
31.1111
 20
-91.15
 11
31.1111
 21
-95
  0
LINE
  8
0
 10
31.1111
 20
-95
 11
43.3333
 21
-95
  0
LINE
  8
0
 10
43.3333
 20
-95
 11
43.3333
 21
-91.15
  0
LINE
  8
0
 10
43.3333
 20
-91.15
 11
55.5555
 21
-91.15
  0
LINE
  8
0
 10
55.5555
 20
-91.15
 11
55.5555
 21
-95
  0
LINE
  8
0
 10
55.5555
 20
-95
 11
67.7778
 21
-95
  0
LINE
  8
0
 10
67.7778
 20
-95
 11
67.7778
 21
-91.15
  0
LINE
  8
0
 10
67.7778
 20
-91.15
 11
80
 21
-91.15
  0
LINE
  8
0
 10
80
 20
-91.15
 11
80
 21
-82.7778
  0
LINE
  8
0
 10
80
 20
-82.7778
 11
76.15
 21
-82.7778
  0
LINE
  8
0
 10
76.15
 20
-82.7778
 11
76.15
 21
-70.5555
  0
LINE
  8
0
 10
76.15
 20
-70.5555
 11
80
 21
-70.5555
  0
LINE
  8
0
 10
80
 20
-70.5555
 11
80
 21
-58.3333
  0
LINE
  8
0
 10
80
 20
-58.3333
 11
76.15
 21
-58.3333
  0
LINE
  8
0
 10
76.15
 20
-58.3333
 11
76.15
 21
-46.1111
  0
LINE
  8
0
 10
76.15
 20
-46.1111
 11
80
 21
-46.1111
  0
LINE
  8
0
 10
80
 20
-46.1111
 11
80
 21
-33.8889
  0
LINE
  8
0
 10
80
 20
-33.8889
 11
76.15
 21
-33.8889
  0
LINE
  8
0
 10
76.15
 20
-33.8889
 11
76.15
 21
-21.6667
  0
LINE
  8
0
 10
76.15
 20
-21.6667
 11
80
 21
-21.6667
  0
LINE
  8
0
 10
80
 20
-21.6667
 11
80
 21
-9.44446
  0
LINE
  8
0
 10
80
 20
-9.44446
 11
76.15
 21
-9.44446
  0
LINE
  8
0
 10
76.15
 20
-9.44446
 11
76.15
 21
2.77777
  0
LINE
  8
0
 10
76.15
 20
2.77777
 11
80
 21
2.77777
  0
LINE
  8
0
 10
80
 20
2.77777
 11
80
 21
11.15
  0
LINE
  8
0
 10
80
 20
11.15
 11
67.7778
 21
11.15
  0
LINE
  8
0
 10
67.7778
 20
11.15
 11
67.7778
 21
15
  0
LINE
  8
0
 10
67.7778
 20
15
 11
55.5555
 21
15
  0
LINE
  8
0
 10
55.5555
 20
15
 11
55.5555
 21
11.15
  0
LINE
  8
0
 10
55.5555
 20
11.15
 11
43.3333
 21
11.15
  0
LINE
  8
0
 10
43.3333
 20
11.15
 11
43.3333
 21
15
  0
LINE
  8
0
 10
43.3333
 20
15
 11
31.1111
 21
15
  0
LINE
  8
0
 10
31.1111
 20
15
 11
31.1111
 21
11.15
  0
LINE
  8
0
 10
31.1111
 20
11.15
 11
18.8889
 21
11.15
  0
LINE
  8
0
 10
18.8889
 20
11.15
 11
18.8889
 21
15
  0
LINE
  8
0
 10
18.8889
 20
15
 11
6.66667
 21
15
  0
LINE
  8
0
 10
6.66667
 20
15
 11
6.66667
 21
11.15
  0
LINE
  8
0
 10
6.66667
 20
11.15
 11
-5.55554
 21
11.15
  0
LINE
  8
0
 10
-5.55554
 20
11.15
 11
-5.55554
 21
15
  0
LINE
  8
0
 10
-5.55554
 20
15
 11
-17.7778
 21
15
  0
LINE
  8
0
 10
-17.7778
 20
15
 11
-17.7778
 21
11.15
  0
LINE
  8
0
 10
-17.7778
 20
11.15
 11
-30
 21
11.15
  0
LINE
  8
0
 10
-30
 20
11.15
 11
-30
 21
2.77777
  0
LINE
  8
0
 10
-30
 20
2.77777
 11
-26.15
 21
2.77777
  0
LINE
  8
0
 10
-26.15
 20
2.77777
 11
-26.15
 21
-9.44446
  0
LINE
  8
0
 10
-26.15
 20
-9.44446
 11
-30
 21
-9.44446
  0
LINE
  8
0
 10
-30
 20
-9.44446
 11
-30
 21
-21.6667
  0
LINE
  8
0
 10
-30
 20
-21.6667
 11
-26.15
 21
-21.6667
  0
LINE
  8
0
 10
-26.15
 20
-21.6667
 11
-26.15
 21
-33.8889
  0
LINE
  8
0
 10
-26.15
 20
-33.8889
 11
-30
 21
-33.8889
  0
LINE
  8
0
 10
-30
 20
-33.8889
 11
-30
 21
-46.1111
  0
LINE
  8
0
 10
-30
 20
-46.1111
 11
-26.15
 21
-46.1111
  0
LINE
  8
0
 10
-26.15
 20
-46.1111
 11
-26.15
 21
-58.3333
  0
LINE
  8
0
 10
-26.15
 20
-58.3333
 11
-30
 21
-58.3333
  0
LINE
  8
0
 10
-30
 20
-58.3333
 11
-30
 21
-70.5555
  0
LINE
  8
0
 10
-30
 20
-70.5555
 11
-26.15
 21
-70.5555
  0
LINE
  8
0
 10
-26.15
 20
-70.5555
 11
-26.15
 21
-82.7778
  0
LINE
  8
0
 10
-26.15
 20
-82.7778
 11
-30
 21
-82.7778
  0
LINE
  8
0
 10
-30
 20
-82.7778
 11
-30
 21
-91.15
  0
LINE
  8
0
 10
-30
 20
-91.15
 11
-17.7778
 21
-91.15
  0
LINE
  8
0
 10
-17.7778
 20
-91.15
 11
-17.7778
 21
-95
  0
LINE
  8
0
 10
-17.7778
 20
-95
 11
-5.55554
 21
-95
  0
LINE
  8
0
 10
-5.55554
 20
-95
 11
-5.55554
 21
-91.15
  0
LINE
  8
0
 10
26.7653
 20
-75.9219
 11
26.4367
 21
-74.9106
  0
LINE
  8
0
 10
26.4367
 20
-74.9106
 11
26.25
 21
-74.9106
  0
LINE
  8
0
 10
26.25
 20
-74.9106
 11
26.25
 21
-5.0894
  0
LINE
  8
0
 10
26.25
 20
-5.0894
 11
26.4367
 21
-5.0894
  0
LINE
  8
0
 10
26.4367
 20
-5.0894
 11
26.3112
 21
-4.70314
  0
LINE
  8
0
 10
26.3112
 20
-4.70314
 11
27.5
 21
-3.8394
  0
LINE
  8
0
 10
27.5
 20
-3.8394
 11
28.6888
 21
-4.70314
  0
LINE
  8
0
 10
28.6888
 20
-4.70314
 11
28.5633
 21
-5.0894
  0
LINE
  8
0
 10
28.5633
 20
-5.0894
 11
28.75
 21
-5.0894
  0
LINE
  8
0
 10
28.75
 20
-5.0894
 11
28.75
 21
-74.9106
  0
LINE
  8
0
 10
28.75
 20
-74.9106
 11
28.5633
 21
-74.9106
  0
LINE
  8
0
 10
28.5633
 20
-74.9106
 11
28.2347
 21
-75.9219
  0
LINE
  8
0
 10
28.2347
 20
-75.9219
 11
26.7653
 21
-75.9219
  0
LINE
  8
0
 10
21.7653
 20
-75.9219
 11
21.4367
 21
-74.9106
  0
LINE
  8
0
 10
21.4367
 20
-74.9106
 11
21.25
 21
-74.9106
  0
LINE
  8
0
 10
21.25
 20
-74.9106
 11
21.25
 21
-5.0894
  0
LINE
  8
0
 10
21.25
 20
-5.0894
 11
21.4367
 21
-5.0894
  0
LINE
  8
0
 10
21.4367
 20
-5.0894
 11
21.3112
 21
-4.70314
  0
LINE
  8
0
 10
21.3112
 20
-4.70314
 11
22.5
 21
-3.8394
  0
LINE
  8
0
 10
22.5
 20
-3.8394
 11
23.6888
 21
-4.70314
  0
LINE
  8
0
 10
23.6888
 20
-4.70314
 11
23.5633
 21
-5.0894
  0
LINE
  8
0
 10
23.5633
 20
-5.0894
 11
23.75
 21
-5.0894
  0
LINE
  8
0
 10
23.75
 20
-5.0894
 11
23.75
 21
-74.9106
  0
LINE
  8
0
 10
23.75
 20
-74.9106
 11
23.5633
 21
-74.9106
  0
LINE
  8
0
 10
23.5633
 20
-74.9106
 11
23.2347
 21
-75.9219
  0
LINE
  8
0
 10
23.2347
 20
-75.9219
 11
21.7653
 21
-75.9219
  0
LINE
  8
0
 10
16.7653
 20
-75.1982
 11
16.4367
 21
-74.187
  0
LINE
  8
0
 10
16.4367
 20
-74.187
 11
16.25
 21
-74.187
  0
LINE
  8
0
 10
16.25
 20
-74.187
 11
16.25
 21
-5.81302
  0
LINE
  8
0
 10
16.25
 20
-5.81302
 11
16.4367
 21
-5.81302
  0
LINE
  8
0
 10
16.4367
 20
-5.81302
 11
16.3112
 21
-5.42676
  0
LINE
  8
0
 10
16.3112
 20
-5.42676
 11
17.5
 21
-4.56302
  0
LINE
  8
0
 10
17.5
 20
-4.56302
 11
18.6888
 21
-5.42676
  0
LINE
  8
0
 10
18.6888
 20
-5.42676
 11
18.5633
 21
-5.81302
  0
LINE
  8
0
 10
18.5633
 20
-5.81302
 11
18.75
 21
-5.81302
  0
LINE
  8
0
 10
18.75
 20
-5.81302
 11
18.75
 21
-74.187
  0
LINE
  8
0
 10
18.75
 20
-74.187
 11
18.5633
 21
-74.187
  0
LINE
  8
0
 10
18.5633
 20
-74.187
 11
18.2347
 21
-75.1982
  0
LINE
  8
0
 10
18.2347
 20
-75.1982
 11
16.7653
 21
-75.1982
  0
LINE
  8
0
 10
31.7653
 20
-75.1982
 11
31.4367
 21
-74.187
  0
LINE
  8
0
 10
31.4367
 20
-74.187
 11
31.25
 21
-74.187
  0
LINE
  8
0
 10
31.25
 20
-74.187
 11
31.25
 21
-5.81302
  0
LINE
  8
0
 10
31.25
 20
-5.81302
 11
31.4367
 21
-5.81302
  0
LINE
  8
0
 10
31.4367
 20
-5.81302
 11
31.3112
 21
-5.42676
  0
LINE
  8
0
 10
31.3112
 20
-5.42676
 11
32.5
 21
-4.56302
  0
LINE
  8
0
 10
32.5
 20
-4.56302
 11
33.6888
 21
-5.42676
  0
LINE
  8
0
 10
33.6888
 20
-5.42676
 11
33.5633
 21
-5.81302
  0
LINE
  8
0
 10
33.5633
 20
-5.81302
 11
33.75
 21
-5.81302
  0
LINE
  8
0
 10
33.75
 20
-5.81302
 11
33.75
 21
-74.187
  0
LINE
  8
0
 10
33.75
 20
-74.187
 11
33.5633
 21
-74.187
  0
LINE
  8
0
 10
33.5633
 20
-74.187
 11
33.2347
 21
-75.1982
  0
LINE
  8
0
 10
33.2347
 20
-75.1982
 11
31.7653
 21
-75.1982
  0
LINE
  8
0
 10
11.7653
 20
-73.703
 11
11.4367
 21
-72.6917
  0
LINE
  8
0
 10
11.4367
 20
-72.6917
 11
11.25
 21
-72.6917
  0
LINE
  8
0
 10
11.25
 20
-72.6917
 11
11.25
 21
-7.30826
  0
LINE
  8
0
 10
11.25
 20
-7.30826
 11
11.4367
 21
-7.30826
  0
LINE
  8
0
 10
11.4367
 20
-7.30826
 11
11.3112
 21
-6.922
  0
LINE
  8
0
 10
11.3112
 20
-6.922
 11
12.5
 21
-6.05826
  0
LINE
  8
0
 10
12.5
 20
-6.05826
 11
13.6888
 21
-6.922
  0
LINE
  8
0
 10
13.6888
 20
-6.922
 11
13.5633
 21
-7.30826
  0
LINE
  8
0
 10
13.5633
 20
-7.30826
 11
13.75
 21
-7.30826
  0
LINE
  8
0
 10
13.75
 20
-7.30826
 11
13.75
 21
-72.6917
  0
LINE
  8
0
 10
13.75
 20
-72.6917
 11
13.5633
 21
-72.6917
  0
LINE
  8
0
 10
13.5633
 20
-72.6917
 11
13.2347
 21
-73.703
  0
LINE
  8
0
 10
13.2347
 20
-73.703
 11
11.7653
 21
-73.703
  0
LINE
  8
0
 10
36.7653
 20
-73.703
 11
36.4367
 21
-72.6917
  0
LINE
  8
0
 10
36.4367
 20
-72.6917
 11
36.25
 21
-72.6917
  0
LINE
  8
0
 10
36.25
 20
-72.6917
 11
36.25
 21
-7.30826
  0
LINE
  8
0
 10
36.25
 20
-7.30826
 11
36.4367
 21
-7.30826
  0
LINE
  8
0
 10
36.4367
 20
-7.30826
 11
36.3112
 21
-6.922
  0
LINE
  8
0
 10
36.3112
 20
-6.922
 11
37.5
 21
-6.05826
  0
LINE
  8
0
 10
37.5
 20
-6.05826
 11
38.6888
 21
-6.922
  0
LINE
  8
0
 10
38.6888
 20
-6.922
 11
38.5633
 21
-7.30826
  0
LINE
  8
0
 10
38.5633
 20
-7.30826
 11
38.75
 21
-7.30826
  0
LINE
  8
0
 10
38.75
 20
-7.30826
 11
38.75
 21
-72.6917
  0
LINE
  8
0
 10
38.75
 20
-72.6917
 11
38.5633
 21
-72.6917
  0
LINE
  8
0
 10
38.5633
 20
-72.6917
 11
38.2347
 21
-73.703
  0
LINE
  8
0
 10
38.2347
 20
-73.703
 11
36.7653
 21
-73.703
  0
LINE
  8
0
 10
-6.16113
 20
-11.642
 11
-7.29733
 21
-10.2173
  0
LINE
  8
0
 10
-7.29733
 20
-10.2173
 11
-6.89183
 21
-8.44067
  0
LINE
  8
0
 10
-6.89183
 20
-8.44067
 11
-5.24998
 21
-7.65001
  0
LINE
  8
0
 10
-5.24998
 20
-7.65001
 11
-3.60812
 21
-8.44067
  0
LINE
  8
0
 10
-3.60812
 20
-8.44067
 11
-3.20262
 21
-10.2173
  0
LINE
  8
0
 10
-3.20262
 20
-10.2173
 11
-4.33882
 21
-11.642
  0
LINE
  8
0
 10
-4.33882
 20
-11.642
 11
-6.16113
 21
-11.642
  0
LINE
  8
0
 10
54.3388
 20
-11.6421
 11
53.2026
 21
-10.2173
  0
LINE
  8
0
 10
53.2026
 20
-10.2173
 11
53.6081
 21
-8.44069
  0
LINE
  8
0
 10
53.6081
 20
-8.44069
 11
55.25
 21
-7.65002
  0
LINE
  8
0
 10
55.25
 20
-7.65002
 11
56.8918
 21
-8.44069
  0
LINE
  8
0
 10
56.8918
 20
-8.44069
 11
57.2973
 21
-10.2173
  0
LINE
  8
0
 10
57.2973
 20
-10.2173
 11
56.1611
 21
-11.6421
  0
LINE
  8
0
 10
56.1611
 20
-11.6421
 11
54.3388
 21
-11.6421
  0
LINE
  8
0
 10
6.76527
 20
-71.3221
 11
6.43669
 21
-70.3109
  0
LINE
  8
0
 10
6.43669
 20
-70.3109
 11
6.25
 21
-70.3109
  0
LINE
  8
0
 10
6.25
 20
-70.3109
 11
6.25002
 21
-9.68912
  0
LINE
  8
0
 10
6.25002
 20
-9.68912
 11
6.43671
 21
-9.68912
  0
LINE
  8
0
 10
6.43671
 20
-9.68912
 11
6.3112
 21
-9.30284
  0
LINE
  8
0
 10
6.3112
 20
-9.30284
 11
7.50002
 21
-8.43912
  0
LINE
  8
0
 10
7.50002
 20
-8.43912
 11
8.68883
 21
-9.30284
  0
LINE
  8
0
 10
8.68883
 20
-9.30284
 11
8.56332
 21
-9.68912
  0
LINE
  8
0
 10
8.56332
 20
-9.68912
 11
8.75002
 21
-9.68912
  0
LINE
  8
0
 10
8.75002
 20
-9.68912
 11
8.75
 21
-70.3109
  0
LINE
  8
0
 10
8.75
 20
-70.3109
 11
8.56331
 21
-70.3109
  0
LINE
  8
0
 10
8.56331
 20
-70.3109
 11
8.23473
 21
-71.3221
  0
LINE
  8
0
 10
8.23473
 20
-71.3221
 11
6.76527
 21
-71.3221
  0
LINE
  8
0
 10
41.7653
 20
-71.3222
 11
41.4367
 21
-70.3109
  0
LINE
  8
0
 10
41.4367
 20
-70.3109
 11
41.25
 21
-70.3109
  0
LINE
  8
0
 10
41.25
 20
-70.3109
 11
41.25
 21
-9.68913
  0
LINE
  8
0
 10
41.25
 20
-9.68913
 11
41.4367
 21
-9.68913
  0
LINE
  8
0
 10
41.4367
 20
-9.68913
 11
41.3112
 21
-9.30286
  0
LINE
  8
0
 10
41.3112
 20
-9.30286
 11
42.5
 21
-8.43913
  0
LINE
  8
0
 10
42.5
 20
-8.43913
 11
43.6888
 21
-9.30286
  0
LINE
  8
0
 10
43.6888
 20
-9.30286
 11
43.5633
 21
-9.68913
  0
LINE
  8
0
 10
43.5633
 20
-9.68913
 11
43.75
 21
-9.68913
  0
LINE
  8
0
 10
43.75
 20
-9.68913
 11
43.75
 21
-70.3109
  0
LINE
  8
0
 10
43.75
 20
-70.3109
 11
43.5633
 21
-70.3109
  0
LINE
  8
0
 10
43.5633
 20
-70.3109
 11
43.2347
 21
-71.3222
  0
LINE
  8
0
 10
43.2347
 20
-71.3222
 11
41.7653
 21
-71.3222
  0
LINE
  8
0
 10
1.76527
 20
-67.8208
 11
1.43669
 21
-66.8095
  0
LINE
  8
0
 10
1.43669
 20
-66.8095
 11
1.25
 21
-66.8095
  0
LINE
  8
0
 10
1.25
 20
-66.8095
 11
1.25002
 21
-13.1905
  0
LINE
  8
0
 10
1.25002
 20
-13.1905
 11
1.43671
 21
-13.1905
  0
LINE
  8
0
 10
1.43671
 20
-13.1905
 11
1.3112
 21
-12.8042
  0
LINE
  8
0
 10
1.3112
 20
-12.8042
 11
2.50002
 21
-11.9405
  0
LINE
  8
0
 10
2.50002
 20
-11.9405
 11
3.68883
 21
-12.8042
  0
LINE
  8
0
 10
3.68883
 20
-12.8042
 11
3.56332
 21
-13.1905
  0
LINE
  8
0
 10
3.56332
 20
-13.1905
 11
3.75002
 21
-13.1905
  0
LINE
  8
0
 10
3.75002
 20
-13.1905
 11
3.75
 21
-66.8095
  0
LINE
  8
0
 10
3.75
 20
-66.8095
 11
3.56331
 21
-66.8095
  0
LINE
  8
0
 10
3.56331
 20
-66.8095
 11
3.23473
 21
-67.8208
  0
LINE
  8
0
 10
3.23473
 20
-67.8208
 11
1.76527
 21
-67.8208
  0
LINE
  8
0
 10
46.7653
 20
-67.8208
 11
46.4367
 21
-66.8095
  0
LINE
  8
0
 10
46.4367
 20
-66.8095
 11
46.25
 21
-66.8095
  0
LINE
  8
0
 10
46.25
 20
-66.8095
 11
46.25
 21
-13.1905
  0
LINE
  8
0
 10
46.25
 20
-13.1905
 11
46.4367
 21
-13.1905
  0
LINE
  8
0
 10
46.4367
 20
-13.1905
 11
46.3112
 21
-12.8042
  0
LINE
  8
0
 10
46.3112
 20
-12.8042
 11
47.5
 21
-11.9405
  0
LINE
  8
0
 10
47.5
 20
-11.9405
 11
48.6888
 21
-12.8042
  0
LINE
  8
0
 10
48.6888
 20
-12.8042
 11
48.5633
 21
-13.1905
  0
LINE
  8
0
 10
48.5633
 20
-13.1905
 11
48.75
 21
-13.1905
  0
LINE
  8
0
 10
48.75
 20
-13.1905
 11
48.75
 21
-66.8095
  0
LINE
  8
0
 10
48.75
 20
-66.8095
 11
48.5633
 21
-66.8095
  0
LINE
  8
0
 10
48.5633
 20
-66.8095
 11
48.2347
 21
-67.8208
  0
LINE
  8
0
 10
48.2347
 20
-67.8208
 11
46.7653
 21
-67.8208
  0
LINE
  8
0
 10
-3.23473
 20
-62.6619
 11
-3.56331
 21
-61.6506
  0
LINE
  8
0
 10
-3.56331
 20
-61.6506
 11
-3.75
 21
-61.6506
  0
LINE
  8
0
 10
-3.75
 20
-61.6506
 11
-3.74998
 21
-18.3494
  0
LINE
  8
0
 10
-3.74998
 20
-18.3494
 11
-3.56329
 21
-18.3494
  0
LINE
  8
0
 10
-3.56329
 20
-18.3494
 11
-3.6888
 21
-17.9631
  0
LINE
  8
0
 10
-3.6888
 20
-17.9631
 11
-2.49998
 21
-17.0994
  0
LINE
  8
0
 10
-2.49998
 20
-17.0994
 11
-1.31117
 21
-17.9631
  0
LINE
  8
0
 10
-1.31117
 20
-17.9631
 11
-1.43668
 21
-18.3494
  0
LINE
  8
0
 10
-1.43668
 20
-18.3494
 11
-1.24998
 21
-18.3494
  0
LINE
  8
0
 10
-1.24998
 20
-18.3494
 11
-1.25
 21
-61.6506
  0
LINE
  8
0
 10
-1.25
 20
-61.6506
 11
-1.43669
 21
-61.6506
  0
LINE
  8
0
 10
-1.43669
 20
-61.6506
 11
-1.76527
 21
-62.6619
  0
LINE
  8
0
 10
-1.76527
 20
-62.6619
 11
-3.23473
 21
-62.6619
  0
LINE
  8
0
 10
51.7653
 20
-62.6619
 11
51.4367
 21
-61.6506
  0
LINE
  8
0
 10
51.4367
 20
-61.6506
 11
51.25
 21
-61.6506
  0
LINE
  8
0
 10
51.25
 20
-61.6506
 11
51.25
 21
-18.3494
  0
LINE
  8
0
 10
51.25
 20
-18.3494
 11
51.4367
 21
-18.3494
  0
LINE
  8
0
 10
51.4367
 20
-18.3494
 11
51.3112
 21
-17.9631
  0
LINE
  8
0
 10
51.3112
 20
-17.9631
 11
52.5
 21
-17.0994
  0
LINE
  8
0
 10
52.5
 20
-17.0994
 11
53.6888
 21
-17.9631
  0
LINE
  8
0
 10
53.6888
 20
-17.9631
 11
53.5633
 21
-18.3494
  0
LINE
  8
0
 10
53.5633
 20
-18.3494
 11
53.75
 21
-18.3494
  0
LINE
  8
0
 10
53.75
 20
-18.3494
 11
53.75
 21
-61.6506
  0
LINE
  8
0
 10
53.75
 20
-61.6506
 11
53.5633
 21
-61.6506
  0
LINE
  8
0
 10
53.5633
 20
-61.6506
 11
53.2347
 21
-62.6619
  0
LINE
  8
0
 10
53.2347
 20
-62.6619
 11
51.7653
 21
-62.6619
  0
LINE
  8
0
 10
-8.23473
 20
-54.0016
 11
-8.56331
 21
-52.9904
  0
LINE
  8
0
 10
-8.56331
 20
-52.9904
 11
-8.75
 21
-52.9904
  0
LINE
  8
0
 10
-8.75
 20
-52.9904
 11
-8.75
 21
-27.0096
  0
LINE
  8
0
 10
-8.75
 20
-27.0096
 11
-8.56331
 21
-27.0096
  0
LINE
  8
0
 10
-8.56331
 20
-27.0096
 11
-8.68881
 21
-26.6234
  0
LINE
  8
0
 10
-8.68881
 20
-26.6234
 11
-7.5
 21
-25.7596
  0
LINE
  8
0
 10
-7.5
 20
-25.7596
 11
-6.31117
 21
-26.6234
  0
LINE
  8
0
 10
-6.31117
 20
-26.6234
 11
-6.43668
 21
-27.0096
  0
LINE
  8
0
 10
-6.43668
 20
-27.0096
 11
-6.24998
 21
-27.0096
  0
LINE
  8
0
 10
-6.24998
 20
-27.0096
 11
-6.25
 21
-52.9904
  0
LINE
  8
0
 10
-6.25
 20
-52.9904
 11
-6.43669
 21
-52.9904
  0
LINE
  8
0
 10
-6.43669
 20
-52.9904
 11
-6.76527
 21
-54.0016
  0
LINE
  8
0
 10
-6.76527
 20
-54.0016
 11
-8.23473
 21
-54.0016
  0
LINE
  8
0
 10
56.7653
 20
-54.0016
 11
56.4367
 21
-52.9904
  0
LINE
  8
0
 10
56.4367
 20
-52.9904
 11
56.25
 21
-52.9904
  0
LINE
  8
0
 10
56.25
 20
-52.9904
 11
56.25
 21
-27.0096
  0
LINE
  8
0
 10
56.25
 20
-27.0096
 11
56.4367
 21
-27.0096
  0
LINE
  8
0
 10
56.4367
 20
-27.0096
 11
56.3112
 21
-26.6234
  0
LINE
  8
0
 10
56.3112
 20
-26.6234
 11
57.5
 21
-25.7596
  0
LINE
  8
0
 10
57.5
 20
-25.7596
 11
58.6888
 21
-26.6234
  0
LINE
  8
0
 10
58.6888
 20
-26.6234
 11
58.5633
 21
-27.0096
  0
LINE
  8
0
 10
58.5633
 20
-27.0096
 11
58.75
 21
-27.0096
  0
LINE
  8
0
 10
58.75
 20
-27.0096
 11
58.75
 21
-52.9904
  0
LINE
  8
0
 10
58.75
 20
-52.9904
 11
58.5633
 21
-52.9904
  0
LINE
  8
0
 10
58.5633
 20
-52.9904
 11
58.2347
 21
-54.0016
  0
LINE
  8
0
 10
58.2347
 20
-54.0016
 11
56.7653
 21
-54.0016
  0
LINE
  8
0
 10
-6.16115
 20
-72.142
 11
-7.29735
 21
-70.7173
  0
LINE
  8
0
 10
-7.29735
 20
-70.7173
 11
-6.89185
 21
-68.9406
  0
LINE
  8
0
 10
-6.89185
 20
-68.9406
 11
-5.25
 21
-68.15
  0
LINE
  8
0
 10
-5.25
 20
-68.15
 11
-3.60814
 21
-68.9406
  0
LINE
  8
0
 10
-3.60814
 20
-68.9406
 11
-3.20264
 21
-70.7173
  0
LINE
  8
0
 10
-3.20264
 20
-70.7173
 11
-4.33884
 21
-72.142
  0
LINE
  8
0
 10
-4.33884
 20
-72.142
 11
-6.16115
 21
-72.142
  0
LINE
  8
0
 10
54.3388
 20
-72.142
 11
53.2026
 21
-70.7173
  0
LINE
  8
0
 10
53.2026
 20
-70.7173
 11
53.6081
 21
-68.9407
  0
LINE
  8
0
 10
53.6081
 20
-68.9407
 11
55.25
 21
-68.15
  0
LINE
  8
0
 10
55.25
 20
-68.15
 11
56.8918
 21
-68.9407
  0
LINE
  8
0
 10
56.8918
 20
-68.9407
 11
57.2973
 21
-70.7173
  0
LINE
  8
0
 10
57.2973
 20
-70.7173
 11
56.1611
 21
-72.142
  0
LINE
  8
0
 10
56.1611
 20
-72.142
 11
54.3388
 21
-72.142
  0
LINE
  8
0
 10
-120.556
 20
-91.15
 11
-108.333
 21
-91.15
  0
LINE
  8
0
 10
-108.333
 20
-91.15
 11
-108.333
 21
-95
  0
LINE
  8
0
 10
-108.333
 20
-95
 11
-96.1111
 21
-95
  0
LINE
  8
0
 10
-96.1111
 20
-95
 11
-96.1111
 21
-91.15
  0
LINE
  8
0
 10
-96.1111
 20
-91.15
 11
-83.8889
 21
-91.15
  0
LINE
  8
0
 10
-83.8889
 20
-91.15
 11
-83.8889
 21
-95
  0
LINE
  8
0
 10
-83.8889
 20
-95
 11
-71.6667
 21
-95
  0
LINE
  8
0
 10
-71.6667
 20
-95
 11
-71.6667
 21
-91.15
  0
LINE
  8
0
 10
-71.6667
 20
-91.15
 11
-59.4445
 21
-91.15
  0
LINE
  8
0
 10
-59.4445
 20
-91.15
 11
-59.4445
 21
-95
  0
LINE
  8
0
 10
-59.4445
 20
-95
 11
-47.2222
 21
-95
  0
LINE
  8
0
 10
-47.2222
 20
-95
 11
-47.2222
 21
-91.15
  0
LINE
  8
0
 10
-47.2222
 20
-91.15
 11
-35
 21
-91.15
  0
LINE
  8
0
 10
-35
 20
-91.15
 11
-35
 21
-82.7778
  0
LINE
  8
0
 10
-35
 20
-82.7778
 11
-38.85
 21
-82.7778
  0
LINE
  8
0
 10
-38.85
 20
-82.7778
 11
-38.85
 21
-70.5555
  0
LINE
  8
0
 10
-38.85
 20
-70.5555
 11
-35
 21
-70.5555
  0
LINE
  8
0
 10
-35
 20
-70.5555
 11
-35
 21
-58.3333
  0
LINE
  8
0
 10
-35
 20
-58.3333
 11
-38.85
 21
-58.3333
  0
LINE
  8
0
 10
-38.85
 20
-58.3333
 11
-38.85
 21
-46.1111
  0
LINE
  8
0
 10
-38.85
 20
-46.1111
 11
-35
 21
-46.1111
  0
LINE
  8
0
 10
-35
 20
-46.1111
 11
-35
 21
-33.8889
  0
LINE
  8
0
 10
-35
 20
-33.8889
 11
-38.85
 21
-33.8889
  0
LINE
  8
0
 10
-38.85
 20
-33.8889
 11
-38.85
 21
-21.6667
  0
LINE
  8
0
 10
-38.85
 20
-21.6667
 11
-35
 21
-21.6667
  0
LINE
  8
0
 10
-35
 20
-21.6667
 11
-35
 21
-9.44446
  0
LINE
  8
0
 10
-35
 20
-9.44446
 11
-38.85
 21
-9.44446
  0
LINE
  8
0
 10
-38.85
 20
-9.44446
 11
-38.85
 21
2.77777
  0
LINE
  8
0
 10
-38.85
 20
2.77777
 11
-35
 21
2.77777
  0
LINE
  8
0
 10
-35
 20
2.77777
 11
-35
 21
11.15
  0
LINE
  8
0
 10
-35
 20
11.15
 11
-47.2222
 21
11.15
  0
LINE
  8
0
 10
-47.2222
 20
11.15
 11
-47.2222
 21
15
  0
LINE
  8
0
 10
-47.2222
 20
15
 11
-59.4445
 21
15
  0
LINE
  8
0
 10
-59.4445
 20
15
 11
-59.4445
 21
11.15
  0
LINE
  8
0
 10
-59.4445
 20
11.15
 11
-71.6667
 21
11.15
  0
LINE
  8
0
 10
-71.6667
 20
11.15
 11
-71.6667
 21
15
  0
LINE
  8
0
 10
-71.6667
 20
15
 11
-83.8889
 21
15
  0
LINE
  8
0
 10
-83.8889
 20
15
 11
-83.8889
 21
11.15
  0
LINE
  8
0
 10
-83.8889
 20
11.15
 11
-96.1111
 21
11.15
  0
LINE
  8
0
 10
-96.1111
 20
11.15
 11
-96.1111
 21
15
  0
LINE
  8
0
 10
-96.1111
 20
15
 11
-108.333
 21
15
  0
LINE
  8
0
 10
-108.333
 20
15
 11
-108.333
 21
11.15
  0
LINE
  8
0
 10
-108.333
 20
11.15
 11
-120.556
 21
11.15
  0
LINE
  8
0
 10
-120.556
 20
11.15
 11
-120.556
 21
15
  0
LINE
  8
0
 10
-120.556
 20
15
 11
-132.778
 21
15
  0
LINE
  8
0
 10
-132.778
 20
15
 11
-132.778
 21
11.15
  0
LINE
  8
0
 10
-132.778
 20
11.15
 11
-145
 21
11.15
  0
LINE
  8
0
 10
-145
 20
11.15
 11
-145
 21
2.77777
  0
LINE
  8
0
 10
-145
 20
2.77777
 11
-141.15
 21
2.77777
  0
LINE
  8
0
 10
-141.15
 20
2.77777
 11
-141.15
 21
-9.44446
  0
LINE
  8
0
 10
-141.15
 20
-9.44446
 11
-145
 21
-9.44446
  0
LINE
  8
0
 10
-145
 20
-9.44446
 11
-145
 21
-21.6667
  0
LINE
  8
0
 10
-145
 20
-21.6667
 11
-141.15
 21
-21.6667
  0
LINE
  8
0
 10
-141.15
 20
-21.6667
 11
-141.15
 21
-33.8889
  0
LINE
  8
0
 10
-141.15
 20
-33.8889
 11
-145
 21
-33.8889
  0
LINE
  8
0
 10
-145
 20
-33.8889
 11
-145
 21
-46.1111
  0
LINE
  8
0
 10
-145
 20
-46.1111
 11
-141.15
 21
-46.1111
  0
LINE
  8
0
 10
-141.15
 20
-46.1111
 11
-141.15
 21
-58.3333
  0
LINE
  8
0
 10
-141.15
 20
-58.3333
 11
-145
 21
-58.3333
  0
LINE
  8
0
 10
-145
 20
-58.3333
 11
-145
 21
-70.5555
  0
LINE
  8
0
 10
-145
 20
-70.5555
 11
-141.15
 21
-70.5555
  0
LINE
  8
0
 10
-141.15
 20
-70.5555
 11
-141.15
 21
-82.7778
  0
LINE
  8
0
 10
-141.15
 20
-82.7778
 11
-145
 21
-82.7778
  0
LINE
  8
0
 10
-145
 20
-82.7778
 11
-145
 21
-91.15
  0
LINE
  8
0
 10
-145
 20
-91.15
 11
-132.778
 21
-91.15
  0
LINE
  8
0
 10
-132.778
 20
-91.15
 11
-132.778
 21
-95
  0
LINE
  8
0
 10
-132.778
 20
-95
 11
-120.556
 21
-95
  0
LINE
  8
0
 10
-120.556
 20
-95
 11
-120.556
 21
-91.15
  0
LINE
  8
0
 10
-88.2347
 20
-75.9219
 11
-88.5633
 21
-74.9106
  0
LINE
  8
0
 10
-88.5633
 20
-74.9106
 11
-88.75
 21
-74.9106
  0
LINE
  8
0
 10
-88.75
 20
-74.9106
 11
-88.75
 21
-5.0894
  0
LINE
  8
0
 10
-88.75
 20
-5.0894
 11
-88.5633
 21
-5.0894
  0
LINE
  8
0
 10
-88.5633
 20
-5.0894
 11
-88.6888
 21
-4.70314
  0
LINE
  8
0
 10
-88.6888
 20
-4.70314
 11
-87.5
 21
-3.8394
  0
LINE
  8
0
 10
-87.5
 20
-3.8394
 11
-86.3112
 21
-4.70314
  0
LINE
  8
0
 10
-86.3112
 20
-4.70314
 11
-86.4367
 21
-5.0894
  0
LINE
  8
0
 10
-86.4367
 20
-5.0894
 11
-86.25
 21
-5.0894
  0
LINE
  8
0
 10
-86.25
 20
-5.0894
 11
-86.25
 21
-74.9106
  0
LINE
  8
0
 10
-86.25
 20
-74.9106
 11
-86.4367
 21
-74.9106
  0
LINE
  8
0
 10
-86.4367
 20
-74.9106
 11
-86.7653
 21
-75.9219
  0
LINE
  8
0
 10
-86.7653
 20
-75.9219
 11
-88.2347
 21
-75.9219
  0
LINE
  8
0
 10
-93.2347
 20
-75.9219
 11
-93.5633
 21
-74.9106
  0
LINE
  8
0
 10
-93.5633
 20
-74.9106
 11
-93.75
 21
-74.9106
  0
LINE
  8
0
 10
-93.75
 20
-74.9106
 11
-93.75
 21
-5.0894
  0
LINE
  8
0
 10
-93.75
 20
-5.0894
 11
-93.5633
 21
-5.0894
  0
LINE
  8
0
 10
-93.5633
 20
-5.0894
 11
-93.6888
 21
-4.70314
  0
LINE
  8
0
 10
-93.6888
 20
-4.70314
 11
-92.5
 21
-3.8394
  0
LINE
  8
0
 10
-92.5
 20
-3.8394
 11
-91.3112
 21
-4.70314
  0
LINE
  8
0
 10
-91.3112
 20
-4.70314
 11
-91.4367
 21
-5.0894
  0
LINE
  8
0
 10
-91.4367
 20
-5.0894
 11
-91.25
 21
-5.0894
  0
LINE
  8
0
 10
-91.25
 20
-5.0894
 11
-91.25
 21
-74.9106
  0
LINE
  8
0
 10
-91.25
 20
-74.9106
 11
-91.4367
 21
-74.9106
  0
LINE
  8
0
 10
-91.4367
 20
-74.9106
 11
-91.7653
 21
-75.9219
  0
LINE
  8
0
 10
-91.7653
 20
-75.9219
 11
-93.2347
 21
-75.9219
  0
LINE
  8
0
 10
-98.2347
 20
-75.1982
 11
-98.5633
 21
-74.187
  0
LINE
  8
0
 10
-98.5633
 20
-74.187
 11
-98.75
 21
-74.187
  0
LINE
  8
0
 10
-98.75
 20
-74.187
 11
-98.75
 21
-5.81302
  0
LINE
  8
0
 10
-98.75
 20
-5.81302
 11
-98.5633
 21
-5.81302
  0
LINE
  8
0
 10
-98.5633
 20
-5.81302
 11
-98.6888
 21
-5.42676
  0
LINE
  8
0
 10
-98.6888
 20
-5.42676
 11
-97.5
 21
-4.56302
  0
LINE
  8
0
 10
-97.5
 20
-4.56302
 11
-96.3112
 21
-5.42676
  0
LINE
  8
0
 10
-96.3112
 20
-5.42676
 11
-96.4367
 21
-5.81302
  0
LINE
  8
0
 10
-96.4367
 20
-5.81302
 11
-96.25
 21
-5.81302
  0
LINE
  8
0
 10
-96.25
 20
-5.81302
 11
-96.25
 21
-74.187
  0
LINE
  8
0
 10
-96.25
 20
-74.187
 11
-96.4367
 21
-74.187
  0
LINE
  8
0
 10
-96.4367
 20
-74.187
 11
-96.7653
 21
-75.1982
  0
LINE
  8
0
 10
-96.7653
 20
-75.1982
 11
-98.2347
 21
-75.1982
  0
LINE
  8
0
 10
-83.2347
 20
-75.1982
 11
-83.5633
 21
-74.187
  0
LINE
  8
0
 10
-83.5633
 20
-74.187
 11
-83.75
 21
-74.187
  0
LINE
  8
0
 10
-83.75
 20
-74.187
 11
-83.75
 21
-5.81302
  0
LINE
  8
0
 10
-83.75
 20
-5.81302
 11
-83.5633
 21
-5.81302
  0
LINE
  8
0
 10
-83.5633
 20
-5.81302
 11
-83.6888
 21
-5.42676
  0
LINE
  8
0
 10
-83.6888
 20
-5.42676
 11
-82.5
 21
-4.56302
  0
LINE
  8
0
 10
-82.5
 20
-4.56302
 11
-81.3112
 21
-5.42676
  0
LINE
  8
0
 10
-81.3112
 20
-5.42676
 11
-81.4367
 21
-5.81302
  0
LINE
  8
0
 10
-81.4367
 20
-5.81302
 11
-81.25
 21
-5.81302
  0
LINE
  8
0
 10
-81.25
 20
-5.81302
 11
-81.25
 21
-74.187
  0
LINE
  8
0
 10
-81.25
 20
-74.187
 11
-81.4367
 21
-74.187
  0
LINE
  8
0
 10
-81.4367
 20
-74.187
 11
-81.7653
 21
-75.1982
  0
LINE
  8
0
 10
-81.7653
 20
-75.1982
 11
-83.2347
 21
-75.1982
  0
LINE
  8
0
 10
-103.235
 20
-73.703
 11
-103.563
 21
-72.6917
  0
LINE
  8
0
 10
-103.563
 20
-72.6917
 11
-103.75
 21
-72.6917
  0
LINE
  8
0
 10
-103.75
 20
-72.6917
 11
-103.75
 21
-7.30826
  0
LINE
  8
0
 10
-103.75
 20
-7.30826
 11
-103.563
 21
-7.30826
  0
LINE
  8
0
 10
-103.563
 20
-7.30826
 11
-103.689
 21
-6.922
  0
LINE
  8
0
 10
-103.689
 20
-6.922
 11
-102.5
 21
-6.05826
  0
LINE
  8
0
 10
-102.5
 20
-6.05826
 11
-101.311
 21
-6.922
  0
LINE
  8
0
 10
-101.311
 20
-6.922
 11
-101.437
 21
-7.30826
  0
LINE
  8
0
 10
-101.437
 20
-7.30826
 11
-101.25
 21
-7.30826
  0
LINE
  8
0
 10
-101.25
 20
-7.30826
 11
-101.25
 21
-72.6917
  0
LINE
  8
0
 10
-101.25
 20
-72.6917
 11
-101.437
 21
-72.6917
  0
LINE
  8
0
 10
-101.437
 20
-72.6917
 11
-101.765
 21
-73.703
  0
LINE
  8
0
 10
-101.765
 20
-73.703
 11
-103.235
 21
-73.703
  0
LINE
  8
0
 10
-78.2347
 20
-73.703
 11
-78.5633
 21
-72.6917
  0
LINE
  8
0
 10
-78.5633
 20
-72.6917
 11
-78.75
 21
-72.6917
  0
LINE
  8
0
 10
-78.75
 20
-72.6917
 11
-78.75
 21
-7.30826
  0
LINE
  8
0
 10
-78.75
 20
-7.30826
 11
-78.5633
 21
-7.30826
  0
LINE
  8
0
 10
-78.5633
 20
-7.30826
 11
-78.6888
 21
-6.922
  0
LINE
  8
0
 10
-78.6888
 20
-6.922
 11
-77.5
 21
-6.05826
  0
LINE
  8
0
 10
-77.5
 20
-6.05826
 11
-76.3112
 21
-6.922
  0
LINE
  8
0
 10
-76.3112
 20
-6.922
 11
-76.4367
 21
-7.30826
  0
LINE
  8
0
 10
-76.4367
 20
-7.30826
 11
-76.25
 21
-7.30826
  0
LINE
  8
0
 10
-76.25
 20
-7.30826
 11
-76.25
 21
-72.6917
  0
LINE
  8
0
 10
-76.25
 20
-72.6917
 11
-76.4367
 21
-72.6917
  0
LINE
  8
0
 10
-76.4367
 20
-72.6917
 11
-76.7653
 21
-73.703
  0
LINE
  8
0
 10
-76.7653
 20
-73.703
 11
-78.2347
 21
-73.703
  0
LINE
  8
0
 10
-121.161
 20
-11.642
 11
-122.297
 21
-10.2173
  0
LINE
  8
0
 10
-122.297
 20
-10.2173
 11
-121.892
 21
-8.44067
  0
LINE
  8
0
 10
-121.892
 20
-8.44067
 11
-120.25
 21
-7.65001
  0
LINE
  8
0
 10
-120.25
 20
-7.65001
 11
-118.608
 21
-8.44067
  0
LINE
  8
0
 10
-118.608
 20
-8.44067
 11
-118.203
 21
-10.2173
  0
LINE
  8
0
 10
-118.203
 20
-10.2173
 11
-119.339
 21
-11.642
  0
LINE
  8
0
 10
-119.339
 20
-11.642
 11
-121.161
 21
-11.642
  0
LINE
  8
0
 10
-60.6612
 20
-11.6421
 11
-61.7974
 21
-10.2173
  0
LINE
  8
0
 10
-61.7974
 20
-10.2173
 11
-61.3919
 21
-8.44069
  0
LINE
  8
0
 10
-61.3919
 20
-8.44069
 11
-59.75
 21
-7.65002
  0
LINE
  8
0
 10
-59.75
 20
-7.65002
 11
-58.1082
 21
-8.44069
  0
LINE
  8
0
 10
-58.1082
 20
-8.44069
 11
-57.7027
 21
-10.2173
  0
LINE
  8
0
 10
-57.7027
 20
-10.2173
 11
-58.8389
 21
-11.6421
  0
LINE
  8
0
 10
-58.8389
 20
-11.6421
 11
-60.6612
 21
-11.6421
  0
LINE
  8
0
 10
-108.235
 20
-71.3221
 11
-108.563
 21
-70.3109
  0
LINE
  8
0
 10
-108.563
 20
-70.3109
 11
-108.75
 21
-70.3109
  0
LINE
  8
0
 10
-108.75
 20
-70.3109
 11
-108.75
 21
-9.68912
  0
LINE
  8
0
 10
-108.75
 20
-9.68912
 11
-108.563
 21
-9.68912
  0
LINE
  8
0
 10
-108.563
 20
-9.68912
 11
-108.689
 21
-9.30284
  0
LINE
  8
0
 10
-108.689
 20
-9.30284
 11
-107.5
 21
-8.43912
  0
LINE
  8
0
 10
-107.5
 20
-8.43912
 11
-106.311
 21
-9.30284
  0
LINE
  8
0
 10
-106.311
 20
-9.30284
 11
-106.437
 21
-9.68912
  0
LINE
  8
0
 10
-106.437
 20
-9.68912
 11
-106.25
 21
-9.68912
  0
LINE
  8
0
 10
-106.25
 20
-9.68912
 11
-106.25
 21
-70.3109
  0
LINE
  8
0
 10
-106.25
 20
-70.3109
 11
-106.437
 21
-70.3109
  0
LINE
  8
0
 10
-106.437
 20
-70.3109
 11
-106.765
 21
-71.3221
  0
LINE
  8
0
 10
-106.765
 20
-71.3221
 11
-108.235
 21
-71.3221
  0
LINE
  8
0
 10
-73.2347
 20
-71.3222
 11
-73.5633
 21
-70.3109
  0
LINE
  8
0
 10
-73.5633
 20
-70.3109
 11
-73.75
 21
-70.3109
  0
LINE
  8
0
 10
-73.75
 20
-70.3109
 11
-73.75
 21
-9.68913
  0
LINE
  8
0
 10
-73.75
 20
-9.68913
 11
-73.5633
 21
-9.68913
  0
LINE
  8
0
 10
-73.5633
 20
-9.68913
 11
-73.6888
 21
-9.30286
  0
LINE
  8
0
 10
-73.6888
 20
-9.30286
 11
-72.5
 21
-8.43913
  0
LINE
  8
0
 10
-72.5
 20
-8.43913
 11
-71.3112
 21
-9.30286
  0
LINE
  8
0
 10
-71.3112
 20
-9.30286
 11
-71.4367
 21
-9.68913
  0
LINE
  8
0
 10
-71.4367
 20
-9.68913
 11
-71.25
 21
-9.68913
  0
LINE
  8
0
 10
-71.25
 20
-9.68913
 11
-71.25
 21
-70.3109
  0
LINE
  8
0
 10
-71.25
 20
-70.3109
 11
-71.4367
 21
-70.3109
  0
LINE
  8
0
 10
-71.4367
 20
-70.3109
 11
-71.7653
 21
-71.3222
  0
LINE
  8
0
 10
-71.7653
 20
-71.3222
 11
-73.2347
 21
-71.3222
  0
LINE
  8
0
 10
-113.235
 20
-67.8208
 11
-113.563
 21
-66.8095
  0
LINE
  8
0
 10
-113.563
 20
-66.8095
 11
-113.75
 21
-66.8095
  0
LINE
  8
0
 10
-113.75
 20
-66.8095
 11
-113.75
 21
-13.1905
  0
LINE
  8
0
 10
-113.75
 20
-13.1905
 11
-113.563
 21
-13.1905
  0
LINE
  8
0
 10
-113.563
 20
-13.1905
 11
-113.689
 21
-12.8042
  0
LINE
  8
0
 10
-113.689
 20
-12.8042
 11
-112.5
 21
-11.9405
  0
LINE
  8
0
 10
-112.5
 20
-11.9405
 11
-111.311
 21
-12.8042
  0
LINE
  8
0
 10
-111.311
 20
-12.8042
 11
-111.437
 21
-13.1905
  0
LINE
  8
0
 10
-111.437
 20
-13.1905
 11
-111.25
 21
-13.1905
  0
LINE
  8
0
 10
-111.25
 20
-13.1905
 11
-111.25
 21
-66.8095
  0
LINE
  8
0
 10
-111.25
 20
-66.8095
 11
-111.437
 21
-66.8095
  0
LINE
  8
0
 10
-111.437
 20
-66.8095
 11
-111.765
 21
-67.8208
  0
LINE
  8
0
 10
-111.765
 20
-67.8208
 11
-113.235
 21
-67.8208
  0
LINE
  8
0
 10
-68.2347
 20
-67.8208
 11
-68.5633
 21
-66.8095
  0
LINE
  8
0
 10
-68.5633
 20
-66.8095
 11
-68.75
 21
-66.8095
  0
LINE
  8
0
 10
-68.75
 20
-66.8095
 11
-68.75
 21
-13.1905
  0
LINE
  8
0
 10
-68.75
 20
-13.1905
 11
-68.5633
 21
-13.1905
  0
LINE
  8
0
 10
-68.5633
 20
-13.1905
 11
-68.6888
 21
-12.8042
  0
LINE
  8
0
 10
-68.6888
 20
-12.8042
 11
-67.5
 21
-11.9405
  0
LINE
  8
0
 10
-67.5
 20
-11.9405
 11
-66.3112
 21
-12.8042
  0
LINE
  8
0
 10
-66.3112
 20
-12.8042
 11
-66.4367
 21
-13.1905
  0
LINE
  8
0
 10
-66.4367
 20
-13.1905
 11
-66.25
 21
-13.1905
  0
LINE
  8
0
 10
-66.25
 20
-13.1905
 11
-66.25
 21
-66.8095
  0
LINE
  8
0
 10
-66.25
 20
-66.8095
 11
-66.4367
 21
-66.8095
  0
LINE
  8
0
 10
-66.4367
 20
-66.8095
 11
-66.7653
 21
-67.8208
  0
LINE
  8
0
 10
-66.7653
 20
-67.8208
 11
-68.2347
 21
-67.8208
  0
LINE
  8
0
 10
-118.235
 20
-62.6619
 11
-118.563
 21
-61.6506
  0
LINE
  8
0
 10
-118.563
 20
-61.6506
 11
-118.75
 21
-61.6506
  0
LINE
  8
0
 10
-118.75
 20
-61.6506
 11
-118.75
 21
-18.3494
  0
LINE
  8
0
 10
-118.75
 20
-18.3494
 11
-118.563
 21
-18.3494
  0
LINE
  8
0
 10
-118.563
 20
-18.3494
 11
-118.689
 21
-17.9631
  0
LINE
  8
0
 10
-118.689
 20
-17.9631
 11
-117.5
 21
-17.0994
  0
LINE
  8
0
 10
-117.5
 20
-17.0994
 11
-116.311
 21
-17.9631
  0
LINE
  8
0
 10
-116.311
 20
-17.9631
 11
-116.437
 21
-18.3494
  0
LINE
  8
0
 10
-116.437
 20
-18.3494
 11
-116.25
 21
-18.3494
  0
LINE
  8
0
 10
-116.25
 20
-18.3494
 11
-116.25
 21
-61.6506
  0
LINE
  8
0
 10
-116.25
 20
-61.6506
 11
-116.437
 21
-61.6506
  0
LINE
  8
0
 10
-116.437
 20
-61.6506
 11
-116.765
 21
-62.6619
  0
LINE
  8
0
 10
-116.765
 20
-62.6619
 11
-118.235
 21
-62.6619
  0
LINE
  8
0
 10
-63.2347
 20
-62.6619
 11
-63.5633
 21
-61.6506
  0
LINE
  8
0
 10
-63.5633
 20
-61.6506
 11
-63.75
 21
-61.6506
  0
LINE
  8
0
 10
-63.75
 20
-61.6506
 11
-63.75
 21
-18.3494
  0
LINE
  8
0
 10
-63.75
 20
-18.3494
 11
-63.5633
 21
-18.3494
  0
LINE
  8
0
 10
-63.5633
 20
-18.3494
 11
-63.6888
 21
-17.9631
  0
LINE
  8
0
 10
-63.6888
 20
-17.9631
 11
-62.5
 21
-17.0994
  0
LINE
  8
0
 10
-62.5
 20
-17.0994
 11
-61.3112
 21
-17.9631
  0
LINE
  8
0
 10
-61.3112
 20
-17.9631
 11
-61.4367
 21
-18.3494
  0
LINE
  8
0
 10
-61.4367
 20
-18.3494
 11
-61.25
 21
-18.3494
  0
LINE
  8
0
 10
-61.25
 20
-18.3494
 11
-61.25
 21
-61.6506
  0
LINE
  8
0
 10
-61.25
 20
-61.6506
 11
-61.4367
 21
-61.6506
  0
LINE
  8
0
 10
-61.4367
 20
-61.6506
 11
-61.7653
 21
-62.6619
  0
LINE
  8
0
 10
-61.7653
 20
-62.6619
 11
-63.2347
 21
-62.6619
  0
LINE
  8
0
 10
-123.235
 20
-54.0016
 11
-123.563
 21
-52.9904
  0
LINE
  8
0
 10
-123.563
 20
-52.9904
 11
-123.75
 21
-52.9904
  0
LINE
  8
0
 10
-123.75
 20
-52.9904
 11
-123.75
 21
-27.0096
  0
LINE
  8
0
 10
-123.75
 20
-27.0096
 11
-123.563
 21
-27.0096
  0
LINE
  8
0
 10
-123.563
 20
-27.0096
 11
-123.689
 21
-26.6234
  0
LINE
  8
0
 10
-123.689
 20
-26.6234
 11
-122.5
 21
-25.7596
  0
LINE
  8
0
 10
-122.5
 20
-25.7596
 11
-121.311
 21
-26.6234
  0
LINE
  8
0
 10
-121.311
 20
-26.6234
 11
-121.437
 21
-27.0096
  0
LINE
  8
0
 10
-121.437
 20
-27.0096
 11
-121.25
 21
-27.0096
  0
LINE
  8
0
 10
-121.25
 20
-27.0096
 11
-121.25
 21
-52.9904
  0
LINE
  8
0
 10
-121.25
 20
-52.9904
 11
-121.437
 21
-52.9904
  0
LINE
  8
0
 10
-121.437
 20
-52.9904
 11
-121.765
 21
-54.0016
  0
LINE
  8
0
 10
-121.765
 20
-54.0016
 11
-123.235
 21
-54.0016
  0
LINE
  8
0
 10
-58.2347
 20
-54.0016
 11
-58.5633
 21
-52.9904
  0
LINE
  8
0
 10
-58.5633
 20
-52.9904
 11
-58.75
 21
-52.9904
  0
LINE
  8
0
 10
-58.75
 20
-52.9904
 11
-58.75
 21
-27.0096
  0
LINE
  8
0
 10
-58.75
 20
-27.0096
 11
-58.5633
 21
-27.0096
  0
LINE
  8
0
 10
-58.5633
 20
-27.0096
 11
-58.6888
 21
-26.6234
  0
LINE
  8
0
 10
-58.6888
 20
-26.6234
 11
-57.5
 21
-25.7596
  0
LINE
  8
0
 10
-57.5
 20
-25.7596
 11
-56.3112
 21
-26.6234
  0
LINE
  8
0
 10
-56.3112
 20
-26.6234
 11
-56.4367
 21
-27.0096
  0
LINE
  8
0
 10
-56.4367
 20
-27.0096
 11
-56.25
 21
-27.0096
  0
LINE
  8
0
 10
-56.25
 20
-27.0096
 11
-56.25
 21
-52.9904
  0
LINE
  8
0
 10
-56.25
 20
-52.9904
 11
-56.4367
 21
-52.9904
  0
LINE
  8
0
 10
-56.4367
 20
-52.9904
 11
-56.7653
 21
-54.0016
  0
LINE
  8
0
 10
-56.7653
 20
-54.0016
 11
-58.2347
 21
-54.0016
  0
LINE
  8
0
 10
-121.161
 20
-72.142
 11
-122.297
 21
-70.7173
  0
LINE
  8
0
 10
-122.297
 20
-70.7173
 11
-121.892
 21
-68.9406
  0
LINE
  8
0
 10
-121.892
 20
-68.9406
 11
-120.25
 21
-68.15
  0
LINE
  8
0
 10
-120.25
 20
-68.15
 11
-118.608
 21
-68.9406
  0
LINE
  8
0
 10
-118.608
 20
-68.9406
 11
-118.203
 21
-70.7173
  0
LINE
  8
0
 10
-118.203
 20
-70.7173
 11
-119.339
 21
-72.142
  0
LINE
  8
0
 10
-119.339
 20
-72.142
 11
-121.161
 21
-72.142
  0
LINE
  8
0
 10
-60.6612
 20
-72.142
 11
-61.7974
 21
-70.7173
  0
LINE
  8
0
 10
-61.7974
 20
-70.7173
 11
-61.3919
 21
-68.9407
  0
LINE
  8
0
 10
-61.3919
 20
-68.9407
 11
-59.75
 21
-68.15
  0
LINE
  8
0
 10
-59.75
 20
-68.15
 11
-58.1082
 21
-68.9407
  0
LINE
  8
0
 10
-58.1082
 20
-68.9407
 11
-57.7027
 21
-70.7173
  0
LINE
  8
0
 10
-57.7027
 20
-70.7173
 11
-58.8389
 21
-72.142
  0
LINE
  8
0
 10
-58.8389
 20
-72.142
 11
-60.6612
 21
-72.142
  0
ENDSEC
  0
SECTION
  2
OBJECTS
  0
DICTIONARY
  0
ENDSEC
  0
EOF
