  0
SECTION
  2
BLOCKS
  0
ENDSEC
  0
SECTION
  2
ENTITIES
  0
LINE
  8
0
 10
18.8889
 20
-88.65
 11
31.1111
 21
-88.65
  0
LINE
  8
0
 10
31.1111
 20
-88.65
 11
31.1111
 21
-92.5
  0
LINE
  8
0
 10
31.1111
 20
-92.5
 11
43.3333
 21
-92.5
  0
LINE
  8
0
 10
43.3333
 20
-92.5
 11
43.3333
 21
-88.65
  0
LINE
  8
0
 10
43.3333
 20
-88.65
 11
55.5555
 21
-88.65
  0
LINE
  8
0
 10
55.5555
 20
-88.65
 11
55.5555
 21
-92.5
  0
LINE
  8
0
 10
55.5555
 20
-92.5
 11
67.7778
 21
-92.5
  0
LINE
  8
0
 10
67.7778
 20
-92.5
 11
67.7778
 21
-88.65
  0
LINE
  8
0
 10
67.7778
 20
-88.65
 11
76.15
 21
-88.65
  0
LINE
  8
0
 10
76.15
 20
-88.65
 11
76.15
 21
-82.7632
  0
LINE
  8
0
 10
76.15
 20
-82.7632
 11
80
 21
-82.7632
  0
LINE
  8
0
 10
80
 20
-82.7632
 11
80
 21
-73.0263
  0
LINE
  8
0
 10
80
 20
-73.0263
 11
76.15
 21
-73.0263
  0
LINE
  8
0
 10
76.15
 20
-73.0263
 11
76.15
 21
-63.2895
  0
LINE
  8
0
 10
76.15
 20
-63.2895
 11
80
 21
-63.2895
  0
LINE
  8
0
 10
80
 20
-63.2895
 11
80
 21
-53.5526
  0
LINE
  8
0
 10
80
 20
-53.5526
 11
76.15
 21
-53.5526
  0
LINE
  8
0
 10
76.15
 20
-53.5526
 11
76.15
 21
-43.8158
  0
LINE
  8
0
 10
76.15
 20
-43.8158
 11
80
 21
-43.8158
  0
LINE
  8
0
 10
80
 20
-43.8158
 11
80
 21
-34.0789
  0
LINE
  8
0
 10
80
 20
-34.0789
 11
76.15
 21
-34.0789
  0
LINE
  8
0
 10
76.15
 20
-34.0789
 11
76.15
 21
-24.3421
  0
LINE
  8
0
 10
76.15
 20
-24.3421
 11
80
 21
-24.3421
  0
LINE
  8
0
 10
80
 20
-24.3421
 11
80
 21
-14.6053
  0
LINE
  8
0
 10
80
 20
-14.6053
 11
76.15
 21
-14.6053
  0
LINE
  8
0
 10
76.15
 20
-14.6053
 11
76.15
 21
-4.86841
  0
LINE
  8
0
 10
76.15
 20
-4.86841
 11
80
 21
-4.86841
  0
LINE
  8
0
 10
80
 20
-4.86841
 11
80
 21
4.86839
  0
LINE
  8
0
 10
80
 20
4.86839
 11
76.15
 21
4.86839
  0
LINE
  8
0
 10
76.15
 20
4.86839
 11
76.15
 21
14.6052
  0
LINE
  8
0
 10
76.15
 20
14.6052
 11
80
 21
14.6052
  0
LINE
  8
0
 10
80
 20
14.6052
 11
80
 21
24.3421
  0
LINE
  8
0
 10
80
 20
24.3421
 11
76.15
 21
24.3421
  0
LINE
  8
0
 10
76.15
 20
24.3421
 11
76.15
 21
34.0789
  0
LINE
  8
0
 10
76.15
 20
34.0789
 11
80
 21
34.0789
  0
LINE
  8
0
 10
80
 20
34.0789
 11
80
 21
43.8158
  0
LINE
  8
0
 10
80
 20
43.8158
 11
76.15
 21
43.8158
  0
LINE
  8
0
 10
76.15
 20
43.8158
 11
76.15
 21
53.5526
  0
LINE
  8
0
 10
76.15
 20
53.5526
 11
80
 21
53.5526
  0
LINE
  8
0
 10
80
 20
53.5526
 11
80
 21
63.2894
  0
LINE
  8
0
 10
80
 20
63.2894
 11
76.15
 21
63.2894
  0
LINE
  8
0
 10
76.15
 20
63.2894
 11
76.15
 21
73.0263
  0
LINE
  8
0
 10
76.15
 20
73.0263
 11
80
 21
73.0263
  0
LINE
  8
0
 10
80
 20
73.0263
 11
80
 21
82.7631
  0
LINE
  8
0
 10
80
 20
82.7631
 11
76.15
 21
82.7631
  0
LINE
  8
0
 10
76.15
 20
82.7631
 11
76.15
 21
88.65
  0
LINE
  8
0
 10
76.15
 20
88.65
 11
67.7778
 21
88.65
  0
LINE
  8
0
 10
67.7778
 20
88.65
 11
67.7778
 21
92.5
  0
LINE
  8
0
 10
67.7778
 20
92.5
 11
55.5555
 21
92.5
  0
LINE
  8
0
 10
55.5555
 20
92.5
 11
55.5555
 21
88.65
  0
LINE
  8
0
 10
55.5555
 20
88.65
 11
43.3333
 21
88.65
  0
LINE
  8
0
 10
43.3333
 20
88.65
 11
43.3333
 21
92.5
  0
LINE
  8
0
 10
43.3333
 20
92.5
 11
31.1111
 21
92.5
  0
LINE
  8
0
 10
31.1111
 20
92.5
 11
31.1111
 21
88.65
  0
LINE
  8
0
 10
31.1111
 20
88.65
 11
18.8889
 21
88.65
  0
LINE
  8
0
 10
18.8889
 20
88.65
 11
18.8889
 21
92.5
  0
LINE
  8
0
 10
18.8889
 20
92.5
 11
6.66667
 21
92.5
  0
LINE
  8
0
 10
6.66667
 20
92.5
 11
6.66667
 21
88.65
  0
LINE
  8
0
 10
6.66667
 20
88.65
 11
-5.55553
 21
88.65
  0
LINE
  8
0
 10
-5.55553
 20
88.65
 11
-5.55553
 21
92.5
  0
LINE
  8
0
 10
-5.55553
 20
92.5
 11
-17.7778
 21
92.5
  0
LINE
  8
0
 10
-17.7778
 20
92.5
 11
-17.7778
 21
88.65
  0
LINE
  8
0
 10
-17.7778
 20
88.65
 11
-26.15
 21
88.65
  0
LINE
  8
0
 10
-26.15
 20
88.65
 11
-26.15
 21
82.7632
  0
LINE
  8
0
 10
-26.15
 20
82.7632
 11
-30
 21
82.7632
  0
LINE
  8
0
 10
-30
 20
82.7632
 11
-30
 21
73.0263
  0
LINE
  8
0
 10
-30
 20
73.0263
 11
-26.15
 21
73.0263
  0
LINE
  8
0
 10
-26.15
 20
73.0263
 11
-26.15
 21
63.2895
  0
LINE
  8
0
 10
-26.15
 20
63.2895
 11
-30
 21
63.2895
  0
LINE
  8
0
 10
-30
 20
63.2895
 11
-30
 21
53.5526
  0
LINE
  8
0
 10
-30
 20
53.5526
 11
-26.15
 21
53.5526
  0
LINE
  8
0
 10
-26.15
 20
53.5526
 11
-26.15
 21
43.8158
  0
LINE
  8
0
 10
-26.15
 20
43.8158
 11
-30
 21
43.8158
  0
LINE
  8
0
 10
-30
 20
43.8158
 11
-30
 21
34.0789
  0
LINE
  8
0
 10
-30
 20
34.0789
 11
-26.15
 21
34.0789
  0
LINE
  8
0
 10
-26.15
 20
34.0789
 11
-26.15
 21
24.3421
  0
LINE
  8
0
 10
-26.15
 20
24.3421
 11
-30
 21
24.3421
  0
LINE
  8
0
 10
-30
 20
24.3421
 11
-30
 21
14.6053
  0
LINE
  8
0
 10
-30
 20
14.6053
 11
-26.15
 21
14.6053
  0
LINE
  8
0
 10
-26.15
 20
14.6053
 11
-26.15
 21
4.86841
  0
LINE
  8
0
 10
-26.15
 20
4.86841
 11
-30
 21
4.86841
  0
LINE
  8
0
 10
-30
 20
4.86841
 11
-30
 21
-4.86839
  0
LINE
  8
0
 10
-30
 20
-4.86839
 11
-26.15
 21
-4.86839
  0
LINE
  8
0
 10
-26.15
 20
-4.86839
 11
-26.15
 21
-14.6052
  0
LINE
  8
0
 10
-26.15
 20
-14.6052
 11
-30
 21
-14.6052
  0
LINE
  8
0
 10
-30
 20
-14.6052
 11
-30
 21
-24.3421
  0
LINE
  8
0
 10
-30
 20
-24.3421
 11
-26.15
 21
-24.3421
  0
LINE
  8
0
 10
-26.15
 20
-24.3421
 11
-26.15
 21
-34.0789
  0
LINE
  8
0
 10
-26.15
 20
-34.0789
 11
-30
 21
-34.0789
  0
LINE
  8
0
 10
-30
 20
-34.0789
 11
-30
 21
-43.8158
  0
LINE
  8
0
 10
-30
 20
-43.8158
 11
-26.15
 21
-43.8158
  0
LINE
  8
0
 10
-26.15
 20
-43.8158
 11
-26.15
 21
-53.5526
  0
LINE
  8
0
 10
-26.15
 20
-53.5526
 11
-30
 21
-53.5526
  0
LINE
  8
0
 10
-30
 20
-53.5526
 11
-30
 21
-63.2894
  0
LINE
  8
0
 10
-30
 20
-63.2894
 11
-26.15
 21
-63.2894
  0
LINE
  8
0
 10
-26.15
 20
-63.2894
 11
-26.15
 21
-73.0263
  0
LINE
  8
0
 10
-26.15
 20
-73.0263
 11
-30
 21
-73.0263
  0
LINE
  8
0
 10
-30
 20
-73.0263
 11
-30
 21
-82.7631
  0
LINE
  8
0
 10
-30
 20
-82.7631
 11
-26.15
 21
-82.7631
  0
LINE
  8
0
 10
-26.15
 20
-82.7631
 11
-26.15
 21
-88.65
  0
LINE
  8
0
 10
-26.15
 20
-88.65
 11
-17.7778
 21
-88.65
  0
LINE
  8
0
 10
-17.7778
 20
-88.65
 11
-17.7778
 21
-92.5
  0
LINE
  8
0
 10
-17.7778
 20
-92.5
 11
-5.55554
 21
-92.5
  0
LINE
  8
0
 10
-5.55554
 20
-92.5
 11
-5.55554
 21
-88.65
  0
LINE
  8
0
 10
-5.55554
 20
-88.65
 11
6.66666
 21
-88.65
  0
LINE
  8
0
 10
6.66666
 20
-88.65
 11
6.66666
 21
-92.5
  0
LINE
  8
0
 10
6.66666
 20
-92.5
 11
18.8889
 21
-92.5
  0
LINE
  8
0
 10
18.8889
 20
-92.5
 11
18.8889
 21
-88.65
  0
LINE
  8
0
 10
47.5051
 20
24.2622
 11
45.1192
 21
25.0374
  0
LINE
  8
0
 10
45.1192
 20
25.0374
 11
42.9466
 21
26.2918
  0
LINE
  8
0
 10
42.9466
 20
26.2918
 11
41.0823
 21
27.9704
  0
LINE
  8
0
 10
41.0823
 20
27.9704
 11
39.6077
 21
30
  0
LINE
  8
0
 10
39.6077
 20
30
 11
38.5873
 21
32.2918
  0
LINE
  8
0
 10
38.5873
 20
32.2918
 11
38.0657
 21
34.7457
  0
LINE
  8
0
 10
38.0657
 20
34.7457
 11
38.0657
 21
37.2543
  0
LINE
  8
0
 10
38.0657
 20
37.2543
 11
38.5873
 21
39.7082
  0
LINE
  8
0
 10
38.5873
 20
39.7082
 11
39.6077
 21
42
  0
LINE
  8
0
 10
39.6077
 20
42
 11
41.0823
 21
44.0295
  0
LINE
  8
0
 10
41.0823
 20
44.0295
 11
42.9466
 21
45.7082
  0
LINE
  8
0
 10
42.9466
 20
45.7082
 11
45.1192
 21
46.9625
  0
LINE
  8
0
 10
45.1192
 20
46.9625
 11
47.5051
 21
47.7377
  0
LINE
  8
0
 10
47.5051
 20
47.7377
 11
50
 21
48
  0
LINE
  8
0
 10
50
 20
48
 11
52.4949
 21
47.7377
  0
LINE
  8
0
 10
52.4949
 20
47.7377
 11
54.8808
 21
46.9625
  0
LINE
  8
0
 10
54.8808
 20
46.9625
 11
57.0534
 21
45.7082
  0
LINE
  8
0
 10
57.0534
 20
45.7082
 11
58.9177
 21
44.0295
  0
LINE
  8
0
 10
58.9177
 20
44.0295
 11
60.3923
 21
42
  0
LINE
  8
0
 10
60.3923
 20
42
 11
61.4127
 21
39.7082
  0
LINE
  8
0
 10
61.4127
 20
39.7082
 11
61.9342
 21
37.2543
  0
LINE
  8
0
 10
61.9342
 20
37.2543
 11
61.9342
 21
34.7456
  0
LINE
  8
0
 10
61.9342
 20
34.7456
 11
61.4127
 21
32.2918
  0
LINE
  8
0
 10
61.4127
 20
32.2918
 11
60.3923
 21
30
  0
LINE
  8
0
 10
60.3923
 20
30
 11
58.9177
 21
27.9704
  0
LINE
  8
0
 10
58.9177
 20
27.9704
 11
57.0534
 21
26.2918
  0
LINE
  8
0
 10
57.0534
 20
26.2918
 11
54.8808
 21
25.0374
  0
LINE
  8
0
 10
54.8808
 20
25.0374
 11
52.4949
 21
24.2622
  0
LINE
  8
0
 10
52.4949
 20
24.2622
 11
50
 21
24
  0
LINE
  8
0
 10
50
 20
24
 11
47.5051
 21
24.2622
  0
LINE
  8
0
 10
47.5051
 20
-11.7378
 11
45.1192
 21
-10.9625
  0
LINE
  8
0
 10
45.1192
 20
-10.9625
 11
42.9466
 21
-9.70819
  0
LINE
  8
0
 10
42.9466
 20
-9.70819
 11
41.0823
 21
-8.02956
  0
LINE
  8
0
 10
41.0823
 20
-8.02956
 11
39.6077
 21
-5.99998
  0
LINE
  8
0
 10
39.6077
 20
-5.99998
 11
38.5873
 21
-3.70819
  0
LINE
  8
0
 10
38.5873
 20
-3.70819
 11
38.0657
 21
-1.25433
  0
LINE
  8
0
 10
38.0657
 20
-1.25433
 11
38.0657
 21
1.25432
  0
LINE
  8
0
 10
38.0657
 20
1.25432
 11
38.5873
 21
3.70818
  0
LINE
  8
0
 10
38.5873
 20
3.70818
 11
39.6077
 21
5.99998
  0
LINE
  8
0
 10
39.6077
 20
5.99998
 11
41.0823
 21
8.02954
  0
LINE
  8
0
 10
41.0823
 20
8.02954
 11
42.9466
 21
9.70818
  0
LINE
  8
0
 10
42.9466
 20
9.70818
 11
45.1192
 21
10.9625
  0
LINE
  8
0
 10
45.1192
 20
10.9625
 11
47.5051
 21
11.7377
  0
LINE
  8
0
 10
47.5051
 20
11.7377
 11
50
 21
12
  0
LINE
  8
0
 10
50
 20
12
 11
52.4949
 21
11.7377
  0
LINE
  8
0
 10
52.4949
 20
11.7377
 11
54.8808
 21
10.9625
  0
LINE
  8
0
 10
54.8808
 20
10.9625
 11
57.0534
 21
9.70818
  0
LINE
  8
0
 10
57.0534
 20
9.70818
 11
58.9177
 21
8.02954
  0
LINE
  8
0
 10
58.9177
 20
8.02954
 11
60.3923
 21
5.99998
  0
LINE
  8
0
 10
60.3923
 20
5.99998
 11
61.4127
 21
3.70818
  0
LINE
  8
0
 10
61.4127
 20
3.70818
 11
61.9342
 21
1.25432
  0
LINE
  8
0
 10
61.9342
 20
1.25432
 11
61.9342
 21
-1.25433
  0
LINE
  8
0
 10
61.9342
 20
-1.25433
 11
61.4127
 21
-3.70819
  0
LINE
  8
0
 10
61.4127
 20
-3.70819
 11
60.3923
 21
-6
  0
LINE
  8
0
 10
60.3923
 20
-6
 11
58.9177
 21
-8.02956
  0
LINE
  8
0
 10
58.9177
 20
-8.02956
 11
57.0534
 21
-9.70819
  0
LINE
  8
0
 10
57.0534
 20
-9.70819
 11
54.8808
 21
-10.9625
  0
LINE
  8
0
 10
54.8808
 20
-10.9625
 11
52.4949
 21
-11.7378
  0
LINE
  8
0
 10
52.4949
 20
-11.7378
 11
50
 21
-12
  0
LINE
  8
0
 10
50
 20
-12
 11
47.5051
 21
-11.7378
  0
LINE
  8
0
 10
47.505
 20
-47.7378
 11
45.1191
 21
-46.9625
  0
LINE
  8
0
 10
45.1191
 20
-46.9625
 11
42.9465
 21
-45.7082
  0
LINE
  8
0
 10
42.9465
 20
-45.7082
 11
41.0822
 21
-44.0296
  0
LINE
  8
0
 10
41.0822
 20
-44.0296
 11
39.6077
 21
-42
  0
LINE
  8
0
 10
39.6077
 20
-42
 11
38.5873
 21
-39.7082
  0
LINE
  8
0
 10
38.5873
 20
-39.7082
 11
38.0657
 21
-37.2543
  0
LINE
  8
0
 10
38.0657
 20
-37.2543
 11
38.0657
 21
-34.7457
  0
LINE
  8
0
 10
38.0657
 20
-34.7457
 11
38.5873
 21
-32.2918
  0
LINE
  8
0
 10
38.5873
 20
-32.2918
 11
39.6077
 21
-30
  0
LINE
  8
0
 10
39.6077
 20
-30
 11
41.0822
 21
-27.9704
  0
LINE
  8
0
 10
41.0822
 20
-27.9704
 11
42.9465
 21
-26.2918
  0
LINE
  8
0
 10
42.9465
 20
-26.2918
 11
45.1191
 21
-25.0374
  0
LINE
  8
0
 10
45.1191
 20
-25.0374
 11
47.505
 21
-24.2622
  0
LINE
  8
0
 10
47.505
 20
-24.2622
 11
50
 21
-24
  0
LINE
  8
0
 10
50
 20
-24
 11
52.4949
 21
-24.2622
  0
LINE
  8
0
 10
52.4949
 20
-24.2622
 11
54.8808
 21
-25.0374
  0
LINE
  8
0
 10
54.8808
 20
-25.0374
 11
57.0534
 21
-26.2918
  0
LINE
  8
0
 10
57.0534
 20
-26.2918
 11
58.9177
 21
-27.9704
  0
LINE
  8
0
 10
58.9177
 20
-27.9704
 11
60.3923
 21
-30
  0
LINE
  8
0
 10
60.3923
 20
-30
 11
61.4127
 21
-32.2918
  0
LINE
  8
0
 10
61.4127
 20
-32.2918
 11
61.9342
 21
-34.7457
  0
LINE
  8
0
 10
61.9342
 20
-34.7457
 11
61.9342
 21
-37.2543
  0
LINE
  8
0
 10
61.9342
 20
-37.2543
 11
61.4127
 21
-39.7082
  0
LINE
  8
0
 10
61.4127
 20
-39.7082
 11
60.3923
 21
-42
  0
LINE
  8
0
 10
60.3923
 20
-42
 11
58.9177
 21
-44.0296
  0
LINE
  8
0
 10
58.9177
 20
-44.0296
 11
57.0534
 21
-45.7082
  0
LINE
  8
0
 10
57.0534
 20
-45.7082
 11
54.8808
 21
-46.9625
  0
LINE
  8
0
 10
54.8808
 20
-46.9625
 11
52.4949
 21
-47.7378
  0
LINE
  8
0
 10
52.4949
 20
-47.7378
 11
50
 21
-48
  0
LINE
  8
0
 10
50
 20
-48
 11
47.505
 21
-47.7378
  0
LINE
  8
0
 10
-108.333
 20
-88.65
 11
-96.1111
 21
-88.65
  0
LINE
  8
0
 10
-96.1111
 20
-88.65
 11
-96.1111
 21
-92.5
  0
LINE
  8
0
 10
-96.1111
 20
-92.5
 11
-83.8889
 21
-92.5
  0
LINE
  8
0
 10
-83.8889
 20
-92.5
 11
-83.8889
 21
-88.65
  0
LINE
  8
0
 10
-83.8889
 20
-88.65
 11
-71.6667
 21
-88.65
  0
LINE
  8
0
 10
-71.6667
 20
-88.65
 11
-71.6667
 21
-92.5
  0
LINE
  8
0
 10
-71.6667
 20
-92.5
 11
-59.4445
 21
-92.5
  0
LINE
  8
0
 10
-59.4445
 20
-92.5
 11
-59.4445
 21
-88.65
  0
LINE
  8
0
 10
-59.4445
 20
-88.65
 11
-47.2222
 21
-88.65
  0
LINE
  8
0
 10
-47.2222
 20
-88.65
 11
-47.2222
 21
-92.5
  0
LINE
  8
0
 10
-47.2222
 20
-92.5
 11
-35
 21
-92.5
  0
LINE
  8
0
 10
-35
 20
-92.5
 11
-35
 21
-82.7632
  0
LINE
  8
0
 10
-35
 20
-82.7632
 11
-38.85
 21
-82.7632
  0
LINE
  8
0
 10
-38.85
 20
-82.7632
 11
-38.85
 21
-73.0263
  0
LINE
  8
0
 10
-38.85
 20
-73.0263
 11
-35
 21
-73.0263
  0
LINE
  8
0
 10
-35
 20
-73.0263
 11
-35
 21
-63.2895
  0
LINE
  8
0
 10
-35
 20
-63.2895
 11
-38.85
 21
-63.2895
  0
LINE
  8
0
 10
-38.85
 20
-63.2895
 11
-38.85
 21
-53.5526
  0
LINE
  8
0
 10
-38.85
 20
-53.5526
 11
-35
 21
-53.5526
  0
LINE
  8
0
 10
-35
 20
-53.5526
 11
-35
 21
-43.8158
  0
LINE
  8
0
 10
-35
 20
-43.8158
 11
-38.85
 21
-43.8158
  0
LINE
  8
0
 10
-38.85
 20
-43.8158
 11
-38.85
 21
-34.0789
  0
LINE
  8
0
 10
-38.85
 20
-34.0789
 11
-35
 21
-34.0789
  0
LINE
  8
0
 10
-35
 20
-34.0789
 11
-35
 21
-24.3421
  0
LINE
  8
0
 10
-35
 20
-24.3421
 11
-38.85
 21
-24.3421
  0
LINE
  8
0
 10
-38.85
 20
-24.3421
 11
-38.85
 21
-14.6053
  0
LINE
  8
0
 10
-38.85
 20
-14.6053
 11
-35
 21
-14.6053
  0
LINE
  8
0
 10
-35
 20
-14.6053
 11
-35
 21
-4.86841
  0
LINE
  8
0
 10
-35
 20
-4.86841
 11
-38.85
 21
-4.86841
  0
LINE
  8
0
 10
-38.85
 20
-4.86841
 11
-38.85
 21
4.86839
  0
LINE
  8
0
 10
-38.85
 20
4.86839
 11
-35
 21
4.86839
  0
LINE
  8
0
 10
-35
 20
4.86839
 11
-35
 21
14.6052
  0
LINE
  8
0
 10
-35
 20
14.6052
 11
-38.85
 21
14.6052
  0
LINE
  8
0
 10
-38.85
 20
14.6052
 11
-38.85
 21
24.3421
  0
LINE
  8
0
 10
-38.85
 20
24.3421
 11
-35
 21
24.3421
  0
LINE
  8
0
 10
-35
 20
24.3421
 11
-35
 21
34.0789
  0
LINE
  8
0
 10
-35
 20
34.0789
 11
-38.85
 21
34.0789
  0
LINE
  8
0
 10
-38.85
 20
34.0789
 11
-38.85
 21
43.8158
  0
LINE
  8
0
 10
-38.85
 20
43.8158
 11
-35
 21
43.8158
  0
LINE
  8
0
 10
-35
 20
43.8158
 11
-35
 21
53.5526
  0
LINE
  8
0
 10
-35
 20
53.5526
 11
-38.85
 21
53.5526
  0
LINE
  8
0
 10
-38.85
 20
53.5526
 11
-38.85
 21
63.2894
  0
LINE
  8
0
 10
-38.85
 20
63.2894
 11
-35
 21
63.2894
  0
LINE
  8
0
 10
-35
 20
63.2894
 11
-35
 21
73.0263
  0
LINE
  8
0
 10
-35
 20
73.0263
 11
-38.85
 21
73.0263
  0
LINE
  8
0
 10
-38.85
 20
73.0263
 11
-38.85
 21
82.7631
  0
LINE
  8
0
 10
-38.85
 20
82.7631
 11
-35
 21
82.7631
  0
LINE
  8
0
 10
-35
 20
82.7631
 11
-35
 21
92.5
  0
LINE
  8
0
 10
-35
 20
92.5
 11
-47.2222
 21
92.5
  0
LINE
  8
0
 10
-47.2222
 20
92.5
 11
-47.2222
 21
88.65
  0
LINE
  8
0
 10
-47.2222
 20
88.65
 11
-59.4444
 21
88.65
  0
LINE
  8
0
 10
-59.4444
 20
88.65
 11
-59.4444
 21
92.5
  0
LINE
  8
0
 10
-59.4444
 20
92.5
 11
-71.6667
 21
92.5
  0
LINE
  8
0
 10
-71.6667
 20
92.5
 11
-71.6667
 21
88.65
  0
LINE
  8
0
 10
-71.6667
 20
88.65
 11
-83.8889
 21
88.65
  0
LINE
  8
0
 10
-83.8889
 20
88.65
 11
-83.8889
 21
92.5
  0
LINE
  8
0
 10
-83.8889
 20
92.5
 11
-96.1111
 21
92.5
  0
LINE
  8
0
 10
-96.1111
 20
92.5
 11
-96.1111
 21
88.65
  0
LINE
  8
0
 10
-96.1111
 20
88.65
 11
-108.333
 21
88.65
  0
LINE
  8
0
 10
-108.333
 20
88.65
 11
-108.333
 21
92.5
  0
LINE
  8
0
 10
-108.333
 20
92.5
 11
-120.556
 21
92.5
  0
LINE
  8
0
 10
-120.556
 20
92.5
 11
-120.556
 21
88.65
  0
LINE
  8
0
 10
-120.556
 20
88.65
 11
-132.778
 21
88.65
  0
LINE
  8
0
 10
-132.778
 20
88.65
 11
-132.778
 21
92.5
  0
LINE
  8
0
 10
-132.778
 20
92.5
 11
-145
 21
92.5
  0
LINE
  8
0
 10
-145
 20
92.5
 11
-145
 21
82.7632
  0
LINE
  8
0
 10
-145
 20
82.7632
 11
-141.15
 21
82.7632
  0
LINE
  8
0
 10
-141.15
 20
82.7632
 11
-141.15
 21
73.0263
  0
LINE
  8
0
 10
-141.15
 20
73.0263
 11
-145
 21
73.0263
  0
LINE
  8
0
 10
-145
 20
73.0263
 11
-145
 21
63.2895
  0
LINE
  8
0
 10
-145
 20
63.2895
 11
-141.15
 21
63.2895
  0
LINE
  8
0
 10
-141.15
 20
63.2895
 11
-141.15
 21
53.5526
  0
LINE
  8
0
 10
-141.15
 20
53.5526
 11
-145
 21
53.5526
  0
LINE
  8
0
 10
-145
 20
53.5526
 11
-145
 21
43.8158
  0
LINE
  8
0
 10
-145
 20
43.8158
 11
-141.15
 21
43.8158
  0
LINE
  8
0
 10
-141.15
 20
43.8158
 11
-141.15
 21
34.0789
  0
LINE
  8
0
 10
-141.15
 20
34.0789
 11
-145
 21
34.0789
  0
LINE
  8
0
 10
-145
 20
34.0789
 11
-145
 21
24.3421
  0
LINE
  8
0
 10
-145
 20
24.3421
 11
-141.15
 21
24.3421
  0
LINE
  8
0
 10
-141.15
 20
24.3421
 11
-141.15
 21
14.6053
  0
LINE
  8
0
 10
-141.15
 20
14.6053
 11
-145
 21
14.6053
  0
LINE
  8
0
 10
-145
 20
14.6053
 11
-145
 21
4.86841
  0
LINE
  8
0
 10
-145
 20
4.86841
 11
-141.15
 21
4.86841
  0
LINE
  8
0
 10
-141.15
 20
4.86841
 11
-141.15
 21
-4.86839
  0
LINE
  8
0
 10
-141.15
 20
-4.86839
 11
-145
 21
-4.86839
  0
LINE
  8
0
 10
-145
 20
-4.86839
 11
-145
 21
-14.6052
  0
LINE
  8
0
 10
-145
 20
-14.6052
 11
-141.15
 21
-14.6052
  0
LINE
  8
0
 10
-141.15
 20
-14.6052
 11
-141.15
 21
-24.3421
  0
LINE
  8
0
 10
-141.15
 20
-24.3421
 11
-145
 21
-24.3421
  0
LINE
  8
0
 10
-145
 20
-24.3421
 11
-145
 21
-34.0789
  0
LINE
  8
0
 10
-145
 20
-34.0789
 11
-141.15
 21
-34.0789
  0
LINE
  8
0
 10
-141.15
 20
-34.0789
 11
-141.15
 21
-43.8158
  0
LINE
  8
0
 10
-141.15
 20
-43.8158
 11
-145
 21
-43.8158
  0
LINE
  8
0
 10
-145
 20
-43.8158
 11
-145
 21
-53.5526
  0
LINE
  8
0
 10
-145
 20
-53.5526
 11
-141.15
 21
-53.5526
  0
LINE
  8
0
 10
-141.15
 20
-53.5526
 11
-141.15
 21
-63.2894
  0
LINE
  8
0
 10
-141.15
 20
-63.2894
 11
-145
 21
-63.2894
  0
LINE
  8
0
 10
-145
 20
-63.2894
 11
-145
 21
-73.0263
  0
LINE
  8
0
 10
-145
 20
-73.0263
 11
-141.15
 21
-73.0263
  0
LINE
  8
0
 10
-141.15
 20
-73.0263
 11
-141.15
 21
-82.7631
  0
LINE
  8
0
 10
-141.15
 20
-82.7631
 11
-145
 21
-82.7631
  0
LINE
  8
0
 10
-145
 20
-82.7631
 11
-145
 21
-92.5
  0
LINE
  8
0
 10
-145
 20
-92.5
 11
-132.778
 21
-92.5
  0
LINE
  8
0
 10
-132.778
 20
-92.5
 11
-132.778
 21
-88.65
  0
LINE
  8
0
 10
-132.778
 20
-88.65
 11
-120.556
 21
-88.65
  0
LINE
  8
0
 10
-120.556
 20
-88.65
 11
-120.556
 21
-92.5
  0
LINE
  8
0
 10
-120.556
 20
-92.5
 11
-108.333
 21
-92.5
  0
LINE
  8
0
 10
-108.333
 20
-92.5
 11
-108.333
 21
-88.65
  0
LINE
  8
0
 10
-121.386
 20
36.2
 11
-121.386
 21
37.8
  0
LINE
  8
0
 10
-121.386
 20
37.8
 11
-120
 21
38.6
  0
LINE
  8
0
 10
-120
 20
38.6
 11
-118.614
 21
37.8
  0
LINE
  8
0
 10
-118.614
 20
37.8
 11
-118.614
 21
36.2
  0
LINE
  8
0
 10
-118.614
 20
36.2
 11
-120
 21
35.4
  0
LINE
  8
0
 10
-120
 20
35.4
 11
-121.386
 21
36.2
  0
LINE
  8
0
 10
-121.5
 20
7.5
 11
-121.5
 21
32.5
  0
LINE
  8
0
 10
-121.5
 20
32.5
 11
-118.5
 21
32.5
  0
LINE
  8
0
 10
-118.5
 20
32.5
 11
-118.5
 21
7.5
  0
LINE
  8
0
 10
-118.5
 20
7.5
 11
-121.5
 21
7.5
  0
LINE
  8
0
 10
-121.386
 20
2.20001
 11
-121.386
 21
3.8
  0
LINE
  8
0
 10
-121.386
 20
3.8
 11
-120
 21
4.60001
  0
LINE
  8
0
 10
-120
 20
4.60001
 11
-118.614
 21
3.8
  0
LINE
  8
0
 10
-118.614
 20
3.8
 11
-118.614
 21
2.20001
  0
LINE
  8
0
 10
-118.614
 20
2.20001
 11
-120
 21
1.40001
  0
LINE
  8
0
 10
-120
 20
1.40001
 11
-121.386
 21
2.20001
  0
LINE
  8
0
 10
-121.386
 20
-23.8
 11
-121.386
 21
-22.2
  0
LINE
  8
0
 10
-121.386
 20
-22.2
 11
-120
 21
-21.4
  0
LINE
  8
0
 10
-120
 20
-21.4
 11
-118.614
 21
-22.2
  0
LINE
  8
0
 10
-118.614
 20
-22.2
 11
-118.614
 21
-23.8
  0
LINE
  8
0
 10
-118.614
 20
-23.8
 11
-120
 21
-24.6
  0
LINE
  8
0
 10
-120
 20
-24.6
 11
-121.386
 21
-23.8
  0
LINE
  8
0
 10
-123.5
 20
-41
 11
-123.5
 21
-29
  0
LINE
  8
0
 10
-123.5
 20
-29
 11
-116.5
 21
-29
  0
LINE
  8
0
 10
-116.5
 20
-29
 11
-116.5
 21
-41
  0
LINE
  8
0
 10
-116.5
 20
-41
 11
-123.5
 21
-41
  0
LINE
  8
0
 10
-121.386
 20
-47.8
 11
-121.386
 21
-46.2
  0
LINE
  8
0
 10
-121.386
 20
-46.2
 11
-120
 21
-45.4
  0
LINE
  8
0
 10
-120
 20
-45.4
 11
-118.614
 21
-46.2
  0
LINE
  8
0
 10
-118.614
 20
-46.2
 11
-118.614
 21
-47.8
  0
LINE
  8
0
 10
-118.614
 20
-47.8
 11
-120
 21
-48.6
  0
LINE
  8
0
 10
-120
 20
-48.6
 11
-121.386
 21
-47.8
  0
LINE
  8
0
 10
-129.5
 20
-71.5
 11
-129.5
 21
-58.5
  0
LINE
  8
0
 10
-129.5
 20
-58.5
 11
-110.5
 21
-58.5
  0
LINE
  8
0
 10
-110.5
 20
-58.5
 11
-110.5
 21
-71.5
  0
LINE
  8
0
 10
-110.5
 20
-71.5
 11
-129.5
 21
-71.5
  0
ENDSEC
  0
SECTION
  2
OBJECTS
  0
DICTIONARY
  0
ENDSEC
  0
EOF
