  0
SECTION
  2
BLOCKS
  0
ENDSEC
  0
SECTION
  2
ENTITIES
  0
LINE
  8
0
 10
-108.333
 20
-88.65
 11
-96.1111
 21
-88.65
  0
LINE
  8
0
 10
-96.1111
 20
-88.65
 11
-96.1111
 21
-92.5
  0
LINE
  8
0
 10
-96.1111
 20
-92.5
 11
-83.8889
 21
-92.5
  0
LINE
  8
0
 10
-83.8889
 20
-92.5
 11
-83.8889
 21
-88.65
  0
LINE
  8
0
 10
-83.8889
 20
-88.65
 11
-71.6667
 21
-88.65
  0
LINE
  8
0
 10
-71.6667
 20
-88.65
 11
-71.6667
 21
-92.5
  0
LINE
  8
0
 10
-71.6667
 20
-92.5
 11
-59.4445
 21
-92.5
  0
LINE
  8
0
 10
-59.4445
 20
-92.5
 11
-59.4445
 21
-88.65
  0
LINE
  8
0
 10
-59.4445
 20
-88.65
 11
-47.2222
 21
-88.65
  0
LINE
  8
0
 10
-47.2222
 20
-88.65
 11
-47.2222
 21
-92.5
  0
LINE
  8
0
 10
-47.2222
 20
-92.5
 11
-35
 21
-92.5
  0
LINE
  8
0
 10
-35
 20
-92.5
 11
-35
 21
-82.7632
  0
LINE
  8
0
 10
-35
 20
-82.7632
 11
-38.85
 21
-82.7632
  0
LINE
  8
0
 10
-38.85
 20
-82.7632
 11
-38.85
 21
-73.0263
  0
LINE
  8
0
 10
-38.85
 20
-73.0263
 11
-35
 21
-73.0263
  0
LINE
  8
0
 10
-35
 20
-73.0263
 11
-35
 21
-63.2895
  0
LINE
  8
0
 10
-35
 20
-63.2895
 11
-38.85
 21
-63.2895
  0
LINE
  8
0
 10
-38.85
 20
-63.2895
 11
-38.85
 21
-53.5526
  0
LINE
  8
0
 10
-38.85
 20
-53.5526
 11
-35
 21
-53.5526
  0
LINE
  8
0
 10
-35
 20
-53.5526
 11
-35
 21
-43.8158
  0
LINE
  8
0
 10
-35
 20
-43.8158
 11
-38.85
 21
-43.8158
  0
LINE
  8
0
 10
-38.85
 20
-43.8158
 11
-38.85
 21
-34.0789
  0
LINE
  8
0
 10
-38.85
 20
-34.0789
 11
-35
 21
-34.0789
  0
LINE
  8
0
 10
-35
 20
-34.0789
 11
-35
 21
-24.3421
  0
LINE
  8
0
 10
-35
 20
-24.3421
 11
-38.85
 21
-24.3421
  0
LINE
  8
0
 10
-38.85
 20
-24.3421
 11
-38.85
 21
-14.6053
  0
LINE
  8
0
 10
-38.85
 20
-14.6053
 11
-35
 21
-14.6053
  0
LINE
  8
0
 10
-35
 20
-14.6053
 11
-35
 21
-4.86841
  0
LINE
  8
0
 10
-35
 20
-4.86841
 11
-38.85
 21
-4.86841
  0
LINE
  8
0
 10
-38.85
 20
-4.86841
 11
-38.85
 21
4.86839
  0
LINE
  8
0
 10
-38.85
 20
4.86839
 11
-35
 21
4.86839
  0
LINE
  8
0
 10
-35
 20
4.86839
 11
-35
 21
14.6052
  0
LINE
  8
0
 10
-35
 20
14.6052
 11
-38.85
 21
14.6052
  0
LINE
  8
0
 10
-38.85
 20
14.6052
 11
-38.85
 21
24.3421
  0
LINE
  8
0
 10
-38.85
 20
24.3421
 11
-35
 21
24.3421
  0
LINE
  8
0
 10
-35
 20
24.3421
 11
-35
 21
34.0789
  0
LINE
  8
0
 10
-35
 20
34.0789
 11
-38.85
 21
34.0789
  0
LINE
  8
0
 10
-38.85
 20
34.0789
 11
-38.85
 21
43.8158
  0
LINE
  8
0
 10
-38.85
 20
43.8158
 11
-35
 21
43.8158
  0
LINE
  8
0
 10
-35
 20
43.8158
 11
-35
 21
53.5526
  0
LINE
  8
0
 10
-35
 20
53.5526
 11
-38.85
 21
53.5526
  0
LINE
  8
0
 10
-38.85
 20
53.5526
 11
-38.85
 21
63.2894
  0
LINE
  8
0
 10
-38.85
 20
63.2894
 11
-35
 21
63.2894
  0
LINE
  8
0
 10
-35
 20
63.2894
 11
-35
 21
73.0263
  0
LINE
  8
0
 10
-35
 20
73.0263
 11
-38.85
 21
73.0263
  0
LINE
  8
0
 10
-38.85
 20
73.0263
 11
-38.85
 21
82.7631
  0
LINE
  8
0
 10
-38.85
 20
82.7631
 11
-35
 21
82.7631
  0
LINE
  8
0
 10
-35
 20
82.7631
 11
-35
 21
92.5
  0
LINE
  8
0
 10
-35
 20
92.5
 11
-47.2222
 21
92.5
  0
LINE
  8
0
 10
-47.2222
 20
92.5
 11
-47.2222
 21
88.65
  0
LINE
  8
0
 10
-47.2222
 20
88.65
 11
-59.4444
 21
88.65
  0
LINE
  8
0
 10
-59.4444
 20
88.65
 11
-59.4444
 21
92.5
  0
LINE
  8
0
 10
-59.4444
 20
92.5
 11
-71.6667
 21
92.5
  0
LINE
  8
0
 10
-71.6667
 20
92.5
 11
-71.6667
 21
88.65
  0
LINE
  8
0
 10
-71.6667
 20
88.65
 11
-83.8889
 21
88.65
  0
LINE
  8
0
 10
-83.8889
 20
88.65
 11
-83.8889
 21
92.5
  0
LINE
  8
0
 10
-83.8889
 20
92.5
 11
-96.1111
 21
92.5
  0
LINE
  8
0
 10
-96.1111
 20
92.5
 11
-96.1111
 21
88.65
  0
LINE
  8
0
 10
-96.1111
 20
88.65
 11
-108.333
 21
88.65
  0
LINE
  8
0
 10
-108.333
 20
88.65
 11
-108.333
 21
92.5
  0
LINE
  8
0
 10
-108.333
 20
92.5
 11
-120.556
 21
92.5
  0
LINE
  8
0
 10
-120.556
 20
92.5
 11
-120.556
 21
88.65
  0
LINE
  8
0
 10
-120.556
 20
88.65
 11
-132.778
 21
88.65
  0
LINE
  8
0
 10
-132.778
 20
88.65
 11
-132.778
 21
92.5
  0
LINE
  8
0
 10
-132.778
 20
92.5
 11
-145
 21
92.5
  0
LINE
  8
0
 10
-145
 20
92.5
 11
-145
 21
82.7632
  0
LINE
  8
0
 10
-145
 20
82.7632
 11
-141.15
 21
82.7632
  0
LINE
  8
0
 10
-141.15
 20
82.7632
 11
-141.15
 21
73.0263
  0
LINE
  8
0
 10
-141.15
 20
73.0263
 11
-145
 21
73.0263
  0
LINE
  8
0
 10
-145
 20
73.0263
 11
-145
 21
63.2895
  0
LINE
  8
0
 10
-145
 20
63.2895
 11
-141.15
 21
63.2895
  0
LINE
  8
0
 10
-141.15
 20
63.2895
 11
-141.15
 21
53.5526
  0
LINE
  8
0
 10
-141.15
 20
53.5526
 11
-145
 21
53.5526
  0
LINE
  8
0
 10
-145
 20
53.5526
 11
-145
 21
43.8158
  0
LINE
  8
0
 10
-145
 20
43.8158
 11
-141.15
 21
43.8158
  0
LINE
  8
0
 10
-141.15
 20
43.8158
 11
-141.15
 21
34.0789
  0
LINE
  8
0
 10
-141.15
 20
34.0789
 11
-145
 21
34.0789
  0
LINE
  8
0
 10
-145
 20
34.0789
 11
-145
 21
24.3421
  0
LINE
  8
0
 10
-145
 20
24.3421
 11
-141.15
 21
24.3421
  0
LINE
  8
0
 10
-141.15
 20
24.3421
 11
-141.15
 21
14.6053
  0
LINE
  8
0
 10
-141.15
 20
14.6053
 11
-145
 21
14.6053
  0
LINE
  8
0
 10
-145
 20
14.6053
 11
-145
 21
4.86841
  0
LINE
  8
0
 10
-145
 20
4.86841
 11
-141.15
 21
4.86841
  0
LINE
  8
0
 10
-141.15
 20
4.86841
 11
-141.15
 21
-4.86839
  0
LINE
  8
0
 10
-141.15
 20
-4.86839
 11
-145
 21
-4.86839
  0
LINE
  8
0
 10
-145
 20
-4.86839
 11
-145
 21
-14.6052
  0
LINE
  8
0
 10
-145
 20
-14.6052
 11
-141.15
 21
-14.6052
  0
LINE
  8
0
 10
-141.15
 20
-14.6052
 11
-141.15
 21
-24.3421
  0
LINE
  8
0
 10
-141.15
 20
-24.3421
 11
-145
 21
-24.3421
  0
LINE
  8
0
 10
-145
 20
-24.3421
 11
-145
 21
-34.0789
  0
LINE
  8
0
 10
-145
 20
-34.0789
 11
-141.15
 21
-34.0789
  0
LINE
  8
0
 10
-141.15
 20
-34.0789
 11
-141.15
 21
-43.8158
  0
LINE
  8
0
 10
-141.15
 20
-43.8158
 11
-145
 21
-43.8158
  0
LINE
  8
0
 10
-145
 20
-43.8158
 11
-145
 21
-53.5526
  0
LINE
  8
0
 10
-145
 20
-53.5526
 11
-141.15
 21
-53.5526
  0
LINE
  8
0
 10
-141.15
 20
-53.5526
 11
-141.15
 21
-63.2894
  0
LINE
  8
0
 10
-141.15
 20
-63.2894
 11
-145
 21
-63.2894
  0
LINE
  8
0
 10
-145
 20
-63.2894
 11
-145
 21
-73.0263
  0
LINE
  8
0
 10
-145
 20
-73.0263
 11
-141.15
 21
-73.0263
  0
LINE
  8
0
 10
-141.15
 20
-73.0263
 11
-141.15
 21
-82.7631
  0
LINE
  8
0
 10
-141.15
 20
-82.7631
 11
-145
 21
-82.7631
  0
LINE
  8
0
 10
-145
 20
-82.7631
 11
-145
 21
-92.5
  0
LINE
  8
0
 10
-145
 20
-92.5
 11
-132.778
 21
-92.5
  0
LINE
  8
0
 10
-132.778
 20
-92.5
 11
-132.778
 21
-88.65
  0
LINE
  8
0
 10
-132.778
 20
-88.65
 11
-120.556
 21
-88.65
  0
LINE
  8
0
 10
-120.556
 20
-88.65
 11
-120.556
 21
-92.5
  0
LINE
  8
0
 10
-120.556
 20
-92.5
 11
-108.333
 21
-92.5
  0
LINE
  8
0
 10
-108.333
 20
-92.5
 11
-108.333
 21
-88.65
  0
LINE
  8
0
 10
80
 20
-63.2895
 11
80
 21
-53.5526
  0
LINE
  8
0
 10
80
 20
-53.5526
 11
76.15
 21
-53.5526
  0
LINE
  8
0
 10
76.15
 20
-53.5526
 11
76.15
 21
-43.8158
  0
LINE
  8
0
 10
76.15
 20
-43.8158
 11
80
 21
-43.8158
  0
LINE
  8
0
 10
80
 20
-43.8158
 11
80
 21
-34.0789
  0
LINE
  8
0
 10
80
 20
-34.0789
 11
76.15
 21
-34.0789
  0
LINE
  8
0
 10
76.15
 20
-34.0789
 11
76.15
 21
-24.3421
  0
LINE
  8
0
 10
76.15
 20
-24.3421
 11
80
 21
-24.3421
  0
LINE
  8
0
 10
80
 20
-24.3421
 11
80
 21
-14.6053
  0
LINE
  8
0
 10
80
 20
-14.6053
 11
76.15
 21
-14.6053
  0
LINE
  8
0
 10
76.15
 20
-14.6053
 11
76.15
 21
-4.86841
  0
LINE
  8
0
 10
76.15
 20
-4.86841
 11
80
 21
-4.86841
  0
LINE
  8
0
 10
80
 20
-4.86841
 11
80
 21
4.86839
  0
LINE
  8
0
 10
80
 20
4.86839
 11
76.15
 21
4.86839
  0
LINE
  8
0
 10
76.15
 20
4.86839
 11
76.15
 21
14.6052
  0
LINE
  8
0
 10
76.15
 20
14.6052
 11
80
 21
14.6052
  0
LINE
  8
0
 10
80
 20
14.6052
 11
80
 21
24.3421
  0
LINE
  8
0
 10
80
 20
24.3421
 11
76.15
 21
24.3421
  0
LINE
  8
0
 10
76.15
 20
24.3421
 11
76.15
 21
34.0789
  0
LINE
  8
0
 10
76.15
 20
34.0789
 11
80
 21
34.0789
  0
LINE
  8
0
 10
80
 20
34.0789
 11
80
 21
43.8158
  0
LINE
  8
0
 10
80
 20
43.8158
 11
76.15
 21
43.8158
  0
LINE
  8
0
 10
76.15
 20
43.8158
 11
76.15
 21
53.5526
  0
LINE
  8
0
 10
76.15
 20
53.5526
 11
80
 21
53.5526
  0
LINE
  8
0
 10
80
 20
53.5526
 11
80
 21
63.2894
  0
LINE
  8
0
 10
80
 20
63.2894
 11
76.15
 21
63.2894
  0
LINE
  8
0
 10
76.15
 20
63.2894
 11
76.15
 21
73.0263
  0
LINE
  8
0
 10
76.15
 20
73.0263
 11
80
 21
73.0263
  0
LINE
  8
0
 10
80
 20
73.0263
 11
80
 21
82.7631
  0
LINE
  8
0
 10
80
 20
82.7631
 11
76.15
 21
82.7631
  0
LINE
  8
0
 10
76.15
 20
82.7631
 11
76.15
 21
88.65
  0
LINE
  8
0
 10
76.15
 20
88.65
 11
67.7778
 21
88.65
  0
LINE
  8
0
 10
67.7778
 20
88.65
 11
67.7778
 21
92.5
  0
LINE
  8
0
 10
67.7778
 20
92.5
 11
55.5555
 21
92.5
  0
LINE
  8
0
 10
55.5555
 20
92.5
 11
55.5555
 21
88.65
  0
LINE
  8
0
 10
55.5555
 20
88.65
 11
43.3333
 21
88.65
  0
LINE
  8
0
 10
43.3333
 20
88.65
 11
43.3333
 21
92.5
  0
LINE
  8
0
 10
43.3333
 20
92.5
 11
31.1111
 21
92.5
  0
LINE
  8
0
 10
31.1111
 20
92.5
 11
31.1111
 21
88.65
  0
LINE
  8
0
 10
31.1111
 20
88.65
 11
18.8889
 21
88.65
  0
LINE
  8
0
 10
18.8889
 20
88.65
 11
18.8889
 21
92.5
  0
LINE
  8
0
 10
18.8889
 20
92.5
 11
6.66667
 21
92.5
  0
LINE
  8
0
 10
6.66667
 20
92.5
 11
6.66667
 21
88.65
  0
LINE
  8
0
 10
6.66667
 20
88.65
 11
-5.55553
 21
88.65
  0
LINE
  8
0
 10
-5.55553
 20
88.65
 11
-5.55553
 21
92.5
  0
LINE
  8
0
 10
-5.55553
 20
92.5
 11
-17.7778
 21
92.5
  0
LINE
  8
0
 10
-17.7778
 20
92.5
 11
-17.7778
 21
88.65
  0
LINE
  8
0
 10
-17.7778
 20
88.65
 11
-26.15
 21
88.65
  0
LINE
  8
0
 10
-26.15
 20
88.65
 11
-26.15
 21
82.7632
  0
LINE
  8
0
 10
-26.15
 20
82.7632
 11
-30
 21
82.7632
  0
LINE
  8
0
 10
-30
 20
82.7632
 11
-30
 21
73.0263
  0
LINE
  8
0
 10
-30
 20
73.0263
 11
-26.15
 21
73.0263
  0
LINE
  8
0
 10
-26.15
 20
73.0263
 11
-26.15
 21
63.2895
  0
LINE
  8
0
 10
-26.15
 20
63.2895
 11
-30
 21
63.2895
  0
LINE
  8
0
 10
-30
 20
63.2895
 11
-30
 21
53.5526
  0
LINE
  8
0
 10
-30
 20
53.5526
 11
-26.15
 21
53.5526
  0
LINE
  8
0
 10
-26.15
 20
53.5526
 11
-26.15
 21
43.8158
  0
LINE
  8
0
 10
-26.15
 20
43.8158
 11
-30
 21
43.8158
  0
LINE
  8
0
 10
-30
 20
43.8158
 11
-30
 21
34.0789
  0
LINE
  8
0
 10
-30
 20
34.0789
 11
-26.15
 21
34.0789
  0
LINE
  8
0
 10
-26.15
 20
34.0789
 11
-26.15
 21
24.3421
  0
LINE
  8
0
 10
-26.15
 20
24.3421
 11
-30
 21
24.3421
  0
LINE
  8
0
 10
-30
 20
24.3421
 11
-30
 21
14.6053
  0
LINE
  8
0
 10
-30
 20
14.6053
 11
-26.15
 21
14.6053
  0
LINE
  8
0
 10
-26.15
 20
14.6053
 11
-26.15
 21
4.86841
  0
LINE
  8
0
 10
-26.15
 20
4.86841
 11
-30
 21
4.86841
  0
LINE
  8
0
 10
-30
 20
4.86841
 11
-30
 21
-4.86839
  0
LINE
  8
0
 10
-30
 20
-4.86839
 11
-26.15
 21
-4.86839
  0
LINE
  8
0
 10
-26.15
 20
-4.86839
 11
-26.15
 21
-14.6052
  0
LINE
  8
0
 10
-26.15
 20
-14.6052
 11
-30
 21
-14.6052
  0
LINE
  8
0
 10
-30
 20
-14.6052
 11
-30
 21
-24.3421
  0
LINE
  8
0
 10
-30
 20
-24.3421
 11
-26.15
 21
-24.3421
  0
LINE
  8
0
 10
-26.15
 20
-24.3421
 11
-26.15
 21
-34.0789
  0
LINE
  8
0
 10
-26.15
 20
-34.0789
 11
-30
 21
-34.0789
  0
LINE
  8
0
 10
-30
 20
-34.0789
 11
-30
 21
-43.8158
  0
LINE
  8
0
 10
-30
 20
-43.8158
 11
-26.15
 21
-43.8158
  0
LINE
  8
0
 10
-26.15
 20
-43.8158
 11
-26.15
 21
-53.5526
  0
LINE
  8
0
 10
-26.15
 20
-53.5526
 11
-30
 21
-53.5526
  0
LINE
  8
0
 10
-30
 20
-53.5526
 11
-30
 21
-63.2894
  0
LINE
  8
0
 10
-30
 20
-63.2894
 11
-26.15
 21
-63.2894
  0
LINE
  8
0
 10
-26.15
 20
-63.2894
 11
-26.15
 21
-73.0263
  0
LINE
  8
0
 10
-26.15
 20
-73.0263
 11
-30
 21
-73.0263
  0
LINE
  8
0
 10
-30
 20
-73.0263
 11
-30
 21
-82.7631
  0
LINE
  8
0
 10
-30
 20
-82.7631
 11
-26.15
 21
-82.7631
  0
LINE
  8
0
 10
-26.15
 20
-82.7631
 11
-26.15
 21
-88.65
  0
LINE
  8
0
 10
-26.15
 20
-88.65
 11
-17.7778
 21
-88.65
  0
LINE
  8
0
 10
-17.7778
 20
-88.65
 11
-17.7778
 21
-92.5
  0
LINE
  8
0
 10
-17.7778
 20
-92.5
 11
-5.55554
 21
-92.5
  0
LINE
  8
0
 10
-5.55554
 20
-92.5
 11
-5.55554
 21
-88.65
  0
LINE
  8
0
 10
-5.55554
 20
-88.65
 11
6.66666
 21
-88.65
  0
LINE
  8
0
 10
6.66666
 20
-88.65
 11
6.66666
 21
-92.5
  0
LINE
  8
0
 10
6.66666
 20
-92.5
 11
18.8889
 21
-92.5
  0
LINE
  8
0
 10
18.8889
 20
-92.5
 11
18.8889
 21
-88.65
  0
LINE
  8
0
 10
18.8889
 20
-88.65
 11
31.1111
 21
-88.65
  0
LINE
  8
0
 10
31.1111
 20
-88.65
 11
31.1111
 21
-92.5
  0
LINE
  8
0
 10
31.1111
 20
-92.5
 11
43.3333
 21
-92.5
  0
LINE
  8
0
 10
43.3333
 20
-92.5
 11
43.3333
 21
-88.65
  0
LINE
  8
0
 10
43.3333
 20
-88.65
 11
55.5555
 21
-88.65
  0
LINE
  8
0
 10
55.5555
 20
-88.65
 11
55.5555
 21
-92.5
  0
LINE
  8
0
 10
55.5555
 20
-92.5
 11
67.7778
 21
-92.5
  0
LINE
  8
0
 10
67.7778
 20
-92.5
 11
67.7778
 21
-88.65
  0
LINE
  8
0
 10
67.7778
 20
-88.65
 11
76.15
 21
-88.65
  0
LINE
  8
0
 10
76.15
 20
-88.65
 11
76.15
 21
-82.7632
  0
LINE
  8
0
 10
76.15
 20
-82.7632
 11
80
 21
-82.7632
  0
LINE
  8
0
 10
80
 20
-82.7632
 11
80
 21
-73.0263
  0
LINE
  8
0
 10
80
 20
-73.0263
 11
76.15
 21
-73.0263
  0
LINE
  8
0
 10
76.15
 20
-73.0263
 11
76.15
 21
-63.2895
  0
LINE
  8
0
 10
76.15
 20
-63.2895
 11
80
 21
-63.2895
  0
ENDSEC
  0
SECTION
  2
OBJECTS
  0
DICTIONARY
  0
ENDSEC
  0
EOF
