  0
SECTION
  2
BLOCKS
  0
ENDSEC
  0
SECTION
  2
ENTITIES
  0
LINE
  8
0
 10
9.08798
 20
-47.6409
 11
14.9873
 21
-46.1262
  0
LINE
  8
0
 10
14.9873
 20
-46.1262
 11
20.6503
 21
-43.8841
  0
LINE
  8
0
 10
20.6503
 20
-43.8841
 11
25.9876
 21
-40.9499
  0
LINE
  8
0
 10
25.9876
 20
-40.9499
 11
30.9151
 21
-37.3699
  0
LINE
  8
0
 10
30.9151
 20
-37.3699
 11
35.355
 21
-33.2005
  0
LINE
  8
0
 10
35.355
 20
-33.2005
 11
39.2373
 21
-28.5076
  0
LINE
  8
0
 10
39.2373
 20
-28.5076
 11
42.5009
 21
-23.3651
  0
LINE
  8
0
 10
42.5009
 20
-23.3651
 11
45.0941
 21
-17.854
  0
LINE
  8
0
 10
45.0941
 20
-17.854
 11
46.9763
 21
-12.0614
  0
LINE
  8
0
 10
46.9763
 20
-12.0614
 11
48.1176
 21
-6.07866
  0
LINE
  8
0
 10
48.1176
 20
-6.07866
 11
48.5
 21
0
  0
LINE
  8
0
 10
48.5
 20
0
 11
48.1176
 21
6.07866
  0
LINE
  8
0
 10
48.1176
 20
6.07866
 11
46.9763
 21
12.0614
  0
LINE
  8
0
 10
46.9763
 20
12.0614
 11
45.0941
 21
17.854
  0
LINE
  8
0
 10
45.0941
 20
17.854
 11
42.5009
 21
23.3651
  0
LINE
  8
0
 10
42.5009
 20
23.3651
 11
39.2373
 21
28.5076
  0
LINE
  8
0
 10
39.2373
 20
28.5076
 11
35.355
 21
33.2005
  0
LINE
  8
0
 10
35.355
 20
33.2005
 11
30.9151
 21
37.3699
  0
LINE
  8
0
 10
30.9151
 20
37.3699
 11
25.9876
 21
40.9499
  0
LINE
  8
0
 10
25.9876
 20
40.9499
 11
20.6503
 21
43.8841
  0
LINE
  8
0
 10
20.6503
 20
43.8841
 11
14.9873
 21
46.1262
  0
LINE
  8
0
 10
14.9873
 20
46.1262
 11
9.08798
 21
47.6409
  0
LINE
  8
0
 10
9.08798
 20
47.6409
 11
3.04533
 21
48.4043
  0
LINE
  8
0
 10
3.04533
 20
48.4043
 11
-3.04533
 21
48.4043
  0
LINE
  8
0
 10
-3.04533
 20
48.4043
 11
-9.08798
 21
47.6409
  0
LINE
  8
0
 10
-9.08798
 20
47.6409
 11
-14.9873
 21
46.1262
  0
LINE
  8
0
 10
-14.9873
 20
46.1262
 11
-20.6503
 21
43.8841
  0
LINE
  8
0
 10
-20.6503
 20
43.8841
 11
-25.9876
 21
40.9499
  0
LINE
  8
0
 10
-25.9876
 20
40.9499
 11
-30.9151
 21
37.3699
  0
LINE
  8
0
 10
-30.9151
 20
37.3699
 11
-35.355
 21
33.2005
  0
LINE
  8
0
 10
-35.355
 20
33.2005
 11
-39.2373
 21
28.5076
  0
LINE
  8
0
 10
-39.2373
 20
28.5076
 11
-42.5009
 21
23.3651
  0
LINE
  8
0
 10
-42.5009
 20
23.3651
 11
-45.0941
 21
17.854
  0
LINE
  8
0
 10
-45.0941
 20
17.854
 11
-46.9763
 21
12.0614
  0
LINE
  8
0
 10
-46.9763
 20
12.0614
 11
-48.1176
 21
6.07866
  0
LINE
  8
0
 10
-48.1176
 20
6.07866
 11
-48.5
 21
0
  0
LINE
  8
0
 10
-48.5
 20
0
 11
-48.1176
 21
-6.07866
  0
LINE
  8
0
 10
-48.1176
 20
-6.07866
 11
-46.9763
 21
-12.0614
  0
LINE
  8
0
 10
-46.9763
 20
-12.0614
 11
-45.0941
 21
-17.854
  0
LINE
  8
0
 10
-45.0941
 20
-17.854
 11
-42.5009
 21
-23.3651
  0
LINE
  8
0
 10
-42.5009
 20
-23.3651
 11
-39.2373
 21
-28.5076
  0
LINE
  8
0
 10
-39.2373
 20
-28.5076
 11
-35.355
 21
-33.2005
  0
LINE
  8
0
 10
-35.355
 20
-33.2005
 11
-30.9151
 21
-37.3699
  0
LINE
  8
0
 10
-30.9151
 20
-37.3699
 11
-25.9876
 21
-40.9499
  0
LINE
  8
0
 10
-25.9876
 20
-40.9499
 11
-20.6503
 21
-43.8841
  0
LINE
  8
0
 10
-20.6503
 20
-43.8841
 11
-14.9873
 21
-46.1262
  0
LINE
  8
0
 10
-14.9873
 20
-46.1262
 11
-9.08798
 21
-47.6409
  0
LINE
  8
0
 10
-9.08798
 20
-47.6409
 11
-3.04533
 21
-48.4043
  0
LINE
  8
0
 10
-3.04533
 20
-48.4043
 11
3.04533
 21
-48.4043
  0
LINE
  8
0
 10
3.04533
 20
-48.4043
 11
9.08798
 21
-47.6409
  0
LINE
  8
0
 10
-2.35463
 20
-37.426
 11
-7.02679
 21
-36.8358
  0
LINE
  8
0
 10
-7.02679
 20
-36.8358
 11
-11.5881
 21
-35.6646
  0
LINE
  8
0
 10
-11.5881
 20
-35.6646
 11
-15.9667
 21
-33.931
  0
LINE
  8
0
 10
-15.9667
 20
-33.931
 11
-20.0935
 21
-31.6623
  0
LINE
  8
0
 10
-20.0935
 20
-31.6623
 11
-23.9034
 21
-28.8942
  0
LINE
  8
0
 10
-23.9034
 20
-28.8942
 11
-27.3363
 21
-25.6705
  0
LINE
  8
0
 10
-27.3363
 20
-25.6705
 11
-30.3381
 21
-22.0419
  0
LINE
  8
0
 10
-30.3381
 20
-22.0419
 11
-32.8615
 21
-18.0658
  0
LINE
  8
0
 10
-32.8615
 20
-18.0658
 11
-34.8666
 21
-13.8047
  0
LINE
  8
0
 10
-34.8666
 20
-13.8047
 11
-36.3219
 21
-9.32587
  0
LINE
  8
0
 10
-36.3219
 20
-9.32587
 11
-37.2043
 21
-4.69998
  0
LINE
  8
0
 10
-37.2043
 20
-4.69998
 11
-37.5
 21
0
  0
LINE
  8
0
 10
-37.5
 20
0
 11
-37.2043
 21
4.69998
  0
LINE
  8
0
 10
-37.2043
 20
4.69998
 11
-36.3219
 21
9.32587
  0
LINE
  8
0
 10
-36.3219
 20
9.32587
 11
-34.8666
 21
13.8047
  0
LINE
  8
0
 10
-34.8666
 20
13.8047
 11
-32.8615
 21
18.0658
  0
LINE
  8
0
 10
-32.8615
 20
18.0658
 11
-30.3381
 21
22.0419
  0
LINE
  8
0
 10
-30.3381
 20
22.0419
 11
-27.3363
 21
25.6705
  0
LINE
  8
0
 10
-27.3363
 20
25.6705
 11
-23.9034
 21
28.8942
  0
LINE
  8
0
 10
-23.9034
 20
28.8942
 11
-20.0935
 21
31.6623
  0
LINE
  8
0
 10
-20.0935
 20
31.6623
 11
-15.9667
 21
33.931
  0
LINE
  8
0
 10
-15.9667
 20
33.931
 11
-11.5881
 21
35.6646
  0
LINE
  8
0
 10
-11.5881
 20
35.6646
 11
-7.02679
 21
36.8358
  0
LINE
  8
0
 10
-7.02679
 20
36.8358
 11
-2.35463
 21
37.426
  0
LINE
  8
0
 10
-2.35463
 20
37.426
 11
2.35463
 21
37.426
  0
LINE
  8
0
 10
2.35463
 20
37.426
 11
7.02679
 21
36.8358
  0
LINE
  8
0
 10
7.02679
 20
36.8358
 11
11.5881
 21
35.6646
  0
LINE
  8
0
 10
11.5881
 20
35.6646
 11
15.9667
 21
33.931
  0
LINE
  8
0
 10
15.9667
 20
33.931
 11
20.0935
 21
31.6623
  0
LINE
  8
0
 10
20.0935
 20
31.6623
 11
23.9034
 21
28.8942
  0
LINE
  8
0
 10
23.9034
 20
28.8942
 11
27.3363
 21
25.6705
  0
LINE
  8
0
 10
27.3363
 20
25.6705
 11
30.3381
 21
22.0419
  0
LINE
  8
0
 10
30.3381
 20
22.0419
 11
32.8615
 21
18.0658
  0
LINE
  8
0
 10
32.8615
 20
18.0658
 11
34.8666
 21
13.8047
  0
LINE
  8
0
 10
34.8666
 20
13.8047
 11
36.3219
 21
9.32587
  0
LINE
  8
0
 10
36.3219
 20
9.32587
 11
37.2043
 21
4.69998
  0
LINE
  8
0
 10
37.2043
 20
4.69998
 11
37.5
 21
0
  0
LINE
  8
0
 10
37.5
 20
0
 11
37.2043
 21
-4.69998
  0
LINE
  8
0
 10
37.2043
 20
-4.69998
 11
36.3219
 21
-9.32587
  0
LINE
  8
0
 10
36.3219
 20
-9.32587
 11
34.8666
 21
-13.8047
  0
LINE
  8
0
 10
34.8666
 20
-13.8047
 11
32.8615
 21
-18.0658
  0
LINE
  8
0
 10
32.8615
 20
-18.0658
 11
30.3381
 21
-22.0419
  0
LINE
  8
0
 10
30.3381
 20
-22.0419
 11
27.3363
 21
-25.6705
  0
LINE
  8
0
 10
27.3363
 20
-25.6705
 11
23.9034
 21
-28.8942
  0
LINE
  8
0
 10
23.9034
 20
-28.8942
 11
20.0935
 21
-31.6623
  0
LINE
  8
0
 10
20.0935
 20
-31.6623
 11
15.9667
 21
-33.931
  0
LINE
  8
0
 10
15.9667
 20
-33.931
 11
11.5881
 21
-35.6646
  0
LINE
  8
0
 10
11.5881
 20
-35.6646
 11
7.02679
 21
-36.8358
  0
LINE
  8
0
 10
7.02679
 20
-36.8358
 11
2.35463
 21
-37.426
  0
LINE
  8
0
 10
2.35463
 20
-37.426
 11
-2.35463
 21
-37.426
  0
LINE
  8
0
 10
-30.3756
 20
28.2539
 11
-30.6248
 21
28.2854
  0
LINE
  8
0
 10
-30.6248
 20
28.2854
 11
-30.868
 21
28.3479
  0
LINE
  8
0
 10
-30.868
 20
28.3479
 11
-31.1015
 21
28.4403
  0
LINE
  8
0
 10
-31.1015
 20
28.4403
 11
-31.3216
 21
28.5613
  0
LINE
  8
0
 10
-31.3216
 20
28.5613
 11
-31.5248
 21
28.709
  0
LINE
  8
0
 10
-31.5248
 20
28.709
 11
-31.7079
 21
28.8809
  0
LINE
  8
0
 10
-31.7079
 20
28.8809
 11
-31.868
 21
29.0744
  0
LINE
  8
0
 10
-31.868
 20
29.0744
 11
-32.0026
 21
29.2865
  0
LINE
  8
0
 10
-32.0026
 20
29.2865
 11
-32.1095
 21
29.5137
  0
LINE
  8
0
 10
-32.1095
 20
29.5137
 11
-32.1872
 21
29.7526
  0
LINE
  8
0
 10
-32.1872
 20
29.7526
 11
-32.2342
 21
29.9993
  0
LINE
  8
0
 10
-32.2342
 20
29.9993
 11
-32.25
 21
30.25
  0
LINE
  8
0
 10
-32.25
 20
30.25
 11
-32.2342
 21
30.5007
  0
LINE
  8
0
 10
-32.2342
 20
30.5007
 11
-32.1872
 21
30.7474
  0
LINE
  8
0
 10
-32.1872
 20
30.7474
 11
-32.1095
 21
30.9862
  0
LINE
  8
0
 10
-32.1095
 20
30.9862
 11
-32.0026
 21
31.2135
  0
LINE
  8
0
 10
-32.0026
 20
31.2135
 11
-31.868
 21
31.4256
  0
LINE
  8
0
 10
-31.868
 20
31.4256
 11
-31.7079
 21
31.6191
  0
LINE
  8
0
 10
-31.7079
 20
31.6191
 11
-31.5248
 21
31.791
  0
LINE
  8
0
 10
-31.5248
 20
31.791
 11
-31.3216
 21
31.9386
  0
LINE
  8
0
 10
-31.3216
 20
31.9386
 11
-31.1015
 21
32.0596
  0
LINE
  8
0
 10
-31.1015
 20
32.0596
 11
-30.868
 21
32.1521
  0
LINE
  8
0
 10
-30.868
 20
32.1521
 11
-30.6248
 21
32.2146
  0
LINE
  8
0
 10
-30.6248
 20
32.2146
 11
-30.3756
 21
32.246
  0
LINE
  8
0
 10
-30.3756
 20
32.246
 11
-30.1244
 21
32.246
  0
LINE
  8
0
 10
-30.1244
 20
32.246
 11
-29.8752
 21
32.2146
  0
LINE
  8
0
 10
-29.8752
 20
32.2146
 11
-29.632
 21
32.1521
  0
LINE
  8
0
 10
-29.632
 20
32.1521
 11
-29.3984
 21
32.0596
  0
LINE
  8
0
 10
-29.3984
 20
32.0596
 11
-29.1783
 21
31.9386
  0
LINE
  8
0
 10
-29.1783
 20
31.9386
 11
-28.9751
 21
31.791
  0
LINE
  8
0
 10
-28.9751
 20
31.791
 11
-28.7921
 21
31.6191
  0
LINE
  8
0
 10
-28.7921
 20
31.6191
 11
-28.632
 21
31.4256
  0
LINE
  8
0
 10
-28.632
 20
31.4256
 11
-28.4974
 21
31.2135
  0
LINE
  8
0
 10
-28.4974
 20
31.2135
 11
-28.3904
 21
30.9862
  0
LINE
  8
0
 10
-28.3904
 20
30.9862
 11
-28.3128
 21
30.7474
  0
LINE
  8
0
 10
-28.3128
 20
30.7474
 11
-28.2658
 21
30.5007
  0
LINE
  8
0
 10
-28.2658
 20
30.5007
 11
-28.25
 21
30.25
  0
LINE
  8
0
 10
-28.25
 20
30.25
 11
-28.2658
 21
29.9993
  0
LINE
  8
0
 10
-28.2658
 20
29.9993
 11
-28.3128
 21
29.7526
  0
LINE
  8
0
 10
-28.3128
 20
29.7526
 11
-28.3904
 21
29.5137
  0
LINE
  8
0
 10
-28.3904
 20
29.5137
 11
-28.4974
 21
29.2865
  0
LINE
  8
0
 10
-28.4974
 20
29.2865
 11
-28.632
 21
29.0744
  0
LINE
  8
0
 10
-28.632
 20
29.0744
 11
-28.7921
 21
28.8809
  0
LINE
  8
0
 10
-28.7921
 20
28.8809
 11
-28.9751
 21
28.709
  0
LINE
  8
0
 10
-28.9751
 20
28.709
 11
-29.1783
 21
28.5613
  0
LINE
  8
0
 10
-29.1783
 20
28.5613
 11
-29.3984
 21
28.4403
  0
LINE
  8
0
 10
-29.3984
 20
28.4403
 11
-29.632
 21
28.3479
  0
LINE
  8
0
 10
-29.632
 20
28.3479
 11
-29.8752
 21
28.2854
  0
LINE
  8
0
 10
-29.8752
 20
28.2854
 11
-30.1244
 21
28.2539
  0
LINE
  8
0
 10
-30.1244
 20
28.2539
 11
-30.3756
 21
28.2539
  0
LINE
  8
0
 10
30.1244
 20
28.2539
 11
29.8752
 21
28.2854
  0
LINE
  8
0
 10
29.8752
 20
28.2854
 11
29.632
 21
28.3479
  0
LINE
  8
0
 10
29.632
 20
28.3479
 11
29.3984
 21
28.4403
  0
LINE
  8
0
 10
29.3984
 20
28.4403
 11
29.1783
 21
28.5613
  0
LINE
  8
0
 10
29.1783
 20
28.5613
 11
28.9751
 21
28.709
  0
LINE
  8
0
 10
28.9751
 20
28.709
 11
28.7921
 21
28.8809
  0
LINE
  8
0
 10
28.7921
 20
28.8809
 11
28.632
 21
29.0744
  0
LINE
  8
0
 10
28.632
 20
29.0744
 11
28.4974
 21
29.2865
  0
LINE
  8
0
 10
28.4974
 20
29.2865
 11
28.3904
 21
29.5137
  0
LINE
  8
0
 10
28.3904
 20
29.5137
 11
28.3128
 21
29.7526
  0
LINE
  8
0
 10
28.3128
 20
29.7526
 11
28.2658
 21
29.9993
  0
LINE
  8
0
 10
28.2658
 20
29.9993
 11
28.25
 21
30.25
  0
LINE
  8
0
 10
28.25
 20
30.25
 11
28.2658
 21
30.5007
  0
LINE
  8
0
 10
28.2658
 20
30.5007
 11
28.3128
 21
30.7474
  0
LINE
  8
0
 10
28.3128
 20
30.7474
 11
28.3904
 21
30.9862
  0
LINE
  8
0
 10
28.3904
 20
30.9862
 11
28.4974
 21
31.2135
  0
LINE
  8
0
 10
28.4974
 20
31.2135
 11
28.632
 21
31.4256
  0
LINE
  8
0
 10
28.632
 20
31.4256
 11
28.7921
 21
31.6191
  0
LINE
  8
0
 10
28.7921
 20
31.6191
 11
28.9751
 21
31.791
  0
LINE
  8
0
 10
28.9751
 20
31.791
 11
29.1783
 21
31.9386
  0
LINE
  8
0
 10
29.1783
 20
31.9386
 11
29.3984
 21
32.0596
  0
LINE
  8
0
 10
29.3984
 20
32.0596
 11
29.632
 21
32.1521
  0
LINE
  8
0
 10
29.632
 20
32.1521
 11
29.8752
 21
32.2146
  0
LINE
  8
0
 10
29.8752
 20
32.2146
 11
30.1244
 21
32.246
  0
LINE
  8
0
 10
30.1244
 20
32.246
 11
30.3756
 21
32.246
  0
LINE
  8
0
 10
30.3756
 20
32.246
 11
30.6248
 21
32.2146
  0
LINE
  8
0
 10
30.6248
 20
32.2146
 11
30.868
 21
32.1521
  0
LINE
  8
0
 10
30.868
 20
32.1521
 11
31.1015
 21
32.0596
  0
LINE
  8
0
 10
31.1015
 20
32.0596
 11
31.3216
 21
31.9386
  0
LINE
  8
0
 10
31.3216
 20
31.9386
 11
31.5248
 21
31.791
  0
LINE
  8
0
 10
31.5248
 20
31.791
 11
31.7079
 21
31.6191
  0
LINE
  8
0
 10
31.7079
 20
31.6191
 11
31.868
 21
31.4256
  0
LINE
  8
0
 10
31.868
 20
31.4256
 11
32.0026
 21
31.2135
  0
LINE
  8
0
 10
32.0026
 20
31.2135
 11
32.1095
 21
30.9862
  0
LINE
  8
0
 10
32.1095
 20
30.9862
 11
32.1872
 21
30.7474
  0
LINE
  8
0
 10
32.1872
 20
30.7474
 11
32.2342
 21
30.5007
  0
LINE
  8
0
 10
32.2342
 20
30.5007
 11
32.25
 21
30.25
  0
LINE
  8
0
 10
32.25
 20
30.25
 11
32.2342
 21
29.9993
  0
LINE
  8
0
 10
32.2342
 20
29.9993
 11
32.1872
 21
29.7526
  0
LINE
  8
0
 10
32.1872
 20
29.7526
 11
32.1095
 21
29.5137
  0
LINE
  8
0
 10
32.1095
 20
29.5137
 11
32.0026
 21
29.2865
  0
LINE
  8
0
 10
32.0026
 20
29.2865
 11
31.868
 21
29.0744
  0
LINE
  8
0
 10
31.868
 20
29.0744
 11
31.7079
 21
28.8809
  0
LINE
  8
0
 10
31.7079
 20
28.8809
 11
31.5248
 21
28.709
  0
LINE
  8
0
 10
31.5248
 20
28.709
 11
31.3216
 21
28.5613
  0
LINE
  8
0
 10
31.3216
 20
28.5613
 11
31.1015
 21
28.4403
  0
LINE
  8
0
 10
31.1015
 20
28.4403
 11
30.868
 21
28.3479
  0
LINE
  8
0
 10
30.868
 20
28.3479
 11
30.6248
 21
28.2854
  0
LINE
  8
0
 10
30.6248
 20
28.2854
 11
30.3756
 21
28.2539
  0
LINE
  8
0
 10
30.3756
 20
28.2539
 11
30.1244
 21
28.2539
  0
LINE
  8
0
 10
-30.3756
 20
-32.246
 11
-30.6248
 21
-32.2146
  0
LINE
  8
0
 10
-30.6248
 20
-32.2146
 11
-30.868
 21
-32.1521
  0
LINE
  8
0
 10
-30.868
 20
-32.1521
 11
-31.1015
 21
-32.0596
  0
LINE
  8
0
 10
-31.1015
 20
-32.0596
 11
-31.3216
 21
-31.9386
  0
LINE
  8
0
 10
-31.3216
 20
-31.9386
 11
-31.5248
 21
-31.791
  0
LINE
  8
0
 10
-31.5248
 20
-31.791
 11
-31.7079
 21
-31.6191
  0
LINE
  8
0
 10
-31.7079
 20
-31.6191
 11
-31.868
 21
-31.4256
  0
LINE
  8
0
 10
-31.868
 20
-31.4256
 11
-32.0026
 21
-31.2135
  0
LINE
  8
0
 10
-32.0026
 20
-31.2135
 11
-32.1095
 21
-30.9862
  0
LINE
  8
0
 10
-32.1095
 20
-30.9862
 11
-32.1872
 21
-30.7474
  0
LINE
  8
0
 10
-32.1872
 20
-30.7474
 11
-32.2342
 21
-30.5007
  0
LINE
  8
0
 10
-32.2342
 20
-30.5007
 11
-32.25
 21
-30.25
  0
LINE
  8
0
 10
-32.25
 20
-30.25
 11
-32.2342
 21
-29.9993
  0
LINE
  8
0
 10
-32.2342
 20
-29.9993
 11
-32.1872
 21
-29.7526
  0
LINE
  8
0
 10
-32.1872
 20
-29.7526
 11
-32.1095
 21
-29.5137
  0
LINE
  8
0
 10
-32.1095
 20
-29.5137
 11
-32.0026
 21
-29.2865
  0
LINE
  8
0
 10
-32.0026
 20
-29.2865
 11
-31.868
 21
-29.0744
  0
LINE
  8
0
 10
-31.868
 20
-29.0744
 11
-31.7079
 21
-28.8809
  0
LINE
  8
0
 10
-31.7079
 20
-28.8809
 11
-31.5248
 21
-28.709
  0
LINE
  8
0
 10
-31.5248
 20
-28.709
 11
-31.3216
 21
-28.5613
  0
LINE
  8
0
 10
-31.3216
 20
-28.5613
 11
-31.1015
 21
-28.4403
  0
LINE
  8
0
 10
-31.1015
 20
-28.4403
 11
-30.868
 21
-28.3479
  0
LINE
  8
0
 10
-30.868
 20
-28.3479
 11
-30.6248
 21
-28.2854
  0
LINE
  8
0
 10
-30.6248
 20
-28.2854
 11
-30.3756
 21
-28.2539
  0
LINE
  8
0
 10
-30.3756
 20
-28.2539
 11
-30.1244
 21
-28.2539
  0
LINE
  8
0
 10
-30.1244
 20
-28.2539
 11
-29.8752
 21
-28.2854
  0
LINE
  8
0
 10
-29.8752
 20
-28.2854
 11
-29.632
 21
-28.3479
  0
LINE
  8
0
 10
-29.632
 20
-28.3479
 11
-29.3984
 21
-28.4403
  0
LINE
  8
0
 10
-29.3984
 20
-28.4403
 11
-29.1783
 21
-28.5613
  0
LINE
  8
0
 10
-29.1783
 20
-28.5613
 11
-28.9751
 21
-28.709
  0
LINE
  8
0
 10
-28.9751
 20
-28.709
 11
-28.7921
 21
-28.8809
  0
LINE
  8
0
 10
-28.7921
 20
-28.8809
 11
-28.632
 21
-29.0744
  0
LINE
  8
0
 10
-28.632
 20
-29.0744
 11
-28.4974
 21
-29.2865
  0
LINE
  8
0
 10
-28.4974
 20
-29.2865
 11
-28.3904
 21
-29.5137
  0
LINE
  8
0
 10
-28.3904
 20
-29.5137
 11
-28.3128
 21
-29.7526
  0
LINE
  8
0
 10
-28.3128
 20
-29.7526
 11
-28.2658
 21
-29.9993
  0
LINE
  8
0
 10
-28.2658
 20
-29.9993
 11
-28.25
 21
-30.25
  0
LINE
  8
0
 10
-28.25
 20
-30.25
 11
-28.2658
 21
-30.5007
  0
LINE
  8
0
 10
-28.2658
 20
-30.5007
 11
-28.3128
 21
-30.7474
  0
LINE
  8
0
 10
-28.3128
 20
-30.7474
 11
-28.3904
 21
-30.9862
  0
LINE
  8
0
 10
-28.3904
 20
-30.9862
 11
-28.4974
 21
-31.2135
  0
LINE
  8
0
 10
-28.4974
 20
-31.2135
 11
-28.632
 21
-31.4256
  0
LINE
  8
0
 10
-28.632
 20
-31.4256
 11
-28.7921
 21
-31.6191
  0
LINE
  8
0
 10
-28.7921
 20
-31.6191
 11
-28.9751
 21
-31.791
  0
LINE
  8
0
 10
-28.9751
 20
-31.791
 11
-29.1783
 21
-31.9386
  0
LINE
  8
0
 10
-29.1783
 20
-31.9386
 11
-29.3984
 21
-32.0596
  0
LINE
  8
0
 10
-29.3984
 20
-32.0596
 11
-29.632
 21
-32.1521
  0
LINE
  8
0
 10
-29.632
 20
-32.1521
 11
-29.8752
 21
-32.2146
  0
LINE
  8
0
 10
-29.8752
 20
-32.2146
 11
-30.1244
 21
-32.246
  0
LINE
  8
0
 10
-30.1244
 20
-32.246
 11
-30.3756
 21
-32.246
  0
LINE
  8
0
 10
30.1244
 20
-32.246
 11
29.8752
 21
-32.2146
  0
LINE
  8
0
 10
29.8752
 20
-32.2146
 11
29.632
 21
-32.1521
  0
LINE
  8
0
 10
29.632
 20
-32.1521
 11
29.3984
 21
-32.0596
  0
LINE
  8
0
 10
29.3984
 20
-32.0596
 11
29.1783
 21
-31.9386
  0
LINE
  8
0
 10
29.1783
 20
-31.9386
 11
28.9751
 21
-31.791
  0
LINE
  8
0
 10
28.9751
 20
-31.791
 11
28.7921
 21
-31.6191
  0
LINE
  8
0
 10
28.7921
 20
-31.6191
 11
28.632
 21
-31.4256
  0
LINE
  8
0
 10
28.632
 20
-31.4256
 11
28.4974
 21
-31.2135
  0
LINE
  8
0
 10
28.4974
 20
-31.2135
 11
28.3904
 21
-30.9862
  0
LINE
  8
0
 10
28.3904
 20
-30.9862
 11
28.3128
 21
-30.7474
  0
LINE
  8
0
 10
28.3128
 20
-30.7474
 11
28.2658
 21
-30.5007
  0
LINE
  8
0
 10
28.2658
 20
-30.5007
 11
28.25
 21
-30.25
  0
LINE
  8
0
 10
28.25
 20
-30.25
 11
28.2658
 21
-29.9993
  0
LINE
  8
0
 10
28.2658
 20
-29.9993
 11
28.3128
 21
-29.7526
  0
LINE
  8
0
 10
28.3128
 20
-29.7526
 11
28.3904
 21
-29.5137
  0
LINE
  8
0
 10
28.3904
 20
-29.5137
 11
28.4974
 21
-29.2865
  0
LINE
  8
0
 10
28.4974
 20
-29.2865
 11
28.632
 21
-29.0744
  0
LINE
  8
0
 10
28.632
 20
-29.0744
 11
28.7921
 21
-28.8809
  0
LINE
  8
0
 10
28.7921
 20
-28.8809
 11
28.9751
 21
-28.709
  0
LINE
  8
0
 10
28.9751
 20
-28.709
 11
29.1783
 21
-28.5613
  0
LINE
  8
0
 10
29.1783
 20
-28.5613
 11
29.3984
 21
-28.4403
  0
LINE
  8
0
 10
29.3984
 20
-28.4403
 11
29.632
 21
-28.3479
  0
LINE
  8
0
 10
29.632
 20
-28.3479
 11
29.8752
 21
-28.2854
  0
LINE
  8
0
 10
29.8752
 20
-28.2854
 11
30.1244
 21
-28.2539
  0
LINE
  8
0
 10
30.1244
 20
-28.2539
 11
30.3756
 21
-28.2539
  0
LINE
  8
0
 10
30.3756
 20
-28.2539
 11
30.6248
 21
-28.2854
  0
LINE
  8
0
 10
30.6248
 20
-28.2854
 11
30.868
 21
-28.3479
  0
LINE
  8
0
 10
30.868
 20
-28.3479
 11
31.1015
 21
-28.4403
  0
LINE
  8
0
 10
31.1015
 20
-28.4403
 11
31.3216
 21
-28.5613
  0
LINE
  8
0
 10
31.3216
 20
-28.5613
 11
31.5248
 21
-28.709
  0
LINE
  8
0
 10
31.5248
 20
-28.709
 11
31.7079
 21
-28.8809
  0
LINE
  8
0
 10
31.7079
 20
-28.8809
 11
31.868
 21
-29.0744
  0
LINE
  8
0
 10
31.868
 20
-29.0744
 11
32.0026
 21
-29.2865
  0
LINE
  8
0
 10
32.0026
 20
-29.2865
 11
32.1095
 21
-29.5137
  0
LINE
  8
0
 10
32.1095
 20
-29.5137
 11
32.1872
 21
-29.7526
  0
LINE
  8
0
 10
32.1872
 20
-29.7526
 11
32.2342
 21
-29.9993
  0
LINE
  8
0
 10
32.2342
 20
-29.9993
 11
32.25
 21
-30.25
  0
LINE
  8
0
 10
32.25
 20
-30.25
 11
32.2342
 21
-30.5007
  0
LINE
  8
0
 10
32.2342
 20
-30.5007
 11
32.1872
 21
-30.7474
  0
LINE
  8
0
 10
32.1872
 20
-30.7474
 11
32.1095
 21
-30.9862
  0
LINE
  8
0
 10
32.1095
 20
-30.9862
 11
32.0026
 21
-31.2135
  0
LINE
  8
0
 10
32.0026
 20
-31.2135
 11
31.868
 21
-31.4256
  0
LINE
  8
0
 10
31.868
 20
-31.4256
 11
31.7079
 21
-31.6191
  0
LINE
  8
0
 10
31.7079
 20
-31.6191
 11
31.5248
 21
-31.791
  0
LINE
  8
0
 10
31.5248
 20
-31.791
 11
31.3216
 21
-31.9386
  0
LINE
  8
0
 10
31.3216
 20
-31.9386
 11
31.1015
 21
-32.0596
  0
LINE
  8
0
 10
31.1015
 20
-32.0596
 11
30.868
 21
-32.1521
  0
LINE
  8
0
 10
30.868
 20
-32.1521
 11
30.6248
 21
-32.2146
  0
LINE
  8
0
 10
30.6248
 20
-32.2146
 11
30.3756
 21
-32.246
  0
LINE
  8
0
 10
30.3756
 20
-32.246
 11
30.1244
 21
-32.246
  0
ENDSEC
  0
SECTION
  2
OBJECTS
  0
DICTIONARY
  0
ENDSEC
  0
EOF
