solid OpenSCAD_Model
  facet normal 0.998027 0.062792 0
    outer loop
      vertex 2 0 4
      vertex 1.98423 0.250666 0
      vertex 1.98423 0.250666 4
    endloop
  endfacet
  facet normal 0.998027 0.062792 0
    outer loop
      vertex 1.98423 0.250666 0
      vertex 2 0 4
      vertex 2 0 0
    endloop
  endfacet
  facet normal -0.998027 0.062792 0
    outer loop
      vertex -2 0 0
      vertex -1.98423 0.250666 4
      vertex -1.98423 0.250666 0
    endloop
  endfacet
  facet normal -0.998027 0.062792 0
    outer loop
      vertex -1.98423 0.250666 4
      vertex -2 0 0
      vertex -2 0 4
    endloop
  endfacet
  facet normal 0 1 -0
    outer loop
      vertex 0.125581 1.99605 0
      vertex -0.125581 1.99605 4
      vertex 0.125581 1.99605 4
    endloop
  endfacet
  facet normal 0 1 0
    outer loop
      vertex -0.125581 1.99605 4
      vertex 0.125581 1.99605 0
      vertex -0.125581 1.99605 0
    endloop
  endfacet
  facet normal 0 -1 0
    outer loop
      vertex -0.125581 -1.99605 0
      vertex 0.125581 -1.99605 4
      vertex -0.125581 -1.99605 4
    endloop
  endfacet
  facet normal 0 -1 -0
    outer loop
      vertex 0.125581 -1.99605 4
      vertex -0.125581 -1.99605 0
      vertex 0.125581 -1.99605 0
    endloop
  endfacet
  facet normal 0.684545 -0.72897 0
    outer loop
      vertex 1.27485 -1.54103 0
      vertex 1.45794 -1.36909 4
      vertex 1.27485 -1.54103 4
    endloop
  endfacet
  facet normal 0.684545 -0.72897 0
    outer loop
      vertex 1.45794 -1.36909 4
      vertex 1.27485 -1.54103 0
      vertex 1.45794 -1.36909 0
    endloop
  endfacet
  facet normal 0.684545 0.72897 -0
    outer loop
      vertex 1.45794 1.36909 0
      vertex 1.27485 1.54103 4
      vertex 1.45794 1.36909 4
    endloop
  endfacet
  facet normal 0.684545 0.72897 0
    outer loop
      vertex 1.27485 1.54103 4
      vertex 1.45794 1.36909 0
      vertex 1.27485 1.54103 0
    endloop
  endfacet
  facet normal -0.684545 0.72897 0
    outer loop
      vertex -1.27485 1.54103 0
      vertex -1.45794 1.36909 4
      vertex -1.27485 1.54103 4
    endloop
  endfacet
  facet normal -0.684545 0.72897 0
    outer loop
      vertex -1.45794 1.36909 4
      vertex -1.27485 1.54103 0
      vertex -1.45794 1.36909 0
    endloop
  endfacet
  facet normal -0.368128 0.929775 0
    outer loop
      vertex -0.618033 1.90211 0
      vertex -0.851558 1.80965 4
      vertex -0.618033 1.90211 4
    endloop
  endfacet
  facet normal -0.368128 0.929775 0
    outer loop
      vertex -0.851558 1.80965 4
      vertex -0.618033 1.90211 0
      vertex -0.851558 1.80965 0
    endloop
  endfacet
  facet normal 0.904827 0.425779 0
    outer loop
      vertex 1.85955 0.736249 4
      vertex 1.75261 0.963507 0
      vertex 1.75261 0.963507 4
    endloop
  endfacet
  facet normal 0.904827 0.425779 0
    outer loop
      vertex 1.75261 0.963507 0
      vertex 1.85955 0.736249 4
      vertex 1.85955 0.736249 0
    endloop
  endfacet
  facet normal 0.982287 0.18738 0
    outer loop
      vertex 1.98423 0.250666 4
      vertex 1.93717 0.497379 0
      vertex 1.93717 0.497379 4
    endloop
  endfacet
  facet normal 0.982287 0.18738 0
    outer loop
      vertex 1.93717 0.497379 0
      vertex 1.98423 0.250666 4
      vertex 1.98423 0.250666 0
    endloop
  endfacet
  facet normal 0.368128 0.929775 -0
    outer loop
      vertex 0.851558 1.80965 0
      vertex 0.618033 1.90211 4
      vertex 0.851558 1.80965 4
    endloop
  endfacet
  facet normal 0.368128 0.929775 0
    outer loop
      vertex 0.618033 1.90211 4
      vertex 0.851558 1.80965 0
      vertex 0.618033 1.90211 0
    endloop
  endfacet
  facet normal 0.587785 0.809017 -0
    outer loop
      vertex 1.27485 1.54103 0
      vertex 1.07165 1.68865 4
      vertex 1.27485 1.54103 4
    endloop
  endfacet
  facet normal 0.587785 0.809017 0
    outer loop
      vertex 1.07165 1.68865 4
      vertex 1.27485 1.54103 0
      vertex 1.07165 1.68865 0
    endloop
  endfacet
  facet normal -0.904827 0.425779 0
    outer loop
      vertex -1.85955 0.736249 0
      vertex -1.75261 0.963507 4
      vertex -1.75261 0.963507 0
    endloop
  endfacet
  facet normal -0.904827 0.425779 0
    outer loop
      vertex -1.75261 0.963507 4
      vertex -1.85955 0.736249 0
      vertex -1.85955 0.736249 4
    endloop
  endfacet
  facet normal -0.951056 0.309018 0
    outer loop
      vertex -1.93717 0.497379 0
      vertex -1.85955 0.736249 4
      vertex -1.85955 0.736249 0
    endloop
  endfacet
  facet normal -0.951056 0.309018 0
    outer loop
      vertex -1.85955 0.736249 4
      vertex -1.93717 0.497379 0
      vertex -1.93717 0.497379 4
    endloop
  endfacet
  facet normal -0.481753 0.876307 0
    outer loop
      vertex -0.851558 1.80965 0
      vertex -1.07165 1.68865 4
      vertex -0.851558 1.80965 4
    endloop
  endfacet
  facet normal -0.481753 0.876307 0
    outer loop
      vertex -1.07165 1.68865 4
      vertex -0.851558 1.80965 0
      vertex -1.07165 1.68865 0
    endloop
  endfacet
  facet normal -0.248688 0.968584 0
    outer loop
      vertex -0.374763 1.96457 0
      vertex -0.618033 1.90211 4
      vertex -0.374763 1.96457 4
    endloop
  endfacet
  facet normal -0.248688 0.968584 0
    outer loop
      vertex -0.618033 1.90211 4
      vertex -0.374763 1.96457 0
      vertex -0.618033 1.90211 0
    endloop
  endfacet
  facet normal 0.368128 -0.929775 0
    outer loop
      vertex 0.618033 -1.90211 0
      vertex 0.851558 -1.80965 4
      vertex 0.618033 -1.90211 4
    endloop
  endfacet
  facet normal 0.368128 -0.929775 0
    outer loop
      vertex 0.851558 -1.80965 4
      vertex 0.618033 -1.90211 0
      vertex 0.851558 -1.80965 0
    endloop
  endfacet
  facet normal 0.951056 0.309018 0
    outer loop
      vertex 1.93717 0.497379 4
      vertex 1.85955 0.736249 0
      vertex 1.85955 0.736249 4
    endloop
  endfacet
  facet normal 0.951056 0.309018 0
    outer loop
      vertex 1.85955 0.736249 0
      vertex 1.93717 0.497379 4
      vertex 1.93717 0.497379 0
    endloop
  endfacet
  facet normal 0.770514 0.637423 0
    outer loop
      vertex 1.61803 1.17557 4
      vertex 1.45794 1.36909 0
      vertex 1.45794 1.36909 4
    endloop
  endfacet
  facet normal 0.770514 0.637423 0
    outer loop
      vertex 1.45794 1.36909 0
      vertex 1.61803 1.17557 4
      vertex 1.61803 1.17557 0
    endloop
  endfacet
  facet normal 0.844328 0.535826 0
    outer loop
      vertex 1.75261 0.963507 4
      vertex 1.61803 1.17557 0
      vertex 1.61803 1.17557 4
    endloop
  endfacet
  facet normal 0.844328 0.535826 0
    outer loop
      vertex 1.61803 1.17557 0
      vertex 1.75261 0.963507 4
      vertex 1.75261 0.963507 0
    endloop
  endfacet
  facet normal 0.248688 0.968584 -0
    outer loop
      vertex 0.618033 1.90211 0
      vertex 0.374763 1.96457 4
      vertex 0.618033 1.90211 4
    endloop
  endfacet
  facet normal 0.248688 0.968584 0
    outer loop
      vertex 0.374763 1.96457 4
      vertex 0.618033 1.90211 0
      vertex 0.374763 1.96457 0
    endloop
  endfacet
  facet normal 0.125333 0.992115 -0
    outer loop
      vertex 0.374763 1.96457 0
      vertex 0.125581 1.99605 4
      vertex 0.374763 1.96457 4
    endloop
  endfacet
  facet normal 0.125333 0.992115 0
    outer loop
      vertex 0.125581 1.99605 4
      vertex 0.374763 1.96457 0
      vertex 0.125581 1.99605 0
    endloop
  endfacet
  facet normal 0.481753 0.876307 -0
    outer loop
      vertex 1.07165 1.68865 0
      vertex 0.851558 1.80965 4
      vertex 1.07165 1.68865 4
    endloop
  endfacet
  facet normal 0.481753 0.876307 0
    outer loop
      vertex 0.851558 1.80965 4
      vertex 1.07165 1.68865 0
      vertex 0.851558 1.80965 0
    endloop
  endfacet
  facet normal -0.844328 0.535826 0
    outer loop
      vertex -1.75261 0.963507 0
      vertex -1.61803 1.17557 4
      vertex -1.61803 1.17557 0
    endloop
  endfacet
  facet normal -0.844328 0.535826 0
    outer loop
      vertex -1.61803 1.17557 4
      vertex -1.75261 0.963507 0
      vertex -1.75261 0.963507 4
    endloop
  endfacet
  facet normal -0.770514 0.637423 0
    outer loop
      vertex -1.61803 1.17557 0
      vertex -1.45794 1.36909 4
      vertex -1.45794 1.36909 0
    endloop
  endfacet
  facet normal -0.770514 0.637423 0
    outer loop
      vertex -1.45794 1.36909 4
      vertex -1.61803 1.17557 0
      vertex -1.61803 1.17557 4
    endloop
  endfacet
  facet normal -0.982287 0.18738 0
    outer loop
      vertex -1.98423 0.250666 0
      vertex -1.93717 0.497379 4
      vertex -1.93717 0.497379 0
    endloop
  endfacet
  facet normal -0.982287 0.18738 0
    outer loop
      vertex -1.93717 0.497379 4
      vertex -1.98423 0.250666 0
      vertex -1.98423 0.250666 4
    endloop
  endfacet
  facet normal 0 0 1
    outer loop
      vertex 1.1 0 4
      vertex 2 0 4
      vertex 1.98423 0.250666 4
    endloop
  endfacet
  facet normal 0 0 1
    outer loop
      vertex 1.09133 0.137866 4
      vertex 1.98423 0.250666 4
      vertex 1.93717 0.497379 4
    endloop
  endfacet
  facet normal 0 0 1
    outer loop
      vertex 2 0 4
      vertex 1.1 0 4
      vertex 1.98423 -0.250666 4
    endloop
  endfacet
  facet normal 0 0 1
    outer loop
      vertex 1.06544 0.273559 4
      vertex 1.93717 0.497379 4
      vertex 1.85955 0.736249 4
    endloop
  endfacet
  facet normal -0 0 1
    outer loop
      vertex 1.09133 -0.137866 4
      vertex 1.98423 -0.250666 4
      vertex 1.1 0 4
    endloop
  endfacet
  facet normal 0 0 1
    outer loop
      vertex 1.02275 0.404937 4
      vertex 1.85955 0.736249 4
      vertex 1.75261 0.963507 4
    endloop
  endfacet
  facet normal 0 0 1
    outer loop
      vertex 1.98423 -0.250666 4
      vertex 1.09133 -0.137866 4
      vertex 1.93717 -0.497379 4
    endloop
  endfacet
  facet normal 0 0 1
    outer loop
      vertex 0.963937 0.529928 4
      vertex 1.75261 0.963507 4
      vertex 1.61803 1.17557 4
    endloop
  endfacet
  facet normal -0 0 1
    outer loop
      vertex 1.06544 -0.273559 4
      vertex 1.93717 -0.497379 4
      vertex 1.09133 -0.137866 4
    endloop
  endfacet
  facet normal 0 0 1
    outer loop
      vertex 0.889918 0.646564 4
      vertex 1.61803 1.17557 4
      vertex 1.45794 1.36909 4
    endloop
  endfacet
  facet normal 0 0 1
    outer loop
      vertex 1.93717 -0.497379 4
      vertex 1.06544 -0.273559 4
      vertex 1.85955 -0.736249 4
    endloop
  endfacet
  facet normal 0 0 1
    outer loop
      vertex 0.801865 0.753001 4
      vertex 1.45794 1.36909 4
      vertex 1.27485 1.54103 4
    endloop
  endfacet
  facet normal -0 0 1
    outer loop
      vertex 1.02275 -0.404937 4
      vertex 1.85955 -0.736249 4
      vertex 1.06544 -0.273559 4
    endloop
  endfacet
  facet normal 0 0 1
    outer loop
      vertex 1.85955 -0.736249 4
      vertex 1.02275 -0.404937 4
      vertex 1.75261 -0.963507 4
    endloop
  endfacet
  facet normal 0 0 1
    outer loop
      vertex 1.98423 0.250666 4
      vertex 1.09133 0.137866 4
      vertex 1.1 0 4
    endloop
  endfacet
  facet normal 0 0 1
    outer loop
      vertex 0.701166 0.847564 4
      vertex 1.27485 1.54103 4
      vertex 1.07165 1.68865 4
    endloop
  endfacet
  facet normal 0 0 1
    outer loop
      vertex 1.93717 0.497379 4
      vertex 1.06544 0.273559 4
      vertex 1.09133 0.137866 4
    endloop
  endfacet
  facet normal 0 0 1
    outer loop
      vertex 1.85955 0.736249 4
      vertex 1.02275 0.404937 4
      vertex 1.06544 0.273559 4
    endloop
  endfacet
  facet normal 0 0 1
    outer loop
      vertex 1.75261 0.963507 4
      vertex 0.963937 0.529928 4
      vertex 1.02275 0.404937 4
    endloop
  endfacet
  facet normal 0 0 1
    outer loop
      vertex 1.61803 1.17557 4
      vertex 0.889918 0.646564 4
      vertex 0.963937 0.529928 4
    endloop
  endfacet
  facet normal 0 0 1
    outer loop
      vertex 0.589409 0.928761 4
      vertex 1.07165 1.68865 4
      vertex 0.851558 1.80965 4
    endloop
  endfacet
  facet normal 0 0 1
    outer loop
      vertex 1.45794 1.36909 4
      vertex 0.801865 0.753001 4
      vertex 0.889918 0.646564 4
    endloop
  endfacet
  facet normal 0 0 1
    outer loop
      vertex 1.27485 1.54103 4
      vertex 0.701166 0.847564 4
      vertex 0.801865 0.753001 4
    endloop
  endfacet
  facet normal 0 0 1
    outer loop
      vertex 0.468357 0.995309 4
      vertex 0.851558 1.80965 4
      vertex 0.618033 1.90211 4
    endloop
  endfacet
  facet normal 0 0 1
    outer loop
      vertex 1.07165 1.68865 4
      vertex 0.589409 0.928761 4
      vertex 0.701166 0.847564 4
    endloop
  endfacet
  facet normal 0 0 1
    outer loop
      vertex 0.851558 1.80965 4
      vertex 0.468357 0.995309 4
      vertex 0.589409 0.928761 4
    endloop
  endfacet
  facet normal 0 0 1
    outer loop
      vertex 0.339918 1.04616 4
      vertex 0.618033 1.90211 4
      vertex 0.374763 1.96457 4
    endloop
  endfacet
  facet normal 0 0 1
    outer loop
      vertex 0.618033 1.90211 4
      vertex 0.339918 1.04616 4
      vertex 0.468357 0.995309 4
    endloop
  endfacet
  facet normal 0 0 1
    outer loop
      vertex 0.374763 1.96457 4
      vertex 0.206119 1.08052 4
      vertex 0.339918 1.04616 4
    endloop
  endfacet
  facet normal 0 0 1
    outer loop
      vertex 0.125581 1.99605 4
      vertex 0.206119 1.08052 4
      vertex 0.374763 1.96457 4
    endloop
  endfacet
  facet normal 0 0 1
    outer loop
      vertex 0.125581 1.99605 4
      vertex 0.0690689 1.09783 4
      vertex 0.206119 1.08052 4
    endloop
  endfacet
  facet normal 0 0 1
    outer loop
      vertex 0.125581 1.99605 4
      vertex -0.0690689 1.09783 4
      vertex 0.0690689 1.09783 4
    endloop
  endfacet
  facet normal -0 0 1
    outer loop
      vertex -0.125581 1.99605 4
      vertex -0.0690689 1.09783 4
      vertex 0.125581 1.99605 4
    endloop
  endfacet
  facet normal 0 0 1
    outer loop
      vertex -0.125581 1.99605 4
      vertex -0.206119 1.08052 4
      vertex -0.0690689 1.09783 4
    endloop
  endfacet
  facet normal -0 0 1
    outer loop
      vertex -0.374763 1.96457 4
      vertex -0.206119 1.08052 4
      vertex -0.125581 1.99605 4
    endloop
  endfacet
  facet normal 0 0 1
    outer loop
      vertex -0.206119 1.08052 4
      vertex -0.374763 1.96457 4
      vertex -0.339918 1.04616 4
    endloop
  endfacet
  facet normal -0 0 1
    outer loop
      vertex -0.618033 1.90211 4
      vertex -0.339918 1.04616 4
      vertex -0.374763 1.96457 4
    endloop
  endfacet
  facet normal 0 0 1
    outer loop
      vertex -0.339918 1.04616 4
      vertex -0.618033 1.90211 4
      vertex -0.468357 0.995309 4
    endloop
  endfacet
  facet normal -0 0 1
    outer loop
      vertex -0.851558 1.80965 4
      vertex -0.468357 0.995309 4
      vertex -0.618033 1.90211 4
    endloop
  endfacet
  facet normal 0 0 1
    outer loop
      vertex -0.468357 0.995309 4
      vertex -0.851558 1.80965 4
      vertex -0.589409 0.928761 4
    endloop
  endfacet
  facet normal -0 0 1
    outer loop
      vertex -1.07165 1.68865 4
      vertex -0.589409 0.928761 4
      vertex -0.851558 1.80965 4
    endloop
  endfacet
  facet normal 0 0 1
    outer loop
      vertex -0.589409 0.928761 4
      vertex -1.07165 1.68865 4
      vertex -0.701166 0.847564 4
    endloop
  endfacet
  facet normal -0 0 1
    outer loop
      vertex -1.27485 1.54103 4
      vertex -0.701166 0.847564 4
      vertex -1.07165 1.68865 4
    endloop
  endfacet
  facet normal 0 0 1
    outer loop
      vertex -0.701166 0.847564 4
      vertex -1.27485 1.54103 4
      vertex -0.801865 0.753001 4
    endloop
  endfacet
  facet normal -0 0 1
    outer loop
      vertex -1.45794 1.36909 4
      vertex -0.801865 0.753001 4
      vertex -1.27485 1.54103 4
    endloop
  endfacet
  facet normal 0 0 1
    outer loop
      vertex -0.801865 0.753001 4
      vertex -1.45794 1.36909 4
      vertex -0.889918 0.646564 4
    endloop
  endfacet
  facet normal -0 0 1
    outer loop
      vertex -1.61803 1.17557 4
      vertex -0.889918 0.646564 4
      vertex -1.45794 1.36909 4
    endloop
  endfacet
  facet normal 0 0 1
    outer loop
      vertex -0.889918 0.646564 4
      vertex -1.61803 1.17557 4
      vertex -0.963937 0.529928 4
    endloop
  endfacet
  facet normal -0 0 1
    outer loop
      vertex -1.75261 0.963507 4
      vertex -0.963937 0.529928 4
      vertex -1.61803 1.17557 4
    endloop
  endfacet
  facet normal 0 0 1
    outer loop
      vertex -0.963937 0.529928 4
      vertex -1.75261 0.963507 4
      vertex -1.02275 0.404937 4
    endloop
  endfacet
  facet normal -0 0 1
    outer loop
      vertex 0.963937 -0.529928 4
      vertex 1.75261 -0.963507 4
      vertex 1.02275 -0.404937 4
    endloop
  endfacet
  facet normal 0 0 1
    outer loop
      vertex 1.75261 -0.963507 4
      vertex 0.963937 -0.529928 4
      vertex 1.61803 -1.17557 4
    endloop
  endfacet
  facet normal -0 0 1
    outer loop
      vertex 0.889918 -0.646564 4
      vertex 1.61803 -1.17557 4
      vertex 0.963937 -0.529928 4
    endloop
  endfacet
  facet normal 0 0 1
    outer loop
      vertex 1.61803 -1.17557 4
      vertex 0.889918 -0.646564 4
      vertex 1.45794 -1.36909 4
    endloop
  endfacet
  facet normal -0 0 1
    outer loop
      vertex 0.801865 -0.753001 4
      vertex 1.45794 -1.36909 4
      vertex 0.889918 -0.646564 4
    endloop
  endfacet
  facet normal 0 0 1
    outer loop
      vertex 1.45794 -1.36909 4
      vertex 0.801865 -0.753001 4
      vertex 1.27485 -1.54103 4
    endloop
  endfacet
  facet normal -0 0 1
    outer loop
      vertex 0.701166 -0.847564 4
      vertex 1.27485 -1.54103 4
      vertex 0.801865 -0.753001 4
    endloop
  endfacet
  facet normal 0 0 1
    outer loop
      vertex 1.27485 -1.54103 4
      vertex 0.701166 -0.847564 4
      vertex 1.07165 -1.68865 4
    endloop
  endfacet
  facet normal -0 0 1
    outer loop
      vertex 0.589409 -0.928761 4
      vertex 1.07165 -1.68865 4
      vertex 0.701166 -0.847564 4
    endloop
  endfacet
  facet normal 0 0 1
    outer loop
      vertex 1.07165 -1.68865 4
      vertex 0.589409 -0.928761 4
      vertex 0.851558 -1.80965 4
    endloop
  endfacet
  facet normal -0 0 1
    outer loop
      vertex 0.468357 -0.995309 4
      vertex 0.851558 -1.80965 4
      vertex 0.589409 -0.928761 4
    endloop
  endfacet
  facet normal 0 0 1
    outer loop
      vertex 0.851558 -1.80965 4
      vertex 0.468357 -0.995309 4
      vertex 0.618033 -1.90211 4
    endloop
  endfacet
  facet normal -0 0 1
    outer loop
      vertex 0.339918 -1.04616 4
      vertex 0.618033 -1.90211 4
      vertex 0.468357 -0.995309 4
    endloop
  endfacet
  facet normal 0 0 1
    outer loop
      vertex 0.618033 -1.90211 4
      vertex 0.339918 -1.04616 4
      vertex 0.374763 -1.96457 4
    endloop
  endfacet
  facet normal -0 0 1
    outer loop
      vertex 0.206119 -1.08052 4
      vertex 0.374763 -1.96457 4
      vertex 0.339918 -1.04616 4
    endloop
  endfacet
  facet normal 0 0 1
    outer loop
      vertex 0.206119 -1.08052 4
      vertex 0.125581 -1.99605 4
      vertex 0.374763 -1.96457 4
    endloop
  endfacet
  facet normal -0 0 1
    outer loop
      vertex 0.0690689 -1.09783 4
      vertex 0.125581 -1.99605 4
      vertex 0.206119 -1.08052 4
    endloop
  endfacet
  facet normal -0 0 1
    outer loop
      vertex -0.0690689 -1.09783 4
      vertex 0.125581 -1.99605 4
      vertex 0.0690689 -1.09783 4
    endloop
  endfacet
  facet normal 0 0 1
    outer loop
      vertex -0.0690689 -1.09783 4
      vertex -0.125581 -1.99605 4
      vertex 0.125581 -1.99605 4
    endloop
  endfacet
  facet normal 0 0 1
    outer loop
      vertex -0.206119 -1.08052 4
      vertex -0.125581 -1.99605 4
      vertex -0.0690689 -1.09783 4
    endloop
  endfacet
  facet normal 0 0 1
    outer loop
      vertex -0.374763 -1.96457 4
      vertex -0.206119 -1.08052 4
      vertex -0.339918 -1.04616 4
    endloop
  endfacet
  facet normal 0 0 1
    outer loop
      vertex -0.206119 -1.08052 4
      vertex -0.374763 -1.96457 4
      vertex -0.125581 -1.99605 4
    endloop
  endfacet
  facet normal 0 0 1
    outer loop
      vertex -0.618033 -1.90211 4
      vertex -0.339918 -1.04616 4
      vertex -0.468357 -0.995309 4
    endloop
  endfacet
  facet normal 0 0 1
    outer loop
      vertex -0.851558 -1.80965 4
      vertex -0.468357 -0.995309 4
      vertex -0.589409 -0.928761 4
    endloop
  endfacet
  facet normal 0 0 1
    outer loop
      vertex -0.339918 -1.04616 4
      vertex -0.618033 -1.90211 4
      vertex -0.374763 -1.96457 4
    endloop
  endfacet
  facet normal 0 0 1
    outer loop
      vertex -1.07165 -1.68865 4
      vertex -0.589409 -0.928761 4
      vertex -0.701166 -0.847564 4
    endloop
  endfacet
  facet normal 0 0 1
    outer loop
      vertex -1.27485 -1.54103 4
      vertex -0.701166 -0.847564 4
      vertex -0.801865 -0.753001 4
    endloop
  endfacet
  facet normal 0 0 1
    outer loop
      vertex -0.468357 -0.995309 4
      vertex -0.851558 -1.80965 4
      vertex -0.618033 -1.90211 4
    endloop
  endfacet
  facet normal 0 0 1
    outer loop
      vertex -1.45794 -1.36909 4
      vertex -0.801865 -0.753001 4
      vertex -0.889918 -0.646564 4
    endloop
  endfacet
  facet normal 0 0 1
    outer loop
      vertex -1.61803 -1.17557 4
      vertex -0.889918 -0.646564 4
      vertex -0.963937 -0.529928 4
    endloop
  endfacet
  facet normal 0 0 1
    outer loop
      vertex -1.75261 -0.963507 4
      vertex -0.963937 -0.529928 4
      vertex -1.02275 -0.404937 4
    endloop
  endfacet
  facet normal 0 0 1
    outer loop
      vertex -1.85955 -0.736249 4
      vertex -1.02275 -0.404937 4
      vertex -1.06544 -0.273559 4
    endloop
  endfacet
  facet normal 0 0 1
    outer loop
      vertex -0.589409 -0.928761 4
      vertex -1.07165 -1.68865 4
      vertex -0.851558 -1.80965 4
    endloop
  endfacet
  facet normal 0 0 1
    outer loop
      vertex -1.93717 -0.497379 4
      vertex -1.06544 -0.273559 4
      vertex -1.09133 -0.137866 4
    endloop
  endfacet
  facet normal 0 0 1
    outer loop
      vertex -1.98423 -0.250666 4
      vertex -1.09133 -0.137866 4
      vertex -1.1 0 4
    endloop
  endfacet
  facet normal -0 0 1
    outer loop
      vertex -1.85955 0.736249 4
      vertex -1.02275 0.404937 4
      vertex -1.75261 0.963507 4
    endloop
  endfacet
  facet normal 0 0 1
    outer loop
      vertex -0.701166 -0.847564 4
      vertex -1.27485 -1.54103 4
      vertex -1.07165 -1.68865 4
    endloop
  endfacet
  facet normal 0 0 1
    outer loop
      vertex -1.02275 0.404937 4
      vertex -1.85955 0.736249 4
      vertex -1.06544 0.273559 4
    endloop
  endfacet
  facet normal 0 0 1
    outer loop
      vertex -0.801865 -0.753001 4
      vertex -1.45794 -1.36909 4
      vertex -1.27485 -1.54103 4
    endloop
  endfacet
  facet normal -0 0 1
    outer loop
      vertex -1.93717 0.497379 4
      vertex -1.06544 0.273559 4
      vertex -1.85955 0.736249 4
    endloop
  endfacet
  facet normal 0 0 1
    outer loop
      vertex -0.889918 -0.646564 4
      vertex -1.61803 -1.17557 4
      vertex -1.45794 -1.36909 4
    endloop
  endfacet
  facet normal 0 0 1
    outer loop
      vertex -1.06544 0.273559 4
      vertex -1.93717 0.497379 4
      vertex -1.09133 0.137866 4
    endloop
  endfacet
  facet normal 0 0 1
    outer loop
      vertex -0.963937 -0.529928 4
      vertex -1.75261 -0.963507 4
      vertex -1.61803 -1.17557 4
    endloop
  endfacet
  facet normal -0 0 1
    outer loop
      vertex -1.98423 0.250666 4
      vertex -1.09133 0.137866 4
      vertex -1.93717 0.497379 4
    endloop
  endfacet
  facet normal 0 0 1
    outer loop
      vertex -1.02275 -0.404937 4
      vertex -1.85955 -0.736249 4
      vertex -1.75261 -0.963507 4
    endloop
  endfacet
  facet normal 0 0 1
    outer loop
      vertex -1.09133 0.137866 4
      vertex -1.98423 0.250666 4
      vertex -1.1 0 4
    endloop
  endfacet
  facet normal 0 0 1
    outer loop
      vertex -1.06544 -0.273559 4
      vertex -1.93717 -0.497379 4
      vertex -1.85955 -0.736249 4
    endloop
  endfacet
  facet normal 0 0 1
    outer loop
      vertex -2 0 4
      vertex -1.1 0 4
      vertex -1.98423 0.250666 4
    endloop
  endfacet
  facet normal 0 0 1
    outer loop
      vertex -1.09133 -0.137866 4
      vertex -1.98423 -0.250666 4
      vertex -1.93717 -0.497379 4
    endloop
  endfacet
  facet normal 0 0 1
    outer loop
      vertex -1.1 0 4
      vertex -2 0 4
      vertex -1.98423 -0.250666 4
    endloop
  endfacet
  facet normal -0.587785 0.809017 0
    outer loop
      vertex -1.07165 1.68865 0
      vertex -1.27485 1.54103 4
      vertex -1.07165 1.68865 4
    endloop
  endfacet
  facet normal -0.587785 0.809017 0
    outer loop
      vertex -1.27485 1.54103 4
      vertex -1.07165 1.68865 0
      vertex -1.27485 1.54103 0
    endloop
  endfacet
  facet normal -0.125333 0.992115 0
    outer loop
      vertex -0.125581 1.99605 0
      vertex -0.374763 1.96457 4
      vertex -0.125581 1.99605 4
    endloop
  endfacet
  facet normal -0.125333 0.992115 0
    outer loop
      vertex -0.374763 1.96457 4
      vertex -0.125581 1.99605 0
      vertex -0.374763 1.96457 0
    endloop
  endfacet
  facet normal 0.982287 -0.18738 0
    outer loop
      vertex 1.93717 -0.497379 4
      vertex 1.98423 -0.250666 0
      vertex 1.98423 -0.250666 4
    endloop
  endfacet
  facet normal 0.982287 -0.18738 0
    outer loop
      vertex 1.98423 -0.250666 0
      vertex 1.93717 -0.497379 4
      vertex 1.93717 -0.497379 0
    endloop
  endfacet
  facet normal -0.904827 -0.425779 0
    outer loop
      vertex -1.75261 -0.963507 0
      vertex -1.85955 -0.736249 4
      vertex -1.85955 -0.736249 0
    endloop
  endfacet
  facet normal -0.904827 -0.425779 0
    outer loop
      vertex -1.85955 -0.736249 4
      vertex -1.75261 -0.963507 0
      vertex -1.75261 -0.963507 4
    endloop
  endfacet
  facet normal -0.844328 -0.535826 0
    outer loop
      vertex -1.61803 -1.17557 0
      vertex -1.75261 -0.963507 4
      vertex -1.75261 -0.963507 0
    endloop
  endfacet
  facet normal -0.844328 -0.535826 0
    outer loop
      vertex -1.75261 -0.963507 4
      vertex -1.61803 -1.17557 0
      vertex -1.61803 -1.17557 4
    endloop
  endfacet
  facet normal 0 0 -1
    outer loop
      vertex 1.1 0 0
      vertex 2 0 0
      vertex 1.98423 -0.250666 0
    endloop
  endfacet
  facet normal 0 0 -1
    outer loop
      vertex 1.09133 -0.137866 0
      vertex 1.98423 -0.250666 0
      vertex 1.93717 -0.497379 0
    endloop
  endfacet
  facet normal 0 0 -1
    outer loop
      vertex 2 0 0
      vertex 1.1 0 0
      vertex 1.98423 0.250666 0
    endloop
  endfacet
  facet normal 0 0 -1
    outer loop
      vertex 1.06544 -0.273559 0
      vertex 1.93717 -0.497379 0
      vertex 1.85955 -0.736249 0
    endloop
  endfacet
  facet normal 0 0 -1
    outer loop
      vertex 1.09133 0.137866 0
      vertex 1.98423 0.250666 0
      vertex 1.1 0 0
    endloop
  endfacet
  facet normal 0 0 -1
    outer loop
      vertex 1.02275 -0.404937 0
      vertex 1.85955 -0.736249 0
      vertex 1.75261 -0.963507 0
    endloop
  endfacet
  facet normal -0 0 -1
    outer loop
      vertex 1.98423 0.250666 0
      vertex 1.09133 0.137866 0
      vertex 1.93717 0.497379 0
    endloop
  endfacet
  facet normal 0 0 -1
    outer loop
      vertex 0.963937 -0.529928 0
      vertex 1.75261 -0.963507 0
      vertex 1.61803 -1.17557 0
    endloop
  endfacet
  facet normal 0 0 -1
    outer loop
      vertex 1.06544 0.273559 0
      vertex 1.93717 0.497379 0
      vertex 1.09133 0.137866 0
    endloop
  endfacet
  facet normal 0 0 -1
    outer loop
      vertex 0.889918 -0.646564 0
      vertex 1.61803 -1.17557 0
      vertex 1.45794 -1.36909 0
    endloop
  endfacet
  facet normal -0 0 -1
    outer loop
      vertex 1.93717 0.497379 0
      vertex 1.06544 0.273559 0
      vertex 1.85955 0.736249 0
    endloop
  endfacet
  facet normal 0 0 -1
    outer loop
      vertex 0.801865 -0.753001 0
      vertex 1.45794 -1.36909 0
      vertex 1.27485 -1.54103 0
    endloop
  endfacet
  facet normal 0 0 -1
    outer loop
      vertex 1.02275 0.404937 0
      vertex 1.85955 0.736249 0
      vertex 1.06544 0.273559 0
    endloop
  endfacet
  facet normal -0 0 -1
    outer loop
      vertex 1.85955 0.736249 0
      vertex 1.02275 0.404937 0
      vertex 1.75261 0.963507 0
    endloop
  endfacet
  facet normal 0 0 -1
    outer loop
      vertex 1.98423 -0.250666 0
      vertex 1.09133 -0.137866 0
      vertex 1.1 0 0
    endloop
  endfacet
  facet normal 0 0 -1
    outer loop
      vertex 0.701166 -0.847564 0
      vertex 1.27485 -1.54103 0
      vertex 1.07165 -1.68865 0
    endloop
  endfacet
  facet normal 0 0 -1
    outer loop
      vertex 1.93717 -0.497379 0
      vertex 1.06544 -0.273559 0
      vertex 1.09133 -0.137866 0
    endloop
  endfacet
  facet normal 0 0 -1
    outer loop
      vertex 1.85955 -0.736249 0
      vertex 1.02275 -0.404937 0
      vertex 1.06544 -0.273559 0
    endloop
  endfacet
  facet normal 0 0 -1
    outer loop
      vertex 1.75261 -0.963507 0
      vertex 0.963937 -0.529928 0
      vertex 1.02275 -0.404937 0
    endloop
  endfacet
  facet normal 0 0 -1
    outer loop
      vertex 1.61803 -1.17557 0
      vertex 0.889918 -0.646564 0
      vertex 0.963937 -0.529928 0
    endloop
  endfacet
  facet normal 0 0 -1
    outer loop
      vertex 0.589409 -0.928761 0
      vertex 1.07165 -1.68865 0
      vertex 0.851558 -1.80965 0
    endloop
  endfacet
  facet normal 0 0 -1
    outer loop
      vertex 1.45794 -1.36909 0
      vertex 0.801865 -0.753001 0
      vertex 0.889918 -0.646564 0
    endloop
  endfacet
  facet normal 0 0 -1
    outer loop
      vertex 1.27485 -1.54103 0
      vertex 0.701166 -0.847564 0
      vertex 0.801865 -0.753001 0
    endloop
  endfacet
  facet normal 0 0 -1
    outer loop
      vertex 0.468357 -0.995309 0
      vertex 0.851558 -1.80965 0
      vertex 0.618033 -1.90211 0
    endloop
  endfacet
  facet normal 0 0 -1
    outer loop
      vertex 1.07165 -1.68865 0
      vertex 0.589409 -0.928761 0
      vertex 0.701166 -0.847564 0
    endloop
  endfacet
  facet normal 0 0 -1
    outer loop
      vertex 0.851558 -1.80965 0
      vertex 0.468357 -0.995309 0
      vertex 0.589409 -0.928761 0
    endloop
  endfacet
  facet normal 0 0 -1
    outer loop
      vertex 0.339918 -1.04616 0
      vertex 0.618033 -1.90211 0
      vertex 0.374763 -1.96457 0
    endloop
  endfacet
  facet normal 0 0 -1
    outer loop
      vertex 0.618033 -1.90211 0
      vertex 0.339918 -1.04616 0
      vertex 0.468357 -0.995309 0
    endloop
  endfacet
  facet normal 0 0 -1
    outer loop
      vertex 0.374763 -1.96457 0
      vertex 0.206119 -1.08052 0
      vertex 0.339918 -1.04616 0
    endloop
  endfacet
  facet normal 0 0 -1
    outer loop
      vertex 0.125581 -1.99605 0
      vertex 0.206119 -1.08052 0
      vertex 0.374763 -1.96457 0
    endloop
  endfacet
  facet normal 0 0 -1
    outer loop
      vertex 0.125581 -1.99605 0
      vertex 0.0690689 -1.09783 0
      vertex 0.206119 -1.08052 0
    endloop
  endfacet
  facet normal 0 0 -1
    outer loop
      vertex 0.125581 -1.99605 0
      vertex -0.0690689 -1.09783 0
      vertex 0.0690689 -1.09783 0
    endloop
  endfacet
  facet normal 0 0 -1
    outer loop
      vertex -0.125581 -1.99605 0
      vertex -0.0690689 -1.09783 0
      vertex 0.125581 -1.99605 0
    endloop
  endfacet
  facet normal 0 0 -1
    outer loop
      vertex -0.125581 -1.99605 0
      vertex -0.206119 -1.08052 0
      vertex -0.0690689 -1.09783 0
    endloop
  endfacet
  facet normal 0 0 -1
    outer loop
      vertex -0.374763 -1.96457 0
      vertex -0.206119 -1.08052 0
      vertex -0.125581 -1.99605 0
    endloop
  endfacet
  facet normal -0 0 -1
    outer loop
      vertex -0.206119 -1.08052 0
      vertex -0.374763 -1.96457 0
      vertex -0.339918 -1.04616 0
    endloop
  endfacet
  facet normal 0 0 -1
    outer loop
      vertex -0.618033 -1.90211 0
      vertex -0.339918 -1.04616 0
      vertex -0.374763 -1.96457 0
    endloop
  endfacet
  facet normal -0 0 -1
    outer loop
      vertex -0.339918 -1.04616 0
      vertex -0.618033 -1.90211 0
      vertex -0.468357 -0.995309 0
    endloop
  endfacet
  facet normal 0 0 -1
    outer loop
      vertex -0.851558 -1.80965 0
      vertex -0.468357 -0.995309 0
      vertex -0.618033 -1.90211 0
    endloop
  endfacet
  facet normal -0 0 -1
    outer loop
      vertex -0.468357 -0.995309 0
      vertex -0.851558 -1.80965 0
      vertex -0.589409 -0.928761 0
    endloop
  endfacet
  facet normal 0 0 -1
    outer loop
      vertex -1.07165 -1.68865 0
      vertex -0.589409 -0.928761 0
      vertex -0.851558 -1.80965 0
    endloop
  endfacet
  facet normal -0 0 -1
    outer loop
      vertex -0.589409 -0.928761 0
      vertex -1.07165 -1.68865 0
      vertex -0.701166 -0.847564 0
    endloop
  endfacet
  facet normal 0 0 -1
    outer loop
      vertex -1.27485 -1.54103 0
      vertex -0.701166 -0.847564 0
      vertex -1.07165 -1.68865 0
    endloop
  endfacet
  facet normal -0 0 -1
    outer loop
      vertex -0.701166 -0.847564 0
      vertex -1.27485 -1.54103 0
      vertex -0.801865 -0.753001 0
    endloop
  endfacet
  facet normal 0 0 -1
    outer loop
      vertex -1.45794 -1.36909 0
      vertex -0.801865 -0.753001 0
      vertex -1.27485 -1.54103 0
    endloop
  endfacet
  facet normal -0 0 -1
    outer loop
      vertex -0.801865 -0.753001 0
      vertex -1.45794 -1.36909 0
      vertex -0.889918 -0.646564 0
    endloop
  endfacet
  facet normal 0 0 -1
    outer loop
      vertex -1.61803 -1.17557 0
      vertex -0.889918 -0.646564 0
      vertex -1.45794 -1.36909 0
    endloop
  endfacet
  facet normal -0 0 -1
    outer loop
      vertex -0.889918 -0.646564 0
      vertex -1.61803 -1.17557 0
      vertex -0.963937 -0.529928 0
    endloop
  endfacet
  facet normal 0 0 -1
    outer loop
      vertex -1.75261 -0.963507 0
      vertex -0.963937 -0.529928 0
      vertex -1.61803 -1.17557 0
    endloop
  endfacet
  facet normal -0 0 -1
    outer loop
      vertex -0.963937 -0.529928 0
      vertex -1.75261 -0.963507 0
      vertex -1.02275 -0.404937 0
    endloop
  endfacet
  facet normal 0 0 -1
    outer loop
      vertex 0.963937 0.529928 0
      vertex 1.75261 0.963507 0
      vertex 1.02275 0.404937 0
    endloop
  endfacet
  facet normal -0 0 -1
    outer loop
      vertex 1.75261 0.963507 0
      vertex 0.963937 0.529928 0
      vertex 1.61803 1.17557 0
    endloop
  endfacet
  facet normal 0 0 -1
    outer loop
      vertex 0.889918 0.646564 0
      vertex 1.61803 1.17557 0
      vertex 0.963937 0.529928 0
    endloop
  endfacet
  facet normal -0 0 -1
    outer loop
      vertex 1.61803 1.17557 0
      vertex 0.889918 0.646564 0
      vertex 1.45794 1.36909 0
    endloop
  endfacet
  facet normal 0 0 -1
    outer loop
      vertex 0.801865 0.753001 0
      vertex 1.45794 1.36909 0
      vertex 0.889918 0.646564 0
    endloop
  endfacet
  facet normal -0 0 -1
    outer loop
      vertex 1.45794 1.36909 0
      vertex 0.801865 0.753001 0
      vertex 1.27485 1.54103 0
    endloop
  endfacet
  facet normal 0 0 -1
    outer loop
      vertex 0.701166 0.847564 0
      vertex 1.27485 1.54103 0
      vertex 0.801865 0.753001 0
    endloop
  endfacet
  facet normal -0 0 -1
    outer loop
      vertex 1.27485 1.54103 0
      vertex 0.701166 0.847564 0
      vertex 1.07165 1.68865 0
    endloop
  endfacet
  facet normal 0 0 -1
    outer loop
      vertex 0.589409 0.928761 0
      vertex 1.07165 1.68865 0
      vertex 0.701166 0.847564 0
    endloop
  endfacet
  facet normal -0 0 -1
    outer loop
      vertex 1.07165 1.68865 0
      vertex 0.589409 0.928761 0
      vertex 0.851558 1.80965 0
    endloop
  endfacet
  facet normal 0 0 -1
    outer loop
      vertex 0.468357 0.995309 0
      vertex 0.851558 1.80965 0
      vertex 0.589409 0.928761 0
    endloop
  endfacet
  facet normal -0 0 -1
    outer loop
      vertex 0.851558 1.80965 0
      vertex 0.468357 0.995309 0
      vertex 0.618033 1.90211 0
    endloop
  endfacet
  facet normal 0 0 -1
    outer loop
      vertex 0.339918 1.04616 0
      vertex 0.618033 1.90211 0
      vertex 0.468357 0.995309 0
    endloop
  endfacet
  facet normal -0 0 -1
    outer loop
      vertex 0.618033 1.90211 0
      vertex 0.339918 1.04616 0
      vertex 0.374763 1.96457 0
    endloop
  endfacet
  facet normal 0 0 -1
    outer loop
      vertex 0.206119 1.08052 0
      vertex 0.374763 1.96457 0
      vertex 0.339918 1.04616 0
    endloop
  endfacet
  facet normal 0 0 -1
    outer loop
      vertex 0.206119 1.08052 0
      vertex 0.125581 1.99605 0
      vertex 0.374763 1.96457 0
    endloop
  endfacet
  facet normal 0 0 -1
    outer loop
      vertex 0.0690689 1.09783 0
      vertex 0.125581 1.99605 0
      vertex 0.206119 1.08052 0
    endloop
  endfacet
  facet normal 0 0 -1
    outer loop
      vertex -0.0690689 1.09783 0
      vertex 0.125581 1.99605 0
      vertex 0.0690689 1.09783 0
    endloop
  endfacet
  facet normal 0 0 -1
    outer loop
      vertex -0.0690689 1.09783 0
      vertex -0.125581 1.99605 0
      vertex 0.125581 1.99605 0
    endloop
  endfacet
  facet normal 0 0 -1
    outer loop
      vertex -0.206119 1.08052 0
      vertex -0.125581 1.99605 0
      vertex -0.0690689 1.09783 0
    endloop
  endfacet
  facet normal 0 0 -1
    outer loop
      vertex -0.374763 1.96457 0
      vertex -0.206119 1.08052 0
      vertex -0.339918 1.04616 0
    endloop
  endfacet
  facet normal 0 0 -1
    outer loop
      vertex -0.206119 1.08052 0
      vertex -0.374763 1.96457 0
      vertex -0.125581 1.99605 0
    endloop
  endfacet
  facet normal 0 0 -1
    outer loop
      vertex -0.618033 1.90211 0
      vertex -0.339918 1.04616 0
      vertex -0.468357 0.995309 0
    endloop
  endfacet
  facet normal 0 0 -1
    outer loop
      vertex -0.851558 1.80965 0
      vertex -0.468357 0.995309 0
      vertex -0.589409 0.928761 0
    endloop
  endfacet
  facet normal 0 0 -1
    outer loop
      vertex -0.339918 1.04616 0
      vertex -0.618033 1.90211 0
      vertex -0.374763 1.96457 0
    endloop
  endfacet
  facet normal 0 0 -1
    outer loop
      vertex -1.07165 1.68865 0
      vertex -0.589409 0.928761 0
      vertex -0.701166 0.847564 0
    endloop
  endfacet
  facet normal 0 0 -1
    outer loop
      vertex -1.27485 1.54103 0
      vertex -0.701166 0.847564 0
      vertex -0.801865 0.753001 0
    endloop
  endfacet
  facet normal 0 0 -1
    outer loop
      vertex -0.468357 0.995309 0
      vertex -0.851558 1.80965 0
      vertex -0.618033 1.90211 0
    endloop
  endfacet
  facet normal 0 0 -1
    outer loop
      vertex -1.45794 1.36909 0
      vertex -0.801865 0.753001 0
      vertex -0.889918 0.646564 0
    endloop
  endfacet
  facet normal 0 0 -1
    outer loop
      vertex -1.61803 1.17557 0
      vertex -0.889918 0.646564 0
      vertex -0.963937 0.529928 0
    endloop
  endfacet
  facet normal 0 0 -1
    outer loop
      vertex -1.75261 0.963507 0
      vertex -0.963937 0.529928 0
      vertex -1.02275 0.404937 0
    endloop
  endfacet
  facet normal 0 0 -1
    outer loop
      vertex -1.85955 0.736249 0
      vertex -1.02275 0.404937 0
      vertex -1.06544 0.273559 0
    endloop
  endfacet
  facet normal 0 0 -1
    outer loop
      vertex -0.589409 0.928761 0
      vertex -1.07165 1.68865 0
      vertex -0.851558 1.80965 0
    endloop
  endfacet
  facet normal 0 0 -1
    outer loop
      vertex -1.93717 0.497379 0
      vertex -1.06544 0.273559 0
      vertex -1.09133 0.137866 0
    endloop
  endfacet
  facet normal 0 0 -1
    outer loop
      vertex -1.98423 0.250666 0
      vertex -1.09133 0.137866 0
      vertex -1.1 0 0
    endloop
  endfacet
  facet normal 0 0 -1
    outer loop
      vertex -1.85955 -0.736249 0
      vertex -1.02275 -0.404937 0
      vertex -1.75261 -0.963507 0
    endloop
  endfacet
  facet normal 0 0 -1
    outer loop
      vertex -0.701166 0.847564 0
      vertex -1.27485 1.54103 0
      vertex -1.07165 1.68865 0
    endloop
  endfacet
  facet normal -0 0 -1
    outer loop
      vertex -1.02275 -0.404937 0
      vertex -1.85955 -0.736249 0
      vertex -1.06544 -0.273559 0
    endloop
  endfacet
  facet normal 0 0 -1
    outer loop
      vertex -0.801865 0.753001 0
      vertex -1.45794 1.36909 0
      vertex -1.27485 1.54103 0
    endloop
  endfacet
  facet normal 0 0 -1
    outer loop
      vertex -1.93717 -0.497379 0
      vertex -1.06544 -0.273559 0
      vertex -1.85955 -0.736249 0
    endloop
  endfacet
  facet normal 0 0 -1
    outer loop
      vertex -0.889918 0.646564 0
      vertex -1.61803 1.17557 0
      vertex -1.45794 1.36909 0
    endloop
  endfacet
  facet normal -0 0 -1
    outer loop
      vertex -1.06544 -0.273559 0
      vertex -1.93717 -0.497379 0
      vertex -1.09133 -0.137866 0
    endloop
  endfacet
  facet normal 0 0 -1
    outer loop
      vertex -0.963937 0.529928 0
      vertex -1.75261 0.963507 0
      vertex -1.61803 1.17557 0
    endloop
  endfacet
  facet normal 0 0 -1
    outer loop
      vertex -1.98423 -0.250666 0
      vertex -1.09133 -0.137866 0
      vertex -1.93717 -0.497379 0
    endloop
  endfacet
  facet normal 0 0 -1
    outer loop
      vertex -1.02275 0.404937 0
      vertex -1.85955 0.736249 0
      vertex -1.75261 0.963507 0
    endloop
  endfacet
  facet normal -0 0 -1
    outer loop
      vertex -1.09133 -0.137866 0
      vertex -1.98423 -0.250666 0
      vertex -1.1 0 0
    endloop
  endfacet
  facet normal 0 0 -1
    outer loop
      vertex -1.06544 0.273559 0
      vertex -1.93717 0.497379 0
      vertex -1.85955 0.736249 0
    endloop
  endfacet
  facet normal 0 0 -1
    outer loop
      vertex -2 0 0
      vertex -1.1 0 0
      vertex -1.98423 -0.250666 0
    endloop
  endfacet
  facet normal 0 0 -1
    outer loop
      vertex -1.09133 0.137866 0
      vertex -1.98423 0.250666 0
      vertex -1.93717 0.497379 0
    endloop
  endfacet
  facet normal 0 0 -1
    outer loop
      vertex -1.1 0 0
      vertex -2 0 0
      vertex -1.98423 0.250666 0
    endloop
  endfacet
  facet normal 0.481753 -0.876307 0
    outer loop
      vertex 0.851558 -1.80965 0
      vertex 1.07165 -1.68865 4
      vertex 0.851558 -1.80965 4
    endloop
  endfacet
  facet normal 0.481753 -0.876307 0
    outer loop
      vertex 1.07165 -1.68865 4
      vertex 0.851558 -1.80965 0
      vertex 1.07165 -1.68865 0
    endloop
  endfacet
  facet normal 0.904827 -0.425779 0
    outer loop
      vertex 1.75261 -0.963507 4
      vertex 1.85955 -0.736249 0
      vertex 1.85955 -0.736249 4
    endloop
  endfacet
  facet normal 0.904827 -0.425779 0
    outer loop
      vertex 1.85955 -0.736249 0
      vertex 1.75261 -0.963507 4
      vertex 1.75261 -0.963507 0
    endloop
  endfacet
  facet normal 0.998027 -0.062792 0
    outer loop
      vertex 1.98423 -0.250666 4
      vertex 2 0 0
      vertex 2 0 4
    endloop
  endfacet
  facet normal 0.998027 -0.062792 0
    outer loop
      vertex 2 0 0
      vertex 1.98423 -0.250666 4
      vertex 1.98423 -0.250666 0
    endloop
  endfacet
  facet normal -0.770514 -0.637423 0
    outer loop
      vertex -1.45794 -1.36909 0
      vertex -1.61803 -1.17557 4
      vertex -1.61803 -1.17557 0
    endloop
  endfacet
  facet normal -0.770514 -0.637423 0
    outer loop
      vertex -1.61803 -1.17557 4
      vertex -1.45794 -1.36909 0
      vertex -1.45794 -1.36909 4
    endloop
  endfacet
  facet normal -0.951056 -0.309018 0
    outer loop
      vertex -1.85955 -0.736249 0
      vertex -1.93717 -0.497379 4
      vertex -1.93717 -0.497379 0
    endloop
  endfacet
  facet normal -0.951056 -0.309018 0
    outer loop
      vertex -1.93717 -0.497379 4
      vertex -1.85955 -0.736249 0
      vertex -1.85955 -0.736249 4
    endloop
  endfacet
  facet normal 0.587785 -0.809017 0
    outer loop
      vertex 1.07165 -1.68865 0
      vertex 1.27485 -1.54103 4
      vertex 1.07165 -1.68865 4
    endloop
  endfacet
  facet normal 0.587785 -0.809017 0
    outer loop
      vertex 1.27485 -1.54103 4
      vertex 1.07165 -1.68865 0
      vertex 1.27485 -1.54103 0
    endloop
  endfacet
  facet normal 0.248688 -0.968584 0
    outer loop
      vertex 0.374763 -1.96457 0
      vertex 0.618033 -1.90211 4
      vertex 0.374763 -1.96457 4
    endloop
  endfacet
  facet normal 0.248688 -0.968584 0
    outer loop
      vertex 0.618033 -1.90211 4
      vertex 0.374763 -1.96457 0
      vertex 0.618033 -1.90211 0
    endloop
  endfacet
  facet normal 0.125333 -0.992115 0
    outer loop
      vertex 0.125581 -1.99605 0
      vertex 0.374763 -1.96457 4
      vertex 0.125581 -1.99605 4
    endloop
  endfacet
  facet normal 0.125333 -0.992115 0
    outer loop
      vertex 0.374763 -1.96457 4
      vertex 0.125581 -1.99605 0
      vertex 0.374763 -1.96457 0
    endloop
  endfacet
  facet normal 0.844328 -0.535826 0
    outer loop
      vertex 1.61803 -1.17557 4
      vertex 1.75261 -0.963507 0
      vertex 1.75261 -0.963507 4
    endloop
  endfacet
  facet normal 0.844328 -0.535826 0
    outer loop
      vertex 1.75261 -0.963507 0
      vertex 1.61803 -1.17557 4
      vertex 1.61803 -1.17557 0
    endloop
  endfacet
  facet normal 0.770514 -0.637423 0
    outer loop
      vertex 1.45794 -1.36909 4
      vertex 1.61803 -1.17557 0
      vertex 1.61803 -1.17557 4
    endloop
  endfacet
  facet normal 0.770514 -0.637423 0
    outer loop
      vertex 1.61803 -1.17557 0
      vertex 1.45794 -1.36909 4
      vertex 1.45794 -1.36909 0
    endloop
  endfacet
  facet normal 0.951056 -0.309018 0
    outer loop
      vertex 1.85955 -0.736249 4
      vertex 1.93717 -0.497379 0
      vertex 1.93717 -0.497379 4
    endloop
  endfacet
  facet normal 0.951056 -0.309018 0
    outer loop
      vertex 1.93717 -0.497379 0
      vertex 1.85955 -0.736249 4
      vertex 1.85955 -0.736249 0
    endloop
  endfacet
  facet normal -0.248688 -0.968584 0
    outer loop
      vertex -0.618033 -1.90211 0
      vertex -0.374763 -1.96457 4
      vertex -0.618033 -1.90211 4
    endloop
  endfacet
  facet normal -0.248688 -0.968584 -0
    outer loop
      vertex -0.374763 -1.96457 4
      vertex -0.618033 -1.90211 0
      vertex -0.374763 -1.96457 0
    endloop
  endfacet
  facet normal -0.982287 -0.18738 0
    outer loop
      vertex -1.93717 -0.497379 0
      vertex -1.98423 -0.250666 4
      vertex -1.98423 -0.250666 0
    endloop
  endfacet
  facet normal -0.982287 -0.18738 0
    outer loop
      vertex -1.98423 -0.250666 4
      vertex -1.93717 -0.497379 0
      vertex -1.93717 -0.497379 4
    endloop
  endfacet
  facet normal -0.998027 -0.062792 0
    outer loop
      vertex -1.98423 -0.250666 0
      vertex -2 0 4
      vertex -2 0 0
    endloop
  endfacet
  facet normal -0.998027 -0.062792 0
    outer loop
      vertex -2 0 4
      vertex -1.98423 -0.250666 0
      vertex -1.98423 -0.250666 4
    endloop
  endfacet
  facet normal -0.684545 -0.72897 0
    outer loop
      vertex -1.45794 -1.36909 0
      vertex -1.27485 -1.54103 4
      vertex -1.45794 -1.36909 4
    endloop
  endfacet
  facet normal -0.684545 -0.72897 -0
    outer loop
      vertex -1.27485 -1.54103 4
      vertex -1.45794 -1.36909 0
      vertex -1.27485 -1.54103 0
    endloop
  endfacet
  facet normal -0.125333 -0.992115 0
    outer loop
      vertex -0.374763 -1.96457 0
      vertex -0.125581 -1.99605 4
      vertex -0.374763 -1.96457 4
    endloop
  endfacet
  facet normal -0.125333 -0.992115 -0
    outer loop
      vertex -0.125581 -1.99605 4
      vertex -0.374763 -1.96457 0
      vertex -0.125581 -1.99605 0
    endloop
  endfacet
  facet normal -0.587785 -0.809017 0
    outer loop
      vertex -1.27485 -1.54103 0
      vertex -1.07165 -1.68865 4
      vertex -1.27485 -1.54103 4
    endloop
  endfacet
  facet normal -0.587785 -0.809017 -0
    outer loop
      vertex -1.07165 -1.68865 4
      vertex -1.27485 -1.54103 0
      vertex -1.07165 -1.68865 0
    endloop
  endfacet
  facet normal -0.368128 -0.929775 0
    outer loop
      vertex -0.851558 -1.80965 0
      vertex -0.618033 -1.90211 4
      vertex -0.851558 -1.80965 4
    endloop
  endfacet
  facet normal -0.368128 -0.929775 -0
    outer loop
      vertex -0.618033 -1.90211 4
      vertex -0.851558 -1.80965 0
      vertex -0.618033 -1.90211 0
    endloop
  endfacet
  facet normal -0.481753 -0.876307 0
    outer loop
      vertex -1.07165 -1.68865 0
      vertex -0.851558 -1.80965 4
      vertex -1.07165 -1.68865 4
    endloop
  endfacet
  facet normal -0.481753 -0.876307 -0
    outer loop
      vertex -0.851558 -1.80965 4
      vertex -1.07165 -1.68865 0
      vertex -0.851558 -1.80965 0
    endloop
  endfacet
  facet normal -0.998027 -0.0627896 0
    outer loop
      vertex 1.1 0 0
      vertex 1.09133 0.137866 4
      vertex 1.09133 0.137866 0
    endloop
  endfacet
  facet normal -0.998027 -0.0627896 0
    outer loop
      vertex 1.09133 0.137866 4
      vertex 1.1 0 0
      vertex 1.1 0 4
    endloop
  endfacet
  facet normal 0.998027 -0.0627896 0
    outer loop
      vertex -1.1 0 4
      vertex -1.09133 0.137866 0
      vertex -1.09133 0.137866 4
    endloop
  endfacet
  facet normal 0.998027 -0.0627896 0
    outer loop
      vertex -1.09133 0.137866 0
      vertex -1.1 0 4
      vertex -1.1 0 0
    endloop
  endfacet
  facet normal 0 -1 0
    outer loop
      vertex -0.0690689 1.09783 0
      vertex 0.0690689 1.09783 4
      vertex -0.0690689 1.09783 4
    endloop
  endfacet
  facet normal 0 -1 -0
    outer loop
      vertex 0.0690689 1.09783 4
      vertex -0.0690689 1.09783 0
      vertex 0.0690689 1.09783 0
    endloop
  endfacet
  facet normal -0.684549 -0.728967 0
    outer loop
      vertex 0.701166 0.847564 0
      vertex 0.801865 0.753001 4
      vertex 0.701166 0.847564 4
    endloop
  endfacet
  facet normal -0.684549 -0.728967 -0
    outer loop
      vertex 0.801865 0.753001 4
      vertex 0.701166 0.847564 0
      vertex 0.801865 0.753001 0
    endloop
  endfacet
  facet normal 0.684549 -0.728967 0
    outer loop
      vertex -0.801865 0.753001 0
      vertex -0.701166 0.847564 4
      vertex -0.801865 0.753001 4
    endloop
  endfacet
  facet normal 0.684549 -0.728967 0
    outer loop
      vertex -0.701166 0.847564 4
      vertex -0.801865 0.753001 0
      vertex -0.701166 0.847564 0
    endloop
  endfacet
  facet normal 0.368126 -0.929776 0
    outer loop
      vertex -0.468357 0.995309 0
      vertex -0.339918 1.04616 4
      vertex -0.468357 0.995309 4
    endloop
  endfacet
  facet normal 0.368126 -0.929776 0
    outer loop
      vertex -0.339918 1.04616 4
      vertex -0.468357 0.995309 0
      vertex -0.339918 1.04616 0
    endloop
  endfacet
  facet normal -0.84433 0.535824 0
    outer loop
      vertex 0.889918 -0.646564 0
      vertex 0.963937 -0.529928 4
      vertex 0.963937 -0.529928 0
    endloop
  endfacet
  facet normal -0.84433 0.535824 0
    outer loop
      vertex 0.963937 -0.529928 4
      vertex 0.889918 -0.646564 0
      vertex 0.889918 -0.646564 4
    endloop
  endfacet
  facet normal -0.904826 -0.425782 0
    outer loop
      vertex 1.02275 0.404937 0
      vertex 0.963937 0.529928 4
      vertex 0.963937 0.529928 0
    endloop
  endfacet
  facet normal -0.904826 -0.425782 0
    outer loop
      vertex 0.963937 0.529928 4
      vertex 1.02275 0.404937 0
      vertex 1.02275 0.404937 4
    endloop
  endfacet
  facet normal -0.84433 -0.535824 0
    outer loop
      vertex 0.963937 0.529928 0
      vertex 0.889918 0.646564 4
      vertex 0.889918 0.646564 0
    endloop
  endfacet
  facet normal -0.84433 -0.535824 0
    outer loop
      vertex 0.889918 0.646564 4
      vertex 0.963937 0.529928 0
      vertex 0.963937 0.529928 4
    endloop
  endfacet
  facet normal -0.368126 -0.929776 0
    outer loop
      vertex 0.339918 1.04616 0
      vertex 0.468357 0.995309 4
      vertex 0.339918 1.04616 4
    endloop
  endfacet
  facet normal -0.368126 -0.929776 -0
    outer loop
      vertex 0.468357 0.995309 4
      vertex 0.339918 1.04616 0
      vertex 0.468357 0.995309 0
    endloop
  endfacet
  facet normal -0.248692 -0.968583 0
    outer loop
      vertex 0.206119 1.08052 0
      vertex 0.339918 1.04616 4
      vertex 0.206119 1.08052 4
    endloop
  endfacet
  facet normal -0.248692 -0.968583 -0
    outer loop
      vertex 0.339918 1.04616 4
      vertex 0.206119 1.08052 0
      vertex 0.339918 1.04616 0
    endloop
  endfacet
  facet normal -0.587787 -0.809016 0
    outer loop
      vertex 0.589409 0.928761 0
      vertex 0.701166 0.847564 4
      vertex 0.589409 0.928761 4
    endloop
  endfacet
  facet normal -0.587787 -0.809016 -0
    outer loop
      vertex 0.701166 0.847564 4
      vertex 0.589409 0.928761 0
      vertex 0.701166 0.847564 0
    endloop
  endfacet
  facet normal 0.84433 -0.535824 0
    outer loop
      vertex -0.963937 0.529928 4
      vertex -0.889918 0.646564 0
      vertex -0.889918 0.646564 4
    endloop
  endfacet
  facet normal 0.84433 -0.535824 0
    outer loop
      vertex -0.889918 0.646564 0
      vertex -0.963937 0.529928 4
      vertex -0.963937 0.529928 0
    endloop
  endfacet
  facet normal 0.77051 -0.637427 0
    outer loop
      vertex -0.889918 0.646564 4
      vertex -0.801865 0.753001 0
      vertex -0.801865 0.753001 4
    endloop
  endfacet
  facet normal 0.77051 -0.637427 0
    outer loop
      vertex -0.801865 0.753001 0
      vertex -0.889918 0.646564 4
      vertex -0.889918 0.646564 0
    endloop
  endfacet
  facet normal 0.951056 -0.309017 0
    outer loop
      vertex -1.06544 0.273559 4
      vertex -1.02275 0.404937 0
      vertex -1.02275 0.404937 4
    endloop
  endfacet
  facet normal 0.951056 -0.309017 0
    outer loop
      vertex -1.02275 0.404937 0
      vertex -1.06544 0.273559 4
      vertex -1.06544 0.273559 0
    endloop
  endfacet
  facet normal 0.481751 -0.876308 0
    outer loop
      vertex -0.589409 0.928761 0
      vertex -0.468357 0.995309 4
      vertex -0.589409 0.928761 4
    endloop
  endfacet
  facet normal 0.481751 -0.876308 0
    outer loop
      vertex -0.468357 0.995309 4
      vertex -0.589409 0.928761 0
      vertex -0.468357 0.995309 0
    endloop
  endfacet
  facet normal 0.12533 -0.992115 0
    outer loop
      vertex -0.206119 1.08052 0
      vertex -0.0690689 1.09783 4
      vertex -0.206119 1.08052 4
    endloop
  endfacet
  facet normal 0.12533 -0.992115 0
    outer loop
      vertex -0.0690689 1.09783 4
      vertex -0.206119 1.08052 0
      vertex -0.0690689 1.09783 0
    endloop
  endfacet
  facet normal 0.248692 0.968583 -0
    outer loop
      vertex -0.206119 -1.08052 0
      vertex -0.339918 -1.04616 4
      vertex -0.206119 -1.08052 4
    endloop
  endfacet
  facet normal 0.248692 0.968583 0
    outer loop
      vertex -0.339918 -1.04616 4
      vertex -0.206119 -1.08052 0
      vertex -0.339918 -1.04616 0
    endloop
  endfacet
  facet normal -0.12533 0.992115 0
    outer loop
      vertex 0.206119 -1.08052 0
      vertex 0.0690689 -1.09783 4
      vertex 0.206119 -1.08052 4
    endloop
  endfacet
  facet normal -0.12533 0.992115 0
    outer loop
      vertex 0.0690689 -1.09783 4
      vertex 0.206119 -1.08052 0
      vertex 0.0690689 -1.09783 0
    endloop
  endfacet
  facet normal -0.951056 -0.309017 0
    outer loop
      vertex 1.06544 0.273559 0
      vertex 1.02275 0.404937 4
      vertex 1.02275 0.404937 0
    endloop
  endfacet
  facet normal -0.951056 -0.309017 0
    outer loop
      vertex 1.02275 0.404937 4
      vertex 1.06544 0.273559 0
      vertex 1.06544 0.273559 4
    endloop
  endfacet
  facet normal -0.982287 -0.18738 0
    outer loop
      vertex 1.09133 0.137866 0
      vertex 1.06544 0.273559 4
      vertex 1.06544 0.273559 0
    endloop
  endfacet
  facet normal -0.982287 -0.18738 0
    outer loop
      vertex 1.06544 0.273559 4
      vertex 1.09133 0.137866 0
      vertex 1.09133 0.137866 4
    endloop
  endfacet
  facet normal -0.77051 -0.637427 0
    outer loop
      vertex 0.889918 0.646564 0
      vertex 0.801865 0.753001 4
      vertex 0.801865 0.753001 0
    endloop
  endfacet
  facet normal -0.77051 -0.637427 0
    outer loop
      vertex 0.801865 0.753001 4
      vertex 0.889918 0.646564 0
      vertex 0.889918 0.646564 4
    endloop
  endfacet
  facet normal -0.12533 -0.992115 0
    outer loop
      vertex 0.0690689 1.09783 0
      vertex 0.206119 1.08052 4
      vertex 0.0690689 1.09783 4
    endloop
  endfacet
  facet normal -0.12533 -0.992115 -0
    outer loop
      vertex 0.206119 1.08052 4
      vertex 0.0690689 1.09783 0
      vertex 0.206119 1.08052 0
    endloop
  endfacet
  facet normal 0.904826 -0.425782 0
    outer loop
      vertex -1.02275 0.404937 4
      vertex -0.963937 0.529928 0
      vertex -0.963937 0.529928 4
    endloop
  endfacet
  facet normal 0.904826 -0.425782 0
    outer loop
      vertex -0.963937 0.529928 0
      vertex -1.02275 0.404937 4
      vertex -1.02275 0.404937 0
    endloop
  endfacet
  facet normal 0.587787 -0.809016 0
    outer loop
      vertex -0.701166 0.847564 0
      vertex -0.589409 0.928761 4
      vertex -0.701166 0.847564 4
    endloop
  endfacet
  facet normal 0.587787 -0.809016 0
    outer loop
      vertex -0.589409 0.928761 4
      vertex -0.701166 0.847564 0
      vertex -0.589409 0.928761 0
    endloop
  endfacet
  facet normal 0.248692 -0.968583 0
    outer loop
      vertex -0.339918 1.04616 0
      vertex -0.206119 1.08052 4
      vertex -0.339918 1.04616 4
    endloop
  endfacet
  facet normal 0.248692 -0.968583 0
    outer loop
      vertex -0.206119 1.08052 4
      vertex -0.339918 1.04616 0
      vertex -0.206119 1.08052 0
    endloop
  endfacet
  facet normal -0.982287 0.18738 0
    outer loop
      vertex 1.06544 -0.273559 0
      vertex 1.09133 -0.137866 4
      vertex 1.09133 -0.137866 0
    endloop
  endfacet
  facet normal -0.982287 0.18738 0
    outer loop
      vertex 1.09133 -0.137866 4
      vertex 1.06544 -0.273559 0
      vertex 1.06544 -0.273559 4
    endloop
  endfacet
  facet normal -0.998027 0.0627896 0
    outer loop
      vertex 1.09133 -0.137866 0
      vertex 1.1 0 4
      vertex 1.1 0 0
    endloop
  endfacet
  facet normal -0.998027 0.0627896 0
    outer loop
      vertex 1.1 0 4
      vertex 1.09133 -0.137866 0
      vertex 1.09133 -0.137866 4
    endloop
  endfacet
  facet normal -0.587787 0.809016 0
    outer loop
      vertex 0.701166 -0.847564 0
      vertex 0.589409 -0.928761 4
      vertex 0.701166 -0.847564 4
    endloop
  endfacet
  facet normal -0.587787 0.809016 0
    outer loop
      vertex 0.589409 -0.928761 4
      vertex 0.701166 -0.847564 0
      vertex 0.589409 -0.928761 0
    endloop
  endfacet
  facet normal -0.951056 0.309017 0
    outer loop
      vertex 1.02275 -0.404937 0
      vertex 1.06544 -0.273559 4
      vertex 1.06544 -0.273559 0
    endloop
  endfacet
  facet normal -0.951056 0.309017 0
    outer loop
      vertex 1.06544 -0.273559 4
      vertex 1.02275 -0.404937 0
      vertex 1.02275 -0.404937 4
    endloop
  endfacet
  facet normal -0.904826 0.425782 0
    outer loop
      vertex 0.963937 -0.529928 0
      vertex 1.02275 -0.404937 4
      vertex 1.02275 -0.404937 0
    endloop
  endfacet
  facet normal -0.904826 0.425782 0
    outer loop
      vertex 1.02275 -0.404937 4
      vertex 0.963937 -0.529928 0
      vertex 0.963937 -0.529928 4
    endloop
  endfacet
  facet normal 0.12533 0.992115 -0
    outer loop
      vertex -0.0690689 -1.09783 0
      vertex -0.206119 -1.08052 4
      vertex -0.0690689 -1.09783 4
    endloop
  endfacet
  facet normal 0.12533 0.992115 0
    outer loop
      vertex -0.206119 -1.08052 4
      vertex -0.0690689 -1.09783 0
      vertex -0.206119 -1.08052 0
    endloop
  endfacet
  facet normal 0.951056 0.309017 0
    outer loop
      vertex -1.02275 -0.404937 4
      vertex -1.06544 -0.273559 0
      vertex -1.06544 -0.273559 4
    endloop
  endfacet
  facet normal 0.951056 0.309017 0
    outer loop
      vertex -1.06544 -0.273559 0
      vertex -1.02275 -0.404937 4
      vertex -1.02275 -0.404937 0
    endloop
  endfacet
  facet normal -0.368126 0.929776 0
    outer loop
      vertex 0.468357 -0.995309 0
      vertex 0.339918 -1.04616 4
      vertex 0.468357 -0.995309 4
    endloop
  endfacet
  facet normal -0.368126 0.929776 0
    outer loop
      vertex 0.339918 -1.04616 4
      vertex 0.468357 -0.995309 0
      vertex 0.339918 -1.04616 0
    endloop
  endfacet
  facet normal -0.248692 0.968583 0
    outer loop
      vertex 0.339918 -1.04616 0
      vertex 0.206119 -1.08052 4
      vertex 0.339918 -1.04616 4
    endloop
  endfacet
  facet normal -0.248692 0.968583 0
    outer loop
      vertex 0.206119 -1.08052 4
      vertex 0.339918 -1.04616 0
      vertex 0.206119 -1.08052 0
    endloop
  endfacet
  facet normal -0.481751 -0.876308 0
    outer loop
      vertex 0.468357 0.995309 0
      vertex 0.589409 0.928761 4
      vertex 0.468357 0.995309 4
    endloop
  endfacet
  facet normal -0.481751 -0.876308 -0
    outer loop
      vertex 0.589409 0.928761 4
      vertex 0.468357 0.995309 0
      vertex 0.589409 0.928761 0
    endloop
  endfacet
  facet normal 0.982287 -0.18738 0
    outer loop
      vertex -1.09133 0.137866 4
      vertex -1.06544 0.273559 0
      vertex -1.06544 0.273559 4
    endloop
  endfacet
  facet normal 0.982287 -0.18738 0
    outer loop
      vertex -1.06544 0.273559 0
      vertex -1.09133 0.137866 4
      vertex -1.09133 0.137866 0
    endloop
  endfacet
  facet normal 0.77051 0.637427 0
    outer loop
      vertex -0.801865 -0.753001 4
      vertex -0.889918 -0.646564 0
      vertex -0.889918 -0.646564 4
    endloop
  endfacet
  facet normal 0.77051 0.637427 0
    outer loop
      vertex -0.889918 -0.646564 0
      vertex -0.801865 -0.753001 4
      vertex -0.801865 -0.753001 0
    endloop
  endfacet
  facet normal 0.998027 0.0627896 0
    outer loop
      vertex -1.09133 -0.137866 4
      vertex -1.1 0 0
      vertex -1.1 0 4
    endloop
  endfacet
  facet normal 0.998027 0.0627896 0
    outer loop
      vertex -1.1 0 0
      vertex -1.09133 -0.137866 4
      vertex -1.09133 -0.137866 0
    endloop
  endfacet
  facet normal -0.684549 0.728967 0
    outer loop
      vertex 0.801865 -0.753001 0
      vertex 0.701166 -0.847564 4
      vertex 0.801865 -0.753001 4
    endloop
  endfacet
  facet normal -0.684549 0.728967 0
    outer loop
      vertex 0.701166 -0.847564 4
      vertex 0.801865 -0.753001 0
      vertex 0.701166 -0.847564 0
    endloop
  endfacet
  facet normal -0.77051 0.637427 0
    outer loop
      vertex 0.801865 -0.753001 0
      vertex 0.889918 -0.646564 4
      vertex 0.889918 -0.646564 0
    endloop
  endfacet
  facet normal -0.77051 0.637427 0
    outer loop
      vertex 0.889918 -0.646564 4
      vertex 0.801865 -0.753001 0
      vertex 0.801865 -0.753001 4
    endloop
  endfacet
  facet normal -0.481751 0.876308 0
    outer loop
      vertex 0.589409 -0.928761 0
      vertex 0.468357 -0.995309 4
      vertex 0.589409 -0.928761 4
    endloop
  endfacet
  facet normal -0.481751 0.876308 0
    outer loop
      vertex 0.468357 -0.995309 4
      vertex 0.589409 -0.928761 0
      vertex 0.468357 -0.995309 0
    endloop
  endfacet
  facet normal 0 1 -0
    outer loop
      vertex 0.0690689 -1.09783 0
      vertex -0.0690689 -1.09783 4
      vertex 0.0690689 -1.09783 4
    endloop
  endfacet
  facet normal 0 1 0
    outer loop
      vertex -0.0690689 -1.09783 4
      vertex 0.0690689 -1.09783 0
      vertex -0.0690689 -1.09783 0
    endloop
  endfacet
  facet normal 0.481751 0.876308 -0
    outer loop
      vertex -0.468357 -0.995309 0
      vertex -0.589409 -0.928761 4
      vertex -0.468357 -0.995309 4
    endloop
  endfacet
  facet normal 0.481751 0.876308 0
    outer loop
      vertex -0.589409 -0.928761 4
      vertex -0.468357 -0.995309 0
      vertex -0.589409 -0.928761 0
    endloop
  endfacet
  facet normal 0.684549 0.728967 -0
    outer loop
      vertex -0.701166 -0.847564 0
      vertex -0.801865 -0.753001 4
      vertex -0.701166 -0.847564 4
    endloop
  endfacet
  facet normal 0.684549 0.728967 0
    outer loop
      vertex -0.801865 -0.753001 4
      vertex -0.701166 -0.847564 0
      vertex -0.801865 -0.753001 0
    endloop
  endfacet
  facet normal 0.904826 0.425782 0
    outer loop
      vertex -0.963937 -0.529928 4
      vertex -1.02275 -0.404937 0
      vertex -1.02275 -0.404937 4
    endloop
  endfacet
  facet normal 0.904826 0.425782 0
    outer loop
      vertex -1.02275 -0.404937 0
      vertex -0.963937 -0.529928 4
      vertex -0.963937 -0.529928 0
    endloop
  endfacet
  facet normal 0.84433 0.535824 0
    outer loop
      vertex -0.889918 -0.646564 4
      vertex -0.963937 -0.529928 0
      vertex -0.963937 -0.529928 4
    endloop
  endfacet
  facet normal 0.84433 0.535824 0
    outer loop
      vertex -0.963937 -0.529928 0
      vertex -0.889918 -0.646564 4
      vertex -0.889918 -0.646564 0
    endloop
  endfacet
  facet normal 0.982287 0.18738 0
    outer loop
      vertex -1.06544 -0.273559 4
      vertex -1.09133 -0.137866 0
      vertex -1.09133 -0.137866 4
    endloop
  endfacet
  facet normal 0.982287 0.18738 0
    outer loop
      vertex -1.09133 -0.137866 0
      vertex -1.06544 -0.273559 4
      vertex -1.06544 -0.273559 0
    endloop
  endfacet
  facet normal 0.587787 0.809016 -0
    outer loop
      vertex -0.589409 -0.928761 0
      vertex -0.701166 -0.847564 4
      vertex -0.589409 -0.928761 4
    endloop
  endfacet
  facet normal 0.587787 0.809016 0
    outer loop
      vertex -0.701166 -0.847564 4
      vertex -0.589409 -0.928761 0
      vertex -0.701166 -0.847564 0
    endloop
  endfacet
  facet normal 0.368126 0.929776 -0
    outer loop
      vertex -0.339918 -1.04616 0
      vertex -0.468357 -0.995309 4
      vertex -0.339918 -1.04616 4
    endloop
  endfacet
  facet normal 0.368126 0.929776 0
    outer loop
      vertex -0.468357 -0.995309 4
      vertex -0.339918 -1.04616 0
      vertex -0.468357 -0.995309 0
    endloop
  endfacet
endsolid OpenSCAD_Model
