solid OpenSCAD_Model
  facet normal 1 6.35783e-07 -3.17891e-07
    outer loop
      vertex -4 -6.2 4
      vertex -4 -4.7 4
      vertex -4 -4.7 7
    endloop
  endfacet
  facet normal -2.38419e-07 0 -1
    outer loop
      vertex -4 -4.7 4
      vertex -8 -6.2 4
      vertex -8 -4.7 4
    endloop
  endfacet
  facet normal 1.06624e-07 -0.894427 0.447213
    outer loop
      vertex -4 -4.7 7
      vertex -8 -6.2 4
      vertex -4 -6.2 4
    endloop
  endfacet
  facet normal -2.38419e-07 -1.51582e-13 -1
    outer loop
      vertex -4 -6.2 4
      vertex -8 -6.2 4
      vertex -4 -4.7 4
    endloop
  endfacet
  facet normal 0 -1 0
    outer loop
      vertex -10.2 -4.7 7
      vertex -8 -4.7 4
      vertex -8 -4.7 7
    endloop
  endfacet
  facet normal 0 -1 0
    outer loop
      vertex 10.2 -4.7 0
      vertex 4 -4.7 4
      vertex -10.2 -4.7 0
    endloop
  endfacet
  facet normal 0 -1 -0
    outer loop
      vertex -8 -4.7 4
      vertex -10.2 -4.7 0
      vertex -4 -4.7 4
    endloop
  endfacet
  facet normal 0 -1 0
    outer loop
      vertex -10.2 -4.7 0
      vertex -8 -4.7 4
      vertex -10.2 -4.7 7
    endloop
  endfacet
  facet normal 0 -1 0
    outer loop
      vertex -4 -4.7 7
      vertex 4 -4.7 4
      vertex 4 -4.7 7
    endloop
  endfacet
  facet normal 0 -1 0
    outer loop
      vertex -4 -4.7 4
      vertex 4 -4.7 4
      vertex -4 -4.7 7
    endloop
  endfacet
  facet normal 0 -1 0
    outer loop
      vertex -10.2 -4.7 0
      vertex 4 -4.7 4
      vertex -4 -4.7 4
    endloop
  endfacet
  facet normal 0 -1 0
    outer loop
      vertex 8 -4.7 4
      vertex 10.2 -4.7 7
      vertex 8 -4.7 7
    endloop
  endfacet
  facet normal 0 -1 0
    outer loop
      vertex 8 -4.7 4
      vertex 10.2 -4.7 0
      vertex 10.2 -4.7 7
    endloop
  endfacet
  facet normal 0 -1 0
    outer loop
      vertex 4 -4.7 4
      vertex 10.2 -4.7 0
      vertex 8 -4.7 4
    endloop
  endfacet
  facet normal -1 0 3.17891e-07
    outer loop
      vertex -8 -4.7 4
      vertex -8 -6.2 4
      vertex -8 -4.7 7
    endloop
  endfacet
  facet normal 0 -0.894427 0.447214
    outer loop
      vertex -8 -4.7 7
      vertex -8 -6.2 4
      vertex -4 -4.7 7
    endloop
  endfacet
  facet normal 1 0 0
    outer loop
      vertex 8 -4.7 7
      vertex 8 -6.2 4
      vertex 8 -4.7 4
    endloop
  endfacet
  facet normal 1.06624e-07 -0.894427 0.447213
    outer loop
      vertex 8 -4.7 7
      vertex 4 -6.2 4
      vertex 8 -6.2 4
    endloop
  endfacet
  facet normal -2.38419e-07 0 -1
    outer loop
      vertex 4 -6.2 4
      vertex 8 -4.7 4
      vertex 8 -6.2 4
    endloop
  endfacet
  facet normal -2.38419e-07 0 -1
    outer loop
      vertex 8 -4.7 4
      vertex 4 -6.2 4
      vertex 4 -4.7 4
    endloop
  endfacet
  facet normal 0 -0.894427 0.447214
    outer loop
      vertex 4 -4.7 7
      vertex 4 -6.2 4
      vertex 8 -4.7 7
    endloop
  endfacet
  facet normal -1 0 0
    outer loop
      vertex 4 -4.7 4
      vertex 4 -6.2 4
      vertex 4 -4.7 7
    endloop
  endfacet
  facet normal -1 0 0
    outer loop
      vertex -5.6 6.2 4
      vertex -5.6 4.7 4
      vertex -5.6 4.7 7
    endloop
  endfacet
  facet normal 2.38419e-07 0 -1
    outer loop
      vertex -5.6 4.7 4
      vertex -1.6 6.2 4
      vertex -1.6 4.7 4
    endloop
  endfacet
  facet normal 2.38419e-07 0 -1
    outer loop
      vertex -1.6 6.2 4
      vertex -5.6 4.7 4
      vertex -5.6 6.2 4
    endloop
  endfacet
  facet normal -1.06624e-07 0.894427 0.447213
    outer loop
      vertex -5.6 6.2 4
      vertex -5.6 4.7 7
      vertex -1.6 6.2 4
    endloop
  endfacet
  facet normal 0 0.894427 0.447214
    outer loop
      vertex -1.6 6.2 4
      vertex -5.6 4.7 7
      vertex -1.6 4.7 7
    endloop
  endfacet
  facet normal 0 1 0
    outer loop
      vertex 10.2 4.7 7
      vertex 5.6 4.7 4
      vertex 5.6 4.7 7
    endloop
  endfacet
  facet normal 0 1 0
    outer loop
      vertex -10.2 4.7 0
      vertex -1.6 4.7 4
      vertex 10.2 4.7 0
    endloop
  endfacet
  facet normal 0 1 0
    outer loop
      vertex 5.6 4.7 4
      vertex 10.2 4.7 0
      vertex 1.6 4.7 4
    endloop
  endfacet
  facet normal 0 1 -0
    outer loop
      vertex 10.2 4.7 0
      vertex 5.6 4.7 4
      vertex 10.2 4.7 7
    endloop
  endfacet
  facet normal 0 1 0
    outer loop
      vertex 1.6 4.7 7
      vertex -1.6 4.7 4
      vertex -1.6 4.7 7
    endloop
  endfacet
  facet normal 0 1 -0
    outer loop
      vertex 1.6 4.7 4
      vertex -1.6 4.7 4
      vertex 1.6 4.7 7
    endloop
  endfacet
  facet normal 0 1 0
    outer loop
      vertex 10.2 4.7 0
      vertex -1.6 4.7 4
      vertex 1.6 4.7 4
    endloop
  endfacet
  facet normal 0 1 -0
    outer loop
      vertex -5.6 4.7 4
      vertex -10.2 4.7 7
      vertex -5.6 4.7 7
    endloop
  endfacet
  facet normal 0 1 0
    outer loop
      vertex -5.6 4.7 4
      vertex -10.2 4.7 0
      vertex -10.2 4.7 7
    endloop
  endfacet
  facet normal 0 1 0
    outer loop
      vertex -1.6 4.7 4
      vertex -10.2 4.7 0
      vertex -5.6 4.7 4
    endloop
  endfacet
  facet normal 1 0 0
    outer loop
      vertex -1.6 4.7 7
      vertex -1.6 4.7 4
      vertex -1.6 6.2 4
    endloop
  endfacet
  facet normal -1 0 0
    outer loop
      vertex 1.6 6.2 4
      vertex 1.6 4.7 4
      vertex 1.6 4.7 7
    endloop
  endfacet
  facet normal 2.38419e-07 0 -1
    outer loop
      vertex 1.6 4.7 4
      vertex 5.6 6.2 4
      vertex 5.6 4.7 4
    endloop
  endfacet
  facet normal 2.38419e-07 0 -1
    outer loop
      vertex 5.6 6.2 4
      vertex 1.6 4.7 4
      vertex 1.6 6.2 4
    endloop
  endfacet
  facet normal -1.06624e-07 0.894427 0.447213
    outer loop
      vertex 1.6 6.2 4
      vertex 1.6 4.7 7
      vertex 5.6 6.2 4
    endloop
  endfacet
  facet normal 0 0.894427 0.447214
    outer loop
      vertex 5.6 6.2 4
      vertex 1.6 4.7 7
      vertex 5.6 4.7 7
    endloop
  endfacet
  facet normal 1 0 0
    outer loop
      vertex 5.6 4.7 7
      vertex 5.6 4.7 4
      vertex 5.6 6.2 4
    endloop
  endfacet
  facet normal -1 0 0
    outer loop
      vertex -14 -8.5 -1.2
      vertex -14 8.5 0
      vertex -14 8.5 -1.2
    endloop
  endfacet
  facet normal -1 -0 0
    outer loop
      vertex -14 8.5 0
      vertex -14 -8.5 -1.2
      vertex -14 -8.5 0
    endloop
  endfacet
  facet normal 0 0 1
    outer loop
      vertex 14 8.5 0
      vertex 10.2 4.7 0
      vertex 14 -8.5 0
    endloop
  endfacet
  facet normal 0 0 1
    outer loop
      vertex 14 8.5 0
      vertex -10.2 4.7 0
      vertex 10.2 4.7 0
    endloop
  endfacet
  facet normal 0 0 1
    outer loop
      vertex -10.2 4.7 0
      vertex -14 8.5 0
      vertex -10.2 -4.7 0
    endloop
  endfacet
  facet normal -0 0 1
    outer loop
      vertex -14 8.5 0
      vertex -10.2 4.7 0
      vertex 14 8.5 0
    endloop
  endfacet
  facet normal -0 0 1
    outer loop
      vertex 10.2 -4.7 0
      vertex 14 -8.5 0
      vertex 10.2 4.7 0
    endloop
  endfacet
  facet normal -0 0 1
    outer loop
      vertex -10.2 -4.7 0
      vertex 14 -8.5 0
      vertex 10.2 -4.7 0
    endloop
  endfacet
  facet normal 0 0 1
    outer loop
      vertex -10.2 -4.7 0
      vertex -14 -8.5 0
      vertex 14 -8.5 0
    endloop
  endfacet
  facet normal 0 0 1
    outer loop
      vertex -14 -8.5 0
      vertex -10.2 -4.7 0
      vertex -14 8.5 0
    endloop
  endfacet
  facet normal 1 -0 0
    outer loop
      vertex 14 -8.5 0
      vertex 14 8.5 -1.2
      vertex 14 8.5 0
    endloop
  endfacet
  facet normal 1 0 0
    outer loop
      vertex 14 8.5 -1.2
      vertex 14 -8.5 0
      vertex 14 -8.5 -1.2
    endloop
  endfacet
  facet normal 0 1 -0
    outer loop
      vertex 14 8.5 -1.2
      vertex -14 8.5 0
      vertex 14 8.5 0
    endloop
  endfacet
  facet normal 0 1 0
    outer loop
      vertex -14 8.5 0
      vertex 14 8.5 -1.2
      vertex -14 8.5 -1.2
    endloop
  endfacet
  facet normal 0 0 -1
    outer loop
      vertex -9 2.3 -1.2
      vertex -10 2.3 -1.2
      vertex -9 3.5 -1.2
    endloop
  endfacet
  facet normal 0 0 -1
    outer loop
      vertex 14 -8.5 -1.2
      vertex 10 1.1 -1.2
      vertex 14 8.5 -1.2
    endloop
  endfacet
  facet normal 0 0 -1
    outer loop
      vertex 14 -8.5 -1.2
      vertex 9 -3.5 -1.2
      vertex 10 1.1 -1.2
    endloop
  endfacet
  facet normal 0 0 -1
    outer loop
      vertex 14 -8.5 -1.2
      vertex -9 -3.5 -1.2
      vertex 9 -3.5 -1.2
    endloop
  endfacet
  facet normal 0 0 -1
    outer loop
      vertex -9 -3.5 -1.2
      vertex -10 1.1 -1.2
      vertex -9 1.1 -1.2
    endloop
  endfacet
  facet normal 0 0 -1
    outer loop
      vertex -14 8.5 -1.2
      vertex -10 1.1 -1.2
      vertex -14 -8.5 -1.2
    endloop
  endfacet
  facet normal -0 0 -1
    outer loop
      vertex -9 -3.5 -1.2
      vertex -14 -8.5 -1.2
      vertex -10 1.1 -1.2
    endloop
  endfacet
  facet normal 0 0 -1
    outer loop
      vertex -14 -8.5 -1.2
      vertex -9 -3.5 -1.2
      vertex 14 -8.5 -1.2
    endloop
  endfacet
  facet normal 0 0 -1
    outer loop
      vertex 10 2.3 -1.2
      vertex 14 8.5 -1.2
      vertex 10 1.1 -1.2
    endloop
  endfacet
  facet normal 0 0 -1
    outer loop
      vertex 9 3.5 -1.2
      vertex 10 2.3 -1.2
      vertex 9 2.3 -1.2
    endloop
  endfacet
  facet normal 0 0 -1
    outer loop
      vertex 10 2.3 -1.2
      vertex 9 3.5 -1.2
      vertex 14 8.5 -1.2
    endloop
  endfacet
  facet normal 0 0 -1
    outer loop
      vertex -9 3.5 -1.2
      vertex 14 8.5 -1.2
      vertex 9 3.5 -1.2
    endloop
  endfacet
  facet normal 0 0 -1
    outer loop
      vertex -9 3.5 -1.2
      vertex -14 8.5 -1.2
      vertex 14 8.5 -1.2
    endloop
  endfacet
  facet normal 0 0 -1
    outer loop
      vertex -10 2.3 -1.2
      vertex -14 8.5 -1.2
      vertex -9 3.5 -1.2
    endloop
  endfacet
  facet normal 0 0 -1
    outer loop
      vertex -10 1.1 -1.2
      vertex -14 8.5 -1.2
      vertex -10 2.3 -1.2
    endloop
  endfacet
  facet normal -0 0 -1
    outer loop
      vertex 10 1.1 -1.2
      vertex 9 -3.5 -1.2
      vertex 9 1.1 -1.2
    endloop
  endfacet
  facet normal 0 -1 0
    outer loop
      vertex -14 -8.5 -1.2
      vertex 14 -8.5 0
      vertex -14 -8.5 0
    endloop
  endfacet
  facet normal 0 -1 -0
    outer loop
      vertex 14 -8.5 0
      vertex -14 -8.5 -1.2
      vertex 14 -8.5 -1.2
    endloop
  endfacet
  facet normal -1 0 0
    outer loop
      vertex -10.2 -4.7 0
      vertex -10.2 4.7 7
      vertex -10.2 4.7 0
    endloop
  endfacet
  facet normal -1 -0 0
    outer loop
      vertex -10.2 4.7 7
      vertex -10.2 -4.7 0
      vertex -10.2 -4.7 7
    endloop
  endfacet
  facet normal -0 0 1
    outer loop
      vertex -10 1.1 7
      vertex -4 -1.5 7
      vertex -4 1.1 7
    endloop
  endfacet
  facet normal 0 0 1
    outer loop
      vertex -4 -1.5 7
      vertex -10 1.1 7
      vertex -8 -4.7 7
    endloop
  endfacet
  facet normal 0 0 1
    outer loop
      vertex -10 1.1 7
      vertex -10.2 -4.7 7
      vertex -8 -4.7 7
    endloop
  endfacet
  facet normal 0 0 1
    outer loop
      vertex -10.2 -4.7 7
      vertex -10 1.1 7
      vertex -10.2 4.7 7
    endloop
  endfacet
  facet normal 0 0 1
    outer loop
      vertex 10 1.1 7
      vertex 10.2 4.7 7
      vertex 10 2.3 7
    endloop
  endfacet
  facet normal -0 0 1
    outer loop
      vertex 5.6 4.7 7
      vertex 10 2.3 7
      vertex 10.2 4.7 7
    endloop
  endfacet
  facet normal -0 0 1
    outer loop
      vertex 1.6 4.7 7
      vertex 10 2.3 7
      vertex 5.6 4.7 7
    endloop
  endfacet
  facet normal -0 0 1
    outer loop
      vertex -1.6 4.7 7
      vertex 10 2.3 7
      vertex 1.6 4.7 7
    endloop
  endfacet
  facet normal 0 0 1
    outer loop
      vertex -10 2.3 7
      vertex -1.6 4.7 7
      vertex -5.6 4.7 7
    endloop
  endfacet
  facet normal 0 0 1
    outer loop
      vertex -1.6 4.7 7
      vertex -10 2.3 7
      vertex 10 2.3 7
    endloop
  endfacet
  facet normal 0 0 1
    outer loop
      vertex -10 2.3 7
      vertex -10.2 4.7 7
      vertex -10 1.1 7
    endloop
  endfacet
  facet normal -0 0 1
    outer loop
      vertex -10.2 4.7 7
      vertex -10 2.3 7
      vertex -5.6 4.7 7
    endloop
  endfacet
  facet normal 0 0 1
    outer loop
      vertex 10.2 4.7 7
      vertex 10 1.1 7
      vertex 10.2 -4.7 7
    endloop
  endfacet
  facet normal 0 0 1
    outer loop
      vertex 10 1.1 7
      vertex 8 -4.7 7
      vertex 10.2 -4.7 7
    endloop
  endfacet
  facet normal 0 0 1
    outer loop
      vertex 4 -1.5 7
      vertex 10 1.1 7
      vertex 4 1.1 7
    endloop
  endfacet
  facet normal 0 0 1
    outer loop
      vertex 10 1.1 7
      vertex 4 -1.5 7
      vertex 8 -4.7 7
    endloop
  endfacet
  facet normal 0 0 1
    outer loop
      vertex 4 -1.5 7
      vertex 4 -4.7 7
      vertex 8 -4.7 7
    endloop
  endfacet
  facet normal 0 0 1
    outer loop
      vertex 4 -1.5 7
      vertex -4 -4.7 7
      vertex 4 -4.7 7
    endloop
  endfacet
  facet normal -0 0 1
    outer loop
      vertex -4 -1.5 7
      vertex -4 -4.7 7
      vertex 4 -1.5 7
    endloop
  endfacet
  facet normal 0 0 1
    outer loop
      vertex -4 -4.7 7
      vertex -4 -1.5 7
      vertex -8 -4.7 7
    endloop
  endfacet
  facet normal 1 -0 0
    outer loop
      vertex 10.2 -4.7 7
      vertex 10.2 4.7 0
      vertex 10.2 4.7 7
    endloop
  endfacet
  facet normal 1 0 0
    outer loop
      vertex 10.2 4.7 0
      vertex 10.2 -4.7 7
      vertex 10.2 -4.7 0
    endloop
  endfacet
  facet normal 1 -0 0
    outer loop
      vertex -9 -3.5 1.8
      vertex -9 1.1 -1.2
      vertex -9 1.1 1.8
    endloop
  endfacet
  facet normal 1 0 0
    outer loop
      vertex -9 1.1 -1.2
      vertex -9 -3.5 1.8
      vertex -9 -3.5 -1.2
    endloop
  endfacet
  facet normal 1 -0 0
    outer loop
      vertex -9 2.3 1.8
      vertex -9 3.5 -1.2
      vertex -9 3.5 1.8
    endloop
  endfacet
  facet normal 1 0 0
    outer loop
      vertex -9 3.5 -1.2
      vertex -9 2.3 1.8
      vertex -9 2.3 -1.2
    endloop
  endfacet
  facet normal 0 0 -1
    outer loop
      vertex 9 -3.5 1.8
      vertex 4 -1.5 1.8
      vertex 9 1.1 1.8
    endloop
  endfacet
  facet normal 0 0 -1
    outer loop
      vertex 9 -3.5 1.8
      vertex -4 -1.5 1.8
      vertex 4 -1.5 1.8
    endloop
  endfacet
  facet normal 0 0 -1
    outer loop
      vertex -9 -3.5 1.8
      vertex -4 -1.5 1.8
      vertex 9 -3.5 1.8
    endloop
  endfacet
  facet normal 0 0 -1
    outer loop
      vertex -9 1.1 1.8
      vertex -4 -1.5 1.8
      vertex -9 -3.5 1.8
    endloop
  endfacet
  facet normal 0 0 -1
    outer loop
      vertex -4 -1.5 1.8
      vertex -9 1.1 1.8
      vertex -4 1.1 1.8
    endloop
  endfacet
  facet normal -0 0 -1
    outer loop
      vertex 9 1.1 1.8
      vertex 4 -1.5 1.8
      vertex 4 1.1 1.8
    endloop
  endfacet
  facet normal 0 0 -1
    outer loop
      vertex -9 2.3 1.8
      vertex 9 3.5 1.8
      vertex 9 2.3 1.8
    endloop
  endfacet
  facet normal -0 0 -1
    outer loop
      vertex 9 3.5 1.8
      vertex -9 2.3 1.8
      vertex -9 3.5 1.8
    endloop
  endfacet
  facet normal -1 0 0
    outer loop
      vertex 9 -3.5 -1.2
      vertex 9 1.1 1.8
      vertex 9 1.1 -1.2
    endloop
  endfacet
  facet normal -1 -0 0
    outer loop
      vertex 9 1.1 1.8
      vertex 9 -3.5 -1.2
      vertex 9 -3.5 1.8
    endloop
  endfacet
  facet normal -1 0 0
    outer loop
      vertex 9 2.3 -1.2
      vertex 9 3.5 1.8
      vertex 9 3.5 -1.2
    endloop
  endfacet
  facet normal -1 -0 0
    outer loop
      vertex 9 3.5 1.8
      vertex 9 2.3 -1.2
      vertex 9 2.3 1.8
    endloop
  endfacet
  facet normal 0 1 -0
    outer loop
      vertex 9 -3.5 -1.2
      vertex -9 -3.5 1.8
      vertex 9 -3.5 1.8
    endloop
  endfacet
  facet normal 0 1 0
    outer loop
      vertex -9 -3.5 1.8
      vertex 9 -3.5 -1.2
      vertex -9 -3.5 -1.2
    endloop
  endfacet
  facet normal 0 -1 0
    outer loop
      vertex -9 3.5 -1.2
      vertex 9 3.5 1.8
      vertex -9 3.5 1.8
    endloop
  endfacet
  facet normal 0 -1 -0
    outer loop
      vertex 9 3.5 1.8
      vertex -9 3.5 -1.2
      vertex 9 3.5 -1.2
    endloop
  endfacet
  facet normal 1 -0 0
    outer loop
      vertex -4 -1.5 7
      vertex -4 1.1 1.8
      vertex -4 1.1 7
    endloop
  endfacet
  facet normal 1 0 0
    outer loop
      vertex -4 1.1 1.8
      vertex -4 -1.5 7
      vertex -4 -1.5 1.8
    endloop
  endfacet
  facet normal -1 0 0
    outer loop
      vertex 4 -1.5 1.8
      vertex 4 1.1 7
      vertex 4 1.1 1.8
    endloop
  endfacet
  facet normal -1 -0 0
    outer loop
      vertex 4 1.1 7
      vertex 4 -1.5 1.8
      vertex 4 -1.5 7
    endloop
  endfacet
  facet normal 0 1 -0
    outer loop
      vertex 4 -1.5 1.8
      vertex -4 -1.5 7
      vertex 4 -1.5 7
    endloop
  endfacet
  facet normal 0 1 0
    outer loop
      vertex -4 -1.5 7
      vertex 4 -1.5 1.8
      vertex -4 -1.5 1.8
    endloop
  endfacet
  facet normal 1 -0 0
    outer loop
      vertex -10 1.1 7
      vertex -10 2.3 -1.2
      vertex -10 2.3 7
    endloop
  endfacet
  facet normal 1 0 0
    outer loop
      vertex -10 2.3 -1.2
      vertex -10 1.1 7
      vertex -10 1.1 -1.2
    endloop
  endfacet
  facet normal -1 0 0
    outer loop
      vertex 10 1.1 -1.2
      vertex 10 2.3 7
      vertex 10 2.3 -1.2
    endloop
  endfacet
  facet normal -1 -0 0
    outer loop
      vertex 10 2.3 7
      vertex 10 1.1 -1.2
      vertex 10 1.1 7
    endloop
  endfacet
  facet normal 0 -1 0
    outer loop
      vertex -10 2.3 7
      vertex -9 2.3 1.8
      vertex 10 2.3 7
    endloop
  endfacet
  facet normal 0 -1 0
    outer loop
      vertex -10 2.3 -1.2
      vertex -9 2.3 1.8
      vertex -10 2.3 7
    endloop
  endfacet
  facet normal 0 -1 -0
    outer loop
      vertex -9 2.3 1.8
      vertex -10 2.3 -1.2
      vertex -9 2.3 -1.2
    endloop
  endfacet
  facet normal 0 -1 0
    outer loop
      vertex 9 2.3 1.8
      vertex 10 2.3 7
      vertex -9 2.3 1.8
    endloop
  endfacet
  facet normal 0 -1 0
    outer loop
      vertex 10 2.3 -1.2
      vertex 9 2.3 1.8
      vertex 9 2.3 -1.2
    endloop
  endfacet
  facet normal 0 -1 0
    outer loop
      vertex 9 2.3 1.8
      vertex 10 2.3 -1.2
      vertex 10 2.3 7
    endloop
  endfacet
  facet normal 0 1 0
    outer loop
      vertex -9 1.1 1.8
      vertex -4 1.1 7
      vertex -4 1.1 1.8
    endloop
  endfacet
  facet normal 0 1 0
    outer loop
      vertex -4 1.1 7
      vertex -9 1.1 1.8
      vertex -10 1.1 7
    endloop
  endfacet
  facet normal 0 1 0
    outer loop
      vertex -10 1.1 -1.2
      vertex -9 1.1 1.8
      vertex -9 1.1 -1.2
    endloop
  endfacet
  facet normal 0 1 0
    outer loop
      vertex -9 1.1 1.8
      vertex -10 1.1 -1.2
      vertex -10 1.1 7
    endloop
  endfacet
  facet normal 0 1 0
    outer loop
      vertex 10 1.1 7
      vertex 9 1.1 1.8
      vertex 4 1.1 7
    endloop
  endfacet
  facet normal 0 1 -0
    outer loop
      vertex 10 1.1 -1.2
      vertex 9 1.1 1.8
      vertex 10 1.1 7
    endloop
  endfacet
  facet normal 0 1 0
    outer loop
      vertex 9 1.1 1.8
      vertex 10 1.1 -1.2
      vertex 9 1.1 -1.2
    endloop
  endfacet
  facet normal 0 1 0
    outer loop
      vertex 4 1.1 7
      vertex 9 1.1 1.8
      vertex 4 1.1 1.8
    endloop
  endfacet
endsolid OpenSCAD_Model
